<?xml version="1.0" encoding="UTF-8"?>
<svg id="Layer_2" data-name="Layer 2" xmlns="http://www.w3.org/2000/svg" viewBox="0 0 285 285">
  <defs>
    <style>
      .cls-1 {
        fill: #fcba20;
        stroke-width: 0px;
      }
    </style>
  </defs>
  <g id="Layer_1-2" data-name="Layer 1">
    <g>
      <path class="cls-1" d="m282.21,115.16c-6.09-32.29-21.93-59.33-46.97-80.52C199.6,4.47,158.49-6.02,112.74,3.28c-32.21,6.54-58.73,23.15-79.79,48.28C15.97,71.82,5.55,95.17,1.56,121.37c-.51,3.34-.33,6.79-1.56,10.01v21.71c.18.22.29.46.28.75-.09,9.07,1.74,17.85,4.11,26.55,6.02,22.06,16.89,41.48,32.2,58.38,10.33,11.41,22.24,20.97,35.71,28.51,13.54,7.58,27.89,12.89,43.14,15.86,5.28,1.03,10.61,1.24,15.92,1.87h21.71c3.33-1.15,6.86-1,10.29-1.54,37-5.81,67.45-23.21,90.59-52.52,26.95-34.13,36.33-73.03,28.27-115.78Zm-139.94,163.16c-74.9-.03-135.64-61.16-135.59-136.44C6.74,67.4,68,6.64,142.97,6.71c74.44.06,135.33,61.21,135.32,135.87-.01,74.85-61.06,135.77-136.02,135.74Z"/>
      <path class="cls-1" d="m142.43,26.12c-64.28.03-116.34,52.11-116.34,116.37,0,64.27,52.04,116.35,116.31,116.41,64.26.06,116.38-51.96,116.48-116.24.09-64.38-52.06-116.58-116.45-116.54Zm76.72,194.39c-9.08-32.2-29.94-52.12-62.64-59.79,24.96-8.63,36.26-32.93,31.43-54.64-4.84-21.77-24-36.73-46.68-36.47-21.05.24-40.18,16.27-44.36,36.96-4.48,22.13,7.16,45.66,31.64,54.14-32.76,7.69-53.62,27.58-62.76,59.97-29.74-28.09-42.21-74.8-25.92-116.93,17.69-45.75,60.49-73.22,109.41-70.83,45.35,2.21,86.28,35.17,98.8,79.42,12.34,43.61-4.33,86.03-28.92,108.18Z"/>
    </g>
  </g>
</svg>