<svg width="10" height="15" viewBox="0 0 10 15" fill="none" xmlns="http://www.w3.org/2000/svg">
<path d="M1 4.94V10.3333C1 11.3942 1.42143 12.4116 2.17157 13.1618C2.92172 13.9119 3.93913 14.3333 5 14.3333C6.06087 14.3333 7.07828 13.9119 7.82843 13.1618C8.57857 12.4116 9 11.3942 9 10.3333V3.66667C9 2.95942 8.71905 2.28115 8.21895 1.78105C7.71885 1.28095 7.04058 1 6.33333 1C5.62609 1 4.94781 1.28095 4.44772 1.78105C3.94762 2.28115 3.66667 2.95942 3.66667 3.66667V9.788C3.66667 9.9631 3.70115 10.1365 3.76816 10.2982C3.83517 10.46 3.93338 10.607 4.05719 10.7308C4.181 10.8546 4.32799 10.9528 4.48976 11.0198C4.65152 11.0868 4.8249 11.1213 5 11.1213V11.1213C5.35362 11.1213 5.69276 10.9809 5.94281 10.7308C6.19286 10.4808 6.33333 10.1416 6.33333 9.788V5" stroke="#FAAF04" stroke-linecap="round" stroke-linejoin="round"/>
</svg>
