<svg width="32" height="32" viewBox="0 0 32 32" fill="none" xmlns="http://www.w3.org/2000/svg">
<circle cx="16" cy="16" r="15.25" stroke="#FDB21D" stroke-width="1.5"/>
<path d="M9.52977 21.0562L20.9142 9.67175C21.2852 9.30075 21.8867 9.30075 22.2577 9.67175L22.3284 9.74246C22.6994 10.1135 22.6994 10.715 22.3284 11.086L10.944 22.4704C10.573 22.8414 9.97148 22.8414 9.60048 22.4704L9.52977 22.3997C9.15877 22.0287 9.15877 21.4272 9.52977 21.0562Z" fill="#FDB21D"/>
<path d="M10.8013 9.94383L22.1857 21.3282C22.5567 21.6992 22.5567 22.3008 22.1857 22.6718L22.115 22.7425C21.744 23.1135 21.1425 23.1135 20.7715 22.7425L9.38704 11.358C9.01604 10.987 9.01604 10.3855 9.38704 10.0145L9.45775 9.94383C9.82875 9.57283 10.4303 9.57283 10.8013 9.94383Z" fill="#FDB21D"/>
</svg>
