<svg width="18" height="17" viewBox="0 0 18 17" fill="currentColor" xmlns="http://www.w3.org/2000/svg">
<path d="M17.1741 13.3612C16.8537 12.4663 16.5624 11.5587 16.2544 10.6595C16.217 10.5497 16.2211 10.4611 16.2669 10.3555C16.9036 8.94976 17.0784 7.4849 16.8162 5.96516C16.2419 2.66816 13.3704 0.126812 10.0578 0.00438868C8.11022 -0.0673769 6.38733 0.548963 4.93911 1.88296C3.46591 3.24651 2.68354 4.952 2.5795 6.9741C2.57118 7.13874 2.52124 7.24427 2.39639 7.34981C1.18121 8.38408 0.536172 9.70963 0.482071 11.318C0.45294 12.1159 0.61108 12.88 0.927359 13.6145C0.952328 13.6736 0.985621 13.7243 0.960651 13.8045C0.719281 14.501 0.486233 15.1976 0.249023 15.8984C0.249023 16.0123 0.249023 16.1221 0.249023 16.2361C0.473748 16.9748 1.10214 17.1479 1.70557 16.8904C2.23409 16.6667 2.78758 16.5063 3.32858 16.3121C3.42846 16.2741 3.51585 16.2825 3.61157 16.3247C4.08183 16.54 4.57705 16.6836 5.08893 16.7342C7.03238 16.9284 8.6221 16.2487 9.84976 14.7037C9.91634 14.6235 9.97877 14.5813 10.0828 14.577C11.0233 14.539 11.9181 14.3153 12.767 13.91C12.8669 13.8636 12.9501 13.8594 13.05 13.8974C13.9031 14.2013 14.7604 14.4968 15.6135 14.7966C15.755 14.8472 15.8924 14.8979 16.0463 14.9105C16.8245 14.9865 17.4779 14.214 17.1741 13.3612ZM7.24878 15.4551C6.11267 15.8899 4.98905 15.8519 3.89039 15.32C3.64486 15.2018 3.42014 15.1849 3.16212 15.282C2.55869 15.51 1.94694 15.7126 1.31022 15.9321C1.53495 15.2694 1.74303 14.6361 1.96359 14.0113C2.04266 13.7834 2.04266 13.5808 1.93446 13.3655C1.58072 12.652 1.43923 11.8922 1.50582 11.0985C1.58905 10.1022 1.97607 9.24527 2.63776 8.51917C3.38684 11.8204 5.3844 13.8214 8.63874 14.5433C8.24756 14.9401 7.7773 15.2525 7.24878 15.4551ZM16.2086 13.8594C16.1462 13.9227 16.0755 13.872 16.0089 13.8509C15.0476 13.5174 14.0904 13.1839 13.1291 12.8462C12.9293 12.7744 12.7462 12.7829 12.5548 12.8842C11.4728 13.4414 10.3242 13.6652 9.11732 13.5343C7.85221 13.395 6.73274 12.9053 5.7631 12.0652C4.89749 11.318 4.27742 10.3935 3.9112 9.30015C3.59076 8.35031 3.51169 7.37092 3.65319 6.37464C3.84878 5.02376 4.42308 3.86285 5.36359 2.89612C6.36653 1.86185 7.58587 1.25395 9.00912 1.07243C9.26298 1.03866 9.51683 1.04288 9.77069 1.03022C10.6571 1.03444 11.5061 1.22018 12.3051 1.5959C13.5369 2.17846 14.4857 3.07765 15.1474 4.27655C15.5178 4.94777 15.755 5.66965 15.8549 6.43374C16.0297 7.72553 15.8299 8.94976 15.2556 10.1149C15.1474 10.3302 15.1349 10.5286 15.2182 10.7608C15.5511 11.7233 15.8715 12.69 16.1961 13.6525C16.2211 13.7243 16.2669 13.8003 16.2086 13.8594Z" fill="#FDB21D"/>
<path d="M9.74582 6.68686C10.7321 6.68686 11.7142 6.68686 12.7005 6.68686C13.0418 6.68686 13.2707 6.89793 13.2707 7.2061C13.2707 7.44673 13.1084 7.65358 12.8753 7.70002C12.8046 7.71268 12.7338 7.72112 12.6631 7.72112C10.7196 7.72112 8.78034 7.72112 6.83689 7.72112C6.58303 7.72112 6.37495 7.64514 6.27091 7.39607C6.12942 7.05413 6.37495 6.6953 6.76198 6.68686C7.08658 6.67841 7.41534 6.68686 7.73995 6.68686C8.40996 6.68686 9.07581 6.68686 9.74582 6.68686Z" fill="#FDB21D"/>
<path d="M9.74153 5.602C8.75108 5.602 7.76062 5.602 6.77017 5.602C6.38315 5.602 6.13345 5.25161 6.26662 4.90545C6.33321 4.73237 6.46222 4.62261 6.64532 4.58884C6.71607 4.57617 6.78682 4.57617 6.86173 4.57617C8.79269 4.57617 10.7237 4.57617 12.6546 4.57617C12.9043 4.57617 13.1166 4.63527 13.2289 4.88434C13.3829 5.23051 13.1374 5.60622 12.7462 5.60622C11.9929 5.61044 11.2397 5.60622 10.4906 5.60622C10.2368 5.602 9.98706 5.602 9.74153 5.602Z" fill="#FDB21D"/>
<path d="M8.58438 9.82761C7.96431 9.82761 7.34424 9.83183 6.72416 9.82761C6.45782 9.82338 6.26223 9.63342 6.2331 9.37168C6.20397 9.13528 6.35378 8.90732 6.59099 8.83133C6.63677 8.81867 6.68671 8.81023 6.73665 8.81023C7.97263 8.81023 9.20446 8.806 10.4404 8.81023C10.7026 8.81023 10.9065 8.99175 10.944 9.2366C10.9814 9.48989 10.8441 9.72629 10.6069 9.8065C10.5278 9.83605 10.4446 9.83183 10.3614 9.83183C9.77043 9.82761 9.17533 9.82761 8.58438 9.82761Z" fill="#FDB21D"/>
</svg>
