<svg width="22" height="22" viewBox="0 0 22 22" fill="none" xmlns="http://www.w3.org/2000/svg">
<g clip-path="url(#clip0_1991_1968)">
<path d="M11.6221 0.0430175C12.0191 0.149355 12.431 0.172448 12.829 0.281471C14.4597 0.728302 15.7681 1.63324 16.765 2.99522C17.3633 3.81262 17.7704 4.72401 17.959 5.71058C18.3221 7.61069 17.9788 9.38673 16.9223 11.0226C15.1886 13.7084 13.4671 16.4023 11.7403 19.0924C11.6866 19.1767 11.634 19.2616 11.5765 19.3432C11.2843 19.7621 10.7558 19.7648 10.4706 19.3395C10.1924 18.9249 9.92972 18.4995 9.66009 18.079C8.11107 15.6639 6.55506 13.2535 5.01678 10.832C4.43348 9.91359 4.08704 8.90499 3.98499 7.81316C3.82601 6.11552 4.21971 4.55537 5.16341 3.14613C5.89334 2.05537 6.87303 1.23851 8.07132 0.690708C8.78192 0.365789 9.52527 0.162781 10.303 0.0827597C10.3583 0.0768521 10.419 0.0902785 10.4641 0.0424805H11.6221V0.0430175ZM14.2384 7.11606C14.2363 5.35505 12.7812 3.90123 11.0233 3.90231C9.25672 3.90338 7.80599 5.34968 7.80545 7.11015C7.80545 8.88459 9.25403 10.3336 11.0297 10.3341C12.7828 10.3352 14.2406 8.87331 14.2384 7.11606Z" fill="#FDB21D"/>
<path d="M11.0359 21.9998C9.07812 21.9874 7.14184 21.7979 5.25014 21.2656C4.37089 21.018 3.52065 20.6942 2.74829 20.1947C2.38627 19.9606 2.05917 19.684 1.80029 19.3371C1.18207 18.5084 1.23579 17.5481 1.9351 16.7844C2.56943 16.0916 3.37939 15.6813 4.24038 15.3532C4.73881 15.1631 5.25175 15.0213 5.76469 14.8763C5.94677 14.8247 6.02573 14.8709 6.12026 15.0197C7.1225 16.5986 8.13495 18.1711 9.1372 19.7501C9.52553 20.3623 10.0412 20.7732 10.7808 20.8446C11.6944 20.9327 12.3808 20.5605 12.8706 19.793C13.8917 18.1931 14.9186 16.597 15.9365 14.9955C16.0267 14.8537 16.104 14.8333 16.2625 14.8757C17.2406 15.1378 18.2036 15.4348 19.0796 15.9595C19.5362 16.2329 19.953 16.553 20.2704 16.9885C20.8521 17.7882 20.7903 18.7613 20.1227 19.4955C19.5453 20.1303 18.8154 20.524 18.0366 20.8397C16.7953 21.3424 15.4971 21.6153 14.1737 21.7919C13.1317 21.931 12.0865 21.9933 11.0364 22.0019L11.0359 21.9998Z" fill="#FDB21D"/>
</g>
<defs>
<clipPath id="clip0_1991_1968">
<rect width="22" height="22" fill="white"/>
</clipPath>
</defs>
</svg>
