<svg width="21" height="24" viewBox="0 0 21 24" fill="none" xmlns="http://www.w3.org/2000/svg">
<g clip-path="url(#clip0_1991_1980)">
<path d="M0.00204459 10.7786C0.00204459 8.52154 0.00743975 6.2645 2.14016e-05 4.0068C-0.00604816 2.15577 1.27935 0.481026 3.27017 0.063008C3.47383 0.0202713 3.68694 0.00491275 3.89533 0.00491275C7.20998 0.00157394 10.524 -0.00310039 13.8386 0.00491275C15.76 0.00891931 17.4669 1.51539 17.7258 3.39981C17.7569 3.62418 17.7697 3.84654 17.7697 4.07091C17.7703 5.85316 17.7663 7.63609 17.7751 9.41834C17.7757 9.62535 17.711 9.66742 17.5208 9.64538C14.7652 9.32619 12.0124 11.1645 11.4243 14.114C11.0642 15.919 11.5416 17.5356 12.767 18.9246C12.8816 19.0548 12.9295 19.1757 12.9268 19.3446C12.9187 20.0277 12.9181 20.7108 12.9275 21.3933C12.9302 21.5596 12.8796 21.6003 12.7164 21.5996C9.76392 21.595 6.81074 21.607 3.85824 21.591C2.00837 21.5809 0.287314 20.0324 0.0479035 18.2208C0.0141837 17.9637 0.00204459 17.7086 0.00204459 17.4515C0.00204459 15.2279 0.00204459 13.0035 0.00204459 10.7799V10.7786ZM8.86428 5.59941C10.4693 5.59941 12.0751 5.60075 13.6801 5.59875C14.1623 5.59808 14.5339 5.24817 14.54 4.80211C14.5461 4.35738 14.1765 4.00347 13.6855 4.0028C10.4835 4.00013 7.2808 4.00079 4.07877 4.0028C3.82452 4.0028 3.59792 4.08694 3.43269 4.28526C3.22296 4.53701 3.16833 4.82481 3.3113 5.1213C3.46574 5.44049 3.73415 5.60142 4.099 5.60075C5.6872 5.59942 7.27607 5.60008 8.86428 5.60075V5.59941ZM7.47097 7.99868V8.00002C6.33597 8.00002 5.20163 7.99668 4.06663 8.00135C3.5932 8.00336 3.2324 8.3546 3.23172 8.79265C3.23105 9.22402 3.60129 9.5953 4.05651 9.59596C6.31776 9.59997 8.57833 9.59797 10.8396 9.59797C11.0298 9.59797 11.2031 9.54321 11.3528 9.42568C11.6401 9.19931 11.7352 8.87411 11.6172 8.53623C11.4998 8.20101 11.2132 8.00068 10.8241 8.00002C9.70592 7.99668 8.58845 7.99868 7.4703 7.99868H7.47097ZM6.22199 13.5972C6.92809 13.5972 7.63418 13.5979 8.3396 13.5972C8.84337 13.5965 9.21698 13.2626 9.22912 12.8052C9.24059 12.3558 8.85956 11.9992 8.35578 11.9986C6.9355 11.9966 5.51523 11.9966 4.09495 11.9992C3.60129 12.0006 3.2351 12.3405 3.23172 12.7885C3.22835 13.2373 3.61208 13.5945 4.10439 13.5959C4.81048 13.5979 5.51658 13.5959 6.22199 13.5965V13.5972ZM6.12286 17.5957C6.79456 17.5957 7.46693 17.5931 8.13863 17.5964C8.72265 17.5991 9.0295 17.2251 9.02748 16.7871C9.02546 16.3891 8.76581 15.9991 8.14672 15.9971C6.80265 15.9924 5.45858 15.9951 4.11451 15.9971C3.59994 15.9978 3.2324 16.331 3.23105 16.7904C3.2297 17.2412 3.60939 17.5924 4.10642 17.5944C4.77811 17.5964 5.45049 17.5944 6.12218 17.5951L6.12286 17.5957Z" fill="#FDB21D"/>
<path d="M12.9249 15.189C12.9249 12.97 14.7262 11.1971 16.9787 11.1978C19.2102 11.1984 21.0035 12.994 21.0001 15.2257C20.9974 17.4353 19.1839 19.1989 16.9166 19.1949C14.7592 19.1909 12.9121 17.4193 12.9249 15.1896V15.189Z" fill="#FDB21D"/>
<path d="M19.3854 20.252C19.3854 21.277 19.3908 22.2592 19.382 23.2415C19.3793 23.54 19.2141 23.7597 18.9504 23.8986C18.6651 24.0488 18.3832 24.0248 18.1168 23.8512C17.787 23.6362 17.4586 23.4185 17.1336 23.1968C17.0203 23.1193 16.936 23.0933 16.8045 23.1894C16.4868 23.4211 16.1496 23.6262 15.8212 23.8438C15.5359 24.0328 15.2358 24.0569 14.9424 23.8866C14.6612 23.723 14.5351 23.4632 14.5371 23.134C14.5432 22.1851 14.5392 21.2362 14.5392 20.254C16.1537 20.9691 17.754 20.9758 19.3847 20.2526L19.3854 20.252Z" fill="#FDB21D"/>
</g>
<defs>
<clipPath id="clip0_1991_1980">
<rect width="21" height="24" fill="white"/>
</clipPath>
</defs>
</svg>
