<svg width="22" height="22" viewBox="0 0 22 22" fill="none" xmlns="http://www.w3.org/2000/svg">
<g clip-path="url(#clip0_1991_1999)">
<path d="M17.8829 0.0424805C18.3289 0.241063 18.4478 0.597838 18.4416 1.06288C18.4237 2.38452 18.4366 3.70672 18.436 5.02891C18.436 5.58091 18.1438 5.87934 17.5968 5.88383C17.2036 5.88719 16.8109 5.88495 16.4176 5.88215C15.8667 5.87822 15.5733 5.58539 15.5722 5.03509C15.57 4.04161 15.5711 3.04814 15.5711 2.05523C15.5711 1.71921 15.5874 1.38263 15.5672 1.04773C15.5391 0.585496 15.6923 0.240502 16.1254 0.0424805H17.8835H17.8829Z" fill="#FDB21D"/>
<path d="M5.9608 0.0424805C6.40622 0.240502 6.52908 0.59335 6.52235 1.06176C6.50215 2.38957 6.51618 3.7185 6.51561 5.04687C6.51561 5.58427 6.22222 5.87934 5.68368 5.88271C5.30502 5.88495 4.92579 5.86588 4.54825 5.88663C3.92893 5.92085 3.64451 5.50349 3.65461 4.9947C3.66695 4.381 3.65966 3.76618 3.65966 3.15248C3.65966 2.45969 3.67256 1.76633 3.65237 1.07466C3.6389 0.612984 3.75839 0.248355 4.20269 0.0424805H5.9608Z" fill="#FDB21D"/>
<path d="M11.0706 21.999C8.17652 21.999 5.28186 21.999 2.38776 21.999C1.70168 21.999 1.13733 21.7465 0.722767 21.1929C0.443959 20.8209 0.329519 20.3963 0.33008 19.9318C0.333446 14.8006 0.330641 9.67004 0.335129 4.53888C0.33569 3.55999 0.853476 2.86383 1.77012 2.56652C2.2262 2.41842 2.23461 2.4246 2.23461 2.89469C2.23461 3.60936 2.22956 4.32403 2.23629 5.03814C2.24527 5.95869 2.64132 6.65429 3.46653 7.08343C3.70663 7.20852 3.96692 7.29211 4.24236 7.29435C4.79212 7.29884 5.34301 7.31398 5.89221 7.29491C7.05624 7.25452 7.97962 6.27451 7.97682 5.09143C7.97513 4.29093 7.9813 3.49043 7.97289 2.69049C7.97121 2.52445 8.01216 2.47845 8.18326 2.47901C10.0912 2.48574 11.9996 2.48518 13.9075 2.47901C14.0971 2.47845 14.1594 2.52108 14.156 2.72303C14.1431 3.48763 14.1504 4.25223 14.1527 5.01682C14.1555 5.94803 14.5571 6.64531 15.3857 7.08006C15.6252 7.20572 15.8855 7.2893 16.161 7.29323C16.6827 7.30052 17.2044 7.30557 17.7255 7.30164C18.9451 7.29211 19.901 6.30817 19.8915 5.04712C19.8853 4.2612 19.8949 3.47473 19.8881 2.68881C19.8864 2.51603 19.9252 2.47957 20.1035 2.51267C20.9736 2.67423 21.575 3.22622 21.7629 4.08113C21.7994 4.24606 21.7971 4.42164 21.7971 4.59273C21.7994 9.70202 21.7994 14.8119 21.8 19.9212C21.8 20.7862 21.4258 21.4274 20.646 21.815C20.3537 21.9603 20.0368 22.0001 19.7114 21.9995C16.8313 21.9979 13.9513 21.9984 11.0717 21.9984L11.0706 21.999ZM11.0465 10.1626C8.63148 10.162 6.21646 10.1615 3.80087 10.1626C3.18716 10.1626 2.83711 10.5025 2.83654 11.1106C2.8343 13.7185 2.83486 16.3265 2.83879 18.9344C2.83991 19.5644 3.18099 19.8976 3.80592 19.8982C8.62924 19.8993 13.452 19.8993 18.2753 19.8993C18.9058 19.8993 19.2548 19.5515 19.2548 18.9193C19.2553 16.3326 19.2548 13.746 19.2548 11.1594C19.2548 10.5059 18.9165 10.1631 18.2697 10.1631C15.862 10.1626 13.4537 10.1631 11.0459 10.1631L11.0465 10.1626Z" fill="#FDB21D"/>
<path d="M15.3974 11.6614C15.6689 11.6614 15.9404 11.6592 16.2114 11.662C16.5833 11.6659 16.7684 11.8398 16.7735 12.2067C16.7808 12.7491 16.7813 13.2921 16.7763 13.8346C16.7729 14.1942 16.585 14.3944 16.2248 14.4017C15.6824 14.4129 15.1394 14.4129 14.5969 14.4017C14.2328 14.3939 14.0409 14.1919 14.0348 13.8161C14.0264 13.2876 14.028 12.7592 14.037 12.2308C14.0438 11.8415 14.2339 11.6653 14.6261 11.6614C14.883 11.6586 15.1405 11.6614 15.3974 11.6614Z" fill="#FDB21D"/>
<path d="M16.7735 17.3875C16.7735 17.673 16.7808 17.9586 16.7713 18.2441C16.7617 18.5392 16.5788 18.7322 16.2894 18.7366C15.7043 18.7456 15.1186 18.7462 14.5335 18.7366C14.2311 18.7316 14.046 18.528 14.0376 18.1818C14.0247 17.6394 14.0236 17.0964 14.0365 16.5545C14.0449 16.1876 14.2547 16.0025 14.6266 16.0002C15.1478 15.9969 15.6689 15.9969 16.1901 15.9991C16.5755 16.0008 16.7662 16.1904 16.7752 16.5741C16.7786 16.7099 16.7752 16.8456 16.7752 16.9808C16.7752 17.1166 16.7752 17.2523 16.7752 17.3875C16.7741 17.3875 16.7735 17.3875 16.7724 17.3875H16.7735Z" fill="#FDB21D"/>
<path d="M5.35798 13.0279C5.35798 12.735 5.35068 12.4428 5.36022 12.15C5.3692 11.8571 5.55656 11.6681 5.84715 11.6647C6.42496 11.658 7.00333 11.658 7.58171 11.6647C7.90147 11.6686 8.08715 11.8672 8.09444 12.2234C8.1051 12.7586 8.10566 13.2938 8.09557 13.8289C8.08883 14.1969 7.88744 14.3949 7.51832 14.4006C6.98314 14.409 6.4474 14.4106 5.91223 14.3989C5.53693 14.391 5.36022 14.1964 5.35517 13.8188C5.35181 13.5546 5.35461 13.291 5.35461 13.0267C5.35573 13.0267 5.35686 13.0267 5.35798 13.0267V13.0279Z" fill="#FDB21D"/>
<path d="M11.058 11.6619C11.3435 11.6619 11.629 11.6574 11.9146 11.663C12.2327 11.6691 12.4312 11.8677 12.434 12.1897C12.4391 12.7468 12.4385 13.3032 12.434 13.8603C12.4312 14.1907 12.2231 14.3977 11.8759 14.4027C11.3407 14.4106 10.805 14.4106 10.2698 14.4027C9.89336 14.3971 9.69477 14.1868 9.69309 13.8109C9.69085 13.2825 9.69085 12.7546 9.69309 12.2262C9.69477 11.8616 9.8956 11.6652 10.2653 11.6619C10.5295 11.6596 10.7937 11.6619 11.058 11.6619Z" fill="#FDB21D"/>
<path d="M5.35565 17.3679C5.35565 17.0897 5.35116 16.8114 5.35677 16.5332C5.3635 16.2067 5.5447 16.0087 5.87063 16.0019C6.43385 15.9907 6.9982 15.9902 7.56143 16.0008C7.89128 16.007 8.08538 16.2174 8.09211 16.5713C8.10277 17.1059 8.10333 17.6416 8.0938 18.1762C8.08707 18.5448 7.88006 18.7372 7.51262 18.7395C6.97745 18.7423 6.44227 18.7428 5.90709 18.7395C5.55311 18.7372 5.36575 18.5532 5.35509 18.2026C5.3506 18.0601 5.3534 17.9171 5.3534 17.7746C5.3534 17.6388 5.3534 17.5036 5.3534 17.3679H5.35509H5.35565Z" fill="#FDB21D"/>
<path d="M11.0649 18.7401C10.794 18.7401 10.523 18.7435 10.2515 18.7396C9.90087 18.7345 9.69667 18.5315 9.69387 18.1781C9.68938 17.6362 9.68882 17.0937 9.69499 16.5518C9.69836 16.213 9.90255 16.006 10.2436 16.0015C10.7928 15.9942 11.342 15.9931 11.8912 16.0015C12.234 16.0066 12.4303 16.213 12.4331 16.5557C12.4371 17.0976 12.4371 17.6401 12.4343 18.182C12.4326 18.5404 12.2351 18.7368 11.8783 18.7407C11.6074 18.7441 11.3364 18.7413 11.0649 18.7407V18.7401Z" fill="#FDB21D"/>
</g>
<defs>
<clipPath id="clip0_1991_1999">
<rect width="22" height="22" fill="white"/>
</clipPath>
</defs>
</svg>
