<svg width="21" height="22" viewBox="0 0 21 22" fill="none" xmlns="http://www.w3.org/2000/svg">
<g clip-path="url(#clip0_1991_1971)">
<path d="M10.5031 0H20.9981C20.9981 6.37113 20.9972 12.7418 20.9994 19.113C20.9994 19.2602 20.9941 19.3385 20.7987 19.3381C17.3084 19.3312 13.8181 19.3316 10.3283 19.3368C10.1763 19.3368 10.1119 19.2864 10.0623 19.1534C9.87131 18.6395 9.59177 18.1716 9.25177 17.7402C8.71372 17.0571 8.05869 16.5087 7.26827 16.126C7.08907 16.0391 7.11317 15.9926 7.25775 15.897C7.57936 15.684 7.85451 15.4192 8.10645 15.1295C9.26798 13.796 9.52736 11.8465 8.72073 10.2771C8.0473 8.96633 6.96551 8.15277 5.49771 7.85404C5.30887 7.81573 5.24534 7.75159 5.24972 7.55229C5.2655 6.82267 5.26243 6.09219 5.25147 5.36215C5.24885 5.18911 5.30186 5.15252 5.46923 5.15338C7.05051 5.1594 8.63135 5.15682 10.2126 5.15682C10.5014 5.15682 10.5027 5.15596 10.5027 4.87531C10.5031 3.25035 10.5027 1.62539 10.5027 0.000430453L10.5031 0ZM14.4381 10.8022C14.4381 11.0699 14.4478 11.2494 14.4351 11.4277C14.4245 11.5753 14.4837 11.6067 14.6226 11.6028C14.9359 11.5938 15.2496 11.5942 15.5624 11.6041C15.7048 11.6089 15.7561 11.5654 15.753 11.4238C15.7456 11.0876 15.7609 10.7506 15.7469 10.4144C15.7403 10.2482 15.7929 10.1686 15.9506 10.0963C17.0723 9.58187 17.4083 8.139 16.6411 7.19157C16.2424 6.69913 15.7145 6.47788 15.0897 6.4443C14.7308 6.42536 14.4517 6.15719 14.439 5.81843C14.4272 5.50764 14.6677 5.21708 14.9836 5.16113C15.2995 5.10517 15.6251 5.29715 15.7206 5.62817C15.7635 5.7771 15.8288 5.80853 15.9716 5.80336C16.27 5.7926 16.5697 5.79088 16.8677 5.80379C17.042 5.81111 17.0771 5.75171 17.0521 5.59287C16.9413 4.88219 16.5693 4.36307 15.9046 4.05615C15.7929 4.0045 15.7438 3.94553 15.7473 3.81725C15.7574 3.46686 15.7451 3.11562 15.7534 2.7648C15.757 2.62232 15.7022 2.5754 15.5642 2.57712C15.2434 2.58185 14.9227 2.5853 14.6024 2.5754C14.4587 2.57109 14.4346 2.63136 14.4368 2.75317C14.4429 3.09668 14.4316 3.44061 14.4425 3.78411C14.4473 3.93261 14.4013 4.00622 14.258 4.06907C13.1364 4.56237 12.7793 6.01859 13.5355 6.96817C13.9351 7.47007 14.4675 7.69735 15.1006 7.73437C15.5458 7.76063 15.8503 8.1588 15.7263 8.54922C15.6356 8.83418 15.3854 9.02142 15.0953 9.02056C14.8013 9.0197 14.5696 8.84322 14.4679 8.5475C14.4408 8.46872 14.4557 8.36757 14.3054 8.37402C13.9706 8.38823 13.635 8.38349 13.2998 8.37661C13.1565 8.37359 13.1272 8.43429 13.1425 8.55826C13.2126 9.12602 13.4391 9.64429 13.9513 9.90988C14.4075 10.1466 14.5319 10.4406 14.439 10.8022H14.4381ZM14.428 14.1774C15.6663 14.1774 16.9045 14.1739 18.1427 14.1813C18.3175 14.1821 18.3898 14.1498 18.3793 13.9622C18.3631 13.6841 18.3644 13.4039 18.3797 13.1254C18.3902 12.9394 18.3372 12.883 18.1396 12.8843C16.6683 12.8933 15.197 12.8895 13.7261 12.8895C12.721 12.8895 11.7159 12.8925 10.7108 12.886C10.5518 12.8852 10.4922 12.9235 10.4996 13.0888C10.5128 13.3815 10.5132 13.6759 10.4992 13.9686C10.4913 14.1365 10.5382 14.183 10.7139 14.1817C11.9521 14.1735 13.1903 14.1774 14.4285 14.1774H14.428ZM14.4215 16.7554C15.6741 16.7554 16.9268 16.7528 18.179 16.7584C18.3298 16.7592 18.3836 16.7222 18.378 16.5685C18.367 16.2754 18.3644 15.9814 18.3788 15.6887C18.3876 15.5101 18.3324 15.461 18.1492 15.4623C16.9259 15.4705 15.7022 15.4666 14.4789 15.4666C13.2262 15.4666 11.9735 15.4696 10.7213 15.4636C10.5504 15.4627 10.4922 15.5109 10.4996 15.681C10.5123 15.9737 10.5132 16.2681 10.4983 16.5608C10.4895 16.7282 10.5487 16.7592 10.7073 16.7584C11.9455 16.7519 13.1833 16.7549 14.4215 16.7549V16.7554Z" fill="#FDB21D"/>
<path d="M4.60019 21.9958C3.14291 21.9958 1.68563 21.9919 0.228354 22.0005C0.0421409 22.0014 0.00927975 21.9475 0.00358383 21.7749C-0.0244577 20.8835 0.108739 20.0312 0.520599 19.2232C1.41267 17.473 3.44918 16.4817 5.40201 16.8308C7.31628 17.173 8.81168 18.6847 9.14029 20.5981C9.21214 21.0165 9.18279 21.4396 9.19374 21.861C9.19812 22.0315 9.08946 21.9966 8.99351 21.9966C7.52878 21.9971 6.06449 21.9966 4.59976 21.9966V21.9953L4.60019 21.9958Z" fill="#FDB21D"/>
<path d="M7.87919 12.2521C7.87481 14.0376 6.40263 15.4714 4.57862 15.4663C2.79799 15.4611 1.32756 14.0109 1.31793 12.2784C1.30741 10.4524 2.82647 9.01036 4.61893 9.02155C6.42016 9.03274 7.88357 10.4795 7.87919 12.2525V12.2521Z" fill="#FDB21D"/>
<path d="M9.19085 0.46582C9.19085 1.53463 9.19041 2.62884 9.19216 3.72349C9.19216 3.81345 9.18384 3.86855 9.06598 3.86812C7.94519 3.86424 6.82485 3.86597 5.7251 3.86597C6.8783 2.73431 8.03677 1.59834 9.19129 0.46582H9.19085Z" fill="#FDB21D"/>
</g>
<defs>
<clipPath id="clip0_1991_1971">
<rect width="21" height="22" fill="white"/>
</clipPath>
</defs>
</svg>
