<svg width="21" height="21" viewBox="0 0 21 21" fill="none" xmlns="http://www.w3.org/2000/svg">
<g clip-path="url(#clip0_1991_1976)">
<path d="M0.0410156 18.1755V4.58496C0.10869 4.65674 0.119969 4.75364 0.148679 4.8408C0.840288 6.91311 1.5278 8.98645 2.22043 11.0588C2.51368 11.936 3.17402 12.4041 4.09736 12.4041C5.15451 12.4041 6.21218 12.4072 7.26933 12.4015C7.40929 12.401 7.46518 12.4313 7.45236 12.5789C7.44005 12.7281 7.44416 12.8793 7.45236 13.0291C7.4703 13.3715 7.71537 13.6289 8.05271 13.6299C9.69688 13.6351 11.3405 13.6345 12.9847 13.631C13.2718 13.6304 13.4779 13.449 13.561 13.1716C13.6174 12.9829 13.5922 12.7922 13.5861 12.6035C13.581 12.4415 13.6297 12.4 13.7896 12.401C14.8335 12.4082 15.8768 12.4046 16.9206 12.4046C17.8706 12.4046 18.5268 11.938 18.8273 11.0393C19.4209 9.26279 20.011 7.48528 20.6032 5.70828C20.7242 5.34529 20.8472 4.98281 20.9692 4.61982C20.9795 4.62188 20.9897 4.62444 20.9995 4.62649C20.9995 4.83618 20.9995 5.04587 20.9995 5.25557C20.9995 9.44377 20.9985 13.6325 21.0005 17.8207C21.0005 18.1319 20.9605 18.4334 20.8201 18.7123C20.4601 19.4275 19.8685 19.7725 19.0739 19.773C13.3846 19.7741 7.69588 19.773 2.00664 19.773C1.9523 19.773 1.89744 19.7741 1.8431 19.771C1.27709 19.7402 0.811578 19.5146 0.446548 19.0732C0.227632 18.8082 0.139963 18.4908 0.0410156 18.1755Z" fill="#FDB21D"/>
<path d="M1.09915 3.80882C2.38393 3.80882 3.63898 3.80882 4.89402 3.80882C5.27597 3.80882 5.65843 3.8037 6.04038 3.80985C6.18393 3.81241 6.22802 3.75909 6.22495 3.61861C6.21828 3.30638 6.20444 2.99313 6.30185 2.68807C6.56076 1.87442 7.23134 1.35763 8.08086 1.35353C9.70453 1.34584 11.3282 1.3443 12.9519 1.35353C14.0172 1.35968 14.8124 2.17538 14.8175 3.24076C14.818 3.3638 14.8283 3.48788 14.8144 3.60887C14.795 3.77499 14.8611 3.81139 15.0185 3.81087C16.5673 3.80523 18.1156 3.80729 19.6644 3.80677C19.85 3.80677 19.9129 3.89701 19.8531 4.07748C19.1287 6.25387 18.4048 8.42975 17.6788 10.6056C17.5286 11.0563 17.3584 11.1742 16.8826 11.1747C15.8526 11.1747 14.8221 11.1716 13.7921 11.1783C13.6332 11.1793 13.5702 11.1399 13.5871 10.9763C13.5994 10.8548 13.5907 10.7307 13.5891 10.6082C13.5845 10.2083 13.323 9.94784 12.9185 9.94732C11.5815 9.94579 10.2444 9.94732 8.90679 9.94732C8.63404 9.94732 8.36078 9.94374 8.08804 9.94784C7.70763 9.95348 7.45487 10.2129 7.44872 10.5954C7.44872 10.602 7.44872 10.6092 7.44872 10.6159C7.43437 10.7969 7.52921 11.045 7.40873 11.1419C7.29492 11.2332 7.05755 11.1742 6.87503 11.1742C5.95425 11.1752 5.03296 11.1752 4.11218 11.1742C3.7046 11.1737 3.51234 11.0404 3.38263 10.6528C2.63361 8.41129 1.88714 6.16876 1.13965 3.92674C1.12939 3.89547 1.11811 3.86471 1.09863 3.8078L1.09915 3.80882ZM10.5223 3.80882C11.4287 3.80882 12.3346 3.80882 13.241 3.80882C13.4741 3.80882 13.5905 3.69569 13.5901 3.46942C13.5901 3.38072 13.5922 3.29203 13.5901 3.20384C13.5809 2.84752 13.3266 2.58246 12.9688 2.58143C11.3333 2.57733 9.69837 2.57784 8.06292 2.58143C7.71942 2.58194 7.46256 2.84547 7.45077 3.19051C7.44616 3.33355 7.45692 3.47762 7.44411 3.61964C7.42975 3.7755 7.48974 3.81344 7.64047 3.81241C8.60123 3.80575 9.562 3.80934 10.5228 3.80985L10.5223 3.80882Z" fill="#FDB21D"/>
<path d="M10.5216 11.1756C11.0732 11.1756 11.6254 11.1823 12.177 11.1715C12.3355 11.1684 12.3708 11.2172 12.3652 11.3658C12.3534 11.6652 12.358 11.9652 12.3637 12.2651C12.3657 12.3692 12.3375 12.4061 12.2268 12.4056C11.0891 12.4015 9.95148 12.4015 8.81384 12.4051C8.70361 12.4051 8.6749 12.3656 8.67644 12.262C8.68157 11.9488 8.68311 11.635 8.67542 11.3217C8.67285 11.2048 8.70977 11.1725 8.82512 11.1736C9.39061 11.1792 9.9561 11.1761 10.5216 11.1756Z" fill="#FDB21D"/>
</g>
<defs>
<clipPath id="clip0_1991_1976">
<rect width="21" height="21" fill="white"/>
</clipPath>
</defs>
</svg>
