<svg width="24" height="24" viewBox="0 0 24 24" fill="none" xmlns="http://www.w3.org/2000/svg">
<path d="M12.0114 7.74105C15.4496 7.74105 18.8877 7.7423 22.3265 7.7373C22.4933 7.7373 22.5527 7.76543 22.5521 7.9498C22.5471 12.2142 22.5502 16.4792 22.5483 20.7436C22.5483 21.4011 22.0246 21.8929 21.3327 21.8929C17.2552 21.8936 13.1777 21.8923 9.1002 21.8917C6.98707 21.8917 4.87457 21.8929 2.76145 21.8917C1.98145 21.8917 1.49832 21.4061 1.49832 20.6217C1.4977 16.4429 1.49832 12.2636 1.49832 8.0848C1.49832 7.7398 1.49832 7.74043 1.83832 7.74043C4.95707 7.74293 8.0752 7.7448 11.1939 7.74668C11.4671 7.74668 11.7396 7.74668 12.0127 7.74668C12.0127 7.74418 12.0127 7.7423 12.0127 7.7398L12.0114 7.74105ZM19.2033 20.2592C19.6708 20.2586 20.1383 20.2548 20.6058 20.2604C20.7321 20.2617 20.784 20.2317 20.7833 20.0929C20.7783 19.4304 20.7802 18.7686 20.7871 18.1061C20.7889 17.9423 20.7465 17.8717 20.5646 17.8729C19.6527 17.8804 18.7414 17.8792 17.8296 17.8729C17.6758 17.8717 17.6302 17.9211 17.6321 18.0742C17.6396 18.7367 17.6415 19.3992 17.6315 20.0611C17.629 20.2348 17.694 20.2648 17.8477 20.2623C18.2996 20.2536 18.7514 20.2592 19.2033 20.2592ZM4.8377 20.2592C5.29707 20.2592 5.75583 20.2536 6.2152 20.2623C6.3677 20.2654 6.4152 20.2179 6.41332 20.0642C6.40645 19.4104 6.40457 18.7567 6.41645 18.1029C6.41958 17.9261 6.36457 17.8723 6.19395 17.8736C5.27582 17.8773 4.3577 17.8761 3.43895 17.8692C3.29145 17.8679 3.25582 17.9223 3.25707 18.0598C3.26395 18.7292 3.26707 19.3979 3.2602 20.0673C3.25832 20.2242 3.31207 20.2648 3.4602 20.2623C3.91895 20.2548 4.37832 20.2598 4.8377 20.2592ZM4.82332 11.7461C5.2827 11.7461 5.7427 11.7398 6.20208 11.7498C6.36333 11.7536 6.41707 11.7079 6.41457 11.5423C6.40645 10.9036 6.40332 10.2648 6.41707 9.62605C6.42145 9.42668 6.35458 9.37418 6.16832 9.37543C5.25707 9.38105 4.34582 9.37855 3.43457 9.37355C3.30082 9.37293 3.25895 9.41918 3.2602 9.54918C3.26645 10.2192 3.27145 10.8886 3.26457 11.5586C3.26332 11.7192 3.32395 11.7517 3.4677 11.7492C3.91957 11.7417 4.37145 11.7467 4.8227 11.7461H4.82332ZM8.50582 20.2592C8.91082 20.2592 9.31582 20.2542 9.72082 20.2617C9.86645 20.2648 9.9252 20.2317 9.92332 20.0698C9.91457 19.4079 9.91457 18.7454 9.92395 18.0836C9.92645 17.9136 9.86207 17.8717 9.70645 17.8723C8.91207 17.8773 8.11707 17.8786 7.3227 17.8723C7.1627 17.8711 7.10332 17.9179 7.1052 18.0829C7.11207 18.7373 7.11457 19.3917 7.10395 20.0461C7.10082 20.2311 7.17207 20.2667 7.33645 20.2623C7.72582 20.2523 8.1152 20.2592 8.50458 20.2586L8.50582 20.2592ZM15.5271 20.2592C15.9396 20.2592 16.3527 20.2554 16.7652 20.2617C16.8952 20.2636 16.9408 20.2223 16.9396 20.0886C16.9333 19.4111 16.9333 18.7336 16.9377 18.0561C16.9383 17.9267 16.8958 17.8729 16.7646 17.8736C15.9471 17.8773 15.1296 17.8792 14.3114 17.8779C14.1739 17.8779 14.1202 17.9273 14.1214 18.0704C14.1277 18.7398 14.1296 19.4098 14.1227 20.0792C14.1214 20.2267 14.1727 20.2648 14.3114 20.2617C14.7164 20.2542 15.1214 20.2592 15.5264 20.2592H15.5271ZM12.0033 20.2592C12.4083 20.2592 12.8127 20.2523 13.2177 20.2623C13.3783 20.2661 13.4333 20.2204 13.4314 20.0542C13.4233 19.4086 13.4202 18.7623 13.4333 18.1161C13.4371 17.9211 13.3602 17.8742 13.1908 17.8748C12.3971 17.8773 11.6033 17.8767 10.8089 17.8729C10.6733 17.8723 10.6158 17.9111 10.6171 18.0592C10.6239 18.7361 10.6233 19.4136 10.6171 20.0904C10.6158 20.2236 10.6564 20.2636 10.7889 20.2611C11.1933 20.2536 11.5983 20.2586 12.0033 20.2592ZM19.2052 11.7467V11.7448C19.649 11.7448 20.0933 11.7354 20.5371 11.7492C20.7239 11.7548 20.7933 11.7142 20.7877 11.5123C20.774 11.0379 20.7908 10.5623 20.784 10.0873C20.7808 9.86293 20.8827 9.57605 20.7465 9.43105C20.5971 9.27168 20.3027 9.38355 20.0727 9.38043C19.3565 9.37168 18.6396 9.3773 17.9233 9.37105C17.7183 9.36918 17.6221 9.4198 17.6296 9.65918C17.6483 10.2898 17.6402 10.9211 17.6327 11.5517C17.6308 11.7023 17.6702 11.7536 17.8265 11.7498C18.2858 11.7398 18.7452 11.7461 19.2052 11.7461V11.7467ZM19.2183 17.1836V17.1773C19.6852 17.1773 20.1521 17.1754 20.6189 17.1786C20.7283 17.1792 20.7883 17.1654 20.7871 17.0292C20.7808 16.4611 20.7833 15.8929 20.7883 15.3248C20.7896 15.1873 20.729 15.1561 20.6046 15.1567C19.6783 15.1604 18.7521 15.1617 17.8258 15.1567C17.6683 15.1554 17.629 15.2142 17.6308 15.3623C17.639 15.8992 17.6415 16.4367 17.6327 16.9736C17.6302 17.1348 17.6746 17.1904 17.8402 17.1873C18.299 17.1779 18.7583 17.1842 19.2177 17.1842L19.2183 17.1836ZM12.0133 11.7473V11.7461C12.4102 11.7461 12.8077 11.7379 13.2046 11.7498C13.3752 11.7548 13.4352 11.7111 13.4327 11.5311C13.4227 10.8848 13.4246 10.2386 13.4327 9.5923C13.4346 9.44668 13.3977 9.3798 13.2433 9.38043C12.4258 9.3823 11.6083 9.38043 10.7914 9.37668C10.6646 9.37668 10.6171 9.42043 10.6189 9.55543C10.6258 10.2248 10.6264 10.8948 10.6189 11.5642C10.6177 11.7054 10.6527 11.7542 10.7996 11.7511C11.2039 11.7417 11.6096 11.7479 12.0139 11.7479L12.0133 11.7473ZM15.5146 11.7467C15.9271 11.7461 16.3402 11.7411 16.7527 11.7486C16.8939 11.7511 16.9415 11.7073 16.9402 11.5629C16.9339 10.8929 16.9358 10.2236 16.9402 9.55355C16.9408 9.43918 16.9096 9.37668 16.7871 9.3773C15.9539 9.38043 15.1208 9.38355 14.2877 9.38293C14.1708 9.38293 14.1208 9.42105 14.1221 9.54418C14.1271 10.2217 14.1289 10.8992 14.1252 11.5767C14.1246 11.7086 14.1696 11.7517 14.3008 11.7492C14.7058 11.7423 15.1108 11.7467 15.5158 11.7467H15.5146ZM15.5471 15.1592V15.1604C15.1339 15.1604 14.7208 15.1661 14.3077 15.1573C14.1614 15.1542 14.1214 15.2054 14.1233 15.3454C14.1302 15.8911 14.1327 16.4367 14.1246 16.9823C14.1221 17.1361 14.1733 17.1848 14.3221 17.1836C15.1327 17.1773 15.9433 17.1754 16.7546 17.1786C16.8952 17.1786 16.9427 17.1361 16.9402 16.9911C16.9321 16.4454 16.9308 15.8998 16.9396 15.3542C16.9421 15.1973 16.8908 15.1529 16.7396 15.1561C16.3421 15.1642 15.9446 15.1586 15.5471 15.1586V15.1592ZM8.5402 11.7461C8.93707 11.7461 9.33395 11.7423 9.73082 11.7479C9.86207 11.7498 9.92645 11.7248 9.92457 11.5711C9.91707 10.9017 9.91895 10.2329 9.92395 9.56355C9.92457 9.4398 9.8952 9.37668 9.75957 9.3773C8.9352 9.3823 8.1102 9.38418 7.28582 9.38418C7.14082 9.38418 7.1052 9.45355 7.10645 9.58668C7.11207 10.2404 7.1152 10.8942 7.10707 11.5473C7.1052 11.7192 7.17333 11.7523 7.32708 11.7492C7.73145 11.7404 8.13645 11.7461 8.54082 11.7461H8.5402ZM4.81957 17.1829C4.81957 17.1829 4.81957 17.1798 4.81957 17.1779C5.28645 17.1779 5.75395 17.1711 6.22082 17.1817C6.38082 17.1854 6.41582 17.1286 6.41395 16.9817C6.4077 16.4367 6.40832 15.8917 6.41582 15.3467C6.4177 15.2048 6.37582 15.1573 6.23207 15.1586C5.2977 15.1636 4.36332 15.1629 3.42895 15.1592C3.3152 15.1592 3.25957 15.1779 3.26145 15.3098C3.26895 15.8779 3.27082 16.4467 3.26645 17.0148C3.2652 17.1492 3.3127 17.1873 3.44207 17.1861C3.90145 17.1798 4.3602 17.1836 4.81957 17.1836V17.1829ZM4.8377 14.4648C4.8377 14.4648 4.8377 14.4629 4.8377 14.4617C5.29707 14.4617 5.75707 14.4567 6.21645 14.4648C6.36707 14.4673 6.41707 14.4229 6.41457 14.2673C6.40582 13.7454 6.4002 13.2229 6.4177 12.7017C6.42457 12.4867 6.35082 12.4398 6.15207 12.4417C5.25645 12.4504 4.36082 12.4479 3.46457 12.4423C3.32207 12.4417 3.25582 12.4667 3.25957 12.6311C3.27082 13.1679 3.27457 13.7061 3.2627 14.2429C3.25832 14.4386 3.33332 14.4723 3.50645 14.4679C3.9502 14.4573 4.39458 14.4642 4.83833 14.4642L4.8377 14.4648ZM19.2227 12.4461C18.7633 12.4461 18.3039 12.4523 17.8452 12.4423C17.6789 12.4386 17.6321 12.4973 17.634 12.6567C17.6408 13.1936 17.6408 13.7311 17.6321 14.2679C17.6296 14.4186 17.674 14.4704 17.8277 14.4692C18.754 14.4617 19.6802 14.4611 20.6058 14.4636C20.7308 14.4636 20.7858 14.4342 20.784 14.2954C20.7771 13.7429 20.7765 13.1904 20.784 12.6379C20.7858 12.4786 20.7202 12.4423 20.5765 12.4442C20.1252 12.4504 19.6733 12.4467 19.2221 12.4467L19.2227 12.4461ZM12.0252 14.4642V14.4623C12.4227 14.4623 12.8202 14.4561 13.2171 14.4654C13.3764 14.4692 13.4346 14.4229 13.4314 14.2554C13.4221 13.7336 13.4196 13.2111 13.4321 12.6898C13.4365 12.5017 13.3702 12.4436 13.1927 12.4442C12.3983 12.4486 11.6033 12.4479 10.8089 12.4436C10.6714 12.4429 10.6158 12.4836 10.6177 12.6298C10.6246 13.1829 10.6258 13.7361 10.6171 14.2892C10.6146 14.4448 10.6789 14.4686 10.8102 14.4667C11.2152 14.4611 11.6202 14.4648 12.0252 14.4648V14.4642ZM8.51395 14.4654V14.4623C8.92645 14.4623 9.33832 14.4611 9.75082 14.4636C9.85645 14.4642 9.9252 14.4511 9.92332 14.3148C9.91707 13.7467 9.91645 13.1792 9.92145 12.6111C9.9227 12.4673 9.84957 12.4448 9.7327 12.4454C8.92395 12.4473 8.11457 12.4504 7.30582 12.4454C7.14895 12.4442 7.10582 12.5067 7.10707 12.6523C7.11207 13.1892 7.11583 13.7261 7.10582 14.2623C7.1027 14.4342 7.16957 14.4723 7.32395 14.4692C7.72082 14.4617 8.11707 14.4667 8.51395 14.4667V14.4654ZM15.5264 14.4642V14.4623C15.9396 14.4623 16.3527 14.4592 16.7652 14.4642C16.8952 14.4661 16.9421 14.4223 16.9402 14.2892C16.9333 13.7436 16.9327 13.1986 16.9371 12.6529C16.9383 12.5079 16.8983 12.4417 16.7396 12.4429C15.9371 12.4492 15.1346 12.4498 14.3314 12.4448C14.1633 12.4436 14.1183 12.5129 14.1208 12.6679C14.1277 13.2054 14.129 13.7436 14.1227 14.2811C14.1208 14.4248 14.169 14.4698 14.3102 14.4673C14.7152 14.4598 15.1208 14.4648 15.5258 14.4648L15.5264 14.4642ZM8.49207 17.1817C8.49207 17.1817 8.49207 17.1792 8.49207 17.1779C8.91207 17.1779 9.33207 17.1748 9.75207 17.1798C9.88145 17.1811 9.9252 17.1373 9.92332 17.0048C9.91707 16.4523 9.9152 15.8998 9.92582 15.3479C9.92895 15.1848 9.86582 15.1561 9.72207 15.1573C8.92082 15.1629 8.11957 15.1648 7.31832 15.1573C7.1552 15.1561 7.10332 15.2067 7.10582 15.3698C7.1152 15.9067 7.1177 16.4436 7.1077 16.9798C7.10457 17.1529 7.17332 17.1867 7.3252 17.1842C7.71395 17.1767 8.10332 17.1817 8.49207 17.1817ZM12.0252 17.1854V17.1817C12.4139 17.1817 12.8033 17.1748 13.1921 17.1848C13.3658 17.1892 13.4377 17.1486 13.4327 16.9542C13.4189 16.4254 13.4214 15.8961 13.4327 15.3673C13.4364 15.1992 13.3796 15.1567 13.2208 15.1579C12.4196 15.1642 11.6183 15.1636 10.8171 15.1579C10.6721 15.1573 10.6133 15.1892 10.6164 15.3511C10.6271 15.8954 10.6283 16.4404 10.6164 16.9848C10.6127 17.1623 10.6858 17.1898 10.8352 17.1873C11.2321 17.1811 11.6289 17.1854 12.0252 17.1854Z" fill="#FDB21D"/>
<path d="M12.0294 7.26195C8.59935 7.26195 5.16873 7.2607 1.73873 7.2657C1.55248 7.2657 1.4881 7.22632 1.49185 7.02507C1.5056 6.3157 1.4956 5.60632 1.4981 4.89695C1.5006 4.21007 2.00498 3.70132 2.6906 3.69757C3.22873 3.69445 3.76623 3.69257 4.30435 3.7007C4.4506 3.70257 4.50998 3.67195 4.5056 3.51007C4.49498 3.1207 4.51185 2.7307 4.50373 2.3407C4.5006 2.19945 4.53498 2.1532 4.68248 2.15132C5.20248 2.14382 5.20248 2.1382 5.20373 2.65507C5.20435 2.9357 5.20748 3.21632 5.20373 3.49695C5.20185 3.63695 5.2356 3.7032 5.4006 3.70132C6.23498 3.69257 7.06873 3.69445 7.9031 3.70132C8.06123 3.70257 8.1006 3.6482 8.09748 3.49945C8.08935 3.11007 8.09998 2.72007 8.09373 2.33007C8.09185 2.20257 8.1256 2.15632 8.26248 2.15257C8.7831 2.1382 8.78435 2.13257 8.79123 2.65195C8.79498 2.94007 8.8031 3.22882 8.79248 3.51695C8.78685 3.66507 8.83873 3.69945 8.97873 3.69882C9.8131 3.69382 10.6469 3.69257 11.4812 3.70132C11.6525 3.7032 11.69 3.63945 11.6862 3.4832C11.6775 3.10132 11.6894 2.71945 11.6819 2.33757C11.6794 2.19695 11.7206 2.1532 11.8656 2.15195C12.3712 2.14695 12.37 2.1407 12.3681 2.6532C12.3669 2.94132 12.3737 3.23007 12.3681 3.5182C12.3656 3.64195 12.395 3.70132 12.5356 3.7007C13.3931 3.69507 14.2506 3.69382 15.1081 3.70007C15.2444 3.70132 15.2569 3.6457 15.2556 3.53507C15.2506 3.13757 15.2581 2.74007 15.2512 2.34257C15.2487 2.20757 15.2781 2.15445 15.43 2.15195C15.9537 2.1432 15.9537 2.13632 15.9537 2.65257C15.9537 2.94882 15.9587 3.24507 15.9512 3.54132C15.9481 3.66507 15.9912 3.70195 16.1119 3.70132C16.9694 3.69757 17.8269 3.69695 18.6844 3.70257C18.8275 3.70382 18.8506 3.64382 18.8487 3.5207C18.8431 3.1307 18.8525 2.74132 18.8444 2.35132C18.8412 2.2032 18.8819 2.15132 19.0394 2.15132C19.5356 2.15132 19.5369 2.14445 19.54 2.63132C19.5419 2.92757 19.5469 3.22382 19.5375 3.51945C19.5325 3.66757 19.5894 3.70382 19.7275 3.70195C20.2575 3.6957 20.7875 3.69695 21.3181 3.69945C22.0544 3.7032 22.5475 4.19632 22.5487 4.93007C22.55 5.63195 22.5431 6.3332 22.5531 7.03507C22.5556 7.21695 22.5075 7.26382 22.3206 7.26382C18.8906 7.25695 15.46 7.25882 12.03 7.25882V7.26257L12.0294 7.26195ZM9.44873 5.48382C9.44873 5.48382 9.44935 5.48382 9.44998 5.48382C9.44998 5.30445 9.44998 5.1257 9.44998 4.94632C9.44873 4.44632 9.44935 4.4507 8.93623 4.48507C8.8231 4.49257 8.78623 4.53007 8.7881 4.6357C8.79248 4.86132 8.7931 5.08695 8.79248 5.3132C8.79248 5.57862 8.66185 5.7107 8.4006 5.70945C8.19727 5.70862 8.0954 5.61028 8.09498 5.41445C8.09498 5.25882 8.09498 5.1032 8.09498 4.94757C8.09498 4.4682 8.09498 4.47382 7.62435 4.48382C7.48435 4.48695 7.43498 4.52757 7.43685 4.67195C7.44373 5.21695 7.44435 5.76195 7.43685 6.30695C7.43498 6.45695 7.49873 6.49507 7.6306 6.49445C8.1756 6.49257 8.7206 6.4907 9.2656 6.49632C9.4106 6.49757 9.4556 6.43882 9.45185 6.30132C9.4456 6.02882 9.44998 5.75632 9.44998 5.48382H9.44873ZM15.6031 6.49445C15.8681 6.49445 16.1337 6.4857 16.3981 6.49757C16.5606 6.50507 16.6156 6.45257 16.6125 6.28757C16.6031 5.84382 16.61 5.39945 16.6094 4.95507C16.6087 4.46757 16.6081 4.47195 16.1244 4.48257C15.9931 4.48507 15.9475 4.52257 15.9506 4.6557C15.9581 4.95195 15.9525 5.2482 15.9506 5.54382C15.9506 5.61757 15.9719 5.6907 15.8487 5.7107C15.3362 5.7932 15.2544 5.73132 15.2544 5.22695C15.2544 5.1332 15.2544 5.04007 15.2544 4.94632C15.2544 4.4707 15.2544 4.47882 14.7875 4.48257C14.6294 4.48382 14.5894 4.53945 14.5912 4.68507C14.5975 5.21507 14.5994 5.74507 14.5912 6.27507C14.5887 6.43882 14.65 6.49945 14.8081 6.49632C15.0731 6.49132 15.3381 6.49507 15.6031 6.49445ZM11.0225 5.5007C11.0225 5.5007 11.0269 5.5007 11.0294 5.5007C11.0294 5.7732 11.0337 6.04632 11.0275 6.31882C11.025 6.43757 11.0681 6.4932 11.1869 6.4932C11.7481 6.4932 12.3094 6.49257 12.8706 6.49445C12.965 6.49445 13.0187 6.46257 13.0187 6.36195C13.0169 5.77757 13.0156 5.1932 13.0144 4.6082C13.0144 4.53695 12.9919 4.5007 12.9112 4.4857C12.4587 4.40132 12.3625 4.47507 12.3619 4.92195C12.3619 5.03132 12.3619 5.14007 12.3625 5.24945C12.3662 5.72257 12.3662 5.71507 11.8931 5.7107C11.7237 5.70945 11.6762 5.64507 11.6831 5.49007C11.6912 5.31132 11.685 5.13132 11.6837 4.95257C11.6812 4.4632 11.6812 4.47007 11.1906 4.48195C11.0506 4.4857 11.0194 4.54007 11.0206 4.65882C11.0231 4.93945 11.0212 5.22007 11.0212 5.50007L11.0225 5.5007ZM19.175 6.49257C19.175 6.49257 19.175 6.49382 19.175 6.49445C19.4475 6.49445 19.7212 6.48507 19.9931 6.4982C20.1544 6.5057 20.1912 6.44132 20.1894 6.29507C20.1837 5.8507 20.1906 5.40695 20.1906 4.96257C20.1906 4.4607 20.1894 4.46632 19.6925 4.48445C19.5619 4.48945 19.5344 4.53882 19.5375 4.6507C19.5425 4.83757 19.54 5.02445 19.5406 5.21195C19.5437 5.75507 19.5437 5.75195 18.9956 5.7107C18.8881 5.70257 18.8419 5.67132 18.8456 5.56007C18.8519 5.3657 18.8531 5.17007 18.8481 4.9757C18.8337 4.38445 18.9506 4.50882 18.3325 4.4832C18.2137 4.4782 18.1887 4.5282 18.1894 4.63382C18.1937 5.20257 18.1956 5.77132 18.1919 6.3407C18.1912 6.46695 18.2375 6.49945 18.3569 6.4957C18.6294 6.4882 18.9025 6.4932 19.175 6.4932V6.49257ZM3.86998 5.4507C3.86998 5.4507 3.86748 5.4507 3.86685 5.4507C3.86685 5.71507 3.87873 5.9807 3.8631 6.24382C3.8506 6.44507 3.93248 6.49945 4.11873 6.49632C4.61685 6.4882 5.11498 6.48695 5.61248 6.49695C5.7906 6.5007 5.86123 6.45445 5.85623 6.2632C5.84435 5.82007 5.85498 5.37632 5.85373 4.93257C5.8531 4.47257 5.85185 4.47882 5.39623 4.48382C5.25435 4.48507 5.20123 4.52882 5.2031 4.6682C5.20685 4.95632 5.20435 5.24382 5.19935 5.53195C5.1981 5.59445 5.23373 5.6932 5.12873 5.70007C4.9506 5.71195 4.77123 5.71007 4.59248 5.70195C4.48935 5.69757 4.5106 5.60382 4.50935 5.53945C4.5056 5.33695 4.5106 5.13507 4.50685 4.93257C4.4956 4.3932 4.57123 4.5032 4.04248 4.48445C3.88935 4.47945 3.86185 4.54507 3.86623 4.67882C3.87498 4.93507 3.86873 5.19257 3.86873 5.44882L3.86998 5.4507Z" fill="#FDB21D"/>
<path d="M20.1296 10.1444C20.0809 10.1994 20.0565 10.2294 20.0296 10.2569C19.6627 10.6256 19.2927 10.9919 18.9296 11.365C18.8402 11.4569 18.7827 11.445 18.7096 11.3537C18.6515 11.2812 18.5821 11.2181 18.5165 11.1512C18.2921 10.9219 18.2959 10.9256 18.5165 10.7062C18.5934 10.6294 18.6465 10.6062 18.7177 10.7025C18.7965 10.81 18.8684 10.7706 18.9446 10.6931C19.184 10.4494 19.4252 10.2075 19.6702 9.96873C19.719 9.92123 19.7634 9.81935 19.8577 9.8956C19.9534 9.97248 20.0396 10.0612 20.1309 10.1444H20.1296Z" fill="#FDB21D"/>
<path d="M11.5558 10.7454C11.6846 10.8167 11.7233 10.721 11.7721 10.6735C12.0177 10.4354 12.2652 10.1985 12.4983 9.94853C12.6327 9.80416 12.6952 9.91666 12.7733 9.99603C12.8483 10.0729 12.9765 10.1285 12.8308 10.2685C12.4621 10.6248 12.1008 10.9898 11.744 11.3585C11.6402 11.466 11.5771 11.4292 11.5077 11.336C11.4202 11.2185 11.3396 11.096 11.2171 11.0073C11.1321 10.946 11.1396 10.8579 11.2365 10.8335C11.3502 10.8054 11.4571 10.7285 11.5558 10.7448V10.7454Z" fill="#FDB21D"/>
<path d="M14.9625 10.7205C15.1868 10.8798 15.2856 10.6642 15.4137 10.5398C15.6087 10.3511 15.8056 10.1636 15.9856 9.96045C16.1143 9.81483 16.1943 9.89233 16.2818 9.99108C16.3568 10.0755 16.4862 10.1317 16.3268 10.2805C15.9581 10.6242 15.6075 10.988 15.2568 11.3505C15.1631 11.4473 15.1018 11.4461 15.02 11.3442C14.9475 11.2536 14.8587 11.1761 14.7843 11.0867C14.7343 11.0261 14.5937 10.9923 14.6456 10.9067C14.7043 10.8105 14.8018 10.7111 14.9625 10.7205Z" fill="#FDB21D"/>
<path d="M9.22238 10.1759C9.16926 10.2321 9.11801 10.2896 9.06363 10.344C8.91863 10.4902 8.91551 10.6338 9.05426 10.7746C9.05988 10.7802 9.06551 10.7859 9.07051 10.7909C9.22863 10.9521 9.17051 11.1902 8.95801 11.2627C8.91051 11.279 8.88613 11.2546 8.85926 11.2271C8.82113 11.1884 8.78238 11.1502 8.74363 11.1115C8.59697 10.9661 8.44988 10.964 8.30238 11.1052C8.11301 11.2865 7.97738 11.2609 7.84551 11.0309C7.78426 10.9234 7.87676 10.8909 7.92238 10.8421C8.18301 10.5627 8.19488 10.5534 7.91801 10.294C7.75926 10.1452 7.86801 10.0827 7.95676 9.98211C8.05301 9.87274 8.13801 9.81148 8.24426 9.96398C8.24863 9.97023 8.25488 9.97524 8.26051 9.98086C8.51863 10.2321 8.51676 10.2309 8.78613 9.97399C8.83488 9.92711 8.87801 9.81711 8.97176 9.89336C9.06613 9.97023 9.16676 10.0477 9.22176 10.1765L9.22238 10.1759Z" fill="#FDB21D"/>
<path d="M5.7752 15.741C5.70895 15.8129 5.67957 15.8467 5.6477 15.8779C5.2852 16.2417 4.91957 16.6035 4.5602 16.9704C4.47332 17.0592 4.4127 17.0548 4.33645 16.9629C4.27207 16.8848 4.19707 16.8167 4.12645 16.7435C3.91332 16.5242 3.91645 16.5273 4.1427 16.3129C4.2202 16.2398 4.27707 16.2179 4.34832 16.3123C4.42895 16.4192 4.50082 16.376 4.57645 16.2992C4.81145 16.0604 5.0477 15.8235 5.2877 15.5898C5.33832 15.5404 5.38395 15.4398 5.47645 15.4992C5.57957 15.566 5.66957 15.6542 5.77395 15.7404L5.7752 15.741Z" fill="#FDB21D"/>
<path d="M4.22747 13.5379C4.25559 13.5467 4.27559 13.5461 4.28434 13.5561C4.48559 13.7811 4.58309 13.5686 4.69934 13.4554C4.91059 13.2492 5.12372 13.0442 5.32559 12.8292C5.48434 12.6604 5.53247 12.8467 5.61184 12.9104C5.68997 12.9736 5.79184 13.0304 5.65559 13.1598C5.28434 13.5129 4.92622 13.8798 4.56747 14.2461C4.47559 14.3398 4.41059 14.3386 4.32809 14.2373C4.24997 14.1411 4.15184 14.0611 4.07309 13.9654C4.02997 13.9129 3.90684 13.8804 3.96872 13.7917C4.03809 13.6923 4.14372 13.6186 4.22872 13.5386L4.22747 13.5379Z" fill="#FDB21D"/>
<path d="M18.8173 14.3554C18.7829 14.3223 18.7479 14.301 18.7298 14.2698C18.6485 14.1323 18.5254 14.0367 18.4079 13.9348C18.3229 13.861 18.2891 13.7942 18.4148 13.7242C18.5291 13.6598 18.5941 13.406 18.7816 13.6517C18.8348 13.721 18.9048 13.6235 18.951 13.5785C19.1948 13.3385 19.4423 13.101 19.6748 12.8498C19.7879 12.7273 19.861 12.7529 19.9435 12.8679C20.0079 12.9585 20.1885 13.0048 20.016 13.1698C19.6391 13.5298 19.2773 13.9054 18.9085 14.2742C18.8823 14.3004 18.8529 14.3235 18.8173 14.3554Z" fill="#FDB21D"/>
<path d="M11.4562 13.6075C11.7168 13.7793 11.8143 13.5125 11.9593 13.38C12.1543 13.2018 12.3399 13.0131 12.5193 12.8193C12.6024 12.7293 12.6687 12.7362 12.7174 12.8281C12.7693 12.9256 13.0087 12.9649 12.853 13.1287C12.478 13.5231 12.0855 13.9 11.703 14.2862C11.6393 14.35 11.5999 14.3249 11.5512 14.2731C11.4605 14.1774 11.3618 14.0887 11.2755 13.9887C11.2243 13.9293 11.1012 13.8849 11.1549 13.7906C11.2099 13.6931 11.3049 13.6118 11.4568 13.6068L11.4562 13.6075Z" fill="#FDB21D"/>
<path d="M9.42754 13.0413C9.37629 13.0981 9.34691 13.1331 9.31504 13.165C8.95316 13.5294 8.59004 13.8925 8.23004 14.2581C8.15941 14.33 8.11066 14.3625 8.02879 14.2631C7.92566 14.1375 7.80504 14.0263 7.68691 13.9138C7.61191 13.8425 7.60879 13.7806 7.69816 13.7294C7.81566 13.6619 7.90066 13.41 8.08316 13.6706C8.13066 13.7388 8.20254 13.6338 8.24816 13.5894C8.49191 13.35 8.73004 13.1044 8.97504 12.8656C9.01816 12.8238 9.05004 12.7144 9.13379 12.7725C9.23941 12.8463 9.32629 12.9463 9.42691 13.0406L9.42754 13.0413Z" fill="#FDB21D"/>
<path d="M14.9324 13.5306C14.9455 13.535 14.9549 13.535 14.9586 13.54C15.2111 13.8175 15.313 13.5144 15.4442 13.4006C15.6499 13.2231 15.8349 13.0206 16.0242 12.8244C16.1892 12.6525 16.2242 12.8694 16.3067 12.9213C16.3905 12.9738 16.4674 13.0369 16.3455 13.1544C15.9699 13.5169 15.6049 13.8906 15.2392 14.2638C15.1642 14.34 15.1136 14.3556 15.038 14.2625C14.9499 14.1544 14.8405 14.0631 14.7486 13.9575C14.7042 13.9063 14.5855 13.87 14.6605 13.7756C14.7361 13.68 14.8205 13.585 14.9317 13.5306H14.9324Z" fill="#FDB21D"/>
<path d="M8.57942 16.5105C8.43567 16.5549 8.38442 16.6386 8.31879 16.7011C8.09192 16.9186 8.07879 16.9155 7.87629 16.6799C7.80754 16.5999 7.81629 16.5555 7.88254 16.4874C7.98379 16.3843 8.16442 16.2943 8.15067 16.163C8.13879 16.053 7.97504 15.9586 7.87879 15.8574C7.72129 15.6918 7.93129 15.6555 7.98692 15.5718C8.03254 15.5024 8.10192 15.4043 8.19942 15.5311C8.21817 15.5555 8.24192 15.5768 8.26379 15.5986C8.58004 15.9111 8.49942 15.8774 8.76504 15.5961C8.90942 15.443 8.97817 15.5086 9.09567 15.613C9.22754 15.7299 9.24004 15.8186 9.09629 15.9224C9.08379 15.9311 9.07379 15.9436 9.06317 15.9549C8.91692 16.1007 8.91483 16.2459 9.05692 16.3905C9.24129 16.578 9.20879 16.7486 8.97254 16.8618C8.87567 16.9086 8.84692 16.823 8.80504 16.7805C8.71817 16.6918 8.64379 16.5905 8.57817 16.5105H8.57942Z" fill="#FDB21D"/>
<path d="M12.0175 16.462C11.9137 16.5845 11.8319 16.6683 11.7656 16.7633C11.6544 16.9214 11.5669 16.8764 11.4569 16.757C11.3619 16.6539 11.2719 16.5883 11.4256 16.4458C11.7069 16.1845 11.7056 16.1658 11.4281 15.907C11.2944 15.782 11.335 15.7139 11.4444 15.6158C11.5444 15.5264 11.6269 15.4002 11.7544 15.5783C11.7587 15.5845 11.765 15.5895 11.7706 15.5952C12.0244 15.8483 12.0319 15.8552 12.2881 15.5839C12.4081 15.457 12.48 15.4789 12.5831 15.5945C12.6731 15.6952 12.7818 15.7589 12.6275 15.9083C12.3581 16.1689 12.3587 16.187 12.6331 16.4495C12.7731 16.5833 12.7 16.6495 12.6025 16.7452C12.5006 16.8445 12.4162 16.9377 12.2925 16.7689C12.2206 16.6708 12.13 16.5864 12.0175 16.4627V16.462Z" fill="#FDB21D"/>
</svg>
