<svg width="26" height="26" viewBox="0 0 26 26" fill="none" xmlns="http://www.w3.org/2000/svg">
<g clip-path="url(#clip0_1991_2012)">
<path d="M16.4716 0.0507812C16.5887 0.142097 16.739 0.141421 16.8711 0.195534C17.7282 0.54524 18.1981 1.18716 18.3451 2.09288C18.5529 3.37333 18.7777 4.65175 18.991 5.93152C19.2016 7.19574 19.4088 8.46064 19.6132 9.72621C19.708 10.3127 19.8617 10.8923 19.8631 11.491C19.8658 12.695 18.8475 13.7143 17.6382 13.7211C16.4641 13.7272 15.2901 13.7198 14.116 13.7231C13.7423 13.7245 13.789 13.6724 13.7856 14.0661C13.7829 14.3698 13.7984 14.6742 13.7815 14.9772C13.77 15.1849 13.8282 15.2478 14.0449 15.2471C16.1987 15.239 18.3525 15.2424 20.5063 15.2424C20.5903 15.2424 20.6769 15.2444 20.7582 15.2268C21.1577 15.1382 21.3865 14.8473 21.3886 14.428C21.3906 13.947 21.3886 13.4661 21.3886 12.9852C21.3919 11.6898 22.3994 10.6881 23.7008 10.6854C23.8951 10.6854 24.0894 10.6901 24.2838 10.684C24.3914 10.6806 24.432 10.7144 24.4307 10.8274C24.4253 11.2326 24.4232 11.6378 24.432 12.0422C24.4348 12.1836 24.3772 12.212 24.2526 12.2059C24.0759 12.1971 23.8978 12.2019 23.7204 12.2039C23.237 12.2086 22.9113 12.5306 22.9086 13.0122C22.9059 13.5101 22.9113 14.0079 22.9079 14.5057C22.8998 15.7388 21.8862 16.7494 20.6485 16.7609C20.463 16.7629 20.2761 16.7717 20.0913 16.7575C19.9166 16.7447 19.8597 16.8008 19.8624 16.9807C19.8685 17.3751 19.8922 17.7701 19.7737 18.1591C19.4744 19.1399 18.6112 19.7973 17.5901 19.7994C16.4161 19.8021 15.242 19.8068 14.0679 19.794C13.8289 19.7912 13.7775 19.867 13.7802 20.0902C13.7924 20.9594 13.7896 21.8286 13.7808 22.6978C13.7788 22.8791 13.8154 22.965 14.0144 22.9413C14.98 22.8263 15.7809 23.1828 16.4838 23.8139C16.5339 23.8592 16.5921 23.8951 16.6408 23.9417C17.0457 24.328 17.5123 24.5431 18.0844 24.4565C18.2902 24.4254 18.3633 24.4923 18.3505 24.7115C18.3302 25.0646 18.3363 25.4204 18.3498 25.7741C18.3566 25.9466 18.2889 25.9649 18.1345 25.9825C17.0911 26.1015 16.2624 25.6632 15.525 24.9956C15.0971 24.6087 14.6306 24.4132 14.0361 24.4477C13.2954 24.4903 12.5492 24.4774 11.8071 24.4504C11.3786 24.4348 11.038 24.5809 10.7204 24.8407C10.4598 25.0544 10.1889 25.256 9.92215 25.463C9.30262 25.9432 8.58491 26.0203 7.83538 25.9784C7.73584 25.973 7.70402 25.9365 7.70402 25.8424C7.70605 25.4204 7.70605 24.9983 7.70402 24.5769C7.70402 24.4916 7.73381 24.4497 7.82183 24.4578C7.83876 24.4592 7.85569 24.4551 7.87262 24.4578C8.56527 24.5728 9.09069 24.2563 9.57751 23.8146C10.2607 23.1936 11.0434 22.8283 11.9933 22.942C12.2188 22.969 12.2757 22.8906 12.2716 22.6667C12.2574 21.7894 12.2601 20.9114 12.2703 20.0341C12.2723 19.8467 12.2269 19.7946 12.034 19.796C10.8518 19.8055 9.66892 19.8027 8.48673 19.7987C7.19079 19.7946 6.186 18.7834 6.18397 17.486C6.18397 17.3007 6.17584 17.114 6.186 16.9293C6.19345 16.7941 6.14402 16.7602 6.01267 16.7589C5.601 16.7555 5.19001 16.7853 4.78241 16.6655C3.84668 16.3909 3.15402 15.5062 3.14454 14.5294C3.1398 14.0316 3.14454 13.5337 3.14319 13.0359C3.14116 12.5171 2.82902 12.212 2.30631 12.2019C2.08897 12.1978 1.80459 12.2959 1.67189 12.1613C1.52767 12.0152 1.62584 11.7284 1.62652 11.5038C1.62788 11.2373 1.58725 10.9681 1.65428 10.7036C1.98199 10.6664 2.31444 10.6556 2.63673 10.6982C3.84532 10.8592 4.65918 11.8062 4.66189 13.0224C4.66324 13.4864 4.66189 13.9504 4.66324 14.4144C4.66527 14.915 4.98418 15.241 5.48116 15.2417C7.66881 15.2437 9.85647 15.241 12.0441 15.2471C12.2215 15.2471 12.277 15.1997 12.2703 15.0212C12.2567 14.6674 12.2554 14.3123 12.2703 13.9585C12.2784 13.7725 12.231 13.7177 12.036 13.7191C10.82 13.7285 9.60324 13.7285 8.3872 13.7211C7.19282 13.7137 6.13183 12.624 6.19277 11.4389C6.21647 10.9735 6.32819 10.5122 6.40267 10.0495C6.56652 9.03288 6.73105 8.01691 6.89762 7.00093C7.05199 6.05937 7.20704 5.11712 7.36413 4.17623C7.48939 3.42541 7.60449 2.67189 7.74803 1.92445C7.93152 0.971381 8.52803 0.386959 9.44548 0.110982C9.49288 0.0967774 9.54772 0.100836 9.57954 0.0521341H16.4723L16.4716 0.0507812ZM13.0415 7.99323V7.99459C13.227 7.99459 13.4132 7.99188 13.5987 7.99526C13.7111 7.99729 13.7775 7.98579 13.7957 7.83969C13.8235 7.61309 13.963 7.4521 14.1681 7.3317C15.1513 6.7554 15.5507 5.60279 15.1492 4.53338C14.7694 3.52281 13.6678 2.92622 12.5723 3.13861C11.625 3.32192 10.8762 4.13497 10.7705 5.07857C10.7468 5.29164 10.7854 5.38633 11.0258 5.37213C11.3542 5.35251 11.6846 5.3559 12.013 5.37213C12.185 5.38025 12.2533 5.33357 12.298 5.16109C12.3901 4.81071 12.7023 4.59899 13.0523 4.60913C13.3895 4.6186 13.6678 4.84656 13.7605 5.19017C13.8465 5.51012 13.7084 5.85374 13.3942 6.02757C12.7002 6.41178 12.3739 7.02258 12.2696 7.78152C12.2479 7.93912 12.3055 7.99797 12.4585 7.99459C12.6528 7.98985 12.8471 7.99323 13.0408 7.99323H13.0415ZM12.9839 10.684C13.2121 10.684 13.3983 10.6752 13.5831 10.6867C13.7321 10.6955 13.7937 10.6576 13.789 10.4939C13.7775 10.1151 13.7775 9.73568 13.7883 9.35621C13.793 9.19319 13.7294 9.1587 13.5818 9.16275C13.2277 9.17155 12.8729 9.17831 12.5194 9.16072C12.3007 9.1499 12.2418 9.2331 12.2615 9.43467C12.277 9.59295 12.2628 9.75462 12.2649 9.91493C12.2682 10.1584 12.1829 10.477 12.3041 10.6252C12.4463 10.799 12.7788 10.6522 12.9839 10.6833V10.684Z" fill="#FDB21D"/>
</g>
<defs>
<clipPath id="clip0_1991_2012">
<rect width="26" height="26" fill="white"/>
</clipPath>
</defs>
</svg>
