<svg width="22" height="21" viewBox="0 0 22 21" fill="none" xmlns="http://www.w3.org/2000/svg">
<g clip-path="url(#clip0_1991_2014)">
<path d="M0 10.2263C0 7.54896 0 4.87165 0 2.19434C0 1.72188 0.0981858 1.62408 0.569988 1.62408C1.28598 1.62408 2.00133 1.619 2.71732 1.62726C2.88182 1.62916 2.93984 1.58725 2.93282 1.41706C2.91943 1.09256 2.92772 0.767417 2.92964 0.442914C2.93155 0.130476 3.06098 0.00219862 3.38104 0.000928545C3.9931 -0.0016116 4.60581 -0.0016116 5.21788 0.000928545C5.53921 0.00283365 5.65844 0.12349 5.6629 0.449899C5.66736 0.782658 5.66736 1.11542 5.6629 1.44754C5.66099 1.57709 5.70115 1.62726 5.84014 1.62662C6.75442 1.62154 7.66933 1.62218 8.58361 1.62662C8.71431 1.62662 8.76723 1.59233 8.7634 1.45326C8.75575 1.12875 8.76149 0.803614 8.76404 0.479111C8.76659 0.135556 8.89729 0.00156358 9.23457 0.000928545C9.83898 -0.000976562 10.4434 -0.0016116 11.0478 0.000928545C11.3768 0.00219862 11.5088 0.135556 11.5113 0.46133C11.5139 0.794088 11.5171 1.12685 11.5088 1.45897C11.5056 1.58026 11.5362 1.62599 11.6656 1.62535C12.5882 1.62091 13.5108 1.62218 14.4327 1.62535C14.5519 1.62535 14.5793 1.57772 14.5774 1.46913C14.5723 1.13637 14.5742 0.803614 14.5774 0.47149C14.5806 0.133651 14.7151 0.00156358 15.0562 0.000928545C15.6524 -0.000976562 16.2491 -0.0016116 16.8452 0.000928545C17.1985 0.00219862 17.3272 0.133651 17.3285 0.491811C17.3298 0.808694 17.3381 1.12558 17.3234 1.44182C17.3164 1.59296 17.3604 1.62853 17.5064 1.62726C18.2536 1.62027 19.0015 1.62281 19.7487 1.62345C20.1236 1.62345 20.2511 1.74982 20.2511 2.11687C20.2511 5.67307 20.2518 9.22991 20.2486 12.7861C20.2486 12.9398 20.292 13.0395 20.4112 13.1474C21.7603 14.3686 22.2984 15.8844 21.8355 17.6429C21.3643 19.4343 20.1523 20.552 18.3161 20.9152C16.5226 21.2702 14.7298 20.4815 13.7486 18.958C13.6587 18.8183 13.5592 18.7789 13.4011 18.7789C9.13064 18.7827 4.8602 18.7815 0.589753 18.7808C0.077146 18.7808 0.00255028 18.7027 0.00255028 18.1852C0.00255028 15.532 0.00255028 12.8782 0.00255028 10.225H0V10.2263ZM10.1559 6.19888V6.20205C7.20582 6.20205 4.25514 6.20205 1.30511 6.20205C1.17823 6.20205 1.05072 6.21221 0.923839 6.20777C0.766997 6.20269 0.728105 6.27635 0.728105 6.42368C0.732568 10.2333 0.733843 14.0435 0.730018 17.8531C0.730018 18.0264 0.788037 18.0626 0.948067 18.0626C4.97177 18.0594 8.99612 18.0594 13.0198 18.0626C13.2149 18.0626 13.2793 18.0353 13.2136 17.8118C12.8834 16.6909 12.9695 15.5955 13.4948 14.5464C14.5353 12.4711 17.0512 11.469 19.2865 12.4432C19.4669 12.5219 19.5524 12.5188 19.5262 12.294C19.5179 12.2241 19.5281 12.1517 19.5281 12.0806C19.5281 10.2352 19.5281 8.38975 19.5294 6.5437C19.5294 6.3134 19.4113 6.19824 19.1749 6.19824C16.1688 6.19824 13.1626 6.19824 10.1571 6.19824L10.1559 6.19888ZM10.7539 1.99558C10.7539 1.6317 10.7526 1.26783 10.7545 0.904585C10.7545 0.801709 10.7545 0.719789 10.6098 0.722329C10.2764 0.72868 9.94291 0.724869 9.60946 0.720424C9.50426 0.719154 9.47238 0.766782 9.47302 0.864577C9.47493 1.61582 9.47557 2.36707 9.4743 3.11832C9.4743 3.2339 9.51574 3.29041 9.64261 3.28787C9.95184 3.28152 10.2617 3.27708 10.5716 3.2866C10.7278 3.29105 10.7564 3.21866 10.7552 3.0872C10.7507 2.72333 10.7539 2.36009 10.7545 1.99621L10.7539 1.99558ZM4.93288 2.0159C4.93288 1.63678 4.93097 1.25766 4.93416 0.878548C4.93479 0.775672 4.91758 0.717884 4.79262 0.720424C4.46745 0.72741 4.14229 0.724234 3.81713 0.720424C3.70747 0.719154 3.65902 0.757256 3.65965 0.870928C3.66348 1.61328 3.66475 2.35564 3.66348 3.09736C3.66348 3.23834 3.72086 3.29168 3.86368 3.28787C4.15696 3.28025 4.45088 3.27517 4.74352 3.28914C4.91312 3.29676 4.93862 3.22628 4.93543 3.08149C4.92714 2.7265 4.93288 2.37088 4.93224 2.01526L4.93288 2.0159ZM17.8252 15.5269C17.8252 15.1942 17.8239 14.862 17.8252 14.5293C17.8258 14.3934 17.7831 14.2822 17.6652 14.2054C17.5491 14.1298 17.4261 14.1133 17.3062 14.1845C17.1666 14.267 17.0996 14.3947 17.1009 14.5604C17.1035 15.0437 17.0977 15.5263 17.1047 16.0095C17.1066 16.1454 17.0646 16.1829 16.9294 16.1804C16.5239 16.1715 16.1184 16.1715 15.7136 16.1785C15.4343 16.1835 15.2838 16.322 15.2851 16.5493C15.2857 16.7741 15.4413 16.9138 15.718 16.9164C16.2823 16.9215 16.8472 16.9215 17.4114 16.9145C17.6824 16.9113 17.8195 16.7691 17.8239 16.5011C17.829 16.1766 17.8252 15.8521 17.8252 15.5269ZM16.5819 2.02161C16.5819 1.64186 16.5781 1.26274 16.5838 0.882993C16.5858 0.760431 16.5475 0.717249 16.4213 0.719789C16.112 0.726775 15.8022 0.726139 15.4923 0.718519C15.3693 0.715344 15.3253 0.754716 15.3259 0.879183C15.3304 1.62218 15.3304 2.36517 15.3266 3.10879C15.3259 3.24088 15.3731 3.29105 15.5063 3.28787C15.8079 3.28152 16.1095 3.27898 16.4111 3.28787C16.5494 3.29232 16.587 3.24533 16.5845 3.11197C16.5762 2.74873 16.5819 2.38485 16.5819 2.02098V2.02161Z" fill="#FDB21D"/>
<path d="M2.92968 14.5761C2.92968 14.1646 2.92713 13.7538 2.93031 13.3423C2.93286 13.0387 3.07887 12.8914 3.38235 12.8908C4.18441 12.8889 4.98584 12.8895 5.7879 12.892C6.12327 12.8933 6.26034 13.0349 6.26098 13.3721C6.26226 14.1551 6.26289 14.9381 6.26289 15.7205C6.26289 16.0907 6.13028 16.226 5.7675 16.2266C4.98967 16.2279 4.21119 16.2272 3.43336 16.2253C3.03998 16.2247 2.93031 16.1117 2.92968 15.7141C2.92968 15.3344 2.92968 14.9553 2.92968 14.5755V14.5761ZM5.51247 14.5755H5.51439C5.51439 14.3297 5.50674 14.084 5.51757 13.8389C5.52395 13.6877 5.47805 13.6274 5.31993 13.6299C4.8188 13.6376 4.31767 13.6382 3.81654 13.6325C3.68201 13.6306 3.65714 13.6896 3.65842 13.8033C3.66161 14.2942 3.66225 14.7857 3.65842 15.2766C3.65714 15.4131 3.69986 15.4804 3.84842 15.4785C4.34955 15.4722 4.85068 15.4696 5.35181 15.4741C5.4959 15.4754 5.52012 15.4131 5.51566 15.2887C5.50737 15.0511 5.51311 14.8136 5.51311 14.5755H5.51247Z" fill="#FDB21D"/>
<path d="M2.92954 9.22757C2.92954 8.81543 2.92699 8.40393 2.93082 7.99179C2.93337 7.70983 3.07427 7.56631 3.35353 7.56504C4.18046 7.5625 5.00739 7.56314 5.83431 7.56631C6.11102 7.56758 6.26085 7.71237 6.26212 7.99179C6.26659 8.80781 6.26722 9.6232 6.26212 10.4392C6.26021 10.7307 6.11038 10.8799 5.81774 10.8818C4.99846 10.8869 4.17982 10.8869 3.36054 10.8818C3.0577 10.8799 2.93209 10.7453 2.93018 10.4392C2.92763 10.0353 2.93018 9.63145 2.93018 9.22757H2.92954ZM5.5117 9.24471H5.51043C5.51043 8.99133 5.5015 8.73732 5.51362 8.48458C5.52127 8.33217 5.45942 8.29407 5.32107 8.29534C4.82823 8.30042 4.33475 8.30296 3.84191 8.29597C3.70738 8.29407 3.65956 8.33407 3.66084 8.46997C3.66594 8.96085 3.66402 9.45237 3.65956 9.94325C3.65829 10.0779 3.69272 10.1439 3.84701 10.1407C4.34814 10.1325 4.84927 10.1319 5.3504 10.1401C5.49831 10.1427 5.51935 10.0823 5.51489 9.95722C5.5066 9.71972 5.51234 9.48222 5.51234 9.24408L5.5117 9.24471Z" fill="#FDB21D"/>
<path d="M14.0013 9.22814C14.0013 8.82489 14 8.42101 14.0013 8.01776C14.0026 7.69389 14.1345 7.56434 14.4661 7.56434C15.2681 7.56371 16.0702 7.56371 16.8723 7.56561C17.1847 7.56625 17.33 7.70278 17.3313 8.00696C17.3351 8.81409 17.3351 9.62059 17.33 10.4277C17.3281 10.7344 17.1808 10.8818 16.8754 10.8837C16.0574 10.8881 15.2394 10.8881 14.4214 10.8837C14.1256 10.8824 14.0026 10.7535 14.0006 10.4626C13.9981 10.0511 14.0006 9.63964 14.0006 9.22877L14.0013 9.22814ZM15.6641 8.29845V8.30162C15.4097 8.30162 15.1553 8.30734 14.9009 8.29908C14.7817 8.29527 14.7262 8.32067 14.7275 8.45276C14.7326 8.9519 14.7326 9.45104 14.7275 9.94954C14.7262 10.0943 14.7823 10.1407 14.9251 10.1388C15.418 10.1318 15.9114 10.1318 16.4043 10.1375C16.5344 10.1388 16.586 10.1089 16.5834 9.96732C16.5752 9.46818 16.5752 8.96904 16.5834 8.47054C16.5854 8.33083 16.5337 8.29273 16.4036 8.29591C16.1575 8.30226 15.9108 8.29781 15.6641 8.29781V8.29845Z" fill="#FDB21D"/>
<path d="M11.7714 14.5834C11.7714 14.9873 11.7752 15.3912 11.7701 15.7944C11.7656 16.1024 11.6426 16.2256 11.3334 16.2269C10.5224 16.2294 9.71203 16.2282 8.90104 16.2237C8.58353 16.2218 8.46048 16.0935 8.4592 15.7722C8.45729 14.9644 8.45665 14.1573 8.4592 13.3495C8.46048 13.0219 8.59373 12.8904 8.92208 12.8898C9.71713 12.8879 10.5115 12.8885 11.3066 12.891C11.642 12.8923 11.7676 13.0142 11.7714 13.3483C11.7765 13.7598 11.7727 14.1713 11.7727 14.5834H11.7701H11.7714ZM11.042 14.5536C11.042 14.3002 11.0388 14.0468 11.0439 13.7941C11.0458 13.6906 11.0248 13.6315 10.9036 13.6321C10.3796 13.6359 9.85484 13.6372 9.33076 13.6328C9.21472 13.6321 9.17966 13.6785 9.18029 13.7871C9.18284 14.2932 9.18476 14.8 9.17838 15.3061C9.17647 15.435 9.23066 15.4712 9.3467 15.4706C9.86313 15.4674 10.3796 15.4655 10.8954 15.4674C11.0082 15.4674 11.0471 15.4242 11.0439 15.3124C11.0375 15.0591 11.042 14.8063 11.042 14.5529V14.5536Z" fill="#FDB21D"/>
<path d="M10.119 7.56522C10.5245 7.56522 10.9293 7.56332 11.3348 7.56586C11.6389 7.56776 11.7709 7.67889 11.7728 7.96974C11.7792 8.80862 11.7767 9.6475 11.769 10.4864C11.7665 10.7423 11.6262 10.8788 11.3622 10.8801C10.5277 10.8858 9.69371 10.8852 8.85913 10.8776C8.58944 10.875 8.4632 10.7448 8.46129 10.48C8.45619 9.64115 8.45555 8.80227 8.46002 7.96339C8.46129 7.69604 8.60347 7.56649 8.87954 7.56459C9.29268 7.56141 9.70583 7.56395 10.119 7.56395V7.56522ZM10.1234 8.29297C10.1234 8.29297 10.1234 8.29805 10.1234 8.30059C9.86968 8.30059 9.61529 8.30758 9.36154 8.29805C9.2302 8.29297 9.17728 8.32726 9.17919 8.46697C9.18557 8.96484 9.18557 9.46271 9.17919 9.96121C9.17728 10.0958 9.22319 10.1397 9.35644 10.1384C9.86458 10.1327 10.3721 10.1327 10.8802 10.1384C11.0026 10.1397 11.0473 10.1041 11.0454 9.97772C11.0396 9.4716 11.0384 8.96611 11.0454 8.45999C11.0473 8.31774 10.9893 8.28726 10.8611 8.29107C10.6156 8.29869 10.3689 8.29361 10.1234 8.29361V8.29297Z" fill="#FDB21D"/>
</g>
<defs>
<clipPath id="clip0_1991_2014">
<rect width="22" height="21" fill="white"/>
</clipPath>
</defs>
</svg>
