<svg width="22" height="22" viewBox="0 0 22 22" fill="none" xmlns="http://www.w3.org/2000/svg">
<g clip-path="url(#clip0_1991_2009)">
<path d="M0.0429688 3.77385C0.218854 3.39172 0.524792 3.27828 0.929844 3.29776C1.42885 3.32182 1.93016 3.29776 2.43031 3.30693C2.58443 3.30979 2.6251 3.25823 2.62052 3.11156C2.61021 2.81193 2.60677 2.51115 2.62052 2.21151C2.62854 2.04135 2.56323 2.0024 2.41083 2.01328C2.26188 2.02417 2.11063 2.01958 1.96109 2.01328C1.60589 1.99896 1.3263 1.70677 1.33089 1.36016C1.3349 1.0124 1.62021 0.73224 1.98172 0.731094C2.82505 0.728229 3.66781 0.728229 4.51115 0.729948C4.90188 0.731094 5.19005 1.0101 5.18948 1.37677C5.18948 1.73885 4.89557 2.00469 4.50198 2.01786C4.30604 2.02417 4.04422 1.92276 3.9325 2.06771C3.83797 2.18974 3.89927 2.43839 3.905 2.63089C3.91188 2.84974 3.80875 3.14078 3.94969 3.26568C4.07229 3.37396 4.35703 3.30234 4.57016 3.30292C5.56359 3.30464 6.55646 3.30005 7.5499 3.3075C7.71604 3.30865 7.77505 3.26797 7.7676 3.09495C7.75385 2.78844 7.75901 2.48021 7.76589 2.17313C7.76875 2.05167 7.72807 2.00813 7.60662 2.01443C7.44276 2.02245 7.27776 2.01901 7.11391 2.01443C6.76099 2.00469 6.47625 1.71422 6.4774 1.3676C6.47854 1.01984 6.76328 0.732813 7.12078 0.731094C7.97099 0.727656 8.8212 0.727656 9.67198 0.731094C10.049 0.73224 10.3331 1.01182 10.336 1.37047C10.3389 1.72625 10.0507 2.00354 9.67714 2.01729C9.47318 2.02474 9.19531 1.92276 9.08589 2.06427C8.98391 2.19547 9.05323 2.46073 9.04979 2.66698C9.0475 2.83141 9.05552 2.99583 9.04693 3.15969C9.0412 3.27484 9.08417 3.30406 9.19417 3.30406C10.3801 3.3012 11.5666 3.30177 12.7526 3.30578C12.874 3.30578 12.9135 3.26625 12.9113 3.14594C12.9049 2.81708 12.9049 2.48823 12.9113 2.15995C12.9135 2.04536 12.8717 2.01042 12.7617 2.015C12.5904 2.02187 12.4185 2.02016 12.2472 2.015C11.896 2.00411 11.617 1.70964 11.6216 1.35958C11.6262 1.02042 11.9058 0.733958 12.2513 0.73224C13.1158 0.728229 13.9803 0.727083 14.8448 0.73224C15.2052 0.734531 15.4814 1.02214 15.4808 1.37505C15.4808 1.72453 15.2006 2.00583 14.8403 2.015C14.6758 2.01901 14.5114 2.02302 14.3476 2.01385C14.2215 2.00698 14.19 2.05854 14.1923 2.17542C14.1986 2.49682 14.2015 2.8188 14.1917 3.14021C14.1877 3.27656 14.2347 3.30693 14.363 3.30578C14.9273 3.29948 15.4922 3.30349 16.0566 3.30406C16.5149 3.30464 16.7681 3.55958 16.7681 4.02021C16.7681 5.41354 16.7647 6.80688 16.7721 8.20021C16.7733 8.39787 16.7555 8.4712 16.5149 8.45974C13.2762 8.30964 10.3411 10.4134 9.42849 13.5272C9.19016 14.3407 9.07958 15.1697 9.16094 16.0177C9.17354 16.1489 9.12542 16.1729 9.00854 16.1706C8.67281 16.1643 8.33708 16.1689 8.00078 16.1683C5.65698 16.1683 3.31318 16.1597 0.969375 16.1746C0.553438 16.1775 0.230312 16.0927 0.0429688 15.6963V3.77385ZM4.54323 12.9514C4.75063 12.952 4.95745 12.9537 5.16484 12.9514C5.54182 12.9485 5.82427 12.6781 5.83286 12.3155C5.84089 11.9608 5.555 11.6681 5.18203 11.6635C4.75349 11.6583 4.32438 11.6572 3.89583 11.6652C3.52974 11.6721 3.26219 11.9505 3.25932 12.3097C3.25589 12.6569 3.53833 12.9417 3.90042 12.9497C4.11469 12.9548 4.32896 12.9508 4.54323 12.9508V12.9514ZM4.54323 10.3784C4.7575 10.3784 4.97177 10.3819 5.18547 10.3779C5.54583 10.371 5.82427 10.0954 5.83286 9.74422C5.84089 9.40047 5.56359 9.10313 5.20266 9.09396C4.76036 9.08307 4.3175 9.08193 3.87521 9.09453C3.51943 9.10484 3.24557 9.41307 3.25818 9.75912C3.27021 10.0966 3.55036 10.3693 3.90042 10.3773C4.11469 10.3824 4.32896 10.3784 4.54266 10.3784H4.54323ZM8.38635 10.3784C8.6075 10.3784 8.82865 10.3836 9.04979 10.3773C9.4113 10.367 9.68802 10.088 9.6926 9.73734C9.69719 9.39302 9.41875 9.10083 9.05667 9.09339C8.62182 9.08422 8.18641 9.08422 7.75156 9.09453C7.39292 9.10255 7.11448 9.39818 7.11964 9.7425C7.12479 10.0903 7.40609 10.3693 7.76646 10.3779C7.97328 10.3824 8.1801 10.379 8.38693 10.3796L8.38635 10.3784ZM4.5226 7.8049C4.75063 7.8049 4.97922 7.81234 5.20724 7.80318C5.56245 7.78885 5.83688 7.49438 5.83229 7.14604C5.82828 6.81203 5.54813 6.52672 5.19979 6.52042C4.76495 6.5124 4.32953 6.5124 3.89469 6.52042C3.53604 6.52729 3.25932 6.81719 3.2576 7.16552C3.25589 7.50583 3.54578 7.79573 3.90156 7.80375C4.10839 7.80833 4.31521 7.8049 4.52203 7.8049H4.5226ZM8.38406 7.8049C8.60521 7.8049 8.82578 7.8112 9.04635 7.80318C9.42161 7.78943 9.70063 7.50068 9.69203 7.14432C9.68344 6.79771 9.40328 6.52443 9.03661 6.51927C8.61609 6.51354 8.19615 6.51411 7.77563 6.51927C7.40609 6.52443 7.11448 6.81604 7.11906 7.16438C7.12365 7.51385 7.41583 7.7963 7.78536 7.80318C7.98474 7.80661 8.18411 7.80375 8.38406 7.80432V7.8049ZM12.281 6.51755V6.51927C12.053 6.51927 11.8244 6.51068 11.597 6.52156C11.2441 6.53818 10.9645 6.84411 10.9771 7.18385C10.9897 7.51729 11.2733 7.79859 11.6182 7.80375C12.0456 7.81005 12.4735 7.81063 12.9009 7.80375C13.2682 7.79802 13.5523 7.50583 13.5518 7.15005C13.5506 6.8126 13.2602 6.52729 12.9015 6.5187C12.6947 6.51354 12.4884 6.51755 12.2816 6.51755H12.281Z" fill="#FDB21D"/>
<path d="M21.9992 15.5478C21.9861 18.7493 19.3839 21.3251 16.1727 21.3125C12.942 21.2994 10.3645 18.6095 10.4183 15.4103C10.4704 12.3103 13.0692 9.66914 16.3331 9.7356C19.4819 9.79977 22.0204 12.3985 21.9992 15.5484V15.5478ZM15.5671 14.2376C15.5671 14.6592 15.5637 15.0809 15.5683 15.5026C15.5717 15.8715 15.8278 16.154 16.1876 16.1643C16.6304 16.1769 17.0739 16.1763 17.5167 16.1649C17.8479 16.1569 18.1023 15.9019 18.1412 15.5708C18.1733 15.2952 17.963 15.0082 17.6669 14.9148C17.4566 14.8483 17.2417 14.8838 17.0292 14.885C16.8894 14.8856 16.8487 14.846 16.8504 14.7057C16.8585 14.1339 16.8579 13.5621 16.8539 12.9903C16.8516 12.5956 16.5737 12.3074 16.2088 12.308C15.8484 12.308 15.5694 12.6042 15.5671 12.9938C15.5648 13.4086 15.5671 13.8228 15.5671 14.2376Z" fill="#FDB21D"/>
</g>
<defs>
<clipPath id="clip0_1991_2009">
<rect width="22" height="22" fill="white"/>
</clipPath>
</defs>
</svg>
