<svg width="113" height="42" viewBox="0 0 113 42" fill="none" xmlns="http://www.w3.org/2000/svg">
<g clip-path="url(#clip0_675_596)">
<path d="M32.6036 24.9951C32.5965 25.197 32.5895 25.3988 32.5685 25.6007C32.2319 29.3037 29.9246 32.5404 25.6957 35.255C24.8612 35.7909 23.9565 36.306 22.9747 36.7933C22.9466 36.8072 22.9116 36.8211 22.8835 36.835C19.6295 38.4568 15.8564 39.6819 12.1606 40.5311C11.6136 40.6564 11.0666 40.7747 10.5195 40.8861C10.4775 40.893 10.4354 40.9 10.3933 40.9139C10.1689 40.9557 9.93746 41.0044 9.71304 41.0462C6.66237 41.6169 3.76599 41.9302 1.36754 41.9998H1.32546H1.33247C0.596107 41.9998 0 41.1436 0 40.0926C0 39.0415 0.596107 38.1854 1.33247 38.1854C2.84729 38.1854 6.38887 37.8095 10.4284 36.9534C10.7019 36.8977 10.9824 36.835 11.2629 36.7724C11.4663 36.7237 11.6767 36.6819 11.8871 36.6262C12.3289 36.5218 12.7707 36.4174 13.2125 36.2991C14.3907 35.9998 15.5759 35.6587 16.7471 35.2759C16.7681 35.2689 16.7892 35.2619 16.8102 35.255C24.4404 32.7422 28.7744 29.3107 29.3425 25.3362C29.3565 25.2248 29.3705 25.1065 29.3776 24.9951H32.6036Z" fill="#FDB21D"/>
<path d="M32.6036 25.204H29.3706C29.4688 22.9975 27.6314 20.1507 24.1529 17.1228C20.8147 14.2272 16.0178 11.1994 10.6388 8.61005C9.60788 8.11585 8.55593 7.63558 7.518 7.1901L7.47592 7.17618C7.46189 7.16922 7.45488 7.16922 7.44086 7.16226L7.27254 7.08569C6.52916 6.67502 6.10137 5.54045 6.29773 4.4894C6.45202 3.65414 6.97098 3.09033 7.58112 3.09033C7.75644 3.09033 7.93177 3.13906 8.10008 3.22954C8.14216 3.25042 8.17722 3.27131 8.21229 3.29915C10.9263 4.53117 13.4721 5.79799 15.7653 7.05785L15.8565 7.10657C15.9477 7.1553 16.0388 7.20402 16.13 7.25275C16.9716 7.7191 17.7851 8.18546 18.5635 8.65182C27.996 14.2968 32.7158 19.8514 32.6036 25.204Z" fill="#FDB21D"/>
<path d="M14.2158 34.5103C14.0896 34.8583 13.9704 35.2063 13.8512 35.5335C13.7249 35.8884 13.6057 36.2295 13.4865 36.5567C13.3673 36.8977 13.2481 37.2249 13.1429 37.5311C13.0096 37.9 12.8904 38.2411 12.7782 38.5543C12.6449 38.9302 12.5257 39.2713 12.4205 39.5636C12.154 40.3154 11.9857 40.7678 11.9717 40.8096C11.9787 40.7678 12.0839 40.3293 12.2522 39.5915C12.3153 39.3061 12.3925 38.9789 12.4766 38.61C12.5467 38.3038 12.6239 37.9697 12.708 37.6147C12.7782 37.3154 12.8483 37.0021 12.9255 36.668C12.9956 36.3478 13.0727 36.0137 13.1569 35.6727C13.234 35.3525 13.3112 35.0184 13.3883 34.6773C13.6618 34.6286 13.9353 34.5729 14.2158 34.5103Z" fill="#8B5CF6"/>
<path d="M23.0729 6.81438L15.3095 34.3016C14.8185 34.413 14.3346 34.5174 13.8507 34.6148C13.6193 34.6636 13.3949 34.7053 13.1705 34.7541C12.8619 34.8167 12.5603 34.8724 12.2588 34.9281L22.1191 0L22.3786 1.83759L22.4347 2.49884C22.4417 2.471 22.4487 2.43619 22.4557 2.40835L22.61 3.529L22.7433 4.49652L22.9256 5.81207L22.9607 6.2297C22.9677 6.20882 22.9677 6.18793 22.9747 6.17401L23.0729 6.81438Z" fill="#8B5CF6"/>
<path d="M7.16797 21.7031C7.52563 21.2924 7.87628 20.8887 8.22694 20.485C9.35603 19.1973 10.4851 17.9027 11.6142 16.615C11.6844 16.5384 11.7475 16.5175 11.8386 16.5384C12.3646 16.6706 12.8906 16.789 13.4166 16.9143C13.4516 16.9212 13.4937 16.9351 13.5638 16.9491C12.035 18.6962 10.5272 20.4154 9.01239 22.1416C9.96617 24.4525 10.9199 26.7565 11.8877 29.0813C11.8246 29.0744 11.7966 29.0674 11.7615 29.0604C11.2215 28.9351 10.6815 28.8098 10.1485 28.6776C10.0924 28.6637 10.0293 28.615 10.0012 28.5523C9.06149 26.2971 8.12875 24.0349 7.18901 21.7727C7.18199 21.7588 7.18199 21.7379 7.16797 21.7031Z" fill="#8B5CF6"/>
<path d="M23.8866 25.65C22.9328 23.3391 21.979 21.0421 21.0113 18.7173C21.0674 18.7242 21.1024 18.7312 21.1375 18.7382C21.6775 18.8635 22.2175 18.9957 22.7505 19.121C22.8276 19.1419 22.8697 19.1836 22.9118 19.2741C23.8305 21.5015 24.7492 23.7219 25.6749 25.9423C25.724 26.0676 25.703 26.1233 25.6328 26.2068C24.1741 27.8704 22.7154 29.534 21.2637 31.1976C21.2076 31.2672 21.1515 31.2881 21.0744 31.2672C20.5063 31.128 19.9383 30.9957 19.3281 30.8565C20.864 29.1024 22.3718 27.3832 23.8866 25.65Z" fill="#8B5CF6"/>
<path d="M36.5801 27.4454C36.5801 24.8213 36.9518 22.7122 37.7022 21.1182C38.4526 19.5243 39.4554 18.7308 40.7178 18.7308C41.8328 18.7308 42.7305 19.3642 43.4108 20.624V11.8955H45.7671V36.0904H43.6352L43.516 34.3294C42.8147 35.7145 41.8679 36.4106 40.6967 36.4106C39.4694 36.4106 38.4736 35.6101 37.7162 34.0022C36.9658 32.3874 36.5801 30.2087 36.5801 27.4454ZM38.9365 27.7725C38.9365 29.5057 39.1398 30.8561 39.5536 31.8305C39.9674 32.805 40.5495 33.2853 41.3069 33.2853C42.2676 33.2853 42.976 32.5892 43.4178 31.1902V23.9164C42.983 22.5521 42.2887 21.87 41.3209 21.87C40.5565 21.87 39.9674 22.3642 39.5536 23.3456C39.1468 24.3201 38.9365 25.8027 38.9365 27.7725Z" fill="white"/>
<path d="M52.8504 36.4106C51.3567 36.4106 50.1434 35.645 49.2177 34.1206C48.292 32.5963 47.8291 30.5568 47.8291 28.0162V27.5429C47.8291 25.8445 48.0325 24.3202 48.4322 22.9837C48.839 21.6473 49.4 20.6032 50.1364 19.8584C50.8657 19.1137 51.6793 18.7378 52.5769 18.7378C54.0076 18.7378 55.1086 19.4756 55.8871 20.9582C56.6655 22.4408 57.0582 24.5359 57.0582 27.2436V28.7888H50.2065C50.2766 30.1949 50.5642 31.3086 51.0761 32.1299C51.5811 32.9513 52.2193 33.3619 52.9907 33.3619C54.0707 33.3619 54.9473 32.6519 55.6276 31.232L56.8969 33.2018C56.4762 34.2181 55.9151 35.0116 55.2138 35.5754C54.5125 36.1253 53.7271 36.4106 52.8504 36.4106ZM52.5699 21.8074C51.9247 21.8074 51.3987 22.1763 51.006 22.9072C50.6063 23.645 50.3538 24.6682 50.2416 25.9768H54.7299V25.6914C54.6808 24.4106 54.4704 23.4431 54.0987 22.7819C53.7341 22.1345 53.2221 21.8074 52.5699 21.8074Z" fill="white"/>
<path d="M62.4583 31.2388L64.6814 19.0439H67.115L63.4822 36.0903H61.4344L57.7666 19.0439H60.2071L62.4583 31.2388Z" fill="white"/>
<path d="M73.6654 21.4452L76.6319 13.1621H79.4651L75.2012 24.5357L79.5633 36.0971H76.702L73.6654 27.6888L70.6217 36.0971H67.7744L72.1435 24.5357L67.8656 13.1621H70.6988L73.6654 21.4452Z" fill="#FDB21D"/>
<path d="M83.4687 20.9094C84.2401 19.4616 85.2079 18.7377 86.3861 18.7377C88.6232 18.7377 89.7594 20.812 89.7874 24.9605V36.0974H87.431V25.0997C87.431 23.9234 87.2767 23.0881 86.9612 22.6008C86.6456 22.1136 86.1897 21.87 85.5796 21.87C84.6328 21.87 83.9315 22.5521 83.4687 23.9164V36.0904H81.1123V11.8955H83.4687V20.9094Z" fill="#8B5CF6"/>
<path d="M98.5259 34.4197C97.8317 35.7422 96.8498 36.4035 95.5805 36.4035C94.4444 36.4035 93.5818 35.8605 92.9997 34.7816C92.4176 33.7028 92.123 32.1366 92.123 30.0902V19.0508H94.4794V30.0485C94.4794 32.2132 95.0335 33.2921 96.1345 33.2921C97.2776 33.2921 98.0491 32.6239 98.4488 31.2944V19.0508H100.805V36.0972H98.5821L98.5259 34.4197Z" fill="#8B5CF6"/>
<path d="M112.412 27.7447C112.412 30.3897 112.048 32.4988 111.318 34.0579C110.589 35.624 109.593 36.4036 108.317 36.4036C107.089 36.4036 106.129 35.6867 105.448 34.2459L105.329 36.0904H103.197V11.8955H105.554V20.6867C106.234 19.3851 107.146 18.7308 108.296 18.7308C109.572 18.7308 110.582 19.5034 111.311 21.0486C112.041 22.5939 112.405 24.7517 112.405 27.522V27.7447H112.412ZM110.056 27.4106C110.056 25.5591 109.853 24.1739 109.453 23.2551C109.053 22.3294 108.471 21.87 107.707 21.87C106.683 21.87 105.967 22.5939 105.554 24.0417V31.0649C105.974 32.5475 106.697 33.2853 107.728 33.2853C108.464 33.2853 109.032 32.8398 109.432 31.9489C109.832 31.0579 110.042 29.7076 110.049 27.8978V27.4106H110.056Z" fill="#8B5CF6"/>
</g>
<defs>
<clipPath id="clip0_675_596">
<rect width="112.412" height="42" fill="white"/>
</clipPath>
</defs>
</svg>
