<svg width="32" height="32" viewBox="0 0 32 32" fill="none" xmlns="http://www.w3.org/2000/svg">
<circle cx="16" cy="16" r="15.25" stroke="#FDB21D" stroke-width="1.5"/>
<g clip-path="url(#clip0_675_1791)">
<path d="M10.7917 15H24.2083C24.6456 15 25 15.4253 25 15.95V16.05C25 16.5747 24.6456 17 24.2083 17H10.7917C10.3544 17 10 16.5747 10 16.05V15.95C10 15.4253 10.3544 15 10.7917 15Z" fill="#FDB21D"/>
<path d="M15.5278 20H24.4722C24.7637 20 25 20.4253 25 20.95V21.05C25 21.5747 24.7637 22 24.4722 22H15.5278C15.2363 22 15 21.5747 15 21.05V20.95C15 20.4253 15.2363 20 15.5278 20Z" fill="#FDB21D"/>
<path d="M7.95 10H24.05C24.5747 10 25 10.4253 25 10.95V11.05C25 11.5747 24.5747 12 24.05 12H7.95C7.42533 12 7 11.5747 7 11.05V10.95C7 10.4253 7.42533 10 7.95 10Z" fill="#FDB21D"/>
</g>
<defs>
<clipPath id="clip0_675_1791">
<rect width="24" height="24" fill="white" transform="matrix(-1 0 0 1 28 4)"/>
</clipPath>
</defs>
</svg>
