<svg width="60" height="60" viewBox="0 0 60 60" fill="none" xmlns="http://www.w3.org/2000/svg">
<rect width="60" height="60" rx="11" fill="#FFEBE2"/>
<g clip-path="url(#clip0_2994_1209)">
<path d="M28.7113 30.8195C28.5657 30.8195 28.419 30.8266 28.2746 30.8129C27.8532 30.7729 27.5336 30.4244 27.5287 30.009C27.5232 29.5838 27.8488 29.2046 28.2822 29.1881C28.8639 29.1668 29.4473 29.1739 30.0296 29.187C30.3169 29.1936 30.4717 29.3103 30.7541 29.6539C32.2251 28.444 33.9084 27.736 35.8111 27.5376C35.5271 27.5376 35.2431 27.5409 34.9591 27.5371C34.4485 27.5294 34.0857 27.188 34.084 26.7201C34.0824 26.2515 34.4452 25.9047 34.9536 25.8986C35.4357 25.8932 35.9184 25.8964 36.401 25.8975C36.91 25.8986 37.2263 26.1129 37.3335 26.5261C37.4337 26.9129 37.2591 27.2428 36.7518 27.5387C38.8357 27.6253 40.6471 28.2977 42.2592 29.5926V24.2563H16V40.0622C16.2183 40.5357 16.5938 40.6732 17.101 40.6716C20.7872 40.6573 24.474 40.6639 28.1602 40.6639H28.4836C28.2877 40.146 28.0721 39.6551 27.9156 39.1454C27.4148 37.5201 27.4001 35.8828 27.8647 34.2454C27.9145 34.0706 27.9139 33.9566 27.7629 33.8191C27.521 33.5988 27.4641 33.3018 27.5856 32.9917C27.7142 32.664 27.9654 32.4749 28.3151 32.4689C28.5 32.4656 28.5837 32.3916 28.6697 32.2453C28.9444 31.7757 29.2344 31.3154 29.5387 30.8184C29.2618 30.8184 28.9871 30.8184 28.7118 30.8184L28.7113 30.8195ZM28.3462 25.9003C28.6188 25.891 28.8924 25.8986 29.1655 25.8986C29.4385 25.8986 29.7116 25.891 29.9847 25.9003C30.4537 25.9162 30.8023 26.2702 30.8023 26.7179C30.8023 27.1656 30.4537 27.525 29.9847 27.5343C29.4385 27.5453 28.8924 27.5453 28.3462 27.5343C27.8773 27.5245 27.5287 27.1656 27.5287 26.7179C27.5287 26.2702 27.8773 25.9162 28.3462 25.9003ZM23.4304 37.3799C23.1579 37.3892 22.8843 37.3815 22.6112 37.3815C22.3381 37.3815 22.065 37.3892 21.792 37.3799C21.3224 37.364 20.9738 37.0116 20.9728 36.5634C20.9717 36.1157 21.3203 35.7551 21.7892 35.7452C22.3354 35.7337 22.8815 35.7343 23.4277 35.7452C23.8972 35.7546 24.2458 36.1129 24.2469 36.5606C24.248 37.0083 23.8994 37.3634 23.4304 37.3799ZM23.4337 34.098C23.1519 34.1079 22.8695 34.0997 22.5871 34.0997C22.3233 34.0997 22.059 34.1068 21.7953 34.0986C21.3246 34.0832 20.9755 33.7331 20.9728 33.2859C20.97 32.8382 21.3175 32.4749 21.7854 32.4645C22.331 32.4524 22.8777 32.4535 23.4238 32.4645C23.8945 32.4733 24.2436 32.8289 24.2463 33.2766C24.2491 33.7243 23.9016 34.0821 23.4337 34.0991V34.098ZM23.4112 30.8173C23.1382 30.825 22.8651 30.8184 22.592 30.8184C22.3283 30.8184 22.0639 30.825 21.8002 30.8167C21.3285 30.8025 20.9782 30.4556 20.9728 30.0085C20.9673 29.5504 21.323 29.1898 21.8084 29.1816C22.3452 29.1723 22.8826 29.1723 23.4195 29.1816C23.8912 29.1903 24.2414 29.5416 24.2469 29.9893C24.2524 30.4474 23.8966 30.8041 23.4112 30.8173ZM23.4074 27.536C23.1343 27.5431 22.8613 27.5371 22.5882 27.5371C22.3244 27.5371 22.0601 27.5437 21.7963 27.5354C21.3257 27.5201 20.976 27.171 20.9728 26.7233C20.9695 26.2751 21.317 25.9118 21.7849 25.9014C22.3305 25.8893 22.8771 25.8904 23.4233 25.9008C23.8939 25.9096 24.2436 26.2647 24.2469 26.7124C24.2502 27.1705 23.8945 27.5239 23.4074 27.5365V27.536Z" fill="#FA804E"/>
<path d="M43.3314 33.6683C42.2741 31.2128 40.3363 29.7486 37.6811 29.3333C35.4703 28.9869 33.4685 29.5547 31.8005 31.0375C29.5048 33.0787 28.7201 35.6569 29.5196 38.6242C30.1484 40.957 31.6714 42.5828 33.9156 43.4727C34.5903 43.7401 35.3357 43.8295 36.0493 44.0004H37.1421C37.1946 43.9873 37.2461 43.9676 37.2992 43.9621C39.2599 43.7527 40.9224 42.9297 42.1783 41.4118C44.1079 39.079 44.5271 36.4444 43.3319 33.6689L43.3314 33.6683ZM40.6335 36.9085C40.5043 37.2351 40.2515 37.4274 39.9024 37.4313C38.7926 37.4422 37.6822 37.4433 36.5724 37.4313C36.1204 37.4263 35.785 37.0784 35.7806 36.6208C35.7707 35.5282 35.7713 34.4349 35.7806 33.3417C35.7844 32.8705 36.1428 32.5209 36.5894 32.517C37.0469 32.5132 37.4075 32.8688 37.4124 33.3554C37.4207 34.156 37.4146 34.9566 37.4146 35.7967C38.2475 35.7967 39.047 35.789 39.8455 35.7989C40.4545 35.8065 40.848 36.366 40.6335 36.908V36.9085Z" fill="#FA804E"/>
<path d="M42.2668 18.452C42.2613 18.001 41.9023 17.6969 41.4257 17.6958C40.0718 17.6914 38.7179 17.6958 37.3641 17.6974C37.363 18.5046 37.3679 19.3112 37.358 20.1184C37.3504 20.7551 36.7681 21.1513 36.2105 20.9025C35.8657 20.7485 35.7213 20.4614 35.7213 20.091C35.7213 19.2931 35.7191 18.4953 35.718 17.6974H32.4477C32.4466 18.5046 32.4515 19.3118 32.4417 20.1184C32.434 20.7551 31.8517 21.1513 31.2941 20.9025C30.9493 20.7485 30.8049 20.4614 30.8049 20.091C30.8049 19.2931 30.8027 18.4953 30.8016 17.6974H27.5313C27.5302 18.5046 27.5351 19.3118 27.5253 20.1184C27.5176 20.7551 26.9353 21.1513 26.3777 20.9025C26.033 20.7485 25.8885 20.4614 25.8885 20.091C25.8885 19.2931 25.8863 18.4953 25.8852 17.6974H22.6149C22.6138 18.5046 22.6187 19.3118 22.6089 20.1184C22.6012 20.7551 22.019 21.1513 21.4613 20.9025C21.1166 20.7485 20.9721 20.4614 20.9721 20.091C20.9721 19.2931 20.9699 18.4953 20.9688 17.6974C19.6702 17.6963 18.3711 17.7084 17.0725 17.6859C16.5728 17.6771 16.2095 17.8289 16.001 18.2947V22.6155H42.2739C42.2739 21.2023 42.2843 19.8274 42.2679 18.452H42.2668Z" fill="#FA804E"/>
<path d="M27.5319 17.6986C27.5319 17.6986 27.5319 17.6925 27.5319 17.6895H27.5234C27.5234 17.6895 27.5234 17.6955 27.5234 17.6986H27.5319Z" fill="#FA804E"/>
<path d="M37.3649 17.6986C37.3649 17.6986 37.3649 17.6925 37.3649 17.6895L37.3564 17.6986H37.3649Z" fill="#FA804E"/>
<path d="M22.6149 17.6986C22.6149 17.6986 22.6149 17.6925 22.6149 17.6895H22.6064C22.6064 17.6895 22.6064 17.6955 22.6064 17.6986H22.6149Z" fill="#FA804E"/>
<path d="M32.4479 17.6986C32.4479 17.6986 32.4479 17.6925 32.4479 17.6895L32.4395 17.6986H32.4479Z" fill="#FA804E"/>
<path d="M22.6073 16.8259C22.5936 16.3475 22.2576 16.0078 21.8045 16.0001C21.3404 15.9925 20.9885 16.3371 20.9743 16.8254C20.9661 17.1131 20.9743 17.4013 20.9754 17.6895H22.6073C22.6084 17.4013 22.6166 17.1131 22.6084 16.8254L22.6073 16.8259Z" fill="#FA804E"/>
<path d="M20.9753 17.6895H20.9668V17.6986H20.9753C20.9753 17.6986 20.9753 17.6925 20.9753 17.6895Z" fill="#FA804E"/>
<path d="M27.5238 16.8259C27.5102 16.3475 27.1736 16.0078 26.7205 16.0001C26.2564 15.9925 25.9046 16.3371 25.8903 16.8254C25.8821 17.1131 25.8903 17.4013 25.8914 17.6895H27.5233C27.5244 17.4013 27.5326 17.1131 27.5244 16.8254L27.5238 16.8259Z" fill="#FA804E"/>
<path d="M25.8923 17.6895H25.8838C25.8838 17.6895 25.8838 17.6955 25.8838 17.6986H25.8923C25.8923 17.6986 25.8923 17.6925 25.8923 17.6895Z" fill="#FA804E"/>
<path d="M30.8093 17.6895H30.8008C30.8008 17.6895 30.8008 17.6955 30.8008 17.6986H30.8093C30.8093 17.6986 30.8093 17.6925 30.8093 17.6895Z" fill="#FA804E"/>
<path d="M32.4408 16.8259C32.4271 16.348 32.0906 16.0077 31.6375 16.0006C31.1734 15.9929 30.8215 16.3376 30.8073 16.8259C30.7991 17.1136 30.8073 17.4018 30.8084 17.69H32.4403C32.4414 17.4018 32.4496 17.1136 32.4414 16.8259H32.4408Z" fill="#FA804E"/>
<path d="M32.4479 17.6895H32.4395C32.4395 17.6895 32.4395 17.6955 32.4395 17.6986L32.4479 17.6895Z" fill="#FA804E"/>
<path d="M37.3578 16.8259C37.3441 16.348 37.0076 16.0077 36.5545 16.0006C36.0904 15.9929 35.7385 16.3376 35.7243 16.8259C35.7161 17.1136 35.7243 17.4018 35.7254 17.69H37.3573C37.3584 17.4018 37.3666 17.1136 37.3584 16.8259H37.3578Z" fill="#FA804E"/>
<path d="M35.7253 17.6895H35.7168C35.7168 17.6895 35.7168 17.6955 35.7168 17.6986H35.7253C35.7253 17.6986 35.7253 17.6925 35.7253 17.6895Z" fill="#FA804E"/>
<path d="M37.3649 17.6895H37.3564C37.3564 17.6895 37.3564 17.6955 37.3564 17.6986L37.3649 17.6895Z" fill="#FA804E"/>
</g>
<defs>
<clipPath id="clip0_2994_1209">
<rect width="28" height="28" fill="white" transform="translate(16 16)"/>
</clipPath>
</defs>
</svg>
