<svg width="60" height="60" viewBox="0 0 60 60" fill="none" xmlns="http://www.w3.org/2000/svg">
<g clip-path="url(#clip0_873_2357)">
<path d="M59.9998 27.6381V32.3229C59.5993 32.884 59.7532 33.5602 59.6768 34.1718C59.3856 36.5007 58.7644 38.7439 57.9176 40.912C56.3886 44.8315 54.1209 48.2767 51.1086 51.2442C48.8996 53.4193 46.4369 55.2059 43.6959 56.6392C40.0049 58.5702 36.0637 59.6348 31.9346 59.9306C30.0438 60.0656 28.1343 59.9976 26.2318 59.7464C22.8661 59.3026 19.6624 58.3624 16.6383 56.8411C13.4922 55.2599 10.7019 53.1869 8.26857 50.6291C6.17583 48.4293 4.44715 45.976 3.09427 43.2702C1.87997 40.8427 0.993314 38.2873 0.507123 35.6109C0.283992 34.3807 0.0702556 33.1329 0.0373731 31.8886C-0.00372999 30.318 -0.0448331 28.7427 0.107836 27.1639C0.24054 25.7928 0.469543 24.4417 0.770183 23.1106C1.43605 20.1631 2.59634 17.401 4.13242 14.7939C5.42188 12.6047 6.93213 10.5704 8.74889 8.80963C10.7195 6.89743 12.8181 5.1437 15.3336 3.90412C16.2308 3.46158 17.0963 2.89696 18.0276 2.48846C20.4633 1.42143 22.9941 0.691302 25.6364 0.329757C26.2717 0.242893 26.9494 0.329757 27.5448 -0.00244141H32.348C32.8283 0.22998 33.3591 0.163071 33.8617 0.255805C35.0643 0.48001 36.2668 0.683085 37.4588 1.0012C38.7647 1.34866 40.0648 1.69729 41.3061 2.21261C45.73 4.04968 49.5302 6.74835 52.6752 10.3884C55.105 13.201 56.9687 16.3234 58.1936 19.8227C58.8794 21.7806 59.4255 23.775 59.6815 25.848C59.7544 26.4408 59.6627 27.0841 59.9998 27.6358V27.6381ZM45.1122 30.1971C45.1921 28.333 44.8926 26.5958 44.2362 24.9242C43.023 21.8358 40.9996 19.3942 38.2034 17.6276C35.4225 15.8703 32.3397 15.1167 29.0761 15.389C28.0368 15.4759 27.1232 15.3397 26.2353 14.9371C24.7357 14.2563 23.2031 14.1988 21.6001 14.3877C19.5109 14.6343 17.7646 15.5628 16.407 17.0864C14.0982 19.6771 13.4358 23.1564 15.0588 26.4244C15.3606 27.0312 15.3336 27.5618 15.2197 28.1523C15.1986 28.265 15.1375 28.373 15.1328 28.4845C15.0271 30.9413 15.1715 33.3501 16.1733 35.659C17.8209 39.4541 20.5243 42.168 24.3188 43.795C25.6693 44.3737 27.0715 44.754 28.5524 44.8749C29.6598 44.9653 30.7496 45.0064 31.8559 44.8749C32.2998 44.8221 32.7378 44.6671 33.2557 44.9113C33.9921 45.2599 34.7871 45.5381 35.6115 45.6696C37.7066 46.0041 39.6596 45.4782 41.4529 44.4852C43.1135 43.5649 44.3642 42.1668 45.0981 40.3849C46.0001 38.1945 45.9132 35.9924 45.043 33.8079C44.9173 33.4933 44.8339 33.1763 44.9056 32.8418C45.0981 31.9461 45.1639 31.0411 45.1134 30.1948L45.1122 30.1971Z" fill="#41B3F9"/>
<path d="M45.1126 30.1974C45.1631 31.0437 45.0973 31.9487 44.9047 32.8444C44.8331 33.1778 44.9177 33.4959 45.0421 33.8105C45.9112 35.995 45.9993 38.1971 45.0973 40.3875C44.3633 42.1694 43.1126 43.5675 41.4521 44.4878C39.66 45.4808 37.7058 46.0067 35.6107 45.6722C34.7863 45.5407 33.9913 45.2625 33.2549 44.9139C32.737 44.6685 32.299 44.8247 31.8551 44.8775C30.7476 45.0078 29.6578 44.9679 28.5516 44.8775C27.0707 44.7566 25.6685 44.3763 24.3179 43.7975C20.5235 42.1706 17.8201 39.4567 16.1725 35.6616C15.1707 33.3527 15.0263 30.9439 15.132 28.4871C15.1367 28.3756 15.1977 28.2676 15.2189 28.1549C15.3328 27.5644 15.3598 27.0338 15.058 26.427C13.4362 23.159 14.0974 19.6797 16.4062 17.089C17.7638 15.5654 19.51 14.638 21.5993 14.3903C23.2023 14.2014 24.7348 14.2589 26.2345 14.9397C27.1223 15.3423 28.036 15.4785 29.0753 15.3916C32.3389 15.1193 35.4217 15.8729 38.2026 17.6302C40.9988 19.3968 43.0234 21.8384 44.2353 24.9268C44.8918 26.5983 45.1913 28.3356 45.1114 30.1997L45.1126 30.1974ZM25.4359 30.2455C25.4677 30.364 25.5475 30.4286 25.6649 30.4509C26.2545 30.519 26.7888 30.7855 27.3584 30.9322C27.6614 31.0097 27.9843 30.8876 28.2368 31.0507C28.7019 31.3512 29.2527 31.3113 29.7483 31.4956C30.7852 31.883 31.8962 32.0063 32.912 32.5204C34.4833 33.3151 34.4434 35.2461 33.1293 36.0948C32.4258 36.5479 31.6719 36.7451 30.8792 36.9094C29.7952 37.1348 28.7583 36.9693 27.773 36.5373C26.635 36.0372 26.0349 35.0172 25.5698 33.9408C25.2281 33.1496 24.729 32.6484 23.8693 32.4641C22.4378 32.1589 20.9768 33.3362 21.2293 34.6462C21.5899 36.5185 22.6492 37.8943 24.2322 38.9355C26.0302 40.1187 28.0748 40.2279 30.1088 40.3993C30.8827 40.4638 31.6437 40.2854 32.407 40.168C33.6765 39.9732 34.8873 39.5694 35.9736 38.912C37.6248 37.9131 38.7369 36.4904 38.8908 34.4854C38.9401 33.841 39.0763 33.1155 38.8497 32.558C38.5525 31.8278 38.2519 31.0531 37.6835 30.4368C36.8978 29.5846 35.9008 29.0587 34.8568 28.6678C33.1269 28.021 31.302 27.6971 29.5075 27.271C28.5386 27.0409 27.5522 26.7956 26.7665 26.1124C26.1277 25.5571 25.9844 24.8564 26.4248 24.2753C26.6444 23.9854 26.9074 23.7236 27.248 23.5452C28.467 22.9054 29.7682 23.0122 31.0589 23.1378C32.1804 23.247 32.9015 23.9548 33.4381 24.8986C33.6683 25.3036 33.9314 25.6957 34.2203 26.0596C34.6583 26.6113 35.2666 26.9188 35.9572 26.7979C37.8738 26.4622 38.3271 25.023 37.6976 23.4677C36.9883 21.7151 35.4992 20.8207 33.7811 20.2654C32.2685 19.776 30.703 19.7713 29.1305 19.783C27.5522 19.7947 26.076 20.1398 24.6562 20.8277C21.9997 22.1143 20.7655 25.2343 22.3802 27.9248C23.0755 29.0834 24.1054 29.8804 25.4336 30.2455H25.4359Z" fill="white"/>
<path d="M25.437 30.2455C24.1088 29.8804 23.0789 29.0846 22.3837 27.9248C20.7689 25.2343 22.0032 22.1142 24.6596 20.8277C26.0794 20.1398 27.5556 19.7947 29.134 19.783C30.7064 19.7713 32.2719 19.7759 33.7845 20.2654C35.5026 20.8207 36.9917 21.714 37.701 23.4677C38.3305 25.023 37.8772 26.4622 35.9606 26.7979C35.2701 26.9188 34.6617 26.6113 34.2237 26.0595C33.9336 25.6945 33.6717 25.3036 33.4416 24.8986C32.9049 23.9548 32.1838 23.2482 31.0623 23.1378C29.7716 23.0122 28.4704 22.9054 27.2514 23.5452C26.9109 23.7236 26.6478 23.9854 26.4282 24.2753C25.9878 24.8552 26.1311 25.556 26.7699 26.1124C27.5556 26.7956 28.5421 27.0409 29.5109 27.271C31.3054 27.6971 33.1304 28.021 34.8602 28.6678C35.9054 29.0587 36.9013 29.5834 37.6869 30.4368C38.2553 31.0531 38.556 31.8278 38.8531 32.558C39.0797 33.1155 38.9435 33.8398 38.8942 34.4854C38.7403 36.4904 37.6294 37.9131 35.977 38.912C34.8907 39.5693 33.68 39.9732 32.4105 40.168C31.6471 40.2854 30.8861 40.4638 30.1122 40.3993C28.077 40.2279 26.0336 40.1187 24.2356 38.9355C22.6526 37.8943 21.5933 36.5185 21.2328 34.6462C20.9803 33.3362 22.44 32.1589 23.8728 32.4641C24.7324 32.6472 25.2315 33.1496 25.5733 33.9408C26.0383 35.0172 26.6384 36.0372 27.7764 36.5373C28.7617 36.9705 29.7987 37.1348 30.8826 36.9094C31.6753 36.7451 32.4293 36.5479 33.1327 36.0948C34.4468 35.2472 34.4868 33.3151 32.9154 32.5204C31.8996 32.0063 30.7887 31.883 29.7517 31.4956C29.2561 31.3102 28.7053 31.3501 28.2403 31.0507C27.9878 30.8876 27.6648 31.0097 27.3618 30.9322C26.7923 30.7866 26.2579 30.519 25.6684 30.4509C25.6191 30.3523 25.6167 30.2009 25.4394 30.2455H25.437Z" fill="#41B3F9"/>
<path d="M25.437 30.2453C25.6143 30.2007 25.6167 30.3522 25.666 30.4508C25.5474 30.4285 25.4687 30.3639 25.437 30.2453Z" fill="white"/>
</g>
<defs>
<clipPath id="clip0_873_2357">
<rect width="60" height="60" fill="white"/>
</clipPath>
</defs>
</svg>
