<svg width="60" height="60" viewBox="0 0 60 60" fill="none" xmlns="http://www.w3.org/2000/svg">
<g clip-path="url(#clip0_1374_1133)">
<path d="M0.000198894 32.3226V27.6379C0.111867 27.5909 0.111867 27.4911 0.116569 27.3949C0.177693 25.8748 0.480961 24.3923 0.823018 22.9156C1.53064 19.8578 2.75077 17.003 4.38935 14.342C6.10199 11.5588 8.23427 9.11729 10.7462 7.00675C13.5485 4.65206 16.6682 2.85611 20.1264 1.67055C21.9801 1.03551 23.8678 0.521375 25.8379 0.321825C26.4456 0.259612 27.1109 0.354692 27.6775 -0.000976562H32.2512C32.2853 0.0823649 32.357 0.0941032 32.4369 0.109363C33.476 0.294827 34.5281 0.376995 35.5683 0.563633C38.0627 1.01086 40.45 1.77737 42.7351 2.8432C45.3187 4.04989 47.6661 5.61812 49.8207 7.5021C51.6462 9.09733 53.2307 10.8862 54.6248 12.85C56.6184 15.6567 58.0278 18.745 58.9505 22.0575C59.4571 23.8758 59.8286 25.7304 59.9038 27.6097C59.9508 28.78 60.0496 29.9527 59.9743 31.1441C59.8733 32.7464 59.7545 34.3463 59.4254 35.9039C58.8976 38.3924 58.1242 40.8105 56.9558 43.0995C55.9061 45.1572 54.7295 47.1128 53.2613 48.904C51.6521 50.8667 49.8443 52.6098 47.799 54.1076C45.1083 56.0796 42.1744 57.5763 38.9889 58.5846C36.7015 59.3076 34.3611 59.796 31.975 59.9392C29.2232 60.1047 26.4703 59.9497 23.7679 59.3511C20.3791 58.5998 17.196 57.3133 14.2514 55.4739C13.7142 55.1382 13.2746 55.0514 12.6599 55.2533C9.34508 56.3449 6.01383 57.3861 2.69082 58.4519C2.48511 58.5177 2.24179 58.6632 2.09839 58.5083C2.01846 58.4214 2.1313 58.1291 2.1936 57.9413C3.29853 54.6288 4.40228 51.3162 5.52837 48.0119C5.64944 47.6563 5.62123 47.3945 5.412 47.0952C3.95443 45.0105 2.75194 42.7955 1.87505 40.3973C1.07457 38.2082 0.477434 35.9826 0.215307 33.6619C0.165938 33.2218 0.250571 32.7381 -0.000976562 32.3226H0.000198894ZM18.898 13.8196C17.7461 13.7433 16.6447 13.8842 15.7443 14.6836C15.0895 15.2658 14.5394 15.9478 14.0704 16.6896C12.6481 18.9457 12.2532 21.379 12.768 23.9873C13.2605 26.4805 14.4266 28.6532 15.8489 30.7227C17.8401 33.622 20.0441 36.3347 22.636 38.7258C24.6648 40.5969 26.8735 42.2109 29.3126 43.5056C31.694 44.7687 34.2483 45.595 36.8214 46.3486C37.8863 46.6609 39.0089 46.9414 40.1209 46.8182C41.6161 46.6515 43.0666 46.2219 44.3784 45.4518C45.6126 44.7264 46.7622 43.8965 47.377 42.5255C47.7014 41.8012 47.7508 41.0054 47.9859 40.2647C48.1763 39.6649 48.0646 39.1108 48.0305 38.5321C48.0035 38.0861 47.7273 37.8842 47.3558 37.6952C45.8136 36.9158 44.2267 36.2314 42.7081 35.4015C41.9546 34.9895 41.1447 34.662 40.3325 34.3733C39.2146 33.9765 38.6998 34.1949 38.0121 35.1597C37.3539 36.0835 36.6815 36.9968 35.9833 37.8912C35.6118 38.3666 35.0558 38.6976 34.4763 38.6014C34.0132 38.5251 33.5324 38.3443 33.0693 38.1565C31.1075 37.3654 29.369 36.2314 27.7186 34.932C25.3595 33.0727 23.5305 30.7591 21.9413 28.2424C21.3771 27.3491 21.4488 26.9794 22.1623 26.1812C22.7171 25.559 23.2719 24.9369 23.8185 24.3077C24.3192 23.7302 24.6707 23.0694 24.5073 22.2923C24.4015 21.7899 24.1417 21.318 23.9407 20.8367C23.1155 18.8553 22.281 16.8774 21.4629 14.8925C21.1361 14.099 20.5025 13.8443 19.7185 13.8196C19.4458 13.8114 19.1719 13.8185 18.898 13.8185V13.8196Z" fill="#64B752"/>
<path d="M18.8977 13.8194C19.1716 13.8194 19.4454 13.8123 19.7182 13.8206C20.5034 13.8452 21.1369 14.1011 21.4625 14.8934C22.2795 16.8784 23.1152 18.8563 23.9404 20.8377C24.1402 21.3189 24.4012 21.7908 24.507 22.2932C24.6703 23.0703 24.3189 23.7312 23.8181 24.3087C23.2716 24.9378 22.7167 25.5611 22.1619 26.1821C21.4484 26.9803 21.3755 27.3501 21.9409 28.2433C23.5302 30.76 25.3592 33.0736 27.7183 34.933C29.3675 36.2324 31.106 37.3651 33.069 38.1574C33.5333 38.3441 34.0129 38.5249 34.476 38.6023C35.0555 38.6986 35.6115 38.3676 35.9829 37.8922C36.6812 36.9989 37.3535 36.0845 38.0118 35.1607C38.6994 34.1958 39.2143 33.9763 40.3321 34.3742C41.1444 34.663 41.9531 34.9893 42.7077 35.4025C44.2252 36.2336 45.8133 36.9167 47.3555 37.6961C47.7269 37.8839 48.0032 38.087 48.0302 38.5331C48.0643 39.1106 48.176 39.6658 47.9855 40.2656C47.7504 41.0063 47.7011 41.8022 47.3766 42.5264C46.7619 43.8963 45.6123 44.7273 44.3781 45.4528C43.0662 46.2228 41.6157 46.6536 40.1205 46.8191C39.0086 46.9423 37.886 46.6618 36.821 46.3496C34.248 45.596 31.6937 44.7696 29.3122 43.5066C26.8732 42.213 24.6633 40.599 22.6356 38.7268C20.0438 36.3357 17.8409 33.6218 15.8485 30.7236C14.4262 28.6542 13.2614 26.4814 12.7677 23.9882C12.2528 21.38 12.6478 18.9466 14.0701 16.6906C14.5379 15.9475 15.088 15.2667 15.7439 14.6845C16.6443 13.8851 17.7457 13.7443 18.8977 13.8206V13.8194Z" fill="#FBFBFB"/>
</g>
<defs>
<clipPath id="clip0_1374_1133">
<rect width="60" height="60" fill="white"/>
</clipPath>
</defs>
</svg>
