<?xml version="1.0" encoding="UTF-8"?>
<svg id="Layer_2" data-name="Layer 2" xmlns="http://www.w3.org/2000/svg" xmlns:xlink="http://www.w3.org/1999/xlink" viewBox="0 0 256.44 256.44">
  <defs>
    <style>
      .cls-1 {
        fill: #fefefe;
      }

      .cls-1, .cls-2 {
        stroke-width: 0px;
      }

      .cls-2 {
        fill: url(#linear-gradient);
      }
    </style>
    <linearGradient id="linear-gradient" x1="52.95" y1="206.07" x2="199.55" y2="53.38" gradientUnits="userSpaceOnUse">
      <stop offset="0" stop-color="#2bb741"/>
      <stop offset="1" stop-color="#54cf60" stop-opacity=".9"/>
    </linearGradient>
  </defs>
  <g id="Layer_1-2" data-name="Layer 1">
    <g>
      <path class="cls-1" d="m128.47,0C57.8,0,.5,57.3.5,127.97c0,22.61,5.87,43.84,16.15,62.27L0,256.44l64.3-17.73c18.87,10.96,40.78,17.23,64.17,17.23,70.68,0,127.97-57.3,127.97-127.97S199.15,0,128.47,0Z"/>
      <path class="cls-2" d="m31.02,225.34c3.24-11.81,6.34-23.2,9.52-34.57.46-1.64.29-2.9-.67-4.37-10.54-16.06-16.33-33.69-17.44-52.9-1.12-19.34,2.71-37.61,11.77-54.66,10.57-19.9,26.01-34.97,46.21-45.13,15.88-7.99,32.72-11.73,50.39-11.08,29,1.06,53.79,12.01,74.01,32.89,15.4,15.9,24.81,34.91,27.95,56.82,3.46,24.21-.83,47.1-13.22,68.23-14.57,24.85-35.63,41.76-63.4,49.7-28.2,8.06-55.07,4.01-80.24-10.74-4.81-2.82-8.98-3.68-14.37-2.03-9.53,2.91-19.29,5.05-28.96,7.5-.38.1-.76.16-1.53.33Zm33.93-130.13c.07,11.99,2.98,20.6,7.45,28.71,7.76,14.07,18.14,26.05,30.16,36.62,14.87,13.08,31.9,22.17,51.09,27.09,10.84,2.78,21.01,1.08,30.03-5.73,6.78-5.12,9.16-12.62,10.38-20.62.51-3.32-.19-4.67-3.29-6.1-8.45-3.91-16.91-7.81-25.37-11.69-3.57-1.63-4.9-1.3-7.3,1.77-3.13,4-6.25,8-9.36,12.01-1.36,1.75-2.88,2.59-5.17,1.68-19.18-7.63-34.56-19.7-44.72-37.96-1.25-2.25-1.19-4.13.64-6.08,3.02-3.21,5.91-6.55,8.81-9.88,1.42-1.63,2.43-3.51,1.47-5.7-4.19-9.51-8.44-18.99-12.69-28.47-.66-1.48-1.8-2.35-3.47-2.44-2.74-.15-5.48-.37-8.22-.45-2.39-.06-4.67.52-6.51,2.09-8.53,7.28-14.28,15.97-13.91,25.14Z"/>
    </g>
  </g>
</svg>