<svg width="365" height="302" viewBox="0 0 365 302" fill="none" xmlns="http://www.w3.org/2000/svg">
<path d="M297.328 54.001C297.328 51.2195 297.051 48.5073 296.513 45.8904L310.102 38.0572L297.38 16.0478L283.834 23.8551C279.738 20.1897 274.878 17.3476 269.532 15.5799V0H244.08V15.5885C241.702 16.3771 239.42 17.3649 237.259 18.552C236.998 18.6906 236.747 18.8466 236.495 18.9939C236.243 19.1412 235.983 19.2799 235.731 19.4358C233.623 20.7096 231.618 22.1827 229.752 23.8464L216.232 16.0478L203.51 38.0572L217.03 45.8558C216.518 48.2993 216.24 50.7689 216.197 53.2298C216.197 53.5244 216.197 53.8277 216.197 54.1223C216.197 54.4082 216.197 54.6942 216.197 54.9888C216.249 57.4497 216.527 59.9193 217.03 62.3715L203.51 70.1701L216.232 92.1795L229.752 84.3809C233.952 88.1242 238.847 90.897 244.071 92.6127V108.227H269.524V92.5607C272.066 91.7115 274.557 90.6024 276.97 89.2073C279.434 87.7862 281.699 86.1399 283.738 84.3115L297.372 92.1708L310.094 70.1614L296.461 62.3022C297.016 59.6246 297.32 56.8431 297.32 54.001H297.328ZM273.472 71.9118C273.359 72.0157 273.255 72.1111 273.143 72.215C272.7 72.6136 272.249 72.9862 271.789 73.3502C271.572 73.5148 271.355 73.6795 271.129 73.8441C270.747 74.1214 270.366 74.3813 269.966 74.6326C269.654 74.8319 269.333 75.0225 269.012 75.2132C268.691 75.4038 268.361 75.5771 268.031 75.7504C267.615 75.967 267.189 76.1663 266.764 76.357C266.512 76.4696 266.261 76.5736 266.009 76.6776C265.462 76.8942 264.916 77.1022 264.352 77.2841C264.213 77.3275 264.065 77.3794 263.926 77.4228C261.679 78.0987 259.292 78.4799 256.819 78.4799C243.281 78.4799 232.303 67.5186 232.303 54.001C232.303 50.6909 232.972 47.5368 234.161 44.66C234.221 44.5213 234.273 44.3914 234.334 44.2527C234.551 43.7502 234.803 43.2562 235.054 42.7623C235.219 42.4504 235.384 42.1471 235.558 41.8438C235.731 41.5406 235.914 41.2459 236.104 40.9513C236.4 40.4921 236.703 40.0328 237.033 39.5909C237.12 39.4696 237.207 39.3569 237.293 39.2356C239.194 36.7661 241.598 34.6085 244.47 32.9534C256.194 26.1946 271.181 30.2066 277.95 41.9131C279.182 44.0534 280.059 46.2977 280.588 48.5853C280.623 48.7326 280.649 48.8712 280.684 49.0185C280.805 49.5991 280.909 50.1797 280.988 50.7602C281.022 51.0288 281.057 51.3061 281.083 51.5747C281.135 52.0427 281.17 52.5106 281.187 52.9785C281.204 53.3511 281.213 53.7237 281.213 54.0876C281.213 54.4602 281.213 54.8328 281.187 55.2054C281.161 55.6733 281.135 56.1326 281.083 56.6005C281.057 56.8778 281.022 57.1464 280.988 57.4237C280.909 58.0043 280.805 58.5848 280.684 59.1567C280.649 59.304 280.623 59.4513 280.588 59.5986C280.05 61.8862 279.182 64.1305 277.95 66.2708C276.718 68.4111 275.199 70.2827 273.481 71.8858L273.472 71.9118Z" fill="#EBEBF2"/>
<path d="M357.797 131.398C357.797 129.829 357.641 128.304 357.337 126.823L365 122.403L357.823 109.995L350.187 114.397C347.878 112.326 345.136 110.731 342.125 109.735V100.948H327.78V109.735C326.443 110.177 325.15 110.74 323.935 111.407C323.788 111.485 323.649 111.572 323.501 111.65C323.363 111.737 323.215 111.815 323.076 111.901C321.887 112.62 320.759 113.452 319.7 114.388L312.081 109.995L304.904 122.403L312.524 126.797C312.237 128.174 312.081 129.569 312.055 130.956C312.055 131.12 312.055 131.294 312.055 131.458C312.055 131.623 312.055 131.779 312.055 131.944C312.081 133.33 312.237 134.725 312.524 136.103L304.904 140.496L312.081 152.905L319.7 148.511C322.07 150.617 324.829 152.185 327.771 153.147V161.951H342.116V153.121C343.548 152.645 344.954 152.012 346.307 151.232C347.696 150.426 348.972 149.499 350.126 148.477L357.806 152.905L364.983 140.496L357.303 136.068C357.615 134.56 357.789 132.992 357.789 131.389L357.797 131.398ZM344.346 141.493C344.285 141.553 344.225 141.605 344.155 141.666C343.912 141.891 343.652 142.099 343.392 142.307C343.27 142.402 343.149 142.498 343.018 142.584C342.801 142.74 342.584 142.888 342.368 143.026C342.194 143.139 342.012 143.252 341.83 143.356C341.647 143.46 341.465 143.564 341.274 143.659C341.04 143.78 340.806 143.893 340.563 144.005C340.424 144.066 340.276 144.127 340.137 144.187C339.834 144.309 339.521 144.43 339.2 144.525C339.122 144.551 339.044 144.577 338.957 144.603C337.69 144.985 336.345 145.201 334.948 145.201C327.32 145.201 321.132 139.023 321.132 131.406C321.132 129.543 321.505 127.767 322.182 126.138C322.217 126.06 322.243 125.982 322.278 125.913C322.399 125.627 322.538 125.349 322.686 125.072C322.781 124.899 322.868 124.726 322.972 124.552C323.068 124.379 323.172 124.214 323.276 124.05C323.441 123.79 323.614 123.53 323.796 123.278C323.849 123.209 323.892 123.149 323.944 123.079C325.02 121.684 326.374 120.471 327.988 119.544C334.601 115.731 343.044 117.993 346.863 124.596C347.557 125.8 348.052 127.065 348.355 128.356C348.373 128.434 348.39 128.521 348.408 128.599C348.477 128.928 348.529 129.249 348.581 129.578C348.598 129.734 348.616 129.881 348.633 130.037C348.659 130.297 348.677 130.566 348.694 130.826C348.703 131.034 348.711 131.242 348.711 131.45C348.711 131.658 348.711 131.874 348.694 132.082C348.685 132.342 348.659 132.611 348.633 132.871C348.616 133.027 348.598 133.183 348.581 133.33C348.538 133.659 348.477 133.98 348.408 134.309C348.39 134.396 348.373 134.474 348.355 134.56C348.052 135.852 347.566 137.117 346.871 138.321C346.177 139.526 345.318 140.583 344.355 141.493H344.346Z" fill="#EBEBF2"/>
<path d="M78.7453 216.402C77.9556 214.375 76.9836 212.468 75.8468 210.701L83.5616 201.126L68.0105 188.631L60.3217 198.171C56.2864 196.646 51.93 195.944 47.5216 196.169L43.0957 184.766L24.4813 191.967L28.9071 203.37C27.3884 204.618 26.0086 205.987 24.759 207.469C24.6114 207.642 24.4726 207.824 24.3251 208.006C24.1775 208.188 24.03 208.361 23.8912 208.543C22.7109 210.068 21.6609 211.715 20.767 213.465L8.66981 211.585L5.60645 231.28L17.7037 233.161C18.0248 235.093 18.5194 236.982 19.1876 238.793C19.2657 239.01 19.3525 239.226 19.4393 239.452C19.5174 239.66 19.5955 239.876 19.6823 240.084C20.4199 241.869 21.3224 243.594 22.3898 245.249L14.7098 254.772L30.2609 267.267L37.941 257.744C42.0717 259.286 46.4368 259.936 50.7498 259.711L55.1756 271.131L73.7901 263.931L69.3469 252.475C70.9611 251.132 72.471 249.616 73.8422 247.917C75.2393 246.176 76.4282 244.339 77.4089 242.424L89.6016 244.313L92.6649 224.617L80.4722 222.728C80.1251 220.614 79.5524 218.499 78.7453 216.411V216.402ZM66.379 236.246C66.327 236.35 66.2749 236.454 66.2228 236.557C66.0145 236.973 65.7889 237.372 65.5546 237.771C65.4418 237.953 65.329 238.135 65.2075 238.317C65.0079 238.628 64.7996 238.923 64.5827 239.226C64.4091 239.46 64.2355 239.694 64.0446 239.92C63.8624 240.145 63.6715 240.37 63.4806 240.587C63.2376 240.864 62.9859 241.133 62.7256 241.393C62.578 241.549 62.4218 241.696 62.2656 241.843C61.9272 242.155 61.5801 242.467 61.2243 242.753C61.1375 242.831 61.042 242.9 60.9466 242.97C59.4973 244.105 57.8572 245.049 56.0434 245.751C46.1418 249.581 35.0078 244.668 31.1721 234.781C30.2348 232.364 29.827 229.868 29.879 227.424C29.879 227.312 29.879 227.199 29.8877 227.078C29.9051 226.645 29.9398 226.22 29.9918 225.787C30.0266 225.518 30.0526 225.241 30.096 224.972C30.1394 224.704 30.1914 224.435 30.2435 224.166C30.3303 223.742 30.4258 223.326 30.5386 222.91C30.5646 222.797 30.5993 222.685 30.634 222.581C31.3196 220.232 32.4651 217.979 34.0966 215.961C40.7527 207.703 52.8499 206.394 61.1201 213.04C62.6301 214.253 63.9058 215.657 64.9471 217.174C65.0166 217.269 65.0773 217.364 65.1381 217.468C65.3897 217.858 65.6327 218.257 65.8583 218.655C65.9625 218.846 66.0666 219.028 66.1621 219.227C66.327 219.557 66.4918 219.886 66.6394 220.224C66.7522 220.492 66.865 220.761 66.9691 221.03C67.0733 221.307 67.1774 221.576 67.2729 221.853C67.3857 222.199 67.4985 222.546 67.594 222.901C67.6547 223.109 67.7068 223.317 67.7588 223.525C67.863 223.976 67.9584 224.426 68.0279 224.877C68.0452 224.99 68.0626 225.111 68.0799 225.224C68.3403 227.043 68.3403 228.932 68.0452 230.847C67.7502 232.762 67.1687 234.565 66.3704 236.22L66.379 236.246Z" fill="#EBEBF2"/>
<path d="M175.757 44.7119H2.22159C0.997979 44.7119 0 43.7154 0 42.4937C0 41.2719 0.997979 40.2754 2.22159 40.2754H175.757C176.981 40.2754 177.979 41.2719 177.979 42.4937C177.979 43.7154 176.981 44.7119 175.757 44.7119Z" fill="#EBEBF2"/>
<path d="M175.757 60.6038H2.22159C0.997979 60.6038 0 59.6073 0 58.3855C0 57.1637 0.997979 56.1672 2.22159 56.1672H175.757C176.981 56.1672 177.979 57.1637 177.979 58.3855C177.979 59.6073 176.981 60.6038 175.757 60.6038Z" fill="#EBEBF2"/>
<path d="M175.757 76.4868H2.22159C0.997979 76.4868 0 75.4903 0 74.2686C0 73.0468 0.997979 72.0503 2.22159 72.0503H175.757C176.981 72.0503 177.979 73.0468 177.979 74.2686C177.979 75.4903 176.981 76.4868 175.757 76.4868Z" fill="#EBEBF2"/>
<path d="M2.22159 87.9421H175.757C176.981 87.9421 177.979 88.9386 177.979 90.1604C177.979 91.3822 176.981 92.3787 175.757 92.3787H2.22159C0.997979 92.3787 0 91.3822 0 90.1604C0 88.9386 0.997979 87.9421 2.22159 87.9421Z" fill="#EBEBF2"/>
<path d="M175.757 108.271H2.22159C0.997979 108.271 0 107.274 0 106.052C0 104.83 0.997979 103.834 2.22159 103.834H175.757C176.981 103.834 177.979 104.83 177.979 106.052C177.979 107.274 176.981 108.271 175.757 108.271Z" fill="#EBEBF2"/>
<path d="M175.757 124.154H2.22159C0.997979 124.154 0 123.157 0 121.935C0 120.714 0.997979 119.717 2.22159 119.717H175.757C176.981 119.717 177.979 120.714 177.979 121.935C177.979 123.157 176.981 124.154 175.757 124.154Z" fill="#EBEBF2"/>
<path d="M175.757 140.045H2.22159C0.997979 140.045 0 139.049 0 137.827C0 136.605 0.997979 135.609 2.22159 135.609H175.757C176.981 135.609 177.979 136.605 177.979 137.827C177.979 139.049 176.981 140.045 175.757 140.045Z" fill="#EBEBF2"/>
<path d="M175.757 155.937H2.22159C0.997979 155.937 0 154.941 0 153.719C0 152.497 0.997979 151.501 2.22159 151.501H175.757C176.981 151.501 177.979 152.497 177.979 153.719C177.979 154.941 176.981 155.937 175.757 155.937Z" fill="#EBEBF2"/>
<path d="M175.757 171.821H2.22159C0.997979 171.821 0 170.824 0 169.602C0 168.381 0.997979 167.384 2.22159 167.384H175.757C176.981 167.384 177.979 168.381 177.979 169.602C177.979 170.824 176.981 171.821 175.757 171.821Z" fill="#EBEBF2"/>
<path d="M176.321 285.013C249.914 285.013 309.573 279.388 309.573 272.448C309.573 265.509 249.914 259.884 176.321 259.884C102.728 259.884 43.0693 265.509 43.0693 272.448C43.0693 279.388 102.728 285.013 176.321 285.013Z" fill="#EBEBF2"/>
<path d="M214.93 273.116H137.703L150.981 234.876H201.652L214.93 273.116Z" fill="url(#paint0_linear_675_1263)"/>
<path d="M52.5801 118.556H300.062V240.925C300.062 248.247 294.108 254.182 286.784 254.182H65.8575C58.5246 254.182 52.5801 248.238 52.5801 240.925V118.556Z" fill="url(#paint1_linear_675_1263)"/>
<path d="M65.8575 80.5422H286.775C294.108 80.5422 300.053 86.4865 300.053 93.7999V222.806H52.5801V93.7999C52.5801 86.4778 58.5332 80.5422 65.8575 80.5422Z" fill="#3D3D89"/>
<path d="M290.533 93.9299H62.5251V209.15H290.533V93.9299Z" fill="url(#paint2_linear_675_1263)"/>
<path style="mix-blend-mode:multiply" d="M176.321 244.062C180.299 244.062 183.524 240.842 183.524 236.87C183.524 232.897 180.299 229.677 176.321 229.677C172.343 229.677 169.118 232.897 169.118 236.87C169.118 240.842 172.343 244.062 176.321 244.062Z" fill="url(#paint3_linear_675_1263)"/>
<path d="M235.054 273.116H117.588C117.588 269.182 120.781 265.984 124.73 265.984H227.921C231.861 265.984 235.063 269.173 235.063 273.116H235.054Z" fill="url(#paint4_linear_675_1263)"/>
<path d="M287.478 301.009C317.299 301.009 341.473 297.556 341.473 293.297C341.473 289.037 317.299 285.585 287.478 285.585C257.658 285.585 233.483 289.037 233.483 293.297C233.483 297.556 257.658 301.009 287.478 301.009Z" fill="#EBEBF2"/>
<path d="M314.494 171.283H260.464C256.203 171.283 252.749 174.732 252.749 178.986V282.613C252.749 286.867 256.203 290.316 260.464 290.316H314.494C318.754 290.316 322.208 286.867 322.208 282.613V178.986C322.208 174.732 318.754 171.283 314.494 171.283Z" fill="#4B4BA0"/>
<path d="M322.208 179.567H252.749V281.538H322.208V179.567Z" fill="url(#paint5_linear_675_1263)"/>
<g filter="url(#filter0_d_675_1263)">
<path d="M304.775 205.822H270.192C265.932 205.822 262.478 209.271 262.478 213.526V248.056C262.478 252.31 265.932 255.759 270.192 255.759H304.775C309.035 255.759 312.489 252.31 312.489 248.056V213.526C312.489 209.271 309.035 205.822 304.775 205.822Z" fill="url(#paint6_linear_675_1263)"/>
</g>
<g filter="url(#filter1_d_675_1263)">
<path d="M287.479 249.91C276.926 249.91 268.335 241.332 268.335 230.795C268.335 220.258 276.926 211.68 287.479 211.68C298.031 211.68 306.623 220.258 306.623 230.795C306.623 241.332 298.031 249.91 287.479 249.91ZM287.479 215.207C278.87 215.207 271.876 222.199 271.876 230.795C271.876 239.391 278.879 246.375 287.479 246.375C296.079 246.375 303.082 239.382 303.082 230.795C303.082 222.208 296.079 215.207 287.479 215.207Z" fill="white"/>
<path d="M286.099 238.065L279.408 232.182L282.211 229.002L285.7 232.069L292.364 224.47L295.558 227.251L286.099 238.065Z" fill="white"/>
</g>
<path d="M296.183 183.614H278.775C276.093 183.614 273.915 181.439 273.915 178.761H301.043C301.043 181.439 298.864 183.614 296.183 183.614Z" fill="#4B4BA0"/>
<path opacity="0.15" d="M293.762 179.567H281.196C280.744 179.567 280.389 179.203 280.389 178.761C280.389 178.311 280.753 177.955 281.196 177.955H293.762C294.204 177.955 294.569 178.319 294.569 178.761C294.569 179.212 294.204 179.567 293.762 179.567Z" fill="white"/>
<g filter="url(#filter2_d_675_1263)">
<path d="M236.478 68.489H99.9112C95.6504 68.489 92.1964 71.9379 92.1964 76.1923V158.641C92.1964 162.895 95.6504 166.344 99.9112 166.344H236.478C240.739 166.344 244.193 162.895 244.193 158.641V76.1923C244.193 71.9379 240.739 68.489 236.478 68.489Z" fill="url(#paint7_linear_675_1263)"/>
</g>
<path d="M236.478 76.1924H99.9111V158.641H236.478V76.1924Z" fill="#3D3D89"/>
<path d="M128.679 87.2056H114.473V89.1206H128.679V87.2056Z" fill="#FFC700"/>
<path d="M162.246 87.2056H133.174V89.1206H162.246V87.2056Z" fill="#FFC700"/>
<path d="M134.71 94.9695H120.504V96.8845H134.71V94.9695Z" fill="white"/>
<path d="M222.272 94.9695H139.205V96.8845H222.272V94.9695Z" fill="#1E9AFF"/>
<path d="M134.71 102.179H120.504V104.094H134.71V102.179Z" fill="white"/>
<path d="M222.272 102.179H139.205V104.094H222.272V102.179Z" fill="#1E9AFF"/>
<path d="M134.71 109.388H120.504V111.303H134.71V109.388Z" fill="white"/>
<path d="M222.272 109.388H139.205V111.303H222.272V109.388Z" fill="#1E9AFF"/>
<path d="M134.71 116.589H120.504V118.504H134.71V116.589Z" fill="white"/>
<path d="M128.679 124.214H114.473V126.129H128.679V124.214Z" fill="#FFC700"/>
<path d="M162.246 124.214H133.174V126.129H162.246V124.214Z" fill="#FFC700"/>
<path d="M192.766 131.978H139.205V133.893H192.766V131.978Z" fill="white"/>
<path d="M192.766 139.188H139.205V141.102H192.766V139.188Z" fill="white"/>
<path d="M134.701 139.188H129.989V141.102H134.701V139.188Z" fill="#1E9AFF"/>
<path d="M134.71 146.397H120.504V148.312H134.71V146.397Z" fill="#1E9AFF"/>
<path d="M192.766 146.397H139.205V148.312H192.766V146.397Z" fill="white"/>
<path d="M222.879 131.978H196.628V133.893H222.879V131.978Z" fill="white"/>
<path d="M222.879 139.188H196.628V141.102H222.879V139.188Z" fill="white"/>
<path d="M222.879 146.397H196.628V148.312H222.879V146.397Z" fill="white"/>
<path d="M222.272 116.589H139.205V118.504H222.272V116.589Z" fill="#1E9AFF"/>
<g filter="url(#filter3_d_675_1263)">
<path d="M67.4118 106.997H23.4052C19.1445 106.997 15.6904 110.446 15.6904 114.7V158.641C15.6904 162.895 19.1445 166.344 23.4052 166.344H67.4118C71.6726 166.344 75.1266 162.895 75.1266 158.641V114.7C75.1266 110.446 71.6726 106.997 67.4118 106.997Z" fill="url(#paint8_linear_675_1263)"/>
</g>
<g filter="url(#filter4_d_675_1263)">
<path d="M59.1069 136.64C59.1069 135.704 59.0114 134.786 58.8292 133.902L63.4199 131.25L59.1156 123.816L54.5335 126.459C53.145 125.219 51.5049 124.258 49.6998 123.66V118.391H41.0999V123.66C40.2928 123.928 39.5291 124.258 38.8002 124.665C38.7134 124.708 38.6266 124.76 38.5398 124.812C38.4531 124.864 38.3663 124.908 38.2795 124.96C37.5679 125.393 36.891 125.887 36.2575 126.45L31.6841 123.816L27.3798 131.25L31.9532 133.885C31.7796 134.708 31.6842 135.548 31.6668 136.38C31.6668 136.484 31.6668 136.579 31.6668 136.683C31.6668 136.779 31.6668 136.874 31.6668 136.978C31.6842 137.81 31.7796 138.642 31.9532 139.474L27.3798 142.108L31.6841 149.542L36.2575 146.908C37.6807 148.173 39.3295 149.109 41.0999 149.69V154.967H49.6998V149.672C50.559 149.386 51.4007 149.005 52.2165 148.537C53.0496 148.052 53.8133 147.497 54.5075 146.882L59.1156 149.534L63.4199 142.099L58.8118 139.448C59.0027 138.538 59.0982 137.602 59.0982 136.64H59.1069ZM51.0449 142.697C51.0449 142.697 50.9668 142.766 50.9321 142.801C50.7846 142.931 50.6284 143.061 50.4722 143.182C50.4028 143.243 50.3247 143.295 50.2466 143.347C50.1164 143.442 49.9862 143.529 49.856 143.615C49.7519 143.685 49.6391 143.745 49.535 143.815C49.4221 143.875 49.318 143.936 49.2052 143.997C49.0663 144.066 48.9188 144.135 48.78 144.205C48.6932 144.239 48.6064 144.283 48.5283 144.317C48.3461 144.395 48.1551 144.465 47.9642 144.525C47.9122 144.543 47.8688 144.56 47.8167 144.569C47.053 144.803 46.2546 144.924 45.4129 144.924C40.8395 144.924 37.1253 141.224 37.1253 136.649C37.1253 135.531 37.3509 134.465 37.7501 133.495C37.7675 133.451 37.7848 133.408 37.8109 133.356C37.889 133.183 37.9671 133.018 38.0539 132.853C38.1059 132.749 38.1667 132.645 38.2274 132.541C38.2882 132.438 38.3489 132.342 38.4097 132.238C38.5138 132.082 38.6093 131.926 38.7221 131.779C38.7481 131.736 38.7828 131.701 38.8089 131.658C39.451 130.826 40.2668 130.098 41.23 129.535C45.1959 127.247 50.2552 128.608 52.5462 132.559C52.9628 133.278 53.2579 134.041 53.4401 134.812C53.4488 134.864 53.4574 134.907 53.4748 134.959C53.5182 135.158 53.5529 135.349 53.5789 135.548C53.5876 135.644 53.605 135.73 53.6137 135.826C53.631 135.982 53.6397 136.138 53.6484 136.302C53.6484 136.423 53.6484 136.553 53.6484 136.675C53.6484 136.805 53.6484 136.926 53.6484 137.056C53.6484 137.212 53.631 137.368 53.6137 137.524C53.605 137.619 53.5963 137.706 53.5789 137.801C53.5529 138.001 53.5182 138.191 53.4748 138.39C53.4661 138.442 53.4575 138.486 53.4401 138.538C53.2579 139.309 52.9628 140.071 52.5462 140.791C52.1297 141.51 51.6177 142.151 51.0363 142.688L51.0449 142.697Z" fill="white"/>
</g>
<g filter="url(#filter5_d_675_1263)">
<path d="M136.047 179.862H76.6192C72.3585 179.862 68.9044 183.311 68.9044 187.565V223.803C68.9044 228.057 72.3585 231.506 76.6192 231.506H136.047C140.307 231.506 143.762 228.057 143.762 223.803V187.565C143.762 183.311 140.307 179.862 136.047 179.862Z" fill="url(#paint9_linear_675_1263)"/>
</g>
<g filter="url(#filter6_d_675_1263)">
<path d="M95.5114 193.5L81.4269 205.684L95.5114 217.858V211.255L89.0549 205.684L95.5114 200.103V193.5Z" fill="white"/>
<path d="M117.163 217.858L131.256 205.684L117.163 193.5V200.103L123.62 205.684L117.163 211.255V217.858Z" fill="white"/>
<path d="M104.979 221.836H99.0089L107.704 189.532H113.666L104.979 221.836Z" fill="white"/>
</g>
<g filter="url(#filter7_d_675_1263)">
<path d="M336.224 37.8667H269.082C264.821 37.8667 261.367 41.3156 261.367 45.57V112.612C261.367 116.866 264.821 120.315 269.082 120.315H336.224C340.485 120.315 343.939 116.866 343.939 112.612V45.57C343.939 41.3156 340.485 37.8667 336.224 37.8667Z" fill="url(#paint10_linear_675_1263)"/>
</g>
<g filter="url(#filter8_d_675_1263)">
<path d="M323.112 63.8881C321.411 63.8881 319.797 64.2693 318.357 64.9452C316.378 57.8918 309.904 52.7188 302.207 52.7188C294.509 52.7188 288.244 57.7272 286.152 64.6073C284.92 64.1394 283.592 63.8881 282.204 63.8881C276.025 63.8881 271.018 68.8878 271.018 75.0574H334.298C334.298 68.8878 329.291 63.8881 323.112 63.8881Z" fill="white"/>
<path d="M291.021 93.852L302.658 105.472L314.295 93.852H306.45V80.1438H298.857V93.852H291.021Z" fill="white"/>
</g>
<g filter="url(#filter9_d_675_1263)">
<path d="M67.4118 34.1406H23.4052C19.1445 34.1406 15.6904 37.5895 15.6904 41.8439V85.7847C15.6904 90.0391 19.1445 93.488 23.4052 93.488H67.4118C71.6726 93.488 75.1266 90.0391 75.1266 85.7847V41.8439C75.1266 37.5895 71.6726 34.1406 67.4118 34.1406Z" fill="url(#paint11_linear_675_1263)"/>
</g>
<path d="M68.106 41.1506H22.711V86.4778H68.106V41.1506Z" fill="#3D3D89"/>
<path d="M34.5657 49.9717H30.3915V51.8867H34.5657V49.9717Z" fill="white"/>
<path d="M58.1089 49.9717H36.7521V51.8867H58.1089V49.9717Z" fill="#1E9AFF"/>
<path d="M36.8827 56.4099H30.3915V58.3249H36.8827V56.4099Z" fill="white"/>
<path d="M60.4259 56.4099H39.0692V58.3249H60.4259V56.4099Z" fill="#1E9AFF"/>
<path d="M34.5657 68.5151H30.3915V70.4301H34.5657V68.5151Z" fill="white"/>
<path d="M58.1089 68.5151H36.7521V70.4301H58.1089V68.5151Z" fill="#1E9AFF"/>
<path d="M36.8827 74.9446H30.3915V76.8596H36.8827V74.9446Z" fill="white"/>
<path d="M60.4259 74.9446H39.0692V76.8596H60.4259V74.9446Z" fill="#1E9AFF"/>
<path d="M33.0292 62.8481H26.538V64.7631H33.0292V62.8481Z" fill="white"/>
<path d="M64.2785 62.8481H35.207V64.7631H64.2785V62.8481Z" fill="#1E9AFF"/>
<g style="mix-blend-mode:multiply">
<path d="M195.344 178.241H177.935V195.624H195.344V178.241Z" fill="#A7C8FF"/>
</g>
<g style="mix-blend-mode:multiply">
<path d="M220.631 178.241H203.223V195.624H220.631V178.241Z" fill="#A7C8FF"/>
</g>
<g style="mix-blend-mode:multiply">
<path d="M245.929 178.241H228.52V195.624H245.929V178.241Z" fill="#A7C8FF"/>
</g>
<g style="mix-blend-mode:multiply">
<path d="M280.597 131.025H254.345V132.94H280.597V131.025Z" fill="#A7C8FF"/>
</g>
<g style="mix-blend-mode:multiply">
<path d="M280.597 138.226H254.345V140.141H280.597V138.226Z" fill="#A7C8FF"/>
</g>
<g style="mix-blend-mode:multiply">
<path d="M280.597 145.435H254.345V147.35H280.597V145.435Z" fill="#A7C8FF"/>
</g>
<defs>
<filter id="filter0_d_675_1263" x="251.818" y="204.052" width="71.3318" height="71.257" filterUnits="userSpaceOnUse" color-interpolation-filters="sRGB">
<feFlood flood-opacity="0" result="BackgroundImageFix"/>
<feColorMatrix in="SourceAlpha" type="matrix" values="0 0 0 0 0 0 0 0 0 0 0 0 0 0 0 0 0 0 127 0" result="hardAlpha"/>
<feOffset dy="8.89"/>
<feGaussianBlur stdDeviation="5.33"/>
<feColorMatrix type="matrix" values="0 0 0 0 0.0666667 0 0 0 0 0.447059 0 0 0 0 0.835294 0 0 0 0.4 0"/>
<feBlend mode="normal" in2="BackgroundImageFix" result="effect1_dropShadow_675_1263"/>
<feBlend mode="normal" in="SourceGraphic" in2="effect1_dropShadow_675_1263" result="shape"/>
</filter>
<filter id="filter1_d_675_1263" x="260.835" y="207.93" width="53.2877" height="53.2305" filterUnits="userSpaceOnUse" color-interpolation-filters="sRGB">
<feFlood flood-opacity="0" result="BackgroundImageFix"/>
<feColorMatrix in="SourceAlpha" type="matrix" values="0 0 0 0 0 0 0 0 0 0 0 0 0 0 0 0 0 0 127 0" result="hardAlpha"/>
<feOffset dy="3.75"/>
<feGaussianBlur stdDeviation="3.75"/>
<feColorMatrix type="matrix" values="0 0 0 0 0.117647 0 0 0 0 0.521569 0 0 0 0 1 0 0 0 0.4 0"/>
<feBlend mode="normal" in2="BackgroundImageFix" result="effect1_dropShadow_675_1263"/>
<feBlend mode="normal" in="SourceGraphic" in2="effect1_dropShadow_675_1263" result="shape"/>
</filter>
<filter id="filter2_d_675_1263" x="81.5364" y="66.719" width="173.317" height="119.175" filterUnits="userSpaceOnUse" color-interpolation-filters="sRGB">
<feFlood flood-opacity="0" result="BackgroundImageFix"/>
<feColorMatrix in="SourceAlpha" type="matrix" values="0 0 0 0 0 0 0 0 0 0 0 0 0 0 0 0 0 0 127 0" result="hardAlpha"/>
<feOffset dy="8.89"/>
<feGaussianBlur stdDeviation="5.33"/>
<feColorMatrix type="matrix" values="0 0 0 0 0.117647 0 0 0 0 0.521569 0 0 0 0 1 0 0 0 0.4 0"/>
<feBlend mode="normal" in2="BackgroundImageFix" result="effect1_dropShadow_675_1263"/>
<feBlend mode="normal" in="SourceGraphic" in2="effect1_dropShadow_675_1263" result="shape"/>
</filter>
<filter id="filter3_d_675_1263" x="5.03043" y="105.227" width="80.7562" height="80.6674" filterUnits="userSpaceOnUse" color-interpolation-filters="sRGB">
<feFlood flood-opacity="0" result="BackgroundImageFix"/>
<feColorMatrix in="SourceAlpha" type="matrix" values="0 0 0 0 0 0 0 0 0 0 0 0 0 0 0 0 0 0 127 0" result="hardAlpha"/>
<feOffset dy="8.89"/>
<feGaussianBlur stdDeviation="5.33"/>
<feColorMatrix type="matrix" values="0 0 0 0 0.117647 0 0 0 0 0.521569 0 0 0 0 1 0 0 0 0.4 0"/>
<feBlend mode="normal" in2="BackgroundImageFix" result="effect1_dropShadow_675_1263"/>
<feBlend mode="normal" in="SourceGraphic" in2="effect1_dropShadow_675_1263" result="shape"/>
</filter>
<filter id="filter4_d_675_1263" x="19.8798" y="114.641" width="51.04" height="51.5754" filterUnits="userSpaceOnUse" color-interpolation-filters="sRGB">
<feFlood flood-opacity="0" result="BackgroundImageFix"/>
<feColorMatrix in="SourceAlpha" type="matrix" values="0 0 0 0 0 0 0 0 0 0 0 0 0 0 0 0 0 0 127 0" result="hardAlpha"/>
<feOffset dy="3.75"/>
<feGaussianBlur stdDeviation="3.75"/>
<feColorMatrix type="matrix" values="0 0 0 0 0.117647 0 0 0 0 0.521569 0 0 0 0 1 0 0 0 0.4 0"/>
<feBlend mode="normal" in2="BackgroundImageFix" result="effect1_dropShadow_675_1263"/>
<feBlend mode="normal" in="SourceGraphic" in2="effect1_dropShadow_675_1263" result="shape"/>
</filter>
<filter id="filter5_d_675_1263" x="58.2444" y="178.092" width="96.1771" height="72.964" filterUnits="userSpaceOnUse" color-interpolation-filters="sRGB">
<feFlood flood-opacity="0" result="BackgroundImageFix"/>
<feColorMatrix in="SourceAlpha" type="matrix" values="0 0 0 0 0 0 0 0 0 0 0 0 0 0 0 0 0 0 127 0" result="hardAlpha"/>
<feOffset dy="8.89"/>
<feGaussianBlur stdDeviation="5.33"/>
<feColorMatrix type="matrix" values="0 0 0 0 0.117647 0 0 0 0 0.521569 0 0 0 0 1 0 0 0 0.4 0"/>
<feBlend mode="normal" in2="BackgroundImageFix" result="effect1_dropShadow_675_1263"/>
<feBlend mode="normal" in="SourceGraphic" in2="effect1_dropShadow_675_1263" result="shape"/>
</filter>
<filter id="filter6_d_675_1263" x="73.9269" y="185.782" width="64.8295" height="47.3035" filterUnits="userSpaceOnUse" color-interpolation-filters="sRGB">
<feFlood flood-opacity="0" result="BackgroundImageFix"/>
<feColorMatrix in="SourceAlpha" type="matrix" values="0 0 0 0 0 0 0 0 0 0 0 0 0 0 0 0 0 0 127 0" result="hardAlpha"/>
<feOffset dy="3.75"/>
<feGaussianBlur stdDeviation="3.75"/>
<feColorMatrix type="matrix" values="0 0 0 0 0.117647 0 0 0 0 0.521569 0 0 0 0 1 0 0 0 0.4 0"/>
<feBlend mode="normal" in2="BackgroundImageFix" result="effect1_dropShadow_675_1263"/>
<feBlend mode="normal" in="SourceGraphic" in2="effect1_dropShadow_675_1263" result="shape"/>
</filter>
<filter id="filter7_d_675_1263" x="250.707" y="36.0967" width="103.892" height="103.768" filterUnits="userSpaceOnUse" color-interpolation-filters="sRGB">
<feFlood flood-opacity="0" result="BackgroundImageFix"/>
<feColorMatrix in="SourceAlpha" type="matrix" values="0 0 0 0 0 0 0 0 0 0 0 0 0 0 0 0 0 0 127 0" result="hardAlpha"/>
<feOffset dy="8.89"/>
<feGaussianBlur stdDeviation="5.33"/>
<feColorMatrix type="matrix" values="0 0 0 0 0.117647 0 0 0 0 0.521569 0 0 0 0 1 0 0 0 0.4 0"/>
<feBlend mode="normal" in2="BackgroundImageFix" result="effect1_dropShadow_675_1263"/>
<feBlend mode="normal" in="SourceGraphic" in2="effect1_dropShadow_675_1263" result="shape"/>
</filter>
<filter id="filter8_d_675_1263" x="263.518" y="48.9688" width="78.2806" height="67.7532" filterUnits="userSpaceOnUse" color-interpolation-filters="sRGB">
<feFlood flood-opacity="0" result="BackgroundImageFix"/>
<feColorMatrix in="SourceAlpha" type="matrix" values="0 0 0 0 0 0 0 0 0 0 0 0 0 0 0 0 0 0 127 0" result="hardAlpha"/>
<feOffset dy="3.75"/>
<feGaussianBlur stdDeviation="3.75"/>
<feColorMatrix type="matrix" values="0 0 0 0 0.117647 0 0 0 0 0.521569 0 0 0 0 1 0 0 0 0.4 0"/>
<feBlend mode="normal" in2="BackgroundImageFix" result="effect1_dropShadow_675_1263"/>
<feBlend mode="normal" in="SourceGraphic" in2="effect1_dropShadow_675_1263" result="shape"/>
</filter>
<filter id="filter9_d_675_1263" x="5.03043" y="32.3706" width="80.7562" height="80.6674" filterUnits="userSpaceOnUse" color-interpolation-filters="sRGB">
<feFlood flood-opacity="0" result="BackgroundImageFix"/>
<feColorMatrix in="SourceAlpha" type="matrix" values="0 0 0 0 0 0 0 0 0 0 0 0 0 0 0 0 0 0 127 0" result="hardAlpha"/>
<feOffset dy="8.89"/>
<feGaussianBlur stdDeviation="5.33"/>
<feColorMatrix type="matrix" values="0 0 0 0 0.117647 0 0 0 0 0.521569 0 0 0 0 1 0 0 0 0.4 0"/>
<feBlend mode="normal" in2="BackgroundImageFix" result="effect1_dropShadow_675_1263"/>
<feBlend mode="normal" in="SourceGraphic" in2="effect1_dropShadow_675_1263" result="shape"/>
</filter>
<linearGradient id="paint0_linear_675_1263" x1="150.755" y1="235.102" x2="201.801" y2="286.224" gradientUnits="userSpaceOnUse">
<stop offset="0.23" stop-color="#A7C8FF"/>
<stop offset="0.45" stop-color="#AACAFF"/>
<stop offset="0.67" stop-color="#B6D2FF"/>
<stop offset="0.89" stop-color="#CAE0FF"/>
<stop offset="1" stop-color="#D8E9FF"/>
</linearGradient>
<linearGradient id="paint1_linear_675_1263" x1="82.4327" y1="88.7482" x2="269.92" y2="276.516" gradientUnits="userSpaceOnUse">
<stop stop-color="#D8E9FF"/>
<stop offset="1" stop-color="#A7C8FF"/>
</linearGradient>
<linearGradient id="paint2_linear_675_1263" x1="90.6855" y1="65.8203" x2="262.125" y2="237.516" gradientUnits="userSpaceOnUse">
<stop stop-color="#562BFF"/>
<stop offset="1" stop-color="#7DA5FF"/>
</linearGradient>
<linearGradient id="paint3_linear_675_1263" x1="171.227" y1="231.783" x2="181.4" y2="241.971" gradientUnits="userSpaceOnUse">
<stop stop-color="#A7C8FF"/>
<stop offset="1" stop-color="#D8E9FF"/>
</linearGradient>
<linearGradient id="paint4_linear_675_1263" x1="146.208" y1="241.575" x2="206.335" y2="301.792" gradientUnits="userSpaceOnUse">
<stop stop-color="#A7C8FF"/>
<stop offset="1" stop-color="#73ABFF"/>
</linearGradient>
<linearGradient id="paint5_linear_675_1263" x1="244.583" y1="187.73" x2="330.246" y2="273.521" gradientUnits="userSpaceOnUse">
<stop stop-color="#562BFF"/>
<stop offset="1" stop-color="#7DA5FF"/>
</linearGradient>
<linearGradient id="paint6_linear_675_1263" x1="264.734" y1="208.084" x2="310.165" y2="253.583" gradientUnits="userSpaceOnUse">
<stop stop-color="#35FFFF" stop-opacity="0.5"/>
<stop offset="1" stop-color="#35E6BB"/>
</linearGradient>
<linearGradient id="paint7_linear_675_1263" x1="107.956" y1="57.2677" x2="228.253" y2="177.745" gradientUnits="userSpaceOnUse">
<stop stop-color="#35C9E2" stop-opacity="0.5"/>
<stop offset="1" stop-color="#35E6BB"/>
</linearGradient>
<linearGradient id="paint8_linear_675_1263" x1="17.9554" y1="109.258" x2="72.7882" y2="164.173" gradientUnits="userSpaceOnUse">
<stop stop-color="#35C9E2" stop-opacity="0.5"/>
<stop offset="1" stop-color="#35E6BB"/>
</linearGradient>
<linearGradient id="paint9_linear_675_1263" x1="76.949" y1="176.344" x2="135.638" y2="235.112" gradientUnits="userSpaceOnUse">
<stop stop-color="#35C9E2" stop-opacity="0.5"/>
<stop offset="1" stop-color="#35E6BB"/>
</linearGradient>
<linearGradient id="paint10_linear_675_1263" x1="263.632" y1="40.1283" x2="341.566" y2="118.179" gradientUnits="userSpaceOnUse">
<stop stop-color="#35C9E2" stop-opacity="0.5"/>
<stop offset="1" stop-color="#35E6BB"/>
</linearGradient>
<linearGradient id="paint11_linear_675_1263" x1="17.9554" y1="36.3936" x2="72.7882" y2="91.3084" gradientUnits="userSpaceOnUse">
<stop stop-color="#35C9E2" stop-opacity="0.5"/>
<stop offset="1" stop-color="#35E6BB"/>
</linearGradient>
</defs>
</svg>
