<?xml version="1.0" encoding="UTF-8"?>
<svg id="Layer_2" data-name="Layer 2" xmlns="http://www.w3.org/2000/svg" xmlns:xlink="http://www.w3.org/1999/xlink" viewBox="0 0 330.38 245.13">
  <defs>
    <style>
      .cls-1 {
        fill: none;
      }

      .cls-2, .cls-3 {
        opacity: .1;
      }

      .cls-2, .cls-4, .cls-5 {
        fill: #fff;
      }

      .cls-6 {
        clip-path: url(#clippath);
      }

      .cls-7 {
        fill: #f79f7c;
      }

      .cls-8 {
        fill: #f29c79;
      }

      .cls-9 {
        fill: #e3f1fe;
      }

      .cls-10 {
        fill: #e58b0a;
      }

      .cls-11 {
        fill: #ffe9fe;
      }

      .cls-12 {
        fill: #ffaa83;
      }

      .cls-13 {
        fill: #ffb420;
      }

      .cls-14 {
        fill: #e3b1e5;
      }

      .cls-15 {
        fill: #e83d8f;
      }

      .cls-16 {
        fill: #ff66a8;
      }

      .cls-17 {
        fill: #7392dc;
      }

      .cls-18 {
        fill: #81898f;
      }

      .cls-19 {
        fill: #6783c5;
      }

      .cls-20 {
        fill: #6782c5;
      }

      .cls-21 {
        fill: #999;
      }

      .cls-22 {
        fill: #7c848a;
      }

      .cls-23 {
        fill: #85a9ff;
      }

      .cls-24 {
        fill: #8a8a8a;
      }

      .cls-25 {
        fill: #b8b8b8;
      }

      .cls-26 {
        fill: #9e9e9e;
      }

      .cls-27 {
        fill: #b3b3b3;
      }

      .cls-28 {
        fill: #8f8f8f;
      }

      .cls-29 {
        fill: #318385;
      }

      .cls-30 {
        fill: #858585;
      }

      .cls-31 {
        fill: #858e94;
      }

      .cls-32 {
        fill: #ccf2e8;
      }

      .cls-33 {
        fill: #abd9ce;
      }

      .cls-34 {
        fill: #add3ea;
      }

      .cls-35 {
        fill: #c3cfdb;
      }

      .cls-36 {
        fill: #c3dff4;
      }

      .cls-37 {
        fill: #dcdcdc;
      }

      .cls-38 {
        fill: #adadad;
      }

      .cls-39 {
        fill: #a8a8a8;
      }

      .cls-40 {
        fill: #1cb799;
      }

      .cls-41 {
        fill: #223a7a;
      }

      .cls-42 {
        fill: #435580;
      }

      .cls-43 {
        fill: #41abad;
      }

      .cls-44 {
        fill: #4267c5;
      }

      .cls-45 {
        fill: #3fa6a8;
      }

      .cls-46 {
        fill: #357280;
      }

      .cls-47 {
        fill: #358d8f;
      }

      .cls-48 {
        fill: #367584;
      }

      .cls-49 {
        fill: #43b0b3;
      }

      .cls-50 {
        fill: #3d93ff;
      }

      .cls-51 {
        fill: #3da1a3;
      }

      .cls-52 {
        fill: #899298;
      }

      .cls-53 {
        fill: #a3a3a3;
      }

      .cls-54 {
        fill: #949494;
      }

      .cls-55 {
        fill: #44b5b8;
      }

      .cls-56 {
        fill: #465a87;
      }

      .cls-57 {
        fill: #898989;
      }

      .cls-58 {
        fill: #27e0c0;
      }

      .cls-59 {
        fill: #5bb0ff;
      }

      .cls-60 {
        fill: #4a79d8;
      }

      .cls-61 {
        fill: #475b89;
      }

      .cls-62 {
        fill: #2c4481;
      }

      .cls-63 {
        fill: #5c75b0;
      }

      .cls-64 {
        fill: #2f6673;
      }

      .cls-65 {
        fill: #379294;
      }

      .cls-66 {
        fill: #316a77;
      }

      .cls-67 {
        fill: #316976;
      }

      .cls-68 {
        fill: #3a2528;
      }

      .cls-69 {
        fill: #399799;
      }

      .cls-70 {
        fill: #336e7c;
      }

      .cls-71 {
        fill: #338789;
      }

      .cls-72 {
        fill: #33888a;
      }

      .cls-73 {
        fill: #3b9c9e;
      }

      .cls-74 {
        fill: #598aea;
      }

      .cls-75 {
        fill: #57bcd3;
      }

      .cls-76 {
        fill: #487fd8;
      }

      .cls-77 {
        fill: #608eea;
      }

      .cls-78 {
        fill: #787f85;
      }

      .cls-79 {
        fill: #5e77b4;
      }

      .cls-80 {
        fill: #70a6c5;
      }

      .cls-81 {
        fill: #709dda;
      }

      .cls-82 {
        fill: #282528;
      }

      .cls-83 {
        fill: #345eb2;
      }

      .cls-84 {
        fill: #4e6496;
      }

      .cls-85 {
        fill: #7b8388;
      }

      .cls-86 {
        clip-path: url(#clippath-1);
      }

      .cls-87 {
        clip-path: url(#clippath-4);
      }

      .cls-88 {
        clip-path: url(#clippath-3);
      }

      .cls-89 {
        clip-path: url(#clippath-2);
      }

      .cls-90 {
        clip-path: url(#clippath-7);
      }

      .cls-91 {
        clip-path: url(#clippath-8);
      }

      .cls-92 {
        clip-path: url(#clippath-6);
      }

      .cls-93 {
        clip-path: url(#clippath-5);
      }

      .cls-94 {
        clip-path: url(#clippath-9);
      }

      .cls-95 {
        clip-path: url(#clippath-14);
      }

      .cls-96 {
        clip-path: url(#clippath-13);
      }

      .cls-97 {
        clip-path: url(#clippath-12);
      }

      .cls-98 {
        clip-path: url(#clippath-10);
      }

      .cls-99 {
        clip-path: url(#clippath-15);
      }

      .cls-100 {
        clip-path: url(#clippath-17);
      }

      .cls-101 {
        clip-path: url(#clippath-16);
      }

      .cls-102 {
        clip-path: url(#clippath-19);
      }

      .cls-103 {
        clip-path: url(#clippath-11);
      }

      .cls-104 {
        clip-path: url(#clippath-18);
      }

      .cls-105 {
        opacity: .8;
      }

      .cls-106 {
        isolation: isolate;
      }

      .cls-5 {
        opacity: .3;
      }
    </style>
    <clipPath id="clippath">
      <path class="cls-10" d="m137.42,24.38l-2.45-1.42c-.44-.25-.72-.8-.72-1.58l2.45,1.42c0,.78.28,1.32.72,1.58Z"/>
    </clipPath>
    <clipPath id="clippath-1">
      <path class="cls-10" d="m148.16.17l2.45,1.43c-.45-.26-1.07-.23-1.76.17l-2.45-1.42c.68-.4,1.31-.43,1.75-.17Z"/>
    </clipPath>
    <clipPath id="clippath-2">
      <path class="cls-10" d="m136.67,11.64l-2.45-1.42c0-1.57,1.1-3.47,2.46-4.25l2.46,1.42c-1.36.78-2.46,2.69-2.46,4.26Z"/>
    </clipPath>
    <clipPath id="clippath-3">
      <path class="cls-1" d="m254.26,118.69c0-3.09.02-6.17.03-9.26,0-.21.14-.41.4-.57.55-.32,1.44-.32,1.99,0l-.03,9.26c-.54-.31-1.43-.31-1.98,0-.27.16-.41.37-.41.58Z"/>
    </clipPath>
    <clipPath id="clippath-4">
      <path class="cls-1" d="m254.26,118.69c0-3.09.02-6.17.03-9.26,0,.21.14.42.41.58l-.03,9.26c-.27-.16-.41-.37-.41-.58Z"/>
    </clipPath>
    <clipPath id="clippath-5">
      <path class="cls-1" d="m279.68,122.48c0,3.09-.01,6.17-.03,9.26,0,.21-.14.41-.41.57-.54.32-1.43.32-1.98,0l.03-9.26c.55.32,1.44.32,1.99,0,.26-.16.4-.36.4-.57Z"/>
    </clipPath>
    <clipPath id="clippath-6">
      <path class="cls-1" d="m178.37,176.47c-1.04-.6-2.39-.9-3.75-.9.01-3.09.02-6.17.03-9.26,1.35,0,2.71.3,3.75.9,0,2.78-.02,6.49-.02,9.26Z"/>
    </clipPath>
    <clipPath id="clippath-7">
      <path class="cls-1" d="m170.88,176.47c-1.03.59-1.54,1.37-1.54,2.16l.03-9.27c0-.78.51-1.56,1.54-2.16,1.03-.6,2.38-.9,3.74-.9,0,3.09-.02,6.17-.03,9.26h0c-1.36,0-2.71.3-3.74.9Z"/>
    </clipPath>
    <clipPath id="clippath-8">
      <path class="cls-1" d="m179.93,178.65c0-.79-.52-1.58-1.56-2.18l.02-9.26c1.04.6,1.57,1.39,1.57,2.18,0,2.78-.02,6.49-.03,9.26Z"/>
    </clipPath>
    <clipPath id="clippath-9">
      <path class="cls-1" d="m179.96,169.39c-.01,3.09-.02,6.17-.03,9.26,0,.77-.51,1.56-1.54,2.15-2.07,1.2-5.41,1.2-7.49,0-1.05-.6-1.57-1.39-1.56-2.18,0-3.09.02-6.18.03-9.27,0,.79.52,1.58,1.56,2.18,2.07,1.2,5.42,1.2,7.48,0,1.03-.59,1.54-1.37,1.54-2.16Z"/>
    </clipPath>
    <clipPath id="clippath-10">
      <path class="cls-10" d="m180.58,142.55l-4.96-2.88c-.89-.52-1.45-1.62-1.45-3.19l4.96,2.88c0,1.57.56,2.67,1.45,3.19Z"/>
    </clipPath>
    <clipPath id="clippath-11">
      <path class="cls-10" d="m202.27,93.61l4.96,2.88c-.91-.52-2.16-.45-3.54.34l-4.96-2.87c1.38-.8,2.64-.87,3.54-.35Z"/>
    </clipPath>
    <clipPath id="clippath-12">
      <path class="cls-10" d="m179.06,116.79l-4.95-2.88c0-3.17,2.23-7.02,4.96-8.6l4.96,2.88c-2.74,1.58-4.98,5.43-4.97,8.6Z"/>
    </clipPath>
    <clipPath id="clippath-13">
      <path class="cls-1" d="m277.39,102.83c1.15-.67,1.63-2.42,1.07-3.9l.91-.06c.56,1.48.08,3.23-1.07,3.89-.27.02-.63.04-.91.06Z"/>
    </clipPath>
    <clipPath id="clippath-14">
      <path class="cls-1" d="m274.26,92.15l.91-.06c.92-.07,1.85.58,2.29,1.73l-.91.07c-.43-1.15-1.36-1.8-2.28-1.74Z"/>
    </clipPath>
    <clipPath id="clippath-15">
      <path class="cls-1" d="m274.88,90.24l.91-.06c-.28.02-.56.1-.82.26l-.91.06c.26-.15.54-.24.82-.25Z"/>
    </clipPath>
    <clipPath id="clippath-16">
      <path class="cls-1" d="m274.26,92.15l.91-.06c-.28.02-.56.1-.82.25l-.91.06c.27-.15.54-.23.82-.25Z"/>
    </clipPath>
    <clipPath id="clippath-17">
      <path class="cls-1" d="m268.75,107.81s.04,0,.05,0c.17,0,.35-.02.52-.03.11,0,.22-.01.33-.02-.27.15-.54.24-.82.25l-.91.06c.28-.02.56-.1.82-.25Z"/>
    </clipPath>
    <clipPath id="clippath-18">
      <path class="cls-1" d="m268.84,108l-.91.06c-.93.06-1.85-.59-2.29-1.73l.91-.06c.43,1.13,1.35,1.79,2.29,1.73Z"/>
    </clipPath>
    <clipPath id="clippath-19">
      <path class="cls-1" d="m264.63,101.22l-.91.06c-.56-1.49-.09-3.22,1.07-3.89l.9-.06c-1.16.67-1.63,2.4-1.07,3.89Z"/>
    </clipPath>
  </defs>
  <g id="Layer_1-2" data-name="Layer 1">
    <path class="cls-2" d="m319.56,115.62c-8.08-12.36-20.71-23.94-37.91-33.85-39.65-22.93-94.31-31.75-145.5-26.59-32.31,3.25-63.26,12.13-88.17,26.59C19.17,98.49,3.39,119.9.49,141.8c-3.57,26.98,12.5,54.67,48.25,75.31,54.28,31.33,136.54,36.4,199.62,15.18,12.19-4.08,23.67-9.13,34.06-15.18,47.21-27.41,59.52-67.4,37.14-101.49Z"/>
    <g class="cls-3">
      <path d="m161.24,72.48c20.86,12.04,20.97,31.56.25,43.61-20.73,12.05-54.42,12.05-75.28,0-20.85-12.04-20.96-31.56-.23-43.6,20.73-12.04,54.42-12.04,75.27,0Z"/>
    </g>
    <g class="cls-3">
      <path d="m112.68,120.86c20.86,12.04,20.97,31.56.25,43.61-20.73,12.04-54.42,12.04-75.28,0-20.85-12.04-20.96-31.56-.23-43.6,20.73-12.04,54.42-12.04,75.27,0Z"/>
    </g>
    <g class="cls-3">
      <path d="m170.69,125.46c9.63,5.56,9.68,14.57.11,20.13-9.57,5.56-25.12,5.56-34.75,0-9.62-5.56-9.68-14.56-.11-20.12,9.57-5.56,25.12-5.56,34.75,0Z"/>
    </g>
    <g>
      <polygon class="cls-84" points="127.11 48.03 127.08 59.26 126.54 67.06 126.57 55.83 127.11 48.03"/>
      <polygon class="cls-84" points="114.75 55.93 114.71 67.17 114.31 73.02 114.34 61.79 114.75 55.93"/>
      <polygon class="cls-84" points="126.57 55.83 126.54 67.06 126.11 73.31 126.14 62.07 126.57 55.83"/>
      <polygon class="cls-63" points="126.14 62.07 126.11 73.31 114.31 73.02 114.34 61.79 126.14 62.07"/>
      <polygon class="cls-74" points="89.42 64.93 89.39 76.17 81.69 71.37 81.72 60.14 89.42 64.93"/>
      <polygon class="cls-74" points="162.4 60.41 162.36 71.64 153.8 76.63 153.83 65.39 162.4 60.41"/>
      <polygon class="cls-20" points="145.64 60.44 145.61 71.67 136.87 76.75 136.91 65.52 145.64 60.44"/>
      <polygon class="cls-56" points="106.91 65.8 106.88 77.03 97.73 71.33 97.75 60.1 106.91 65.8"/>
      <polygon class="cls-61" points="145.29 70.36 145.26 81.58 136.87 76.75 136.91 65.52 145.29 70.36"/>
      <polygon class="cls-20" points="153.83 65.39 153.8 76.63 145.26 81.58 145.29 70.36 153.83 65.39"/>
      <polygon class="cls-56" points="98.28 70.45 98.25 81.68 89.39 76.17 89.42 64.93 98.28 70.45"/>
      <polygon class="cls-19" points="106.91 65.8 106.88 77.03 98.25 81.68 98.28 70.45 106.91 65.8"/>
      <polygon class="cls-79" points="94.24 75.26 94.21 86.49 82.01 86.8 82.05 75.57 94.24 75.26"/>
      <polygon class="cls-79" points="160.8 75.8 160.77 87.04 148.22 87.35 148.25 76.11 160.8 75.8"/>
      <path class="cls-23" d="m135.39,70.48c-.84-.48-1.75-.91-2.7-1.29-.06-.02-.11-.05-.17-.08-.03,0-.07-.02-.11-.03-.69-.27-1.41-.51-2.14-.72-.06-.02-.11-.04-.16-.05-.16-.05-.32-.08-.48-.12-.42-.11-.85-.22-1.27-.32-.11-.02-.21-.05-.32-.07-.16-.03-.32-.05-.47-.08-.36-.07-.72-.13-1.08-.19-.14-.02-.28-.05-.41-.07-.15-.02-.3-.03-.45-.05-.33-.05-.67-.08-1.01-.12-.16-.02-.31-.04-.47-.05-.14-.01-.29-.01-.43-.02-.34-.02-.69-.04-1.04-.05-.16,0-.32-.03-.48-.03-.13,0-.25,0-.38,0-.38,0-.76,0-1.14,0-.17,0-.34,0-.51,0-.1,0-.2.02-.3.02-.46.02-.91.05-1.37.09-.18.01-.35.02-.52.04-.05,0-.11.02-.16.02-.76.08-1.51.18-2.25.32-.04,0-.08,0-.12.01-.24.04-.46.1-.7.15-.34.07-.69.13-1.02.22-.28.07-.56.15-.84.23-.32.09-.64.17-.96.27-.08.03-.16.04-.23.07-.13.04-.25.1-.38.14-.52.18-1.02.37-1.52.57-.2.08-.4.17-.6.26-.64.29-1.27.6-1.86.94-.08.05-.16.09-.24.14-.18.11-.35.23-.52.35-.24.16-.48.31-.7.47-.2.14-.37.29-.56.43-.21.17-.43.34-.62.52-.04.03-.08.06-.12.1-.07.07-.13.14-.2.21-.31.3-.59.6-.85.91-.06.07-.13.13-.18.2-.05.07-.08.13-.14.2-.17.23-.32.46-.47.69-.06.1-.14.19-.2.29-.03.05-.04.1-.07.15-.11.2-.2.41-.29.62-.05.12-.12.24-.17.36-.02.04-.02.08-.04.12-.07.2-.12.39-.17.59-.04.14-.09.27-.11.41,0,.04,0,.07-.01.1-.04.21-.05.41-.07.62-.01.14-.04.27-.05.41,0,.05,0,.12,0,.17l-.03,11.24c0-.2.03-.39.05-.59.02-.21.03-.41.07-.62.03-.17.08-.35.13-.52.05-.19.09-.38.16-.57.06-.17.14-.34.21-.5.09-.2.18-.41.28-.6.08-.15.18-.29.27-.44.14-.24.3-.46.47-.69.1-.13.21-.27.32-.4.26-.31.54-.61.85-.92.11-.1.2-.21.31-.3.2-.18.42-.35.63-.53.18-.14.35-.28.54-.42.23-.17.48-.33.73-.48.25-.16.48-.32.74-.48.59-.34,1.22-.65,1.87-.94.2-.09.39-.17.59-.25.5-.2,1.01-.4,1.53-.58.2-.08.39-.14.6-.21.33-.1.66-.19,1-.29.27-.07.53-.15.79-.21.35-.08.71-.15,1.07-.23.26-.06.52-.11.79-.16.74-.13,1.49-.23,2.25-.31.22-.02.45-.04.68-.06.46-.04.91-.07,1.37-.09.27-.01.54-.02.81-.03.38,0,.76,0,1.14,0,.28,0,.58.01.86.02.35.01.69.03,1.04.06.3.02.6.04.9.08.33.03.67.07,1,.11.29.04.58.08.87.12.37.05.72.12,1.08.19.26.05.53.1.79.16.43.1.85.2,1.28.31.21.05.43.11.64.17.73.21,1.45.45,2.14.72.1.04.18.08.28.12.94.38,1.85.81,2.7,1.29,3.92,2.26,5.88,5.23,5.87,8.19l.03-11.23c0-2.96-1.95-5.93-5.87-8.19Z"/>
      <polygon class="cls-42" points="94.8 82.09 94.77 93.32 94.21 86.49 94.24 75.26 94.8 82.09"/>
      <polygon class="cls-79" points="94.8 82.09 94.77 93.32 82.25 93.64 82.28 82.41 94.8 82.09"/>
      <polygon class="cls-74" points="173.04 82.34 173.01 93.57 160.48 93.89 160.51 82.66 173.04 82.34"/>
      <polygon class="cls-74" points="82.28 82.41 82.25 93.64 70.52 93.94 70.55 82.71 82.28 82.41"/>
      <polygon class="cls-23" points="70.55 82.71 70.52 93.94 69.96 87.1 69.99 75.87 70.55 82.71"/>
      <polygon class="cls-79" points="160.51 82.66 160.48 93.89 148.76 94.18 148.79 82.95 160.51 82.66"/>
      <polygon class="cls-42" points="148.79 82.95 148.76 94.18 148.22 87.35 148.25 76.11 148.79 82.95"/>
      <polygon class="cls-19" points="144.55 86.78 144.53 98.01 135.89 102.66 135.93 91.43 144.55 86.78"/>
      <polygon class="cls-61" points="108.12 91.96 108.09 103.19 99.71 98.34 99.74 87.11 108.12 91.96"/>
      <path class="cls-23" d="m160.15,83.7c-.25.66-.57,1.31-.92,1.96-.09.16-.18.32-.27.48-.12.2-.24.39-.36.59-.13.21-.27.41-.42.62-.13.19-.27.38-.42.57-.14.19-.29.37-.44.56-.21.26-.43.51-.66.77-.15.17-.3.33-.46.5-.25.26-.51.52-.77.77-.16.15-.31.31-.47.45-.49.45-1,.89-1.55,1.32l-.03,11.23c.55-.43,1.06-.87,1.55-1.32.05-.04.11-.09.15-.13.11-.1.21-.21.32-.32.26-.26.53-.51.77-.77.16-.17.31-.33.46-.5.23-.25.44-.51.66-.77.08-.09.17-.19.24-.28.07-.09.13-.18.2-.28.14-.19.28-.38.41-.57.15-.21.29-.42.42-.63.12-.19.24-.38.35-.57.06-.1.13-.21.19-.31.03-.06.05-.12.09-.18.35-.65.66-1.29.91-1.95.02-.04.04-.08.05-.11.12-.31.22-.62.31-.93l.03-11.23c-.11.35-.23.69-.37,1.04Z"/>
      <polygon class="cls-56" points="153.41 92.29 153.37 103.52 144.53 98.01 144.55 86.78 153.41 92.29"/>
      <path class="cls-23" d="m82.28,82.41l-.03,11.23c1.07,3.67,3.69,7.22,7.84,10.3l.03-11.23c-4.15-3.08-6.77-6.63-7.84-10.3Z"/>
      <polygon class="cls-20" points="99.74 87.11 99.71 98.34 90.09 103.94 90.12 92.71 99.74 87.11"/>
      <polygon class="cls-63" points="129.46 95.6 129.43 106.83 117.64 106.53 117.67 95.3 129.46 95.6"/>
      <polygon class="cls-56" points="145.07 97.13 145.03 108.36 135.89 102.66 135.93 91.43 145.07 97.13"/>
      <polygon class="cls-20" points="108.12 91.96 108.09 103.19 98.66 108.67 98.69 97.43 108.12 91.96"/>
      <polygon class="cls-84" points="129.46 95.6 129.43 106.83 129.04 112.42 129.08 101.19 129.46 95.6"/>
      <path class="cls-23" d="m145.07,97.13c-1.32.57-2.68,1.07-4.08,1.52-.85.28-1.71.52-2.58.76-.39.11-.77.24-1.16.33-1.29.32-2.61.61-3.94.85-1.39.25-2.8.45-4.22.61l-.03,11.23c1.42-.16,2.83-.37,4.22-.61.01,0,.03,0,.04,0,1.32-.24,2.62-.52,3.91-.84.39-.1.76-.22,1.14-.32.78-.21,1.56-.41,2.32-.66.1-.03.18-.07.28-.1,1.4-.46,2.77-.96,4.08-1.52l.03-11.23Z"/>
      <path class="cls-23" d="m113.05,101.06c-.27-.03-.54-.05-.81-.09-1.47-.2-2.93-.46-4.37-.76-.51-.11-1-.25-1.5-.37-.95-.23-1.89-.46-2.82-.73-1-.29-1.95-.64-2.91-.98-.65-.23-1.32-.44-1.96-.69l-.03,11.23c.17.07.34.14.51.21.44.17.92.3,1.37.46.98.35,1.96.7,2.97,1,.15.04.29.1.44.15.79.23,1.6.4,2.41.59.49.12.98.26,1.48.36.09.02.18.05.27.07,1.29.27,2.6.49,3.92.68.06,0,.12,0,.18.02.27.03.54.06.81.09.95.12,1.89.24,2.86.32.44.04.89.07,1.33.1l.03-11.24c-1.41-.08-2.8-.24-4.19-.41Z"/>
      <polygon class="cls-84" points="117.67 95.3 117.64 106.53 117.21 112.71 117.24 101.47 117.67 95.3"/>
      <polygon class="cls-23" points="161.12 97.1 161.09 108.33 152.45 112.97 152.48 101.74 161.12 97.1"/>
      <polygon class="cls-74" points="152.48 101.74 152.45 112.97 145.03 108.36 145.07 97.13 152.48 101.74"/>
      <polygon class="cls-74" points="98.69 97.43 98.66 108.67 90.97 113.13 91 101.91 98.69 97.43"/>
      <polygon class="cls-23" points="91 101.91 90.97 113.13 82.59 108.3 82.62 97.06 91 101.91"/>
      <path class="cls-36" d="m160.52,82.66l-11.72.29,11.72-.29,12.53-.32-.54-6.84-11.7.3c-.8-3.67-3.12-7.26-6.97-10.41l8.57-4.98-8.38-4.84-8.37,4.86c-5.68-2.55-12.28-4.09-19.07-4.61l.54-7.8-11.8-.29-.57,8.19c-6.03.58-11.87,1.97-16.99,4.16l-7.4-4.61-8.63,4.65,7.7,4.79c-4.07,3.2-6.53,6.87-7.37,10.64l-12.06.3.57,6.84,11.72-.3c1.07,3.67,3.69,7.22,7.84,10.3l-7.49,4.36,8.38,4.84,7.69-4.47c5.62,2.28,12.01,3.63,18.55,4.04l-.54,7.88,11.79.3.59-8.45.39-5.6-11.79-.3,11.79.3-.39,5.6c5.67-.63,11.15-1.99,15.99-4.07l7.42,4.62,8.64-4.64-7.72-4.81c3.71-2.91,6.08-6.21,7.11-9.63Zm-53.09,4.08c-7.78-4.49-7.82-11.76-.09-16.25,7.73-4.49,20.28-4.49,28.06,0,7.78,4.5,7.83,11.77.11,16.26-7.73,4.49-20.29,4.49-28.07,0Z"/>
      <polygon class="cls-23" points="128.49 109.64 128.46 120.87 116.67 120.58 116.7 109.35 128.49 109.64"/>
      <polygon class="cls-74" points="129.08 101.19 129.04 112.42 128.46 120.87 128.49 109.64 129.08 101.19"/>
    </g>
    <g>
      <polygon class="cls-84" points="76.17 95.09 76.14 106.33 75.6 114.12 75.63 102.89 76.17 95.09"/>
      <polygon class="cls-84" points="63.8 103 63.77 114.23 63.36 120.08 63.39 108.85 63.8 103"/>
      <polygon class="cls-84" points="75.63 102.89 75.6 114.12 75.17 120.37 75.19 109.14 75.63 102.89"/>
      <polygon class="cls-63" points="75.19 109.14 75.17 120.37 63.36 120.08 63.39 108.85 75.19 109.14"/>
      <polygon class="cls-74" points="38.47 112 38.44 123.23 30.75 118.43 30.78 107.21 38.47 112"/>
      <polygon class="cls-74" points="111.45 107.48 111.42 118.71 102.85 123.69 102.88 112.46 111.45 107.48"/>
      <polygon class="cls-20" points="94.7 107.5 94.66 118.74 85.93 123.81 85.96 112.58 94.7 107.5"/>
      <polygon class="cls-56" points="55.96 112.86 55.93 124.09 46.78 118.39 46.81 107.16 55.96 112.86"/>
      <polygon class="cls-61" points="94.34 117.42 94.31 128.65 85.93 123.81 85.96 112.58 94.34 117.42"/>
      <polygon class="cls-20" points="102.88 112.46 102.85 123.69 94.31 128.65 94.34 117.42 102.88 112.46"/>
      <polygon class="cls-56" points="47.33 117.52 47.3 128.75 38.44 123.23 38.47 112 47.33 117.52"/>
      <polygon class="cls-19" points="55.96 112.86 55.93 124.09 47.3 128.75 47.33 117.52 55.96 112.86"/>
      <polygon class="cls-79" points="43.29 122.33 43.26 133.55 31.07 133.86 31.1 122.63 43.29 122.33"/>
      <polygon class="cls-79" points="109.85 122.87 109.82 134.1 97.28 134.41 97.31 123.18 109.85 122.87"/>
      <path class="cls-23" d="m84.45,117.55c-.84-.49-1.75-.91-2.69-1.29-.06-.03-.11-.06-.17-.08-.03-.01-.07-.02-.1-.03-.69-.27-1.41-.51-2.14-.72-.06-.02-.11-.04-.16-.06-.16-.05-.32-.07-.48-.12-.42-.11-.85-.22-1.28-.32-.11-.02-.21-.05-.32-.08-.16-.03-.32-.05-.47-.08-.36-.07-.72-.13-1.08-.19-.14-.02-.27-.05-.41-.07-.15-.02-.31-.03-.45-.05-.33-.04-.67-.08-1.01-.11-.16-.01-.31-.04-.47-.05-.14-.01-.29-.01-.43-.02-.35-.02-.69-.04-1.04-.06-.16,0-.32-.02-.48-.02-.13,0-.26,0-.38,0-.38,0-.76,0-1.14,0-.17,0-.34,0-.51,0-.1,0-.2.01-.3.02-.46.02-.92.05-1.37.09-.18.02-.35.02-.52.04-.05,0-.11.02-.16.02-.76.08-1.51.18-2.25.32-.04,0-.08,0-.12.01-.24.04-.47.1-.7.15-.34.07-.69.13-1.02.22-.29.07-.56.15-.85.23-.32.09-.64.17-.96.27-.07.03-.16.04-.23.07-.13.04-.25.1-.37.14-.52.18-1.02.37-1.52.58-.2.08-.4.16-.6.25-.64.29-1.27.6-1.86.94-.08.04-.16.09-.24.14-.19.11-.35.23-.52.34-.24.16-.48.31-.7.47-.2.14-.37.29-.55.44-.21.17-.43.34-.62.51-.04.03-.08.07-.12.1-.07.07-.13.15-.2.21-.31.3-.59.6-.85.91-.06.07-.13.13-.18.2-.05.07-.08.14-.13.2-.17.23-.33.46-.47.69-.06.1-.14.19-.2.29-.03.05-.04.1-.07.15-.11.21-.2.41-.29.62-.05.12-.12.24-.17.36-.02.04-.02.08-.03.12-.07.2-.12.4-.17.59-.03.14-.09.27-.12.4,0,.04,0,.07-.01.11-.04.21-.05.41-.07.62-.01.13-.04.27-.05.41,0,.06,0,.12,0,.17l-.03,11.23c0-.19.03-.39.05-.59.02-.2.03-.41.07-.61.03-.18.08-.35.13-.52.05-.19.1-.39.17-.58.06-.16.14-.33.21-.5.09-.2.18-.4.28-.61.08-.15.18-.29.27-.44.14-.23.3-.46.47-.69.1-.14.21-.27.32-.4.26-.31.54-.62.85-.92.1-.1.2-.2.31-.31.2-.18.41-.35.63-.52.18-.14.35-.29.54-.42.23-.17.48-.33.73-.49.25-.16.48-.32.74-.48.59-.35,1.22-.65,1.86-.94.19-.09.39-.17.59-.25.5-.21,1-.4,1.53-.58.2-.07.4-.14.6-.21.33-.1.66-.2,1-.28.27-.07.52-.15.79-.21.35-.08.71-.15,1.07-.23.26-.05.52-.12.79-.16.74-.13,1.49-.23,2.25-.31.22-.03.45-.04.68-.06.46-.04.92-.07,1.38-.09.27-.01.54-.02.81-.02.38,0,.76-.01,1.14,0,.29,0,.58.01.86.02.35.01.69.03,1.04.06.3.02.6.05.9.07.34.03.67.07,1.01.11.29.04.58.07.87.12.36.06.72.12,1.08.19.26.06.53.11.79.16.43.09.86.2,1.28.31.21.06.43.11.64.17.73.21,1.45.45,2.14.72.1.04.19.08.28.12.94.38,1.85.8,2.7,1.29,3.92,2.26,5.88,5.23,5.87,8.19l.03-11.23c0-2.97-1.95-5.93-5.87-8.19Z"/>
      <polygon class="cls-42" points="43.86 129.16 43.82 140.39 43.26 133.55 43.29 122.33 43.86 129.16"/>
      <polygon class="cls-79" points="43.86 129.16 43.82 140.39 31.3 140.71 31.33 129.47 43.86 129.16"/>
      <polygon class="cls-74" points="122.09 129.4 122.06 140.63 109.54 140.95 109.57 129.72 122.09 129.4"/>
      <polygon class="cls-74" points="31.33 129.47 31.3 140.71 19.57 141 19.61 129.77 31.33 129.47"/>
      <polygon class="cls-23" points="19.61 129.77 19.57 141 19.01 134.17 19.04 122.93 19.61 129.77"/>
      <polygon class="cls-79" points="109.57 129.72 109.54 140.95 97.82 141.25 97.85 130.02 109.57 129.72"/>
      <polygon class="cls-42" points="97.85 130.02 97.82 141.25 97.28 134.41 97.31 123.18 97.85 130.02"/>
      <polygon class="cls-19" points="93.61 133.85 93.58 145.08 84.95 149.73 84.98 138.5 93.61 133.85"/>
      <polygon class="cls-61" points="57.18 139.02 57.14 150.25 48.76 145.41 48.79 134.18 57.18 139.02"/>
      <path class="cls-23" d="m109.2,130.76c-.26.66-.57,1.31-.92,1.97-.09.16-.18.32-.27.48-.12.2-.24.39-.36.59-.13.2-.27.41-.42.62-.14.19-.28.38-.42.58-.14.19-.29.37-.44.56-.21.25-.43.52-.66.77-.15.17-.3.33-.46.5-.25.26-.51.52-.77.77-.16.15-.31.3-.47.45-.49.45-1,.88-1.55,1.32l-.03,11.23c.55-.43,1.06-.87,1.55-1.32.05-.04.1-.09.16-.13.11-.1.21-.21.32-.32.27-.25.53-.51.77-.77.16-.16.31-.33.46-.5.23-.25.45-.51.66-.77.08-.09.17-.19.24-.28.07-.09.13-.19.2-.28.14-.19.28-.38.42-.57.14-.21.29-.42.42-.63.12-.19.24-.39.36-.58.06-.1.13-.21.19-.31.03-.06.05-.12.09-.18.35-.65.66-1.3.91-1.96.02-.04.04-.08.06-.12.11-.31.22-.62.31-.93l.03-11.23c-.11.35-.24.7-.37,1.04Z"/>
      <polygon class="cls-56" points="102.46 139.36 102.43 150.59 93.58 145.08 93.61 133.85 102.46 139.36"/>
      <path class="cls-23" d="m31.33,129.47l-.03,11.23c1.08,3.67,3.69,7.22,7.84,10.3l.03-11.23c-4.15-3.08-6.76-6.63-7.84-10.3Z"/>
      <polygon class="cls-20" points="48.79 134.18 48.76 145.41 39.14 151 39.17 139.77 48.79 134.18"/>
      <polygon class="cls-63" points="78.52 142.66 78.49 153.9 66.69 153.59 66.73 142.36 78.52 142.66"/>
      <polygon class="cls-56" points="94.12 144.19 94.09 155.42 84.95 149.73 84.98 138.5 94.12 144.19"/>
      <polygon class="cls-20" points="57.18 139.02 57.14 150.25 47.72 155.73 47.75 144.49 57.18 139.02"/>
      <polygon class="cls-84" points="78.52 142.66 78.48 153.9 78.1 159.49 78.13 148.26 78.52 142.66"/>
      <path class="cls-23" d="m94.12,144.19c-1.32.57-2.69,1.07-4.09,1.52-.84.28-1.71.52-2.58.75-.39.11-.77.23-1.16.33-1.29.33-2.61.61-3.94.85-1.39.25-2.8.45-4.22.61l-.03,11.23c1.42-.16,2.83-.37,4.22-.61.01,0,.03,0,.04,0,1.32-.24,2.62-.52,3.91-.84.39-.1.76-.21,1.14-.32.78-.21,1.56-.41,2.32-.66.1-.03.18-.07.28-.1,1.4-.46,2.77-.96,4.08-1.52l.03-11.23Z"/>
      <path class="cls-23" d="m62.11,148.12c-.27-.03-.54-.05-.81-.09-1.47-.2-2.93-.46-4.37-.76-.51-.11-.99-.25-1.5-.37-.95-.22-1.89-.46-2.82-.73-1-.29-1.95-.64-2.91-.98-.65-.23-1.32-.43-1.96-.69l-.03,11.23c.17.07.34.14.51.21.44.17.92.3,1.38.46.97.35,1.95.7,2.97,1,.15.05.29.11.44.15.79.22,1.6.4,2.4.59.49.12.98.26,1.48.36.09.02.18.04.27.06,1.29.27,2.59.5,3.92.68.06,0,.12,0,.18.02.27.04.54.06.81.09.95.12,1.9.24,2.86.32.44.04.89.07,1.33.1l.03-11.23c-1.41-.09-2.8-.24-4.19-.41Z"/>
      <polygon class="cls-84" points="66.73 142.36 66.69 153.59 66.27 159.77 66.3 148.54 66.73 142.36"/>
      <polygon class="cls-23" points="110.18 144.16 110.15 155.39 101.5 160.04 101.54 148.81 110.18 144.16"/>
      <polygon class="cls-74" points="101.54 148.81 101.5 160.04 94.09 155.42 94.12 144.19 101.54 148.81"/>
      <polygon class="cls-74" points="47.75 144.49 47.72 155.73 40.03 160.2 40.06 148.97 47.75 144.49"/>
      <polygon class="cls-23" points="40.06 148.97 40.03 160.2 31.64 155.36 31.68 144.13 40.06 148.97"/>
      <path class="cls-36" d="m109.57,129.72l-11.72.3,11.72-.3,12.52-.32-.54-6.83-11.71.29c-.8-3.67-3.12-7.25-6.97-10.41l8.57-4.98-8.38-4.84-8.37,4.86c-5.69-2.55-12.28-4.09-19.07-4.62l.54-7.79-11.8-.29-.57,8.19c-6.03.58-11.86,1.97-16.99,4.16l-7.4-4.61-8.63,4.65,7.69,4.79c-4.07,3.2-6.53,6.87-7.37,10.64l-12.06.3.56,6.83,11.73-.29c1.08,3.67,3.69,7.22,7.84,10.3l-7.49,4.35,8.38,4.84,7.69-4.47c5.62,2.29,12.01,3.63,18.55,4.04l-.55,7.88,11.79.3.59-8.45.39-5.6-11.79-.3,11.79.3-.39,5.6c5.67-.64,11.15-1.99,16-4.07l7.41,4.62,8.64-4.64-7.72-4.81c3.71-2.91,6.08-6.21,7.11-9.64Zm-53.09,4.08c-7.78-4.49-7.82-11.76-.09-16.25,7.73-4.49,20.28-4.49,28.06,0,7.78,4.49,7.83,11.77.11,16.26-7.73,4.5-20.29,4.49-28.07,0Z"/>
      <polygon class="cls-23" points="77.54 156.71 77.51 167.94 65.72 167.64 65.75 156.41 77.54 156.71"/>
      <polygon class="cls-74" points="78.13 148.26 78.1 159.49 77.51 167.94 77.54 156.71 78.13 148.26"/>
    </g>
    <g>
      <path class="cls-59" d="m135.16,135.38s-1.27,2.62.63,3.44c1.9.81,1.9-.46,5.43,2.44,3.53,2.89,6.64,1.6,7.22,1.09.96-.86.41-3.33-7.43-7.3l-5.85.34Z"/>
      <path class="cls-50" d="m135.79,138.82c1.9.81,1.9-.46,5.43,2.44,3.52,2.89,6.71,1.68,7.22,1.09.06-.07.26-.21.27-.38-3.3,1.17-5.23-.45-6.68-1.57-1.49-1.14-2.75-1.6-5-2.09-2.26-.48-1.44-2.23-1.44-2.23-.14-.13-.37-.2-.62-.22-.26.8-.57,2.35.82,2.95Z"/>
      <path class="cls-59" d="m146.22,127.56s-1.26,2.62.63,3.43c1.9.81,1.9-.45,5.43,2.44,3.53,2.9,6.71,1.67,7.22,1.09.38-.43.42-3.33-7.43-7.3l-5.85.33Z"/>
      <path class="cls-50" d="m146.86,131c1.9.81,1.9-.45,5.43,2.44,3.53,2.9,6.71,1.67,7.22,1.09.06-.07.1-.19.11-.36-3.29,1.17-5.08-.47-6.53-1.59-1.49-1.14-2.75-1.6-5.01-2.09-2.26-.49-1.43-2.23-1.43-2.23-.15-.13-.37-.2-.62-.21-.26.8-.56,2.35.82,2.95Z"/>
      <path class="cls-41" d="m129.55,93.09s3.74-.56,5.81-2.74c0,0,14.28,9.91,15.47,13.1,1.13,3.04,2.77,17.89,2.67,24.28-.03,2.04-7.68,3.53-8.14.61-.82-5.27-1.46-20.05-1.46-20.05,0,0-17.01-6.08-14.34-15.19Z"/>
      <path class="cls-82" d="m117.02,92.11s-2.05,7.17,3.18,11.18c5.23,4.01,14.46,9.6,14.46,9.6,0,0-.5,4.88-.32,13.19.17,7.57.03,7.37.32,10.02.23,1.91,7.66,2.54,8.02-.82.73-6.88.55-24.35-.9-27.51-1.46-3.16-11.6-10.19-11.6-10.19l1.61-4.93s-9.54,2.37-14.76-.54Z"/>
      <path class="cls-62" d="m117.02,92.11s-2.05,7.17,3.18,11.18c5.23,4.01,14.46,9.6,14.46,9.6,0,0-.5,4.88-.32,13.19.17,7.57.03,7.37.32,10.02.23,1.91,7.66,2.54,8.02-.82.73-6.88.55-24.35-.9-27.51-1.46-3.16-11.6-10.19-11.6-10.19l1.61-4.93s-9.54,2.37-14.76-.54Z"/>
      <g>
        <path class="cls-12" d="m150.02,77.51s.77-.58,2.51-.78c1.75-.2,2.2.23,3.22.62,1.02.39,1.74.79,1.54,1.29-.2.51-2.5,1.35-3.9,1.01-.86-.22-3.01.97-3.51.97s-.4-2.83.13-3.11Z"/>
        <path class="cls-8" d="m149.89,80.62c.5,0,2.65-1.19,3.51-.97,1,.24,2.46-.13,3.29-.54-.01-.02-.02-.05-.03-.07-.21-.28-.95-.08-1.42-.2-.47-.12-1.92-.03-2.85-.19-.93-.16-2.65.89-2.65.89l-.16.1c.02.55.12.98.31.98Z"/>
        <path class="cls-40" d="m128.69,62.54s2.8-3.6,5.57.39c1.8,2.59,4.83,12.92,5.99,13.79.57.43,10.14.08,10.14.08,0,0-1.43,1.41.44,4.14,0,0-12.46,3.97-14.51,1.41-3.51-4.39-9.39-15.47-7.63-19.82Z"/>
      </g>
      <path class="cls-11" d="m133.81,83.55c-.03-.33-.08-.74-.09-1.24,0-.01,0-.03,0-.04-.05-1.51-.19-3,1.49-6.66,1.14-2.48,1.2-6.03.44-8.38-.35-3.74-2.26-6.23-3.26-6.99-1.52-1.14-14.92,4.44-15.29,4.7-4.95,3.55,1.78,10.4,0,22.33-.94,6.28-.51,6.63-.51,6.63,9.24,4.53,19.3-3.29,19.3-3.29,0,0-.23-.32-.54-.94-.48-1.56-1.4-4.66-1.53-6.12Z"/>
      <path class="cls-58" d="m133.81,83.55c-.03-.33-.08-.74-.09-1.24,0-.01,0-.03,0-.04-.05-1.51-.19-3,1.49-6.66,1.14-2.48,1.2-6.03.44-8.38-.35-3.74-2.26-6.23-3.26-6.99-1.52-1.14-14.92,4.44-15.29,4.7-4.95,3.55,1.78,10.4,0,22.33-.94,6.28-.51,6.63-.51,6.63,9.24,4.53,19.3-3.29,19.3-3.29,0,0-.23-.32-.54-.94-.48-1.56-1.4-4.66-1.53-6.12Z"/>
      <g>
        <path class="cls-7" d="m129.44,58.73s-.72,3.25,0,4.98c.72,1.72-1.9,2.27-3.14,1.84-1.24-.43-3.2-1.29-2.94-2.4.26-1.1,1.37-4.72.65-6.02-.72-1.29,5.42,1.59,5.42,1.59Z"/>
        <path class="cls-12" d="m123.13,48.68s-3.74,3.71-2.73,7.61c.56,2.16,3.05,3.57,4.46,4.67,1.41,1.11,4.97,3.62,6.44,1.04,1.47-2.58,3.19-10.02,0-13.33-3.19-3.31-8.17,0-8.17,0Z"/>
        <path class="cls-68" d="m131.3,50.29s-.44,2.58-5.34,3.33c-1.4.21-1.14,4.46-2.24,3.39-.41-.41-1.5-1.22-1.63-.6-.62,2.92,3.59,3.8,2.91,5.72-1.06,2.98-9.5,7.08-6.56-10.2.69-4.06,3.19-6.96,9.05-6.48,4.59.37,6.55,4.36,4.9,4.9-.26.09-.1-.17-1.08-.06Z"/>
      </g>
      <g>
        <path class="cls-12" d="m127.08,89.74s1-.11,2.65.66c1.65.76,1.82,1.39,2.51,2.29.69.89,1.12,1.63.67,1.98-.45.34-2.95-.14-3.99-1.19-.66-.65-3.2-.75-3.63-1.02-.44-.27,1.17-2.74,1.79-2.71Z"/>
        <path class="cls-8" d="m125.29,92.46c.44.27,2.98.37,3.63,1.02.75.75,2.25,1.21,3.2,1.29,0-.03.01-.05,0-.08-.03-.37-.8-.59-1.15-.95-.35-.36-1.68-1.06-2.42-1.7-.74-.65-2.82-.64-2.82-.64h-.21c-.27.51-.42.96-.25,1.06Z"/>
        <path class="cls-40" d="m117.35,64.82c.92-.51,2.86-.94,3.29,2.33.42,3.27-3.01,15.28-2.46,16.69.27.69,9.6,5.48,9.6,5.48,0,0-2.03.49-1.83,3.94,0,0-13.17-3.17-13.6-6.57-.75-5.82.73-19.51,5.01-21.86Z"/>
      </g>
      <path class="cls-41" d="m134.66,136.11c-.3-2.65-.16-2.45-.32-10.02-.18-8.31.32-13.19.32-13.19,0,0-9.23-5.59-14.46-9.6-2.61-2-3.4-4.78-3.55-7.07,1.91,4.72,13.53,12.78,17.21,13.93,4.68,1.47,2.2,7.21,2.29,8.47.08,1.02-.28,13.66-.43,18.54-.6-.27-1.02-.63-1.07-1.05Z"/>
    </g>
    <g>
      <g class="cls-105">
        <polygon class="cls-81" points="171.92 46.05 172.02 80.89 153.59 91.54 153.49 56.69 171.92 46.05"/>
        <g class="cls-106">
          <polygon class="cls-81" points="206.55 37.47 206.59 50.02 177.43 66.85 177.4 54.3 206.55 37.47"/>
          <path class="cls-4" d="m149.79,54.75l59.31-34.25.12,42.16-59.31,34.25-.12-42.16Zm22.22,26.14l-.1-34.84-18.43,10.64.1,34.85,18.43-10.64h0Zm34.57-30.87l-.04-12.55-29.15,16.83.04,12.55,29.15-16.83h0Zm-.04-15.84l-.03-8.11-29.15,16.83.02,8.11,29.16-16.83h0Zm.07,26.74l-.02-7.84-29.16,16.83.03,7.84,29.15-16.83h0Z"/>
          <polygon class="cls-81" points="206.6 53.08 206.61 60.92 177.47 77.75 177.44 69.91 206.6 53.08"/>
          <polygon class="cls-81" points="206.51 26.07 206.54 34.18 177.38 51.01 177.37 42.91 206.51 26.07"/>
        </g>
        <polygon class="cls-81" points="209.09 16.32 209.11 20.51 149.79 54.75 149.78 50.57 209.09 16.32"/>
      </g>
      <g>
        <path class="cls-16" d="m152.81,50.55c.61-.35,1.11-.08,1.12.64,0,.7-.5,1.56-1.11,1.91-.61.35-1.11.07-1.11-.63,0-.71.49-1.56,1.11-1.92Z"/>
        <path class="cls-44" d="m155.61,48.94c.61-.36,1.11-.08,1.12.64,0,.7-.49,1.56-1.11,1.91-.61.35-1.11.07-1.11-.63,0-.71.49-1.56,1.1-1.92Z"/>
        <path class="cls-13" d="m158.42,47.32c.61-.35,1.11-.07,1.11.64,0,.7-.49,1.56-1.1,1.91-.62.36-1.11.07-1.11-.63,0-.71.49-1.56,1.11-1.91Z"/>
        <polygon class="cls-44" points="207.09 21.44 207.09 22.11 203.46 24.2 203.46 23.54 207.09 21.44"/>
        <polygon class="cls-44" points="207.08 20.17 207.08 20.83 203.46 22.93 203.45 22.26 207.08 20.17"/>
        <polygon class="cls-44" points="207.08 18.89 207.08 19.56 203.45 21.65 203.45 20.99 207.08 18.89"/>
        <path class="cls-23" d="m149.83,50.59l59.35-34.27.02,6.08-59.35,34.27-.02-6.08Zm5.8.9c.61-.35,1.11-1.21,1.11-1.91,0-.72-.5-.99-1.12-.64-.61.36-1.11,1.21-1.1,1.92,0,.7.5.99,1.11.63h0Zm-2.8,1.62c.62-.35,1.11-1.21,1.11-1.91,0-.71-.5-.99-1.12-.64-.61.35-1.11,1.21-1.11,1.92,0,.7.5.99,1.11.63h0Zm5.61-3.24c.61-.35,1.1-1.21,1.1-1.91,0-.71-.5-.99-1.11-.64-.62.35-1.11,1.21-1.11,1.91,0,.71.5,1,1.11.63h0Zm48.65-30.31v-.67l-3.62,2.1v.67l3.62-2.1h0Zm.01,2.55v-.67s-3.63,2.09-3.63,2.09v.67l3.63-2.09h0Zm0-1.28v-.66s-3.63,2.09-3.63,2.09v.67s3.63-2.09,3.63-2.09h0Z"/>
      </g>
    </g>
    <g>
      <g class="cls-105">
        <polygon class="cls-81" points="189.2 55.01 189.28 83.12 174.42 91.7 174.34 63.59 189.2 55.01"/>
        <g class="cls-106">
          <polygon class="cls-81" points="217.14 48.09 217.17 58.22 193.65 71.79 193.62 61.67 217.14 48.09"/>
          <path class="cls-4" d="m171.36,62.03l47.84-27.63.09,34.01-47.84,27.62-.09-34.01Zm17.93,21.09l-.08-28.11-14.86,8.58.08,28.11,14.86-8.58h0Zm27.88-24.9l-.03-10.12-23.52,13.57.03,10.13,23.51-13.58h0Zm-.04-12.78l-.02-6.54-23.51,13.58v6.54s23.53-13.58,23.53-13.58h0Zm.06,21.56v-6.32s-23.53,13.58-23.53,13.58l.02,6.33,23.51-13.58h0Z"/>
          <polygon class="cls-81" points="217.17 60.68 217.18 67 193.68 80.58 193.65 74.26 217.17 60.68"/>
          <polygon class="cls-81" points="217.1 38.9 217.13 45.44 193.61 59.02 193.59 52.48 217.1 38.9"/>
        </g>
        <polygon class="cls-81" points="219.19 31.03 219.2 34.4 171.36 62.03 171.35 58.66 219.19 31.03"/>
      </g>
      <g>
        <path class="cls-16" d="m173.79,58.64c.49-.28.9-.06.9.51,0,.57-.4,1.26-.89,1.55-.49.28-.9.05-.9-.51,0-.57.4-1.26.89-1.54Z"/>
        <path class="cls-44" d="m176.05,57.34c.5-.28.9-.06.9.51,0,.57-.4,1.26-.89,1.54-.49.29-.9.06-.9-.51,0-.57.4-1.26.89-1.55Z"/>
        <path class="cls-13" d="m178.32,56.03c.5-.28.89-.06.89.51,0,.57-.39,1.26-.89,1.55-.5.29-.89.05-.9-.51,0-.58.39-1.26.89-1.54Z"/>
        <polygon class="cls-44" points="217.57 35.16 217.57 35.7 214.64 37.39 214.64 36.85 217.57 35.16"/>
        <polygon class="cls-44" points="217.57 34.13 217.57 34.67 214.64 36.36 214.64 35.82 217.57 34.13"/>
        <polygon class="cls-44" points="217.56 33.1 217.56 33.64 214.64 35.33 214.64 34.79 217.56 33.1"/>
        <path class="cls-17" d="m171.38,58.67l47.87-27.64v4.91s-47.86,27.64-47.86,27.64v-4.91Zm4.67.73c.5-.28.89-.98.89-1.54,0-.57-.4-.8-.9-.51-.49.29-.89.97-.89,1.55,0,.57.41.8.9.51h0Zm-2.26,1.31c.49-.29.89-.98.89-1.55,0-.58-.41-.79-.9-.51-.49.28-.89.97-.89,1.54,0,.57.41.8.9.51h0Zm4.52-2.61c.5-.29.89-.98.89-1.55,0-.57-.4-.79-.89-.51-.5.28-.89.97-.89,1.54,0,.57.4.8.9.51h0Zm39.24-24.45v-.54s-2.93,1.69-2.93,1.69v.54l2.93-1.69h0Zm0,2.06v-.54s-2.93,1.69-2.93,1.69v.54s2.93-1.69,2.93-1.69h0Zm0-1.03v-.54l-2.93,1.69v.54l2.93-1.69h0Z"/>
      </g>
    </g>
    <g>
      <g>
        <path class="cls-10" d="m137.42,24.38l-2.45-1.42c-.44-.25-.72-.8-.72-1.58l2.45,1.42c0,.78.28,1.32.72,1.58Z"/>
        <g class="cls-6">
          <g class="cls-106">
            <path class="cls-10" d="m137.42,24.38l-2.45-1.42c-.44-.25-.72-.8-.72-1.58l2.45,1.42c0,.78.28,1.32.72,1.58h0Z"/>
          </g>
        </g>
      </g>
      <path class="cls-13" d="m151.33,3.17c0-1.57-1.12-2.19-2.47-1.41l-9.72,5.62c-1.36.78-2.46,2.69-2.46,4.26v.98s-.4.23-.4.23l.4.58v2.65s-.43,1.12-.43,1.12l.44.25.02,5.35c0,1.57,1.12,2.19,2.48,1.41l9.73-5.62c1.35-.78,2.46-2.68,2.46-4.25l-.03-11.17Z"/>
      <g>
        <path class="cls-10" d="m148.16.17l2.45,1.43c-.45-.26-1.07-.23-1.76.17l-2.45-1.42c.68-.4,1.31-.43,1.75-.17Z"/>
        <g class="cls-86">
          <g class="cls-106">
            <path class="cls-10" d="m148.85,1.76l-2.45-1.42c.12-.07.23-.12.35-.17l2.45,1.43c-.11.04-.23.1-.34.17h0Z"/>
            <path class="cls-10" d="m149.2,1.59l-2.45-1.43c.1-.04.19-.07.29-.1l2.45,1.42c-.1.02-.19.06-.29.1h0Z"/>
            <path class="cls-10" d="m149.49,1.49l-2.45-1.42c.08-.02.15-.04.22-.05l2.45,1.43c-.07,0-.14.02-.21.05h0Z"/>
            <path class="cls-10" d="m149.7,1.45l-2.45-1.43c.06,0,.12-.02.18-.02l2.45,1.43c-.06,0-.12.01-.18.02h0Z"/>
            <path class="cls-10" d="m149.89,1.43L147.44,0c.06,0,.11,0,.16,0l2.45,1.42c-.05,0-.11,0-.17,0h0Z"/>
            <path class="cls-10" d="m150.05,1.43L147.6,0c.05,0,.1,0,.15.02l2.46,1.43s-.1-.02-.15-.02h0Z"/>
            <path class="cls-10" d="m150.2,1.45l-2.46-1.43s.1.02.14.03l2.45,1.42s-.09-.02-.14-.03h0Z"/>
            <path class="cls-10" d="m150.34,1.48l-2.45-1.42s.09.02.13.04l2.45,1.42s-.08-.03-.13-.05h0Z"/>
            <path class="cls-10" d="m150.47,1.52l-2.45-1.42s.08.03.12.06l2.45,1.43s-.08-.04-.12-.06h0Z"/>
            <path class="cls-10" d="m150.59,1.59l-2.45-1.43s0,0,.01,0l2.45,1.43s-.01,0-.02,0h0Z"/>
          </g>
        </g>
      </g>
      <polygon class="cls-10" points="136.7 22.8 134.25 21.38 134.22 10.21 136.67 11.64 136.7 22.8"/>
      <polygon class="cls-10" points="139.13 7.38 136.67 5.96 146.4 .34 148.85 1.76 139.13 7.38"/>
      <g>
        <path class="cls-10" d="m136.67,11.64l-2.45-1.42c0-1.57,1.1-3.47,2.46-4.25l2.46,1.42c-1.36.78-2.46,2.69-2.46,4.26Z"/>
        <g class="cls-89">
          <g class="cls-106">
            <path class="cls-10" d="m136.67,11.64l-2.45-1.42c0-.16.01-.32.04-.48l2.45,1.42c-.02.16-.03.33-.03.48h0Z"/>
            <path class="cls-10" d="m136.7,11.15l-2.45-1.42c0-.12.03-.23.05-.34l2.45,1.43c-.03.11-.04.22-.06.34h0Z"/>
            <path class="cls-10" d="m136.76,10.81l-2.45-1.43c.02-.09.05-.19.07-.28l2.45,1.43c-.03.09-.05.19-.07.28h0Z"/>
            <path class="cls-10" d="m136.83,10.53l-2.45-1.43c.02-.08.05-.16.07-.25l2.46,1.43c-.03.08-.06.16-.08.25h0Z"/>
            <path class="cls-10" d="m136.91,10.28l-2.46-1.43c.03-.08.05-.16.08-.23l2.45,1.42c-.03.07-.06.15-.08.23h0Z"/>
            <path class="cls-10" d="m136.99,10.05l-2.45-1.42c.03-.08.06-.15.09-.22l2.45,1.42c-.04.07-.06.15-.09.22h0Z"/>
            <path class="cls-10" d="m137.08,9.83l-2.45-1.42c.03-.07.06-.14.1-.22l2.46,1.42c-.04.07-.07.14-.1.21h0Z"/>
            <path class="cls-10" d="m137.18,9.61l-2.46-1.42c.04-.07.07-.14.11-.21l2.45,1.42c-.04.07-.07.14-.1.21h0Z"/>
            <path class="cls-10" d="m137.28,9.4l-2.45-1.42c.04-.07.07-.14.11-.21l2.45,1.42c-.04.07-.08.14-.12.21h0Z"/>
            <path class="cls-10" d="m137.4,9.19l-2.45-1.42c.04-.07.09-.14.13-.21l2.45,1.42c-.05.07-.09.14-.13.21h0Z"/>
            <path class="cls-10" d="m137.53,8.99l-2.45-1.42c.05-.07.09-.14.15-.22l2.45,1.43c-.05.07-.1.14-.14.21h0Z"/>
            <path class="cls-10" d="m137.67,8.77l-2.45-1.43c.05-.08.11-.15.16-.22l2.45,1.42c-.06.07-.11.15-.16.22h0Z"/>
            <path class="cls-10" d="m137.83,8.55l-2.45-1.42c.07-.09.13-.16.2-.24l2.45,1.42c-.07.08-.14.16-.2.24h0Z"/>
            <path class="cls-10" d="m138.03,8.3l-2.45-1.42c.09-.1.18-.19.27-.29l2.46,1.43c-.1.09-.19.18-.27.28h0Z"/>
            <path class="cls-10" d="m138.31,8.02l-2.46-1.43c.26-.25.54-.47.82-.63l2.46,1.42c-.29.16-.57.38-.82.64h0Z"/>
          </g>
        </g>
      </g>
      <g>
        <polygon class="cls-9" points="142.62 12.07 142.63 13.03 139.74 16.16 139.74 16.18 142.64 15.96 142.64 16.94 138.81 17.11 138.81 16.31 142.62 12.07"/>
        <polygon class="cls-9" points="145.72 8.87 144.04 16.5 143.23 16.96 144.92 9.34 145.72 8.87"/>
        <polygon class="cls-9" points="146.2 10 150.02 9.81 150.03 10.65 146.21 14.88 146.21 13.9 149.16 10.74 149.16 10.72 146.2 10.97 146.2 10"/>
      </g>
    </g>
    <g>
      <path class="cls-16" d="m65.72,55.37c0-1.57-1.12-2.19-2.48-1.41l-9.73,5.62c-1.35.78-2.46,2.69-2.46,4.26v.98s-.4.23-.4.23l.4.58v2.65s-.42,1.12-.42,1.12l.43.25v5.34c.02,1.57,1.13,2.2,2.49,1.41l9.73-5.62c1.35-.78,2.46-2.69,2.46-4.26l-.03-11.16Z"/>
      <path class="cls-15" d="m63.78,53.73c.14-.04.28-.08.41-.09.01,0,.02,0,.03,0,.14-.01.28,0,.4.02,0,0,0,0,.01,0,.13.03.25.07.36.13l-2.45-1.42s0-.01-.01-.01c-.04-.02-.08-.04-.12-.06-.04-.01-.09-.03-.13-.05-.03,0-.06-.01-.1-.02,0,0,0,0-.01,0-.01,0-.02-.01-.03-.01-.05,0-.1-.01-.15-.02-.05,0-.11,0-.16,0-.02,0-.04,0-.05,0s-.03,0-.04,0c-.03,0-.06,0-.09,0-.07.01-.14.03-.21.05-.04,0-.07.02-.1.03-.03,0-.05.01-.08.03-.04.01-.07.02-.11.03-.11.05-.23.11-.34.17l-9.73,5.62c-.29.17-.56.38-.82.64-.04.04-.07.08-.11.12-.01.01-.03.03-.04.05-.04.04-.08.08-.11.12-.07.08-.13.16-.2.25-.05.07-.11.15-.16.22-.05.07-.1.15-.14.21-.04.07-.09.14-.13.21,0,0,0,0-.01.02h0c-.04.06-.07.12-.1.19-.04.07-.07.14-.11.21-.04.07-.06.14-.1.21-.03.08-.06.15-.09.22-.03.08-.06.16-.08.23-.01.04-.02.08-.04.12,0,0,0,.02,0,.03-.01.03-.02.07-.03.1-.03.1-.05.19-.07.29-.02.11-.04.22-.05.34-.02.17-.03.33-.03.49l.03,11.16c0,.78.28,1.32.72,1.58l2.45,1.43c-.44-.26-.72-.81-.72-1.58l-.03-11.16c0-.39.07-.8.19-1.21,0,0,0-.01,0-.01.12-.41.3-.82.52-1.19h0c.22-.38.48-.73.76-1.04.01-.02.03-.03.04-.04.29-.3.6-.57.93-.76l9.73-5.62c.16-.09.31-.15.46-.21.03-.01.06-.02.09-.03Z"/>
      <g>
        <path class="cls-9" d="m57,61.69c.76-.44,1.33-.6,1.59-.59l-.3,1.5c-.3.03-.71.13-1.22.43-1.16.67-2.05,1.99-2.05,3.64,0,1.48.77,1.97,2.07,1.22.44-.25.93-.64,1.21-.94l.22,1.17c-.27.31-.87.82-1.66,1.28-2.22,1.28-3.37.35-3.38-1.75,0-2.52,1.55-4.83,3.5-5.96Z"/>
        <polygon class="cls-9" points="62.16 60.39 62.16 62.78 64.17 61.63 64.17 62.66 62.17 63.82 62.17 66.23 61.24 66.78 61.23 64.36 59.23 65.51 59.23 64.48 61.23 63.32 61.22 60.93 62.16 60.39"/>
      </g>
    </g>
    <g class="cls-3">
      <path d="m274.56,170.76c-8.54,4.93-8.58,12.93-.1,17.86,8.48,4.93,22.29,4.93,30.83,0,8.54-4.93,8.58-12.93.1-17.86-8.49-4.93-22.29-4.93-30.83,0Z"/>
    </g>
    <g>
      <path class="cls-3" d="m139.63,162.09l5.6-3.26,90.5-52.59,1.55-.89c4.17-2.43,10.96-2.43,15.16,0l54.28,31.34c4.2,2.42,4.23,6.36.05,8.78l-1.55.9-90.5,52.59-5.6,3.25c-4.17,2.43-10.96,2.43-15.16,0l-54.28-31.34c-4.2-2.42-4.22-6.36-.05-8.78Z"/>
      <path class="cls-23" d="m142.9,159.06l-.02,9.26c-1.94-1.12-2.9-2.58-2.9-4.05l.03-9.26c0,1.47.96,2.93,2.9,4.05h0Z"/>
      <g class="cls-106">
        <g class="cls-88">
          <g class="cls-106">
            <path class="cls-29" d="m256.68,108.86l-.03,9.26c-.06-.04-.12-.06-.2-.09l.03-9.26c.07.02.14.06.2.1h0Z"/>
            <path class="cls-72" d="m256.48,108.76l-.03,9.26c-.06-.03-.11-.04-.17-.06l.03-9.26c.06.02.11.04.17.06h0Z"/>
            <path class="cls-47" d="m256.31,108.71l-.03,9.26s-.1-.03-.15-.04l.02-9.26c.06.01.11.03.15.04h0Z"/>
            <path class="cls-65" d="m256.16,108.67l-.02,9.26s-.09-.02-.14-.02l.03-9.26s.09.02.13.02h0Z"/>
            <path class="cls-69" d="m256.02,108.65l-.03,9.26s-.09-.01-.14-.02l.03-9.26s.09.01.14.02h0Z"/>
            <path class="cls-73" d="m255.88,108.63l-.03,9.26s-.09,0-.14,0l.03-9.26s.09,0,.14,0h0Z"/>
            <path class="cls-51" d="m255.75,108.62l-.03,9.26h-.14l.03-9.26h.14Z"/>
            <path class="cls-45" d="m255.6,108.62l-.03,9.26s-.1,0-.15.01l.02-9.26s.1,0,.16-.01h0Z"/>
            <path class="cls-43" d="m255.45,108.63l-.02,9.26c-.07,0-.12.01-.18.02l.03-9.26c.06-.02.12-.02.18-.03h0Z"/>
            <path class="cls-49" d="m255.27,108.66l-.03,9.26c-.09.02-.19.04-.27.06l.03-9.26c.08-.03.17-.05.26-.06h0Z"/>
            <path class="cls-55" d="m255,108.73l-.03,9.26c-.11.04-.21.08-.31.13,0,0-.01,0-.02.01l.03-9.26s0,0,.01,0c.09-.06.2-.1.32-.13h0Z"/>
            <path class="cls-49" d="m254.68,108.87l-.03,9.26c-.07.04-.13.09-.18.13l.03-9.26s.11-.09.18-.13h0Z"/>
            <path class="cls-43" d="m254.5,109l-.03,9.26s-.06.07-.08.1l.02-9.26s.06-.06.09-.09h0Z"/>
            <path class="cls-45" d="m254.41,109.09l-.02,9.26s-.04.06-.05.08l.02-9.26s.03-.06.05-.09h0Z"/>
            <path class="cls-51" d="m254.36,109.18l-.02,9.26s-.03.05-.04.08l.03-9.26s.03-.05.04-.08h0Z"/>
            <path class="cls-73" d="m254.31,109.26l-.03,9.26s-.02.05-.02.08l.03-9.26s.01-.05.02-.08h0Z"/>
            <path class="cls-69" d="m254.29,109.34l-.03,9.26s0,.05,0,.08l.03-9.26s0-.05,0-.08h0Z"/>
            <path class="cls-65" d="m254.28,109.42l-.03,9.26h0s.03-9.25.03-9.25h0Z"/>
          </g>
        </g>
      </g>
      <g class="cls-106">
        <g class="cls-87">
          <g class="cls-106">
            <path class="cls-30" d="m254.7,110.01l-.03,9.26c-.27-.16-.41-.37-.41-.58l.03-9.26c0,.21.14.42.41.58h0Z"/>
          </g>
        </g>
      </g>
      <polygon class="cls-71" points="279.27 121.9 279.24 131.16 256.65 118.12 256.68 108.86 279.27 121.9"/>
      <polygon class="cls-57" points="277.29 123.05 277.26 132.31 254.67 119.27 254.7 110.01 277.29 123.05"/>
      <g class="cls-106">
        <g class="cls-93">
          <g class="cls-106">
            <path class="cls-54" d="m279.68,122.48l-.03,9.26h0s.03-9.25.03-9.25h0Z"/>
            <path class="cls-21" d="m279.68,122.49l-.03,9.26s0,.06-.01.08l.03-9.26s0-.05,0-.08h0Z"/>
            <path class="cls-26" d="m279.67,122.57l-.03,9.26s-.01.05-.02.08l.02-9.26s.02-.06.02-.08h0Z"/>
            <path class="cls-53" d="m279.65,122.65l-.02,9.26s-.03.05-.05.08l.03-9.27s.03-.05.04-.08h0Z"/>
            <path class="cls-39" d="m279.61,122.73l-.03,9.27s-.03.06-.05.08l.03-9.26s.03-.06.05-.09h0Z"/>
            <path class="cls-38" d="m279.56,122.82l-.03,9.26s-.05.06-.09.09l.03-9.26s.07-.06.09-.09h0Z"/>
            <path class="cls-27" d="m279.47,122.91l-.03,9.26s-.11.09-.18.13l.02-9.26c.07-.04.13-.09.18-.13h0Z"/>
            <path class="cls-25" d="m279.28,123.04l-.02,9.26s-.01.01-.02.01c-.09.05-.19.1-.3.14l.03-9.27c.11-.04.22-.08.31-.13,0,0,0,0,0,0h0Z"/>
            <path class="cls-27" d="m278.96,123.18l-.03,9.27c-.09.02-.18.05-.27.06l.03-9.26c.1-.02.18-.04.27-.07h0Z"/>
            <path class="cls-38" d="m278.7,123.26l-.03,9.26c-.06,0-.12.02-.17.03l.02-9.26c.06,0,.12-.02.18-.02h0Z"/>
            <path class="cls-39" d="m278.52,123.28l-.02,9.26c-.05,0-.11,0-.16.01l.03-9.27c.05,0,.1,0,.15,0h0Z"/>
            <path class="cls-53" d="m278.37,123.29l-.03,9.27h-.14l.03-9.27h.14Z"/>
            <path class="cls-26" d="m278.22,123.29l-.03,9.27s-.09,0-.14-.01l.03-9.26s.09,0,.14,0h0Z"/>
            <path class="cls-21" d="m278.08,123.28l-.03,9.26s-.08,0-.13-.02l.03-9.25s.08.01.14.02h0Z"/>
            <path class="cls-54" d="m277.95,123.27l-.03,9.25s-.1,0-.14-.02l.03-9.26s.09.02.14.03h0Z"/>
            <path class="cls-28" d="m277.81,123.24l-.03,9.26s-.1-.02-.14-.04l.02-9.26s.1.03.15.03h0Z"/>
            <path class="cls-24" d="m277.66,123.21l-.02,9.26c-.06-.02-.12-.04-.17-.06l.02-9.26c.06.02.11.04.17.06h0Z"/>
            <path class="cls-30" d="m277.49,123.15l-.02,9.26c-.08-.03-.14-.06-.21-.1l.03-9.26c.06.04.13.07.2.1h0Z"/>
          </g>
        </g>
      </g>
      <path class="cls-37" d="m279.27,121.9c.54.32.54.83,0,1.15-.55.32-1.44.32-1.99,0l-22.59-13.04c-.55-.32-.55-.83-.01-1.15.55-.32,1.44-.32,1.99,0l22.59,13.04Z"/>
      <path class="cls-23" d="m298.65,131.99s0,.09,0,.15c0,.04,0,.09-.01.13,0,.05-.02.09-.03.14,0,.04-.02.09-.03.13,0,.05-.02.09-.03.14-.01.04-.03.09-.04.13-.02.05-.03.1-.05.15-.01.04-.03.09-.05.12-.01.05-.04.1-.06.15-.02.04-.04.08-.06.12-.02.05-.05.1-.07.15-.02.04-.04.08-.07.12-.03.06-.07.11-.11.17-.02.04-.04.07-.07.11-.05.06-.09.13-.14.19-.02.03-.04.06-.06.08-.08.1-.17.2-.26.29-.03.03-.05.05-.08.07-.07.08-.14.15-.22.23-.04.03-.07.06-.11.09-.05.04-.09.09-.14.13-.05.04-.09.07-.14.11-.05.04-.1.08-.15.12-.05.04-.1.08-.15.11-.05.04-.12.08-.17.11-.05.03-.1.07-.16.11-.05.04-.11.08-.17.11-.08.05-.15.1-.22.14l-1.42.82-.03,9.26,1.41-.82s.08-.04.12-.07c.03-.02.07-.04.1-.06.06-.04.12-.08.19-.11.05-.04.09-.07.15-.1.06-.04.12-.08.17-.12.05-.03.09-.07.14-.11.06-.04.11-.08.16-.12.04-.04.08-.07.13-.11.05-.04.1-.08.15-.13.02-.01.04-.03.06-.05.02-.01.03-.03.05-.04.08-.07.15-.15.22-.23.02-.02.05-.05.07-.07.09-.1.18-.2.26-.3,0,0,0,0,0,0,.02-.03.04-.05.05-.07.05-.06.09-.13.14-.19.02-.03.05-.07.07-.1.04-.06.07-.12.11-.18.01-.02.02-.03.03-.05.01-.02.02-.05.04-.07.03-.04.05-.1.08-.15.02-.03.04-.08.06-.12.02-.05.05-.1.07-.15,0-.02.02-.04.02-.07.01-.02.02-.04.02-.06.02-.05.03-.1.05-.14.02-.04.03-.09.04-.13.01-.05.03-.1.04-.15,0-.03.01-.05.02-.08,0-.02,0-.03,0-.06,0-.04.02-.09.03-.14,0-.04,0-.08.02-.13,0-.05,0-.09,0-.15,0-.03,0-.05,0-.08v-.09c0-3.09.01-6.17.03-9.26,0,.05,0,.11-.02.17Z"/>
      <path class="cls-36" d="m295.77,127.77c3.85,2.22,3.87,5.82.05,8.04l-1.42.82-63.6-36.72,1.42-.82c3.82-2.22,10.03-2.22,13.87,0l49.68,28.68Z"/>
      <path class="cls-60" d="m277.29,123.05c.55.32,1.44.32,1.99,0,.54-.32.54-.83,0-1.15l-22.59-13.04c-.55-.32-1.44-.32-1.99,0-.54.32-.54.83.01,1.15l22.59,13.04h0Z"/>
      <path class="cls-23" d="m277.29,123.05l-22.59-13.04c-.09-.05-.14-.11-.2-.17.06-.06.1-.12.19-.17.55-.32,1.44-.32,1.99,0l22.59,13.04c.08.05.13.11.2.17-.06.06-.11.12-.19.17-.55.32-1.44.32-1.99,0Z"/>
      <polygon class="cls-71" points="294.4 136.63 294.37 145.89 230.77 109.17 230.8 99.91 294.4 136.63"/>
      <polygon class="cls-57" points="211.58 184.76 211.56 194.02 147.96 157.3 147.98 148.04 211.58 184.76"/>
      <g class="cls-106">
        <g class="cls-92">
          <g class="cls-106">
            <path class="cls-29" d="m178.39,167.21l-.02,9.26c-.24-.13-.49-.26-.76-.37l.02-9.25c.28.1.53.23.77.36h0Z"/>
            <path class="cls-72" d="m177.62,166.85l-.02,9.25c-.21-.08-.42-.15-.65-.21l.02-9.26c.23.06.44.14.64.22h0Z"/>
            <path class="cls-47" d="m176.98,166.62l-.02,9.26c-.18-.05-.36-.1-.55-.14l.03-9.26c.19.04.37.08.54.13h0Z"/>
            <path class="cls-65" d="m176.44,166.49l-.03,9.26c-.18-.03-.35-.07-.53-.09l.02-9.26c.18.03.36.06.54.09h0Z"/>
            <path class="cls-69" d="m175.9,166.4l-.02,9.26c-.16-.02-.34-.04-.51-.06l.03-9.26c.17.01.34.03.51.06h0Z"/>
            <path class="cls-73" d="m175.39,166.34l-.03,9.26c-.17-.01-.35-.02-.52-.03l.03-9.27c.18.01.35.02.52.03h0Z"/>
            <path class="cls-51" d="m174.87,166.31l-.03,9.27c-.18-.01-.36-.01-.54,0l.03-9.27c.18,0,.36,0,.54,0h0Z"/>
          </g>
        </g>
      </g>
      <g class="cls-106">
        <g class="cls-90">
          <g class="cls-106">
            <path class="cls-51" d="m174.87,166.31l-.03,9.27c-.18-.01-.36-.01-.54,0l.03-9.27c.18,0,.36,0,.54,0h0Z"/>
            <path class="cls-45" d="m174.33,166.31l-.03,9.27c-.19,0-.39.02-.58.04l.03-9.26c.2-.02.39-.03.59-.04h0Z"/>
            <path class="cls-43" d="m173.74,166.35l-.03,9.26c-.23.02-.45.05-.67.09l.02-9.26c.22-.04.45-.07.67-.09h0Z"/>
            <path class="cls-49" d="m173.06,166.45l-.02,9.26c-.35.07-.69.15-1.01.25l.03-9.26c.32-.11.66-.19,1-.25h0Z"/>
            <path class="cls-55" d="m172.06,166.7l-.03,9.26c-.41.13-.81.31-1.16.51-.02.01-.05.03-.07.04l.03-9.26s.04-.03.06-.04c.36-.21.74-.38,1.16-.51h0Z"/>
            <path class="cls-49" d="m170.84,167.24l-.03,9.26c-.25.15-.48.32-.67.5l.03-9.26c.19-.18.41-.34.67-.5h0Z"/>
            <path class="cls-43" d="m170.17,167.74l-.03,9.26c-.12.11-.23.23-.32.35l.02-9.26c.1-.12.21-.24.33-.35h0Z"/>
            <path class="cls-45" d="m169.84,168.09l-.02,9.26c-.09.11-.16.21-.22.32l.03-9.26c.05-.1.13-.21.21-.32h0Z"/>
            <path class="cls-51" d="m169.63,168.41l-.03,9.26c-.05.09-.1.21-.15.3l.03-9.27c.04-.1.08-.2.14-.3h0Z"/>
            <path class="cls-73" d="m169.49,168.71l-.03,9.27c-.03.09-.06.19-.08.29l.02-9.26c.02-.1.05-.2.09-.3h0Z"/>
            <path class="cls-69" d="m169.4,169.01l-.02,9.26c-.02.1-.04.21-.04.3l.03-9.26c0-.1.01-.21.03-.31h0Z"/>
            <path class="cls-65" d="m169.37,169.31l-.03,9.26v.05l.03-9.27v-.05h0Z"/>
          </g>
        </g>
      </g>
      <g class="cls-106">
        <g class="cls-91">
          <g class="cls-106">
            <path class="cls-29" d="m179.96,169.39l-.03,9.26c0-.79-.52-1.58-1.56-2.18l.02-9.26c1.04.6,1.57,1.39,1.57,2.18h0Z"/>
          </g>
        </g>
      </g>
      <g class="cls-106">
        <g class="cls-94">
          <g class="cls-106">
            <path class="cls-54" d="m179.96,169.39l-.03,9.26v.04l.03-9.26v-.05h0Z"/>
            <path class="cls-21" d="m179.96,169.43l-.03,9.26c0,.1-.02.21-.04.31l.02-9.26c.02-.1.04-.2.04-.31h0Z"/>
            <path class="cls-26" d="m179.91,169.74l-.02,9.26c-.02.1-.05.2-.09.3l.03-9.26c.04-.1.07-.2.08-.3h0Z"/>
            <path class="cls-53" d="m179.83,170.04l-.03,9.26c-.04.1-.08.2-.14.29l.03-9.26c.06-.1.1-.2.14-.3h0Z"/>
            <path class="cls-39" d="m179.69,170.34l-.03,9.26c-.06.11-.13.22-.21.32l.02-9.26c.08-.1.15-.21.22-.32h0Z"/>
            <path class="cls-38" d="m179.48,170.66l-.02,9.26c-.1.12-.2.23-.33.35l.03-9.26c.12-.12.23-.23.32-.35h0Z"/>
            <path class="cls-27" d="m179.15,171.01l-.03,9.26c-.18.17-.41.34-.66.49l.02-9.26c.26-.15.48-.32.67-.5h0Z"/>
            <path class="cls-25" d="m178.48,171.5l-.02,9.26s-.05.03-.07.03c-.36.21-.75.38-1.16.51l.03-9.26c.41-.13.8-.3,1.16-.51.02-.02.05-.03.07-.04h0Z"/>
            <path class="cls-27" d="m177.26,172.05l-.03,9.26c-.32.11-.65.19-1,.25l.02-9.26c.35-.06.69-.14,1.01-.25h0Z"/>
            <path class="cls-38" d="m176.25,172.3l-.02,9.26c-.22.04-.45.07-.68.09l.03-9.26c.22-.02.45-.06.67-.1h0Z"/>
            <path class="cls-39" d="m175.58,172.4l-.03,9.26c-.19.02-.39.03-.59.04l.03-9.26c.19,0,.39-.02.59-.04h0Z"/>
            <path class="cls-53" d="m174.99,172.44l-.03,9.26c-.18.01-.36.01-.54,0l.03-9.26c.18,0,.36,0,.54,0h0Z"/>
            <path class="cls-26" d="m174.45,172.44l-.03,9.26c-.18,0-.35-.01-.53-.03l.03-9.26c.17.02.35.03.52.03h0Z"/>
            <path class="cls-21" d="m173.93,172.41l-.03,9.26c-.17-.01-.34-.04-.51-.06l.03-9.26c.17.02.34.04.52.06h0Z"/>
            <path class="cls-54" d="m173.41,172.35l-.03,9.26c-.17-.03-.35-.05-.52-.09l.02-9.26c.17.03.34.06.52.09h0Z"/>
            <path class="cls-28" d="m172.89,172.27l-.02,9.26c-.19-.04-.37-.09-.55-.14l.03-9.26c.18.05.36.1.55.14h0Z"/>
            <path class="cls-24" d="m172.33,172.13l-.03,9.26c-.22-.06-.43-.14-.64-.22l.03-9.26c.2.09.42.16.64.22h0Z"/>
            <path class="cls-30" d="m171.69,171.91l-.03,9.26c-.27-.1-.52-.23-.76-.37-1.05-.6-1.57-1.39-1.56-2.18l.03-9.27c0,.79.52,1.58,1.56,2.18.24.14.49.26.76.37h0Z"/>
          </g>
        </g>
      </g>
      <path class="cls-23" d="m178.39,167.21c2.07,1.2,2.09,3.14.02,4.34-2.06,1.2-5.41,1.2-7.48,0-2.08-1.2-2.09-3.14-.03-4.34,2.06-1.19,5.41-1.19,7.49,0Z"/>
      <path class="cls-23" d="m178.39,167.21c2.07,1.2,2.09,3.14.02,4.34-2.06,1.2-5.41,1.2-7.48,0-2.08-1.2-2.09-3.14-.03-4.34,2.06-1.19,5.41-1.19,7.49,0Z"/>
      <path class="cls-23" d="m178.39,167.21c2.07,1.2,2.09,3.14.02,4.34-2.06,1.2-5.41,1.2-7.48,0-2.08-1.2-2.09-3.14-.03-4.34,2.06-1.19,5.41-1.19,7.49,0Z"/>
      <path class="cls-60" d="m177.6,167.69c-1.97-1.13-5.08-1.17-7.16-.15.15-.11.29-.23.46-.33,2.06-1.19,5.41-1.19,7.49,0,2.07,1.2,2.09,3.14.02,4.34-.1.06-.22.1-.33.15,1.57-1.2,1.41-2.91-.49-4.01Z"/>
      <path class="cls-23" d="m170.11,167.69c.1-.06.22-.1.33-.15-1.56,1.2-1.41,2.92.49,4.01,1.97,1.14,5.08,1.18,7.15.15-.15.11-.29.23-.46.33-2.06,1.2-5.4,1.2-7.48,0-2.07-1.2-2.08-3.14-.02-4.34Z"/>
      <polygon class="cls-36" points="294.4 136.63 294.37 145.89 211.56 194.02 211.58 184.76 294.4 136.63"/>
      <polygon class="cls-9" points="294.4 136.63 211.58 184.76 147.98 148.04 230.8 99.91 294.4 136.63"/>
      <path class="cls-36" d="m142.86,151.02l5.12-2.98,63.6,36.72-5.13,2.98c-3.82,2.22-10.03,2.22-13.88,0l-49.68-28.68c-3.85-2.22-3.87-5.82-.04-8.04Zm35.53,16.19c-2.07-1.19-5.43-1.19-7.49,0-2.06,1.2-2.05,3.14.03,4.34,2.07,1.2,5.42,1.2,7.48,0,2.07-1.2,2.05-3.14-.02-4.34h0Z"/>
      <path class="cls-23" d="m140,155.01c0,1.47.96,2.93,2.9,4.05l49.68,28.68c.24.13.48.25.72.37.08.04.16.07.24.1.17.08.35.16.53.23.06.02.12.04.17.06.2.07.4.14.6.21.07.02.14.04.2.06.13.04.26.07.4.11.19.05.4.11.6.15.14.03.27.06.41.09.17.03.35.06.52.09.14.02.29.04.43.06.17.02.33.04.5.05.15.02.3.03.46.04.16.01.33.02.49.03.15,0,.3,0,.46,0,.18,0,.36,0,.53,0,.14,0,.29,0,.42,0,.22-.01.45-.03.67-.04.13-.02.26-.02.39-.03.07,0,.14-.02.2-.03.23-.03.45-.06.67-.09.06,0,.11-.02.16-.03.14-.02.27-.05.4-.08.18-.04.36-.08.54-.11.14-.03.26-.07.39-.11.17-.04.34-.09.5-.14.25-.08.48-.16.71-.24.03,0,.05-.03.08-.03.22-.09.43-.18.63-.27.06-.03.12-.05.19-.08.22-.11.44-.23.66-.34l5.13-2.98-.03,9.26-5.12,2.98c-.21.12-.43.24-.66.35-.06.03-.13.06-.19.09-.2.09-.41.18-.61.26-.03.02-.06.03-.09.04-.19.08-.39.14-.59.21-.04.02-.07.02-.11.03-.17.06-.34.1-.51.14-.13.04-.25.08-.38.11-.18.04-.35.07-.54.11-.1.02-.2.04-.31.07-.03,0-.06,0-.09.01-.05,0-.11.02-.17.02-.22.04-.45.07-.67.1-.07,0-.14.02-.2.02-.04,0-.08.01-.12.02-.09,0-.18,0-.26.01-.22.02-.44.04-.67.04-.05,0-.1,0-.16,0-.08,0-.17,0-.26,0-.19,0-.37,0-.55,0-.06,0-.13,0-.19,0-.08,0-.16,0-.24-.02-.17,0-.33-.01-.51-.03-.07,0-.14,0-.22,0-.08,0-.16-.02-.23-.03-.16-.02-.34-.04-.49-.06-.08,0-.15-.01-.22-.03-.07,0-.14-.03-.21-.03-.18-.03-.35-.06-.53-.09-.08-.02-.17-.02-.24-.04-.05,0-.11-.03-.16-.04-.21-.04-.41-.09-.6-.15-.09-.03-.18-.04-.26-.06-.05-.02-.09-.03-.14-.04-.07-.02-.13-.04-.2-.07-.2-.06-.4-.13-.59-.2-.06-.02-.11-.04-.17-.06-.03-.01-.05-.02-.08-.03-.15-.06-.3-.13-.44-.2-.09-.04-.17-.07-.25-.11-.24-.11-.49-.24-.72-.38l-49.68-28.68c-1.94-1.12-2.9-2.58-2.9-4.05.02-3.08.02-6.17.03-9.26Z"/>
      <path class="cls-5" d="m230.75,99.9l1.41-.83c3.82-2.22,10.03-2.22,13.87,0l49.68,28.68c.65.38,1.15.8,1.58,1.24l-153.41,21.38,4.05-2.35,82.82-48.13Z"/>
      <g class="cls-3">
        <polygon points="214.57 178.95 281.86 139.84 225.08 106.89 156.85 146.46 214.57 178.95"/>
      </g>
      <g>
        <path class="cls-23" d="m281.36,148.43s0-.02,0-.04c0-.01,0-.02,0-.04,0,0,0-.02,0-.04,0,0,0-.02,0-.03,0-.01,0-.02,0-.04,0,0,0-.02,0-.04,0-.02,0-.03,0-.04,0-.01,0-.02.01-.04,0-.01,0-.02,0-.03,0,0,0,0,0,0h0s0-.04.01-.04c0-.02.01-.03.01-.04,0-.02,0-.02.02-.04,0,0,0-.02.01-.03,0-.01,0-.02.02-.04,0,0,.01-.02.02-.04,0-.01,0-.02.02-.04.01-.02.02-.03.02-.04.01-.02.02-.04.03-.05h0s0-.02,0-.02c.02-.03.04-.06.06-.09.01-.02.03-.05.05-.07,0-.01.02-.03.03-.04,0-.01.02-.02.03-.04,0,0,.02-.02.03-.03,0-.01.02-.02.03-.03.01-.01.02-.02.03-.04.01,0,.02-.02.03-.03.01,0,.02-.02.04-.03,0,0,.02-.02.03-.03.01,0,.02-.02.04-.02,0-.01.02-.02.03-.03.01,0,.02-.02.03-.02.01,0,.03-.02.03-.03.01,0,.03,0,.03-.01,0,0,0,0,0,0l7.92-4.58s.02,0,.02,0c.01,0,.02,0,.03-.02.01,0,.02-.01.03-.02.01,0,.02,0,.03-.01,0,0,.02,0,.03,0,0,0,.02,0,.03,0,0,0,.02-.01.03-.01,0,0,.02,0,.03,0,.01,0,.02,0,.03,0,0,0,.01,0,.02,0h0s.03,0,.04,0c.01,0,.03,0,.04,0s.03,0,.04,0c.02,0,.03,0,.05.01.02.01.04.02.06.03l.79.46c-.07-.04-.15-.05-.24-.05h0c-.09,0-.19.04-.29.1l-7.92,4.57c-.1.06-.2.14-.29.23h0c-.09.1-.17.2-.23.32,0,0,0,0,0,0-.07.11-.12.24-.16.36h0c-.04.13-.06.25-.06.37s.02.21.06.3h0c.04.08.09.15.16.18l-.79-.46s-.09-.07-.13-.13c0-.01-.02-.03-.03-.05-.01-.02-.01-.03-.02-.04,0-.01,0-.02-.02-.04,0-.01,0-.03,0-.04,0-.01,0-.02,0-.03,0-.01,0-.03,0-.04,0-.01,0-.03,0-.04,0,0,0-.02,0-.04v-.03h0v-.04Z"/>
        <path class="cls-34" d="m282.89,147.64c-.41.24-.75.81-.74,1.29,0,.48.33.66.75.43l7.92-4.58c.41-.24.74-.81.74-1.29s-.33-.66-.75-.43l-7.92,4.57Z"/>
      </g>
      <g>
        <path class="cls-23" d="m270.05,154.81s0-.02,0-.03c0-.01,0-.03,0-.04,0-.01,0-.02,0-.04,0-.01,0-.02,0-.04,0-.02,0-.02,0-.04,0,0,0-.02,0-.04,0-.01,0-.02,0-.04,0-.01,0-.03.01-.04,0,0,0-.02,0-.03h0s0-.04.01-.05c0-.01.01-.03.01-.04,0,0,.01-.02.02-.03,0-.01,0-.03.01-.04,0-.01.01-.03.01-.04,0,0,.01-.02.02-.03,0-.01.01-.03.02-.04.01-.01.02-.03.02-.04,0-.01.02-.03.03-.05h0s0,0,0-.01c.02-.03.04-.06.05-.09.02-.03.04-.05.05-.07.01-.02.02-.03.03-.04,0-.02.02-.03.03-.03,0-.01.02-.03.03-.04.01-.01.02-.02.03-.03,0,0,.02-.02.03-.03,0-.01.02-.02.03-.03.01,0,.02-.02.04-.03,0,0,.02-.02.03-.03,0-.01.02-.02.03-.03.01,0,.02-.02.03-.02.01-.01.02-.02.03-.02.01,0,.02-.01.03-.02.01-.01.02-.02.03-.02,0,0,0,0,0,0l7.92-4.57s.02-.01.03-.01c0,0,.02,0,.03-.01,0,0,.02,0,.03-.02,0,0,.02,0,.03,0,.01,0,.02-.01.04-.02,0,0,.02,0,.03,0,.01,0,.02,0,.04,0,0,0,.02,0,.03,0,.01,0,.02,0,.03,0h.02s0,0,0,0h.08s.03,0,.04,0c.02,0,.04,0,.05.01.02.01.04.02.06.03l.78.45c-.07-.03-.15-.06-.24-.05h0c-.09.01-.19.04-.29.1l-7.92,4.57c-.1.06-.2.14-.29.24h0c-.09.09-.17.2-.23.32,0,0,0,0,0,0-.07.11-.12.23-.16.36h0c-.04.13-.05.25-.05.37,0,.12.02.22.05.3h0c.04.08.1.14.16.17l-.79-.45s-.09-.07-.13-.12c0-.02-.02-.04-.03-.05,0-.02-.01-.03-.02-.04,0-.01-.01-.03-.02-.04,0-.01,0-.03,0-.04,0-.01,0-.02-.01-.04,0-.01,0-.02,0-.03,0-.02,0-.03,0-.04v-.04s0-.02,0-.04h0v-.04Z"/>
        <path class="cls-34" d="m271.58,154.01c-.41.24-.75.82-.74,1.29,0,.47.34.67.75.43l7.92-4.57c.41-.24.74-.82.74-1.29,0-.48-.34-.67-.75-.43l-7.92,4.57Z"/>
      </g>
      <path class="cls-77" d="m172.4,180c.62.36,1.13,1.24,1.12,1.95,0,.72-.51,1.01-1.13.65l-11.98-6.92c-.63-.36-1.13-1.23-1.13-1.95,0-.72.51-1.01,1.14-.65l11.98,6.91Z"/>
      <path class="cls-77" d="m172.4,180c.62.36,1.13,1.24,1.12,1.95,0,.72-.51,1.01-1.13.65l-11.98-6.92c-.63-.36-1.13-1.23-1.13-1.95,0-.72.51-1.01,1.14-.65l11.98,6.91Z"/>
      <path class="cls-77" d="m172.4,180c.62.36,1.13,1.24,1.12,1.95,0,.72-.51,1.01-1.13.65l-11.98-6.92c-.63-.36-1.13-1.23-1.13-1.95,0-.72.51-1.01,1.14-.65l11.98,6.91Z"/>
      <path class="cls-76" d="m172.4,180c.62.36,1.13,1.24,1.12,1.95,0,.07-.02.1-.03.16,0,0,0,0-.01,0l-11.98-6.92c-.62-.36-1.12-1.23-1.12-1.95,0-.06.02-.1.03-.17,0,0,0,0,.01,0l11.98,6.91Z"/>
    </g>
    <g>
      <path class="cls-9" d="m228.04,40.89l-2.34,6.03,2.5,3.48-2.18,1.26-.76-1.3c-.31-.49-.52-.87-.75-1.29l-.03.02c-.16.65-.38,1.28-.64,2.09l-.69,2.14-2.16,1.24,2.4-6.25-2.33-3.38,2.16-1.25.74,1.33c.24.44.43.8.63,1.23.22-.74.38-1.25.59-1.93l.7-2.16,2.14-1.24Z"/>
      <path class="cls-9" d="m237.99,35.15l.49,9.32-1.85,1.06-.13-3.6c-.04-1.13-.08-2.5-.08-3.9l-.04.02c-.25,1.38-.6,2.94-.92,4.25l-1.01,4.33-1.47.84-.9-3.2c-.28-.96-.57-2.16-.76-3.3h-.03c-.04,1.33-.08,2.84-.14,4.07l-.14,3.72-1.75,1.01.5-9.89,2.52-1.45.83,2.73c.26.95.53,1.99.71,3.02l.04-.03c.23-1.24.51-2.68.78-3.9l.89-3.7,2.46-1.42Z"/>
      <polygon class="cls-9" points="242.06 32.8 242.08 40.56 245.39 38.65 245.39 40.47 240.19 43.48 240.16 33.9 242.06 32.8"/>
    </g>
    <g>
      <path class="cls-9" d="m211.52,85.05c.59-.34,1.03-.46,1.23-.46l-.23,1.16c-.23.02-.55.1-.95.33-.9.52-1.6,1.54-1.59,2.83,0,1.15.6,1.53,1.61.94.35-.2.72-.5.94-.73l.18.91c-.21.24-.67.64-1.28.99-1.73,1-2.63.28-2.63-1.36,0-1.96,1.21-3.75,2.72-4.63Z"/>
      <path class="cls-9" d="m215.36,82.83c.56-.32.98-.43,1.27-.44l-.25,1.19c-.2,0-.56.04-1.05.33-.49.28-.73.68-.73.98,0,.37.28.36.93.27.88-.13,1.3.16,1.3.97,0,.97-.64,2.16-2.02,2.95-.57.33-1.14.49-1.42.46l.22-1.2c.31,0,.77-.09,1.25-.37.52-.3.79-.7.79-1.08,0-.36-.24-.43-.84-.33-.83.15-1.37-.07-1.38-.9,0-.98.71-2.14,1.89-2.82Z"/>
      <path class="cls-9" d="m219.51,80.43c.57-.33.98-.43,1.28-.45l-.25,1.2c-.2,0-.56.05-1.05.33-.49.28-.72.67-.72.97,0,.36.28.36.93.27.89-.13,1.3.16,1.3.97,0,.97-.63,2.15-2.01,2.95-.57.33-1.14.48-1.42.47l.23-1.21c.3,0,.77-.09,1.25-.37.52-.3.79-.7.79-1.08,0-.35-.24-.42-.84-.33-.83.15-1.37-.07-1.38-.9,0-.98.7-2.14,1.88-2.82Z"/>
    </g>
    <path class="cls-44" d="m262.16,108.12c0-2.29-1.64-3.21-3.61-2.06l-14.21,8.2c-1.97,1.14-3.59,3.93-3.58,6.22v1.43s-.58.34-.58.34l.59.85v3.87s-.62,1.65-.62,1.65l.64.37.02,7.81c0,2.29,1.63,3.2,3.61,2.06l14.21-8.2c1.98-1.14,3.59-3.92,3.59-6.22l-.05-16.31Z"/>
    <path class="cls-83" d="m259.34,105.71c.2-.07.4-.11.59-.13.02,0,.03,0,.05,0,.21-.02.4,0,.58.03,0,0,.02,0,.02,0,.19.04.37.11.53.2l-3.58-2.08s-.01-.01-.02-.02c-.06-.03-.12-.06-.18-.09-.06-.02-.12-.05-.19-.07-.04,0-.09-.02-.14-.03,0,0-.01,0-.02,0-.02,0-.03,0-.05-.01-.07,0-.14-.02-.22-.03-.08,0-.16,0-.24,0-.03,0-.05,0-.08.01-.02,0-.04,0-.05,0-.05,0-.09,0-.14,0-.1.02-.21.04-.31.07-.05.02-.09.03-.14.05-.04.02-.08.03-.12.04-.06.02-.11.04-.17.06-.17.07-.33.15-.5.25l-14.21,8.2c-.42.24-.83.56-1.2.93-.05.06-.11.12-.16.17-.02.03-.04.05-.07.07-.05.06-.11.12-.17.18-.1.11-.2.23-.29.35-.08.11-.16.21-.24.33-.07.1-.14.21-.21.31-.06.1-.12.2-.19.31,0,0,0,.02-.01.03h0c-.05.09-.1.18-.15.28-.05.1-.11.2-.15.3-.05.1-.1.21-.15.32-.04.1-.09.21-.13.32-.04.11-.08.22-.12.34-.02.06-.04.12-.06.18,0,.01,0,.03,0,.04-.01.05-.03.09-.04.14-.04.14-.07.28-.1.41-.03.17-.06.33-.08.5-.03.24-.05.47-.05.71l.05,16.31c0,1.13.41,1.93,1.05,2.31l3.58,2.08c-.64-.37-1.05-1.17-1.05-2.31l-.04-16.31c0-.57.1-1.17.28-1.77,0,0,0-.01,0-.02.18-.59.44-1.19.76-1.74,0,0,0,0,0,0,.32-.54.7-1.05,1.11-1.5.02-.03.04-.04.06-.07.42-.44.88-.83,1.36-1.1l14.21-8.2c.23-.13.45-.22.66-.3.04-.02.09-.04.13-.05Z"/>
    <g>
      <polygon class="cls-35" points="201.99 111.27 197.04 108.39 199.29 107.1 204.24 109.97 201.99 111.27"/>
      <g>
        <path class="cls-10" d="m180.58,142.55l-4.96-2.88c-.89-.52-1.45-1.62-1.45-3.19l4.96,2.88c0,1.57.56,2.67,1.45,3.19Z"/>
        <g class="cls-98">
          <g class="cls-106">
            <path class="cls-10" d="m180.58,142.55l-4.96-2.88c-.89-.52-1.45-1.62-1.45-3.19l4.96,2.88c0,1.57.56,2.67,1.45,3.19h0Z"/>
          </g>
        </g>
      </g>
      <path class="cls-13" d="m208.69,99.69c0-3.17-2.26-4.43-5-2.85l-19.66,11.35c-2.74,1.58-4.98,5.43-4.97,8.6v1.98s-.8.47-.8.47l.81,1.18.02,5.35-.87,2.28.88.51.03,10.8c0,3.17,2.26,4.43,5,2.84l19.66-11.35c2.74-1.58,4.97-5.43,4.96-8.6l-.06-22.57Z"/>
      <g>
        <path class="cls-10" d="m202.27,93.61l4.96,2.88c-.91-.52-2.16-.45-3.54.34l-4.96-2.87c1.38-.8,2.64-.87,3.54-.35Z"/>
        <g class="cls-103">
          <g class="cls-106">
            <path class="cls-10" d="m203.69,96.84l-4.96-2.87c.24-.14.47-.25.7-.35l4.96,2.88c-.23.09-.46.21-.7.34h0Z"/>
            <path class="cls-10" d="m204.38,96.49l-4.96-2.88c.2-.08.4-.15.59-.2l4.96,2.88c-.19.05-.39.12-.59.2h0Z"/>
            <path class="cls-10" d="m204.97,96.29l-4.96-2.88c.15-.04.3-.07.44-.09l4.96,2.88c-.14.02-.29.05-.44.09h0Z"/>
            <path class="cls-10" d="m205.41,96.2l-4.96-2.88c.13-.02.25-.03.38-.04l4.95,2.88c-.12,0-.25.02-.37.04h0Z"/>
            <path class="cls-10" d="m205.78,96.16l-4.95-2.88c.11,0,.22,0,.33,0l4.95,2.88c-.11,0-.22,0-.33,0h0Z"/>
            <path class="cls-10" d="m206.11,96.16l-4.95-2.88c.1,0,.2.02.3.04l4.95,2.88c-.1-.02-.2-.03-.3-.04h0Z"/>
            <path class="cls-10" d="m206.41,96.2l-4.95-2.88c.09.02.19.04.28.07l4.95,2.88c-.09-.03-.18-.05-.28-.06h0Z"/>
            <path class="cls-10" d="m206.69,96.26l-4.95-2.88c.08.03.18.06.26.1l4.96,2.88c-.08-.04-.17-.07-.27-.09h0Z"/>
            <path class="cls-10" d="m206.95,96.35l-4.96-2.88c.09.03.17.07.25.12l4.96,2.88c-.08-.05-.17-.09-.25-.12h0Z"/>
            <path class="cls-10" d="m207.2,96.48l-4.96-2.88s.02.01.02.02l4.96,2.88s-.02,0-.03-.01h0Z"/>
          </g>
        </g>
      </g>
      <polygon class="cls-10" points="179.12 139.36 174.17 136.48 174.11 113.91 179.06 116.79 179.12 139.36"/>
      <polygon class="cls-10" points="184.03 108.19 179.07 105.31 198.73 93.96 203.69 96.84 184.03 108.19"/>
      <g>
        <path class="cls-10" d="m179.06,116.79l-4.95-2.88c0-3.17,2.23-7.02,4.96-8.6l4.96,2.88c-2.74,1.58-4.98,5.43-4.97,8.6Z"/>
        <g class="cls-97">
          <g class="cls-106">
            <path class="cls-10" d="m179.06,116.79l-4.95-2.88c0-.32.02-.64.06-.98l4.96,2.88c-.04.33-.07.66-.06.98h0Z"/>
            <path class="cls-10" d="m179.12,115.81l-4.96-2.88c.03-.22.07-.45.12-.69l4.96,2.88c-.05.23-.09.46-.12.69h0Z"/>
            <path class="cls-10" d="m179.24,115.12l-4.96-2.88c.04-.19.09-.38.14-.57l4.95,2.88c-.05.19-.1.38-.14.57h0Z"/>
            <path class="cls-10" d="m179.38,114.56l-4.95-2.88c.04-.16.1-.34.15-.51l4.95,2.88c-.05.17-.11.34-.16.51h0Z"/>
            <path class="cls-10" d="m179.53,114.05l-4.95-2.88c.05-.15.11-.31.17-.47l4.95,2.87c-.06.16-.12.32-.17.47h0Z"/>
            <path class="cls-10" d="m179.7,113.57l-4.95-2.87c.05-.15.12-.3.18-.45l4.96,2.88c-.07.15-.13.3-.18.44h0Z"/>
            <path class="cls-10" d="m179.89,113.13l-4.96-2.88c.06-.14.13-.29.2-.43l4.96,2.88c-.08.14-.14.29-.2.43h0Z"/>
            <path class="cls-10" d="m180.09,112.7l-4.96-2.88c.07-.14.14-.28.21-.42l4.96,2.88c-.08.14-.15.28-.21.42h0Z"/>
            <path class="cls-10" d="m180.3,112.28l-4.96-2.88c.07-.14.15-.28.23-.42l4.96,2.88c-.09.14-.16.28-.23.42h0Z"/>
            <path class="cls-10" d="m180.54,111.85l-4.96-2.88c.09-.14.17-.28.26-.42l4.95,2.88c-.09.14-.17.28-.25.42h0Z"/>
            <path class="cls-10" d="m180.79,111.43l-4.95-2.88c.09-.15.19-.29.29-.43l4.95,2.88c-.1.14-.2.28-.29.43h0Z"/>
            <path class="cls-10" d="m181.08,111l-4.95-2.88c.1-.15.22-.3.33-.45l4.96,2.88c-.12.14-.23.3-.33.45h0Z"/>
            <path class="cls-10" d="m181.41,110.55l-4.96-2.88c.13-.17.26-.34.4-.49l4.96,2.88c-.14.16-.28.33-.4.5h0Z"/>
            <path class="cls-10" d="m181.82,110.06l-4.96-2.88c.18-.2.36-.4.55-.58l4.96,2.88c-.19.18-.37.38-.54.58h0Z"/>
            <path class="cls-10" d="m182.36,109.47l-4.96-2.88c.52-.51,1.08-.95,1.66-1.29l4.96,2.88c-.58.34-1.14.78-1.66,1.29h0Z"/>
          </g>
        </g>
      </g>
      <g>
        <path class="cls-9" d="m193.17,113.96l3.13,9.66-2.43,1.4-.77-2.5-2.85,1.65-.7,3.35-2.34,1.35,3.02-13.21,2.95-1.7Zm-2.61,8.08l2.21-1.27-.63-2.06c-.18-.57-.36-1.32-.52-1.91l-.02.02c-.15.76-.29,1.72-.46,2.47l-.58,2.76h0Z"/>
        <path class="cls-9" d="m198.54,112.97c-.71.41-1.18.11-1.17-.61-.01-.75.45-1.57,1.18-2,.72-.41,1.18-.12,1.2.62,0,.72-.47,1.56-1.22,1.99Z"/>
        <polygon class="cls-9" points="197.46 122.94 197.44 114.63 199.69 113.33 199.71 121.64 197.46 122.94"/>
      </g>
    </g>
    <g>
      <path class="cls-16" d="m96.97,202.74c1.41-.82,2.56-.17,2.57,1.46,0,1.62-1.14,3.6-2.55,4.41-1.41.82-2.56.16-2.57-1.46,0-1.64,1.14-3.6,2.55-4.41Z"/>
      <path class="cls-13" d="m103.42,199.02c1.41-.82,2.56-.18,2.57,1.46,0,1.62-1.14,3.6-2.55,4.41-1.41.81-2.56.15-2.57-1.46,0-1.64,1.14-3.6,2.54-4.41Z"/>
      <path class="cls-80" d="m109.88,195.28c1.41-.82,2.55-.17,2.55,1.47,0,1.62-1.12,3.59-2.53,4.4-1.42.82-2.56.16-2.57-1.46,0-1.63,1.13-3.59,2.55-4.41Z"/>
      <polygon class="cls-80" points="221.9 135.72 221.91 137.26 213.56 142.08 213.55 140.54 221.9 135.72"/>
      <polygon class="cls-80" points="221.89 132.79 221.9 134.32 213.55 139.14 213.54 137.61 221.89 132.79"/>
      <polygon class="cls-80" points="221.89 129.85 221.89 131.38 213.54 136.2 213.54 134.67 221.89 129.85"/>
      <path class="cls-44" d="m90.09,202.81l136.62-78.88.04,14-136.62,78.88-.04-14Zm13.34,2.08c1.41-.82,2.55-2.8,2.55-4.41,0-1.64-1.16-2.27-2.57-1.46-1.41.81-2.55,2.77-2.54,4.41,0,1.62,1.16,2.27,2.57,1.46h0Zm-6.45,3.72c1.41-.81,2.55-2.79,2.55-4.41,0-1.63-1.16-2.27-2.57-1.46-1.41.81-2.55,2.77-2.55,4.41,0,1.62,1.16,2.28,2.57,1.46h0Zm12.91-7.45c1.41-.81,2.54-2.78,2.53-4.4,0-1.64-1.14-2.29-2.55-1.47-1.42.82-2.55,2.78-2.55,4.41,0,1.62,1.14,2.28,2.57,1.46h0Zm111.99-69.77v-1.53s-8.36,4.82-8.36,4.82v1.53s8.36-4.82,8.36-4.82h0Zm.02,5.87v-1.53s-8.35,4.82-8.35,4.82v1.54s8.35-4.82,8.35-4.82h0Zm0-2.94v-1.53s-8.35,4.82-8.35,4.82v1.54s8.35-4.82,8.35-4.82h0Z"/>
    </g>
    <g>
      <g>
        <g class="cls-106">
          <g class="cls-96">
            <g class="cls-106">
              <path class="cls-31" d="m278.3,102.76l-.91.06c.39-.22.7-.58.92-.99l.9-.06c-.22.42-.53.77-.92.99h0Z"/>
              <path class="cls-18" d="m279.22,101.77l-.9.06c.15-.29.26-.62.33-.97l.91-.06c-.06.34-.17.68-.33.97h0Z"/>
              <path class="cls-22" d="m279.54,100.8l-.91.06c.05-.29.07-.59.05-.89l.91-.06c.02.31,0,.61-.05.9h0Z"/>
              <path class="cls-78" d="m279.59,99.91l-.91.06c-.03-.35-.1-.7-.23-1.04l.91-.06c.13.33.2.69.22,1.04h0Z"/>
            </g>
          </g>
        </g>
        <polygon class="cls-85" points="279.37 98.87 278.46 98.93 276.54 93.89 277.45 93.82 279.37 98.87"/>
        <g class="cls-106">
          <g class="cls-95">
            <g class="cls-106">
              <path class="cls-78" d="m277.45,93.82l-.91.07c-.43-1.15-1.36-1.8-2.28-1.74l.91-.06c.92-.07,1.85.58,2.29,1.73h0Z"/>
            </g>
          </g>
        </g>
        <g class="cls-106">
          <g class="cls-99">
            <g class="cls-106">
              <path class="cls-31" d="m274.97,90.44l-.91.06c.08-.05.17-.08.25-.12l.9-.06c-.08.04-.16.07-.25.12h0Z"/>
              <path class="cls-18" d="m275.21,90.31l-.9.06c.19-.07.38-.12.57-.13l.91-.06c-.19.01-.38.06-.57.13h0Z"/>
            </g>
          </g>
        </g>
        <g class="cls-106">
          <g class="cls-101">
            <g class="cls-106">
              <path class="cls-46" d="m274.34,92.34l-.91.06c.08-.04.17-.09.25-.12l.9-.06c-.08.04-.17.08-.25.12h0Z"/>
              <path class="cls-70" d="m274.59,92.22l-.9.06c.19-.08.38-.12.57-.13l.91-.06c-.19,0-.39.05-.58.13h0Z"/>
            </g>
          </g>
        </g>
        <polygon class="cls-52" points="269.66 107.75 268.75 107.81 277.39 102.83 278.3 102.76 269.66 107.75"/>
        <g class="cls-106">
          <g class="cls-100">
            <g class="cls-106">
              <path class="cls-18" d="m268.84,108l-.91.06c.19,0,.38-.05.57-.13l.91-.06c-.19.08-.38.12-.57.13h0Z"/>
              <path class="cls-31" d="m269.41,107.87l-.91.06c.09-.03.17-.07.25-.12l.91-.06c-.08.05-.16.09-.25.12h0Z"/>
            </g>
          </g>
        </g>
        <g class="cls-106">
          <g class="cls-104">
            <g class="cls-106">
              <path class="cls-64" d="m268.84,108l-.91.06c-.93.06-1.85-.59-2.29-1.73l.91-.06c.43,1.13,1.35,1.79,2.29,1.73h0Z"/>
            </g>
          </g>
        </g>
        <polygon class="cls-48" points="265.7 97.34 264.8 97.39 273.43 92.4 274.34 92.34 265.7 97.34"/>
        <polygon class="cls-67" points="266.55 106.27 265.64 106.33 263.73 101.28 264.63 101.22 266.55 106.27"/>
        <path class="cls-75" d="m274.34,92.34c1.15-.66,2.55,0,3.11,1.48l1.92,5.05c.56,1.48.08,3.23-1.07,3.89l-8.64,4.99c-1.16.67-2.55,0-3.11-1.48l-1.91-5.05c-.57-1.49-.09-3.22,1.07-3.89l8.64-4.99Z"/>
        <g class="cls-106">
          <g class="cls-102">
            <g class="cls-106">
              <path class="cls-64" d="m264.63,101.22l-.91.06c-.13-.34-.21-.7-.23-1.05l.91-.06c.02.35.1.71.23,1.05h0Z"/>
              <path class="cls-66" d="m264.41,100.18l-.91.06c-.02-.3,0-.6.05-.89l.91-.06c-.05.29-.07.59-.05.89h0Z"/>
              <path class="cls-70" d="m264.45,99.28l-.91.06c.06-.34.17-.66.32-.96l.91-.06c-.15.28-.27.61-.32.95h0Z"/>
              <path class="cls-46" d="m264.78,98.33l-.91.06c.22-.42.54-.77.93-1l.9-.06c-.39.22-.71.57-.93,1h0Z"/>
            </g>
          </g>
        </g>
        <path class="cls-32" d="m274.97,90.44c1.15-.66,2.55,0,3.12,1.49l2.87,7.56c.56,1.49.08,3.23-1.07,3.89l-10.79,6.23c-1.16.67-2.54,0-3.11-1.48l-2.87-7.56c-.57-1.49-.09-3.24,1.07-3.91l10.79-6.23Zm4.4,8.43l-1.92-5.05c-.56-1.49-1.96-2.14-3.11-1.48l-8.64,4.99c-1.16.67-1.63,2.4-1.07,3.89l1.91,5.05c.57,1.47,1.95,2.15,3.11,1.48l8.64-4.99c1.15-.66,1.63-2.41,1.07-3.89h0Z"/>
        <path class="cls-33" d="m265.98,108.13l-2.87-7.56c-.12-.32-.19-.66-.22-1,0-.03,0-.06,0-.09-.01-.27,0-.53.04-.78,0-.05.02-.1.02-.15.06-.3.15-.58.29-.84.02-.05.05-.1.08-.15.08-.13.17-.26.27-.38.04-.05.08-.09.12-.13.14-.15.3-.28.48-.38l10.79-6.23-.91.06-10.79,6.23c-.18.11-.33.23-.47.38-.04.04-.08.09-.12.13-.1.12-.19.25-.27.39-.02.04-.04.06-.06.1,0,.01,0,.04-.02.05-.13.25-.22.54-.28.84,0,.03-.02.05-.02.08,0,.02,0,.05,0,.08-.04.26-.06.52-.04.79,0,.01,0,.03,0,.04,0,.02.01.04.01.06.03.33.09.67.22.99l2.87,7.56c.44,1.14,1.36,1.8,2.28,1.74l.91-.06c-.93.06-1.85-.59-2.28-1.74Z"/>
      </g>
      <path class="cls-12" d="m295.62,129.74s-2.36,3.73-4.73,3.27c-2.38-.46-2.7-.97-1.69-1.61,1.01-.64,3.66-2.46,3.15-2.62-.5-.18-1.62.07-1.5-.41.11-.5,3.47-1.13,3.47-1.13l2.34,1.14-1.04,1.37Z"/>
      <path class="cls-59" d="m297.1,178.19c-.15.03-7.58-.22-5.92,2.56,1.07,1.8,2.56,2.12,3.67,2.15,1.11.03,3.14-.62,3.65-.3.51.33,3.02,2.07,4.46.32.29-.35.49-1.38.29-2.04-.19-.65-5.34-2.86-6.16-2.7Z"/>
      <path class="cls-50" d="m291.18,180.75c1.07,1.8,2.56,2.12,3.67,2.15,1.11.03,3.14-.62,3.65-.3.51.33,3.02,2.07,4.46.32.16-.19.29-.58.34-.99-1,1.49-3.47,1.08-4.16.58-.78-.55-1.91-.83-2.88-.63-.97.2-3.08-.04-4.14-1.07-.64-.62-.61-1.33-.49-1.8-.65.38-.94.92-.45,1.74Z"/>
      <path class="cls-41" d="m298.03,116.32s8.98,11.48,4.44,24.83c-.99,2.91-2.95,9.1-2.3,12.14.79,3.66,1.93,2.62,2.76,14.71.74,10.68.61,8.36.85,12.69.07,1.24-4.47,2.53-5.15.61-2.99-8.37-7.15-25.9-6.3-35.57.85-9.67,1.39-18.71,1.39-18.71,0,0,1.37-7.95,4.32-10.71Z"/>
      <path class="cls-59" d="m283.05,183.19c-.15,0-7.83-1.71-6.57,1.5.82,2.08,2.3,2.7,3.46,2.95,1.14.25,3.36-.03,3.83.41.47.44,2.79,2.74,4.57,1.2.37-.31.74-1.34.65-2.06-.09-.71-5.06-4-5.94-4Z"/>
      <path class="cls-50" d="m276.47,184.69c.82,2.08,2.3,2.7,3.46,2.95,1.14.25,3.36-.03,3.83.41.47.44,2.79,2.74,4.57,1.2.2-.17.4-.54.53-.97-1.29,1.34-3.79.44-4.42-.21-.72-.73-1.83-1.24-2.88-1.22-1.05.02-3.19-.64-4.12-1.92-.56-.76-.4-1.5-.2-1.96-.74.26-1.13.77-.77,1.71Z"/>
      <path class="cls-62" d="m298.66,127.38s5.09,5.42-4.03,19.14c0,0-4.43,9.76-4.27,12.88.18,3.74,1.69,4.09.21,16.32-1.28,10.61-.75,10.83-1.57,11.72-.86.95-5.19.03-5.34-1.86-.81-10.38-2.44-25.65-1.5-35.3,1.08-11.1,1.87-20.22,1.87-20.22,0,0,11.28-.51,14.63-2.67Z"/>
      <path class="cls-41" d="m282.16,150.27c-.94,9.66.68,24.92,1.5,35.3.06.74.76,1.32,1.63,1.71-.09-3.59-.64-24.75-.68-29.69-.05-5.4-.62-15.49,2.97-18.44,3.59-2.94,5.2-8.26,5.2-8.26l-.6-1.66c-4.01.63-8.16.82-8.16.82,0,0-.79,9.12-1.87,20.22Z"/>
      <g>
        <path class="cls-14" d="m297.17,103.26s-.45-4.2,3.6-4.28c4.3-.08,3.34,8.89,3.34,8.89,0,0-.21,7.75-.98,10.15-1.03,3.2-6.72,11.48-6.72,11.48,0,0-2.53-.59-3.27-2.4,0,0,4.49-7.82,4.89-10.78.43-3.24-.96-12.35-.85-13.06Z"/>
        <path class="cls-40" d="m296.41,129.5s5.69-8.28,6.72-11.48c.77-2.4.98-10.15.98-10.15,0,0,1.53-8.64-3.32-9.04-1.97-.16-2.3.68-2.77,1.32,3.12.19,3.43,2.27,3.14,6.92-.32,5.04.34,6.47.05,10.79-.28,4.31-4.84,8.5-5.53,9.52-.46.67-1.56-.15-2.26-.79-.18.33-.29.52-.29.52.74,1.81,3.27,2.4,3.27,2.4Z"/>
      </g>
      <g>
        <path class="cls-12" d="m290.48,95.54s1.1,3.29-.49,5.46c-.86,1.18,7.62,3.01,6.79-.44-.68-2.84.47-5.43,2.57-7.6l-8.87,2.58Z"/>
        <path class="cls-7" d="m290.85,97.93s2.09-.48,3.29-1.19l.14.07.8.2.3.11s-.45,3.54-4.96,3.14c0,0,.39-.96.43-2.33Z"/>
        <path class="cls-12" d="m290.4,82.02s-1.37,2.24-3.24,6.03c-1.63,3.33-1.91,7.2.22,8.95,1,.82,8.06,2.48,11.24-5.72,2.03-5.23-1.52-12.1-8.22-9.25Z"/>
      </g>
      <path class="cls-68" d="m286.7,83.29c-.85.75-.23,1.89,1.96,2.84,3.11,1.35.72,5.47,1.76,6.28.58.46.93.79,2.48-.32.61-.44,1.59-.86,1.74.9.14,1.65-.98,1.37-1.49,3.75-.21.95,2.6,1.28,3.64.59,3.11-2.06,7.27-8.12,3.07-14.08-3.19-4.52-11.69-1.24-13.15.04Z"/>
      <path class="cls-58" d="m304.07,129.89c-.03-.74-.21-1.6-.42-2.66,0-.04-.02-.08-.03-.12-.56-2.84-1.2-4.43-1.2-4.43h-.04c-1.13-3.09-2.11-4.33-1.61-8.26.25-2.01,2.06-7.99,1.83-12.42-.22-4.43-5.02-4.37-12.72-1.26-7.7,3.11-6.57,7.82-6.57,7.82.96,4.74,2.81,5.51,1.29,17.4q-.15.61-.84,5.44c-1.18,8.25,19.13,4.24,20.33-1.51h0Z"/>
      <g>
        <path class="cls-12" d="m265.83,108.98s-.82-.18-1.98-1.28c-1.16-1.1-1-1.06-1.34-2.01-.35-.96,0-2.25.37-2.57.48-.41.98-.05,1.85,1.83.89,1.94,2.89,1.83,3.18,2.17.29.35-1.58,2.04-2.07,1.86Z"/>
        <path class="cls-12" d="m265.75,107.1c-.25-.09.11-.99-.92-2.89-.79-1.47.94,0,1.15.35.2.34,1.93,2.63,1.93,2.63,0,0-1.29.23-2.16-.09Z"/>
        <path class="cls-40" d="m289.83,107.19c.07-.93-.52-3.81-3.28-4.07-1.79-.16-10.26,9.33-11.54,9.36-.63.02-7.26-6.18-7.26-6.18,0,0,.32,1.85-2.39,2.9,0,0,6.95,9.81,9.71,8.99,4.73-1.41,14.42-6.63,14.76-11.01Z"/>
      </g>
    </g>
    <g>
      <path class="cls-9" d="m249.08,127.58l-.75.82-1.7-1.57-1.47,1.59,1.7,1.57-.75.82-3.96-3.66.75-.82,1.6,1.49,1.47-1.59-1.61-1.49.75-.82,3.96,3.66Z"/>
      <path class="cls-9" d="m249.12,120.92l-1.12,1.21,3.3,3.05-.75.82-3.3-3.05-1.11,1.2-.66-.61,2.98-3.22.66.61Z"/>
      <path class="cls-9" d="m249.88,118.78l3.81,1.64-1.94-3.67.99-1.07,3.96,3.66-.76.82-1.08-1-1.79-1.81,1.96,3.8-.52.56-3.93-1.66,1.94,1.64,1.08,1-.75.82-3.96-3.66.99-1.07Z"/>
      <path class="cls-9" d="m257.47,117.2l1.6-1.73.66.61-2.36,2.55-3.96-3.66.75-.82,3.3,3.06Z"/>
    </g>
    <g>
      <path class="cls-9" d="m135.7,37.53c0-.34-.12-.59-.36-.77s-.66-.37-1.28-.57-1.11-.4-1.47-.59c-.98-.53-1.47-1.24-1.47-2.14,0-.47.13-.88.39-1.25s.64-.65,1.13-.86c.49-.21,1.05-.31,1.66-.31s1.17.11,1.65.34c.48.22.86.54,1.13.95.27.41.4.87.4,1.39h-1.78c0-.4-.13-.7-.37-.92-.25-.22-.6-.33-1.05-.33s-.77.09-1.01.28c-.24.18-.36.43-.36.73,0,.28.14.52.42.71s.7.37,1.25.53c1.01.31,1.75.68,2.21,1.13.46.45.69,1.01.69,1.69,0,.75-.28,1.33-.85,1.76-.57.43-1.33.64-2.29.64-.66,0-1.27-.12-1.82-.37-.55-.24-.96-.58-1.25-1s-.43-.91-.43-1.47h1.79c0,.95.57,1.43,1.71,1.43.42,0,.75-.09.99-.26.24-.17.36-.41.36-.72Z"/>
      <path class="cls-9" d="m145.78,35.67c0,.81-.13,1.51-.39,2.11s-.62,1.07-1.09,1.43l1.44,1.13-1.13,1-1.84-1.48c-.21.03-.43.05-.65.05-.72,0-1.36-.17-1.92-.52-.56-.34-1-.84-1.31-1.48s-.47-1.37-.47-2.21v-.43c0-.85.15-1.6.46-2.25.31-.65.74-1.14,1.3-1.49s1.2-.52,1.92-.52,1.36.17,1.92.52.99.84,1.3,1.49c.31.65.46,1.39.46,2.24v.39Zm-1.8-.39c0-.91-.16-1.6-.49-2.07-.32-.47-.79-.71-1.39-.71s-1.06.23-1.38.7c-.32.47-.49,1.15-.49,2.05v.42c0,.88.16,1.57.49,2.05.32.49.79.73,1.4.73s1.06-.23,1.38-.7c.32-.47.48-1.15.49-2.05v-.42Z"/>
      <path class="cls-9" d="m148.87,38.36h3.78v1.43h-5.56v-8.64h1.78v7.21Z"/>
    </g>
    <g>
      <path class="cls-9" d="m87.11,39.49c-.09,1.3-.57,2.32-1.44,3.07-.87.75-2.01,1.12-3.42,1.12-1.55,0-2.77-.52-3.66-1.56-.89-1.04-1.33-2.48-1.33-4.3v-.74c0-1.16.21-2.19.61-3.07.41-.89,1-1.57,1.76-2.04.76-.47,1.64-.71,2.65-.71,1.39,0,2.52.37,3.37,1.12.85.75,1.35,1.79,1.48,3.15h-2.49c-.06-.78-.28-1.35-.65-1.7-.37-.35-.94-.53-1.71-.53-.83,0-1.45.3-1.86.89s-.62,1.52-.63,2.77v.91c0,1.31.2,2.26.59,2.86s1.02.91,1.87.91c.77,0,1.34-.18,1.72-.53s.6-.9.65-1.63h2.49Z"/>
      <path class="cls-9" d="m92,31.43l3.1,8.77,3.09-8.77h3.27v12.09h-2.5v-3.3l.25-5.7-3.26,9.01h-1.71l-3.25-9,.25,5.69v3.3h-2.49v-12.09h3.25Z"/>
      <path class="cls-9" d="m109.91,40.34c0-.47-.17-.83-.5-1.08s-.93-.52-1.79-.8-1.55-.55-2.05-.83c-1.37-.74-2.06-1.74-2.06-3,0-.65.18-1.24.55-1.75s.9-.91,1.59-1.2c.69-.29,1.46-.43,2.32-.43s1.63.16,2.31.47c.68.31,1.2.75,1.57,1.32.37.57.56,1.22.56,1.94h-2.49c0-.55-.17-.98-.52-1.29-.35-.31-.84-.46-1.47-.46s-1.08.13-1.42.39c-.34.26-.51.6-.51,1.02,0,.39.2.72.59.99s.98.51,1.75.75c1.42.43,2.45.96,3.1,1.59.65.63.97,1.42.97,2.36,0,1.05-.4,1.87-1.19,2.46-.79.59-1.86.89-3.2.89-.93,0-1.78-.17-2.54-.51-.76-.34-1.35-.81-1.75-1.4s-.6-1.28-.6-2.06h2.5c0,1.33.8,2,2.39,2,.59,0,1.05-.12,1.39-.36.33-.24.5-.58.5-1.01Z"/>
    </g>
    <g>
      <path class="cls-9" d="m90.81,167.45h2.49v8.37c0,.77-.17,1.45-.51,2.04-.34.59-.82,1.04-1.44,1.37s-1.32.48-2.1.48c-1.28,0-2.27-.33-2.99-.98-.71-.65-1.07-1.57-1.07-2.76h2.51c0,.59.12,1.03.37,1.31.25.28.64.42,1.18.42.48,0,.86-.16,1.14-.49s.42-.79.42-1.39v-8.37Z"/>
      <path class="cls-9" d="m101.7,176.37c0-.47-.17-.83-.5-1.08s-.93-.52-1.79-.8-1.55-.55-2.05-.83c-1.37-.74-2.06-1.74-2.06-3,0-.65.18-1.24.55-1.75s.9-.91,1.59-1.2c.69-.29,1.46-.43,2.32-.43s1.63.16,2.31.47c.68.31,1.2.75,1.57,1.32.37.57.56,1.22.56,1.94h-2.49c0-.55-.17-.98-.52-1.29-.35-.31-.84-.46-1.47-.46s-1.08.13-1.42.39c-.34.26-.51.6-.51,1.02,0,.39.2.72.59.99s.98.51,1.75.75c1.42.43,2.45.96,3.1,1.59.65.63.97,1.42.97,2.36,0,1.05-.4,1.87-1.19,2.46-.79.59-1.86.89-3.2.89-.93,0-1.78-.17-2.54-.51-.76-.34-1.35-.81-1.75-1.4s-.6-1.28-.6-2.06h2.5c0,1.33.8,2,2.39,2,.59,0,1.05-.12,1.39-.36.33-.24.5-.58.5-1.01Z"/>
    </g>
  </g>
</svg>