<?xml version="1.0" encoding="UTF-8"?>
<svg xmlns="http://www.w3.org/2000/svg" xmlns:xlink="http://www.w3.org/1999/xlink" viewBox="0 0 627.02 453.4">
  <defs>
    <style>
      .cls-1 {
        letter-spacing: -.01em;
      }

      .cls-2 {
        fill: url(#linear-gradient);
      }

      .cls-3, .cls-4, .cls-5, .cls-6, .cls-7, .cls-8, .cls-9, .cls-10, .cls-11 {
        fill: #fff;
      }

      .cls-12 {
        fill: #3d6aac;
      }

      .cls-4, .cls-13, .cls-7, .cls-8, .cls-9, .cls-11 {
        mix-blend-mode: overlay;
      }

      .cls-5 {
        font-size: 14.23px;
      }

      .cls-5, .cls-6 {
        font-family: Montserrat-Light, Montserrat;
        font-weight: 300;
      }

      .cls-14 {
        filter: url(#drop-shadow-5);
      }

      .cls-15 {
        filter: url(#drop-shadow-4);
      }

      .cls-16 {
        filter: url(#drop-shadow-3);
      }

      .cls-17 {
        letter-spacing: -.02em;
      }

      .cls-18 {
        letter-spacing: 0em;
      }

      .cls-19 {
        fill: url(#linear-gradient-8);
      }

      .cls-20 {
        fill: url(#linear-gradient-9);
      }

      .cls-21 {
        fill: url(#linear-gradient-4);
      }

      .cls-22 {
        fill: url(#linear-gradient-6);
      }

      .cls-23 {
        fill: url(#linear-gradient-7);
      }

      .cls-24 {
        fill: url(#linear-gradient-5);
      }

      .cls-25 {
        fill: url(#linear-gradient-2);
        filter: url(#drop-shadow-1);
      }

      .cls-26 {
        fill: url(#linear-gradient-3);
        filter: url(#drop-shadow-2);
      }

      .cls-6 {
        font-size: 53.85px;
      }

      .cls-7 {
        filter: url(#drop-shadow-6);
      }

      .cls-8 {
        filter: url(#drop-shadow-8);
      }

      .cls-9 {
        filter: url(#drop-shadow-7);
      }

      .cls-10 {
        filter: url(#drop-shadow-9);
      }

      .cls-27 {
        letter-spacing: 0em;
      }

      .cls-28 {
        fill: url(#linear-gradient-14);
      }

      .cls-29 {
        fill: url(#linear-gradient-18);
      }

      .cls-30 {
        fill: url(#linear-gradient-20);
      }

      .cls-31 {
        fill: url(#linear-gradient-15);
      }

      .cls-32 {
        fill: url(#linear-gradient-19);
      }

      .cls-33 {
        fill: url(#linear-gradient-16);
      }

      .cls-34 {
        fill: url(#linear-gradient-17);
      }

      .cls-35 {
        fill: url(#linear-gradient-13);
      }

      .cls-36 {
        fill: url(#linear-gradient-12);
      }

      .cls-37 {
        fill: url(#linear-gradient-10);
      }

      .cls-38 {
        fill: url(#linear-gradient-11);
      }

      .cls-39 {
        isolation: isolate;
      }

      .cls-11 {
        opacity: .5;
      }
    </style>
    <linearGradient id="linear-gradient" x1="230.34" y1="147.78" x2="398.32" y2="315.75" gradientUnits="userSpaceOnUse">
      <stop offset="0" stop-color="#00314b"/>
      <stop offset="1" stop-color="#150735"/>
    </linearGradient>
    <linearGradient id="linear-gradient-2" x1="314.75" y1="260.47" x2="205.14" y2="150.86" gradientUnits="userSpaceOnUse">
      <stop offset="0" stop-color="#0828ff"/>
      <stop offset="1" stop-color="#00b1ff"/>
    </linearGradient>
    <filter id="drop-shadow-1" filterUnits="userSpaceOnUse">
      <feOffset dx="7" dy="7"/>
      <feGaussianBlur result="blur" stdDeviation="5"/>
      <feFlood flood-color="#070236" flood-opacity=".45"/>
      <feComposite in2="blur" operator="in"/>
      <feComposite in="SourceGraphic"/>
    </filter>
    <linearGradient id="linear-gradient-3" x1="348.2" y1="155.35" x2="412.42" y2="219.57" gradientUnits="userSpaceOnUse">
      <stop offset="0" stop-color="#ff9f00"/>
      <stop offset="1" stop-color="#ff0062"/>
    </linearGradient>
    <filter id="drop-shadow-2" filterUnits="userSpaceOnUse">
      <feOffset dx="7" dy="7"/>
      <feGaussianBlur result="blur-2" stdDeviation="5"/>
      <feFlood flood-color="#070236" flood-opacity=".45"/>
      <feComposite in2="blur-2" operator="in"/>
      <feComposite in="SourceGraphic"/>
    </filter>
    <linearGradient id="linear-gradient-4" x1="170.91" y1="289.58" x2="135.85" y2="254.52" xlink:href="#linear-gradient-3"/>
    <linearGradient id="linear-gradient-5" x1="178.12" y1="280.92" x2="163.92" y2="266.72" xlink:href="#linear-gradient"/>
    <linearGradient id="linear-gradient-6" x1="130.11" y1="312.19" x2="150.35" y2="312.19" xlink:href="#linear-gradient-3"/>
    <linearGradient id="linear-gradient-7" x1="86.24" y1="169.45" x2="131.32" y2="214.52" xlink:href="#linear-gradient-3"/>
    <linearGradient id="linear-gradient-8" x1="526.22" y1="229.48" x2="472.97" y2="176.23" xlink:href="#linear-gradient-2"/>
    <linearGradient id="linear-gradient-9" x1="369.85" y1="235.08" x2="436.31" y2="301.54" xlink:href="#linear-gradient-3"/>
    <linearGradient id="linear-gradient-10" x1="419.56" y1="306.57" x2="372.3" y2="259.31" xlink:href="#linear-gradient-2"/>
    <linearGradient id="linear-gradient-11" x1="369.85" y1="282.32" x2="436.31" y2="348.78" xlink:href="#linear-gradient-3"/>
    <filter id="drop-shadow-3" filterUnits="userSpaceOnUse">
      <feOffset dx="7" dy="7"/>
      <feGaussianBlur result="blur-3" stdDeviation="5"/>
      <feFlood flood-color="#070236" flood-opacity=".45"/>
      <feComposite in2="blur-3" operator="in"/>
      <feComposite in="SourceGraphic"/>
    </filter>
    <filter id="drop-shadow-4" filterUnits="userSpaceOnUse">
      <feOffset dx="7" dy="7"/>
      <feGaussianBlur result="blur-4" stdDeviation="5"/>
      <feFlood flood-color="#070236" flood-opacity=".45"/>
      <feComposite in2="blur-4" operator="in"/>
      <feComposite in="SourceGraphic"/>
    </filter>
    <filter id="drop-shadow-5" filterUnits="userSpaceOnUse">
      <feOffset dx="7" dy="7"/>
      <feGaussianBlur result="blur-5" stdDeviation="5"/>
      <feFlood flood-color="#070236" flood-opacity=".45"/>
      <feComposite in2="blur-5" operator="in"/>
      <feComposite in="SourceGraphic"/>
    </filter>
    <linearGradient id="linear-gradient-12" x1="362.58" y1="416.73" x2="290.64" y2="344.79" xlink:href="#linear-gradient-2"/>
    <linearGradient id="linear-gradient-13" x1="168.63" y1="384.18" x2="145.74" y2="361.3" gradientTransform="translate(441.45 86.46) rotate(67.77)" xlink:href="#linear-gradient-2"/>
    <linearGradient id="linear-gradient-14" x1="474.17" y1="104.16" x2="440.99" y2="70.98" xlink:href="#linear-gradient-3"/>
    <filter id="drop-shadow-6" filterUnits="userSpaceOnUse">
      <feOffset dx="7" dy="7"/>
      <feGaussianBlur result="blur-6" stdDeviation="5"/>
      <feFlood flood-color="#070236" flood-opacity=".45"/>
      <feComposite in2="blur-6" operator="in"/>
      <feComposite in="SourceGraphic"/>
    </filter>
    <linearGradient id="linear-gradient-15" x1="519.2" y1="398.35" x2="415.31" y2="294.45" xlink:href="#linear-gradient-2"/>
    <linearGradient id="linear-gradient-16" x1="455" y1="374.29" x2="511.22" y2="430.51" xlink:href="#linear-gradient-3"/>
    <linearGradient id="linear-gradient-17" x1="537.83" y1="103.56" x2="505.3" y2="71.03" xlink:href="#linear-gradient-2"/>
    <linearGradient id="linear-gradient-18" x1="108.72" y1="389.41" x2="75.54" y2="356.24" xlink:href="#linear-gradient-3"/>
    <filter id="drop-shadow-7" filterUnits="userSpaceOnUse">
      <feOffset dx="7" dy="7"/>
      <feGaussianBlur result="blur-7" stdDeviation="5"/>
      <feFlood flood-color="#070236" flood-opacity=".45"/>
      <feComposite in2="blur-7" operator="in"/>
      <feComposite in="SourceGraphic"/>
    </filter>
    <filter id="drop-shadow-8" filterUnits="userSpaceOnUse">
      <feOffset dx="7" dy="7"/>
      <feGaussianBlur result="blur-8" stdDeviation="5"/>
      <feFlood flood-color="#070236" flood-opacity=".45"/>
      <feComposite in2="blur-8" operator="in"/>
      <feComposite in="SourceGraphic"/>
    </filter>
    <linearGradient id="linear-gradient-19" x1="588.67" y1="332.62" x2="542.89" y2="286.83" xlink:href="#linear-gradient-2"/>
    <filter id="drop-shadow-9" filterUnits="userSpaceOnUse">
      <feOffset dx="7" dy="7"/>
      <feGaussianBlur result="blur-9" stdDeviation="5"/>
      <feFlood flood-color="#070236" flood-opacity=".45"/>
      <feComposite in2="blur-9" operator="in"/>
      <feComposite in="SourceGraphic"/>
    </filter>
    <linearGradient id="linear-gradient-20" x1="524.07" y1="273.33" x2="535.87" y2="285.13" xlink:href="#linear-gradient-3"/>
  </defs>
  <g class="cls-39">
    <g id="Layer_2" data-name="Layer 2">
      <g id="Layer_1-2" data-name="Layer 1">
        <g>
          <g>
            <g>
              <rect class="cls-3" x="212.74" y="43.4" width="196.77" height="370.31" rx="36.93" ry="36.93"/>
              <path class="cls-2" d="m400.18,80.34v296.44c0,15.22-12.39,27.6-27.61,27.6h-122.9c-15.23,0-27.61-12.38-27.61-27.6V80.34c0-15.23,12.38-27.61,27.61-27.61h14.96v2.03c0,6.47,5.25,11.72,11.72,11.72h69.53c6.47,0,11.72-5.25,11.72-11.72v-2.03h14.97c15.22,0,27.61,12.38,27.61,27.61Z"/>
            </g>
            <rect class="cls-4" x="233.97" y="265.71" width="80.07" height="61.94" rx="6.97" ry="6.97"/>
            <g class="cls-13">
              <path class="cls-3" d="m339.69,86.54h-58.1c-1.45,0-2.62,1.17-2.62,2.62h0c0,1.45,1.17,2.62,2.62,2.62h58.1c1.45,0,2.62-1.17,2.62-2.62h0c0-1.45-1.17-2.62-2.62-2.62Z"/>
              <path class="cls-3" d="m322.6,106.18h-23.92c-1.45,0-2.62,1.17-2.62,2.62h0c0,1.45,1.17,2.62,2.62,2.62h23.92c1.45,0,2.62-1.17,2.62-2.62h0c0-1.45-1.17-2.62-2.62-2.62Z"/>
            </g>
          </g>
          <g>
            <g>
              <path class="cls-11" d="m123.35,110.56v28.12c0,3.85-3.12,6.97-6.97,6.97h-28.12c-3.85,0-6.97-3.12-6.97-6.97v-28.12c0-.38.03-.76.1-1.13h41.86c.07.37.1.75.1,1.13Z"/>
              <rect class="cls-11" x="16.08" y="153.84" width="31.8" height="31.8" rx="5.27" ry="5.27"/>
              <rect class="cls-11" x="34.86" y="170.64" width="26.09" height="26.09" rx="4.32" ry="4.32"/>
              <rect class="cls-11" x="146.81" y="133.87" width="61.94" height="61.94" rx="10.26" ry="10.26"/>
              <path class="cls-11" d="m93.8,251.5h-24.92c-3.41,0-6.17,2.76-6.17,6.17v24.92c0,3.41,2.76,6.17,6.17,6.17h24.92c3.41,0,6.17-2.76,6.17-6.17v-24.92c0-3.41-2.76-6.17-6.17-6.17Zm3.17,31.1c0,1.75-1.42,3.17-3.17,3.17h-24.92c-1.75,0-3.17-1.42-3.17-3.17v-24.92c0-1.75,1.42-3.17,3.17-3.17h24.92c1.75,0,3.17,1.42,3.17,3.17v24.92Z"/>
              <path class="cls-11" d="m90.95,311.27h-13.9c-1.9,0-3.44,1.54-3.44,3.44v13.9c0,1.9,1.54,3.44,3.44,3.44h13.9c1.9,0,3.44-1.54,3.44-3.44v-13.9c0-1.9-1.54-3.44-3.44-3.44Zm1.77,17.35c0,.98-.79,1.77-1.77,1.77h-13.9c-.98,0-1.77-.79-1.77-1.77v-13.9c0-.98.79-1.77,1.77-1.77h13.9c.98,0,1.77.79,1.77,1.77v13.9Z"/>
              <path class="cls-11" d="m594.22,331.85h-19.08c-2.61,0-4.73,2.12-4.73,4.73v19.08c0,2.61,2.12,4.73,4.73,4.73h19.08c2.61,0,4.73-2.12,4.73-4.73v-19.08c0-2.61-2.12-4.73-4.73-4.73Zm2.43,23.81c0,1.34-1.09,2.43-2.43,2.43h-19.08c-1.34,0-2.43-1.09-2.43-2.43v-19.08c0-1.34,1.09-2.43,2.43-2.43h19.08c1.34,0,2.43,1.09,2.43,2.43v19.08Z"/>
              <path class="cls-11" d="m576,119.05h-19.08c-2.61,0-4.73,2.12-4.73,4.73v19.08c0,2.61,2.12,4.73,4.73,4.73h19.08c2.61,0,4.73-2.12,4.73-4.73v-19.08c0-2.61-2.12-4.73-4.73-4.73Zm2.43,23.81c0,1.34-1.09,2.43-2.43,2.43h-19.08c-1.34,0-2.43-1.09-2.43-2.43v-19.08c0-1.34,1.09-2.43,2.43-2.43h19.08c1.34,0,2.43,1.09,2.43,2.43v19.08Z"/>
              <path class="cls-11" d="m485.75,119.05h-19.08c-2.61,0-4.73,2.12-4.73,4.73v19.08c0,2.61,2.12,4.73,4.73,4.73h19.08c2.61,0,4.73-2.12,4.73-4.73v-19.08c0-2.61-2.12-4.73-4.73-4.73Zm2.43,23.81c0,1.34-1.09,2.43-2.43,2.43h-19.08c-1.34,0-2.43-1.09-2.43-2.43v-19.08c0-1.34,1.09-2.43,2.43-2.43h19.08c1.34,0,2.43,1.09,2.43,2.43v19.08Z"/>
              <path class="cls-11" d="m614.53,241.52h-15.64c-2.14,0-3.87,1.73-3.87,3.87v15.64c0,2.14,1.73,3.87,3.87,3.87h15.64c2.14,0,3.87-1.73,3.87-3.87v-15.64c0-2.14-1.73-3.87-3.87-3.87Zm1.99,19.52c0,1.1-.89,1.99-1.99,1.99h-15.64c-1.1,0-1.99-.89-1.99-1.99v-15.64c0-1.1.89-1.99,1.99-1.99h15.64c1.1,0,1.99.89,1.99,1.99v15.64Z"/>
              <path class="cls-11" d="m262.06,0h-15.64c-2.14,0-3.87,1.73-3.87,3.87v15.64c0,2.14,1.73,3.87,3.87,3.87h15.64c2.14,0,3.87-1.73,3.87-3.87V3.87c0-2.14-1.73-3.87-3.87-3.87Zm1.99,19.52c0,1.1-.89,1.99-1.99,1.99h-15.64c-1.1,0-1.99-.89-1.99-1.99V3.87c0-1.1.89-1.99,1.99-1.99h15.64c1.1,0,1.99.89,1.99,1.99v15.64Z"/>
              <path class="cls-11" d="m310.61,430.01h-15.64c-2.14,0-3.87,1.73-3.87,3.87v15.64c0,2.14,1.73,3.87,3.87,3.87h15.64c2.14,0,3.87-1.73,3.87-3.87v-15.64c0-2.14-1.73-3.87-3.87-3.87Zm1.99,19.51c0,1.1-.89,1.99-1.99,1.99h-15.64c-1.1,0-1.99-.89-1.99-1.99v-15.64c0-1.1.89-1.99,1.99-1.99h15.64c1.1,0,1.99.89,1.99,1.99v15.64Z"/>
              <rect class="cls-11" x="86.02" y="302.68" width="18.07" height="18.07" rx="2.99" ry="2.99"/>
              <rect class="cls-11" x="525.37" y="92.63" width="42.25" height="42.25" rx="7" ry="7"/>
              <rect class="cls-11" x="375.07" y="14.32" width="59.85" height="59.85" rx="9.91" ry="9.91"/>
              <path class="cls-11" d="m306.68,1.54h16.94c2.32,0,4.2,1.88,4.2,4.2v16.94c0,2.32-1.88,4.2-4.2,4.2h-16.94c-2.32,0-4.2-1.88-4.2-4.2V5.74c0-2.32,1.88-4.2,4.2-4.2Z"/>
              <rect class="cls-11" x="342.5" y="426.45" width="17.84" height="17.84" rx="2.96" ry="2.96"/>
              <rect class="cls-11" x="182.3" y="390.03" width="39.49" height="39.49" rx="6.54" ry="6.54"/>
              <rect class="cls-11" x="445.64" y="229.99" width="18.48" height="18.48" rx="3.06" ry="3.06"/>
              <rect class="cls-11" x="566.66" y="161.12" width="30.03" height="30.03" rx="4.98" ry="4.98"/>
              <rect class="cls-11" x="555.76" y="242.13" width="19.97" height="19.97" rx="3.31" ry="3.31"/>
              <rect class="cls-11" x="584.07" y="310.66" width="35.5" height="35.5" rx="5.88" ry="5.88"/>
              <rect class="cls-11" x="587.42" y="176.42" width="27.92" height="27.92" rx="4.63" ry="4.63"/>
              <rect class="cls-11" x="160.47" y="368.29" width="37.27" height="37.27" rx="6.17" ry="6.17"/>
              <rect class="cls-11" y="224.74" width="23.77" height="23.77" rx="3.94" ry="3.94"/>
            </g>
            <g>
              <g>
                <g>
                  <rect class="cls-25" x="184.06" y="129.78" width="115.54" height="115.54" rx="11.34" ry="11.34"/>
                  <text class="cls-6" transform="translate(210.14 210.91)"><tspan x="0" y="0">UI</tspan></text>
                </g>
                <g>
                  <rect class="cls-26" x="322.64" y="129.78" width="115.54" height="115.54" rx="11.34" ry="11.34"/>
                  <text class="cls-6" transform="translate(340.77 210.91)"><tspan class="cls-1" x="0" y="0">U</tspan><tspan x="42.17" y="0">X</tspan></text>
                </g>
              </g>
              <g>
                <path class="cls-21" d="m173.63,287.8h-34.56c-7.05,0-12.77-5.72-12.77-12.77h0c0-7.06,5.72-12.77,12.77-12.77h34.56c7.05,0,12.77,5.72,12.77,12.77h0c0,7.06-5.72,12.77-12.77,12.77Z"/>
                <circle class="cls-24" cx="172.22" cy="275.03" r="10.12"/>
              </g>
              <g>
                <path class="cls-3" d="m173.63,324.96h-34.56c-7.05,0-12.77-5.72-12.77-12.77h0c0-7.05,5.72-12.77,12.77-12.77h34.56c7.05,0,12.77,5.72,12.77,12.77h0c0,7.06-5.72,12.77-12.77,12.77Z"/>
                <circle class="cls-22" cx="140.23" cy="312.19" r="10.12"/>
              </g>
              <g>
                <path class="cls-23" d="m149.14,194.04c0,21.96-18.54,39.59-40.83,38.07-18.81-1.28-34.06-16.51-35.38-35.32-1.52-21.71,15.14-39.9,36.3-40.86.95-.04,1.75.7,1.75,1.65v.17c0,.87-.68,1.61-1.55,1.65-19.24.85-34.4,17.37-33.05,37.11,1.18,17.11,15.04,30.96,32.14,32.14,20.27,1.39,37.14-14.63,37.14-34.6,0-8.06-2.75-15.47-7.35-21.36-.52-.67-.49-1.61.11-2.21l.11-.11c.7-.7,1.87-.63,2.48.16,5.08,6.48,8.11,14.65,8.11,23.52Z"/>
                <text class="cls-5" transform="translate(95.5 196.42)"><tspan x="0" y="0">9</tspan><tspan class="cls-27" x="8.57" y="0">5</tspan><tspan class="cls-18" x="16.37" y="0">%</tspan></text>
              </g>
              <g>
                <path class="cls-19" d="m525.91,221.28c-7.49,7.34-17.97,11.62-29.47,10.82-18.74-1.31-33.92-16.44-35.3-35.17-1.6-21.75,15.04-40,36.2-41,1-.05,1.85.74,1.85,1.74h0c0,.92-.71,1.69-1.62,1.73-18.4.85-33.06,16.03-33.06,34.64s15.53,34.69,34.68,34.69c9.48,0,18.06-3.8,24.31-9.95.67-.66,1.76-.65,2.43.02h0c.69.69.67,1.81-.03,2.49Z"/>
                <text class="cls-5" transform="translate(483.7 196.42)"><tspan class="cls-17" x="0" y="0">7</tspan><tspan class="cls-27" x="8" y="0">5</tspan><tspan x="15.8" y="0">%</tspan></text>
              </g>
              <g>
                <path class="cls-20" d="m482.46,269.11h-152.46c-1.3,0-2.35,1.05-2.35,2.35h0c0,1.3,1.05,2.35,2.35,2.35h152.46c1.3,0,2.35-1.05,2.35-2.35h0c0-1.3-1.05-2.35-2.35-2.35Z"/>
                <path class="cls-37" d="m482.46,290.89h-152.46c-1.3,0-2.35,1.05-2.35,2.35h0c0,1.3,1.05,2.35,2.35,2.35h152.46c1.3,0,2.35-1.05,2.35-2.35h0c0-1.3-1.05-2.35-2.35-2.35Z"/>
                <path class="cls-38" d="m482.46,316.35h-152.46c-1.3,0-2.35,1.05-2.35,2.35h0c0,1.3,1.05,2.35,2.35,2.35h152.46c1.3,0,2.35-1.05,2.35-2.35h0c0-1.3-1.05-2.35-2.35-2.35Z"/>
                <path class="cls-12" d="m482.46,269.11h-54.69v4.7h54.69c1.3,0,2.35-1.05,2.35-2.35s-1.05-2.35-2.35-2.35Z"/>
                <path class="cls-12" d="m482.46,290.89h-102.51v4.7h102.51c1.3,0,2.35-1.05,2.35-2.35s-1.05-2.35-2.35-2.35Z"/>
                <path class="cls-12" d="m482.46,316.35h-30.7v4.7h30.7c1.3,0,2.35-1.05,2.35-2.35s-1.05-2.35-2.35-2.35Z"/>
                <g class="cls-16">
                  <path class="cls-3" d="m436.59,270.76c0,3.66-2.97,6.61-6.63,6.61-3.66,0-6.61-2.97-6.61-6.63,0-3.66,2.97-6.61,6.63-6.61,3.66,0,6.61,2.97,6.61,6.63Z"/>
                </g>
                <g class="cls-15">
                  <path class="cls-3" d="m388.51,292.47c0,3.66-2.97,6.61-6.63,6.61-3.66,0-6.61-2.97-6.61-6.63,0-3.66,2.97-6.61,6.63-6.61,3.66,0,6.61,2.97,6.61,6.63Z"/>
                </g>
                <g class="cls-14">
                  <path class="cls-3" d="m459.08,318.04c0,3.66-2.97,6.61-6.63,6.61-3.66,0-6.61-2.97-6.61-6.63,0-3.66,2.97-6.61,6.63-6.61,3.66,0,6.61,2.97,6.61,6.63Z"/>
                </g>
              </g>
              <g>
                <rect class="cls-36" x="276.19" y="356.57" width="75.01" height="22.55" rx="4.27" ry="4.27"/>
                <path class="cls-3" d="m327.85,365.53h-28.3c-1.48,0-2.69,1.21-2.69,2.69h0c0,1.48,1.21,2.69,2.69,2.69h28.3c1.48,0,2.69-1.21,2.69-2.69h0c0-1.48-1.21-2.69-2.69-2.69Z"/>
              </g>
              <g>
                <circle class="cls-35" cx="156.35" cy="371.91" r="18.61" transform="translate(-247.07 375.92) rotate(-67.77)"/>
                <polygon class="cls-3" points="163.86 370.45 157.82 370.45 157.82 364.4 154.89 364.4 154.89 370.45 148.84 370.45 148.84 373.37 154.89 373.37 154.89 379.42 157.82 379.42 157.82 373.37 163.86 373.37 163.86 370.45"/>
              </g>
              <g>
                <rect class="cls-28" x="434.32" y="64.31" width="44.13" height="44.13" rx="10.22" ry="10.22"/>
                <path class="cls-3" d="m452.89,77l10.04,7.25c1.44,1.04,1.44,3.19,0,4.23l-10.04,7.25c-1.73,1.25-4.14.01-4.14-2.12v-14.51c0-2.13,2.41-3.37,4.14-2.12Z"/>
              </g>
              <g>
                <rect class="cls-7" x="55.24" y="42.74" width="130.7" height="25.56" rx="5.48" ry="5.48"/>
                <g>
                  <path class="cls-3" d="m76.45,50.73c0,1.34-1.09,2.42-2.42,2.42s-2.42-1.09-2.42-2.42,1.09-2.42,2.42-2.42,2.42,1.09,2.42,2.42Z"/>
                  <path class="cls-3" d="m79.46,60.99v-3.21c0-1.15-.93-2.09-2.09-2.09h-6.7c-1.15,0-2.09.93-2.09,2.09v3.21h10.87Z"/>
                </g>
                <path class="cls-3" d="m142.85,53.87h-42.47c-.79,0-1.44.65-1.44,1.44h0c0,.79.65,1.44,1.44,1.44h42.47c.79,0,1.44-.65,1.44-1.44h0c0-.79-.65-1.44-1.44-1.44Z"/>
              </g>
              <g>
                <rect class="cls-31" x="423.48" y="348.41" width="117.46" height="25.88" rx="7.94" ry="7.94"/>
                <path class="cls-3" d="m503.04,358.96h-41.68c-1.18,0-2.15.97-2.15,2.15h0c0,1.18.97,2.15,2.15,2.15h41.68c1.18,0,2.15-.97,2.15-2.15h0c0-1.18-.97-2.15-2.15-2.15Z"/>
              </g>
              <g>
                <rect class="cls-33" x="423.48" y="388.56" width="117.46" height="25.88" rx="7.94" ry="7.94"/>
                <path class="cls-3" d="m503.04,399.6h-41.68c-1.18,0-2.15.97-2.15,2.15h0c0,1.18.97,2.15,2.15,2.15h41.68c1.18,0,2.15-.97,2.15-2.15h0c0-1.18-.97-2.15-2.15-2.15Z"/>
              </g>
              <g>
                <rect class="cls-34" x="498.57" y="64.31" width="44.13" height="44.13" rx="10.22" ry="10.22"/>
                <g>
                  <polygon class="cls-3" points="529.49 84.13 529.49 92.53 511.79 92.53 511.79 84.13 509.63 84.13 509.63 94.69 531.65 94.69 531.65 84.13 529.49 84.13"/>
                  <path class="cls-3" d="m526.18,84.92l-1.53-1.53-2.94,2.94v-8.28h-2.16v8.28l-2.94-2.94-1.53,1.53,5.54,5.54,5.54-5.54Zm-5.46,2.41l-.08.08-.08-.08h.16Z"/>
                </g>
              </g>
              <g>
                <rect class="cls-29" x="68.86" y="349.56" width="44.13" height="44.13" rx="10.22" ry="10.22"/>
                <g>
                  <polygon class="cls-3" points="99.78 370.44 99.78 378.84 82.07 378.84 82.07 370.44 79.92 370.44 79.92 381 101.93 381 101.93 370.44 99.78 370.44"/>
                  <path class="cls-3" d="m85.39,369.89l1.53,1.53,2.94-2.94v8.28h2.16v-8.28l2.94,2.94,1.53-1.53-5.54-5.54-5.54,5.54Zm5.46-2.41l.08-.08.08.08h-.16Z"/>
                </g>
              </g>
              <g>
                <rect class="cls-9" x="55.24" y="83.87" width="130.7" height="25.56" rx="5.48" ry="5.48"/>
                <g>
                  <path class="cls-3" d="m80.68,93.71h-9.81c-.75,0-1.36.61-1.36,1.36v7.03c0,.75.62,1.35,1.36,1.35h9.81c.75,0,1.35-.61,1.35-1.35v-7.03c0-.75-.61-1.36-1.35-1.36Zm-4.41,5.27v1.5c0,.27-.22.49-.5.49s-.49-.22-.49-.49v-1.5c-.55-.2-.95-.73-.95-1.35,0-.8.65-1.44,1.44-1.44s1.45.64,1.45,1.44c0,.62-.4,1.15-.95,1.35Z"/>
                  <path class="cls-3" d="m73.65,92.15v-1.61c0-.12.1-.21.21-.21h3.8c.12,0,.21.09.21.21v1.61h.93v-1.61c0-.63-.51-1.15-1.15-1.15h-3.8c-.62,0-1.15.51-1.15,1.15v1.61h.93Z"/>
                </g>
                <g>
                  <path class="cls-3" d="m102.81,97.06c0-.94-.76-1.7-1.7-1.7s-1.7.76-1.7,1.7.76,1.7,1.7,1.7,1.7-.76,1.7-1.7Z"/>
                  <path class="cls-3" d="m114.71,97.06c0-.94-.76-1.7-1.7-1.7s-1.7.76-1.7,1.7.76,1.7,1.7,1.7,1.7-.76,1.7-1.7Z"/>
                  <path class="cls-3" d="m126.62,97.06c0-.94-.76-1.7-1.7-1.7s-1.7.76-1.7,1.7.76,1.7,1.7,1.7,1.7-.76,1.7-1.7Z"/>
                  <path class="cls-3" d="m138.52,97.06c0-.94-.76-1.7-1.7-1.7s-1.7.76-1.7,1.7.76,1.7,1.7,1.7,1.7-.76,1.7-1.7Z"/>
                </g>
              </g>
              <g>
                <rect class="cls-8" x="508.41" y="268.03" width="96.22" height="52.76" rx="8.18" ry="8.18"/>
                <g>
                  <g>
                    <path class="cls-32" d="m592.34,305.17c0,.46-.4.81-.85.78-3.2-.24-4.98-1.8-6.57-3.18-1.66-1.45-3.23-2.83-6.39-2.83s-4.63,2-6.29,4.11c-1.73,2.21-3.69,4.71-7.52,4.71s-5.84-4.64-7.63-9.13c-1.6-4.01-3.26-8.15-6.18-8.15s-4.58,4.14-6.18,8.15c-1.79,4.49-3.65,9.13-7.63,9.13s-5.83-2.95-7.55-5.55c-1.66-2.5-3.22-4.85-6.25-4.85-.43,0-.78-.35-.78-.78s.35-.78.78-.78c3.87,0,5.83,2.95,7.55,5.55,1.66,2.5,3.22,4.85,6.25,4.85s4.58-4.14,6.18-8.15c1.79-4.49,3.65-9.13,7.63-9.13s5.84,4.64,7.63,9.13c1.6,4.01,3.26,8.15,6.18,8.15,3.07,0,4.63-2,6.29-4.11,1.73-2.21,3.69-4.71,7.52-4.71s5.7,1.71,7.42,3.21c1.53,1.34,2.99,2.61,5.69,2.8.4.03.7.37.7.77h0Z"/>
                    <circle class="cls-10" cx="551.18" cy="291.4" r="4.24"/>
                  </g>
                  <path class="cls-30" d="m535.5,276.4h-12.89c-1.06,0-1.92.86-1.92,1.92h0c0,1.06.86,1.92,1.92,1.92h12.89c1.06,0,1.92-.86,1.92-1.92h0c0-1.06-.86-1.92-1.92-1.92Z"/>
                </g>
              </g>
            </g>
          </g>
        </g>
      </g>
    </g>
  </g>
</svg>