<?xml version="1.0" encoding="UTF-8"?>
<svg xmlns="http://www.w3.org/2000/svg" viewBox="0 0 499.67 392.61">
  <defs>
    <style>
      .cls-1, .cls-2 {
        fill: #322f51;
      }

      .cls-1, .cls-3 {
        opacity: .1;
      }

      .cls-4 {
        fill: #fff;
      }

      .cls-5 {
        fill: #ffd766;
      }

      .cls-6 {
        fill: #ffb266;
      }

      .cls-7 {
        fill: #ffbb43;
      }

      .cls-8 {
        fill: #ed5160;
      }

      .cls-9 {
        fill: #d13d52;
      }

      .cls-10 {
        fill: #dedef9;
      }

      .cls-11, .cls-12, .cls-13, .cls-3 {
        fill: #201d33;
      }

      .cls-14 {
        fill: #7676dd;
      }

      .cls-12, .cls-13, .cls-3 {
        mix-blend-mode: multiply;
      }

      .cls-12, .cls-15 {
        opacity: .2;
      }

      .cls-13 {
        opacity: .4;
      }

      .cls-16 {
        isolation: isolate;
      }

      .cls-17 {
        fill: none;
        stroke: #fff;
        stroke-miterlimit: 10;
        stroke-width: .25px;
      }
    </style>
  </defs>
  <g class="cls-16">
    <g id="Layer_2" data-name="Layer 2">
      <g id="OBJECTS">
        <g>
          <path class="cls-1" d="m485.65,114.86c-7.88-10-18.26-17.47-29.35-23.54-12.02-6.57-25.32-10.55-36.98-17.93-9.51-6.02-17.98-14.23-22.42-24.57-3.44-8.01-4.34-16.96-8.05-24.85-7.33-15.6-24.52-23.2-41.03-23.9-17.81-.76-36.9,4.6-53.11,11.68-18.04,7.88-33.83,19.34-51.05,28.63-16.71,9.01-34.85,14.83-53.79,16.5-27.05,2.39-54.14-.87-81.1-2.72-34.5-2.36-90.11-2.51-104.44,37.34-5.98,16.62-1.64,35.91,5.44,51.47,8.94,19.65,24.13,35.17,33.53,54.38,9.3,19.02,14.42,41.46,3.41,60.77-8.77,15.37-24.65,24.86-34.83,39.15-14.54,20.4-17.91,49.13,2.45,67.2,3.06,2.72,10.77,8.19,17.52,11.23,32.66-2.35,117.94-4.02,218-4.02,93.13,0,173.44,1.45,210.45,3.55,8.84-14.02,15.83-30.82,7.97-46.76-8.4-17.04-29.97-25.8-31.96-46.27-.73-7.55,1.68-15.09,5.03-21.9,12.25-24.96,35.26-42.53,48.21-67.18,13.52-25.75,14.74-54.62-3.89-78.26Z"/>
          <rect class="cls-11" x="222.71" y="285.15" width="54.26" height="80.67"/>
          <rect class="cls-13" x="222.71" y="285.15" width="54.26" height="24.61"/>
          <rect class="cls-10" x="57.57" y="58.19" width="384.54" height="243.17" rx="4.8" ry="4.8"/>
          <rect class="cls-11" x="58.1" y="58.72" width="383.48" height="242.1" rx="4.26" ry="4.26"/>
          <rect class="cls-11" x="62.35" y="62.82" width="374.98" height="216.89"/>
          <g>
            <g>
              <rect class="cls-17" x="71.94" y="73.58" width="355.8" height="195.37"/>
              <rect class="cls-4" x="70.55" y="72.19" width="2.78" height="2.78"/>
              <rect class="cls-4" x="70.55" y="267.56" width="2.78" height="2.78"/>
              <rect class="cls-4" x="426.35" y="72.19" width="2.78" height="2.78"/>
              <rect class="cls-4" x="426.35" y="267.56" width="2.78" height="2.78"/>
            </g>
            <rect class="cls-2" x="76.15" y="77.37" width="347.37" height="186.94" rx="4.43" ry="4.43"/>
            <path class="cls-14" d="m419.09,77.37H80.58c-2.45,0-4.43,1.99-4.43,4.43v10.56h347.37v-10.56c0-2.45-1.99-4.43-4.43-4.43Z"/>
            <g>
              <circle class="cls-6" cx="82.89" cy="86.02" r="2.19"/>
              <path class="cls-8" d="m93.42,86.02c0-1.21-.98-2.19-2.19-2.19s-2.19.98-2.19,2.19.98,2.19,2.19,2.19,2.19-.98,2.19-2.19Z"/>
              <circle class="cls-10" cx="99.58" cy="86.02" r="2.19"/>
            </g>
          </g>
          <g>
            <rect class="cls-4" x="238.39" y="156.12" width="154.7" height="98.76"/>
            <rect class="cls-10" x="240.11" y="157.84" width="151.27" height="95.31"/>
            <path class="cls-4" d="m360.38,190.39c-2.75,0-5.11,1.62-6.19,3.96-.15,0-.29-.02-.44-.02-2.82,0-5.23,1.72-6.25,4.18-.19-.02-.37-.04-.57-.04-2.58,0-4.68,2.09-4.68,4.68s2.09,4.68,4.68,4.68h26.93c2.56,0,4.64-2.08,4.64-4.64s-2.08-4.64-4.64-4.64c-.19,0-.39.02-.57.04-1-2.49-3.43-4.25-6.28-4.25-.15,0-.29,0-.44.02-1.08-2.34-3.45-3.96-6.2-3.96h0Z"/>
            <path class="cls-5" d="m355.85,223.89c0-22.15-17.96-40.11-40.11-40.11s-40.11,17.96-40.11,40.11,80.22,22.15,80.22,0Z"/>
            <path class="cls-4" d="m273.86,192.88c-2.75,0-5.11,1.62-6.19,3.96-.15,0-.29-.02-.44-.02-2.82,0-5.23,1.72-6.25,4.18-.19-.02-.37-.04-.57-.04-2.58,0-4.68,2.09-4.68,4.68s2.09,4.68,4.68,4.68h26.93c2.56,0,4.64-2.08,4.64-4.64s-2.08-4.64-4.64-4.64c-.19,0-.39.02-.57.04-1-2.49-3.43-4.25-6.28-4.25-.15,0-.29,0-.44.02-1.08-2.34-3.45-3.96-6.19-3.96h0Z"/>
            <path class="cls-4" d="m295.59,170.14c-1.25,0-2.34.74-2.83,1.81-.07,0-.13,0-.2,0-1.29,0-2.39.79-2.85,1.91-.08-.01-.17-.02-.26-.02-1.18,0-2.14.96-2.14,2.14s.96,2.14,2.14,2.14h12.31c1.17,0,2.12-.95,2.12-2.12s-.95-2.12-2.12-2.12c-.09,0-.18,0-.26.02-.45-1.14-1.57-1.94-2.87-1.94-.07,0-.13,0-.2,0-.5-1.07-1.58-1.81-2.83-1.81h0Z"/>
            <path class="cls-4" d="m323.49,167.73c-.67,0-1.24.39-1.51.96-.04,0-.07,0-.11,0-.69,0-1.27.42-1.52,1.02-.05,0-.09,0-.14,0-.63,0-1.14.51-1.14,1.14s.51,1.14,1.14,1.14h6.55c.62,0,1.13-.51,1.13-1.13s-.51-1.13-1.13-1.13c-.05,0-.09,0-.14,0-.24-.61-.83-1.03-1.53-1.03-.04,0-.07,0-.11,0-.26-.57-.84-.96-1.51-.96h0Z"/>
            <path class="cls-4" d="m374.1,173.86c-.67,0-1.24.39-1.51.96-.04,0-.07,0-.11,0-.69,0-1.27.42-1.52,1.02-.05,0-.09,0-.14,0-.63,0-1.14.51-1.14,1.14s.51,1.14,1.14,1.14h6.55c.62,0,1.13-.51,1.13-1.13s-.51-1.13-1.13-1.13c-.05,0-.09,0-.14,0-.24-.61-.83-1.03-1.53-1.03-.04,0-.07,0-.11,0-.26-.57-.84-.96-1.51-.96h0Z"/>
            <path class="cls-4" d="m256.52,178.85c-.67,0-1.24.39-1.51.96-.04,0-.07,0-.11,0-.69,0-1.27.42-1.52,1.02-.05,0-.09,0-.14,0-.63,0-1.14.51-1.14,1.14s.51,1.14,1.14,1.14h6.55c.62,0,1.13-.51,1.13-1.13s-.51-1.13-1.13-1.13c-.05,0-.09,0-.14,0-.24-.61-.83-1.03-1.53-1.03-.04,0-.07,0-.11,0-.26-.57-.84-.96-1.51-.96h0Z"/>
            <rect class="cls-14" x="240.11" y="223.65" width="151.27" height="29.51"/>
            <rect class="cls-17" x="236.12" y="154.21" width="159.23" height="102.58"/>
            <rect class="cls-4" x="234.74" y="152.52" width="2.78" height="2.78"/>
            <rect class="cls-4" x="234.74" y="255.4" width="2.78" height="2.78"/>
            <rect class="cls-4" x="393.97" y="152.52" width="2.78" height="2.78"/>
            <rect class="cls-4" x="393.97" y="255.4" width="2.78" height="2.78"/>
          </g>
          <g>
            <rect class="cls-5" x="238.39" y="105.12" width="41.67" height="41.92"/>
            <rect class="cls-3" x="238.39" y="105.12" width="41.67" height="16.35"/>
            <rect class="cls-14" x="294.9" y="105.12" width="41.67" height="41.92"/>
            <rect class="cls-8" x="351.42" y="105.12" width="41.67" height="41.92"/>
            <rect class="cls-17" x="236.12" y="102.56" width="159.23" height="47.01"/>
            <rect class="cls-4" x="234.74" y="100.87" width="2.78" height="2.78"/>
            <rect class="cls-4" x="234.74" y="148.18" width="2.78" height="2.78"/>
            <rect class="cls-4" x="393.97" y="100.87" width="2.78" height="2.78"/>
            <rect class="cls-4" x="393.97" y="148.18" width="2.78" height="2.78"/>
            <circle class="cls-4" cx="259.23" cy="121.47" r="10.54"/>
            <path class="cls-10" d="m259.25,131.99c2.86,0,5.45-1.14,7.35-3-.92-3.5-3.86-6.07-7.35-6.07s-6.44,2.57-7.35,6.07c1.9,1.85,4.49,3,7.35,3Z"/>
            <path class="cls-3" d="m259.25,122.92c-1.06,0-2.08.24-3,.67.8.56,1.88.84,2.97.84s2.2-.26,2.99-.85c-.91-.42-1.91-.66-2.97-.66Z"/>
            <path class="cls-10" d="m263.77,119.76c0-2.51-2.04-4.55-4.55-4.55s-4.55,2.04-4.55,4.55,2.04,4.55,4.55,4.55,4.55-2.04,4.55-4.55Z"/>
            <path class="cls-11" d="m262.71,134.83h-17.01c-.55,0-1,.45-1,1h0c0,.55.45,1,1,1h17.01c.55,0,1-.45,1-1h0c0-.55-.45-1-1-1Z"/>
            <path class="cls-4" d="m257.84,138.49h-10.33c-.39,0-.71.32-.71.71h0c0,.39.32.71.71.71h10.33c.39,0,.71-.32.71-.71h0c0-.39-.32-.71-.71-.71Z"/>
            <path class="cls-4" d="m271,138.49h-10.33c-.39,0-.71.32-.71.71h0c0,.39.32.71.71.71h10.33c.39,0,.71-.32.71-.71h0c0-.39-.32-.71-.71-.71Z"/>
            <path class="cls-4" d="m248.75,140.84h-3.48c-.39,0-.71.32-.71.71h0c0,.39.32.71.71.71h3.48c.39,0,.71-.32.71-.71h0c0-.39-.32-.71-.71-.71Z"/>
            <path class="cls-4" d="m255.98,140.84h-4.94c-.39,0-.71.32-.71.71h0c0,.39.32.71.71.71h4.94c.39,0,.71-.32.71-.71h0c0-.39-.32-.71-.71-.71Z"/>
            <path class="cls-4" d="m273.23,140.84h-14.92c-.39,0-.71.32-.71.71h0c0,.39.32.71.71.71h14.92c.39,0,.71-.32.71-.71h0c0-.39-.32-.71-.71-.71Z"/>
            <path class="cls-11" d="m272.81,134.83h-5.74c-.55,0-1,.45-1,1h0c0,.55.45,1,1,1h5.74c.55,0,1-.45,1-1h0c0-.55-.45-1-1-1Z"/>
            <rect class="cls-3" x="294.9" y="105.12" width="41.67" height="16.35"/>
            <circle class="cls-4" cx="315.74" cy="121.47" r="10.54"/>
            <path class="cls-10" d="m315.77,131.99c2.86,0,5.45-1.14,7.35-3-.92-3.5-3.86-6.07-7.35-6.07s-6.44,2.57-7.35,6.07c1.9,1.85,4.49,3,7.35,3Z"/>
            <path class="cls-3" d="m315.77,122.92c-1.06,0-2.08.24-3,.67.8.56,1.88.84,2.97.84s2.2-.26,2.99-.85c-.91-.42-1.91-.66-2.97-.66Z"/>
            <path class="cls-10" d="m320.29,119.76c0-2.51-2.04-4.55-4.55-4.55s-4.55,2.04-4.55,4.55,2.04,4.55,4.55,4.55,4.55-2.04,4.55-4.55Z"/>
            <path class="cls-11" d="m319.22,134.83h-17.01c-.55,0-1,.45-1,1h0c0,.55.45,1,1,1h17.01c.55,0,1-.45,1-1h0c0-.55-.45-1-1-1Z"/>
            <path class="cls-4" d="m314.35,138.49h-10.33c-.39,0-.71.32-.71.71h0c0,.39.32.71.71.71h10.33c.39,0,.71-.32.71-.71h0c0-.39-.32-.71-.71-.71Z"/>
            <path class="cls-4" d="m327.52,138.49h-10.33c-.39,0-.71.32-.71.71h0c0,.39.32.71.71.71h10.33c.39,0,.71-.32.71-.71h0c0-.39-.32-.71-.71-.71Z"/>
            <path class="cls-4" d="m305.27,140.84h-3.48c-.39,0-.71.32-.71.71h0c0,.39.32.71.71.71h3.48c.39,0,.71-.32.71-.71h0c0-.39-.32-.71-.71-.71Z"/>
            <path class="cls-4" d="m312.5,140.84h-4.94c-.39,0-.71.32-.71.71h0c0,.39.32.71.71.71h4.94c.39,0,.71-.32.71-.71h0c0-.39-.32-.71-.71-.71Z"/>
            <path class="cls-4" d="m329.75,140.84h-14.92c-.39,0-.71.32-.71.71h0c0,.39.32.71.71.71h14.92c.39,0,.71-.32.71-.71h0c0-.39-.32-.71-.71-.71Z"/>
            <path class="cls-11" d="m329.32,134.83h-5.74c-.55,0-1,.45-1,1h0c0,.55.45,1,1,1h5.74c.55,0,1-.45,1-1h0c0-.55-.45-1-1-1Z"/>
            <rect class="cls-3" x="351.42" y="105.12" width="41.67" height="16.35"/>
            <circle class="cls-4" cx="372.26" cy="121.47" r="10.54"/>
            <path class="cls-10" d="m372.28,131.99c2.86,0,5.45-1.14,7.35-3-.92-3.5-3.86-6.07-7.35-6.07s-6.44,2.57-7.35,6.07c1.9,1.85,4.49,3,7.35,3Z"/>
            <path class="cls-3" d="m372.28,122.92c-1.06,0-2.08.24-3,.67.8.56,1.88.84,2.97.84s2.2-.26,2.99-.85c-.91-.42-1.91-.66-2.97-.66Z"/>
            <path class="cls-10" d="m376.8,119.76c0-2.51-2.04-4.55-4.55-4.55s-4.55,2.04-4.55,4.55,2.04,4.55,4.55,4.55,4.55-2.04,4.55-4.55Z"/>
            <path class="cls-11" d="m375.74,134.83h-17.01c-.55,0-1,.45-1,1h0c0,.55.45,1,1,1h17.01c.55,0,1-.45,1-1h0c0-.55-.45-1-1-1Z"/>
            <path class="cls-4" d="m370.87,138.49h-10.33c-.39,0-.71.32-.71.71h0c0,.39.32.71.71.71h10.33c.39,0,.71-.32.71-.71h0c0-.39-.32-.71-.71-.71Z"/>
            <path class="cls-4" d="m384.03,138.49h-10.33c-.39,0-.71.32-.71.71h0c0,.39.32.71.71.71h10.33c.39,0,.71-.32.71-.71h0c0-.39-.32-.71-.71-.71Z"/>
            <path class="cls-4" d="m361.78,140.84h-3.48c-.39,0-.71.32-.71.71h0c0,.39.32.71.71.71h3.48c.39,0,.71-.32.71-.71h0c0-.39-.32-.71-.71-.71Z"/>
            <path class="cls-4" d="m369.01,140.84h-4.94c-.39,0-.71.32-.71.71h0c0,.39.32.71.71.71h4.94c.39,0,.71-.32.71-.71h0c0-.39-.32-.71-.71-.71Z"/>
            <path class="cls-4" d="m386.26,140.84h-14.92c-.39,0-.71.32-.71.71h0c0,.39.32.71.71.71h14.92c.39,0,.71-.32.71-.71h0c0-.39-.32-.71-.71-.71Z"/>
            <path class="cls-11" d="m385.84,134.83h-5.74c-.55,0-1,.45-1,1h0c0,.55.45,1,1,1h5.74c.55,0,1-.45,1-1h0c0-.55-.45-1-1-1Z"/>
          </g>
          <polygon class="cls-10" points="102.68 102.81 102.68 254.88 212.47 254.88 212.47 134.12 181.17 102.81 102.68 102.81"/>
          <polygon class="cls-4" points="181.17 134.12 212.47 134.12 181.17 102.81 181.17 134.12"/>
          <g>
            <path class="cls-8" d="m162.64,191.4h-39.81c-1.46,0-2.64,1.18-2.64,2.64h0c0,1.46,1.18,2.64,2.64,2.64h39.81c1.46,0,2.64-1.18,2.64-2.64h0c0-1.46-1.18-2.64-2.64-2.64Z"/>
            <path class="cls-8" d="m192.32,191.4h-18.83c-1.46,0-2.64,1.18-2.64,2.64h0c0,1.46,1.18,2.64,2.64,2.64h18.83c1.46,0,2.64-1.18,2.64-2.64h0c0-1.46-1.18-2.64-2.64-2.64Z"/>
            <path class="cls-4" d="m165.17,202.64h-49.42c-.64,0-1.17.52-1.17,1.17h0c0,.64.52,1.17,1.17,1.17h49.42c.64,0,1.17-.52,1.17-1.17h0c0-.64-.52-1.17-1.17-1.17Z"/>
            <path class="cls-4" d="m150.91,208.86h-26.71c-.64,0-1.17.52-1.17,1.17h0c0,.64.52,1.17,1.17,1.17h26.71c.64,0,1.17-.52,1.17-1.17h0c0-.64-.52-1.17-1.17-1.17Z"/>
            <path class="cls-4" d="m187.62,208.86h-32.59c-.64,0-1.17.52-1.17,1.17h0c0,.64.52,1.17,1.17,1.17h32.59c.64,0,1.17-.52,1.17-1.17h0c0-.64-.52-1.17-1.17-1.17Z"/>
            <path class="cls-4" d="m150.91,227.61h-26.71c-.64,0-1.17.52-1.17,1.17h0c0,.64.52,1.17,1.17,1.17h26.71c.64,0,1.17-.52,1.17-1.17h0c0-.64-.52-1.17-1.17-1.17Z"/>
            <path class="cls-4" d="m187.62,227.61h-32.59c-.64,0-1.17.52-1.17,1.17h0c0,.64.52,1.17,1.17,1.17h32.59c.64,0,1.17-.52,1.17-1.17h0c0-.64-.52-1.17-1.17-1.17Z"/>
            <path class="cls-4" d="m168.48,215.07h-49.42c-.64,0-1.17.52-1.17,1.17h0c0,.64.52,1.17,1.17,1.17h49.42c.64,0,1.17-.52,1.17-1.17h0c0-.64-.52-1.17-1.17-1.17Z"/>
            <path class="cls-4" d="m195.32,215.07h-22.19c-.64,0-1.17.52-1.17,1.17h0c0,.64.52,1.17,1.17,1.17h22.19c.64,0,1.17-.52,1.17-1.17h0c0-.64-.52-1.17-1.17-1.17Z"/>
            <path class="cls-4" d="m153.03,221.28h-23.51c-.64,0-1.17.52-1.17,1.17h0c0,.64.52,1.17,1.17,1.17h23.51c.64,0,1.17-.52,1.17-1.17h0c0-.64-.52-1.17-1.17-1.17Z"/>
            <path class="cls-4" d="m170.79,221.28h-13.43c-.64,0-1.17.52-1.17,1.17h0c0,.64.52,1.17,1.17,1.17h13.43c.64,0,1.17-.52,1.17-1.17h0c0-.64-.52-1.17-1.17-1.17Z"/>
            <path class="cls-4" d="m181.74,221.28h-6.42c-.64,0-1.17.52-1.17,1.17h0c0,.64.52,1.17,1.17,1.17h6.42c.64,0,1.17-.52,1.17-1.17h0c0-.64-.52-1.17-1.17-1.17Z"/>
            <path class="cls-4" d="m158.23,236.41h23.51c.64,0,1.17-.52,1.17-1.17h0c0-.64-.52-1.17-1.17-1.17h-23.51c-.64,0-1.17.52-1.17,1.17h0c0,.64.52,1.17,1.17,1.17Z"/>
            <path class="cls-4" d="m140.47,236.41h13.43c.64,0,1.17-.52,1.17-1.17h0c0-.64-.52-1.17-1.17-1.17h-13.43c-.64,0-1.17.52-1.17,1.17h0c0,.64.52,1.17,1.17,1.17Z"/>
            <path class="cls-4" d="m129.52,236.41h6.42c.64,0,1.17-.52,1.17-1.17h0c0-.64-.52-1.17-1.17-1.17h-6.42c-.64,0-1.17.52-1.17,1.17h0c0,.64.52,1.17,1.17,1.17Z"/>
            <path class="cls-4" d="m199.4,202.64h-29.11c-.64,0-1.17.52-1.17,1.17h0c0,.64.52,1.17,1.17,1.17h29.11c.64,0,1.17-.52,1.17-1.17h0c0-.64-.52-1.17-1.17-1.17Z"/>
          </g>
          <polygon class="cls-4" points="411.19 279.71 437.33 253.57 437.33 217.72 375.34 279.71 411.19 279.71"/>
          <path class="cls-14" d="m437.18,62.97v216.59H62.5V62.97h374.68m.15-.15H62.35v216.89h374.98V62.82h0Z"/>
          <path class="cls-10" d="m58.1,296.55c0,2.36,1.91,4.27,4.27,4.27h374.94c2.36,0,4.27-1.91,4.27-4.27v-13.23H58.1v13.23Z"/>
          <path class="cls-2" d="m325.56,361.39h-151.44c-2.45,0-4.43,1.99-4.43,4.43h0c0,2.45,1.99,4.43,4.43,4.43h151.44c2.45,0,4.43-1.99,4.43-4.43h0c0-2.45-1.99-4.43-4.43-4.43Z"/>
          <path class="cls-14" d="m174.12,361.7h151.44c2.4,0,4.34,1.9,4.42,4.28,0-.05.02-.1.02-.15,0-2.45-1.99-4.43-4.43-4.43h-151.44c-2.45,0-4.43,1.99-4.43,4.43,0,.05.01.1.02.15.08-2.38,2.02-4.28,4.42-4.28Z"/>
          <path class="cls-11" d="m325.56,368.04h-151.44c-2.06,0-3.78-1.42-4.28-3.32-.09.36-.16.72-.16,1.11,0,2.45,1.99,4.43,4.43,4.43h151.44c2.45,0,4.43-1.99,4.43-4.43,0-.39-.06-.75-.16-1.11-.5,1.91-2.21,3.32-4.28,3.32Z"/>
          <g>
            <path class="cls-10" d="m495.24,370.26H4.44c-2.06,0-3.73,1.67-3.73,3.73s1.67,3.73,3.73,3.73h49.41c2.06,0,3.73,1.67,3.73,3.73s-1.67,3.73-3.73,3.73h-12.23c-2.06,0-3.73,1.67-3.73,3.73s1.67,3.73,3.73,3.73h394.05c2.06,0,3.73-1.67,3.73-3.73s-1.67-3.73-3.73-3.73h-30.44c-2.06,0-3.73-1.67-3.73-3.73s1.67-3.73,3.73-3.73h90.02c2.06,0,3.73-1.67,3.73-3.73s-1.67-3.73-3.73-3.73Z"/>
            <path class="cls-10" d="m461.05,385.16h-11.8c-2.06,0-3.73,1.67-3.73,3.73s1.67,3.73,3.73,3.73h11.8c2.06,0,3.73-1.67,3.73-3.73s-1.67-3.73-3.73-3.73Z"/>
          </g>
          <g>
            <g>
              <path class="cls-4" d="m77.91,214.44c6.91,0,13.25,4.05,16.16,10.32.73,1.58,2.31,2.57,4.03,2.57.1,0,.19,0,.29,0,.45-.03.81-.04,1.15-.04,7.23,0,13.64,4.34,16.33,11.06.68,1.7,2.33,2.8,4.13,2.8.18,0,.36-.01.55-.03.52-.06.94-.09,1.32-.09,5.89,0,10.67,4.79,10.67,10.67s-4.79,10.67-10.67,10.67H34.08c-5.95,0-10.8-4.84-10.8-10.8s4.84-10.8,10.8-10.8c.39,0,.8.03,1.31.09.18.02.36.03.54.03,1.78,0,3.41-1.07,4.11-2.75,2.73-6.6,9.11-10.86,16.25-10.86.33,0,.7.01,1.15.04.1,0,.19,0,.29,0,1.72,0,3.3-1,4.03-2.57,2.91-6.27,9.25-10.32,16.16-10.32m0-4.45c-8.95,0-16.66,5.28-20.19,12.9-.47-.03-.95-.05-1.43-.05-9.18,0-17.05,5.62-20.36,13.61-.61-.07-1.22-.12-1.85-.12-8.42,0-15.24,6.83-15.24,15.24s6.83,15.24,15.24,15.24h87.78c8.35,0,15.12-6.77,15.12-15.12s-6.77-15.12-15.12-15.12c-.63,0-1.26.05-1.87.13-3.24-8.12-11.18-13.86-20.46-13.86-.48,0-.96.02-1.43.05-3.53-7.62-11.24-12.9-20.19-12.9h0Z"/>
              <path class="cls-4" d="m426.09,113.71c5.59,0,10.73,3.28,13.08,8.36.59,1.28,1.87,2.08,3.26,2.08.08,0,.15,0,.23,0,.36-.02.66-.03.93-.03,5.86,0,11.05,3.52,13.22,8.96.55,1.38,1.88,2.26,3.34,2.26.15,0,.29,0,.44-.03.42-.05.76-.08,1.07-.08,4.77,0,8.64,3.88,8.64,8.64s-3.88,8.64-8.64,8.64h-71.08c-4.82,0-8.74-3.92-8.74-8.74s3.92-8.74,8.74-8.74c.31,0,.65.02,1.06.07.15.02.29.03.43.03,1.44,0,2.76-.87,3.32-2.22,2.21-5.34,7.38-8.8,13.16-8.8.27,0,.57.01.93.03.08,0,.16,0,.23,0,1.39,0,2.67-.81,3.26-2.08,2.36-5.08,7.49-8.36,13.09-8.36m0-3.6c-7.25,0-13.49,4.28-16.35,10.44-.38-.02-.77-.04-1.16-.04-7.44,0-13.81,4.55-16.48,11.02-.49-.06-.99-.1-1.49-.1-6.82,0-12.34,5.53-12.34,12.34s5.53,12.34,12.34,12.34h71.08c6.76,0,12.24-5.48,12.24-12.24s-5.48-12.24-12.24-12.24c-.51,0-1.02.04-1.51.1-2.63-6.58-9.05-11.22-16.56-11.22-.39,0-.78.02-1.16.04-2.86-6.17-9.1-10.44-16.35-10.44h0Z"/>
            </g>
            <g>
              <g>
                <g>
                  <path class="cls-9" d="m413.4,271.75c-.24-4.83-1.28-9.55-3.11-14.06l5.21-4.69-10.11-14.48-6.2,3.28c-3.6-3.27-7.67-5.87-12.13-7.76l.37-6.99-17.38-3.09-2.06,6.69c-4.83.24-9.55,1.28-14.06,3.11l-4.69-5.21-14.48,10.11,3.27,6.2c-3.27,3.6-5.87,7.67-7.76,12.13l-6.99-.37-3.09,17.39,6.69,2.06c.24,4.83,1.28,9.55,3.11,14.06l-5.21,4.69,10.11,14.48,6.2-3.28c3.6,3.27,7.67,5.87,12.13,7.76l-.37,6.99,17.38,3.09,2.06-6.69c4.83-.24,9.55-1.28,14.06-3.11l4.69,5.21,14.48-10.11-3.27-6.2c3.27-3.6,5.87-7.67,7.76-12.13l6.99.37,3.09-17.39-6.69-2.06Zm-12.7,7.47c-3.04,17.13-19.45,28.59-36.58,25.55-17.13-3.04-28.59-19.45-25.55-36.58,3.04-17.13,19.45-28.59,36.58-25.55,17.13,3.04,28.59,19.45,25.55,36.58Z"/>
                  <path class="cls-9" d="m374.41,246.76c-14.85-2.64-29.08,7.3-31.72,22.16-2.64,14.85,7.3,29.08,22.16,31.72,14.85,2.64,29.08-7.3,31.72-22.16,2.64-14.85-7.3-29.08-22.16-31.72Z"/>
                </g>
                <g>
                  <path class="cls-8" d="m411.94,272.87c-.13-5.46-1.34-10.74-3.44-15.58l5.01-4.52-8.59-12.3-5.97,3.15c-3.82-3.64-8.36-6.59-13.44-8.59l.35-6.73-14.78-2.62-1.99,6.44c-5.46.13-10.74,1.34-15.58,3.44l-4.52-5.01-12.3,8.59,3.15,5.97c-3.64,3.82-6.59,8.36-8.59,13.44l-6.73-.35-2.62,14.78,6.44,1.99c.13,5.46,1.34,10.74,3.44,15.58l-5.01,4.52,8.59,12.3,5.97-3.15c3.82,3.64,8.36,6.59,13.44,8.59l-.35,6.73,14.78,2.62,1.99-6.44c5.46-.13,10.74-1.34,15.58-3.44l4.52,5.01,12.3-8.59-3.15-5.97c3.64-3.82,6.59-8.36,8.59-13.44l6.73.35,2.62-14.78-6.44-1.99Zm-48.09,33.38c-17.97-3.19-29.96-20.35-26.77-38.32,3.19-17.97,20.35-29.96,38.32-26.77,17.97,3.19,29.96,20.35,26.77,38.32-3.19,17.97-20.35,29.96-38.32,26.77Z"/>
                  <circle class="cls-8" cx="369.63" cy="273.7" r="25.86" transform="translate(55.5 609.64) rotate(-83.44)"/>
                </g>
              </g>
              <g>
                <path class="cls-7" d="m471.1,226.68l4.53-1.54-2.56-12.44-4.77.38c-1.31-2.78-3.02-5.31-5.12-7.55l2.12-4.29-10.61-6.98-3.1,3.64c-2.88-1.04-5.88-1.61-8.96-1.71l-1.54-4.53-12.44,2.56.38,4.77c-2.78,1.31-5.32,3.02-7.55,5.12l-4.29-2.12-6.98,10.61,3.64,3.1c-1.04,2.88-1.61,5.89-1.71,8.96l-4.53,1.53,2.56,12.44,4.77-.38c1.31,2.78,3.02,5.32,5.12,7.55l-2.12,4.29,10.61,6.98,3.1-3.64c2.88,1.04,5.88,1.61,8.96,1.71l1.54,4.53,12.44-2.56-.38-4.77c2.78-1.31,5.32-3.02,7.55-5.12l4.29,2.12,6.98-10.61-3.64-3.1c1.04-2.88,1.61-5.88,1.71-8.96Zm-13.31,9.54c-5.96,9.06-18.18,11.58-27.24,5.62-4.39-2.89-7.39-7.31-8.45-12.46-1.06-5.14-.05-10.39,2.83-14.78,4.45-6.76,12.39-9.88,19.89-8.55,2.55.45,5.05,1.42,7.35,2.93,9.06,5.96,11.58,18.18,5.62,27.24Z"/>
                <path class="cls-5" d="m467.61,236.09c1.37-3.39,2.02-6.96,2.01-10.49l4.28-1.45-2.03-9.84-4.5.36c-1.39-3.25-3.4-6.27-5.99-8.84l2-4.05-8.39-5.52-2.93,3.44c-3.39-1.37-6.96-2.02-10.49-2.01l-1.45-4.28-9.84,2.03.36,4.5c-3.25,1.39-6.27,3.4-8.84,5.99l-4.05-2-5.52,8.39,3.44,2.93c-1.37,3.39-2.02,6.96-2.01,10.49l-4.28,1.45,2.03,9.84,4.5-.36c1.39,3.25,3.4,6.27,5.99,8.84l-2,4.05,8.39,5.52,2.93-3.44c3.39,1.37,6.96,2.02,10.49,2.01l1.45,4.28,9.84-2.03-.36-4.5c3.25-1.39,6.27-3.4,8.84-5.99l4.05,2,5.52-8.39-3.44-2.93Zm-37.88,6.99c-9.76-6.43-12.47-19.55-6.04-29.32,6.43-9.76,19.55-12.47,29.32-6.04,9.76,6.43,12.47,19.55,6.04,29.32s-19.55,12.47-29.32,6.04Z"/>
              </g>
            </g>
            <g>
              <g>
                <rect class="cls-8" x="138.93" y="32.44" width="68.29" height="51.49" rx="5.81" ry="5.81"/>
                <rect class="cls-4" x="142.06" y="42.31" width="62.03" height="38.29"/>
                <g>
                  <path class="cls-14" d="m165.31,59.12l-8.55,2.94,8.55,2.93v4.8l-14.39-5.22v-5.02l14.39-5.22v4.79Z"/>
                  <path class="cls-14" d="m175.05,48.17h5.64l-9.31,26.58h-5.64l9.31-26.58Z"/>
                  <path class="cls-14" d="m195.23,59.54v5.02l-14.39,5.22v-4.8l8.55-2.93-8.55-2.94v-4.79l14.39,5.22Z"/>
                </g>
                <circle class="cls-14" cx="156.2" cy="38.12" r="1.43"/>
                <circle class="cls-4" cx="149.85" cy="38.12" r="1.43"/>
                <circle class="cls-6" cx="143.49" cy="38.12" r="1.43"/>
              </g>
              <g>
                <rect class="cls-4" x="215.71" y="32.44" width="68.29" height="51.49" rx="5.81" ry="5.81"/>
                <rect class="cls-2" x="218.84" y="42.31" width="62.03" height="38.29"/>
                <path class="cls-14" d="m231.54,38.12c0-.79.64-1.43,1.43-1.43s1.43.64,1.43,1.43-.64,1.43-1.43,1.43-1.43-.64-1.43-1.43Z"/>
                <circle class="cls-8" cx="226.62" cy="38.12" r="1.43"/>
                <circle class="cls-6" cx="220.27" cy="38.12" r="1.43"/>
                <path class="cls-14" d="m254.86,50.15h-28.22c-.92,0-1.67.75-1.67,1.67h0c0,.92.75,1.67,1.67,1.67h28.22c.92,0,1.67-.75,1.67-1.67h0c0-.92-.75-1.67-1.67-1.67Z"/>
                <path class="cls-4" d="m246.78,56.23h-17.14c-.65,0-1.18.53-1.18,1.18h0c0,.65.53,1.18,1.18,1.18h17.14c.65,0,1.18-.53,1.18-1.18h0c0-.65-.53-1.18-1.18-1.18Z"/>
                <path class="cls-4" d="m268.62,56.23h-17.14c-.65,0-1.18.53-1.18,1.18h0c0,.65.53,1.18,1.18,1.18h17.14c.65,0,1.18-.53,1.18-1.18h0c0-.65-.53-1.18-1.18-1.18Z"/>
                <path class="cls-4" d="m231.72,60.12h-5.77c-.65,0-1.18.53-1.18,1.18h0c0,.65.53,1.18,1.18,1.18h5.77c.65,0,1.18-.53,1.18-1.18h0c0-.65-.53-1.18-1.18-1.18Z"/>
                <path class="cls-4" d="m243.71,60.12h-8.19c-.65,0-1.18.53-1.18,1.18h0c0,.65.53,1.18,1.18,1.18h8.19c.65,0,1.18-.53,1.18-1.18h0c0-.65-.53-1.18-1.18-1.18Z"/>
                <path class="cls-4" d="m272.31,60.12h-24.75c-.65,0-1.18.53-1.18,1.18h0c0,.65.53,1.18,1.18,1.18h24.75c.65,0,1.18-.53,1.18-1.18h0c0-.65-.53-1.18-1.18-1.18Z"/>
                <path class="cls-4" d="m251.48,70.83h17.14c.65,0,1.18-.53,1.18-1.18h0c0-.65-.53-1.18-1.18-1.18h-17.14c-.65,0-1.18.53-1.18,1.18h0c0,.65.53,1.18,1.18,1.18Z"/>
                <path class="cls-4" d="m229.64,70.83h17.14c.65,0,1.18-.53,1.18-1.18h0c0-.65-.53-1.18-1.18-1.18h-17.14c-.65,0-1.18.53-1.18,1.18h0c0,.65.53,1.18,1.18,1.18Z"/>
                <path class="cls-4" d="m266.55,66.94h5.77c.65,0,1.18-.53,1.18-1.18h0c0-.65-.53-1.18-1.18-1.18h-5.77c-.65,0-1.18.53-1.18,1.18h0c0,.65.53,1.18,1.18,1.18Z"/>
                <path class="cls-4" d="m254.55,66.94h8.19c.65,0,1.18-.53,1.18-1.18h0c0-.65-.53-1.18-1.18-1.18h-8.19c-.65,0-1.18.53-1.18,1.18h0c0,.65.53,1.18,1.18,1.18Z"/>
                <path class="cls-4" d="m225.95,66.94h24.75c.65,0,1.18-.53,1.18-1.18h0c0-.65-.53-1.18-1.18-1.18h-24.75c-.65,0-1.18.53-1.18,1.18h0c0,.65.53,1.18,1.18,1.18Z"/>
                <path class="cls-14" d="m271.62,50.15h-10.77c-.92,0-1.67.75-1.67,1.67h0c0,.92.75,1.67,1.67,1.67h10.77c.92,0,1.67-.75,1.67-1.67h0c0-.92-.75-1.67-1.67-1.67Z"/>
              </g>
            </g>
            <g>
              <path class="cls-14" d="m90.57,133.35L21.3,197.71c-5.43,5.05-5.74,13.54-.7,18.97h0c5.05,5.43,13.54,5.74,18.97.7l69.27-64.36c5.43-5.05,5.74-13.54.7-18.97h0c-5.05-5.43-13.54-5.74-18.97-.7Z"/>
              <path class="cls-2" d="m93.12,136.58l-68.78,63.91c-3.77,3.5-3.99,9.4-.48,13.17h0c3.5,3.77,9.4,3.99,13.17.48l68.78-63.91c3.77-3.5,3.99-9.4.48-13.18h0c-3.5-3.77-9.4-3.99-13.17-.48Z"/>
              <path class="cls-14" d="m27.54,200.95h0c-.71.66-.75,1.78-.09,2.49l6.86,7.38c.66.71,1.78.75,2.49.09h0c.71-.66.75-1.78.09-2.49l-6.86-7.38c-.66-.71-1.78-.75-2.49-.09Z"/>
              <path class="cls-14" d="m38.58,190.69h0c-.71.66-.75,1.78-.09,2.49l6.86,7.38c.66.71,1.78.75,2.49.09h0c.71-.66.75-1.78.09-2.49l-6.86-7.38c-.66-.71-1.78-.75-2.49-.09Z"/>
              <path class="cls-14" d="m49.63,180.42h0c-.71.66-.75,1.78-.09,2.49l6.86,7.38c.66.71,1.78.75,2.49.09h0c.71-.66.75-1.78.09-2.49l-6.86-7.38c-.66-.71-1.78-.75-2.49-.09Z"/>
              <path class="cls-14" d="m60.67,170.16h0c-.71.66-.75,1.78-.09,2.49l6.86,7.38c.66.71,1.78.75,2.49.09h0c.71-.66.75-1.78.09-2.49l-6.86-7.38c-.66-.71-1.78-.75-2.49-.09Z"/>
              <path class="cls-14" d="m71.72,159.9h0c-.71.66-.75,1.78-.09,2.49l6.86,7.38c.66.71,1.78.75,2.49.09h0c.71-.66.75-1.78.09-2.49l-6.86-7.38c-.66-.71-1.78-.75-2.49-.09Z"/>
              <path class="cls-14" d="m82.76,149.63h0c-.71.66-.75,1.78-.09,2.49l6.86,7.38c.66.71,1.78.75,2.49.09h0c.71-.66.75-1.78.09-2.49l-6.86-7.38c-.66-.71-1.78-.75-2.49-.09Z"/>
              <path class="cls-12" d="m90.57,133.35l-7.61,7.07c1.07,4.43,3.24,8.65,6.56,12.22,3.32,3.57,7.37,6.06,11.71,7.44l7.61-7.07c5.43-5.05,5.74-13.54.7-18.97s-13.54-5.74-18.97-.7Z"/>
              <path class="cls-14" d="m118.89,142.33l-16.92-18.22,15.64-14.53c-8.62-2.83-18.48-1.02-25.59,5.59-10.42,9.68-11.02,25.98-1.34,36.4,9.68,10.42,25.98,11.02,36.4,1.34,7.12-6.61,9.65-16.31,7.46-25.11l-15.64,14.53Z"/>
              <g class="cls-15">
                <path class="cls-4" d="m69.36,162.41l-21.89,20.34c-.43.4-.45,1.06-.05,1.49.4.43,1.06.45,1.49.05l21.89-20.34c.43-.4.45-1.06.05-1.49-.4-.43-1.06-.45-1.49-.05Z"/>
                <path class="cls-4" d="m80.32,152.23l-7.94,7.38c-.43.4-.45,1.06-.05,1.49.4.43,1.06.45,1.49.05l7.94-7.38c.43-.4.45-1.06.05-1.49-.4-.43-1.06-.45-1.49-.05Z"/>
              </g>
            </g>
          </g>
          <g>
            <g>
              <path class="cls-10" d="m151.94,334.76h-26.81c-1.17,0-2.11-.95-2.11-2.11s.95-2.11,2.11-2.11h11.46c1.17,0,2.11-.95,2.11-2.11s-.95-2.11-2.11-2.11H63.82c-1.17,0-2.11.95-2.11,2.11s.95,2.11,2.11,2.11h19.35c1.17,0,2.11.95,2.11,2.11s-.95,2.11-2.11,2.11h-4c-1.17,0-2.11.95-2.11,2.11s.95,2.11,2.11,2.11h72.78c1.17,0,2.11-.95,2.11-2.11s-.95-2.11-2.11-2.11Z"/>
              <path class="cls-10" d="m165.35,334.76h-6.27c-1.17,0-2.11.95-2.11,2.11s.95,2.11,2.11,2.11h6.27c1.17,0,2.11-.95,2.11-2.11s-.95-2.11-2.11-2.11Z"/>
            </g>
            <g>
              <path class="cls-10" d="m381.18,41.19h26.81c1.17,0,2.11.95,2.11,2.11s-.95,2.11-2.11,2.11h-11.46c-1.17,0-2.11.95-2.11,2.11s.95,2.11,2.11,2.11h72.78c1.17,0,2.11-.95,2.11-2.11s-.95-2.11-2.11-2.11h-19.35c-1.17,0-2.11-.95-2.11-2.11s.95-2.11,2.11-2.11h4c1.17,0,2.11-.95,2.11-2.11s-.95-2.11-2.11-2.11h-72.78c-1.17,0-2.11.95-2.11,2.11s.95,2.11,2.11,2.11Z"/>
              <path class="cls-10" d="m464.45,41.19h6.27c1.17,0,2.11-.95,2.11-2.11s-.95-2.11-2.11-2.11h-6.27c-1.17,0-2.11.95-2.11,2.11s.95,2.11,2.11,2.11Z"/>
              <path class="cls-10" d="m366.92,49.65h10.61c1.17,0,2.11-.95,2.11-2.11s-.95-2.11-2.11-2.11h-10.61c-1.17,0-2.11.95-2.11,2.11s.95,2.11,2.11,2.11Z"/>
            </g>
          </g>
        </g>
      </g>
    </g>
  </g>
</svg>