<?xml version="1.0" encoding="UTF-8"?>
<svg id="Layer_2" data-name="Layer 2" xmlns="http://www.w3.org/2000/svg" viewBox="0 0 97 100">
  <defs>
    <style>
      .cls-1 {
        stroke-width: 0px;
        fill: #fff;
      }
    </style>
  </defs>
  <g id="Layer_1-2" data-name="Layer 1">
    <g>
      <path class="cls-1" d="m97,70.25c0-10.39,0-20.79,0-31.19,0-1.54-.29-1.88-1.82-2.16-.58-.11-1.16-.21-1.75-.3-7.97-1.13-15.62.09-22.99,3.24-.97.42-1.22,1.04-.89,2.08.26.81.53,1.61.85,2.57-1.23-.12-2.37-.1-3.44-.37-3.18-.8-6.33-1.67-9.48-2.58-5.35-1.55-10.11-.56-14.28,3.19-.28.25-.64.49-.99.57-3.02.71-6.08,1.17-9.17.85-2.2-.22-4.36-.75-6.64-1.16.39-1.12.68-1.96.96-2.79.47-1.4.22-1.96-1.17-2.53-7.89-3.28-16.03-4.36-24.48-2.77C.35,37.18,0,37.55,0,38.97c0,11.95,0,23.89,0,35.84,0,1.56.43,2,1.98,2,3.58,0,7.16-.01,10.74,0,3.01.02,2.69,0,3.59-2.44.02-.06.08-.1.15-.19.39.17.78.32,1.16.5,3.51,1.64,6.35,4.17,9.02,6.93,5.41,5.58,10.81,11.16,16.23,16.72,2.38,2.44,6.09,2.18,7.95-.51.28-.4.49-.85.77-1.35,1.85.86,3.73.97,5.57,0,1.85-.96,2.83-2.58,3.21-4.58,3.69.63,6.83-1.12,7.61-5.44,2.67.3,4.82-.51,6.2-2.82,1.39-2.3,1.04-4.59-.32-6.68,2.25-1.02,4.43-2.02,6.66-3.04.2.58.4,1.07.55,1.57.27.92.84,1.34,1.81,1.33,4.14-.02,8.27,0,12.41-.02,1.17,0,1.67-.52,1.69-1.69.02-1.62,0-3.23,0-4.85Zm-83.31,2.63c-.24.71-.53.98-1.29.97-2.82-.05-5.65-.02-8.47-.02-.29,0-.57-.03-.91-.05v-34.06c7.33-1.23,14.35-.3,21.25,2.4-1.21,3.52-2.39,6.97-3.58,10.41-2.34,6.78-4.69,13.56-7,20.36Zm57.18,10.1c-1.17.84-2.8.74-3.87-.34-2.09-2.1-4.14-4.24-6.21-6.36-.96-.99-1.92-1.99-2.9-2.97-.75-.75-1.64-.82-2.26-.2-.63.62-.59,1.5.16,2.27,2.7,2.8,5.4,5.59,8.12,8.36.97.99,1.32,2.13.82,3.43-.76,2-3.28,2.5-4.88.96-1.21-1.17-2.35-2.4-3.52-3.6-1.98-2.03-3.95-4.06-5.93-6.08-.82-.83-1.66-.89-2.32-.21-.6.62-.54,1.51.21,2.28,2.72,2.82,5.47,5.61,8.18,8.44,1.74,1.82.97,4.6-1.38,5.12-1.2.26-2.17-.2-3-1.07-2.98-3.07-5.97-6.13-8.96-9.19-.28-.28-.55-.57-.83-.85-1-1.02-1.82-1.19-2.53-.51-.73.71-.61,1.53.39,2.56,1.83,1.89,3.67,3.78,5.51,5.67.78.8,1.57,1.6,2.34,2.41,1.06,1.11,1.11,2.42.15,3.32-.91.86-2.21.77-3.23-.28-4.68-4.81-9.37-9.62-14.03-14.46-3.98-4.14-7.95-8.27-13.54-10.36,2.73-7.91,5.43-15.75,8.16-23.69,4.26,1.42,8.57,1.93,13.04,1.53-.99.94-1.97,1.9-2.98,2.83-1.83,1.68-2.71,3.74-2.7,6.24.02,4.75,0,9.51,0,14.26,0,1.48.49,1.94,1.98,1.88,3.71-.15,7-1.35,9.66-4.03,1.72-1.73,2.72-3.85,2.74-6.28.02-2.55,1.46-4.11,3.25-5.62.3.29.56.53.81.78,4.9,4.92,9.78,9.86,14.72,14.75.87.87,2.02,1.45,2.93,2.29,1,.93,2.02,1.9,2.76,3.04.8,1.22.29,2.85-.87,3.69Zm8.02-11.64c-1.46.67-2.89,1.42-4.36,2.06-2.41,1.06-4.22.68-6.09-1.19-5.41-5.43-10.82-10.87-16.24-16.3-1.29-1.29-1.72-1.34-3.06-.16-1.04.91-2.07,1.84-2.97,2.88-1.1,1.27-1.79,2.79-1.8,4.5,0,3.18-1.54,5.41-4.24,6.82-1.28.67-2.72,1.04-4.25,1.61-.03-.6-.05-.92-.05-1.24,0-3.96.03-7.92-.02-11.88-.02-1.81.62-3.24,1.94-4.45,2.4-2.2,4.76-4.45,7.11-6.71,3.42-3.28,7.37-4.18,11.9-2.84,3.27.96,6.56,1.86,9.87,2.64,1.32.31,2.74.27,4.11.32.5.02.74.15.91.65,2.54,7.42,5.09,14.83,7.66,22.23.2.56.1.83-.42,1.07Zm15.09,2.49h-1.5c-2.69,0-5.38.02-8.07-.03-.32,0-.83-.29-.93-.56-3.58-10.29-7.12-20.59-10.66-30.9-.02-.05,0-.12.01-.27,6.81-2.67,13.83-3.6,21.15-2.37v34.12Z"/>
      <path class="cls-1" d="m14.82,34.48c6.04,0,12.08,0,18.12,0h1.18c0,1.32,0,2.47,0,3.62,0,1.56.45,2.04,1.97,2.04,8.27,0,16.55,0,24.82,0,1.51,0,1.96-.48,1.96-2.04,0-1.18,0-2.36,0-3.62h1.28c6.07,0,12.15,0,18.22,0,1.47,0,1.97-.51,1.98-1.95,0-1.98.03-3.96,0-5.94-.05-2.86-.88-5.51-2.79-7.64-1.3-1.44-2.91-2.6-4.41-3.91,2.97-4.7,2.69-9.33-.92-12.61-3.36-3.05-8.4-3.26-11.94-.47-1.75,1.37-2.88,3.15-3.34,5.33-.63,2.99.19,5.64,2.11,8.03-2.93,1.36-4.99,3.48-6.37,6.31-.46-.24-.83-.44-1.21-.64,4.06-5.27,1.94-10.6-.89-13.03-3.53-3.03-8.67-3.05-12.18,0-3.75,3.27-4.09,8-.89,13.04-.4.2-.79.4-1.05.53-.98-1.28-1.79-2.59-2.84-3.64-1.06-1.05-2.37-1.83-3.56-2.73,3.65-4.51,2.34-9.91-.83-12.77-3.55-3.2-8.94-3.19-12.47.03-3.17,2.88-4.39,8.27-.73,12.8-.05.07-.07.1-.1.11-.17.1-.34.2-.51.29-4,2.17-6.29,5.54-6.71,10.07-.2,2.19-.06,4.42-.07,6.63,0,1.7.45,2.14,2.17,2.15ZM69.96,2.98c3.48-.01,6.32,2.79,6.31,6.24-.01,3.4-2.82,6.16-6.27,6.17-3.49,0-6.33-2.79-6.31-6.23.02-3.4,2.83-6.16,6.27-6.18Zm-10.55,19.84c1.25-2.56,3.18-4.32,5.91-5.15.37-.11.85-.08,1.21.05,2.31.86,4.6.85,6.92,0,.36-.14.84-.14,1.21-.04,3.73,1.08,6.47,4.48,6.7,8.4.1,1.77.02,3.54.02,5.38h-18.5c-.11-.57-.22-1.15-.34-1.72-.45-2.14-1.42-4.03-2.9-5.63-.39-.42-.49-.75-.23-1.28Zm-10.91-14.17c3.46,0,6.32,2.86,6.29,6.28-.03,3.4-2.85,6.16-6.29,6.16-3.48,0-6.31-2.83-6.29-6.27.03-3.38,2.88-6.18,6.29-6.18Zm-4.79,14.76c.42-.14.98-.11,1.4.04,2.26.81,4.48.82,6.74.01.45-.16,1.04-.17,1.5-.03,3.67,1.15,6.28,4.45,6.53,8.33.11,1.77.02,3.54.02,5.37h-22.66c0-2.17-.25-4.28.05-6.3.56-3.74,2.85-6.2,6.41-7.42ZM27.06,2.98c3.45.03,6.24,2.81,6.24,6.21,0,3.44-2.85,6.22-6.34,6.2-3.45-.02-6.24-2.8-6.24-6.2,0-3.44,2.86-6.24,6.34-6.21Zm-11.25,22.16c.56-3.78,2.88-6.25,6.49-7.45.39-.13.91-.1,1.3.05,2.28.84,4.54.83,6.83,0,.39-.14.91-.17,1.3-.04,2.68.83,4.59,2.57,5.82,5.1.25.51.21.84-.19,1.29-1.71,1.86-2.75,4.07-3.08,6.59-.06.49-.13.86-.79.85-5.8-.02-11.61-.02-17.41-.02-.13,0-.25-.04-.32-.05,0-2.19-.25-4.29.05-6.32Z"/>
    </g>
  </g>
</svg>