<?xml version="1.0" encoding="UTF-8"?>
<svg id="Layer_2" data-name="Layer 2" xmlns="http://www.w3.org/2000/svg" viewBox="0 0 98 100">
  <defs>
    <style>
      .cls-1 {
        stroke-width: 0px;
        fill: #fff;
      }
    </style>
  </defs>
  <g id="Layer_1-2" data-name="Layer 1">
    <g>
      <path class="cls-1" d="m74.28,80.36c-.49-5.47-3.14-9.47-8.29-11.64-.42-.18-.82-.39-1.24-.55-4.73-1.76-9.47-3.51-14.2-5.27-1.11-.41-2.61-.6-3.19-1.42-.62-.88-.35-2.38-.51-3.61-.07-.54.15-.77.58-1.07,1.72-1.21,3.54-2.33,5.04-3.78,4.24-4.09,6.6-8.99,6.49-15.09-.16-9.31-.04-18.62-.04-27.92v-1.21h-1.08c-8.17,0-16.34,0-24.5,0-9.3,0-16.35,7.08-16.38,16.44-.01,4.69-.05,9.37.03,14.06.03,1.51.2,3.08.65,4.51,1.75,5.68,5.45,9.82,10.49,12.79.74.43,1.02.85.87,1.67-.13.77-.21,1.55-.22,2.33,0,.85-.38,1.22-1.17,1.5-5.66,2.06-11.31,4.12-16.93,6.27-5.14,1.97-8.37,5.59-8.96,11.22-.45,4.4-.76,8.81-1.13,13.22-.2,2.4-.39,4.79-.59,7.19h49.01v-2.93c-1.07,0-2.09-.02-3.12,0-.56.02-.83-.12-1.02-.72-1-3.13-3.75-5.14-6.93-5.15-3.17,0-5.94,2.02-6.96,5.11-.14.42-.19.76-.79.76-5.28-.02-10.56-.01-15.99-.01v-.97c0-5.34,0-10.68,0-16.01,0-1.58.44-2.02,2.03-2.02,14.46,0,28.91,0,43.37,0,1.64,0,2.05.43,2.05,2.09,0,5.31,0,10.61,0,15.92v.96h-3.89v2.97h18.09c-.06-.61-.14-1.22-.19-1.84-.46-5.94-.85-11.88-1.38-17.81Zm-36.53,13.79c1.9-.07,3.55,1.04,4.2,2.89h-8c.4-1.61,2-2.83,3.8-2.89ZM20.61,20.6c1.78-5.14,6.64-8.82,11.98-8.86,7.58-.06,15.16-.02,22.74-.02.19,0,.38.02.62.04v18.56c-1.9-.38-3.76-.75-5.62-1.12-8.31-1.66-16.62-3.32-24.93-5-.59-.12-.95,0-1.35.43-1.29,1.36-2.63,2.67-4.15,4.21,0-2.98-.18-5.64.71-8.22Zm3.9,29.38c-2.4-2.64-4.18-5.65-4.54-9.29-.13-1.25-.02-2.53-.02-4.14-.86-2.61.53-4.62,2.69-6.37.85-.69,1.6-1.52,2.34-2.34.42-.47.85-.59,1.45-.47,9.61,1.95,19.22,3.88,28.83,5.83.27.06.71.37.71.55-.07,2.85.17,5.78-.39,8.54-1.31,6.55-8.95,14.51-18.22,14.13-5.22-.21-9.4-2.66-12.85-6.45Zm19.84,13.06c0,3.42-2.99,6.24-6.45,6.21-3.47-.03-6.42-2.86-6.4-6.28.01-1.52.24-3.03.38-4.62,4.05,1.35,7.99,1.36,12.1,0,.13,1.64.37,3.16.36,4.68Zm20.22,33.96v-1.05c0-5.34,0-10.67,0-16.01,0-3.03-1.76-4.81-4.75-4.81-14.58,0-29.17,0-43.75,0-3,0-4.77,1.78-4.78,4.79,0,5.66,0,11.32,0,17.1H3.24c.09-1.36.16-2.68.27-3.99.37-4.47.68-8.95,1.16-13.41.42-3.93,2.61-6.68,6.25-8.14,4.05-1.63,8.16-3.12,12.25-4.66,1.82-.68,3.65-1.33,5.53-2.02,1.53,4.7,4.62,7.49,9.65,7.32,4.63-.16,7.44-2.9,8.84-7.33,2.38.87,4.75,1.72,7.11,2.6,3.51,1.32,7.04,2.62,10.52,4,3.96,1.58,6.13,4.6,6.53,8.81.53,5.57.92,11.15,1.38,16.8h-8.14Z"/>
      <path class="cls-1" d="m51.93,100h2.92v-2.86h-2.92v2.86Z"/>
      <path class="cls-1" d="m97.94,10.43C97.85,4.29,93.45.01,87.33,0c-5.06,0-10.11,0-15.17,0-5.99,0-11.5,4.97-10.18,13.14h2.78c0-.86,0-1.67,0-2.47.01-4.63,3.08-7.73,7.67-7.73,4.99,0,9.98,0,14.97,0,4.36,0,7.52,2.94,7.61,7.29.11,5.27.1,10.55,0,15.82-.08,4.3-3.2,7.25-7.51,7.32-1.46.02-2.92-.04-4.37.03-.51.02-1.08.2-1.5.49-2.41,1.71-4.77,3.47-7.16,5.22-.27.2-.55.38-.99.69v-6.42c-.43,0-.78,0-1.13,0-4.54-.07-7.59-3.16-7.6-7.72,0-2.8,0-5.6,0-8.4v-1.06h-2.86c-.02.24-.05.43-.05.62,0,3.16-.03,6.31.01,9.47.04,2.91,1.21,5.35,3.34,7.33,1.51,1.41,3.33,2.21,5.42,2.59v9.31c.39-.26.65-.43.91-.61,2.75-2.01,5.61-3.89,8.22-6.07,2.29-1.91,4.67-2.68,7.68-2.6,6.07.17,10.44-4.27,10.53-10.36.08-5.14.08-10.29,0-15.43Z"/>
      <path class="cls-1" d="m79.57,12.32c-.74,3.71-1.48,7.38-2.23,11.11.99.2,1.87.38,2.85.59.74-3.72,1.48-7.39,2.22-11.12-.99-.2-1.86-.38-2.85-.57Z"/>
      <path class="cls-1" d="m73.01,13.43c-1.64,1.64-3.23,3.23-4.74,4.74,1.52,1.53,3.11,3.12,4.7,4.71.6-.59,1.26-1.24,2.05-2-.98-.91-1.93-1.78-3.1-2.87,1.09-.95,2.08-1.81,3.03-2.63-.76-.77-1.4-1.41-1.93-1.95Z"/>
      <path class="cls-1" d="m86.75,22.92c1.62-1.65,3.21-3.29,4.74-4.85-1.51-1.51-3.1-3.11-4.63-4.63-.63.57-1.33,1.2-2.17,1.97,1.01.92,1.96,1.79,3.1,2.82-1.06.97-2.02,1.85-2.98,2.73.74.76,1.37,1.4,1.94,1.98Z"/>
      <path class="cls-1" d="m47.19,14.69h-2.78v2.84h2.78v-2.84Z"/>
      <path class="cls-1" d="m53.03,14.69h-2.79v2.8h2.79v-2.8Z"/>
    </g>
  </g>
</svg>