<?xml version="1.0" encoding="UTF-8"?>
<svg id="Layer_2" data-name="Layer 2" xmlns="http://www.w3.org/2000/svg" viewBox="0 0 100 100">
  <defs>
    <style>
      .cls-1 {
        stroke-width: 0px;
        fill: #fff;
      }
    </style>
  </defs>
  <g id="Layer_1-2" data-name="Layer 1">
    <g>
      <path class="cls-1" d="m98.21,23.96c-1.69-1.39-4.12-1.45-5.89-.15-1.81,1.32-2.47,3.59-1.58,5.72.24.57.12.9-.24,1.33-2.48,2.99-4.94,6.01-7.41,9.01-.84,1.02-2.76,1.12-3.71.18-1.81-1.8-3.61-3.6-5.42-5.4-1.08-1.09-2.16-2.18-3.26-3.29-.47.36-.84.64-1.21.92-2.25,1.75-4.5,3.5-6.77,5.23-.27.2-.71.32-1.03.27-.78-.12-1.54-.37-2.41-.59-.46-3.62-.93-7.33-1.4-11.05h-15.74c-.4,3.11-.87,6.19-1.15,9.28-.12,1.39-.5,2.29-1.95,2.66-.55.14-.9.15-1.34-.21-1.54-1.24-3.12-2.44-4.68-3.65-1.21-.94-2.43-1.87-3.56-2.75-3.75,3.74-7.43,7.4-11.16,11.11,2.27,2.92,4.59,5.9,7,9.01-.35,0-.46.03-.55,0-4.86-1.93-9.72-3.86-14.57-5.83-.24-.1-.46-.52-.51-.82-.34-2.32-2-4.06-4.24-4.35-2.14-.28-4.26.96-5.08,2.99-.83,2.04-.19,4.32,1.59,5.65,1.83,1.37,4.15,1.26,6.05-.22.27-.21.8-.29,1.11-.18,1.82.67,3.62,1.42,5.43,2.14,2.42.97,4.84,1.93,7.27,2.9,0,.07,0,.14-.01.21-2.94.37-5.88.75-8.85,1.13v15.66c.44.07.86.15,1.29.2,2.93.36,5.86.71,8.79,1.08,1.73.22,2.5,2.09,1.44,3.45-2.08,2.67-4.16,5.33-6.19,7.94,3.73,3.72,7.41,7.39,11.14,11.11.26-.19.58-.42.89-.67,2.44-1.89,4.89-3.77,7.31-5.68.5-.4.88-.39,1.51-.22,1.41.37,1.82,1.24,1.81,2.53,0,.5.12,1,.18,1.49.33,2.62.66,5.23,1,7.88h15.72c.08-.52.15-1.01.22-1.5.39-3.02.76-6.04,1.16-9.06.04-.27.15-.61.35-.75,1.4-.95,2.08-.91,3.42.13.08.06.16.13.24.19,2.46,1.91,4.92,3.81,7.32,5.67,3.74-3.72,7.42-7.38,11.16-11.09-.2-.27-.44-.59-.68-.91-1.9-2.43-3.78-4.88-5.71-7.28-.42-.52-.35-.9-.21-1.51.34-1.43,1.26-1.78,2.55-1.79.53,0,1.07-.13,1.6-.19,2.59-.33,5.18-.65,7.79-.98v-15.7c-3.29-.41-6.55-.81-9.81-1.21-1.26-.15-2.3-1.2-2.36-2.43,0-.15.08-.32.17-.44.65-.84,1.32-1.67,1.98-2.51,2.21,1.83,4.39,2.07,6.34.74,1.86-1.27,2.74-3.82,1.65-6.06-.11-.23.03-.71.21-.94,2.59-3.2,5.21-6.4,7.86-9.56.21-.26.74-.44,1.07-.38,2.27.38,4.39-.63,5.36-2.65.97-2.01.43-4.38-1.32-5.81ZM4.82,46.98c-.87,0-1.6-.74-1.59-1.61,0-.87.74-1.59,1.62-1.59.87,0,1.6.74,1.59,1.61,0,.87-.75,1.6-1.62,1.59Zm54.82-6.41c.87-.02,1.62.69,1.64,1.56.02.87-.7,1.61-1.57,1.63-.87.02-1.62-.7-1.64-1.57-.02-.87.7-1.61,1.57-1.63Zm-37.03,2.32c2.39-2.39,4.73-4.73,7.13-7.13,2.35,1.82,4.81,3.68,7.21,5.61.72.58,1.24.71,2.1.25,1.17-.64,2.44-1.1,3.71-1.53.65-.23.95-.49,1.03-1.23.34-3.16.78-6.3,1.19-9.5h10.05c.39,3.03.78,6.04,1.14,9.05.03.25-.14.57-.29.8-1.39,2.01-1.37,3.99.02,5.96.17.24.26.68.16.94-.42,1.05-.93,2.07-1.43,3.15-8.94-1.33-12.71.19-17.56,7.11-.94-.36-1.91-.7-2.85-1.11-.17-.07-.31-.39-.34-.61-.46-2.78-2.2-4.33-4.97-4.45-.27-.01-.63-.1-.78-.28-1.87-2.36-3.71-4.74-5.5-7.03Zm27.96,15.06c-.08.17-.43.28-.66.29-1.22.06-2.27.51-3.19,1.3-.2.17-.62.28-.86.19-1.86-.67-3.69-1.4-5.61-2.13,2.06-4.42,8.09-6.88,12.94-5.26-.87,1.88-1.72,3.76-2.61,5.62Zm1.03,5.16c-.02.87-.78,1.58-1.65,1.56-.87-.02-1.59-.77-1.56-1.64.02-.87.77-1.58,1.65-1.56.87.02,1.59.77,1.56,1.64Zm-6.88-.31c.23.1.4.54.45.84.43,2.67,2.76,4.52,5.36,4.22,2.54-.29,4.51-2.55,4.25-5.09-.09-.92-.66-1.78-.99-2.68-.11-.3-.29-.7-.18-.94.78-1.81,1.63-3.59,2.46-5.37,3.99,1.57,6.28,8.03,4.6,12.9-1.96,5.7-8.01,8.85-13.82,7.2-5.66-1.61-9.19-7.5-7.82-13.28,1.95.75,3.83,1.44,5.68,2.21Zm-14.09-7.82c.03.87-.69,1.62-1.56,1.65-.87.03-1.62-.68-1.65-1.55-.03-.87.68-1.62,1.56-1.65.87-.03,1.62.68,1.65,1.55Zm53.19,3.07v10.03c-3.23.41-6.42.83-9.62,1.19-.64.07-.89.31-1.11.9-.51,1.41-1.1,2.8-1.75,4.15-.28.58-.22.93.16,1.41,2,2.51,3.96,5.06,5.88,7.51-2.4,2.39-4.74,4.72-7.14,7.12-2.43-1.88-4.95-3.82-7.44-5.79-.54-.43-.95-.5-1.59-.19-1.32.64-2.69,1.22-4.08,1.7-.66.23-.85.55-.92,1.2-.36,3.15-.78,6.3-1.19,9.49h-10.05c-.41-3.21-.83-6.38-1.2-9.57-.07-.63-.29-.9-.89-1.11-1.42-.51-2.81-1.09-4.17-1.74-.58-.28-.94-.23-1.42.15-2.52,1.99-5.07,3.95-7.54,5.86-2.39-2.39-4.73-4.72-7.14-7.13,1.85-2.38,3.76-4.88,5.74-7.32.52-.65.53-1.12.16-1.84-.62-1.22-1.12-2.5-1.58-3.79-.23-.65-.49-.95-1.23-1.03-3.17-.34-6.32-.78-9.53-1.19v-10c2.64-.34,5.26-.69,7.89-.98.27-.03.67.23.84.47,1.85,2.62,4.84,3.04,7.35,1.05.25-.2.73-.27,1.04-.18.86.27,2,.44,2.42,1.06.37.54-.12,1.64-.2,2.49-.64,7.26,4.74,14.18,11.94,15.35,7.69,1.25,14.93-3.5,16.65-10.9,1.35-5.8-.87-11.65-5.73-15.13-.27-.19-.54-.39-.86-.62.52-1.12,1-2.22,1.55-3.29.1-.2.45-.36.7-.38,1.62-.1,2.88-.8,3.86-2.07.15-.2.48-.42.7-.39,3.45.49,6.89,1.02,10.54,1.58-1.15,1.47-2.15,2.83-3.24,4.12-.51.6-.53,1.05-.18,1.76.66,1.31,1.19,2.69,1.69,4.07.19.52.43.72.98.78,3.23.37,6.45.79,9.71,1.2Zm-8.33-15.07c-3.47-.57-6.96-1.07-10.43-1.64-.27-.04-.65-.29-.7-.51-.05-.23.17-.61.39-.79,1.83-1.46,3.7-2.88,5.57-4.33,2.23,2.22,4.38,4.37,6.57,6.56-.17.7-.65.83-1.39.71Zm5.11,4c-.87-.02-1.59-.77-1.56-1.64.02-.87.77-1.58,1.65-1.56.87.02,1.59.77,1.56,1.64-.02.87-.78,1.58-1.65,1.56Zm14.48-17.68c-.87-.04-1.57-.81-1.53-1.68.04-.87.81-1.57,1.68-1.52.87.04,1.57.81,1.53,1.68-.04.87-.82,1.57-1.68,1.52Z"/>
      <path class="cls-1" d="m39,16.46h-6.78V.41h-3.13v19.29h2.14c-2.91,2.91-5.83,5.82-8.58,8.56-2.85-2.84-5.77-5.75-8.66-8.63h2.07V6.87h-3.19v9.59h-6.81c5.56,5.54,11.08,11.04,16.47,16.41,5.45-5.43,10.96-10.93,16.46-16.4Z"/>
      <path class="cls-1" d="m67.78,29.25h3.13V13.17h-2.11c2.9-2.9,5.8-5.82,8.53-8.55,2.86,2.85,5.77,5.77,8.64,8.63h-2.04v9.55h3.19v-6.37h6.82c-5.55-5.53-11.05-11.01-16.48-16.42-5.46,5.44-10.98,10.94-16.51,16.46h6.81v12.79Z"/>
      <path class="cls-1" d="m16.06.44h-3.11v3.09h3.11V.44Z"/>
      <path class="cls-1" d="m87.02,29.23v-3.13h-3.07v3.13h3.07Z"/>
      <path class="cls-1" d="m64.84,53.25c5.65,9.14,2.29,18.92-3.84,23.67-3.24,2.51-6.9,3.85-11.01,3.81-5.99-.06-10.76-2.63-14.45-7.32-.89.64-1.7,1.22-2.51,1.8,5.56,8.24,18.45,12.19,28.82,5.06,10.49-7.22,11.31-20.62,5.54-28.71-.85.57-1.7,1.13-2.55,1.7Z"/>
      <path class="cls-1" d="m33.12,68.65c-1.03.34-1.96.66-3.05,1.02.43,1,.82,1.92,1.23,2.9,1.03-.54,1.93-1.01,2.84-1.49-.36-.86-.67-1.59-1.03-2.43Z"/>
    </g>
  </g>
</svg>