<?xml version="1.0" encoding="UTF-8"?>
<svg id="Layer_2" data-name="Layer 2" xmlns="http://www.w3.org/2000/svg" viewBox="0 0 100 100">
  <defs>
    <style>
      .cls-1 {
        stroke-width: 0px;
        fill: #fff;
      }
    </style>
  </defs>
  <g id="Layer_1-2" data-name="Layer 1">
    <g>
      <path class="cls-1" d="m2,95.23c1.71.01,3.43-.06,5.14.02,1.31.07,2.11-.39,2.74-1.56,1.45-2.69,2.95-5.36,4.55-7.96,1.2-1.95,1.99-4.01,2.29-6.27.09-.7.26-1.39.41-2.07.04-.2.17-.37.26-.56.33.32.47.64.5.97.48,5.19.95,10.38,1.42,15.56.13,1.39.64,1.87,2.08,1.87,1.82,0,3.63,0,5.45,0,1.65,0,2.18-.52,2.18-2.16-.02-5.04-.2-10.09-.02-15.13.11-3.08-.55-5.71-2.73-7.89-1.65-1.65-2.23-3.48-1.51-5.8.47-1.51.58-3.14.84-4.7,2.99-.43,5.84-.86,8.71-1.23,1.2-.15,2.24-.5,3.16-1.35,1.39-1.27,2.88-2.42,4.33-3.63.73,1.49,1.09,1.65,2.69,1.42,10.63-1.55,20.01-5.97,28.49-12.43,7.75-5.91,14.13-13.1,19.77-20.99.58-.81,1.08-2.04,1.85-2.27.78-.23,1.86.53,2.81.86,1.75.63,2.76-.15,2.59-2.02-.38-4.29-.77-8.57-1.15-12.85-.14-1.59-1.12-2.19-2.58-1.54-4.39,1.93-8.79,3.86-13.15,5.86-.52.24-1.1.94-1.14,1.46-.03.52.48,1.21.94,1.59.76.63,1.68,1.07,2.66,1.67-1.43,1.68-2.74,3.34-4.18,4.89-9.99,10.74-22.16,17.49-36.66,19.92-2.21.37-2.38.51-2.41,2.65-.01.67-.26,1-.85,1.29-3.11,1.51-6.27,2.95-9.26,4.67-1.76,1.01-3.36.65-5.12.4,2.56-4.41,2.54-7.43-.04-10.17-2.18-2.31-5.68-2.93-8.52-1.5-1.43.72-2.51,1.79-3.23,3.21-1.23,2.43-.96,4.84.28,7.22-2.95.74-4.7,2.48-5.29,5.34-1.07,5.2-2.12,10.4-3.2,15.59-.28,1.36-.29,2.7.5,3.89.4.6.39,1.1.19,1.76-2,6.64-4.71,13-7.49,19.33-.71,1.62-.03,2.65,1.72,2.66Zm43.42-52.88c4.06-1.15,7.94-2,11.64-3.35,13.09-4.76,23.68-12.9,31.87-24.17.87-1.2.69-2.03-.58-2.84-.4-.25-.79-.49-1.36-.84,3.02-1.34,5.87-2.59,8.8-3.89.26,2.99.52,5.86.79,8.9-.6-.22-1.12-.4-1.62-.59-1.37-.5-1.83-.31-2.73.87-3.27,4.26-6.39,8.66-9.9,12.71-6.54,7.53-14.22,13.68-23.33,17.92-4.1,1.91-8.36,3.28-12.8,4.14-.29.05-.58.05-.77.07v-8.92Zm-23.7-3.61c2.22,0,4.05,1.79,4.06,4,.02,2.22-1.78,4.04-4,4.06-2.21.02-4.04-1.78-4.06-4-.02-2.21,1.79-4.05,4-4.06Zm-11.46,29.52c1.06-5.23,2.13-10.46,3.21-15.69.41-1.96,1.83-2.96,3.83-2.7,4.13.54,8.25,1.13,12.38,1.63.72.09,1.56-.02,2.21-.33,3.06-1.45,6.07-3.01,9.11-4.52.32-.16.65-.3,1.05-.48.21,1.63.13,2.92-1.4,3.97-1.88,1.29-3.53,2.9-5.31,4.33-.35.28-.8.51-1.24.57-3.29.5-6.58.97-9.87,1.42-1.02.14-1.54.66-1.7,1.67-.49,3.05-1.06,6.09-1.5,9.14-.08.56.15,1.27.48,1.75,1.14,1.66,2.42,3.22,3.58,4.87.31.44.57,1.03.58,1.55.07,5.34.08,10.69.1,16.03,0,.13-.03.26-.05.48h-3.29c-.15-1.58-.32-3.14-.46-4.7-.35-3.78-.69-7.56-1.02-11.34-.08-.89-.57-1.38-1.34-1.7-2.69-1.14-5.37-2.3-8.05-3.45-1.35-.58-1.61-1.05-1.31-2.51Zm.82,5.84s.03,0,.09.02c.97.44,2.39.64,2.8,1.39.4.74-.25,2.03-.37,3.09-.26,2.25-1.15,4.23-2.33,6.15-1.3,2.11-2.5,4.29-3.7,6.47-.34.62-.73.86-1.42.8-.65-.06-1.32-.01-1.92-.01,2.3-6.01,4.56-11.95,6.84-17.91Z"/>
      <path class="cls-1" d="m93.07,45.19c-3.9,0-7.8,0-11.7,0-1.86,0-2.33.47-2.33,2.31,0,7.57,0,15.13,0,22.7s0,15.27,0,22.9c0,1.59.53,2.13,2.11,2.13,3.97,0,7.93,0,11.9,0,1.59,0,2.13-.53,2.13-2.11,0-15.27,0-30.53,0-45.8,0-1.59-.53-2.13-2.11-2.13Zm-1.19,46.76h-9.56v-43.45h9.56v43.45Z"/>
      <path class="cls-1" d="m.01,100h99.96v-3.1H.01v3.1Z"/>
      <path class="cls-1" d="m43.31,13.02c.3.18.7.38.82.67.38.94-.06,1.91-1,2.45-1.19.68-1.39,1.19-1.01,2.48.66,2.2,1.79,4.12,3.37,5.78,1.08,1.14,1.53,1.2,2.91.45,1.45-.79,2.84.02,2.87,1.69.03,1.33.4,1.84,1.7,2.09,1.15.22,2.32.35,3.48.52,0-.03.01-.06.02-.09.44-.02.88-.01,1.31-.07.67-.09,1.33-.19,1.99-.33,1.55-.33,1.86-.73,1.9-2.34.01-.35,0-.8.19-1.04.66-.79,1.8-.91,2.75-.39,1.2.66,1.73.6,2.68-.37,1.55-1.58,2.68-3.43,3.39-5.53.57-1.68.39-2.09-1.16-3.03-.31-.19-.7-.5-.74-.81-.15-.97-.12-1.85,1.09-2.34,1.12-.46,1.29-1.13.95-2.31-.66-2.27-1.83-4.24-3.47-5.94-1-1.04-1.49-1.11-2.75-.41-1.53.84-2.91.06-2.95-1.66-.03-1.32-.42-1.8-1.71-2.09-2.19-.49-4.39-.56-6.59-.07-1.78.4-2.04.71-2.09,2.5,0,.32-.01.72-.2.93-.69.8-1.77.91-2.75.37-1.22-.66-1.72-.59-2.67.38-1.58,1.61-2.72,3.49-3.43,5.63-.52,1.56-.32,2.04,1.12,2.87Zm3.81-5.28c.11-.15.53-.21.74-.14,2.75.91,5.99-.9,6.63-3.69.05-.24.38-.54.63-.58.55-.11,1.13-.08,1.7-.1.91-.02,1.81-.02,1.71,1.31-.01.18.12.38.21.56.92,1.88,4.27,3.21,6.24,2.54.25-.09.75.01.88.2.58.81,1.06,1.68,1.54,2.46-.12.2-.14.29-.19.31-1.59.63-2.2,1.72-1.73,3.42.12.43.03.94-.03,1.4-.22,1.71-.16,1.85,1.35,2.73.17.1.34.21.68.43-.57.92-1.1,1.83-1.7,2.7-.11.15-.54.22-.74.14-1.29-.54-2.48-.39-3.64.36-.42.27-.95.41-1.3.75-.56.54-1.19,1.12-1.49,1.81-.61,1.42-.53,1.46-2.12,1.46-.34,0-.67-.02-1.01-.02-.64-.02-1.11-.2-1.05-.99.01-.19-.08-.39-.15-.58-.77-2.02-4.25-3.63-6.24-2.82-.57.23-.86.14-1.14-.34-.47-.8-.95-1.6-1.47-2.48.47-.27.75-.46,1.05-.61.9-.46,1.18-1.17,1.06-2.16-.1-.82-.12-1.68-.01-2.5.14-1.03-.12-1.78-1.07-2.25-.3-.15-.57-.34-1.04-.61.57-.93,1.11-1.84,1.71-2.71Z"/>
      <path class="cls-1" d="m60.28,58.11c-1.72,0-2.22.5-2.22,2.22,0,5.41,0,10.83,0,16.24s0,11.03,0,16.54c0,1.58.54,2.12,2.12,2.12,3.97,0,7.93,0,11.9,0,1.58,0,2.12-.54,2.12-2.12,0-10.96,0-21.92,0-32.89,0-1.58-.54-2.12-2.12-2.12-3.93,0-7.87,0-11.8,0Zm10.64,33.81h-9.56v-30.54h9.56v30.54Z"/>
      <path class="cls-1" d="m39.2,66.18c-1.58,0-2.12.54-2.12,2.12,0,4.1,0,8.2,0,12.31s0,8.34,0,12.51c0,1.58.54,2.12,2.12,2.12,3.97,0,7.93,0,11.9,0,1.58,0,2.12-.54,2.12-2.12,0-8.27,0-16.54,0-24.82,0-1.58-.54-2.12-2.12-2.12-3.97,0-7.93,0-11.9,0Zm10.72,25.78h-9.56v-22.47h9.56v22.47Z"/>
      <path class="cls-1" d="m56.4,20.98c3.56.02,6.5-2.88,6.5-6.43,0-3.57-2.89-6.48-6.46-6.48-3.56,0-6.46,2.91-6.45,6.48.01,3.52,2.88,6.4,6.4,6.43Zm0-9.68c1.76-.02,3.22,1.4,3.26,3.16.04,1.74-1.39,3.25-3.13,3.29-1.8.05-3.31-1.41-3.31-3.21,0-1.76,1.43-3.22,3.18-3.24Z"/>
    </g>
  </g>
</svg>