<?xml version="1.0" encoding="UTF-8"?>
<svg id="Layer_2" data-name="Layer 2" xmlns="http://www.w3.org/2000/svg" viewBox="0 0 100 100">
  <defs>
    <style>
      .cls-1 {
        stroke-width: 0px;
        fill: #fff;
      }
    </style>
  </defs>
  <g id="Layer_1-2" data-name="Layer 1">
    <g>
      <path class="cls-1" d="m93.67,50.84c-.26-.59-.28-1.05,0-1.64,2.84-5.78,5.06-11.79,5.86-18.19.62-4.98.82-10-.74-14.88-2.91-9.09-9.29-14.18-18.58-15.69-7.8-1.27-15.27.39-22.57,3.04-2.29.83-4.51,1.86-6.72,2.87-.66.3-1.15.33-1.81,0-5.34-2.61-10.89-4.62-16.76-5.64-5.35-.93-10.7-1.06-15.95.51C7.57,3.86,2.43,9.89.62,18.81c-1.42,7.05-.24,13.91,1.83,20.67.3.99,1.02,2.01.9,2.94-.1.83-1.11,1.54-1.67,2.33-2.64,3.71-2.11,8.8,1.28,11.99.5.47.53.81.32,1.41C1.22,63.84-.08,69.69.04,75.78c.09,4.72,1.07,9.24,3.53,13.33,3.72,6.16,9.37,9.37,16.34,10.5.86.14,1.72.26,2.59.39h5.08c1.95-.29,3.92-.52,5.86-.89,5.4-1.03,10.52-2.9,15.43-5.32.8-.4,1.44-.43,2.26-.03,5.63,2.77,11.51,4.79,17.73,5.74,1.15.18,2.3.33,3.46.49h5.28c2.04-.39,4.13-.61,6.1-1.21,8.89-2.69,14.14-8.77,15.74-17.82,1.3-7.35.27-14.59-2.23-21.59-1.04-2.9-2.31-5.72-3.53-8.55ZM57.73,6.57c5.72-2.2,11.6-3.65,17.77-3.61,3.28.02,6.49.52,9.53,1.8,6.88,2.92,10.56,8.3,11.71,15.52,1.05,6.62-.17,13.02-2.26,19.28-.8,2.39-1.8,4.72-2.67,7.01-3.48-5-6.89-9.9-10.38-14.91,2.39-3.56,2.47-7.34-.15-11.24-.81.63-1.54,1.19-2.26,1.76,1.92,3.94,1.44,7.03-1.37,9.09-2.44,1.79-5.88,1.58-8.08-.5-2.23-2.1-2.66-5.45-1.02-8.03,1.79-2.83,4.95-3.63,8.63-2.12.46-.77.94-1.57,1.41-2.35-1.95-1.59-6.44-2.34-10.2.37-4.97-3.46-9.89-6.89-14.84-10.33,1.28-.54,2.72-1.18,4.19-1.74ZM2.97,23.58c.25-5.63,1.86-10.75,5.98-14.82,3.51-3.47,7.87-5.1,12.68-5.6,7.79-.81,15.1,1.12,22.23,4,.95.39,1.88.82,2.6,1.14-4.18,2.96-8.48,5.78-12.53,8.92-8.33,6.48-15.4,14.17-21.32,22.91-.45.66-.82.88-1.7.79-1.52-.16-3.08,0-4.62.04-.02.09-.03.19-.05.28-.08-.13-.18-.25-.22-.38-2.01-5.58-3.31-11.29-3.04-17.26Zm38.8,70.1c-5.65,2.12-11.45,3.49-17.52,3.36-3.95-.09-7.77-.83-11.26-2.77-5.58-3.1-8.57-8.01-9.63-14.17-1.13-6.55.03-12.88,2.03-19.11.21-.65.45-1.29.68-1.93.02-.06.06-.11.15-.25,1.74.53,3.47.65,5.23.28.27-.06.73.29.94.57,2.64,3.38,5.11,6.91,7.91,10.16,7.42,8.59,16.04,15.77,25.91,21.43.14.08.27.17.59.37-1.76.73-3.38,1.45-5.04,2.07Zm8.55-3.91c-.25.13-.75-.05-1.06-.22-4.92-2.63-9.52-5.75-13.86-9.26-7.85-6.35-14.67-13.64-20.35-21.99-.13-.19-.25-.38-.41-.62,2.71-2.12,4.14-4.85,3.92-8.47-.99.09-1.9.17-2.88.25.06,2.07-.56,3.83-2.06,5.22-1.14,1.06-2.51,1.6-4.06,1.68-2.96.15-5.73-1.93-6.42-4.82-.71-2.99.75-6.03,3.51-7.3,3.04-1.4,6.1-.37,8.4,2.89.81-.4,1.64-.82,2.72-1.35-1.05-1.23-2.02-2.36-3.12-3.66,1.73-2.28,3.47-4.75,5.38-7.08,8.18-10,17.78-18.34,29.19-24.52.38-.21,1.04-.29,1.4-.1,5.45,2.89,10.5,6.38,15.24,10.33.07.06.13.14.24.28-1.39,2.27-1.85,4.73-1.22,7.35.44,1.86,1.42,3.4,2.83,4.69,2.42,2.2,6.73,3.54,11.42.82,1.48,1.94,3.05,3.77,4.38,5.77,2.11,3.16,4.08,6.41,6.07,9.66.2.33.24.97.06,1.31-4.95,9.2-11.38,17.25-18.97,24.39-.05.04-.11.06-.23.12-1.96-1.57-4.23-2.3-6.77-2.09-1.76.15-3.34.76-4.84,1.9.57.75,1.14,1.49,1.75,2.29,1.78-1.23,3.7-1.63,5.76-1.03,1.43.41,2.56,1.27,3.4,2.49,1.71,2.47,1.43,5.82-.66,7.99-2.06,2.15-5.34,2.57-7.88,1.02-2.89-1.76-3.67-4.72-2.25-8.7-.77-.46-1.54-.93-2.43-1.46-1.64,2.89-1.68,5.79-.37,8.91-1.95,1.12-3.87,2.25-5.84,3.31Zm46.77-13.87c-.12,4.32-1.01,8.46-3.39,12.15-3.56,5.53-8.87,8.13-15.23,8.82-7.41.79-14.41-.95-21.24-3.6-1.29-.5-2.56-1.08-3.97-1.67,1.5-.91,2.84-1.76,4.23-2.52.21-.12.71.07.95.26,5.48,4.53,13.58,1.84,15.15-5.08.54-2.39.11-4.65-1.14-6.83,7.51-7.11,13.99-15.03,19.23-24.31.98,2.55,1.95,4.85,2.77,7.2,1.75,5.04,2.8,10.22,2.65,15.58Z"/>
      <path class="cls-1" d="m53.8,51.6c.93-.73,1.68-.8,2.71-.44,1.22.43,2.5.72,3.75,1.06.24.06.48.1.76.15.26-.95.51-1.81.77-2.74-1.1-.32-2.12-.61-3.14-.93-.92-.28-2.19-.32-2.66-.95-.47-.64-.12-1.87-.19-2.84-.04-.62.18-1,.66-1.4,2.34-1.9,3.67-4.37,3.81-7.39.08-1.88.09-3.78-.02-5.66-.31-5.11-4.33-9.06-9.57-9.49-4.79-.39-9.59,2.96-10.51,7.78-.49,2.58-.35,5.3-.27,7.95.07,2.29,1.02,4.41,2.76,5.85,1.46,1.21,1.79,2.54,1.6,4.22,0,.06-.01.13,0,.19.15.78-.26,1.07-.96,1.25-2.89.78-5.76,1.6-8.64,2.4-3.5.97-5.64,3.74-5.67,7.37-.02,2.02,0,4.03,0,6.05v1.14h-2.91v2.87h17.64v-2.92h-3.58v-3.94h-2.94v3.91h-5.15c-.05-.15-.1-.24-.1-.33,0-2.24-.02-4.49,0-6.73.01-2.34,1.23-3.92,3.49-4.57,2.97-.85,5.95-1.66,8.91-2.53.6-.18.99-.1,1.47.32,2.3,1.97,5.68,2.17,8.02.33Zm-1.95-27.46c3.73.98,6.3,4.97,5.33,8.46-.82-1.08-1.63-2.07-2.36-3.13-.38-.56-.82-.71-1.46-.7-3.02.03-6.04.01-9.06.01h-1.06c.89-3.43,4.99-5.59,8.61-4.64Zm-9.05,12.3c-.15-1.51-.03-3.04-.03-4.73,2.19,0,4.35.2,6.46-.05,2.68-.32,4.52.52,5.77,2.89.43.82,1.08,1.54,1.69,2.26.4.47.39.88.18,1.42-1.24,3.15-4.41,4.99-7.9,4.56-3.17-.38-5.85-3.06-6.17-6.35Zm4.68,12.42c-.14-.16-.27-.39-.27-.59-.03-.9-.01-1.79-.01-2.61h5.65c0,.83.01,1.78-.01,2.74,0,.17-.15.35-.27.49-1.22,1.36-3.89,1.34-5.08-.03Z"/>
      <path class="cls-1" d="m74.02,65.16h-2.94c0-2.47.02-4.81,0-7.14-.05-3.97-2.63-6.98-6.47-7.51-.25.88-.5,1.77-.76,2.7.41.13.71.22,1.02.32,1.9.6,3.09,1.89,3.21,3.86.14,2.4.07,4.81.05,7.21,0,.19-.3.54-.47.54-1.55.04-3.11.02-4.79.02v-3.97h-2.95v4.01h-13.14v2.86h27.25v-2.9Z"/>
      <path class="cls-1" d="m53.66,56.45c1.39.4,2.69.77,4.12,1.18.27-1,.52-1.91.77-2.84-1.48-.41-2.78-.77-4.11-1.13-.28,1-.51,1.85-.78,2.79Z"/>
      <path class="cls-1" d="m7.91,51.4h2.81v-2.81h-2.81v2.81Z"/>
      <path class="cls-1" d="m63.43,59.2c.27-.99.51-1.88.77-2.82-1-.28-1.86-.52-2.79-.77-.27.95-.52,1.82-.8,2.8,1,.28,1.89.53,2.83.79Z"/>
      <path class="cls-1" d="m65.92,80.91h-2.8v2.8h2.8v-2.8Z"/>
      <path class="cls-1" d="m72.53,27.54h2.8v-2.81h-2.8v2.81Z"/>
    </g>
  </g>
</svg>