<svg width="108" height="40" viewBox="0 0 108 40" fill="none" xmlns="http://www.w3.org/2000/svg">
<g clip-path="url(#clip0_675_2810)">
<path d="M31.051 23.8046C31.0443 23.9969 31.0376 24.1891 31.0176 24.3814C30.697 27.908 28.4996 30.9906 24.4721 33.5759C23.6773 34.0864 22.8157 34.5769 21.8806 35.041C21.8539 35.0542 21.8205 35.0675 21.7938 35.0807C18.6947 36.6253 15.1014 37.792 11.5815 38.6008C11.0605 38.7201 10.5396 38.8328 10.0186 38.9389C9.97853 38.9455 9.93846 38.9521 9.89838 38.9654C9.68465 39.0052 9.46424 39.0516 9.25051 39.0913C6.34512 39.6349 3.58666 39.9332 1.30242 39.9995H1.26234H1.26902C0.567721 39.9995 0 39.1841 0 38.1831C0 37.1822 0.567721 36.3668 1.26902 36.3668C2.7117 36.3668 6.08463 36.0088 9.93178 35.1934C10.1923 35.1404 10.4594 35.0807 10.7266 35.0211C10.9203 34.9747 11.1207 34.9349 11.321 34.8819C11.7418 34.7824 12.1626 34.683 12.5834 34.5703C13.7055 34.2852 14.8342 33.9604 15.9496 33.5958C15.9697 33.5892 15.9897 33.5826 16.0097 33.5759C23.2766 31.1828 27.4042 27.9147 27.9452 24.1295C27.9586 24.0234 27.9719 23.9107 27.9786 23.8046H31.051V23.8046Z" fill="#FAAF04"/>
<path d="M31.0507 24.004H27.9716C28.0651 21.9025 26.3152 19.1912 23.0024 16.3076C19.8232 13.5499 15.2547 10.6662 10.1318 8.20018C9.15001 7.72951 8.14815 7.2721 7.15965 6.84784L7.11958 6.83458C7.10622 6.82795 7.09954 6.82795 7.08618 6.82132L6.92588 6.7484C6.2179 6.35729 5.81048 5.27674 5.99749 4.27575C6.14443 3.48026 6.63868 2.9433 7.21976 2.9433C7.38674 2.9433 7.55372 2.9897 7.71401 3.07588C7.75409 3.09577 7.78748 3.11565 7.82088 3.14217C10.4057 4.31552 12.8302 5.52202 15.0142 6.72189L15.1011 6.76829C15.1879 6.81469 15.2747 6.8611 15.3615 6.9075C16.163 7.35165 16.9378 7.7958 17.6792 8.23995C26.6625 13.6162 31.1576 18.9062 31.0507 24.004Z" fill="#FAAF04"/>
<path d="M13.5384 32.8671C13.4182 33.1985 13.3047 33.53 13.1911 33.8415C13.0709 34.1796 12.9573 34.5045 12.8438 34.816C12.7303 35.1408 12.6167 35.4524 12.5165 35.7441C12.3896 36.0954 12.2761 36.4203 12.1692 36.7186C12.0423 37.0765 11.9288 37.4014 11.8286 37.6798C11.5748 38.3957 11.4145 38.8266 11.4011 38.8664C11.4078 38.8266 11.508 38.409 11.6683 37.7063C11.7284 37.4345 11.8019 37.1229 11.882 36.7716C11.9488 36.4799 12.0223 36.1617 12.1024 35.8236C12.1692 35.5386 12.236 35.2403 12.3095 34.9221C12.3763 34.6171 12.4497 34.299 12.5299 33.9741C12.6034 33.6692 12.6768 33.351 12.7503 33.0262C13.0108 32.9798 13.2713 32.9267 13.5384 32.8671Z" fill="#8E35FE"/>
<path d="M21.9737 6.48989L14.58 32.6682C14.1124 32.7743 13.6516 32.8737 13.1907 32.9665C12.9703 33.0129 12.7566 33.0527 12.5428 33.0991C12.249 33.1588 11.9618 33.2118 11.6746 33.2648L21.0653 0L21.3125 1.75008L21.3659 2.37985C21.3726 2.35333 21.3793 2.32019 21.3859 2.29367L21.5329 3.36095L21.6598 4.2824L21.8334 5.5353L21.8668 5.93305C21.8735 5.91316 21.8735 5.89327 21.8802 5.88001L21.9737 6.48989Z" fill="#8E35FE"/>
<path d="M6.82593 20.6702C7.16656 20.2791 7.50051 19.8946 7.83447 19.5101C8.9098 18.2837 9.98513 17.0507 11.0605 15.8243C11.1272 15.7514 11.1874 15.7315 11.2742 15.7514C11.7751 15.8774 12.276 15.9901 12.777 16.1094C12.8104 16.116 12.8504 16.1293 12.9172 16.1425C11.4612 17.8064 10.0252 19.4438 8.58252 21.0878C9.49088 23.2887 10.3992 25.4829 11.3209 27.697C11.2608 27.6904 11.2341 27.6838 11.2007 27.6772C10.6864 27.5578 10.1721 27.4385 9.66453 27.3126C9.6111 27.2993 9.55099 27.2529 9.52427 27.1932C8.62928 25.0454 7.74096 22.8909 6.84596 20.7365C6.83929 20.7232 6.83929 20.7033 6.82593 20.6702Z" fill="#8E35FE"/>
<path d="M22.7484 24.4288C21.84 22.2279 20.9317 20.0403 20.01 17.8262C20.0634 17.8328 20.0968 17.8394 20.1302 17.8461C20.6445 17.9654 21.1588 18.0913 21.6664 18.2107C21.7398 18.2305 21.7799 18.2703 21.82 18.3565C22.6949 20.4778 23.5699 22.5925 24.4515 24.7072C24.4983 24.8265 24.4783 24.8795 24.4115 24.9591C23.0222 26.5434 21.633 28.1278 20.2504 29.7122C20.197 29.7784 20.1435 29.7983 20.0701 29.7784C19.5291 29.6459 18.9881 29.5199 18.407 29.3873C19.8697 27.7168 21.3057 26.0794 22.7484 24.4288Z" fill="#8E35FE"/>
<path d="M34.8381 26.1386C34.8381 23.6394 35.1921 21.6308 35.9068 20.1127C36.6214 18.5947 37.5766 17.8389 38.7788 17.8389C39.8408 17.8389 40.6957 18.4422 41.3436 19.6421V11.3292H43.5877V34.3719H41.5573L41.4437 32.6948C40.7758 34.014 39.8742 34.6769 38.7587 34.6769C37.5899 34.6769 36.6415 33.9145 35.9201 32.3832C35.2055 30.8452 34.8381 28.7703 34.8381 26.1386ZM37.0823 26.4501C37.0823 28.1008 37.276 29.3868 37.6701 30.3149C38.0641 31.243 38.6185 31.7004 39.3398 31.7004C40.2549 31.7004 40.9294 31.0375 41.3502 29.705V22.7776C40.9361 21.4783 40.2749 20.8287 39.3532 20.8287C38.6252 20.8287 38.0641 21.2993 37.6701 22.234C37.2827 23.1621 37.0823 24.5741 37.0823 26.4501Z" fill="white"/>
<path d="M50.3332 34.6771C48.9106 34.6771 47.7551 33.9479 46.8735 32.4961C45.9918 31.0443 45.551 29.102 45.551 26.6824V26.2316C45.551 24.6141 45.7447 23.1623 46.1254 21.8895C46.5128 20.6167 47.0471 19.6224 47.7484 18.9131C48.4431 18.2037 49.2178 17.8458 50.0728 17.8458C51.4353 17.8458 52.4839 18.5484 53.2253 19.9604C53.9667 21.3724 54.3407 23.3678 54.3407 25.9465V27.4182H47.8152C47.882 28.7573 48.1559 29.8179 48.6434 30.6002C49.1243 31.3824 49.7321 31.7735 50.4668 31.7735C51.4954 31.7735 52.3303 31.0973 52.9782 29.745L54.1871 31.621C53.7863 32.5889 53.252 33.3446 52.5841 33.8816C51.9162 34.4053 51.1681 34.6771 50.3332 34.6771ZM50.0661 20.7692C49.4516 20.7692 48.9507 21.1205 48.5767 21.8166C48.1959 22.5193 47.9555 23.4938 47.8486 24.74H52.1232V24.4682C52.0765 23.2485 51.8761 22.327 51.5221 21.6973C51.1748 21.0808 50.6872 20.7692 50.0661 20.7692Z" fill="white"/>
<path d="M59.4842 29.751L61.6014 18.1368H63.9191L60.4593 34.3714H58.509L55.0159 18.1368H57.3402L59.4842 29.751Z" fill="white"/>
<path d="M70.1575 20.4238L72.9828 12.5352H75.6811L71.6203 23.3672L75.7746 34.3781H73.0496L70.1575 26.3702L67.2588 34.3781H64.5471L68.7082 23.3672L64.6339 12.5352H67.3323L70.1575 20.4238Z" fill="#FAAF04"/>
<path d="M79.4944 19.9138C80.2291 18.535 81.1508 17.8456 82.2729 17.8456C84.4035 17.8456 85.4855 19.821 85.5122 23.772V34.3785H83.2681V23.9046C83.2681 22.7842 83.1211 21.9888 82.8206 21.5247C82.52 21.0607 82.0859 20.8287 81.5048 20.8287C80.6031 20.8287 79.9352 21.4783 79.4944 22.7776V34.3719H77.2502V11.3292H79.4944V19.9138Z" fill="#8E35FE"/>
<path d="M93.8343 32.7817C93.1731 34.0412 92.238 34.6709 91.0291 34.6709C89.9471 34.6709 89.1256 34.1539 88.5712 33.1264C88.0168 32.0989 87.7363 30.6073 87.7363 28.6583V18.1446H89.9805V28.6186C89.9805 30.6802 90.5081 31.7077 91.5568 31.7077C92.6455 31.7077 93.3802 31.0713 93.7609 29.8052V18.1446H96.005V34.3793H93.8878L93.8343 32.7817Z" fill="#8E35FE"/>
<path d="M107.059 26.4236C107.059 28.9427 106.712 30.9513 106.017 32.4362C105.322 33.9278 104.374 34.6702 103.158 34.6702C101.99 34.6702 101.075 33.9874 100.427 32.6152L100.313 34.3719H98.2827V11.3292H100.527V19.7017C101.175 18.4621 102.043 17.8389 103.138 17.8389C104.354 17.8389 105.316 18.5748 106.01 20.0464C106.705 21.5181 107.052 23.5731 107.052 26.2115V26.4236H107.059ZM104.815 26.1054C104.815 24.3421 104.621 23.0229 104.24 22.1479C103.86 21.2662 103.305 20.8287 102.577 20.8287C101.602 20.8287 100.921 21.5181 100.527 22.8969V29.5857C100.928 30.9977 101.616 31.7004 102.597 31.7004C103.299 31.7004 103.84 31.2761 104.22 30.4276C104.601 29.5791 104.801 28.293 104.808 26.5695V26.1054H104.815Z" fill="#8E35FE"/>
</g>
<defs>
<clipPath id="clip0_675_2810">
<rect width="107.059" height="40" fill="white"/>
</clipPath>
</defs>
</svg>
