<?xml version="1.0" encoding="UTF-8"?><svg id="Layer_2" xmlns="http://www.w3.org/2000/svg" viewBox="0 0 100 100"><defs><style>.cls-1{fill:#1a9bd5;}.cls-1,.cls-2{stroke-width:0px;}.cls-2{fill:#fff;}</style></defs><g id="Layer_1-2"><circle class="cls-1" cx="50" cy="50" r="50"/><path class="cls-2" d="m34.28,79.35c-.74-.4-1-1.01-.95-1.84.05-.91,0-1.83.02-2.75.04-2.25,1.67-3.93,3.92-4.04.85-.04,1.71,0,2.65,0v-.67c0-1.76,0-3.51,0-5.27,0-1.01.31-1.42,1.28-1.69,2.71-.77,4.48-3,4.61-5.82.02-.5-.09-.8-.61-1.05-3.06-1.44-5.24-3.84-6.98-6.67-.74-1.2-1.31-2.5-1.98-3.74-.13-.23-.32-.47-.55-.61-5.84-3.49-9.45-8.54-10.73-15.23-.53-2.79,1.39-5.12,4.23-5.15,1.22-.02,2.45,0,3.67,0,.09,0,.18-.02.35-.05,0-.4,0-.8,0-1.19.05-1.71,1.25-2.91,2.96-2.91,9.21,0,18.42,0,27.62,0,1.72,0,2.91,1.18,2.96,2.9.01.4,0,.79,0,1.25,1.17,0,2.28-.02,3.38,0,.63.02,1.27.02,1.87.18,2.13.56,3.44,2.64,3.04,4.79-1.25,6.69-4.79,11.79-10.62,15.3-.38.23-.62.51-.8.91-1.46,3.3-3.36,6.31-6.23,8.58-.8.63-1.71,1.14-2.61,1.64-.35.2-.48.4-.49.78-.06,2.79,1.81,5.29,4.52,6.06,1.09.31,1.37.67,1.37,1.79,0,1.93,0,3.85,0,5.87.94,0,1.83-.04,2.72,0,1.84.09,3.42,1.28,3.7,3.09.23,1.47.15,3.01.07,4.51-.02.36-.57.69-.87,1.03h-31.53Zm15.74-55.97c-4.49,0-8.98,0-13.47,0-.48,0-.67.1-.66.63.03,2.02,0,4.05.02,6.07.05,5.05.81,9.96,2.82,14.63,1.25,2.9,2.87,5.57,5.35,7.61,2.67,2.19,5.63,3.01,8.96,1.71,2.5-.97,4.3-2.8,5.78-4.96,3.1-4.51,4.57-9.6,4.99-14.97.26-3.33.16-6.68.25-10.02.01-.55-.14-.71-.7-.7-4.45.02-8.9.01-13.35.01Zm-13.97,53.22h28.01c0-.47,0-.9,0-1.34,0-1.39-.46-1.85-1.85-1.85-8.12,0-16.23,0-24.35,0-.15,0-.31,0-.46,0-.78.06-1.29.52-1.34,1.3-.04.6,0,1.21,0,1.88Zm21.36-10.74h-14.73v4.8h14.73v-4.8Zm7.89-24.63c1.91-1.53,3.38-3.22,4.56-5.16,1.25-2.08,2.11-4.31,2.48-6.71.14-.9-.36-1.72-1.2-1.77-1.44-.08-2.89-.02-4.4-.02.12,4.59-.18,9.11-1.44,13.66Zm-32.09-13.69c-1.32,0-2.55,0-3.79,0-1.44,0-2.05.74-1.77,2.16.66,3.43,2.13,6.47,4.44,9.08.74.84,1.59,1.59,2.38,2.38.04-.03.09-.07.13-.1-1.22-4.41-1.51-8.93-1.39-13.53Zm13.04,35.53h7.59c-1.46-1.72-2.21-3.63-2.29-5.77h-3.03c-.07,2.17-.82,4.06-2.27,5.77Z"/><path class="cls-2" d="m44.35,43.01c.19-1.13.39-2.4.62-3.65.06-.34,0-.56-.25-.8-.85-.8-1.66-1.63-2.51-2.43-.46-.44-.66-.94-.46-1.55.19-.59.67-.85,1.26-.93,1.15-.16,2.3-.34,3.46-.48.35-.04.53-.19.68-.5.5-1.05,1.04-2.08,1.54-3.13.26-.55.66-.9,1.27-.91.64,0,1.05.35,1.33.92.51,1.07,1.03,2.13,1.58,3.18.1.18.33.38.53.41,1.13.19,2.26.34,3.4.49.65.09,1.2.3,1.42.97.21.66-.07,1.17-.55,1.63-.82.77-1.61,1.58-2.43,2.35-.22.21-.32.41-.25.74.22,1.1.39,2.22.58,3.33.11.63.09,1.23-.5,1.65-.58.41-1.14.28-1.72-.04-.94-.51-1.9-.97-2.83-1.51-.4-.23-.71-.21-1.1.01-1.01.57-2.05,1.11-3.09,1.62-1,.49-2.01-.16-1.99-1.37Zm9.69-7.03c-.75-.12-1.31-.23-1.87-.28-.66-.06-1.09-.4-1.36-.99-.24-.53-.51-1.04-.82-1.66-.31.64-.58,1.16-.83,1.69-.27.56-.68.89-1.32.95-.58.06-1.15.17-1.84.28.43.43.76.82,1.14,1.14.66.54.82,1.2.63,2-.11.49-.17.98-.27,1.59.64-.34,1.17-.6,1.68-.89.53-.3,1.04-.31,1.58-.01.53.29,1.07.56,1.7.89-.11-.69-.2-1.27-.31-1.84-.12-.64.04-1.16.54-1.59.43-.38.82-.78,1.34-1.28Z"/></g></svg>