<svg width="220" height="40" viewBox="0 0 220 40" fill="none" xmlns="http://www.w3.org/2000/svg">
<path d="M66.0693 21.224C66.0693 19.568 64.8213 18.56 62.9973 18.56H59.3973V23.768H63.0933C64.9413 23.768 66.0693 22.832 66.0693 21.224ZM65.6373 13.952C65.6373 12.44 64.5573 11.552 62.7813 11.552H59.3973V16.328H62.7813C64.5573 16.328 65.6373 15.488 65.6373 13.952ZM68.8053 21.512C68.8053 24.056 66.7413 26 63.3333 26H56.6613V9.32H63.0213C66.5493 9.32 68.4213 11.264 68.4213 13.616C68.4213 15.632 67.1973 16.856 65.5893 17.432C67.3653 17.744 68.8053 19.52 68.8053 21.512ZM80.9945 9.296V11.528H74.5145V16.424H80.2745V18.656H74.5145V23.768H80.9945V26H71.7785V9.296H80.9945ZM84.3645 26V9.32H87.3165L93.1725 22.4L99.0045 9.32H101.932V26H99.1965V14.576L94.1085 26H92.2125L87.1005 14.576V26H84.3645ZM116.785 26L115.585 22.592H108.601L107.401 26H104.545L110.521 9.296H113.689L119.665 26H116.785ZM114.817 20.36L112.105 12.608L109.369 20.36H114.817ZM131.119 14.312C131.119 12.632 130.159 11.552 128.023 11.552H124.999V17.144H128.023C130.159 17.144 131.119 15.968 131.119 14.312ZM122.263 9.32H128.023C131.983 9.32 133.927 11.6 133.927 14.312C133.927 16.28 132.871 18.392 130.063 19.088L134.191 26H130.927L127.087 19.328H124.999V26H122.263V9.32ZM146.619 26L140.163 18.536V26H137.427V9.32H140.163V16.928L146.643 9.32H150.075L142.827 17.672L150.195 26H146.619ZM161.83 9.296V11.528H155.35V16.424H161.11V18.656H155.35V23.768H161.83V26H152.614V9.296H161.83ZM164.336 11.552V9.32H175.976V11.552H171.536V26H168.8V11.552H164.336ZM178.747 26V9.32H181.483V26H178.747ZM196.043 9.296H198.779V26H196.043L187.811 13.544V26H185.075V9.296H187.811L196.043 21.728V9.296ZM209.98 9.104C213.46 9.104 216.46 10.856 217.732 14.12H214.444C213.556 12.44 211.972 11.6 209.98 11.6C206.668 11.6 204.268 13.952 204.268 17.624C204.268 21.296 206.668 23.672 209.98 23.672C213.004 23.672 214.9 21.848 215.308 19.04H209.044V16.856H218.236V18.992C217.732 22.856 214.468 26.144 209.98 26.144C205.276 26.144 201.46 22.64 201.46 17.624C201.46 12.632 205.276 9.104 209.98 9.104Z" fill="white"/>
<g clip-path="url(#clip0_351_3764)">
<path d="M35.7817 17.0471C34.8833 17.4448 34.0352 17.8134 33.1951 18.1993C33.0849 18.2498 32.9966 18.376 32.9317 18.4868C28.0649 26.754 18.3952 30.8855 8.95913 28.7194C6.96712 28.2618 5.07871 27.5281 3.28569 26.5469C2.53435 26.1353 1.69349 26.2402 1.12423 26.7963C0.255395 27.6449 0.463226 29.0343 1.56203 29.6416C4.28975 31.149 7.19014 32.1923 10.2829 32.568C19.736 33.7169 27.5831 30.6977 33.7494 23.5138C34.6184 22.5024 35.2914 21.3244 36.0462 20.217C36.1227 20.1051 36.1773 19.9419 36.161 19.8116C36.0497 18.9085 35.917 18.0092 35.7824 17.0483L35.7817 17.0471Z" fill="white"/>
<path d="M36.7404 15.3361C36.8702 16.2469 36.9928 17.109 37.1145 17.971C37.4254 20.1901 37.732 22.4102 38.0482 24.6287C38.1572 25.3908 38.5671 25.9318 39.326 26.1511C40.0649 26.3643 40.6995 26.1585 41.2008 25.5872C41.5945 25.1373 41.6501 24.601 41.5687 24.0259C41.0776 20.5638 40.5949 17.1007 40.109 13.6379C40.063 13.3088 40.0191 12.9793 39.9689 12.6502C39.7601 11.2646 38.6004 10.6226 37.3079 11.1912C34.7624 12.311 32.2207 13.4399 29.6778 14.5654C28.6489 15.0206 27.6172 15.4669 26.5941 15.9358C25.9155 16.2465 25.5468 16.7923 25.5468 17.539C25.5463 18.2674 25.8953 18.8144 26.5519 19.1421C27.1148 19.4227 27.6739 19.3453 28.2345 19.0953C30.9445 17.8889 33.6591 16.6928 36.3715 15.4931C36.473 15.4485 36.5748 15.4071 36.7402 15.337L36.7404 15.3361Z" fill="white"/>
</g>
<defs>
<clipPath id="clip0_351_3764">
<rect width="39" height="28" fill="white" transform="translate(6.86133 3) rotate(14.1835)"/>
</clipPath>
</defs>
</svg>
