<?xml version="1.0" encoding="UTF-8"?><svg id="Layer_2" xmlns="http://www.w3.org/2000/svg" xmlns:xlink="http://www.w3.org/1999/xlink" viewBox="0 0 100 100"><defs><style>.cls-1{clip-path:url(#clippath);}.cls-2{fill:none;}.cls-2,.cls-3,.cls-4{stroke-width:0px;}.cls-3{fill:#49ac8b;}.cls-4{fill:#fff;}</style><clipPath id="clippath"><rect class="cls-2" x="25" y="25" width="50" height="50"/></clipPath></defs><g id="Layer_1-2"><circle class="cls-3" cx="50" cy="50" r="50"/><g class="cls-1"><path class="cls-4" d="m50.5,38.36c-.11.06-.17.08-.22.12-2.59,1.65-5.17,3.3-7.76,4.94-.27.17-.27.35-.2.62.8,2.96,1.59,5.92,2.38,8.88.25.95.51,1.89.76,2.85,3.29.15,6.52.29,9.81.43-1.61-6.01-3.19-11.9-4.78-17.82h0Z"/><path class="cls-4" d="m43.97,55.9c-1.05-3.91-2.08-7.76-3.13-11.68-1.55.42-3.03.81-4.5,1.21-1.2.33-1.77,1.29-1.47,2.49.14.57.31,1.14.46,1.72.54,2,1.07,4.01,1.61,6.01.32,1.18,1.28,1.76,2.45,1.48.4-.09.8-.21,1.19-.31,1.12-.3,2.25-.61,3.39-.92h0Z"/><path class="cls-4" d="m58.53,58.14c.9.06,1.84-.86,1.47-2.2-1.8-6.59-3.55-13.2-5.33-19.8-.28-1.04-1.06-1.55-1.97-1.3-.87.24-1.3,1.09-1.03,2.09.94,3.53,1.89,7.07,2.83,10.6.83,3.12,1.67,6.24,2.52,9.35.22.8.77,1.25,1.51,1.25Z"/><path class="cls-4" d="m74.93,57.95c-.17-.37-.58-.5-1.06-.32-.5.2-1,.4-1.59.64.07-.22.1-.33.14-.44,1.27-3.68,1.66-7.45,1.06-11.31-1-6.43-4.12-11.61-9.29-15.55-.48-.36-.88-.35-1.18.02-.28.36-.18.79.26,1.15.49.39,1,.76,1.46,1.19,6.28,5.85,8.6,13,7.01,21.42-.18.96-.51,1.88-.76,2.83-.05,0-.09,0-.14,0-.21-.49-.41-.99-.63-1.48-.21-.47-.59-.64-.99-.48-.4.17-.56.57-.37,1.04.43,1.09.88,2.17,1.34,3.24.2.46.55.61,1.01.43,1.09-.43,2.17-.87,3.25-1.32.48-.2.66-.63.47-1.04h0Z"/><path class="cls-4" d="m69,63.01c-.31-.24-.72-.18-1.02.14-.08.09-.15.18-.22.27-5.56,7.29-14.71,10.42-23.58,8.08-.59-.16-1.17-.36-1.76-.54.5-.31.99-.51,1.47-.72.47-.21.66-.58.51-.98-.16-.42-.57-.58-1.07-.38-1.07.43-2.14.86-3.2,1.31-.49.21-.64.55-.45,1.04.43,1.09.87,2.17,1.33,3.25.19.46.6.63,1,.47.38-.16.53-.58.35-1.04-.2-.51-.4-1.01-.65-1.61.25.08.41.13.56.18,3.23,1.1,6.55,1.53,9.94,1.18,6.77-.71,12.27-3.75,16.52-9.07.14-.18.29-.36.41-.56.23-.37.16-.77-.16-1.01h0Z"/><path class="cls-4" d="m31.01,37c.35.23.69.19.98-.12.09-.09.17-.2.25-.31,5.53-7.29,14.85-10.46,23.68-8.05.55.15,1.09.35,1.64.52-.51.31-1,.51-1.48.72-.47.21-.65.59-.49.98.16.4.57.57,1.04.38,1.09-.43,2.17-.88,3.24-1.34.48-.21.62-.56.43-1.05-.43-1.07-.86-2.14-1.31-3.2-.21-.49-.62-.67-1.03-.49-.38.17-.52.58-.33,1.05.2.5.4,1,.65,1.6-.23-.08-.35-.12-.48-.16-2.26-.79-4.58-1.25-6.97-1.29-7.46-.15-13.7,2.56-18.69,8.1-.46.51-.88,1.07-1.29,1.63-.26.35-.16.78.18,1Z"/><path class="cls-4" d="m36.5,67.71c-7.22-5.49-10.4-14.91-7.97-23.62.16-.56.35-1.1.57-1.79.26.64.46,1.12.67,1.61.21.47.58.66.98.51.42-.16.58-.57.38-1.07-.42-1.06-.85-2.11-1.29-3.15-.23-.54-.57-.69-1.11-.47-1.05.42-2.11.85-3.15,1.29-.49.21-.68.61-.51,1.02.16.38.58.53,1.04.35.51-.2,1.01-.4,1.61-.65-.09.27-.14.44-.2.6-1.09,3.22-1.52,6.52-1.17,9.89.71,6.79,3.77,12.3,9.11,16.55.17.13.33.27.52.38.37.23.78.17,1.01-.17.24-.35.2-.69-.11-.98-.12-.11-.26-.21-.39-.31h0Z"/><path class="cls-4" d="m44.03,57.44c-1.15.28-2.29.6-3.52.93,1.27,2.19,2.49,4.32,3.74,6.43.27.46.76.53,1.26.26.54-.29,1.07-.59,1.58-.91.52-.32.67-.79.37-1.31-.99-1.75-2-3.49-3.02-5.22-.06-.11-.3-.21-.42-.18h0Z"/><path class="cls-4" d="m32.1,52.82c.38,1.42,1.72,2.47,3.2,2.42-.55-2.07-1.1-4.09-1.64-6.12-1.28.68-1.93,2.26-1.55,3.7h0Z"/><path class="cls-4" d="m60.67,44.74c-.46-1.25-1.84-2.45-2.8-2.44.61,2.26,1.21,4.51,1.83,6.82,1.16-1.06,1.53-2.88.97-4.39Z"/><path class="cls-4" d="m68.72,43.01c-.11-.42-.51-.62-1.02-.49-.67.17-1.33.36-2,.54-.59.16-1.18.3-1.76.48-.4.12-.59.42-.51.84.08.39.34.59.78.59.08-.01.19-.03.3-.06,1.19-.32,2.38-.63,3.57-.96.52-.14.75-.5.64-.94h0Z"/><path class="cls-4" d="m68.73,48.72c-.11-.11-.28-.41-.53-.49-1.26-.38-2.53-.7-3.81-1.03-.43-.11-.74.08-.89.5-.13.37.06.79.47.9,1.29.37,2.6.72,3.91,1.04.46.11.85-.26.84-.91h0Z"/><path class="cls-4" d="m62.83,41.59c.98-.95,1.95-1.91,2.88-2.9.14-.15.15-.54.06-.77-.08-.2-.36-.32-.55-.48-.24.11-.44.15-.56.26-.96.94-1.92,1.89-2.86,2.86-.28.29-.25.68.05.98.29.29.67.34.97.05h0Z"/><path class="cls-4" d="m59.49,35.22c-.33,1.17-.64,2.35-.96,3.53-.02.08-.05.19-.02.24.16.24.29.56.53.68.31.16.64,0,.84-.33.01-.01.02-.03.02-.04.35-1.27.7-2.54,1.01-3.67.04-.55-.19-.87-.56-.96-.37-.09-.74.12-.86.55h0Z"/><path class="cls-4" d="m63.09,50.77c-.15-.14-.35-.22-.61-.37-.22.19-.54.32-.6.54-.07.25-.01.66.16.84.81.88,1.68,1.72,2.54,2.57.36.36.79.36,1.1.05.3-.3.28-.75-.06-1.1-.83-.84-1.67-1.69-2.52-2.51h0Z"/></g></g></svg>