<svg width="30" height="18" viewBox="0 0 30 18" fill="none" xmlns="http://www.w3.org/2000/svg">
<g clip-path="url(#clip0_351_3759)">
<path d="M30 9.37206C29.8325 10.0015 29.4191 10.4449 28.9956 10.8899C26.9532 13.0356 24.9209 15.1928 22.8824 17.3418C22.1364 18.1285 21.0748 18.217 20.3131 17.5676C19.4223 16.8075 19.3675 15.4617 20.2035 14.57C21.2134 13.4922 22.2319 12.4235 23.248 11.3531C23.3443 11.2514 23.4547 11.1637 23.5588 11.0702C23.5494 11.0405 23.54 11.0115 23.5306 10.9817C23.4226 10.9817 23.3153 10.9817 23.2073 10.9817C16.139 10.9817 9.06999 10.9817 2.00173 10.9817C0.984823 10.9817 0.237993 10.3762 0.0407175 9.39853C-0.196483 8.22395 0.631762 7.08494 1.76845 7.02373C1.88509 7.01712 2.00251 7.02042 2.11994 7.02042C9.13967 7.02042 16.1594 7.02042 23.1791 7.02042H23.5768C23.4672 6.89552 23.4007 6.81363 23.3286 6.73753C22.2796 5.6283 21.222 4.52817 20.1824 3.40901C19.124 2.26917 19.5984 0.428724 21.0443 0.0622886C21.7442 -0.114725 22.354 0.0978568 22.8629 0.637997C23.7655 1.59503 24.6712 2.54958 25.5754 3.50496C26.7144 4.70849 27.8488 5.91698 28.9948 7.11307C29.4199 7.55643 29.834 7.99896 29.9992 8.63009V9.37289L30 9.37206Z" fill="#1A1139"/>
</g>
<defs>
<clipPath id="clip0_351_3759">
<rect width="30" height="18" fill="white"/>
</clipPath>
</defs>
</svg>
