<svg width="150" height="155" viewBox="0 0 150 155" fill="none" xmlns="http://www.w3.org/2000/svg">
  <path d="M63.611 7.24343C52.1078 30.2578 14.1329 56.7353 2.17173 78.9803C-3.47826 89.4882 1.32429 119.491 23.3577 112.739C55.5603 102.611 67.1201 126.335 72.0853 142.278C86.5238 154.25 129.287 168.44 146.236 129.618C169.541 34.6722 77.5682 -20.681 63.611 7.24343Z" fill="#DDDAFF"/>
  <g clip-path="url(#clip0_591_2)">
  <path d="M123 81.6792C122.53 82.3398 122.105 83.0382 121.584 83.6561C120.493 84.951 119.355 86.2065 118.228 87.4719C116.973 88.8802 115.405 88.8703 114.148 87.4505C112.879 86.0192 111.614 84.5862 110.35 83.1483C109.214 81.8566 109.09 80.6126 109.975 79.5461C110.836 78.5108 112.121 78.4319 113.661 79.367C113.689 79.1336 113.732 78.9332 113.735 78.7327C113.99 62.7481 103.425 49.0412 87.7905 45.8827C74.399 43.1778 63.3378 47.5917 54.7679 58.247C54.2963 58.8321 53.6439 59.3875 52.957 59.6537C51.9956 60.0268 50.9521 59.5091 50.3918 58.671C49.8084 57.7984 49.8412 56.7007 50.5183 55.7607C52.4623 53.0624 54.7252 50.6598 57.32 48.5843C64.7494 42.6437 73.2421 39.8583 82.7323 40.2231C99.5977 40.8738 114.166 53.1642 117.77 69.6878C118.389 72.5324 118.645 75.4066 118.659 78.3087C118.659 78.6324 118.659 78.9562 118.659 79.3095C119.203 79.0942 119.658 78.8263 120.146 78.7393C121.393 78.5174 122.195 79.0531 123 80.5321V81.6808V81.6792Z" fill="black"/>
  <path d="M80.977 102.685C79.3929 102.685 77.8071 102.695 76.2229 102.682C74.6716 102.669 73.6577 101.663 73.6363 100.122C73.6215 99.0011 73.6067 97.8804 73.6445 96.7613C73.661 96.2551 73.4934 96.0103 73.0332 95.7704C71.804 95.1278 70.6044 94.4212 69.4278 93.6834C69.0317 93.4352 68.7573 93.3678 68.3432 93.6258C67.3933 94.2158 66.4172 94.7663 65.4378 95.3086C63.9687 96.1204 62.6589 95.772 61.8093 94.321C60.2252 91.6111 58.6542 88.8931 57.1012 86.1652C56.2763 84.7174 56.646 83.3764 58.0741 82.5252C59.0354 81.9517 60.0033 81.3897 60.986 80.8556C61.3722 80.6452 61.4988 80.4086 61.4856 79.9551C61.4429 78.5139 61.4955 77.0694 61.4544 75.6265C61.4462 75.3423 61.2572 74.9544 61.0271 74.8065C60.0871 74.2018 59.0946 73.6792 58.1316 73.1106C56.651 72.2347 56.2664 70.8987 57.1062 69.423C58.6739 66.6721 60.2564 63.9294 61.857 61.1982C62.6458 59.849 63.9982 59.4973 65.3786 60.2566C66.4074 60.8219 67.3999 61.4529 68.4418 61.9919C68.6834 62.1168 69.1123 62.0889 69.3604 61.9558C70.6307 61.2721 71.8813 60.5507 73.1088 59.7948C73.3504 59.6452 73.5969 59.2903 73.61 59.0191C73.6643 57.8475 73.6232 56.6708 73.6363 55.4959C73.6544 53.9774 74.6026 52.9471 76.1292 52.929C79.3797 52.8896 82.6319 52.8896 85.884 52.929C87.4517 52.9471 88.3786 53.9758 88.3917 55.5649C88.4016 56.7119 88.3621 57.8622 88.4163 59.006C88.4295 59.2771 88.6694 59.6321 88.9093 59.78C90.1369 60.5376 91.4187 61.2097 92.638 61.9804C93.0341 62.2302 93.297 62.2121 93.6618 61.9936C94.6445 61.4036 95.6355 60.8284 96.6362 60.2697C98.0068 59.5039 99.3691 59.8441 100.16 61.1916C101.775 63.9458 103.372 66.7115 104.948 69.4887C105.742 70.8888 105.361 72.2331 103.975 73.0679C103.017 73.6463 102.053 74.2166 101.065 74.7424C100.641 74.9676 100.523 75.2239 100.537 75.7021C100.583 77.117 100.58 78.5336 100.537 79.9485C100.524 80.4004 100.648 80.6403 101.034 80.8507C102.016 81.3864 102.983 81.9517 103.942 82.5268C105.369 83.3814 105.745 84.724 104.925 86.1652C103.372 88.8931 101.8 91.6111 100.214 94.3193C99.3461 95.8016 98.0281 96.1303 96.5146 95.279C95.5401 94.7301 94.5624 94.1829 93.6109 93.5946C93.2477 93.3711 93.0193 93.4286 92.6726 93.6439C91.445 94.4031 90.1944 95.1262 88.9258 95.8115C88.538 96.0202 88.3654 96.2206 88.3786 96.6758C88.4131 97.8229 88.4016 98.9716 88.3868 100.119C88.3671 101.663 87.3548 102.676 85.8084 102.687C84.1963 102.7 82.5842 102.69 80.9721 102.69L80.977 102.685ZM78.5531 57.8507C78.5531 58.8778 78.5531 59.8277 78.5531 60.7791C78.5515 62.5506 78.0569 63.2441 76.3955 63.8012C74.4563 64.452 72.7177 65.4511 71.1878 66.8134C69.9109 67.9506 69.0284 68.0393 67.561 67.1947C66.6982 66.6984 65.8355 66.2005 64.9432 65.6877C64.0936 67.1602 63.3064 68.5274 62.4913 69.9407C63.4592 70.4994 64.3828 71.0203 65.2948 71.561C66.4846 72.266 66.8954 73.1599 66.6111 74.5222C66.1559 76.6914 66.1477 78.854 66.593 81.0265C66.8954 82.4956 66.4994 83.3239 65.1946 84.0962C64.3055 84.6221 63.4083 85.1332 62.488 85.6656C63.3261 87.1134 64.1281 88.5003 64.9481 89.9201C65.469 89.6178 65.9144 89.3598 66.3597 89.1018C66.833 88.829 67.3013 88.5496 67.7795 88.285C68.9512 87.6376 69.952 87.7181 70.9429 88.6121C72.6092 90.1173 74.4925 91.2233 76.6305 91.9168C77.9993 92.3605 78.5416 93.1624 78.5515 94.6135C78.5581 95.6422 78.5515 96.6709 78.5515 97.7062H83.4124C83.4404 97.5961 83.4634 97.5435 83.4634 97.4926C83.4683 96.5641 83.4683 95.6356 83.4732 94.7055C83.4798 93.1509 84.0139 92.3556 85.4617 91.8905C87.5503 91.22 89.3859 90.1354 91.0128 88.6712C92.081 87.7099 93.0522 87.6129 94.3077 88.3179C95.2246 88.8323 96.135 89.3614 97.0816 89.9037C97.5203 89.1494 97.9197 88.4691 98.3141 87.7855C98.7167 87.0887 99.1144 86.3887 99.5351 85.6557C98.5146 85.0641 97.5647 84.5301 96.6313 83.968C95.5599 83.3222 95.1441 82.4118 95.4005 81.1941C95.8705 78.9707 95.8869 76.7555 95.4169 74.5288C95.1277 73.1533 95.5254 72.284 96.7266 71.5708C97.6403 71.0285 98.5639 70.506 99.54 69.9439C98.7134 68.5126 97.9147 67.1273 97.0832 65.6894C96.1646 66.2202 95.3216 66.7115 94.472 67.1947C92.9815 68.041 92.1335 67.9555 90.8435 66.8134C89.289 65.438 87.5355 64.4207 85.557 63.7782C84.0073 63.2753 83.4749 62.5128 83.4716 60.8662C83.47 59.8671 83.4716 58.868 83.4716 57.8491H78.5515L78.5531 57.8507Z" fill="black"/>
  <path d="M43.3686 76.4019C42.7064 76.6057 42.1559 76.8719 41.5856 76.9278C40.6062 77.0231 39.8388 76.5679 39.354 75.7002C38.8511 74.8013 38.8659 73.8597 39.515 73.0857C41.0236 71.2862 42.57 69.5131 44.1788 67.8024C45.0974 66.8246 46.6339 66.8723 47.5624 67.8698C49.1055 69.5312 50.5992 71.2386 52.0684 72.9674C52.8785 73.9205 52.8144 75.2203 52.0256 76.1258C51.2549 77.0116 49.9682 77.2038 48.8935 76.5925C48.7341 76.5021 48.5796 76.4002 48.4153 76.2984C48.4153 77.7987 48.2706 79.2777 48.4383 80.7205C49.8729 93.1276 56.1652 102.237 67.4663 107.538C81.446 114.096 97.9499 109.753 107.241 97.4233C107.691 96.8251 108.354 96.2713 109.037 95.9952C109.994 95.6107 111.047 96.1152 111.617 96.9434C112.214 97.8094 112.196 98.9154 111.525 99.8537C109.818 102.243 107.843 104.396 105.608 106.299C98.0583 112.729 89.2994 115.751 79.4067 115.424C62.6267 114.869 47.8204 102.458 44.2774 86.0597C43.6447 83.1346 43.3719 80.1799 43.3719 77.194C43.3719 76.9228 43.3719 76.6533 43.3719 76.3986L43.3686 76.4019Z" fill="black"/>
  <path d="M81.0173 87.6486C75.5944 87.6519 71.1689 83.2232 71.1738 77.7986C71.1788 72.3888 75.6519 67.9403 81.0502 67.9748C86.4518 68.011 90.8444 72.4068 90.8526 77.7904C90.8625 83.2166 86.4436 87.6437 81.0157 87.647L81.0173 87.6486ZM81.0469 82.722C83.7567 82.7023 85.9374 80.5051 85.9309 77.8035C85.9243 75.1101 83.7173 72.9081 81.019 72.9015C78.2927 72.8949 76.0709 75.1364 76.0939 77.8709C76.1169 80.5643 78.3404 82.7417 81.0453 82.722H81.0469Z" fill="black"/>
  </g>
  <defs>
  <clipPath id="clip0_591_2">
  <rect width="84" height="75.2608" fill="white" transform="translate(39 40.1914)"/>
  </clipPath>
  </defs>
</svg>
