<svg width="150" height="155" viewBox="0 0 150 155" fill="none" xmlns="http://www.w3.org/2000/svg">
  <path d="M63.611 7.24343C52.1078 30.2578 14.1329 56.7353 2.17173 78.9803C-3.47826 89.4882 1.32429 119.491 23.3577 112.739C55.5603 102.611 67.1201 126.335 72.0853 142.278C86.5238 154.25 129.287 168.44 146.236 129.618C169.541 34.6722 77.5682 -20.681 63.611 7.24343Z" fill="#B8BBFB"/>
  <g clip-path="url(#clip0_570_1384)">
  <path d="M32 60.7998V65.1993C32.3623 66.9551 32.6188 68.7409 33.1094 70.4626C34.2961 74.6356 36.4803 78.2835 39.3627 81.5485C39.7352 81.9694 40.0161 82.5687 40.0996 83.1219C40.6879 87.0203 39.5602 90.4076 36.9139 93.3619C36.4681 93.859 36.1444 94.6447 36.1383 95.3001C36.1282 96.3483 37.1175 97.0138 38.3714 96.9897C43.898 96.8795 48.7549 95.0275 52.9054 91.4418C53.4693 90.9547 53.9049 90.9547 54.6011 91.097C57.7074 91.7324 60.834 92.2636 63.9566 92.8127C64.5184 92.9109 65.0945 92.925 65.7418 92.9851C65.9128 94.0494 66.0309 95.0977 66.2548 96.1259C68.2517 105.33 73.8089 111.898 82 116.414C89.7984 120.713 98.2033 121.781 106.954 120.486C109.22 120.152 111.447 119.554 113.674 119.009C114.254 118.867 114.59 118.993 115.007 119.356C119.147 122.954 123.988 124.826 129.511 124.994C130.512 125.024 131.318 124.743 131.76 123.801C132.212 122.841 131.829 122.076 131.159 121.36C128.507 118.522 127.357 115.185 127.902 111.353C127.998 110.679 128.322 109.94 128.77 109.424C133.58 103.885 136.216 97.5449 135.986 90.2091C135.739 82.4123 132.293 76.0386 126.522 70.8635C120.021 65.0309 112.273 61.9202 103.541 61.1786C102.502 61.0905 102.179 60.7918 102.049 59.7355C101.251 53.2055 98.2888 47.6896 93.5601 43.1058C87.4412 37.175 79.9828 34.0463 71.4883 33.1844C71.1219 33.1463 70.7616 33.0621 70.3972 33H65.1149C64.8523 33.0561 64.5938 33.1403 64.3291 33.1623C57.7013 33.7416 51.5762 35.784 46.0252 39.3898C39.6619 43.5247 35.0025 48.9764 32.9262 56.3262C32.513 57.7894 32.3033 59.3066 32 60.7998ZM77.422 73.8038C82.9751 68.4743 89.7678 65.6984 97.444 65.1492C107.783 64.4116 116.935 67.3118 124.458 74.4652C129.333 79.1032 132.096 84.7774 131.933 91.5781C131.788 97.599 129.392 102.742 125.332 107.188C124.912 107.647 124.393 108.182 124.304 108.741C124.021 110.539 123.658 112.385 123.811 114.173C123.99 116.255 124.68 118.294 125.144 120.328C125.215 120.34 125.057 120.328 124.904 120.284C121.706 119.388 118.958 117.746 116.672 115.377C115.939 114.62 115.115 114.293 114.117 114.66C110.472 116.001 106.686 116.674 102.822 116.899C93.4543 117.444 85.0432 115.021 78.0266 108.727C67.2543 99.0682 66.9958 83.8053 77.422 73.7998V73.8038ZM42.8374 47.1625C52.7711 36.7441 70.2506 33.91 83.2763 40.6404C89.8187 44.0197 94.6838 48.9183 97.0532 55.9354C97.5987 57.5488 97.8613 59.2565 98.2684 60.9802C97.6862 61.0664 97.3911 61.1305 97.0919 61.1506C92.3835 61.4913 87.9154 62.7019 83.6489 64.6802C83.1827 64.8966 82.6148 64.9848 82.0937 64.9848C71.7672 65.0029 61.4427 64.9969 51.1182 64.9989C50.7803 64.9989 50.4383 64.9788 50.1024 65.0169C49.0582 65.1312 48.2867 65.9569 48.2623 66.9531C48.2379 67.9853 49.0256 68.8632 50.1106 68.9814C50.4444 69.0175 50.7864 68.9975 51.1263 68.9975C59.2504 68.9975 67.3764 68.9975 75.5004 68.9975H76.7645C70.3545 74.3771 66.5825 80.855 65.7846 88.9304C61.9149 88.7239 58.2061 88.1968 54.6662 86.904C53.1497 86.3508 52.0871 86.5633 50.9676 87.7218C48.706 90.0588 45.9091 91.566 42.642 92.4139C43.0776 91.1191 43.5825 89.9506 43.8532 88.7299C44.1341 87.4712 44.3275 86.1604 44.3173 84.8756C44.299 82.4965 43.8227 80.3659 42.0761 78.3817C33.7262 68.8993 34.1129 56.3102 42.8395 47.1605L42.8374 47.1625Z" fill="black"/>
  <path d="M83.9205 97.0103C84.1892 96.9882 84.462 97.0002 84.7327 97.0002C95.4867 97.0002 106.243 97.0002 116.999 97.0002C117.337 97.0002 117.681 96.9802 118.012 97.0283C119.154 97.1947 119.936 98.2589 119.737 99.3373C119.545 100.375 118.707 100.993 117.422 100.995C111.942 101.001 106.465 100.997 100.985 100.997C96.4862 100.997 91.9875 100.997 87.4909 100.997C86.3062 100.997 85.1215 101.031 83.9408 100.979C82.7928 100.929 81.9663 100.027 81.9887 98.9544C82.0111 97.9202 82.8192 97.1005 83.9225 97.0083L83.9205 97.0103Z" fill="black"/>
  <path d="M109.872 88.9699C109.573 89.0119 109.265 88.9959 108.96 88.9959C104.936 88.9959 100.913 88.9959 96.8891 88.9959C93.7787 88.9959 90.6684 88.9959 87.558 88.9959C86.4771 88.9959 85.3942 89.0059 84.3112 88.9939C82.9128 88.9779 82.0049 88.2002 81.9866 87.0237C81.9683 85.8111 82.8965 85.0153 84.356 84.9953C84.3906 84.9953 84.4232 84.9953 84.4578 84.9953C92.708 84.9953 100.958 84.9953 109.208 84.9953C109.412 84.9953 109.616 84.9873 109.817 85.0133C110.855 85.1436 111.621 85.9694 111.635 86.9655C111.649 87.9597 110.904 88.8195 109.874 88.9678L109.872 88.9699Z" fill="black"/>
  <path d="M117.739 88.9904C116.62 88.9904 115.685 88.0524 115.712 86.95C115.738 85.8858 116.652 85.0059 117.733 85.0059C118.816 85.0059 119.73 85.8797 119.758 86.944C119.789 88.0464 118.857 88.9884 117.739 88.9904Z" fill="black"/>
  <path d="M50.7127 53.0233C54.8368 52.9772 58.9629 52.9992 63.087 52.9992C65.318 52.9992 67.5511 52.9992 69.7821 52.9992C71.8115 52.9992 73.839 52.9772 75.8685 53.0112C77.043 53.0313 77.8816 53.8771 77.9081 54.9494C77.9346 56.0598 77.0756 56.9216 75.8623 56.9918C75.6262 57.0058 75.3901 56.9978 75.1519 56.9978C67.1053 56.9978 59.0586 56.9978 51.0099 56.9978C50.672 56.9978 50.328 57.0219 49.9982 56.9657C49.1596 56.8234 48.4491 56.3444 48.386 55.5327C48.3352 54.8833 48.5591 54.0615 48.9743 53.5785C49.3122 53.1856 50.1122 53.0293 50.7107 53.0233H50.7127Z" fill="black"/>
  <path d="M83.9731 53.0072C85.054 52.9871 85.9863 53.849 86.0331 54.9113C86.082 56.0116 85.168 56.9697 84.0484 56.9918C82.9309 57.0118 81.9803 56.0878 81.9864 54.9854C81.9925 53.9211 82.8922 53.0272 83.9731 53.0072Z" fill="black"/>
  </g>
  <defs>
  <clipPath id="clip0_570_1384">
  <rect width="104" height="92" fill="white" transform="translate(32 33)"/>
  </clipPath>
  </defs>
</svg>
