<svg width="150" height="155" viewBox="0 0 150 155" fill="none" xmlns="http://www.w3.org/2000/svg">
<path d="M63.611 7.24343C52.1078 30.2578 14.1329 56.7353 2.17173 78.9803C-3.47826 89.4882 1.32429 119.491 23.3577 112.739C55.5603 102.611 67.1201 126.335 72.0853 142.278C86.5238 154.25 129.287 168.44 146.236 129.618C169.541 34.6722 77.5682 -20.681 63.611 7.24343Z" fill="#FFE2CC"/>
<g clip-path="url(#clip0_591_3)">
<path d="M49.1014 94.3582C49.2273 93.8223 49.3349 93.2783 49.4851 92.7506C50.7233 88.4027 53.6706 85.7558 57.9494 84.682C61.252 83.8518 64.6276 83.3058 67.9788 82.6745C69.0181 82.4797 69.2413 82.3152 69.2454 81.2699C69.2515 80.0033 69.2698 78.7367 69.2292 77.4721C69.221 77.1899 69.0729 76.8144 68.8597 76.652C65.9063 74.3888 64.2825 71.3826 63.7913 67.731C63.7527 67.6944 63.7202 67.6396 63.6817 67.6315C61.7026 67.2905 60.4136 65.8737 60.5537 63.4825C60.5984 62.7011 60.5273 61.9054 60.643 61.134C60.7222 60.6063 60.9252 60.0176 61.2662 59.6259C61.731 59.092 61.8426 58.548 61.8122 57.8985C61.7858 57.3687 61.7899 56.8349 61.8183 56.3031C61.8568 55.552 62.273 55.1359 62.9387 55.1359C63.5964 55.1359 64.0166 55.5541 64.0754 56.301C64.1018 56.6542 64.0856 57.0094 64.0876 57.3647C64.0876 57.7138 64.0876 58.0649 64.0876 58.412C65.2061 58.6353 66.2616 58.8485 67.38 59.0717C67.3983 58.8688 67.4328 58.6556 67.4328 58.4405C67.4389 57.2002 67.4104 55.958 67.445 54.7198C67.5322 51.6426 70.1223 49.5417 73.167 50.0776C74.2367 50.2664 75.2841 50.5972 76.3559 50.7353C77.9554 50.9423 79.5244 50.6784 81.0772 50.2339C84.8872 49.1479 87.8305 51.8618 87.6092 55.2861C87.5118 56.7902 87.593 58.3085 87.593 60.0095C88.2628 59.7558 88.7764 59.5021 89.3204 59.3661C90.7514 59.0108 91.1046 58.1177 90.9726 56.7212C90.8265 55.1643 90.9726 53.5831 90.9016 52.0161C90.7087 47.7271 87.1972 44.181 82.9203 44.0612C79.4554 43.9638 75.9844 44.0165 72.5154 44.0267C71.1616 44.0308 70.1994 44.6965 69.6879 45.9449C69.1906 47.1628 68.2954 47.7311 67.0085 47.8306C65.3055 47.9645 64.3129 48.9632 64.0978 50.6723C63.9821 51.5939 63.566 52.0283 62.8474 51.9755C62.1349 51.9227 61.7838 51.4071 61.8305 50.4876C61.9644 47.9138 64.0531 45.7642 66.6493 45.5754C67.1648 45.5369 67.4409 45.3745 67.6723 44.8812C68.5877 42.9286 70.1426 41.7959 72.3165 41.7634C75.9357 41.7107 79.5569 41.735 83.1781 41.7797C84.9055 41.802 86.4928 42.4049 87.9502 43.233C88.7114 42.4292 89.4259 41.6234 90.1993 40.8744C91.951 39.1754 94.466 39.1084 96.3111 40.7161C96.9748 41.2946 97.6629 41.6214 98.5195 41.2641C99.3802 40.9048 99.6278 40.17 99.6826 39.3013C99.8003 37.3871 101.032 35.8506 102.857 35.2782C103.024 35.2254 103.184 35.1604 103.348 35.1016C104.463 35.1016 105.577 35.1016 106.692 35.1016C106.998 35.2132 107.313 35.3025 107.607 35.4385C109.263 36.1977 110.234 37.4622 110.353 39.3033C110.41 40.1741 110.656 40.9069 111.518 41.2641C112.375 41.6193 113.063 41.2905 113.729 40.714C115.639 39.0536 118.071 39.1429 119.881 40.9028C120.334 41.3433 120.789 41.7858 121.219 42.2506C122.79 43.9475 122.841 46.43 121.353 48.2061C121.239 48.3421 121.113 48.4679 121.006 48.608C120.115 49.7691 120.708 51.3117 122.151 51.5776C122.67 51.673 123.218 51.6669 123.72 51.8172C125.354 52.3063 126.486 53.3781 126.752 55.073C126.939 56.2564 126.959 57.5088 126.799 58.6942C126.515 60.7788 124.838 62.1692 122.721 62.3174C122.569 62.3276 122.417 62.3337 122.266 62.3519C121.526 62.4453 120.982 62.8229 120.714 63.5211C120.446 64.2173 120.6 64.8486 121.073 65.4312C123.015 67.8223 122.886 70.0328 120.722 72.223C119.753 73.2034 118.797 74.1635 117.32 74.336C115.986 74.4923 114.795 74.1878 113.796 73.2967C113.124 72.7 112.43 72.3123 111.533 72.6817C110.636 73.0511 110.406 73.8184 110.355 74.7136C110.244 76.6459 108.872 78.3672 106.968 78.6798C105.742 78.8828 104.432 78.893 103.204 78.7062C101.205 78.4017 99.8166 76.7048 99.6907 74.6892C99.6379 73.8265 99.4207 73.0795 98.5601 72.704C97.671 72.3143 96.9728 72.6675 96.2867 73.2602C94.472 74.8333 91.9814 74.7542 90.2257 73.108C90.0775 72.9699 89.9334 72.8299 89.7466 72.6533C89.6492 72.767 89.5416 72.8603 89.4726 72.976C88.6241 74.3786 87.5382 75.562 86.2594 76.5871C86.0117 76.784 85.8209 77.194 85.8088 77.5147C85.758 78.7793 85.7824 80.0459 85.7905 81.3125C85.7966 82.301 86.0259 82.5223 87.0307 82.6603C90.7169 83.1657 94.3888 83.7442 97.9329 84.9236C103.038 86.6246 105.93 90.6578 105.934 96.0267C105.934 96.5829 105.953 97.1411 105.926 97.6972C105.894 98.3975 105.409 98.8827 104.788 98.8806C104.164 98.8806 103.694 98.3955 103.659 97.6911C103.592 96.4042 103.687 95.0889 103.448 93.8345C102.93 91.1226 101.386 89.0644 98.9153 87.8039C96.4775 86.5616 93.7941 86.1354 91.0437 85.5954C91.2487 87.2924 90.2784 88.2809 89.1397 89.2105C87.729 90.3635 86.3649 91.5733 84.9846 92.7648C84.1991 93.4448 83.3161 93.7817 82.2627 93.6437C81.6659 93.5645 80.7748 94.7682 80.8702 95.5497C81.0529 97.0558 81.2701 98.5579 81.4731 100.062C81.944 103.543 82.4149 107.026 82.8939 110.558H94.7339C94.7339 109.261 94.7339 107.978 94.7339 106.697C94.7339 106.013 94.7237 105.329 94.7379 104.647C94.7562 103.756 95.1906 103.267 95.9152 103.285C96.6196 103.304 97.0032 103.756 97.0093 104.635C97.0195 106.332 97.0134 108.027 97.0134 109.724C97.0134 109.996 97.0134 110.266 97.0134 110.576C98.2313 110.576 99.3761 110.68 100.495 110.552C102.317 110.343 103.614 108.792 103.651 106.937C103.675 105.721 103.651 104.507 103.659 103.291C103.665 102.447 104.077 101.958 104.767 101.944C105.49 101.927 105.926 102.431 105.934 103.314C105.943 104.503 105.949 105.695 105.934 106.884C105.888 110.286 103.298 112.878 99.8815 112.888C93.5261 112.909 87.1708 112.895 80.8154 112.895C72.4606 112.895 64.1039 112.895 55.7491 112.895C52.199 112.895 50.2097 111.401 49.2111 107.988C49.1989 107.946 49.1481 107.915 49.1136 107.879C49.1136 103.371 49.1136 98.8644 49.1136 94.3562L49.1014 94.3582ZM112.249 70.252C112.276 70.1911 112.304 70.1282 112.33 70.0673C113.126 70.4144 114.007 70.6377 114.699 71.1289C116.615 72.4929 117.224 72.4889 118.911 70.8021C119 70.7128 119.09 70.6235 119.179 70.5341C120.429 69.2736 120.464 68.275 119.315 66.8926C118.182 65.5327 117.977 64.0204 118.712 62.4291C119.41 60.9128 120.669 60.178 122.321 60.0521C123.927 59.9283 124.611 59.1651 124.615 57.5494C124.615 57.1942 124.615 56.841 124.615 56.4857C124.613 54.7665 123.973 54.052 122.248 53.8977C121 53.7861 119.95 53.3111 119.177 52.3104C117.935 50.7048 118.014 48.5897 119.362 47.0085C120.448 45.7358 120.409 44.6681 119.236 43.4807C119.004 43.2472 118.771 43.0138 118.538 42.7824C117.299 41.5483 116.311 41.5016 114.973 42.6444C114.104 43.3873 113.116 43.7709 111.973 43.6755C109.72 43.4888 108.281 41.9563 108.09 39.5712C107.981 38.2011 107.144 37.4095 105.772 37.3811C105.342 37.3729 104.911 37.377 104.481 37.3811C102.849 37.3892 102.076 38.0874 101.936 39.7296C101.808 41.2235 101.16 42.3866 99.8511 43.1417C98.2475 44.0653 96.4653 43.8379 94.9409 42.5388C93.9808 41.7208 92.9071 41.595 92.0423 42.3034C91.4192 42.8129 90.865 43.4157 90.3211 44.0125C89.9679 44.4002 89.9191 44.7635 90.3637 45.2405C92.2128 47.2257 93.175 49.6006 93.2095 52.3226C93.2339 54.2205 93.2278 56.1204 93.2156 58.0203C93.2115 58.5907 93.3029 59.0575 93.6987 59.5386C94.062 59.9811 94.332 60.6083 94.3868 61.1787C94.4923 62.3073 94.4822 63.4562 94.4071 64.5868C94.3279 65.7864 93.6987 66.8439 92.5782 67.1646C91.3441 67.5158 91.0092 68.2506 90.9239 69.3325C90.9056 69.5558 90.7981 69.7689 90.7615 69.9922C90.7372 70.1343 90.7209 70.3088 90.7798 70.4306C91.5958 72.1479 93.6012 72.5701 95.0404 71.3298C96.307 70.2378 97.7401 69.9577 99.2848 70.5524C100.829 71.1492 101.7 72.3184 101.909 73.9788C102.173 76.0715 102.756 76.581 104.84 76.581C105.017 76.581 105.196 76.581 105.372 76.581C107.227 76.581 107.916 75.9599 108.11 74.1066C108.35 71.8576 110.073 70.252 112.253 70.254L112.249 70.252ZM69.7163 57.4621C69.7163 57.4621 69.7082 57.4621 69.7041 57.4621C69.7041 58.475 69.7508 59.4899 69.692 60.4987C69.6189 61.7653 68.3381 62.494 67.3536 61.7876C66.2778 61.0143 65.0721 60.9087 63.84 60.7687C63.1133 60.6875 62.8718 61.0671 62.8474 61.6801C62.821 62.3377 62.8332 62.9974 62.8352 63.6551C62.8393 64.9765 63.1803 65.3195 64.4936 65.3317C65.608 65.3419 65.9327 65.6321 65.9977 66.7546C66.4442 74.6364 74.2306 78.3611 79.8309 77.0966C85.2303 75.8787 88.5571 72.1154 89.0321 66.5598C89.1052 65.7032 89.4766 65.352 90.3414 65.3317C90.5179 65.3277 90.6966 65.3358 90.8732 65.3297C91.7135 65.2931 92.1398 64.9014 92.1783 64.0692C92.2088 63.3871 92.1946 62.7031 92.1865 62.019C92.1743 60.8113 91.951 60.6814 90.8529 61.128C89.9455 61.4974 89.0402 61.9663 88.0903 62.1144C86.2634 62.3986 85.3236 61.4852 85.3135 59.634C85.3054 58.0142 85.3338 56.3924 85.3013 54.7726C85.2709 53.2116 84.1382 52.1886 82.5773 52.2881C82.153 52.3145 81.7369 52.4565 81.3127 52.5195C80.042 52.7082 78.7632 53.0675 77.4987 53.0208C75.8971 52.962 74.3098 52.5702 72.7164 52.3246C71.0256 52.0648 69.765 53.1 69.7184 54.801C69.694 55.686 69.7143 56.573 69.7143 57.4601L69.7163 57.4621ZM63.9882 85.6015C61.3068 86.1212 58.6903 86.5271 56.3154 87.7125C53.2301 89.2532 51.521 91.8331 51.4154 95.2736C51.2957 99.1689 51.3688 103.07 51.3911 106.967C51.4012 108.76 52.6415 110.278 54.4216 110.524C55.5786 110.682 56.7742 110.554 58.0245 110.554C58.0245 110.25 58.0245 109.976 58.0245 109.704C58.0245 108.007 58.0164 106.312 58.0286 104.615C58.0347 103.748 58.4346 103.291 59.143 103.287C59.8433 103.283 60.2837 103.754 60.2959 104.597C60.3162 106.04 60.302 107.483 60.302 108.924C60.302 109.47 60.302 110.016 60.302 110.554H72.142C72.5703 107.39 72.9904 104.282 73.4106 101.176C73.6623 99.3211 73.9262 97.4679 74.1616 95.6126C74.2672 94.7743 73.3944 93.5686 72.757 93.6477C71.7035 93.7797 70.8266 93.4407 70.0391 92.7566C68.5492 91.4616 67.0654 90.1564 65.541 88.9061C64.52 88.0698 63.8583 87.0995 63.9861 85.5995L63.9882 85.6015ZM70.8002 83.7544C72.9701 85.1123 75.0872 86.4439 77.2165 87.7592C77.3566 87.8445 77.6286 87.8729 77.7565 87.7958C79.9081 86.4723 82.0455 85.1265 84.2275 83.7605C82.9954 82.0899 83.7546 80.1575 83.4115 78.3185C81.4791 79.1609 79.5265 79.6176 77.4743 79.6196C75.4323 79.6196 73.4959 79.1142 71.602 78.3287C71.3016 80.1697 72.008 82.0473 70.8002 83.7544ZM76.4249 95.9354C75.7652 100.823 75.1075 105.689 74.4478 110.568H80.5881C79.9243 105.662 79.2646 100.809 78.6049 95.9354H76.4249ZM79.5691 89.3689C80.4642 90.0164 81.2437 90.5766 82.0191 91.1409C82.4575 91.4596 82.9183 91.5144 83.3425 91.1551C85.0577 89.6977 86.775 88.2444 88.4556 86.7484C89.0727 86.1983 88.7987 85.2991 88.005 85.1042C87.2581 84.9215 86.5699 84.8911 85.8575 85.3985C84.6457 86.2612 83.3446 87.0001 82.082 87.7917C81.2741 88.2992 80.4642 88.8066 79.5691 89.3689ZM75.4709 89.3689C73.3233 88.0272 71.2712 86.7849 69.2698 85.4676C68.604 85.0291 67.9605 84.8119 67.2278 85.0961C66.8847 85.228 66.4158 85.4797 66.3488 85.7578C66.2697 86.0867 66.4564 86.6266 66.7183 86.8641C68.3137 88.3032 69.964 89.6835 71.5939 91.0841C72.0384 91.4657 72.4992 91.5042 72.9762 91.1653C73.778 90.5949 74.5757 90.0144 75.4709 89.3689ZM77.519 90.7045C76.7111 91.2891 75.9438 91.8453 75.2395 92.3547C75.8017 94.2547 77.2916 93.463 78.4405 93.6234C79.3357 93.7492 79.4067 92.9089 79.8837 92.4238C79.0921 91.8473 78.341 91.3013 77.519 90.7045Z" fill="black" stroke="#231F20" stroke-miterlimit="10"/>
<path d="M115.107 56.9947C115.088 62.5767 110.578 67.0809 105.014 67.0707C99.4324 67.0626 94.9241 62.5645 94.916 56.9967C94.9079 51.3985 99.471 46.8436 105.051 46.8801C110.641 46.9166 115.125 51.4269 115.107 56.9947ZM105.043 64.7933C109.374 64.7689 112.847 61.2715 112.827 56.9501C112.807 52.6326 109.291 49.1393 104.982 49.1576C100.662 49.1758 97.1752 52.6874 97.1935 57.0049C97.2118 61.3182 100.738 64.8156 105.041 64.7933H105.043Z" fill="black" stroke="#231F20" stroke-miterlimit="10"/>
</g>
<defs>
<clipPath id="clip0_591_3">
<rect width="78" height="78" fill="white" transform="translate(49 35)"/>
</clipPath>
</defs>
</svg>
