<svg width="150" height="155" viewBox="0 0 150 155" fill="none" xmlns="http://www.w3.org/2000/svg">
  <path d="M63.611 7.24343C52.1078 30.2578 14.1329 56.7353 2.17173 78.9803C-3.47826 89.4882 1.32429 119.491 23.3577 112.739C55.5603 102.611 67.1201 126.335 72.0853 142.278C86.5238 154.25 129.287 168.44 146.236 129.618C169.541 34.6722 77.5682 -20.681 63.611 7.24343Z" fill="#FACEDC"/>
  <g clip-path="url(#clip0_591_4)">
  <path d="M74.278 122.665C72.0169 121.979 70.6726 120.118 69.1445 118.54C68.1879 117.554 67.2263 117.057 65.8274 117.163C64.2247 117.285 62.6072 117.208 60.9946 117.188C56.942 117.139 54.7007 113.702 56.3059 109.997C58.7931 104.263 61.2828 98.5304 63.7998 92.8105C64.0707 92.1968 63.9937 91.8713 63.4942 91.4091C62.1798 90.1866 60.925 88.8996 59.7025 87.5851C58.6266 86.4272 58.4775 85.0582 59.0764 83.6096C59.4292 82.7523 59.8516 81.9174 60.1448 81.0403C60.2616 80.6875 60.2442 80.1732 60.0653 79.8601C58.6639 77.3977 57.6129 74.7987 56.8227 72.0829C56.7159 71.7176 56.3332 71.335 55.9804 71.1561C55.1554 70.7386 54.2659 70.4529 53.4112 70.0901C52.1141 69.536 51.2296 68.567 51.165 67.1507C51.0656 65.0212 51.0606 62.8794 51.16 60.75C51.2271 59.2939 52.1415 58.3174 53.4807 57.7658C54.338 57.413 55.2275 57.1198 56.0549 56.7073C56.3829 56.5433 56.7208 56.1656 56.8227 55.8178C57.6079 53.0995 58.6589 50.5004 60.0553 48.0356C60.2442 47.7026 60.2417 47.1535 60.1175 46.7709C59.8417 45.9211 59.4267 45.116 59.0813 44.2886C58.4775 42.84 58.6142 41.461 59.6901 40.3105C61.0418 38.8644 62.4457 37.4605 63.8943 36.1113C64.9925 35.0901 66.3268 34.9559 67.7108 35.4976C68.8041 35.9275 69.8924 36.7723 70.9609 36.7425C71.9895 36.7126 72.9586 35.7138 74.0121 35.2864C75.7564 34.5807 77.5603 34.0167 79.3145 33.3334C79.6872 33.1893 80.0699 32.8389 80.2488 32.4836C80.6662 31.6587 80.9545 30.7692 81.3147 29.9144C81.9061 28.5006 82.9621 27.6483 84.5027 27.6036C86.5103 27.5415 88.5254 27.5415 90.5331 27.6086C91.9569 27.6558 92.9682 28.4534 93.557 29.738C94.0714 30.8586 94.2627 32.2923 95.0876 33.0576C95.8852 33.798 97.3463 33.7782 98.452 34.2428C100.132 34.9485 101.747 35.8032 103.414 36.5412C103.754 36.6928 104.239 36.7251 104.587 36.6083C105.491 36.3002 106.351 35.8579 107.243 35.5075C108.627 34.9634 109.964 35.1001 111.06 36.1188C112.533 37.4879 113.959 38.9116 115.323 40.3876C116.31 41.4535 116.469 42.7555 115.937 44.1172C115.5 45.2378 114.667 46.3658 114.707 47.4641C114.744 48.5251 115.748 49.5239 116.195 50.6073C116.864 52.2348 117.455 53.8971 117.999 55.5718C118.208 56.2104 118.452 56.6452 119.142 56.8514C119.97 57.0974 120.765 57.4577 121.558 57.8031C122.847 58.3671 123.727 59.3436 123.791 60.7574C123.888 62.8869 123.891 65.0287 123.789 67.1581C123.719 68.5694 122.842 69.5385 121.538 70.0951C120.459 70.5547 119.11 70.7585 118.38 71.5412C117.674 72.2965 117.686 73.6805 117.244 74.7266C116.511 76.461 115.644 78.1382 114.886 79.8626C114.734 80.2079 114.697 80.695 114.816 81.0478C115.11 81.9249 115.535 82.7573 115.885 83.617C116.474 85.0656 116.327 86.4347 115.249 87.5926C114.026 88.907 112.769 90.1916 111.457 91.4166C110.97 91.8738 110.861 92.1943 111.137 92.818C113.661 98.5354 116.153 104.268 118.645 109.997C119.659 112.328 119.192 114.587 117.423 116.07C116.394 116.932 115.179 117.213 113.877 117.213C111.957 117.213 110.033 117.171 108.115 117.243C107.593 117.263 106.987 117.524 106.587 117.869C105.606 118.719 104.783 119.757 103.784 120.58C102.828 121.368 101.724 121.979 100.686 122.67H98.8247C96.7425 122.098 95.5722 120.659 94.7274 118.726C92.5383 113.712 90.2275 108.75 87.9639 103.768C87.8322 103.48 87.6782 103.199 87.4719 102.797C87.2607 103.224 87.1191 103.492 86.9924 103.766C84.7313 108.748 82.4229 113.71 80.2339 118.726C79.3891 120.662 78.2188 122.101 76.1316 122.67H74.2705L74.278 122.665ZM120.743 63.9205C120.743 63.1776 120.73 62.4321 120.748 61.6892C120.76 61.0829 120.506 60.7326 119.915 60.5239C118.837 60.1412 117.796 59.6567 116.72 59.2716C115.907 58.9808 115.46 58.4541 115.276 57.6192C114.568 54.4139 113.318 51.4297 111.549 48.6667C111.127 48.0083 111.089 47.3647 111.42 46.6466C111.912 45.5807 112.324 44.475 112.819 43.409C113.06 42.8897 113.052 42.4946 112.627 42.0772C111.544 41.0162 110.468 39.9453 109.425 38.8445C108.952 38.3476 108.508 38.365 107.934 38.6333C106.87 39.1328 105.772 39.5602 104.699 40.0397C104.015 40.3453 103.399 40.2832 102.765 39.8807C99.9726 38.1016 96.9661 36.8269 93.7235 36.1312C92.9234 35.9598 92.4265 35.4926 92.1407 34.7273C91.7308 33.6266 91.3158 32.5234 90.8164 31.4599C90.6673 31.1419 90.2374 30.7617 89.9219 30.7493C88.2844 30.6797 86.642 30.6872 85.0046 30.7493C84.7064 30.7617 84.289 31.0971 84.1548 31.3879C83.638 32.511 83.2007 33.6713 82.7584 34.8267C82.4925 35.5225 82.0229 35.9523 81.2949 36.1089C78.025 36.822 74.9861 38.0892 72.1684 39.8906C71.5373 40.2931 70.9136 40.3329 70.2328 40.0273C69.1321 39.5328 68.009 39.0881 66.9107 38.5861C66.4312 38.3675 66.056 38.3526 65.6609 38.7551C64.5577 39.8832 63.3973 40.9591 62.3363 42.1269C62.1028 42.3828 62.0431 42.9866 62.1649 43.3369C62.56 44.475 63.0619 45.5757 63.5539 46.6789C63.8595 47.3597 63.8396 47.9884 63.4371 48.617C61.6282 51.4322 60.3709 54.481 59.6429 57.7434C59.469 58.5237 59.0167 58.9759 58.2912 59.2517C57.1631 59.6791 56.0301 60.104 54.9418 60.6183C54.6287 60.7674 54.2709 61.2171 54.2585 61.5451C54.1889 63.1527 54.1963 64.7678 54.2585 66.3754C54.2709 66.6786 54.6063 67.0985 54.8995 67.2351C56.0201 67.7569 57.1755 68.2042 58.3334 68.644C59.0664 68.9223 59.4839 69.4068 59.6553 70.1771C60.3759 73.4097 61.6257 76.4287 63.4122 79.219C63.8371 79.8824 63.862 80.526 63.5365 81.2391C63.037 82.3374 62.5426 83.4406 62.1376 84.5761C62.0208 84.9016 62.0903 85.4656 62.309 85.7067C63.3725 86.872 64.5254 87.9529 65.6236 89.0884C66.0411 89.5207 66.4337 89.5108 66.9455 89.2747C68.0115 88.7803 69.1097 88.3529 70.1831 87.8734C70.8913 87.5578 71.5423 87.5677 72.2082 87.9951C74.9961 89.7866 78.0175 91.029 81.2477 91.7545C82.0254 91.9284 82.5024 92.3558 82.7832 93.0764C83.2181 94.202 83.628 95.3425 84.1473 96.4283C84.3064 96.7588 84.7859 97.1265 85.1338 97.1439C86.7091 97.2209 88.2919 97.2135 89.8697 97.1439C90.1977 97.129 90.6549 96.7886 90.8015 96.478C91.3158 95.3897 91.7332 94.2542 92.1631 93.1261C92.4513 92.3682 92.9458 91.926 93.7583 91.7446C96.9586 91.029 99.9527 89.799 102.716 88.0274C103.414 87.5802 104.087 87.5578 104.825 87.8883C105.926 88.3802 107.027 88.8822 108.157 89.2996C108.458 89.4114 108.987 89.3543 109.206 89.153C110.389 88.0622 111.539 86.9316 112.622 85.7439C112.856 85.488 112.913 84.8842 112.791 84.5289C112.434 83.4779 111.981 82.4517 111.494 81.4503C111.052 80.5409 111.156 79.7657 111.701 78.9283C113.191 76.625 114.382 74.1452 114.928 71.4666C115.303 69.618 116.208 68.6813 117.947 68.075C120.829 67.0687 120.792 66.9643 120.74 63.9106L120.743 63.9205ZM85.0568 100.362C82.7385 100.327 81.5632 99.0174 80.9371 97.0346C80.7607 96.4755 80.5644 95.9065 80.2612 95.412C80.05 95.0667 79.6848 94.7287 79.312 94.5797C77.3938 93.8119 75.2917 93.3646 73.5549 92.3086C71.5895 91.111 69.8974 91.0613 68.0637 92.254C67.681 92.5024 67.2561 92.8379 67.0797 93.2329C64.4508 99.2013 61.8568 105.187 59.2602 111.173C58.5024 112.919 59.2254 114.008 61.1536 114.025C62.8258 114.04 64.503 114.117 66.1678 114.005C68.1779 113.871 69.7856 114.467 71.0925 116.025C71.8454 116.925 72.7449 117.698 73.5798 118.53C75.0607 120.006 76.2136 119.81 77.0708 117.931C78.584 114.612 80.0873 111.287 81.598 107.967C82.7335 105.465 83.874 102.966 85.0543 100.364L85.0568 100.362ZM89.989 100.364C90.0461 100.575 90.0585 100.67 90.0983 100.752C92.747 106.583 95.3883 112.42 98.0544 118.244C98.7178 119.693 99.9701 119.907 101.116 118.798C102.273 117.678 103.421 116.547 104.54 115.384C105.456 114.43 106.55 113.99 107.862 114C109.782 114.018 111.706 114.008 113.626 114.003C115.82 113.998 116.491 112.987 115.626 110.991C113.36 105.768 111 100.585 108.87 95.3052C108.046 93.2578 106.93 91.8465 104.766 91.2824C104.226 91.1408 103.841 91.1035 103.305 91.3644C101.362 92.3086 99.4359 93.3944 97.3736 93.9634C95.4926 94.4827 94.4168 95.3648 93.9322 97.2408C93.4353 99.1739 92.1159 100.292 89.989 100.362V100.364Z" fill="black" stroke="black" stroke-miterlimit="10"/>
  <path d="M62.0879 63.9178C62.1177 49.9014 73.5003 38.5238 87.457 38.5636C101.575 38.6033 112.96 50.0182 112.878 64.0595C112.796 78.0634 101.431 89.3516 87.4148 89.3466C73.4804 89.3441 62.0606 77.8771 62.0904 63.9178H62.0879ZM65.2733 63.965C65.2882 76.1974 75.2595 86.1885 87.4372 86.1736C99.759 86.1587 109.685 76.2073 109.69 63.8607C109.695 51.6581 99.7217 41.7217 87.4769 41.7341C75.1775 41.7465 65.2559 51.678 65.2733 63.965Z" fill="black" stroke="black" stroke-miterlimit="10"/>
  <path d="M81.148 66.6911C81.404 66.4476 81.6525 66.2215 81.891 65.983C85.7274 62.149 89.5539 58.3076 93.3978 54.4836C95.4278 52.4635 98.2927 52.3592 100.223 54.1954C102.169 56.0465 102.236 59.0481 100.303 61.0185C97.5697 63.8064 94.7892 66.547 92.0287 69.3076C89.6185 71.7178 87.2133 74.1329 84.7981 76.5381C82.5445 78.7794 79.7491 78.7719 77.4955 76.5357C76.5935 75.6412 75.6941 74.7442 74.802 73.8397C72.8788 71.8917 72.6701 69.2579 74.2753 67.2974C75.868 65.3543 78.5167 65.0239 80.8076 66.4799C80.907 66.5445 81.0114 66.6042 81.153 66.6886L81.148 66.6911ZM81.1853 75.2063C81.6748 74.8759 82.1842 74.6398 82.5594 74.2671C87.6556 69.2007 92.7344 64.1145 97.8157 59.0307C97.9697 58.8766 98.1262 58.7251 98.2505 58.5487C98.7425 57.848 98.653 57.0007 98.0393 56.4466C97.4653 55.9273 96.6379 55.8974 95.9993 56.3944C95.7807 56.5658 95.5918 56.7721 95.3955 56.9708C91.3206 61.0433 87.2456 65.1183 83.1706 69.1908C81.322 71.0394 81.1505 71.0419 79.195 69.2753C78.4223 68.577 77.5253 68.5447 76.8743 69.1883C76.2233 69.8343 76.2332 70.7636 76.9513 71.5066C77.9204 72.5079 78.9018 73.5018 79.9181 74.4534C80.2386 74.7541 80.6859 74.9156 81.1878 75.2038L81.1853 75.2063Z" fill="black" stroke="black" stroke-miterlimit="10"/>
  </g>
  <defs>
  <clipPath id="clip0_591_4">
  <rect width="73.0314" height="95.3592" fill="white" transform="translate(50.9688 27.4297)"/>
  </clipPath>
  </defs>
</svg>
