<svg width="587" height="591" viewBox="0 0 587 591" fill="none" xmlns="http://www.w3.org/2000/svg">
<g filter="url(#filter0_d_12_2)">
<path d="M454.302 292.769L518.866 256.5L560.848 234.521L556.786 256.312L537.602 289.807L532.961 281.556L468.397 317.839L454.302 292.769Z" fill="url(#paint0_linear_12_2)"/>
<path d="M536.546 275.516L537.601 289.807L532.961 281.556L531.906 267.265L536.546 275.516Z" fill="url(#paint1_linear_12_2)"/>
<path d="M467.327 303.549L468.397 317.84L454.302 292.769L453.247 278.493L467.327 303.549Z" fill="url(#paint2_linear_12_2)"/>
<path d="M453.247 278.493L517.81 242.209L513.17 233.958L560.848 234.522L536.546 275.516L531.906 267.265L467.327 303.549L453.247 278.493Z" fill="#8FD4F6"/>
<path d="M453.247 278.493L517.81 242.209L513.17 233.958L560.848 234.522L536.546 275.516L531.906 267.265L467.327 303.549L453.247 278.493Z" fill="url(#paint3_linear_12_2)"/>
</g>
<g filter="url(#filter1_d_12_2)">
<path d="M131.166 488.594L70.1583 530.585L31.9492 558.603L53.3162 564.542L91.8433 562.057L86.4799 554.268L147.473 512.263L131.166 488.594Z" fill="url(#paint4_linear_12_2)"/>
<path d="M79.4684 554.818L91.8434 562.057L86.4799 554.269L74.105 547.029L79.4684 554.818Z" fill="url(#paint5_linear_12_2)"/>
<path d="M135.112 505.038L147.473 512.263L131.165 488.594L118.791 481.354L135.112 505.038Z" fill="url(#paint6_linear_12_2)"/>
<path d="M118.791 481.354L57.7978 523.36L52.4199 515.557L31.9492 558.604L79.4684 554.818L74.105 547.029L135.112 505.038L118.791 481.354Z" fill="#8FD4F6"/>
<path d="M118.791 481.354L57.7978 523.36L52.4199 515.557L31.9492 558.604L79.4684 554.818L74.105 547.029L135.112 505.038L118.791 481.354Z" fill="url(#paint7_linear_12_2)"/>
</g>
<g filter="url(#filter2_d_12_2)">
<path d="M405.12 441.314L431.027 466.457C429.74 468.378 453.608 474.708 458.147 469.014L491.774 428.511C493.306 426.662 493.002 423.931 491.109 422.471C486.714 419.104 478.994 413.946 473.876 414.582L447.666 387.893C441.956 383.355 433.585 384.309 429.046 390.002L403.009 422.702C398.47 428.41 399.424 436.777 405.12 441.314Z" fill="url(#paint8_linear_12_2)"/>
<path d="M440.062 382.098H440.178C450.529 386.332 456.037 385.277 461.097 390.855L492.395 423.916C480.555 419.913 469.395 418.743 469.395 418.743L437.792 387.271C435.841 385.32 437.301 381.997 440.062 382.113V382.098Z" fill="url(#paint9_linear_12_2)"/>
<path d="M401.709 437.629L427.875 464.275C427.875 464.275 427.933 464.332 427.962 464.361C437.315 472.93 442.014 467.887 446.539 462.208L472.575 429.508C477.115 423.8 481.943 421.387 470.465 410.897L444.298 384.251C444.298 384.251 444.24 384.193 444.211 384.164C438.515 379.671 431.215 381.737 426.69 387.43L400.075 420.434C395.535 426.141 396.013 433.106 401.723 437.643L401.709 437.629Z" fill="url(#paint10_linear_12_2)"/>
<path d="M417.625 437.687L424.131 443.351L438.342 427.052L442.881 431.011L448.129 425.983L443.098 421.604C443.098 421.604 444.876 419.567 445.801 418.497C446.929 417.211 447.623 416.922 448.866 418.006C449.864 418.873 452.394 421.07 452.394 421.07L457.338 415.405C457.338 415.405 453.622 412.168 452.827 411.475C447.984 407.256 443.936 407.487 440.38 411.562C437.286 415.116 436.592 415.911 436.592 415.911L433.21 412.963L428.395 418.483L431.778 421.431L417.625 437.658V437.687Z" fill="white"/>
</g>
<g filter="url(#filter3_d_12_2)">
<path d="M336.292 18.5248L244.116 36.775C237.697 38.35 223.833 50.7914 226.652 62.9004L240.241 104.964C242.598 111.813 246.602 120.324 253.021 118.749L258.081 117.723L267.94 144.484L286.676 115.296L349.317 99.3574C363.413 94.6034 371.19 83.058 368.834 76.2087L352.266 28.1195C349.91 21.2703 342.725 16.9498 336.292 18.5248Z" fill="url(#paint11_linear_12_2)"/>
<path d="M338.316 13.6698L246.588 36.2405C240.4 37.7577 237.249 44.6214 239.562 51.4706L255.883 99.6032C258.211 106.452 265.165 110.816 271.352 109.299L272.436 109.024L277.352 129.616L292.329 104.126L363.094 86.7139C369.282 85.1966 372.433 78.3474 370.12 71.4837L353.799 23.3512C351.471 16.5019 344.518 12.1381 338.33 13.6553L338.316 13.6698Z" fill="url(#paint12_linear_12_2)"/>
<path d="M285.158 66.5562C286.647 70.92 284.638 75.255 280.706 76.2231C276.759 77.1913 272.364 74.4314 270.875 70.0675C269.386 65.7036 271.395 61.3687 275.328 60.4005C279.274 59.4324 283.669 62.1923 285.158 66.5562Z" fill="url(#paint13_linear_12_2)"/>
<path d="M314.679 59.3023C316.168 63.6661 314.159 68.0011 310.226 68.9692C306.294 69.9374 301.885 67.1775 300.396 62.8136C298.907 58.4497 300.916 54.1148 304.848 53.1466C308.795 52.1785 313.19 54.9384 314.679 59.3023Z" fill="url(#paint14_linear_12_2)"/>
<path d="M341.814 52.6265C343.303 56.9903 341.294 61.3253 337.362 62.2935C333.415 63.2616 329.02 60.5017 327.531 56.1378C326.042 51.7739 328.051 47.439 331.984 46.4708C335.93 45.5027 340.325 48.2626 341.814 52.6265Z" fill="url(#paint15_linear_12_2)"/>
</g>
<path d="M517.68 340.555L510.148 346.392C511.984 353.69 511.16 361.29 507.748 368.111C499.971 383.644 481.018 389.959 465.477 382.199C449.936 374.425 443.604 355.481 451.367 339.948L459.506 344.023C453.984 355.062 458.494 368.544 469.539 374.064C480.584 379.584 494.072 375.09 499.595 364.05C501.373 360.481 502.154 356.609 501.937 352.75L495.417 357.808L491.615 329.934L517.666 340.569L517.68 340.555Z" fill="#F9FBFC"/>
<path d="M41.881 295.644L39.0331 286.555C31.559 285.732 24.7065 282.322 19.5021 276.758C7.63311 264.071 8.31258 244.116 21.0056 232.253C33.6985 220.39 53.6777 221.054 65.5467 233.741L58.8966 239.955C50.4683 230.938 36.2574 230.461 27.2219 238.9C18.201 247.324 17.7239 261.528 26.1521 270.545C28.8845 273.464 32.2384 275.53 35.9249 276.672L33.4528 268.811L60.9205 274.938L41.881 295.659V295.644Z" fill="#F9FBFC"/>
<g filter="url(#filter4_d_12_2)">
<path d="M310.958 402.74L272.867 411.712C268.267 412.796 265.416 417.402 266.5 422.001L282.307 489.047C283.391 493.645 288 496.494 292.6 495.411L330.691 486.439C335.292 485.355 338.143 480.749 337.059 476.15L321.251 409.104C320.167 404.506 315.559 401.657 310.958 402.74Z" fill="url(#paint16_linear_12_2)"/>
<path d="M461.328 394.67L131.151 472.424C124.082 474.086 116.926 469.664 115.263 462.598L80.9139 316.886C79.2514 309.82 83.6751 302.667 90.7444 301.005L420.921 223.251C427.99 221.589 435.146 226.011 436.809 233.077L471.158 378.789C472.821 385.855 468.397 393.008 461.328 394.67Z" fill="white"/>
<path d="M64.1032 207.9L402.152 128.276C407.513 127.013 412.885 130.335 414.149 135.693L464.226 348.097L106.759 432.296L56.682 219.892C55.4187 214.533 58.7421 209.163 64.1032 207.9Z" fill="url(#paint17_linear_12_2)"/>
<path d="M430.304 336.307L133.551 406.186C126.135 407.935 118.632 403.296 116.883 395.884L78.9193 234.84C77.17 227.427 81.8106 219.928 89.2269 218.179L385.98 148.299C393.396 146.551 400.899 151.189 402.648 158.602L440.612 319.646C442.361 327.059 437.72 334.558 430.304 336.307Z" fill="#8FD4F6"/>
<path d="M430.304 336.307L133.551 406.186C126.135 407.935 118.632 403.296 116.882 395.884L385.994 148.299C393.41 146.551 400.913 151.189 402.662 158.602L440.626 319.646C442.375 327.059 437.734 334.558 430.318 336.307H430.304Z" fill="url(#paint18_linear_12_2)"/>
<path d="M372.722 483.349L248.727 512.552C244.303 513.592 239.822 510.832 238.781 506.396C237.74 501.975 240.501 497.495 244.94 496.455L368.935 467.252C373.358 466.211 377.84 468.971 378.881 473.407C379.922 477.829 377.161 482.308 372.722 483.349Z" fill="white"/>
<path d="M405.496 170.668L402.648 158.616C400.899 151.204 393.396 146.565 385.98 148.314L89.2269 218.193C81.8106 219.942 77.17 227.441 78.9193 234.854L81.7673 246.905L405.496 170.668Z" fill="url(#paint19_linear_12_2)"/>
<path d="M102.411 227.181C102.989 229.623 101.471 232.08 99.0283 232.643C96.5851 233.221 94.1274 231.704 93.5492 229.262C92.9709 226.82 94.4889 224.363 96.9321 223.785C99.3752 223.207 101.833 224.725 102.411 227.167V227.181Z" fill="url(#paint20_linear_12_2)"/>
<path d="M122.145 222.528C122.723 224.97 121.205 227.427 118.762 227.99C116.319 228.568 113.861 227.051 113.297 224.609C112.719 222.167 114.237 219.711 116.68 219.133C119.123 218.555 121.581 220.072 122.159 222.514L122.145 222.528Z" fill="url(#paint21_linear_12_2)"/>
<path d="M140.259 218.266C140.837 220.708 139.319 223.164 136.876 223.742C134.433 224.32 131.975 222.803 131.411 220.361C130.833 217.919 132.351 215.463 134.794 214.885C137.238 214.307 139.695 215.824 140.273 218.266H140.259Z" fill="url(#paint22_linear_12_2)"/>
</g>
<g filter="url(#filter5_d_12_2)">
<path d="M106.922 150.019L187.128 238.495L183.47 206.604L210.273 203.353L117.157 130.41L106.922 150.019Z" fill="url(#paint23_linear_12_2)"/>
<path d="M107.009 136.147L183.47 206.604L210.273 203.353L117.157 130.41L107.009 136.147Z" fill="url(#paint24_linear_12_2)"/>
<path d="M94.142 150.958L90.4556 165.191L113.022 189.814L115.234 164.281L94.142 150.958Z" fill="url(#paint25_linear_12_2)"/>
<path d="M125.528 121.784L139.826 118.374L164.04 141.407L138.438 143.126L125.528 121.784Z" fill="url(#paint26_linear_12_2)"/>
<path d="M70.4621 91.3666C72.7896 88.0287 73.9606 84.0694 73.9895 79.8934C60.3135 75.963 50.0637 75.2261 50.0637 75.2261C50.0637 75.2261 49.8179 85.0375 53.6779 99.1551C60.2701 98.7216 66.8624 96.5396 70.4765 91.3666H70.4621Z" fill="url(#paint27_linear_12_2)"/>
<path d="M72.8331 79.6043C72.5584 83.5347 71.185 87.3205 68.7419 90.5428C65.1277 95.3113 59.0703 97.5221 53.1431 98.2591C55.9188 110.556 61.3689 127.087 72.5151 138.459C95.1109 161.492 115.365 177.213 132.944 159.96C149.714 143.516 135.185 122.188 112.589 99.155C101.241 87.5951 85.1936 82.5521 72.8331 79.5898V79.6043Z" fill="white"/>
<path d="M72.8331 79.6043C72.5584 83.5347 71.185 87.3205 68.7419 90.5428C65.1277 95.3113 59.0703 97.5221 53.1431 98.2591C55.9188 110.556 61.3689 127.087 72.5151 138.459C95.1109 161.492 115.365 177.213 132.944 159.96C149.714 143.516 135.185 122.188 112.589 99.155C101.241 87.5951 85.1936 82.5521 72.8331 79.5898V79.6043Z" fill="url(#paint28_linear_12_2)"/>
<path d="M101.529 106.496C107.5 112.579 107.413 122.347 101.327 128.315C95.2408 134.283 85.4681 134.196 79.4974 128.113C73.5268 122.029 73.6136 112.261 79.6998 106.293C85.7861 100.325 95.5588 100.412 101.529 106.496Z" fill="url(#paint29_linear_12_2)"/>
<path d="M111.591 137.809L116.102 156.593L144.668 170.538L129.575 142.996L111.591 137.809Z" fill="url(#paint30_linear_12_2)"/>
</g>
<path d="M108.555 352.129L93.9831 348.704L77.4157 322.839C75.4496 319.761 71.1704 318.519 67.8598 320.065L35.8382 335.006L17.3192 330.642L14.0953 347.78H14.1242C13.864 349.167 14.0953 350.641 14.9338 351.999L42.5027 396.591C44.4255 399.698 48.6179 400.868 51.8707 399.207L102.093 373.558C103.871 372.648 104.956 371.087 105.288 369.353H105.317L108.555 352.129Z" fill="url(#paint31_linear_12_2)"/>
<path d="M56.2944 325.454L35.8382 334.991L17.3192 330.627L14.0953 347.765H14.1242C13.864 349.152 14.0953 350.626 14.9338 351.984L42.5027 396.577C43.6304 398.412 45.5675 399.553 47.6204 399.842L60.6025 330.367L56.2944 325.44V325.454Z" fill="url(#paint32_linear_12_2)"/>
<path d="M18.1576 334.861L45.7265 379.454C47.6492 382.561 51.8417 383.731 55.0944 382.069L105.317 356.421C108.57 354.759 109.611 350.93 107.645 347.852L80.6539 305.716C78.6878 302.638 74.4086 301.396 71.098 302.942L20.6875 326.466C17.3769 328.012 16.2493 331.784 18.172 334.876L18.1576 334.861Z" fill="url(#paint33_linear_12_2)"/>
<path d="M73.7583 316.929C73.4403 316.293 72.6596 316.048 72.038 316.395L46.7532 330.411C46.1894 330.729 45.9581 331.422 46.2183 332L57.0175 355.944C55.6007 355.814 54.0683 356.016 52.5937 356.637C48.3868 358.386 46.146 362.62 47.6061 366.117C49.0663 369.613 53.6346 371.001 57.8415 369.252C62.005 367.518 64.2169 363.313 62.829 359.802L53.4611 338.618C53.2009 338.04 53.4322 337.361 53.9815 337.043L71.9946 326.64C72.6307 326.278 73.4403 326.538 73.7439 327.203L80.6686 342.549C79.2085 342.39 77.6327 342.607 76.0858 343.242C71.8789 344.991 69.6671 349.239 71.1127 352.75C72.5729 356.247 77.199 357.779 81.4059 356.031C85.5694 354.297 88.1572 350.756 86.7693 347.245L73.7583 316.929Z" fill="white"/>
<g filter="url(#filter6_d_12_2)">
<path d="M103.737 489.105L184.509 438.067C189.861 434.685 196.941 436.279 200.325 441.629L225.029 480.689C228.413 486.039 226.817 493.116 221.465 496.498L140.693 547.536C135.341 550.918 128.26 549.323 124.877 543.973L100.172 504.913C96.7887 499.563 98.3844 492.486 103.737 489.105Z" fill="url(#paint34_linear_12_2)"/>
<path d="M153.588 500.746L173.61 488.103" stroke="#C48027" stroke-width="1.43" stroke-miterlimit="10"/>
<path d="M99.144 496.498L120.901 435.158C122.159 431.604 125.687 429.378 129.431 429.754L192.448 436.054L99.144 496.498Z" fill="#FFCA7A"/>
<path d="M94.4466 460.982L163.097 417.604C168.192 414.384 174.934 415.903 178.155 420.996L201.593 458.053C204.814 463.146 203.295 469.884 198.199 473.104L129.549 516.483C124.453 519.702 117.712 518.184 114.491 513.091L91.0531 476.034C87.8318 470.94 89.351 464.202 94.4466 460.982Z" fill="white"/>
<path d="M178.685 467.02C148.976 469.433 119.21 470.95 89.4004 471.341C89.5594 472.973 90.0799 474.592 91.0195 476.066L114.454 513.115C117.663 518.187 124.443 519.719 129.518 516.511L198.173 473.132C201.165 471.239 202.914 468.118 203.189 464.824C195.021 465.604 186.853 466.341 178.685 467.006V467.02Z" fill="#F5F5F5"/>
<path d="M103.207 497.292L153.588 500.746L133.32 544.919" fill="url(#paint35_linear_12_2)"/>
<path d="M192.1 441.126L173.61 488.103L222.228 488.753" fill="url(#paint36_linear_12_2)"/>
<path d="M165.616 433.959L108.093 470.3C107.066 470.95 105.693 470.647 105.042 469.606C104.392 468.581 104.696 467.208 105.736 466.558L163.26 430.216C164.286 429.566 165.659 429.869 166.31 430.91C166.961 431.936 166.657 433.308 165.616 433.959Z" fill="url(#paint37_linear_12_2)"/>
<path d="M170.82 442.195L113.297 478.537C112.271 479.187 110.897 478.884 110.247 477.843C109.596 476.817 109.9 475.445 110.941 474.794L168.464 438.453C169.49 437.803 170.864 438.106 171.514 439.147C172.165 440.173 171.861 441.545 170.82 442.195Z" fill="url(#paint38_linear_12_2)"/>
<path d="M176.27 450.807L118.747 487.149C117.721 487.799 116.347 487.496 115.697 486.455C115.046 485.429 115.35 484.056 116.391 483.406L173.914 447.065C174.94 446.415 176.314 446.718 176.964 447.758C177.615 448.784 177.311 450.157 176.27 450.807Z" fill="url(#paint39_linear_12_2)"/>
<path d="M181.475 459.044L123.952 495.386C122.925 496.036 121.552 495.732 120.901 494.692C120.251 493.666 120.554 492.293 121.595 491.643L179.119 455.302C180.145 454.651 181.518 454.955 182.169 455.995C182.819 457.021 182.516 458.394 181.475 459.044Z" fill="url(#paint40_linear_12_2)"/>
</g>
<g filter="url(#filter7_d_12_2)">
<path d="M342.942 421.546L373.142 442.73C372.159 444.868 397.256 447.412 400.899 440.924L428.265 394.641C429.509 392.531 428.771 389.814 426.617 388.658C421.63 385.985 413.028 382.011 407.954 383.485L377.204 360.799C370.713 357.143 362.415 359.455 358.757 365.943L337.781 403.123C334.123 409.611 336.436 417.905 342.927 421.561L342.942 421.546Z" fill="url(#paint41_linear_12_2)"/>
<path d="M368.617 356.175H368.733C379.85 358.762 385.242 356.811 391.242 361.608L428.15 389.901C415.558 387.777 404.123 388.399 404.123 388.399L367.171 361.753C364.887 360.106 365.827 356.508 368.617 356.19V356.175Z" fill="url(#paint42_linear_12_2)"/>
<path d="M338.909 418.382L369.6 441.039C369.6 441.039 369.672 441.083 369.701 441.111C380.515 448.235 384.447 442.398 388.09 435.938L409.067 398.759C412.724 392.271 417.206 389.063 403.92 380.321L373.229 357.663C373.229 357.663 373.156 357.62 373.128 357.591C366.651 353.979 359.625 357.244 355.982 363.703L334.47 401.288C330.813 407.776 332.417 414.726 338.909 418.382Z" fill="url(#paint43_linear_12_2)"/>
<path d="M356.618 383.688C360.796 377.807 368.458 376.073 373.735 379.83C376.857 382.055 378.433 385.711 378.332 389.54C381.917 388.182 385.878 388.471 389.016 390.682C394.292 394.424 395.174 402.227 390.996 408.108C385.589 415.723 370.713 415.608 362.516 417.081C360.68 417.414 359.047 416.287 358.714 414.452C357.095 405.709 350.344 392.517 356.618 383.688Z" fill="url(#paint44_linear_12_2)"/>
<path d="M361.75 416.633C360.131 407.891 353.38 394.698 359.654 385.869C363.427 380.552 370.048 378.645 375.18 381.087C374.732 380.624 374.255 380.191 373.72 379.815C368.444 376.072 360.781 377.792 356.603 383.673C350.329 392.487 357.081 405.695 358.7 414.437C359.003 416.055 360.319 417.11 361.88 417.11C361.822 416.951 361.779 416.792 361.736 416.633H361.75Z" fill="url(#paint45_linear_12_2)"/>
</g>
<path d="M491.644 490.255H488.651C488.463 489.547 488.174 488.868 487.813 488.247L489.938 486.123C490.661 485.4 490.661 484.23 489.938 483.522L489.562 483.146C488.839 482.423 487.668 482.423 486.96 483.146L484.834 485.27C484.213 484.909 483.533 484.634 482.825 484.446V481.441C482.825 480.429 482.001 479.591 480.975 479.591H480.44C479.428 479.591 478.589 480.415 478.589 481.441V484.461C477.881 484.649 477.216 484.923 476.594 485.285L474.455 483.146C473.732 482.423 472.561 482.423 471.852 483.146L471.477 483.522C470.754 484.244 470.754 485.415 471.477 486.123L473.616 488.261C473.255 488.883 472.98 489.547 472.792 490.255H469.771C468.759 490.255 467.92 491.079 467.92 492.105V492.64C467.92 493.651 468.744 494.489 469.771 494.489H472.806C472.994 495.197 473.269 495.862 473.631 496.483L471.491 498.622C470.768 499.344 470.768 500.515 471.491 501.223L471.867 501.598C472.59 502.321 473.761 502.321 474.469 501.598L476.609 499.46C477.23 499.821 477.895 500.096 478.604 500.284V503.304C478.604 504.315 479.428 505.153 480.454 505.153H480.989C482.001 505.153 482.839 504.33 482.839 503.304V500.298C483.548 500.11 484.227 499.836 484.849 499.474L486.974 501.598C487.697 502.321 488.868 502.321 489.576 501.598L489.952 501.223C490.675 500.5 490.675 499.33 489.952 498.622L487.827 496.498C488.188 495.876 488.478 495.197 488.666 494.489H491.658C492.67 494.489 493.509 493.665 493.509 492.64V492.105C493.509 491.093 492.684 490.255 491.658 490.255H491.644ZM480.729 497.986C477.621 497.986 475.105 495.472 475.105 492.365C475.105 489.258 477.621 486.744 480.729 486.744C483.837 486.744 486.352 489.258 486.352 492.365C486.352 495.472 483.837 497.986 480.729 497.986Z" fill="#F9FBFC"/>
<path d="M493.176 121.914H490.184C489.996 121.205 489.706 120.526 489.345 119.905L491.47 117.781C492.193 117.058 492.193 115.888 491.47 115.18L491.094 114.804C490.371 114.082 489.2 114.082 488.492 114.804L486.367 116.928C485.745 116.567 485.066 116.293 484.357 116.105V113.099C484.357 112.088 483.533 111.25 482.507 111.25H481.972C480.96 111.25 480.122 112.073 480.122 113.099V116.119C479.413 116.307 478.748 116.582 478.127 116.943L475.987 114.804C475.264 114.082 474.093 114.082 473.385 114.804L473.009 115.18C472.286 115.902 472.286 117.073 473.009 117.781L475.149 119.919C474.787 120.541 474.512 121.205 474.325 121.914H471.303C470.291 121.914 469.453 122.737 469.453 123.763V124.298C469.453 125.309 470.277 126.147 471.303 126.147H474.339C474.527 126.855 474.802 127.52 475.163 128.141L473.023 130.28C472.301 131.003 472.301 132.173 473.023 132.881L473.399 133.257C474.122 133.979 475.293 133.979 476.002 133.257L478.141 131.118C478.763 131.479 479.428 131.754 480.136 131.942V134.962C480.136 135.973 480.96 136.811 481.987 136.811H482.521C483.533 136.811 484.372 135.988 484.372 134.962V131.956C485.08 131.768 485.76 131.494 486.381 131.133L488.507 133.257C489.229 133.979 490.4 133.979 491.109 133.257L491.485 132.881C492.207 132.158 492.207 130.988 491.485 130.28L489.36 128.156C489.721 127.535 490.01 126.855 490.198 126.147H493.191C494.202 126.147 495.041 125.324 495.041 124.298V123.763C495.041 122.752 494.217 121.914 493.191 121.914H493.176ZM482.247 129.644C479.139 129.644 476.623 127.13 476.623 124.023C476.623 120.916 479.139 118.402 482.247 118.402C485.355 118.402 487.87 120.916 487.87 124.023C487.87 127.13 485.355 129.644 482.247 129.644Z" fill="#F9FBFC"/>
<path d="M230.527 538.995H225.221V533.692C225.221 532.565 224.296 531.625 223.154 531.625C222.012 531.625 221.086 532.55 221.086 533.692V538.995H215.781C214.653 538.995 213.713 539.92 213.713 541.061C213.713 542.203 214.639 543.128 215.781 543.128H221.086V548.431C221.086 549.558 222.012 550.497 223.154 550.497C224.296 550.497 225.221 549.572 225.221 548.431V543.128H230.527C231.654 543.128 232.594 542.203 232.594 541.061C232.594 539.92 231.669 538.995 230.527 538.995Z" fill="white"/>
<path d="M474.729 222.384H469.424V217.08C469.424 215.939 468.498 215.014 467.356 215.014C466.214 215.014 465.289 215.939 465.289 217.08V222.384H459.983C458.841 222.384 457.916 223.308 457.916 224.45C457.916 225.591 458.841 226.516 459.983 226.516H465.289V231.819C465.289 232.961 466.214 233.886 467.356 233.886C468.498 233.886 469.424 232.961 469.424 231.819V226.516H474.729C475.857 226.516 476.796 225.591 476.796 224.45C476.796 223.308 475.871 222.384 474.729 222.384Z" fill="white"/>
<path d="M226.782 143.097H221.477V137.794C221.477 136.652 220.552 135.728 219.409 135.728C218.267 135.728 217.342 136.652 217.342 137.794V143.097H212.037C210.894 143.097 209.969 144.022 209.969 145.163C209.969 146.305 210.894 147.23 212.037 147.23H217.342V152.533C217.342 153.674 218.267 154.599 219.409 154.599C220.552 154.599 221.477 153.674 221.477 152.533V147.23H226.782C227.924 147.23 228.85 146.305 228.85 145.163C228.85 144.022 227.924 143.097 226.782 143.097Z" fill="white"/>
<path d="M16.7987 388.196H11.4931V382.893C11.4931 381.766 10.5679 380.827 9.42577 380.827C8.28369 380.827 7.35846 381.751 7.35846 382.893V388.196H2.06731C0.925229 388.196 0 389.121 0 390.262C0 391.404 0.925229 392.329 2.06731 392.329H7.37292V397.632C7.37292 398.773 8.29815 399.698 9.44023 399.698C10.5823 399.698 11.5075 398.773 11.5075 397.632V392.329H16.8131C17.9552 392.329 18.8805 391.404 18.8805 390.262C18.8805 389.121 17.9552 388.196 16.8131 388.196H16.7987Z" fill="white"/>
<path d="M45.5387 168.514H40.2331V163.211C40.2331 162.084 39.3079 161.145 38.1658 161.145C37.0237 161.145 36.0985 162.07 36.0985 163.211V168.514H30.7929C29.6508 168.514 28.7256 169.439 28.7256 170.581C28.7256 171.722 29.6508 172.647 30.7929 172.647H36.0985V177.95C36.0985 179.077 37.0237 180.017 38.1658 180.017C39.3079 180.017 40.2331 179.092 40.2331 177.95V172.647H45.5387C46.6808 172.647 47.606 171.722 47.606 170.581C47.606 169.439 46.6808 168.514 45.5387 168.514Z" fill="white"/>
<path d="M550.294 423.945C553.301 430.592 546.521 436.964 539.9 433.207C537.862 432.051 536.734 429.783 536.821 427.442C536.821 427.225 536.821 426.994 536.835 426.777L521.294 420.361C520.745 420.997 520.066 421.532 519.328 421.922L522.046 438.337C526.325 439.031 529.303 443.582 527.395 448.278C526.73 449.911 525.386 451.226 523.752 451.876C518.649 453.899 513.777 450.186 513.777 445.345C513.777 442.629 515.295 440.273 517.521 439.074L514.803 422.659C511.131 422.052 508.413 418.642 508.934 414.711C509.368 411.417 511.97 408.903 515.28 408.585C519.516 408.18 523.087 411.504 523.087 415.665C523.087 415.81 523.087 415.954 523.072 416.113L538.613 422.529C540.551 420.332 543.818 419.35 547.172 420.824C548.56 421.431 549.702 422.558 550.323 423.945H550.294Z" fill="#7DB4E2"/>
<path d="M161.669 87.0748C160.151 79.9365 168.146 75.1681 173.798 80.24C175.548 81.8006 176.155 84.257 175.576 86.5257C175.519 86.7424 175.49 86.9592 175.417 87.1615L189.224 96.7562C189.903 96.2504 190.669 95.8747 191.479 95.6436L192.346 79.0262C188.313 77.4222 186.376 72.3503 189.253 68.1599C190.25 66.7004 191.84 65.7178 193.59 65.4288C199.011 64.533 202.972 69.2147 201.931 73.9398C201.353 76.5842 199.358 78.5638 196.929 79.2574L196.062 95.8747C199.517 97.2475 201.44 101.163 200.095 104.891C198.967 108.027 195.888 109.92 192.592 109.515C188.371 109.01 185.581 104.993 186.477 100.932C186.506 100.788 186.535 100.643 186.593 100.499L172.786 90.904C170.415 92.638 167.018 92.8981 164.069 90.745C162.84 89.8491 161.973 88.5053 161.655 87.0314L161.669 87.0748Z" fill="#7DB4E2"/>
<path d="M57.3355 472.742C50.3529 474.881 44.9028 467.338 49.4711 461.255C50.8734 459.376 53.2732 458.553 55.5863 458.928C55.8031 458.957 56.02 458.972 56.2368 459.029L64.5928 444.435C64.029 443.814 63.5953 443.077 63.2917 442.282L46.652 442.874C45.4088 447.022 40.5224 449.406 36.0986 446.906C34.5518 446.039 33.4386 444.536 32.9904 442.831C31.6315 437.514 35.9396 433.15 40.7537 433.771C43.4426 434.118 45.5967 435.924 46.493 438.279L63.1327 437.687C64.2025 434.132 67.9323 431.864 71.7633 432.875C74.9872 433.713 77.1412 436.618 77.04 439.941C76.9099 444.189 73.1512 447.311 69.0165 446.79C68.872 446.776 68.7274 446.747 68.5828 446.718L60.2269 461.298C62.1641 463.509 62.7279 466.861 60.8341 469.997C60.0534 471.297 58.7957 472.28 57.3355 472.728V472.742Z" fill="#7DB4E2"/>
<path d="M443.922 503.55H437.865C437.489 502.105 436.911 500.746 436.173 499.489L440.467 495.198C441.913 493.753 441.913 491.383 440.467 489.923L439.701 489.157C438.255 487.712 435.884 487.712 434.424 489.157L430.13 493.449C428.873 492.727 427.514 492.163 426.068 491.773V485.689C426.068 483.638 424.391 481.961 422.338 481.961H421.254C419.201 481.961 417.524 483.638 417.524 485.689V491.787C416.093 492.177 414.734 492.741 413.491 493.464L409.168 489.143C407.722 487.698 405.352 487.698 403.891 489.143L403.125 489.909C401.68 491.354 401.68 493.724 403.125 495.183L407.448 499.504C406.725 500.746 406.161 502.105 405.785 503.535H399.656C397.603 503.535 395.926 505.211 395.926 507.263V508.347C395.926 510.399 397.603 512.075 399.656 512.075H405.785C406.161 513.506 406.725 514.849 407.448 516.092L403.125 520.413C401.68 521.858 401.68 524.227 403.125 525.687L403.891 526.453C405.337 527.898 407.708 527.898 409.168 526.453L413.491 522.132C414.734 522.855 416.093 523.418 417.524 523.808V529.906C417.524 531.958 419.201 533.634 421.254 533.634H422.338C424.391 533.634 426.068 531.958 426.068 529.906V523.823C427.499 523.447 428.873 522.883 430.13 522.161L434.424 526.453C435.87 527.898 438.241 527.898 439.701 526.453L440.467 525.687C441.913 524.242 441.913 521.872 440.467 520.413L436.173 516.121C436.911 514.864 437.474 513.505 437.865 512.061H443.922C445.975 512.061 447.652 510.384 447.652 508.332V507.249C447.652 505.197 445.975 503.521 443.922 503.521V503.55ZM421.847 519.184C415.558 519.184 410.469 514.098 410.469 507.812C410.469 501.527 415.558 496.44 421.847 496.44C428.135 496.44 433.224 501.527 433.224 507.812C433.224 514.098 428.135 519.184 421.847 519.184Z" fill="#F9FBFC"/>
<path d="M463.93 76.1218H457.873C457.497 74.6768 456.919 73.3185 456.181 72.0614L460.475 67.7698C461.921 66.3248 461.921 63.955 460.475 62.4956L459.709 61.7297C458.263 60.2847 455.892 60.2847 454.432 61.7297L450.138 66.0213C448.881 65.2988 447.522 64.7353 446.076 64.3452V58.2618C446.076 56.2099 444.399 54.5337 442.346 54.5337H441.262C439.209 54.5337 437.532 56.2099 437.532 58.2618V64.3596C436.101 64.7498 434.742 65.3133 433.499 66.0358L429.176 61.7153C427.731 60.2703 425.36 60.2703 423.899 61.7153L423.133 62.4811C421.688 63.9261 421.688 66.2959 423.133 67.7553L427.456 72.0758C426.733 73.3185 426.169 74.6768 425.793 76.1074H419.664C417.611 76.1074 415.934 77.7835 415.934 79.8354V80.9192C415.934 82.9711 417.611 84.6472 419.664 84.6472H425.793C426.169 86.0778 426.733 87.4216 427.456 88.6643L423.133 92.9848C421.688 94.4298 421.688 96.7996 423.133 98.259L423.899 99.0249C425.345 100.47 427.716 100.47 429.176 99.0249L433.499 94.7044C434.742 95.4268 436.101 95.9904 437.532 96.3805V102.478C437.532 104.53 439.209 106.206 441.262 106.206H442.346C444.399 106.206 446.076 104.53 446.076 102.478V96.395C447.507 96.0193 448.881 95.4557 450.138 94.7332L454.432 99.0249C455.878 100.47 458.249 100.47 459.709 99.0249L460.475 98.259C461.921 96.814 461.921 94.4443 460.475 92.9848L456.181 88.6932C456.919 87.4361 457.482 86.0778 457.873 84.6328H463.93C465.983 84.6328 467.66 82.9566 467.66 80.9047V79.821C467.66 77.7691 465.983 76.0929 463.93 76.0929V76.1218ZM441.84 91.7566C435.552 91.7566 430.463 86.6702 430.463 80.3845C430.463 74.0988 435.552 69.0125 441.84 69.0125C448.129 69.0125 453.218 74.0988 453.218 80.3845C453.218 86.6702 448.129 91.7566 441.84 91.7566Z" fill="#F9FBFC"/>
<g filter="url(#filter8_d_12_2)">
<path d="M508.37 188.788L453.651 162.605C452.712 162.157 451.729 161.853 450.731 161.694C456.861 139.051 446.163 114.544 424.232 104.054C399.511 92.2193 369.875 102.667 358.035 127.39C346.195 152.1 356.647 181.722 381.382 193.556C402.388 203.613 426.95 197.573 441.118 180.364C441.97 181.216 442.982 181.953 444.124 182.502L498.843 208.685C504.308 211.301 510.929 208.974 513.56 203.498C516.177 198.021 513.849 191.418 508.37 188.788ZM387.078 181.693C368.906 172.994 361.23 151.233 369.918 133.069C378.621 114.906 400.393 107.233 418.565 115.917C436.737 124.616 444.414 146.377 435.725 164.541C427.022 182.704 405.25 190.377 387.078 181.678V181.693Z" fill="url(#paint46_linear_12_2)"/>
<path d="M510.596 184.135L455.878 157.952C454.938 157.504 453.955 157.2 452.958 157.041C459.087 134.399 448.389 109.892 426.458 99.4009C401.737 87.5665 372.101 98.0137 360.261 122.737C348.421 147.447 358.873 177.069 383.609 188.903C404.614 198.961 429.176 192.921 443.344 175.711C444.197 176.563 445.209 177.3 446.351 177.849L501.069 204.032C506.534 206.648 513.155 204.321 515.786 198.845C518.403 193.383 516.076 186.765 510.596 184.135ZM389.305 177.04C371.133 168.341 363.456 146.58 372.145 128.416C380.848 110.253 402.619 102.58 420.791 111.264C438.963 119.963 446.64 141.725 437.951 159.888C429.249 178.052 407.477 185.724 389.305 177.026V177.04Z" fill="url(#paint47_linear_12_2)"/>
<path d="M446.153 153.182C450.598 130.323 435.662 108.19 412.792 103.746C389.922 99.3029 367.779 114.232 363.333 137.091C358.888 159.95 373.824 182.083 396.694 186.526C419.564 190.97 441.707 176.041 446.153 153.182Z" fill="url(#paint48_linear_12_2)"/>
<path d="M404.686 115.614C409.081 117.724 410.946 122.983 408.836 127.376C406.725 131.769 401.463 133.633 397.068 131.523C392.673 129.413 390.808 124.154 392.919 119.761C395.029 115.368 400.292 113.504 404.686 115.614Z" fill="white"/>
</g>
<g filter="url(#filter9_d_12_2)">
<path d="M477.398 289.751L412.04 274.657C407.715 273.658 403.399 276.353 402.399 280.677L395.093 312.284C394.093 316.607 396.79 320.921 401.115 321.92L466.472 337.014C470.797 338.013 475.114 335.318 476.113 330.995L483.42 299.388C484.419 295.064 481.723 290.75 477.398 289.751Z" fill="url(#paint49_linear_12_2)"/>
<path d="M430.853 305.268L447.059 308.996" stroke="#C48027" stroke-miterlimit="10"/>
<path d="M406.118 276.022L447.464 256.601C449.864 255.474 452.712 256.124 454.374 258.19L482.334 292.726L406.118 276.036V276.022Z" fill="#FFCA7A"/>
<path d="M477.02 268.976L421.495 256.152C417.372 255.2 413.257 257.769 412.305 261.89L405.376 291.864C404.423 295.985 406.993 300.098 411.116 301.05L466.642 313.873C470.765 314.826 474.879 312.257 475.832 308.136L482.761 278.161C483.713 274.04 481.143 269.928 477.02 268.976Z" fill="white"/>
<path d="M460.085 301.135C444.226 287.509 428.771 273.421 413.866 258.754C413.129 259.635 412.58 260.705 412.305 261.89L405.38 291.859C404.426 295.962 407.014 300.095 411.12 301.049L466.648 313.866C469.062 314.429 471.491 313.75 473.269 312.276C468.845 308.592 464.45 304.878 460.085 301.135Z" fill="#F5F5F5"/>
<path d="M407.722 278.435L430.868 305.268L398.817 316.958" fill="url(#paint50_linear_12_2)"/>
<path d="M479.63 295.038L447.059 308.996L470.725 333.561" fill="url(#paint51_linear_12_2)"/>
<path d="M470.132 278.304L423.61 267.554C422.772 267.366 422.252 266.528 422.439 265.69C422.627 264.852 423.466 264.331 424.304 264.519L470.826 275.27C471.665 275.458 472.185 276.296 471.997 277.134C471.809 277.972 470.971 278.492 470.132 278.304Z" fill="url(#paint52_linear_12_2)"/>
<path d="M468.585 284.966L422.064 274.215C421.225 274.028 420.705 273.189 420.893 272.351C421.081 271.513 421.919 270.993 422.757 271.181L469.279 281.932C470.118 282.119 470.638 282.958 470.45 283.796C470.262 284.634 469.424 285.154 468.585 284.966Z" fill="url(#paint53_linear_12_2)"/>
<path d="M466.981 291.916L420.459 281.166C419.62 280.978 419.1 280.14 419.288 279.302C419.476 278.463 420.314 277.943 421.153 278.131L467.674 288.882C468.513 289.07 469.033 289.908 468.845 290.746C468.658 291.584 467.819 292.104 466.981 291.916Z" fill="url(#paint54_linear_12_2)"/>
<path d="M465.434 298.578L418.912 287.827C418.073 287.639 417.553 286.801 417.741 285.963C417.929 285.125 418.767 284.605 419.606 284.793L466.128 295.543C466.966 295.731 467.487 296.569 467.299 297.407C467.111 298.246 466.272 298.766 465.434 298.578Z" fill="url(#paint55_linear_12_2)"/>
</g>
<g filter="url(#filter10_d_12_2)">
<path d="M162.464 367.894L152.475 398.282C154.282 399.265 138.148 414.047 132.235 411.432L89.1831 393.456C87.2314 392.632 86.3351 390.364 87.2314 388.442C89.2988 383.991 93.231 376.781 97.5102 375.162L107.095 343.445C109.712 337.535 116.68 334.847 122.578 337.448L156.465 352.418C162.377 355.034 165.066 361.998 162.464 367.894Z" fill="url(#paint56_linear_12_2)"/>
<path d="M110.68 335.772L110.594 335.83C104.218 343.401 99.4475 344.846 97.7705 351.291L86.7979 390.103C94.4454 382.098 102.715 376.593 102.715 376.593L114.569 338.893C115.306 336.567 112.791 334.544 110.666 335.772H110.68Z" fill="url(#paint57_linear_12_2)"/>
<path d="M163.621 363.602L154.05 395.276C154.05 395.276 154.021 395.349 154.007 395.378C150.19 405.94 144.437 403.917 138.538 401.317L104.652 386.346C98.739 383.731 93.9683 383.832 98.6522 370.871L108.223 339.196C108.223 339.196 108.251 339.124 108.266 339.095C110.897 333.229 117.475 331.856 123.359 334.457L157.824 349.427C163.736 352.042 166.223 357.707 163.606 363.602H163.621Z" fill="url(#paint58_linear_12_2)"/>
<path d="M116.318 361.854C117.807 356.767 118.01 356.175 118.689 354.195C119.325 352.375 119.933 351.479 120.395 350.901C121.002 350.149 121.61 349.658 122.491 349.253C123.373 348.834 124.139 348.661 125.137 348.661C125.903 348.661 127.016 348.719 128.925 349.34C130.992 350.005 131.614 350.207 136.789 352.129C141.965 354.051 142.572 354.296 144.596 355.134C146.461 355.915 147.4 356.608 148.007 357.129C148.817 357.808 149.337 358.458 149.815 359.383C150.292 360.293 150.537 361.088 150.624 362.114C150.696 362.88 150.711 364.007 150.248 365.9C149.757 367.937 149.598 368.544 148.109 373.63C146.62 378.717 146.417 379.309 145.738 381.289C145.102 383.109 144.494 384.005 144.032 384.583C143.425 385.335 142.817 385.826 141.936 386.231C141.068 386.65 140.288 386.823 139.29 386.823C138.524 386.823 137.411 386.765 135.502 386.144C133.435 385.479 132.813 385.277 127.638 383.355C122.462 381.433 121.855 381.188 119.831 380.35C117.966 379.569 117.027 378.876 116.42 378.355C115.61 377.676 115.09 377.026 114.612 376.101C114.135 375.176 113.89 374.396 113.803 373.37C113.731 372.604 113.716 371.477 114.179 369.584C114.67 367.547 114.829 366.926 116.318 361.854ZM112.82 360.568C111.302 365.741 111.128 366.391 110.637 368.457C110.131 370.524 110.059 372.026 110.174 373.414C110.304 374.844 110.651 376.159 111.418 377.618C112.184 379.078 113.08 380.133 114.208 381.086C115.306 382.011 116.622 382.864 118.66 383.716C120.699 384.569 121.349 384.843 126.626 386.794C131.888 388.745 132.568 388.962 134.664 389.641C136.76 390.32 138.264 390.508 139.637 390.493C141.054 390.493 142.326 390.233 143.714 389.569C145.102 388.904 146.085 388.095 146.938 387.025C147.776 385.985 148.513 384.728 149.193 382.734C149.887 380.74 150.089 380.104 151.622 374.931C153.14 369.758 153.313 369.108 153.805 367.041C154.311 364.975 154.383 363.472 154.267 362.085C154.137 360.654 153.79 359.339 153.024 357.88C152.258 356.421 151.361 355.366 150.234 354.412C149.135 353.487 147.819 352.635 145.781 351.782C143.743 350.93 143.092 350.655 137.815 348.704C132.553 346.754 131.874 346.537 129.778 345.858C127.681 345.193 126.178 344.991 124.804 345.005C123.388 345.02 122.115 345.265 120.728 345.93C119.34 346.595 118.357 347.404 117.504 348.473C116.665 349.513 115.928 350.771 115.249 352.765C114.555 354.759 114.352 355.395 112.82 360.568Z" fill="white"/>
<path d="M122.26 364.065C120.67 369.469 123.851 375.494 129.344 377.532C134.852 379.569 140.591 376.838 142.182 371.449C143.772 366.044 140.591 360.019 135.098 357.981C129.59 355.944 123.851 358.675 122.26 364.065ZM138.683 370.148C137.657 373.659 133.927 375.422 130.356 374.107C126.785 372.792 124.718 368.876 125.759 365.365C126.785 361.854 130.515 360.091 134.086 361.406C137.657 362.721 139.724 366.637 138.683 370.148Z" fill="white"/>
<path d="M125.513 351.464C126.8 351.941 127.537 353.343 127.176 354.614C126.8 355.872 125.455 356.507 124.183 356.045C122.896 355.568 122.159 354.166 122.52 352.895C122.896 351.638 124.226 351.002 125.513 351.479" fill="white"/>
</g>
<defs>
<filter id="filter0_d_12_2" x="448.947" y="229.658" width="124.801" height="101.082" filterUnits="userSpaceOnUse" color-interpolation-filters="sRGB">
<feFlood flood-opacity="0" result="BackgroundImageFix"/>
<feColorMatrix in="SourceAlpha" type="matrix" values="0 0 0 0 0 0 0 0 0 0 0 0 0 0 0 0 0 0 127 0" result="hardAlpha"/>
<feOffset dx="4.3" dy="4.3"/>
<feGaussianBlur stdDeviation="4.3"/>
<feColorMatrix type="matrix" values="0 0 0 0 0.498039 0 0 0 0 0.486275 0 0 0 0 0.494118 0 0 0 0.5 0"/>
<feBlend mode="normal" in2="BackgroundImageFix" result="effect1_dropShadow_12_2"/>
<feBlend mode="normal" in="SourceGraphic" in2="effect1_dropShadow_12_2" result="shape"/>
</filter>
<filter id="filter1_d_12_2" x="27.6492" y="477.054" width="132.723" height="100.388" filterUnits="userSpaceOnUse" color-interpolation-filters="sRGB">
<feFlood flood-opacity="0" result="BackgroundImageFix"/>
<feColorMatrix in="SourceAlpha" type="matrix" values="0 0 0 0 0 0 0 0 0 0 0 0 0 0 0 0 0 0 127 0" result="hardAlpha"/>
<feOffset dx="4.3" dy="4.3"/>
<feGaussianBlur stdDeviation="4.3"/>
<feColorMatrix type="matrix" values="0 0 0 0 0.498039 0 0 0 0 0.486275 0 0 0 0 0.494118 0 0 0 0.5 0"/>
<feBlend mode="normal" in2="BackgroundImageFix" result="effect1_dropShadow_12_2"/>
<feBlend mode="normal" in="SourceGraphic" in2="effect1_dropShadow_12_2" result="shape"/>
</filter>
<filter id="filter2_d_12_2" x="392.804" y="377.512" width="112.578" height="106.454" filterUnits="userSpaceOnUse" color-interpolation-filters="sRGB">
<feFlood flood-opacity="0" result="BackgroundImageFix"/>
<feColorMatrix in="SourceAlpha" type="matrix" values="0 0 0 0 0 0 0 0 0 0 0 0 0 0 0 0 0 0 127 0" result="hardAlpha"/>
<feOffset dx="4.21" dy="4.21"/>
<feGaussianBlur stdDeviation="4.21"/>
<feColorMatrix type="matrix" values="0 0 0 0 0.498039 0 0 0 0 0.486275 0 0 0 0 0.494118 0 0 0 0.5 0"/>
<feBlend mode="normal" in2="BackgroundImageFix" result="effect1_dropShadow_12_2"/>
<feBlend mode="normal" in="SourceGraphic" in2="effect1_dropShadow_12_2" result="shape"/>
</filter>
<filter id="filter3_d_12_2" x="221.979" y="9.054" width="161.801" height="148.33" filterUnits="userSpaceOnUse" color-interpolation-filters="sRGB">
<feFlood flood-opacity="0" result="BackgroundImageFix"/>
<feColorMatrix in="SourceAlpha" type="matrix" values="0 0 0 0 0 0 0 0 0 0 0 0 0 0 0 0 0 0 127 0" result="hardAlpha"/>
<feOffset dx="4.3" dy="4.3"/>
<feGaussianBlur stdDeviation="4.3"/>
<feColorMatrix type="matrix" values="0 0 0 0 0.498039 0 0 0 0 0.486275 0 0 0 0 0.494118 0 0 0 0.5 0"/>
<feBlend mode="normal" in2="BackgroundImageFix" result="effect1_dropShadow_12_2"/>
<feBlend mode="normal" in="SourceGraphic" in2="effect1_dropShadow_12_2" result="shape"/>
</filter>
<filter id="filter4_d_12_2" x="52.4141" y="124.008" width="431.094" height="400.764" filterUnits="userSpaceOnUse" color-interpolation-filters="sRGB">
<feFlood flood-opacity="0" result="BackgroundImageFix"/>
<feColorMatrix in="SourceAlpha" type="matrix" values="0 0 0 0 0 0 0 0 0 0 0 0 0 0 0 0 0 0 127 0" result="hardAlpha"/>
<feOffset dx="4" dy="4"/>
<feGaussianBlur stdDeviation="4"/>
<feColorMatrix type="matrix" values="0 0 0 0 0.498039 0 0 0 0 0.486275 0 0 0 0 0.494118 0 0 0 0.5 0"/>
<feBlend mode="normal" in2="BackgroundImageFix" result="effect1_dropShadow_12_2"/>
<feBlend mode="normal" in="SourceGraphic" in2="effect1_dropShadow_12_2" result="shape"/>
</filter>
<filter id="filter5_d_12_2" x="45.7605" y="70.9261" width="177.412" height="180.469" filterUnits="userSpaceOnUse" color-interpolation-filters="sRGB">
<feFlood flood-opacity="0" result="BackgroundImageFix"/>
<feColorMatrix in="SourceAlpha" type="matrix" values="0 0 0 0 0 0 0 0 0 0 0 0 0 0 0 0 0 0 127 0" result="hardAlpha"/>
<feOffset dx="4.3" dy="4.3"/>
<feGaussianBlur stdDeviation="4.3"/>
<feColorMatrix type="matrix" values="0 0 0 0 0.498039 0 0 0 0 0.486275 0 0 0 0 0.494118 0 0 0 0.5 0"/>
<feBlend mode="normal" in2="BackgroundImageFix" result="effect1_dropShadow_12_2"/>
<feBlend mode="normal" in="SourceGraphic" in2="effect1_dropShadow_12_2" result="shape"/>
</filter>
<filter id="filter6_d_12_2" x="85.5028" y="412.054" width="152.882" height="148.836" filterUnits="userSpaceOnUse" color-interpolation-filters="sRGB">
<feFlood flood-opacity="0" result="BackgroundImageFix"/>
<feColorMatrix in="SourceAlpha" type="matrix" values="0 0 0 0 0 0 0 0 0 0 0 0 0 0 0 0 0 0 127 0" result="hardAlpha"/>
<feOffset dx="3.86" dy="3.86"/>
<feGaussianBlur stdDeviation="3.86"/>
<feColorMatrix type="matrix" values="0 0 0 0 0.498039 0 0 0 0 0.486275 0 0 0 0 0.494118 0 0 0 0.5 0"/>
<feBlend mode="normal" in2="BackgroundImageFix" result="effect1_dropShadow_12_2"/>
<feBlend mode="normal" in="SourceGraphic" in2="effect1_dropShadow_12_2" result="shape"/>
</filter>
<filter id="filter7_d_12_2" x="328.248" y="351.793" width="113.522" height="106.174" filterUnits="userSpaceOnUse" color-interpolation-filters="sRGB">
<feFlood flood-opacity="0" result="BackgroundImageFix"/>
<feColorMatrix in="SourceAlpha" type="matrix" values="0 0 0 0 0 0 0 0 0 0 0 0 0 0 0 0 0 0 127 0" result="hardAlpha"/>
<feOffset dx="4.3" dy="4.3"/>
<feGaussianBlur stdDeviation="4.3"/>
<feColorMatrix type="matrix" values="0 0 0 0 0.498039 0 0 0 0 0.486275 0 0 0 0 0.494118 0 0 0 0.5 0"/>
<feBlend mode="normal" in2="BackgroundImageFix" result="effect1_dropShadow_12_2"/>
<feBlend mode="normal" in="SourceGraphic" in2="effect1_dropShadow_12_2" result="shape"/>
</filter>
<filter id="filter8_d_12_2" x="348.856" y="90.2249" width="180.904" height="132.434" filterUnits="userSpaceOnUse" color-interpolation-filters="sRGB">
<feFlood flood-opacity="0" result="BackgroundImageFix"/>
<feColorMatrix in="SourceAlpha" type="matrix" values="0 0 0 0 0 0 0 0 0 0 0 0 0 0 0 0 0 0 127 0" result="hardAlpha"/>
<feOffset dx="4.3" dy="4.3"/>
<feGaussianBlur stdDeviation="4.3"/>
<feColorMatrix type="matrix" values="0 0 0 0 0.498039 0 0 0 0 0.486275 0 0 0 0 0.494118 0 0 0 0.5 0"/>
<feBlend mode="normal" in2="BackgroundImageFix" result="effect1_dropShadow_12_2"/>
<feBlend mode="normal" in="SourceGraphic" in2="effect1_dropShadow_12_2" result="shape"/>
</filter>
<filter id="filter9_d_12_2" x="390.585" y="251.654" width="105.943" height="98.4681" filterUnits="userSpaceOnUse" color-interpolation-filters="sRGB">
<feFlood flood-opacity="0" result="BackgroundImageFix"/>
<feColorMatrix in="SourceAlpha" type="matrix" values="0 0 0 0 0 0 0 0 0 0 0 0 0 0 0 0 0 0 127 0" result="hardAlpha"/>
<feOffset dx="4.3" dy="4.3"/>
<feGaussianBlur stdDeviation="4.3"/>
<feColorMatrix type="matrix" values="0 0 0 0 0.498039 0 0 0 0 0.486275 0 0 0 0 0.494118 0 0 0 0.5 0"/>
<feBlend mode="normal" in2="BackgroundImageFix" result="effect1_dropShadow_12_2"/>
<feBlend mode="normal" in="SourceGraphic" in2="effect1_dropShadow_12_2" result="shape"/>
</filter>
<filter id="filter10_d_12_2" x="81.9079" y="328.308" width="97.4047" height="98.1035" filterUnits="userSpaceOnUse" color-interpolation-filters="sRGB">
<feFlood flood-opacity="0" result="BackgroundImageFix"/>
<feColorMatrix in="SourceAlpha" type="matrix" values="0 0 0 0 0 0 0 0 0 0 0 0 0 0 0 0 0 0 127 0" result="hardAlpha"/>
<feOffset dx="4.89" dy="4.89"/>
<feGaussianBlur stdDeviation="4.89"/>
<feColorMatrix type="matrix" values="0 0 0 0 0.498039 0 0 0 0 0.486275 0 0 0 0 0.494118 0 0 0 0.5 0"/>
<feBlend mode="normal" in2="BackgroundImageFix" result="effect1_dropShadow_12_2"/>
<feBlend mode="normal" in="SourceGraphic" in2="effect1_dropShadow_12_2" result="shape"/>
</filter>
<linearGradient id="paint0_linear_12_2" x1="537.671" y1="289.749" x2="477.105" y2="254.098" gradientUnits="userSpaceOnUse">
<stop stop-color="#2E50BF"/>
<stop offset="1" stop-color="#478ECC"/>
</linearGradient>
<linearGradient id="paint1_linear_12_2" x1="2745.7" y1="1578.72" x2="528.281" y2="273.502" gradientUnits="userSpaceOnUse">
<stop stop-color="#2E50BF"/>
<stop offset="1" stop-color="#478ECC"/>
</linearGradient>
<linearGradient id="paint2_linear_12_2" x1="475.077" y1="306.555" x2="446.625" y2="289.808" gradientUnits="userSpaceOnUse">
<stop stop-color="#2E50BF"/>
<stop offset="1" stop-color="#478ECC"/>
</linearGradient>
<linearGradient id="paint3_linear_12_2" x1="454.292" y1="264.543" x2="558.002" y2="272.327" gradientUnits="userSpaceOnUse">
<stop stop-color="white"/>
<stop offset="1" stop-color="white" stop-opacity="0"/>
</linearGradient>
<linearGradient id="paint4_linear_12_2" x1="91.8736" y1="562.001" x2="86.535" y2="491.948" gradientUnits="userSpaceOnUse">
<stop stop-color="#2E50BF"/>
<stop offset="1" stop-color="#478ECC"/>
</linearGradient>
<linearGradient id="paint5_linear_12_2" x1="83.7292" y1="562.621" x2="82.4884" y2="546.34" gradientUnits="userSpaceOnUse">
<stop stop-color="#2E50BF"/>
<stop offset="1" stop-color="#478ECC"/>
</linearGradient>
<linearGradient id="paint6_linear_12_2" x1="134.518" y1="513.203" x2="132.011" y2="480.309" gradientUnits="userSpaceOnUse">
<stop stop-color="#2E50BF"/>
<stop offset="1" stop-color="#478ECC"/>
</linearGradient>
<linearGradient id="paint7_linear_12_2" x1="105.937" y1="476.271" x2="67.3238" y2="572.808" gradientUnits="userSpaceOnUse">
<stop stop-color="white"/>
<stop offset="1" stop-color="white" stop-opacity="0"/>
</linearGradient>
<linearGradient id="paint8_linear_12_2" x1="472.072" y1="453.44" x2="414.909" y2="407.933" gradientUnits="userSpaceOnUse">
<stop stop-color="#223D9A"/>
<stop offset="1" stop-color="#3E399A"/>
</linearGradient>
<linearGradient id="paint9_linear_12_2" x1="445.173" y1="377.834" x2="483.052" y2="430.788" gradientUnits="userSpaceOnUse">
<stop stop-color="#223D9A"/>
<stop offset="1" stop-color="#3E399A"/>
</linearGradient>
<linearGradient id="paint10_linear_12_2" x1="461.13" y1="444.257" x2="412.233" y2="405.331" gradientUnits="userSpaceOnUse">
<stop stop-color="#3E5C9A"/>
<stop offset="1" stop-color="#3E399A"/>
</linearGradient>
<linearGradient id="paint11_linear_12_2" x1="304.056" y1="94.3148" x2="306.896" y2="114.459" gradientUnits="userSpaceOnUse">
<stop stop-color="#2E50BF"/>
<stop offset="1" stop-color="#478ECC"/>
</linearGradient>
<linearGradient id="paint12_linear_12_2" x1="295.791" y1="97.6712" x2="298.433" y2="115.96" gradientUnits="userSpaceOnUse">
<stop stop-color="white"/>
<stop offset="0.97" stop-color="#E6E6E6"/>
</linearGradient>
<linearGradient id="paint13_linear_12_2" x1="257.226" y1="87.7121" x2="268.347" y2="78.4255" gradientUnits="userSpaceOnUse">
<stop stop-color="#2E50BF"/>
<stop offset="1" stop-color="#478ECC"/>
</linearGradient>
<linearGradient id="paint14_linear_12_2" x1="286.993" y1="80.2074" x2="298.106" y2="70.9283" gradientUnits="userSpaceOnUse">
<stop stop-color="#2E50BF"/>
<stop offset="1" stop-color="#478ECC"/>
</linearGradient>
<linearGradient id="paint15_linear_12_2" x1="314.349" y1="73.3146" x2="325.47" y2="64.028" gradientUnits="userSpaceOnUse">
<stop stop-color="#2E50BF"/>
<stop offset="1" stop-color="#478ECC"/>
</linearGradient>
<linearGradient id="paint16_linear_12_2" x1="301.759" y1="495.661" x2="301.759" y2="402.531" gradientUnits="userSpaceOnUse">
<stop stop-color="#1E1D2B"/>
<stop offset="1" stop-color="#565785"/>
</linearGradient>
<linearGradient id="paint17_linear_12_2" x1="56.3937" y1="280.171" x2="464.217" y2="280.171" gradientUnits="userSpaceOnUse">
<stop stop-color="#1E1D2B"/>
<stop offset="1" stop-color="#565785"/>
</linearGradient>
<linearGradient id="paint18_linear_12_2" x1="343.506" y1="329.313" x2="224.992" y2="255.569" gradientUnits="userSpaceOnUse">
<stop stop-color="white" stop-opacity="0"/>
<stop offset="1" stop-color="white" stop-opacity="0.5"/>
</linearGradient>
<linearGradient id="paint19_linear_12_2" x1="78.5579" y1="197.429" x2="405.496" y2="197.429" gradientUnits="userSpaceOnUse">
<stop stop-color="#8790AD"/>
<stop offset="1" stop-color="#C6E5FF"/>
</linearGradient>
<linearGradient id="paint20_linear_12_2" x1="93.4335" y1="228.222" x2="102.541" y2="228.222" gradientUnits="userSpaceOnUse">
<stop stop-color="#D4145A"/>
<stop offset="1" stop-color="#ED1E79"/>
</linearGradient>
<linearGradient id="paint21_linear_12_2" x1="113.167" y1="223.569" x2="122.26" y2="223.569" gradientUnits="userSpaceOnUse">
<stop stop-color="#FFC421"/>
<stop offset="1" stop-color="#E59C54"/>
</linearGradient>
<linearGradient id="paint22_linear_12_2" x1="131.281" y1="219.306" x2="140.375" y2="219.306" gradientUnits="userSpaceOnUse">
<stop stop-color="#57F676"/>
<stop offset="1" stop-color="#57A976"/>
</linearGradient>
<linearGradient id="paint23_linear_12_2" x1="155.969" y1="237.244" x2="160.526" y2="132.408" gradientUnits="userSpaceOnUse">
<stop stop-color="#FFC421"/>
<stop offset="1" stop-color="#E59C54"/>
</linearGradient>
<linearGradient id="paint24_linear_12_2" x1="157.101" y1="205.56" x2="160.281" y2="132.397" gradientUnits="userSpaceOnUse">
<stop stop-color="#FF932F"/>
<stop offset="1" stop-color="#FFC421"/>
</linearGradient>
<linearGradient id="paint25_linear_12_2" x1="101.787" y1="189.445" x2="103.438" y2="151.478" gradientUnits="userSpaceOnUse">
<stop stop-color="#67145A"/>
<stop offset="1" stop-color="#ED1E79"/>
</linearGradient>
<linearGradient id="paint26_linear_12_2" x1="144.275" y1="143.49" x2="145.351" y2="118.731" gradientUnits="userSpaceOnUse">
<stop stop-color="#67145A"/>
<stop offset="1" stop-color="#ED1E79"/>
</linearGradient>
<linearGradient id="paint27_linear_12_2" x1="61.0702" y1="99.592" x2="62.1018" y2="75.8588" gradientUnits="userSpaceOnUse">
<stop stop-color="#67145A"/>
<stop offset="1" stop-color="#ED1E79"/>
</linearGradient>
<linearGradient id="paint28_linear_12_2" x1="102.524" y1="163.295" x2="96.2753" y2="117.045" gradientUnits="userSpaceOnUse">
<stop stop-color="#8790AD"/>
<stop offset="1" stop-color="#C6E5FF" stop-opacity="0"/>
</linearGradient>
<linearGradient id="paint29_linear_12_2" x1="89.8379" y1="132.836" x2="91.1776" y2="102.014" gradientUnits="userSpaceOnUse">
<stop stop-color="#2E50BF"/>
<stop offset="1" stop-color="#478ECC"/>
</linearGradient>
<linearGradient id="paint30_linear_12_2" x1="127.454" y1="169.907" x2="128.812" y2="138.666" gradientUnits="userSpaceOnUse">
<stop stop-color="#67145A"/>
<stop offset="1" stop-color="#ED1E79"/>
</linearGradient>
<linearGradient id="paint31_linear_12_2" x1="79.0782" y1="386.751" x2="72.5776" y2="373.758" gradientUnits="userSpaceOnUse">
<stop stop-color="#223D9A"/>
<stop offset="1" stop-color="#3E399A"/>
</linearGradient>
<linearGradient id="paint32_linear_12_2" x1="34.9274" y1="363.617" x2="25.013" y2="370.224" gradientUnits="userSpaceOnUse">
<stop stop-color="#223D9A"/>
<stop offset="1" stop-color="#3E399A"/>
</linearGradient>
<linearGradient id="paint33_linear_12_2" x1="17.2179" y1="342.549" x2="108.628" y2="342.549" gradientUnits="userSpaceOnUse">
<stop stop-color="#3E5C9A"/>
<stop offset="1" stop-color="#3E399A"/>
</linearGradient>
<linearGradient id="paint34_linear_12_2" x1="99.771" y1="506.391" x2="225.411" y2="479.213" gradientUnits="userSpaceOnUse">
<stop stop-color="#FFC421"/>
<stop offset="1" stop-color="#E59C54"/>
</linearGradient>
<linearGradient id="paint35_linear_12_2" x1="108.806" y1="523.15" x2="156.225" y2="512.893" gradientUnits="userSpaceOnUse">
<stop stop-color="#FFC421"/>
<stop offset="1" stop-color="#E59C54"/>
</linearGradient>
<linearGradient id="paint36_linear_12_2" x1="170.335" y1="472.894" x2="216.638" y2="462.878" gradientUnits="userSpaceOnUse">
<stop stop-color="#FFC421"/>
<stop offset="1" stop-color="#E59C54"/>
</linearGradient>
<linearGradient id="paint37_linear_12_2" x1="102.276" y1="457.472" x2="169.066" y2="443.025" gradientUnits="userSpaceOnUse">
<stop stop-color="#2E50BF"/>
<stop offset="1" stop-color="#478ECC"/>
</linearGradient>
<linearGradient id="paint38_linear_12_2" x1="107.491" y1="465.719" x2="174.281" y2="451.271" gradientUnits="userSpaceOnUse">
<stop stop-color="#2E50BF"/>
<stop offset="1" stop-color="#478ECC"/>
</linearGradient>
<linearGradient id="paint39_linear_12_2" x1="112.929" y1="474.315" x2="179.72" y2="459.868" gradientUnits="userSpaceOnUse">
<stop stop-color="#2E50BF"/>
<stop offset="1" stop-color="#478ECC"/>
</linearGradient>
<linearGradient id="paint40_linear_12_2" x1="118.145" y1="482.561" x2="184.935" y2="468.114" gradientUnits="userSpaceOnUse">
<stop stop-color="#2E50BF"/>
<stop offset="1" stop-color="#478ECC"/>
</linearGradient>
<linearGradient id="paint41_linear_12_2" x1="412.443" y1="422.826" x2="347.43" y2="386.147" gradientUnits="userSpaceOnUse">
<stop stop-color="#67145A"/>
<stop offset="1" stop-color="#ED1E79"/>
</linearGradient>
<linearGradient id="paint42_linear_12_2" x1="372.886" y1="350.899" x2="419.634" y2="398.194" gradientUnits="userSpaceOnUse">
<stop stop-color="#67145A"/>
<stop offset="1" stop-color="#ED1E79"/>
</linearGradient>
<linearGradient id="paint43_linear_12_2" x1="399.929" y1="415.325" x2="344.321" y2="383.951" gradientUnits="userSpaceOnUse">
<stop stop-color="white"/>
<stop offset="0.97" stop-color="#E6E6E6"/>
</linearGradient>
<linearGradient id="paint44_linear_12_2" x1="355.484" y1="384.377" x2="384.949" y2="414.187" gradientUnits="userSpaceOnUse">
<stop stop-color="#D4145A"/>
<stop offset="1" stop-color="#ED1E79"/>
</linearGradient>
<linearGradient id="paint45_linear_12_2" x1="354.333" y1="385.515" x2="373.81" y2="405.22" gradientUnits="userSpaceOnUse">
<stop stop-color="#67145A"/>
<stop offset="1" stop-color="#ED1E79"/>
</linearGradient>
<linearGradient id="paint46_linear_12_2" x1="360.08" y1="180.029" x2="498.675" y2="140.793" gradientUnits="userSpaceOnUse">
<stop stop-color="#3E3F64"/>
<stop offset="1" stop-color="#DE8029"/>
</linearGradient>
<linearGradient id="paint47_linear_12_2" x1="362.308" y1="175.375" x2="500.902" y2="136.138" gradientUnits="userSpaceOnUse">
<stop stop-color="#FFC421"/>
<stop offset="1" stop-color="#E59C54"/>
</linearGradient>
<linearGradient id="paint48_linear_12_2" x1="373.797" y1="173.89" x2="435.565" y2="116.404" gradientUnits="userSpaceOnUse">
<stop stop-color="white" stop-opacity="0"/>
<stop offset="1" stop-color="white" stop-opacity="0.5"/>
</linearGradient>
<linearGradient id="paint49_linear_12_2" x1="401.436" y1="281.269" x2="476.977" y2="330.556" gradientUnits="userSpaceOnUse">
<stop stop-color="#FFC421"/>
<stop offset="1" stop-color="#E59C54"/>
</linearGradient>
<linearGradient id="paint50_linear_12_2" x1="397.534" y1="294.041" x2="426.043" y2="312.642" gradientUnits="userSpaceOnUse">
<stop stop-color="#FFC421"/>
<stop offset="1" stop-color="#E59C54"/>
</linearGradient>
<linearGradient id="paint51_linear_12_2" x1="452.98" y1="299.924" x2="480.824" y2="318.091" gradientUnits="userSpaceOnUse">
<stop stop-color="#FFC421"/>
<stop offset="1" stop-color="#E59C54"/>
</linearGradient>
<linearGradient id="paint52_linear_12_2" x1="427.085" y1="258.376" x2="467.253" y2="284.583" gradientUnits="userSpaceOnUse">
<stop stop-color="#2E50BF"/>
<stop offset="1" stop-color="#478ECC"/>
</linearGradient>
<linearGradient id="paint53_linear_12_2" x1="425.545" y1="265.049" x2="465.7" y2="291.248" gradientUnits="userSpaceOnUse">
<stop stop-color="#2E50BF"/>
<stop offset="1" stop-color="#478ECC"/>
</linearGradient>
<linearGradient id="paint54_linear_12_2" x1="423.939" y1="272.007" x2="464.095" y2="298.206" gradientUnits="userSpaceOnUse">
<stop stop-color="#2E50BF"/>
<stop offset="1" stop-color="#478ECC"/>
</linearGradient>
<linearGradient id="paint55_linear_12_2" x1="422.395" y1="278.66" x2="462.562" y2="304.867" gradientUnits="userSpaceOnUse">
<stop stop-color="#2E50BF"/>
<stop offset="1" stop-color="#478ECC"/>
</linearGradient>
<linearGradient id="paint56_linear_12_2" x1="114.958" y1="404.766" x2="141.109" y2="345.558" gradientUnits="userSpaceOnUse">
<stop stop-color="#67145A"/>
<stop offset="1" stop-color="#ED1E79"/>
</linearGradient>
<linearGradient id="paint57_linear_12_2" x1="104.828" y1="334.387" x2="96.8652" y2="391.504" gradientUnits="userSpaceOnUse">
<stop stop-color="#67145A"/>
<stop offset="1" stop-color="#ED1E79"/>
</linearGradient>
<linearGradient id="paint58_linear_12_2" x1="159.996" y1="387.802" x2="101.822" y2="348.299" gradientUnits="userSpaceOnUse">
<stop stop-color="#F5EC53"/>
<stop offset="0.24" stop-color="#E48244"/>
<stop offset="0.4" stop-color="#D05667"/>
<stop offset="0.49" stop-color="#C84278"/>
<stop offset="1" stop-color="#192CFA"/>
</linearGradient>
</defs>
</svg>
