<?xml version="1.0" encoding="UTF-8"?><svg id="Layer_2" xmlns="http://www.w3.org/2000/svg" viewBox="0 0 100 100"><defs><style>.cls-1{fill:#8a5bd0;}.cls-1,.cls-2{stroke-width:0px;}.cls-2{fill:#fff;}</style></defs><g id="Layer_1-2"><circle class="cls-1" cx="50" cy="50" r="50"/><path class="cls-2" d="m24.96,68.11c0-11.05,0-22.11,0-33.16.39-.85,1.06-1.1,1.97-1.09,4.07.03,8.15.01,12.22.01h.58c0-.53-.01-.99,0-1.45.07-2.5,1.87-4.37,4.37-4.41,3.93-.05,7.86-.04,11.78,0,2.34.03,4.06,1.63,4.34,3.96.07.62.01,1.25.01,1.9h.7c4.14,0,8.28,0,12.42,0,1.14,0,1.69.54,1.69,1.67,0,10.64,0,21.29-.02,31.93,0,.68-.15,1.41-.44,2.02-.83,1.75-2.31,2.53-4.22,2.53-8.88,0-17.77,0-26.65,0-4.69,0-9.39,0-14.08,0-1.56,0-2.91-.51-3.79-1.83-.41-.61-.6-1.39-.88-2.09Zm17.71-13.7c-2.7,0-5.32,0-7.95,0-2.31,0-3.85-1.11-4.58-3.3-.66-1.98-1.32-3.95-1.98-5.93-.06-.18-.13-.35-.19-.53-.03,0-.05,0-.08.01v.47c0,7.37,0,14.74,0,22.1,0,1.34.52,1.85,1.87,1.85,13.5,0,26.99,0,40.49,0,1.34,0,1.85-.51,1.85-1.86,0-7.35,0-14.7,0-22.05v-.5c-.12.11-.17.23-.21.34-.68,2.04-1.36,4.07-2.04,6.11-.72,2.17-2.27,3.29-4.54,3.29-2.48,0-4.96,0-7.43,0h-.55c0,.5,0,.94,0,1.38-.02.93-.61,1.55-1.52,1.55-3.88,0-7.76,0-11.64,0-.89,0-1.49-.62-1.51-1.52-.01-.45,0-.91,0-1.41Zm14.67-2.93h.58c2.41,0,4.82,0,7.24,0,1.21,0,1.59-.28,1.97-1.41,1.36-4.08,2.72-8.15,4.08-12.23.11-.33.21-.67.32-1.01H28.48c.04.11.06.19.08.26,1.47,4.4,2.93,8.8,4.4,13.2.29.87.75,1.18,1.69,1.18,2.53,0,5.05,0,7.58,0,.14,0,.28-.02.44-.03,0-.5-.01-.96,0-1.41.03-.87.62-1.48,1.49-1.49,3.9-.01,7.79-.01,11.69,0,.87,0,1.46.62,1.49,1.48.01.46,0,.91,0,1.45Zm0-17.63c0-.43,0-.81,0-1.18,0-1.17-.56-1.73-1.74-1.73-2.3,0-4.59,0-6.89,0-1.5,0-3,0-4.49,0-.75,0-1.33.38-1.46,1.05-.12.61-.08,1.24-.11,1.86h14.7Zm-11.73,20.54h8.76v-2.87h-8.76v2.87Z"/></g></svg>