<?xml version="1.0" encoding="UTF-8"?><svg id="Layer_2" xmlns="http://www.w3.org/2000/svg" viewBox="0 0 129.03 132"><defs><style>.cls-1{fill:#b3db7e;}.cls-1,.cls-2{stroke-width:0px;}.cls-2{fill:#fff;}</style></defs><g id="Layer_1-2"><path class="cls-1" d="m98.86,56.31c-.76-2.7-1.84-5.3-3.21-7.74l2.61-5.27-11.05-11.05-5.27,2.61c-2.45-1.37-5.04-2.45-7.74-3.21l-1.88-5.57h-15.63l-1.88,5.57c-2.7.76-5.3,1.84-7.74,3.21l-5.27-2.61-11.05,11.05,2.61,5.27c-1.37,2.45-2.45,5.04-3.21,7.74l-5.57,1.88v15.63l5.57,1.88c.76,2.7,1.84,5.3,3.21,7.74l-2.61,5.27,11.05,11.05,5.27-2.61c2.45,1.37,5.04,2.45,7.74,3.21l1.88,5.57h15.63l1.88-5.57c2.7-.76,5.3-1.84,7.74-3.21l5.27,2.61,11.05-11.05-2.61-5.27c1.37-2.45,2.45-5.04,3.21-7.74l5.57-1.88v-15.63l-5.57-1.88Zm-34.35,34.9c-13.92,0-25.21-11.29-25.21-25.21s11.29-25.21,25.21-25.21,25.21,11.29,25.21,25.21-11.29,25.21-25.21,25.21Z"/><path class="cls-2" d="m62.42,47.09v4.2c-4.63,0-8.4,3.77-8.4,8.4s3.77,8.4,8.4,8.4h4.2c2.32,0,4.2,1.88,4.2,4.2s-1.88,4.2-4.2,4.2h-4.2c-2.32,0-4.2-1.88-4.2-4.2v-2.1h-4.2v2.1c0,4.63,3.77,8.4,8.4,8.4v4.2h4.2v-4.2c4.63,0,8.4-3.77,8.4-8.4s-3.77-8.4-8.4-8.4h-4.2c-2.32,0-4.2-1.88-4.2-4.2s1.88-4.2,4.2-4.2h4.2c2.32,0,4.2,1.88,4.2,4.2h4.2c0-4.63-3.77-8.4-8.4-8.4v-4.2h-4.2Z"/><path class="cls-2" d="m37.2,66c0,15.06,12.25,27.31,27.31,27.31s27.31-12.25,27.31-27.31-12.25-27.31-27.31-27.31-27.31,12.25-27.31,27.31Zm50.42,0c0,12.74-10.37,23.11-23.11,23.11s-23.11-10.37-23.11-23.11,10.37-23.11,23.11-23.11,23.11,10.37,23.11,23.11Z"/><path class="cls-2" d="m62.42,8.04v18.04h4.2V8.04l4.82,4.82,2.97-2.97L64.52,0l-9.89,9.89,2.97,2.97,4.82-4.82Z"/><path class="cls-2" d="m81.94,14.09l2.97,2.97,4.82-4.82v20.14h4.2V12.24l4.82,4.82,2.97-2.97-9.89-9.89-9.89,9.89Z"/><path class="cls-2" d="m121.24,38.69v-22.24l4.82,4.82,2.97-2.97-9.89-9.89-9.89,9.89,2.97,2.97,4.82-4.82v22.24c0,1.16-.94,2.1-2.1,2.1h-12.61v4.2h12.61c3.48,0,6.3-2.83,6.3-6.3Z"/><path class="cls-2" d="m66.62,123.96v-18.04h-4.2v18.04l-4.82-4.82-2.97,2.97,9.89,9.89,9.89-9.89-2.97-2.97-4.82,4.82Z"/><path class="cls-2" d="m93.93,119.76v-20.14h-4.2v20.14l-4.82-4.82-2.97,2.97,9.89,9.89,9.89-9.89-2.97-2.97-4.82,4.82Z"/><path class="cls-2" d="m121.24,115.56v-22.24c0-3.48-2.83-6.3-6.3-6.3h-12.61v4.2h12.61c1.16,0,2.1.94,2.1,2.1v22.24l-4.82-4.82-2.97,2.97,9.89,9.89,9.89-9.89-2.97-2.97-4.82,4.82Z"/><path class="cls-2" d="m35.1,12.24v20.14h4.2V12.24l4.82,4.82,2.97-2.97-9.89-9.89-9.89,9.89,2.97,2.97,4.82-4.82Z"/><path class="cls-2" d="m11.99,38.69v-22.24l4.82,4.82,2.97-2.97-9.89-9.89L0,18.29l2.97,2.97,4.82-4.82v22.24c0,3.48,2.83,6.3,6.3,6.3h12.61v-4.2h-12.61c-1.16,0-2.1-.94-2.1-2.1Z"/><path class="cls-2" d="m39.3,119.76v-20.14h-4.2v20.14l-4.82-4.82-2.97,2.97,9.89,9.89,9.89-9.89-2.97-2.97-4.82,4.82Z"/><path class="cls-2" d="m7.79,93.32v22.24l-4.82-4.82-2.97,2.97,9.89,9.89,9.89-9.89-2.97-2.97-4.82,4.82v-22.24c0-1.16.94-2.1,2.1-2.1h12.61v-4.2h-12.61c-3.48,0-6.3,2.83-6.3,6.3Z"/></g></svg>