<?xml version="1.0" encoding="UTF-8"?><svg id="Layer_2" xmlns="http://www.w3.org/2000/svg" viewBox="0 0 129.03 108.12"><defs><style>.cls-1{fill:#b3db7e;}.cls-1,.cls-2{stroke-width:0px;}.cls-2{fill:#fff;}</style></defs><g id="Layer_1-2"><path class="cls-2" d="m63.89,89.59c1.21,1.21,2.88,1.9,4.59,1.9,3.5,0,6.34-2.79,6.47-6.26,3.39-.12,6.12-2.85,6.24-6.24,3.39-.12,6.12-2.85,6.24-6.24,3.47-.12,6.26-2.97,6.26-6.47,0-.3-.05-.59-.09-.88l2.98-2.98,2.41,4.82,14.34-7.17-1.86-3.72-10.61,5.31-12.61-25.22,10.94-4.29-1.52-3.87-12.39,4.86-18.54-5.56c-1.39-.42-2.82-.56-4.24-.51v-.05h-22.54l-9.49-3.15-1.31,3.95,7.71,2.56-10.88,27.21-6.39-2.56-1.54,3.86,10.25,4.1,2.57-6.43,3.73,3.73-3.48,3.48c-1.21,1.21-1.9,2.88-1.9,4.59,0,3.5,2.79,6.34,6.26,6.47.12,3.39,2.85,6.12,6.24,6.24.12,3.39,2.85,6.12,6.24,6.24.12,3.47,2.97,6.26,6.47,6.26,1.71,0,3.38-.69,4.59-1.9l3.48-3.48,1.4,1.4Zm1.65-58.02l18.37,5.51,10.71,21.42-3.01,3.01-8.55-8.61c.76.07,1.53.12,2.31.12v-4.16c-4.84,0-9.47-1.8-13.04-5.07l-4.86-4.45c-2.74-2.52-7.4-2.42-10.03.22l-5.51,5.51c-.44.43-1.04.68-1.65.68-1.29,0-2.33-1.05-2.33-2.33,0-.62.24-1.21.68-1.65l7.93-7.93c2.33-2.33,5.83-3.22,8.99-2.27Zm-24.51-.38h12.29l-7.63,7.64c-1.23,1.22-1.9,2.85-1.9,4.59,0,3.58,2.91,6.49,6.49,6.49,1.71,0,3.38-.69,4.59-1.9l5.51-5.51c1.13-1.12,3.11-1.17,4.29-.09l4.86,4.46c1.62,1.48,3.41,2.71,5.33,3.68l14,14.1c.43.44.68,1.04.68,1.65,0,1.28-1.05,2.33-2.33,2.33-.61,0-1.21-.25-1.65-.68l-17.42-17.42-2.94,2.94,17.42,17.42c.43.44.68,1.04.68,1.65,0,1.28-1.05,2.33-2.33,2.33-.61,0-1.21-.25-1.65-.68l-17.42-17.42-2.94,2.94,17.42,17.42c.43.44.68,1.04.68,1.65,0,1.28-1.05,2.33-2.33,2.33-.61,0-1.21-.25-1.65-.68l-17.42-17.42-2.94,2.94,17.42,17.42c.43.44.68,1.04.68,1.65,0,1.28-1.05,2.33-2.33,2.33-.61,0-1.21-.25-1.65-.68l-2.35-2.35c.04-.29.09-.58.09-.88,0-3.5-2.79-6.34-6.26-6.47-.12-3.39-2.85-6.12-6.24-6.24-.12-3.39-2.85-6.12-6.24-6.24-.12-3.47-2.97-6.26-6.47-6.26-.3,0-.59.05-.88.09l-5.94-5.94,8.47-21.18Zm-7.64,37.18c0-.61.25-1.21.68-1.65l3.66-3.65c.43-.43,1.04-.68,1.65-.68,1.29,0,2.33,1.05,2.33,2.33,0,.61-.25,1.21-.68,1.65l-3.65,3.66c-.43.43-1.04.68-1.65.68-1.29,0-2.33-1.05-2.33-2.33Zm6.24,6.24c0-.61.25-1.21.68-1.65l3.66-3.65c.43-.43,1.04-.68,1.65-.68,1.29,0,2.33,1.05,2.33,2.33,0,.61-.25,1.21-.68,1.65l-3.65,3.66c-.43.43-1.04.68-1.65.68-1.29,0-2.33-1.05-2.33-2.33Zm6.24,6.24c0-.61.25-1.21.68-1.65l3.66-3.65c.43-.43,1.04-.68,1.65-.68,1.29,0,2.33,1.05,2.33,2.33,0,.61-.25,1.21-.68,1.65l-3.65,3.66c-.43.43-1.04.68-1.65.68-1.29,0-2.33-1.05-2.33-2.33Zm13.87,4.23l-3.65,3.66c-.43.43-1.04.68-1.65.68-1.29,0-2.33-1.05-2.33-2.33,0-.61.25-1.21.68-1.65l3.66-3.65c.43-.43,1.04-.68,1.65-.68,1.29,0,2.33,1.05,2.33,2.33,0,.61-.25,1.21-.68,1.65Z"/><path class="cls-2" d="m24.88,90.82l2.94-2.94,2.94,2.94-2.94,2.94-2.94-2.94Z"/><path class="cls-2" d="m32.81,97.85l2.31-3.46,3.45,2.31-2.31,3.46-3.46-2.31Z"/><path class="cls-2" d="m41.96,103.21l1.59-3.84,3.84,1.59-1.59,3.84-3.84-1.59Z"/><path class="cls-2" d="m51.99,106.68l.81-4.08,4.08.81-.81,4.08-4.08-.81Z"/><path class="cls-2" d="m90.57,11.41l2.31-3.46,3.45,2.31-2.31,3.46-3.45-2.31Z"/><path class="cls-2" d="m81.75,7.16l1.59-3.84,3.84,1.59-1.59,3.84-3.84-1.59Z"/><path class="cls-2" d="m72.27,4.71l.81-4.08,4.08.81-.81,4.08-4.08-.81Z"/><path class="cls-2" d="m104.08,6.24h-4.16v10.4h-10.4v4.16h14.55V6.24Z"/><path class="cls-2" d="m29.23,79.01h-12.48v12.48h4.16v-8.32h8.32v-4.16Z"/><path class="cls-2" d="m64.58,4.16h2.08V0h-2.08c-13.68,0-26.74,5.12-36.76,14.43l2.83,3.05c9.25-8.59,21.3-13.32,33.93-13.32Z"/><path class="cls-2" d="m64.58,103.96h-2.08v4.16h2.08c19.01,0,36.27-9.7,46.18-25.95l-3.55-2.16c-9.15,15-25.09,23.95-42.63,23.95Z"/><path class="cls-1" d="m11.59,75.64L.12,69.9l-.12-56.15,32.75,10.88-1.66,3.33-19.5,47.68Z"/><path class="cls-1" d="m119.95,75.79l-24.44-46.65,33.52-13.15v53.74l-9.09,6.06Z"/></g></svg>