<?xml version="1.0" encoding="UTF-8"?><svg id="Layer_2" xmlns="http://www.w3.org/2000/svg" viewBox="0 0 125 125"><defs><style>.cls-1{fill:#b3db7e;}.cls-1,.cls-2{stroke-width:0px;}.cls-2{fill:#fff;}</style></defs><g id="Layer_1-2"><path class="cls-1" d="m77.82,29.84c-2.65-3.54-6.87-5.65-11.29-5.65h-8.06c-4.42,0-8.64,2.11-11.29,5.65-1.82,2.43-2.82,5.43-2.82,8.47v1.52c0,1.89.3,3.75.9,5.54.9,2.71,2.47,5.18,4.54,7.15l2.02,1.93h1.73c-.69-1.19-1.12-2.56-1.12-4.03v-6.61c0-.87.55-1.64,1.38-1.91l.39-.13c2.85-.95,5.62-2.1,8.31-3.44,2.69,1.34,5.46,2.49,8.31,3.44l.39.13c.82.27,1.38,1.04,1.38,1.91v6.61c0,1.48-.43,2.84-1.12,4.03h1.73l2.02-1.93c2.07-1.97,3.64-4.44,4.54-7.15.6-1.79.9-3.65.9-5.54v-1.52c0-3.04-1-6.04-2.82-8.47Z"/><path class="cls-1" d="m62.5,125c-7.78,0-14.11-6.33-14.11-14.11s6.33-14.11,14.11-14.11,14.11,6.33,14.11,14.11-6.33,14.11-14.11,14.11Zm0-18.15c-2.22,0-4.03,1.81-4.03,4.03s1.81,4.03,4.03,4.03,4.03-1.81,4.03-4.03-1.81-4.03-4.03-4.03Z"/><path class="cls-2" d="m90.44,59.04l3.05-2.88c4.65-4.39,7.31-10.57,7.31-16.97,0-7.52-3.66-14.62-9.83-19.03-3.7-2.64-8.05-4.04-12.6-4.04-6.02,0-11.81,2.55-15.88,6.93-4.07-4.37-9.85-6.93-15.88-6.93-4.54,0-8.9,1.4-12.66,4.08-6.12,4.37-9.77,11.47-9.77,18.99,0,6.39,2.67,12.58,7.31,16.97l3.05,2.88C13.48,69.6,0,91.19,0,114.92v2.02h49.77c-.6-1.25-1.01-2.61-1.22-4.03H16.21c.81-19.05,13.06-35.54,31.13-41.79l15.16,14.32,15.15-14.31c4.95,1.71,9.51,4.23,13.61,7.49l-23.02,19.39c1.3.58,2.49,1.35,3.55,2.28l23.2-19.54c1-.84,2.17-1.45,3.42-1.8-.38,1.13-1.04,2.16-1.91,2.99l-22.29,21.05c.79,1.17,1.4,2.46,1.81,3.83l22.41-21.16c6.3,7.73,9.92,17.25,10.36,27.23h-32.33c-.21,1.42-.62,2.78-1.22,4.03h49.77v-2.02c0-23.73-13.48-45.33-34.56-55.88Zm-56.17-5.81c-3.84-3.63-6.05-8.75-6.05-14.04,0-6.22,3.02-12.09,8.14-15.75,3.01-2.15,6.56-3.28,10.26-3.28,4.13,0,8.12,1.48,11.26,4.07.2,0,.39-.03.59-.03h8.06c.2,0,.39.03.59.03,3.14-2.59,7.13-4.07,11.26-4.07,3.7,0,7.25,1.14,10.31,3.33,5.06,3.62,8.08,9.49,8.08,15.71,0,5.29-2.21,10.4-6.05,14.04l-11.69,11.04c-1.56-1.19-3.35-2.06-5.26-2.54l-3.57-.89-.47-1.86c2.9-1.77,4.85-4.94,4.85-8.58v-6.61c0-1.74-1.11-3.28-2.75-3.82l-.4-.13c-2.75-.92-5.45-2.04-8.04-3.33l-.9-.45-.9.45c-2.59,1.3-5.3,2.42-8.05,3.33l-.39.13c-1.65.55-2.76,2.09-2.76,3.83v6.61c0,3.64,1.96,6.8,4.85,8.58l-.47,1.86-3.57.89c-1.92.48-3.7,1.35-5.26,2.54l-11.69-11.04Zm30.24,3.22h-4.03c-3.33,0-6.05-2.71-6.05-6.05v-6.61s.39-.13.39-.13c2.61-.87,5.19-1.91,7.67-3.11,2.48,1.2,5.06,2.24,7.67,3.11l.4.13v6.61c0,3.33-2.71,6.05-6.05,6.05Zm-5.45,3.89c.47.07.93.14,1.42.14h4.03c.48,0,.95-.08,1.42-.14l.39,1.54-3.82,3.82-3.82-3.82.39-1.54Zm-39.27,14.73l5.66,5.66c-3.57,3.86-6.51,8.26-8.71,13.06l-7.42-3.07c2.62-5.74,6.16-11.02,10.47-15.65Zm-15.73,37.84c.22-6.42,1.52-12.64,3.71-18.47l7.43,3.07c-1.78,4.85-2.82,10.03-3.03,15.39H4.07Zm24.24-35.03l-5.66-5.66c4.39-4.1,9.43-7.58,15.04-10.22l6.38,6.02c-5.94,2.33-11.24,5.7-15.75,9.86Zm20.66-10.77c.99-.66,2.07-1.17,3.24-1.46l3.63-.91,6.67,6.67,6.67-6.67,3.63.91c1.16.29,2.25.8,3.24,1.46l-13.54,12.79-13.54-12.79Zm45.73,9.05c-4.15-3.45-8.75-6.18-13.74-8.14l6.37-6.01c5.61,2.64,10.63,6.14,15.02,10.24l-2.44,2.44c-1.83.13-3.59.62-5.2,1.48Zm13.54,17.64c-1.85-4.01-4.24-7.77-7.12-11.21.94-1.53,1.5-3.27,1.65-5.07l2.43-2.43c4.31,4.62,7.87,9.88,10.49,15.63l-7.45,3.09Zm4.58,19.11c-.21-5.3-1.22-10.48-3.03-15.39l7.44-3.08c2.19,5.83,3.49,12.05,3.71,18.47h-8.12Z"/><path class="cls-2" d="m62.5,104.84c-3.33,0-6.05,2.71-6.05,6.05s2.71,6.05,6.05,6.05,6.05-2.71,6.05-6.05-2.71-6.05-6.05-6.05Zm0,8.06c-1.11,0-2.02-.9-2.02-2.02s.9-2.02,2.02-2.02,2.02.9,2.02,2.02-.9,2.02-2.02,2.02Z"/><path class="cls-2" d="m60.48,0h4.03v8.06h-4.03V0Z"/><path class="cls-2" d="m5.7,36.25l.66-3.98,12.09,2.01-.66,3.98-12.09-2.01Z"/><path class="cls-2" d="m16.72,13.52l2.85-2.85,8.06,8.06-2.85,2.85-8.06-8.06Z"/><path class="cls-2" d="m36.49,2.93l3.6-1.8,4.03,8.06-3.6,1.8-4.03-8.06Z"/><path class="cls-2" d="m106.47,34.33l12.09-2.01.66,3.98-12.09,2.01-.66-3.98Z"/><path class="cls-2" d="m97.35,18.74l8.06-8.06,2.85,2.85-8.06,8.06-2.85-2.85Z"/><path class="cls-2" d="m80.84,9.21l4.03-8.06,3.6,1.8-4.03,8.06-3.6-1.8Z"/></g></svg>