<?xml version="1.0" encoding="UTF-8"?><svg id="Layer_2" xmlns="http://www.w3.org/2000/svg" viewBox="0 0 125 125"><defs><style>.cls-1{fill:#b3db7e;}.cls-1,.cls-2{stroke-width:0px;}.cls-2{fill:#fff;}</style></defs><g id="Layer_1-2"><path class="cls-1" d="m87.83,29.24c1.79-1.82,2.9-4.31,2.9-7.06,0-4.88-3.46-8.95-8.06-9.88l-.02.02c0-.08.02-.15.02-.22,0-5.57-4.51-10.08-10.08-10.08s-10.08,4.51-10.08,10.08v32.26c0,5.57,4.51,10.08,10.08,10.08,4.94,0,9.03-3.56,9.9-8.25,4.69-.86,8.25-4.96,8.25-9.9,0-2.75-1.1-5.24-2.88-7.06h-.02Z"/><path class="cls-2" d="m118.95,38.31h-12.1c-1.11,0-2.02-.9-2.02-2.02s.91-2.02,2.02-2.02h6.05c3.33,0,6.05-2.71,6.05-6.05s-2.71-6.05-6.05-6.05h-10.08c-1.11,0-2.02-.9-2.02-2.02s.91-2.02,2.02-2.02h16.13c3.33,0,6.05-2.71,6.05-6.05s-2.71-6.05-6.05-6.05h-24.19v4.03h24.19c1.11,0,2.02.9,2.02,2.02s-.91,2.02-2.02,2.02h-16.13c-3.33,0-6.05,2.71-6.05,6.05s2.71,6.05,6.05,6.05h10.08c1.11,0,2.02.9,2.02,2.02s-.91,2.02-2.02,2.02h-6.05c-3.33,0-6.05,2.71-6.05,6.05s2.71,6.05,6.05,6.05h12.1c1.11,0,2.02.9,2.02,2.02s-.91,2.02-2.02,2.02h-24.19v4.03h24.19c3.33,0,6.05-2.71,6.05-6.05s-2.71-6.05-6.05-6.05Z"/><path class="cls-2" d="m76.61,65.63v-9.88c3.57-1.27,6.41-4.16,7.53-7.89,5.05-1.52,8.6-6.19,8.6-11.56,0-2.57-.81-5.01-2.29-7.06,1.43-1.99,2.29-4.42,2.29-7.05,0-5.19-3.35-9.73-8.14-11.4-.66-6.05-5.8-10.78-12.02-10.78-1.32,0-2.6.22-3.79.62-1.78-.39-3.6-.62-5.44-.62h-1.7c-13.98,0-25.36,11.38-25.36,25.36,0,7.55,3.32,14.65,9.12,19.48,1.89,1.57,2.97,3.89,2.97,6.35v14.44c-18.78,4.78-32.26,21.93-32.26,41.45v11.88h40.08l1.56,3.13c.9,1.8,2.71,2.92,4.72,2.92s3.82-1.12,4.72-2.92l1.56-3.13h40.08v-11.88c0-19.52-13.48-36.67-32.26-41.45Zm-4.03,35.18h-8.06v-10.08c0-1.11.91-2.02,2.02-2.02h4.03c.71,0,1.38-.15,2.02-.37v12.47Zm-15.16-70.56h3.06v30.24h-.18l-2.88-30.24Zm3.06,34.27v2.02c0,1.11-.91,2.02-2.02,2.02h-4.03c-.71,0-1.38.15-2.02.37v-4.4h8.06Zm4.03,0h8.06v12.47c-.63-.23-1.31-.37-2.02-.37h-16.13c-1.11,0-2.02-.9-2.02-2.02s.91-2.02,2.02-2.02h4.03c3.33,0,6.05-2.71,6.05-6.05v-2.02Zm-12.1,15.76c.63.23,1.31.37,2.02.37h16.13c1.11,0,2.02.9,2.02,2.02s-.91,2.02-2.02,2.02h-4.03c-3.33,0-6.05,2.71-6.05,6.05v10.08h-8.06v-20.53Zm20.16-19.79h-8.06v-7.14c2.14,1.92,4.96,3.1,8.06,3.1v4.03Zm8.06-48.39c0,4.45-3.62,8.06-8.06,8.06v4.03c5.66,0,10.41-3.91,11.72-9.17,2.63,1.35,4.41,4.08,4.41,7.16,0,4.45-3.62,8.06-8.06,8.06v4.03c2.55,0,4.92-.8,6.88-2.16.76,1.25,1.19,2.68,1.19,4.17,0,3.88-2.77,7.21-6.6,7.91l-1.37.25-.25,1.37c-.7,3.82-4.03,6.6-7.91,6.6-4.45,0-8.06-3.62-8.06-8.06V12.1c0-4.45,3.62-8.06,8.06-8.06s8.06,3.62,8.06,8.06Zm-32.65,29.64c-4.88-4.06-7.67-10.03-7.67-16.38,0-11.76,9.57-21.32,21.33-21.32h1.7c.08,0,.15.01.23.01-1.92,2.14-3.09,4.96-3.09,8.05v14.11h-3.45l-.25-2.59c-.3-3.12-2.89-5.48-6.02-5.48h-.36c-3.33,0-6.05,2.71-6.05,6.05s2.71,6.05,6.05,6.05h2.97l2.88,30.24h-3.83v-9.3c0-3.66-1.61-7.1-4.42-9.45Zm4.99-15.53h-2.58c-1.11,0-2.02-.9-2.02-2.02s.91-2.02,2.02-2.02h.36c1.05,0,1.91.79,2.01,1.82l.21,2.21Zm-16.7,88.71v-23.01l-4.62-4.62-2.85,2.85,3.44,3.44v21.34h-12.1v-7.84c0-17.34,11.73-32.62,28.23-37.29v33.51l5.81,11.62h-17.91Zm27.32,5.36c-.43.85-1.8.85-2.23,0l-7.72-15.44h17.67l-7.72,15.44Zm41.22-5.36h-12.1v-21.34l3.44-3.44-2.85-2.85-4.62,4.62v23.01h-17.91l5.81-11.62v-33.51c16.49,4.67,28.23,19.95,28.23,37.29v7.84Z"/><path class="cls-2" d="m30.24,46.37H6.05c-1.11,0-2.02-.9-2.02-2.02s.91-2.02,2.02-2.02h12.1c3.33,0,6.05-2.71,6.05-6.05s-2.71-6.05-6.05-6.05h-6.05c-1.11,0-2.02-.9-2.02-2.02s.91-2.02,2.02-2.02h10.08c3.33,0,6.05-2.71,6.05-6.05s-2.71-6.05-6.05-6.05H6.05c-1.11,0-2.02-.9-2.02-2.02s.91-2.02,2.02-2.02h24.19v-4.03H6.05c-3.33,0-6.05,2.71-6.05,6.05s2.71,6.05,6.05,6.05h16.13c1.11,0,2.02.9,2.02,2.02s-.91,2.02-2.02,2.02h-10.08c-3.33,0-6.05,2.71-6.05,6.05s2.71,6.05,6.05,6.05h6.05c1.11,0,2.02.9,2.02,2.02s-.91,2.02-2.02,2.02H6.05c-3.33,0-6.05,2.71-6.05,6.05s2.71,6.05,6.05,6.05h24.19v-4.03Z"/></g></svg>