<?xml version="1.0" encoding="UTF-8"?><svg id="Layer_2" xmlns="http://www.w3.org/2000/svg" viewBox="0 0 125 125"><defs><style>.cls-1{fill:#b3db7e;}.cls-1,.cls-2{stroke-width:0px;}.cls-2{fill:#fff;}</style></defs><g id="Layer_1-2"><path class="cls-1" d="m62.9,48.39c-2.45,0-4.44-1.99-4.44-4.44v-15.73h-2.21c-3.23,0-5.86-2.63-5.86-5.86,0-.2,0-.39.03-.58l1.64-16.34c.31-3.11,2.9-5.45,6.02-5.45h9.01c3.02,0,5.49,2.46,5.49,5.49,0,.59-.09,1.18-.28,1.74l-2.97,8.91h1.91c2.97,0,5.38,2.41,5.38,5.38,0,.71-.14,1.41-.42,2.07l-9.2,22.08c-.69,1.66-2.29,2.73-4.09,2.73Z"/><path class="cls-2" d="m114.92,96.77h-8.06c-1.11,0-2.02-.9-2.02-2.02v-6.25c4.59-.94,8.06-5.01,8.06-9.88v-7.74c.74-2.75,2.59-5.03,4.76-7.66,3.44-4.19,7.34-8.93,7.34-16.85,0-12.23-9.95-22.18-22.18-22.18-5.23,0-10.21,1.87-14.15,5.14-.35-10.3-6.67-19.38-16.14-23.3-.04.41-.11.8-.24,1.19l-.9,2.7c8.02,3.51,13.28,11.43,13.28,20.32,0,7.62-3.59,12.22-7.4,17.08-2.17,2.77-4.36,5.66-5.97,9.13h-17.62c-1.61-3.47-3.81-6.36-5.97-9.13-3.8-4.86-7.4-9.46-7.4-17.08s4.39-15.36,11.19-19.26l.47-4.73c-9.16,4.02-15.31,13.07-15.66,23.08-3.94-3.27-8.92-5.14-14.15-5.14C9.95,24.19,0,34.14,0,46.37c0,7.92,3.9,12.67,7.34,16.85,2.16,2.63,4.02,4.92,4.76,7.66v7.74c0,4.87,3.47,8.94,8.06,9.88v6.25c0,3.33,2.71,6.05,6.05,6.05h8.06c1.11,0,2.02.9,2.02,2.02s-.91,2.02-2.02,2.02H10.08c-3.33,0-6.05,2.71-6.05,6.05s2.71,6.05,6.05,6.05h8.06c1.11,0,2.02.9,2.02,2.02v6.05h4.03v-6.05c0-3.33-2.71-6.05-6.05-6.05h-8.06c-1.11,0-2.02-.9-2.02-2.02s.91-2.02,2.02-2.02h24.19c3.33,0,6.05-2.71,6.05-6.05s-2.71-6.05-6.05-6.05h-8.06c-1.11,0-2.02-.9-2.02-2.02v-6.25c4.59-.94,8.06-5.01,8.06-9.88v-7.74c.74-2.75,2.59-5.03,4.76-7.66,2.99-3.64,6.32-7.71,7.14-13.91.13.16.26.33.38.49,2.29,2.93,4.44,5.71,5.86,9.11v11.65c0,2.63,1.69,4.84,4.03,5.68v.37c0,3.75,2.58,6.88,6.05,7.78v2.3c0,1.11-.91,2.02-2.02,2.02h-6.05c-4.45,0-8.06,3.62-8.06,8.06s3.62,8.06,8.06,8.06h18.15c3.33,0,6.05,2.71,6.05,6.05s-2.71,6.05-6.05,6.05h-4.03c-3.33,0-6.05,2.71-6.05,6.05v2.02h4.03v-2.02c0-1.11.91-2.02,2.02-2.02h4.03c5.56,0,10.08-4.52,10.08-10.08s-4.52-10.08-10.08-10.08h-18.15c-2.22,0-4.03-1.81-4.03-4.03s1.81-4.03,4.03-4.03h6.05c3.33,0,6.05-2.71,6.05-6.05v-2.3c3.47-.9,6.05-4.03,6.05-7.78v-.37c2.34-.83,4.03-3.05,4.03-5.68v-11.65c1.42-3.4,3.57-6.18,5.86-9.11.13-.16.26-.33.38-.49.82,6.2,4.15,10.27,7.14,13.91,2.16,2.63,4.02,4.92,4.76,7.66v7.74c0,4.87,3.47,8.94,8.06,9.88v6.25c0,3.33,2.71,6.05,6.05,6.05h8.06c1.11,0,2.02.9,2.02,2.02s-.91,2.02-2.02,2.02h-24.19c-3.33,0-6.05,2.71-6.05,6.05s2.71,6.05,6.05,6.05h8.06c1.11,0,2.02.9,2.02,2.02v6.05h4.03v-6.05c0-3.33-2.71-6.05-6.05-6.05h-8.06c-1.11,0-2.02-.9-2.02-2.02s.91-2.02,2.02-2.02h24.19c3.33,0,6.05-2.71,6.05-6.05s-2.71-6.05-6.05-6.05ZM16.13,48.39h-2.02c-1.11,0-2.02-.9-2.02-2.02s.91-2.02,2.02-2.02,2.02.9,2.02,2.02v2.02Zm8.06,20.16h-4.03v-16.13h4.03v16.13Zm4.03,4.03v4.03h-12.1v-4.03h12.1Zm-6.05,12.1c-2.63,0-4.84-1.69-5.68-4.03h11.35c-.83,2.34-3.05,4.03-5.68,4.03Zm11.72-24.01c-1.98,2.41-4,4.89-5.13,7.88h-.54v-16.13h2.02c3.33,0,6.05-2.71,6.05-6.05s-2.71-6.05-6.05-6.05-6.05,2.71-6.05,6.05v2.02h-4.03v-2.02c0-3.33-2.71-6.05-6.05-6.05s-6.05,2.71-6.05,6.05,2.71,6.05,6.05,6.05h2.02v16.13h-.54c-1.12-3-3.15-5.48-5.13-7.88-3.16-3.84-6.42-7.82-6.42-14.29,0-10.01,8.14-18.15,18.15-18.15,5.83,0,11.29,2.82,14.7,7.53.66,3,1.82,5.56,3.23,7.88.14.9.22,1.82.22,2.74,0,6.47-3.27,10.45-6.42,14.29Zm-5.67-12.28v-2.02c0-1.11.91-2.02,2.02-2.02s2.02.9,2.02,2.02-.91,2.02-2.02,2.02h-2.02Zm42.34,12.1v4.03h-16.13v-4.03h16.13Zm-8.06,20.16c-2.22,0-4.03-1.81-4.03-4.03h8.06c0,2.22-1.81,4.03-4.03,4.03Zm6.05-8.06h-12.1c-1.11,0-2.02-.9-2.02-2.02v-2.02h16.13v2.02c0,1.11-.91,2.02-2.02,2.02Zm28.23-24.19h-2.02c-1.11,0-2.02-.9-2.02-2.02s.91-2.02,2.02-2.02,2.02.9,2.02,2.02v2.02Zm8.06,20.16h-4.03v-16.13h4.03v16.13Zm4.03,4.03v4.03h-12.1v-4.03h12.1Zm-24.19-26.21c0-.92.08-1.83.22-2.74,1.4-2.3,2.54-4.86,3.2-7.84,3.41-4.74,8.88-7.57,14.73-7.57,10,0,18.15,8.14,18.15,18.15,0,6.47-3.27,10.45-6.42,14.29-1.98,2.41-4,4.89-5.13,7.88h-.54v-16.13h2.02c3.33,0,6.05-2.71,6.05-6.05s-2.71-6.05-6.05-6.05-6.05,2.71-6.05,6.05v2.02h-4.03v-2.02c0-3.33-2.71-6.05-6.05-6.05s-6.05,2.71-6.05,6.05,2.71,6.05,6.05,6.05h2.02v16.13h-.54c-1.12-3-3.15-5.48-5.13-7.88-3.16-3.84-6.42-7.82-6.42-14.29Zm24.19,2.02v-2.02c0-1.11.91-2.02,2.02-2.02s2.02.9,2.02,2.02-.91,2.02-2.02,2.02h-2.02Zm-11.73,32.26h11.35c-.83,2.34-3.05,4.03-5.68,4.03s-4.84-1.69-5.68-4.03Z"/></g></svg>