<?xml version="1.0" encoding="UTF-8"?><svg id="Layer_2" xmlns="http://www.w3.org/2000/svg" viewBox="0 0 125 125"><defs><style>.cls-1{fill:#b3db7e;}.cls-1,.cls-2{stroke-width:0px;}.cls-2{fill:#fff;}</style></defs><g id="Layer_1-2"><circle class="cls-1" cx="80.65" cy="44.36" r="20.16"/><path class="cls-1" d="m119.87,34.27c-2.49,0-4.72-1.49-5.68-3.79-.97-2.32-.44-4.98,1.34-6.75l3.61-3.61-14.26-14.26-3.61,3.61c-1.78,1.78-4.43,2.3-6.75,1.33-2.3-.95-3.79-3.18-3.79-5.68V0h-20.16v5.14c0,2.48-1.48,4.71-3.82,5.68-2.3.95-4.93.44-6.69-1.33l-3.64-3.64-14.26,14.26,3.61,3.61c1.78,1.78,2.3,4.43,1.33,6.76-.95,2.3-3.18,3.78-5.66,3.78h-5.14v20.16h5.14c2.49,0,4.71,1.48,5.68,3.82.96,2.3.44,4.93-1.32,6.69l-3.64,3.64,14.26,14.26,3.61-3.61c1.78-1.78,4.43-2.31,6.75-1.33,2.3.96,3.79,3.19,3.79,5.68v5.13h20.16v-5.13c0-2.49,1.49-4.72,3.79-5.68,2.32-.97,4.97-.44,6.75,1.34l3.61,3.61,14.26-14.26-3.61-3.61c-1.66-1.66-2.23-4.06-1.51-6.29.05-.13.22-.56.25-.65.99-2.19,3.18-3.61,5.59-3.61h5.14v-20.16h-5.13Zm-39.22,36.29c-14.48,0-26.21-11.73-26.21-26.21s11.73-26.21,26.21-26.21,26.21,11.73,26.21,26.21-11.73,26.21-26.21,26.21Z"/><path class="cls-2" d="m59.44,96.91c-2.75-2.75-7.09-3.18-10.33-1.02l-5.14,3.43c-.8.53-1.87.42-2.54-.25l-15.49-15.49c-.68-.68-.78-1.75-.25-2.54l3.43-5.14c2.16-3.23,1.73-7.58-1.02-10.33l-10.75-10.75c-1.55-1.54-3.6-2.4-5.79-2.4-2.86,0-5.55,1.52-7.02,3.97l-.51.85c-2.64,4.39-4.03,9.42-4.03,14.54,0,7.55,2.94,14.65,8.28,19.99l24.94,24.95c5.34,5.34,12.44,8.28,19.99,8.28,5.12,0,10.15-1.39,14.54-4.03l.85-.51c2.45-1.47,3.97-4.16,3.97-7.02,0-2.19-.85-4.24-2.4-5.79l-10.75-10.75ZM11.56,56.45c1.11,0,2.15.43,2.94,1.22l10.75,10.75c1.4,1.4,1.61,3.6.52,5.24l-1.48,2.21L7.58,59.17l.42-.7c.75-1.24,2.11-2.02,3.56-2.02Zm24.52,57.42l-24.94-24.95c-4.58-4.58-7.1-10.66-7.1-17.14,0-3.02.6-5.99,1.69-8.78l16.32,16.32c-1.23,2.32-.84,5.21,1.05,7.1l15.49,15.49c1.89,1.89,4.78,2.27,7.1,1.05l16.32,16.32c-2.79,1.09-5.76,1.69-8.78,1.69-6.47,0-12.56-2.52-17.14-7.1Zm30.46,3.14l-.69.42-16.71-16.71,2.21-1.48c1.64-1.09,3.85-.88,5.24.52l10.75,10.75c.78.79,1.21,1.83,1.21,2.94,0,1.45-.77,2.81-2.02,3.56Z"/><path class="cls-2" d="m76.61,104.84h4.03v-4.03h4.03v8.06h-8.06v16.13h12.1v-8.06h-4.03v4.03h-4.03v-8.06h8.06v-16.13h-12.1v8.06Z"/><path class="cls-2" d="m104.84,96.77h-7.5l-4.59,13.79v6.38h8.06v8.06h4.03v-8.06h4.03v-4.03h-4.03v-16.13Zm-4.03,16.13h-4.03v-1.69l3.47-10.41h.56v12.1Z"/><path class="cls-2" d="m116.94,108.87v-12.1h-4.03v28.23h4.03v-12.1h4.03v11.92h4.03v-15.95h-8.06Z"/><path class="cls-2" d="m80.65,16.13c-15.56,0-28.23,12.66-28.23,28.23s12.66,28.23,28.23,28.23,28.23-12.66,28.23-28.23-12.66-28.23-28.23-28.23Zm-6.95,42.34c-1.55-3.26-2.77-7.29-3.04-12.1h19.99c-.28,4.81-1.49,8.84-3.04,12.1h-13.91Zm11.62,4.03c-1.76,2.61-3.54,4.43-4.67,5.45-1.13-1.02-2.92-2.83-4.67-5.45h9.34Zm-14.67-20.16c.28-4.81,1.49-8.84,3.04-12.1h13.9c1.55,3.26,2.77,7.29,3.04,12.1h-19.99Zm5.33-16.13c1.76-2.61,3.54-4.43,4.67-5.45,1.13,1.02,2.92,2.83,4.67,5.45h-9.34Zm-4.71,0h-6.56c2.9-2.55,6.41-4.42,10.29-5.35-1.21,1.43-2.51,3.22-3.73,5.35Zm-1.98,4.03c-1.4,3.39-2.43,7.43-2.67,12.1h-10.06c.37-4.49,1.98-8.63,4.48-12.1h8.25Zm-2.67,16.13c.24,4.67,1.26,8.71,2.67,12.1h-8.25c-2.5-3.46-4.11-7.6-4.48-12.1h10.06Zm4.64,16.13c1.22,2.14,2.52,3.93,3.73,5.35-3.88-.94-7.39-2.8-10.29-5.35h6.56Zm18.77,0h6.56c-2.9,2.55-6.41,4.42-10.29,5.35,1.21-1.43,2.51-3.22,3.73-5.35Zm1.98-4.03c1.4-3.39,2.43-7.43,2.67-12.1h10.06c-.37,4.49-1.98,8.63-4.48,12.1h-8.25Zm2.67-16.13c-.24-4.67-1.26-8.71-2.67-12.1h8.25c2.5,3.46,4.11,7.6,4.48,12.1h-10.06Zm-4.64-16.13c-1.22-2.14-2.52-3.93-3.73-5.35,3.88.94,7.39,2.8,10.29,5.35h-6.56Z"/><path class="cls-2" d="m12.1,8.06h4.03v4.03h-4.03v-4.03Z"/><path class="cls-2" d="m20.16,8.06h4.03v4.03h-4.03v-4.03Z"/><path class="cls-2" d="m28.23,8.06h4.03v4.03h-4.03v-4.03Z"/></g></svg>