<?xml version="1.0" encoding="UTF-8"?><svg id="Layer_2" xmlns="http://www.w3.org/2000/svg" viewBox="0 0 100 100"><defs><style>.cls-1{fill:#fff;}.cls-1,.cls-2{stroke-width:0px;}.cls-2{fill:#e7b6a1;}</style></defs><g id="Layer_1-2"><circle class="cls-2" cx="50" cy="50" r="50"/><path class="cls-1" d="m51.08,24.87c1.06.19,2.13.32,3.17.59,3.42.89,6.2,2.79,8.41,5.53,1.58,1.97,2.65,4.19,3.15,6.67.9,4.48.13,8.65-2.45,12.43-.83,1.22-1.88,2.3-2.77,3.49-1.8,2.42-2.61,5.16-2.63,8.16,0,2.01,0,4.02,0,6.03,0,1.83-.55,2.66-2.27,3.36,0,.27,0,.56,0,.85-.06,1.78-1.34,3.09-3.12,3.13-1.72.03-3.43.03-5.15,0-1.82-.04-3.11-1.38-3.1-3.23,0-.53-.11-.8-.64-1.04-1.13-.52-1.63-1.51-1.63-2.74,0-2.06-.02-4.12,0-6.18.04-3.68-1.12-6.9-3.63-9.61-1.77-1.91-3.12-4.06-3.87-6.57-.99-3.33-.96-6.65.17-9.93,1.37-3.97,3.95-6.95,7.62-8.99,1.94-1.07,4.03-1.69,6.24-1.88.14-.01.29-.05.43-.08.69,0,1.37,0,2.06,0Zm.48,21.43c0-.43-.02-.82,0-1.21.11-1.51,1.34-2.65,2.83-2.64,1.54,0,2.73,1.2,2.83,2.81.08,1.49-1.01,2.82-2.47,2.98-.4.04-.8.06-1.22.09v12.34h2.48c.02-.17.05-.31.07-.45.24-2.85,1.2-5.45,2.89-7.75.9-1.22,1.99-2.31,2.82-3.57,2.53-3.82,3.08-7.96,1.68-12.32-1.15-3.57-3.45-6.25-6.72-8.03-3.1-1.69-6.43-2.15-9.88-1.33-3.97.94-7.02,3.21-9.09,6.7-2.08,3.51-2.48,7.28-1.36,11.2.67,2.37,2.02,4.33,3.67,6.12,1.94,2.11,3.14,4.6,3.64,7.42.12.67.2,1.34.29,2.01h2.42v-12.38c-.32,0-.6,0-.88,0-1.75-.06-2.92-1.17-2.99-2.86-.06-1.59,1.13-2.88,2.75-2.99,1.65-.11,2.99,1.04,3.1,2.66.03.39,0,.77,0,1.19h3.11Zm4.44,16.39h-11.96c0,.14-.02.25-.02.36,0,1.65,0,3.3,0,4.96,0,.86.36,1.22,1.23,1.23,1.1,0,2.19,0,3.29,0,2.09,0,4.19,0,6.28,0,.81,0,1.17-.37,1.18-1.17,0-.57,0-1.15,0-1.72,0-1.21,0-2.41,0-3.65Zm-4.49-2.01v-12.34h-3.01v12.34h3.01Zm-5.23,10.54c0,.28-.02.54,0,.79.06.68.49,1.13,1.17,1.14,1.7.02,3.4.02,5.09,0,.71,0,1.13-.48,1.18-1.18.02-.24,0-.48,0-.75h-7.45Zm.22-24.91c0-.37.02-.7,0-1.02-.04-.56-.41-.89-.96-.89-.56,0-.93.35-.97.89-.03.56.27.94.83,1.01.34.04.68,0,1.1,0Zm7.02.03c.39-.02.74-.01,1.07-.07.48-.09.73-.51.66-1.04-.06-.48-.43-.83-.88-.82-.46.01-.8.35-.84.85-.03.34,0,.67,0,1.08Z"/><path class="cls-1" d="m24.88,40.77c.27-.55.71-.75,1.31-.72.7.03,1.4,0,2.1.01.7.01,1.11.37,1.12.96,0,.58-.41.97-1.09.99-.77.02-1.53,0-2.3,0-.55,0-.92-.27-1.14-.76v-.49Z"/><path class="cls-1" d="m29.28,51.43c.06-.11.15-.38.33-.57.54-.58,1.11-1.15,1.69-1.7.47-.45,1.05-.46,1.44-.07.4.39.39.98-.05,1.44-.56.59-1.14,1.16-1.73,1.73-.32.31-.71.41-1.12.23-.37-.17-.57-.47-.57-1.06Z"/><path class="cls-1" d="m70.79,51.73c-.15.2-.3.56-.55.68-.26.13-.75.16-.94,0-.77-.67-1.49-1.4-2.18-2.16-.29-.32-.17-.87.15-1.16.33-.3.78-.44,1.12-.15.79.7,1.51,1.48,2.24,2.23.09.09.09.27.17.55Z"/><path class="cls-1" d="m72.92,40.06c.42,0,.85-.02,1.27,0,.53.03.89.41.93.9.03.47-.3.96-.82.99-.96.05-1.92.06-2.88,0-.56-.03-.86-.49-.82-1.02.04-.5.4-.85.94-.87.46-.02.91,0,1.37,0,0,0,0,0,0,0Z"/><path class="cls-1" d="m29.2,30.33c.18-.22.33-.58.59-.7.27-.12.75-.14.94.03.76.66,1.47,1.38,2.15,2.13.29.32.19.85-.12,1.16-.31.32-.87.43-1.2.13-.74-.68-1.44-1.41-2.14-2.14-.11-.12-.12-.32-.22-.62Z"/><path class="cls-1" d="m70.73,30.61c-.06.11-.15.38-.33.57-.56.6-1.13,1.17-1.73,1.73-.44.42-1.02.42-1.41.05-.39-.37-.41-.96,0-1.4.58-.62,1.19-1.21,1.8-1.8.3-.29.68-.39,1.08-.21.37.17.57.47.58,1.05Z"/><path class="cls-1" d="m50.43,29.67c4.28.09,8.44,2.97,10.04,6.95.25.62.07,1.17-.47,1.41-.54.24-1.06,0-1.36-.68-1.02-2.32-2.68-4-5-5-1.04-.45-2.14-.69-3.28-.72-.23,0-.46-.02-.68-.07-.48-.11-.79-.55-.74-1.01.05-.48.41-.83.91-.87.19-.02.39,0,.59,0Z"/><path class="cls-1" d="m61.35,41.03c0,.52-.46.97-.98.97-.52,0-.96-.45-.96-.98,0-.53.43-.96.97-.96.53,0,.97.44.96.97Z"/></g></svg>