<svg width="83" height="48" viewBox="0 0 83 48" fill="none" xmlns="http://www.w3.org/2000/svg">
<path d="M70.4363 20.08C73.3163 20.08 75.6363 21.92 75.7163 24.84H65.1963C65.6363 21.8 67.7563 20.08 70.4363 20.08ZM80.9563 31.04H74.9163C74.1963 32.52 72.8763 33.72 70.4763 33.72C67.6763 33.72 65.4363 31.88 65.1563 28.6H81.3563C81.4763 27.88 81.5163 27.16 81.5163 26.44C81.5163 19.84 76.9963 15.48 70.5963 15.48C64.0362 15.48 59.4762 19.92 59.4762 26.92C59.4762 33.88 64.1563 38.36 70.5963 38.36C76.0763 38.36 79.7563 35.12 80.9563 31.04Z" fill="#8B5CF6"/>
<path d="M47.0436 18.3259C41.6093 22.0872 38.8922 26.6489 37.507 30.5436L35.4558 25.7952C36.4681 23.8745 38.3328 21.3403 41.7159 18.6727C48.8017 13.0707 49.1746 6.85508 49.1746 6.85508C49.1746 6.85508 47.0169 11.6835 40.1442 16.832C37.0275 19.1795 35.5091 21.9539 34.7899 24.2747L26.745 5.65465H19.0199L24.6939 18.6727L18.9932 31.7174L7.69852 5.65465H0L14.5446 39H17.0753L25.3598 20.1399L33.5911 39H36.1218L36.2283 38.7866C36.2283 38.92 36.255 39 36.255 39C36.255 39 36.2816 38.8666 36.3349 38.5732L38.7057 33.1579C38.6791 33.1312 38.6791 33.0779 38.6524 33.0512C40.5171 29.9034 43.8203 25.7952 49.6541 21.5537C61.9877 12.5105 63 2 63 2C63 2 59.0575 10.0296 47.0436 18.3259Z" fill="#8B5CF6"/>
</svg>
