<svg width="64" height="61" viewBox="0 0 64 61" fill="none" xmlns="http://www.w3.org/2000/svg">
<path d="M54.851 6.89818C57.0416 6.91264 59.2322 6.91264 61.4228 6.92709C63.0693 6.92709 64 7.85238 64 9.50054C64 23.1774 64 36.8398 64 50.5167C64 52.1793 63.0836 53.0901 61.4228 53.0901C53.1471 53.0901 44.8572 53.0901 36.5816 53.0901C36.3095 53.3214 35.9659 53.3214 35.6366 53.3214C33.2169 53.3214 30.7829 53.3214 28.3632 53.3214C28.0339 53.3214 27.6903 53.3359 27.4182 53.0901C25.514 53.0757 23.6097 53.0757 21.7198 53.0612C21.6768 52.9745 21.6912 53.1046 21.6768 53.0034C21.3905 51.4853 21.3475 49.9673 21.7055 48.4492C22.135 48.1456 22.6218 48.2324 23.0943 48.2324C34.4482 48.2324 45.7879 48.2324 57.1418 48.2324C57.4997 48.2324 57.8577 48.2468 58.2156 48.2035C58.8599 48.1167 59.1319 47.842 59.2035 47.177C59.2322 46.9167 59.2179 46.642 59.2179 46.3818C59.2179 35.4953 59.2179 24.6232 59.2179 13.7366C59.2179 11.9005 59.0747 11.7848 57.2706 11.7559C56.4689 11.7415 55.6527 11.9294 54.8796 11.5969C54.808 11.5246 54.7364 11.4523 54.7364 11.3511C54.6362 9.90535 54.536 8.44514 54.7937 6.99938C54.7937 6.97047 54.8223 6.94155 54.851 6.89818Z" fill="#0A5078"/>
<path d="M9.13464 6.89821C9.13464 5.40908 9.13464 3.91995 9.13464 2.43083C9.14896 0.956153 10.1082 0.00195312 11.5687 0.00195312C25.1848 0.00195312 38.8009 0.00195312 52.417 0.00195312C53.9061 0.00195312 54.8367 0.97061 54.8511 2.50311C54.8511 3.96333 54.8511 5.438 54.8511 6.89821L54.8081 6.94159C54.3929 7.25965 53.8918 7.14399 53.4336 7.14399C40.6909 7.14399 27.9481 7.14399 15.191 7.14399C13.5445 7.14399 11.9123 7.14399 10.2657 7.14399C9.9078 7.14399 9.54986 7.18737 9.22055 6.99942C9.20623 6.9705 9.16328 6.94159 9.13464 6.89821Z" fill="#C70A50"/>
<path d="M15.9785 53.0901C11.5257 53.0901 7.08726 53.0901 2.63446 53.0901C0.887697 53.0757 0 52.1793 0 50.4299C0 36.8109 0 23.1919 0 9.57283C0 7.809 0.887697 6.92709 2.64877 6.92709C4.81075 6.92709 6.97272 6.91264 9.13469 6.89818L9.17764 6.94155C9.29219 7.07167 9.34946 7.2307 9.34946 7.40419C9.39241 8.64754 9.39241 9.8909 9.34946 11.1342C9.34946 11.2788 9.29219 11.4089 9.20628 11.5391C8.93424 11.7848 8.59062 11.7559 8.26131 11.7559C7.53111 11.7704 6.78659 11.7415 6.05639 11.7704C5.14005 11.7993 4.82506 12.1029 4.81075 13.0426C4.78211 15.2402 4.78211 17.4522 4.81075 19.6498C4.82506 21.0088 4.71052 22.3822 4.82506 23.7412C4.76779 24.84 4.78211 25.9243 4.82506 27.0231C4.71052 27.9339 4.81075 28.8448 4.81075 29.7556C4.81075 35.2061 4.81075 40.6566 4.81075 46.0927C4.81075 46.3818 4.81075 46.671 4.81075 46.9601C4.8537 47.8709 5.14005 48.1745 6.02775 48.2035C6.78659 48.2324 7.54543 48.2179 8.30426 48.2179C10.5092 48.2179 12.7284 48.2179 14.9334 48.2179C15.3056 48.2179 15.7065 48.1601 16.0358 48.4059C16.222 48.6516 16.222 48.9408 16.222 49.2299C16.2363 50.2131 16.2363 51.1962 16.222 52.1793C16.222 52.5263 16.2506 52.8443 15.9785 53.0901Z" fill="#0A5078"/>
<path d="M36.5386 54.2323C36.5529 55.1865 36.5816 56.1552 36.5529 57.1094C36.5386 57.572 36.6675 57.7166 37.14 57.7021C39.216 57.6732 41.2778 57.6877 43.3538 57.6877C44.4993 57.6877 45.387 58.425 45.659 59.4659C45.7735 59.8997 45.659 60.0153 45.2295 60.0009C44.3561 59.972 43.4684 59.9864 42.595 59.9864C34.7203 59.9864 26.8455 59.9864 18.9708 59.9864C18.1977 59.9864 18.1547 59.9286 18.4267 59.1913C18.7704 58.266 19.5865 57.6877 20.646 57.6877C22.722 57.6732 24.7838 57.6732 26.8599 57.7021C27.3323 57.7021 27.4612 57.572 27.4469 57.1094C27.4182 56.1552 27.4469 55.1865 27.4612 54.2323C27.7332 53.9721 28.0769 54.001 28.4062 54.001C30.8115 54.001 33.2169 54.001 35.608 54.001C35.923 54.0154 36.2809 53.9721 36.5386 54.2323Z" fill="#0A5078"/>
<path d="M15.979 53.0902C15.979 51.5432 15.979 50.0107 15.979 48.4637C15.707 48.1023 15.7786 47.683 15.7786 47.2927C15.7786 46.5553 15.7499 45.818 15.7929 45.0807C15.7929 44.6903 15.7786 44.2855 15.7929 43.8951C15.7786 43.5626 15.7786 43.2156 15.7929 42.8831C15.8358 41.9289 16.1938 41.5386 17.1674 41.3506C17.9119 41.3217 18.6421 41.3217 19.3866 41.3506C20.3746 41.5241 20.7325 41.9289 20.7755 42.9265C20.7898 43.259 20.7898 43.5915 20.7755 43.9241C20.8041 45.4421 20.8041 46.9601 20.7755 48.4782C20.8184 49.736 20.7898 51.0083 20.7898 52.2661C20.7898 52.5552 20.7898 52.8444 20.5893 53.0757C20.575 53.3359 20.575 53.5962 20.5607 53.8564C20.5607 54.9841 20.1741 55.3745 19.086 55.3745C18.5133 55.3745 17.9549 55.3745 17.3822 55.3745C16.3799 55.36 15.9933 54.9552 15.979 53.9287C15.9933 53.654 15.979 53.3648 15.979 53.0902Z" fill="#C70A50"/>
<path d="M36.5391 54.2324C33.5038 54.2324 30.4827 54.2324 27.4474 54.2324C27.4331 53.8565 27.4187 53.4661 27.4044 53.0902C30.4541 53.0902 33.5181 53.0902 36.5677 53.0902C36.5677 53.4661 36.5534 53.8565 36.5391 54.2324Z" fill="#00325A"/>
<path d="M20.5889 53.0902C20.5889 51.5576 20.5889 50.0107 20.5889 48.4782C20.9182 48.2179 21.2619 48.2613 21.6198 48.4059C21.6484 48.4348 21.6771 48.4637 21.7057 48.4926C21.7057 50.0251 21.7057 51.5432 21.7057 53.0757C21.3334 53.0612 20.9612 53.0757 20.5889 53.0902Z" fill="#00325A"/>
<path d="M9.13461 11.5536C9.14893 10.0211 9.16325 8.47409 9.17756 6.94159C9.36369 6.92713 9.56414 6.91267 9.75027 6.91267C24.5834 6.91267 39.4165 6.91267 54.264 6.91267C54.4501 6.91267 54.6506 6.92713 54.8367 6.94159C54.851 8.47409 54.8653 10.0211 54.8797 11.5536C55.1231 11.8282 55.0944 12.1752 55.0944 12.5078C55.0944 22.1076 55.0944 31.693 55.0944 41.2928C55.0944 41.553 55.0801 41.8277 55.0228 42.0735C54.4788 43.5192 53.7629 44.0686 52.2452 44.0686C42.3803 44.0831 32.5154 44.0686 22.6362 44.0686C22.3498 44.0686 22.0635 44.0686 21.7915 43.953C21.4621 43.7217 21.5051 43.3747 21.5051 43.0421C21.5051 42.4783 21.3333 42.0157 20.8035 41.7554C20.5601 41.6253 20.4026 41.4229 20.3883 41.1337C20.374 40.4687 20.2738 39.8036 20.4742 39.1531C20.5172 39.0808 20.5745 39.0229 20.646 38.9796C22.0205 38.7916 23.3807 38.5169 24.6693 37.982C24.8698 37.8953 25.0845 37.8374 25.2563 38.0543C25.557 38.8061 26.1297 39.0374 26.9029 39.0229C31.8282 39.0085 36.7534 39.0085 41.6787 39.0085C41.8935 39.0085 42.1083 39.0085 42.323 38.9796C42.8242 38.8928 43.1678 38.6326 43.1678 38.0832C43.1535 37.5338 42.8098 37.2736 42.3087 37.2013C42.008 37.1579 41.6931 37.1724 41.3781 37.1724C37.0971 37.1724 32.8161 37.1724 28.5351 37.1724C28.1485 37.1724 27.7763 37.2013 27.404 37.1145C26.9888 36.9555 27.132 36.7097 27.361 36.5362C28.1771 35.9146 28.8358 35.1339 29.6662 34.5122C29.7378 34.4833 29.8237 34.4688 29.8953 34.4543C31.5275 34.3821 33.174 34.4399 34.8062 34.4254C35.0926 34.4254 35.3789 34.4399 35.651 34.3531C36.0805 34.223 36.3382 33.9339 36.3382 33.4568C36.3382 32.9941 36.0662 32.705 35.6224 32.5893C35.2215 32.4881 34.8206 32.5459 34.4197 32.5315C33.4317 32.4737 32.4295 32.6616 31.4416 32.4158C31.1982 32.2568 31.2841 32.0399 31.3843 31.852C32.0429 30.5797 32.5154 29.2496 32.7731 27.8328C32.7874 27.7605 32.8304 27.7027 32.8877 27.6448C32.9593 27.6015 33.0308 27.5581 33.1024 27.5436C34.119 27.428 35.1355 27.5147 36.1521 27.4858C36.596 27.4713 37.0541 27.5003 37.498 27.4713C38.2282 27.4424 38.6291 27.1099 38.6434 26.5461C38.6577 25.9678 38.2425 25.6208 37.4693 25.5919C36.8823 25.5629 36.281 25.6063 35.6939 25.5774C34.8921 25.5485 34.0904 25.6786 33.2886 25.4907C33.2027 25.4473 33.1454 25.4039 33.1024 25.3172C33.0022 24.5509 32.7159 23.7991 33.0165 23.0184C33.3029 22.8015 33.6465 22.8449 33.9758 22.8449C35.064 22.8305 36.1521 22.8449 37.2403 22.8449C37.5266 22.8449 37.813 22.8449 38.085 22.7293C38.4429 22.5702 38.6434 22.2955 38.6434 21.8907C38.6434 21.4859 38.4286 21.2112 38.0564 21.0666C37.77 20.951 37.455 20.9654 37.14 20.9654C35.6223 20.9365 34.1047 21.0088 32.587 20.9221C32.5011 20.9076 32.4295 20.8787 32.3579 20.8353C31.8711 20.1847 31.6993 19.3896 31.327 18.6811C31.2555 18.5366 31.3127 18.4064 31.4559 18.3197C31.7709 18.1751 32.1145 18.2185 32.4438 18.2185C34.0188 18.2185 35.5794 18.2185 37.1543 18.2185C37.4407 18.2185 37.7271 18.233 37.9991 18.1318C38.4 17.9872 38.6291 17.698 38.6291 17.2643C38.6291 16.8306 38.3857 16.5559 37.9848 16.4113C37.7557 16.339 37.5123 16.339 37.2832 16.339C35.3074 16.339 33.3315 16.339 31.37 16.339C30.9834 16.339 30.6112 16.4113 30.2389 16.498C29.8523 16.5559 29.6232 16.3101 29.3798 16.0788C28.7785 15.4716 28.1771 14.8499 27.4899 14.3294C27.3181 14.1993 26.9029 14.0258 27.3181 13.6933C28.1199 13.5198 28.9217 13.6354 29.7378 13.6065C30.8259 13.5776 31.9284 13.6354 33.0165 13.5776C33.6895 13.5487 34.076 13.1728 34.0617 12.6379C34.0617 12.1319 33.6895 11.7415 33.0595 11.727C30.8546 11.6837 28.6353 11.6981 26.4304 11.7126C25.8004 11.7126 25.5284 12.1608 25.2563 12.6234C24.9413 12.8837 24.6407 12.7102 24.3257 12.5945C23.166 12.1897 22.0205 11.7704 20.7606 11.8282C19.4147 11.756 18.0832 11.5969 16.7087 11.7704C14.2174 12.1029 11.9982 13.0282 9.99367 14.5463C9.73595 14.7342 9.49255 15.2113 9.03439 14.8354C8.90553 13.7656 8.74803 12.6523 9.13461 11.5536Z" fill="#00325A"/>
<path d="M54.8373 42.1024C54.8373 33.5724 54.8516 25.0569 54.8516 16.5269C54.8516 14.8643 54.8516 13.2161 54.866 11.5535C55.9541 11.5535 57.0566 11.5391 58.1447 11.5391C58.9895 11.5391 59.4047 11.9728 59.419 12.8258C59.419 12.9414 59.419 13.0716 59.419 13.1872C59.419 24.4063 59.419 35.6254 59.419 46.8444C59.419 48.1312 59.0897 48.4637 57.8154 48.4637C46.0892 48.4637 34.3487 48.4637 22.6225 48.4637C22.3075 48.4637 22.0068 48.4637 21.6919 48.4782L21.7062 48.4492C21.291 47.8565 21.4914 47.1914 21.4771 46.5553C21.4485 44.7626 21.4628 44.7626 23.2525 44.7626C32.6019 44.7626 41.9514 44.7626 51.3009 44.7626C51.5872 44.7626 51.8736 44.7626 52.1599 44.7626C53.5774 44.7336 54.236 44.2276 54.6655 42.8686C54.7514 42.6228 54.7514 42.3481 54.8373 42.1024Z" fill="#009FC7"/>
<path d="M46.8479 3.47175C46.8336 4.09343 46.3182 4.6139 45.7168 4.6139C45.0725 4.6139 44.5428 4.05005 44.5714 3.41392C44.6001 2.79225 45.1298 2.30069 45.7455 2.31515C46.3468 2.3296 46.8623 2.86453 46.8479 3.47175Z" fill="#029EC6"/>
<path d="M50.3126 2.31515C50.9283 2.3296 51.4294 2.86453 51.4151 3.48621C51.4008 4.10788 50.8997 4.62836 50.2697 4.62836C49.6254 4.62836 49.0956 4.07897 49.1243 3.42838C49.1672 2.79225 49.697 2.28623 50.3126 2.31515Z" fill="#F9B201"/>
<path d="M41.1204 2.31517C41.736 2.30071 42.2515 2.80672 42.2801 3.4284C42.2944 4.07899 41.7647 4.62838 41.1204 4.61392C40.5047 4.59946 40.0036 4.07899 40.0036 3.45732C40.0036 2.83564 40.5047 2.31517 41.1204 2.31517Z" fill="#02143C"/>
<path d="M9.16337 15.0089C11.1392 13.3608 13.3585 12.2186 15.8927 11.756C17.4819 11.4668 19.0712 11.5391 20.6462 11.7126C22.2927 11.9005 23.839 12.3776 25.2565 13.274C25.5142 13.433 25.7862 13.6065 26.0439 13.7656C27.5187 14.7921 28.7786 16.0499 29.7952 17.5535C29.9527 17.8137 30.1245 18.0739 30.282 18.3342C30.7831 19.1149 31.0838 19.9823 31.4417 20.8353C31.7137 21.5871 31.8856 22.3823 32.043 23.163C32.1433 23.9003 32.2721 24.6377 32.2149 25.3895C32.2578 26.1413 32.1576 26.8641 32.043 27.6015C31.7281 29.2785 31.2269 30.8833 30.3536 32.3435C29.8524 33.1676 29.337 33.9917 28.6784 34.7001C27.848 35.5242 27.0462 36.3917 26.0439 37.0278C25.7862 37.1868 25.5285 37.3603 25.2565 37.5194C23.839 38.4013 22.2927 38.8784 20.6605 39.0808L20.6175 39.0663L20.5889 39.0952C19.7155 39.2976 19.5437 39.9193 19.6296 40.7145C19.6582 40.9892 19.6582 41.2928 19.4292 41.5241C18.6703 41.5241 17.9115 41.5241 17.1383 41.5241C16.809 41.0904 16.9522 40.5988 16.9665 40.1362C16.9808 39.5723 16.7661 39.341 16.1934 39.2543C13.4873 38.8639 11.1249 37.7073 9.06314 35.9001C7.2448 34.1941 5.85598 32.199 5.08282 29.7846C4.78215 28.8593 4.62466 27.934 4.65329 26.9653C4.55307 25.9099 4.55307 24.869 4.65329 23.8136C4.68193 20.7341 6.04211 18.2474 7.98932 16.0065C8.31862 15.6161 8.6193 15.1535 9.16337 15.0089Z" fill="#F9B300"/>
<path d="M4.65331 26.9653C5.08285 30.4641 6.64347 33.37 9.16339 35.77C9.3352 36.1025 9.37815 36.4495 9.37815 36.8109C9.37815 38.5458 9.37815 40.2663 9.37815 42.0012C9.26361 43.9385 10.0511 44.7915 11.984 44.7915C13.0292 44.7915 14.0744 44.7915 15.1052 44.7915C15.4059 44.7915 15.7352 44.7626 15.9786 45.0084C15.9786 46.165 15.9786 47.3071 15.9786 48.4637C12.6283 48.4637 9.27793 48.4637 5.92759 48.4637C5.01126 48.4637 4.58173 48.0589 4.58173 47.177C4.58173 40.5988 4.58173 34.0206 4.58173 27.4569C4.58173 27.2979 4.62468 27.1244 4.65331 26.9653Z" fill="#009FC7"/>
<path d="M9.16377 15.0089C7.2452 16.8739 5.78479 19.0136 5.09754 21.6449C4.91141 22.3533 4.79687 23.0907 4.6537 23.828C4.62506 23.6834 4.58211 23.5533 4.58211 23.4088C4.58211 19.8666 4.56779 16.3101 4.58211 12.768C4.58211 12.0017 5.02596 11.568 5.78479 11.568C6.90158 11.5535 8.01836 11.568 9.13514 11.5825C9.13514 12.7101 9.14945 13.8523 9.16377 15.0089Z" fill="#009FC7"/>
<path d="M9.14905 42.1024C9.14905 39.9916 9.14905 37.8807 9.14905 35.7699C11.1249 37.4036 13.3298 38.5603 15.8784 39.0229C17.1383 39.2542 17.1383 39.2687 17.1383 40.5843C17.1383 40.9024 17.1383 41.206 17.1383 41.5241C16.2506 41.7554 16.0072 42.059 15.9929 42.9409C15.9929 43.2445 15.9786 43.5481 15.9643 43.8517C15.7638 44.0541 15.4918 44.0541 15.2341 44.0541C13.9741 44.0541 12.7285 44.083 11.4685 44.0541C10.1656 44.0252 9.42108 43.3746 9.14905 42.1024Z" fill="#00325A"/>
<path d="M54.8369 42.1024C55.0946 43.8807 53.8776 45.0517 52.0592 45.0373C42.2373 44.9794 32.401 45.0228 22.5791 44.9939C21.9062 44.9939 21.6484 45.1529 21.7057 45.8614C21.763 46.7288 21.72 47.5963 21.72 48.4493C21.3478 48.4493 20.9755 48.4493 20.5889 48.4637C20.5889 46.9312 20.5889 45.3843 20.5889 43.8517C20.9612 43.5771 21.3191 43.5915 21.7057 43.8228C24.4833 43.8228 27.261 43.8373 30.0386 43.8373C37.3836 43.8373 44.7286 43.8228 52.0592 43.8517C53.4337 43.8807 54.3357 43.3747 54.8369 42.1024Z" fill="#0081A9"/>
<path d="M9.14908 42.1024C9.6502 43.3602 10.5522 43.9241 11.9124 43.8662C13.2583 43.8084 14.6184 43.8518 15.9643 43.8518C15.9643 44.2421 15.9643 44.618 15.9643 45.0084C14.6184 45.0084 13.2583 44.9361 11.9124 45.0228C10.137 45.153 8.90568 43.8952 9.14908 42.1024Z" fill="#0081A9"/>
<path d="M21.7059 43.8373C21.3336 43.8518 20.9614 43.8518 20.5891 43.8662C20.5748 43.5626 20.5748 43.259 20.5605 42.9554C20.5462 42.0735 20.3028 41.7699 19.4151 41.5386C19.4151 41.0181 19.458 40.4832 19.4007 39.9771C19.3148 39.3121 19.6012 39.0663 20.2168 39.1097C20.3314 39.1241 20.4459 39.1097 20.5748 39.1097C20.5748 39.5434 20.5605 39.9627 20.5748 40.3964C20.5748 40.9747 20.4173 41.5675 21.2477 41.8133C21.6629 41.9289 21.7345 42.4638 21.7059 42.9265C21.7059 43.2156 21.7059 43.5192 21.7059 43.8373Z" fill="#00143C"/>
<path d="M27.1464 36.9122C32.0287 36.9266 36.8968 36.9266 41.7791 36.9411C41.9939 36.9411 42.2086 36.9122 42.4234 36.9555C43.0391 37.0567 43.397 37.4326 43.4399 38.0688C43.4686 38.676 43.0247 39.1675 42.4091 39.2398C42.2945 39.2543 42.1657 39.2398 42.0511 39.2398C36.8968 39.2398 31.7281 39.2398 26.5737 39.2398C25.6144 39.2398 25.2565 38.9073 25.1562 37.9386C25.1706 37.9097 25.1849 37.8808 25.1849 37.8519C25.686 37.4182 26.316 37.1869 26.8744 36.8543C26.9603 36.8254 27.0605 36.8254 27.1464 36.9122Z" fill="#009FC7"/>
<path d="M44.5709 32.3146C46.0027 32.3146 47.4201 32.3146 48.8519 32.3146C49.7682 32.3146 50.2694 32.7194 50.2837 33.4423C50.298 34.1797 49.7826 34.6134 48.8949 34.6134C46.017 34.6134 43.1391 34.6134 40.2613 34.6134C39.3736 34.6134 38.8582 34.1797 38.8582 33.4423C38.8725 32.7194 39.3736 32.3146 40.2899 32.3002C41.7074 32.3146 43.1391 32.3146 44.5709 32.3146Z" fill="#009FC7"/>
<path d="M45.7023 23.0762C44.6284 23.0762 43.5689 23.0762 42.4951 23.0762C41.6647 23.0762 41.1492 22.628 41.1349 21.9341C41.1206 21.2401 41.6504 20.7775 42.4665 20.763C44.6284 20.763 46.7904 20.763 48.9524 20.763C49.7685 20.763 50.2983 21.2401 50.2839 21.9341C50.2696 22.5991 49.7685 23.0618 48.981 23.0618C47.8929 23.0907 46.8047 23.0762 45.7023 23.0762Z" fill="#F9B300"/>
<path d="M45.7309 27.7027C44.6428 27.7027 43.5403 27.7171 42.4522 27.7027C41.6361 27.6882 41.1206 27.2111 41.1349 26.5171C41.1493 25.8376 41.6504 25.4039 42.4378 25.4039C44.6285 25.3895 46.8047 25.3895 48.9954 25.4039C49.7685 25.4039 50.2696 25.881 50.2696 26.5461C50.2696 27.2111 49.7685 27.6882 48.9954 27.7027C47.9215 27.7027 46.8191 27.7027 45.7309 27.7027Z" fill="#F9B300"/>
<path d="M25.1139 12.6957C25.343 11.7848 25.6436 11.5391 26.5456 11.5391C28.6647 11.5391 30.7694 11.5391 32.8884 11.5391C33.7761 11.5391 34.2915 11.9872 34.2772 12.7101C34.2629 13.4041 33.7474 13.8378 32.9027 13.8378C30.9841 13.8523 29.0656 13.8523 27.1327 13.8667C27.0468 13.939 26.9465 13.9535 26.8463 13.9246C26.2879 13.5342 25.6007 13.3896 25.0996 12.8981C25.0852 12.8258 25.0852 12.768 25.1139 12.6957Z" fill="#C70A50"/>
<path d="M30.0245 16.4691C30.3681 16.2234 30.7404 16.1511 31.1699 16.1511C33.2603 16.1655 35.3507 16.1511 37.441 16.1655C38.3287 16.1655 38.8585 16.6137 38.8442 17.3366C38.8299 18.0595 38.3144 18.4787 37.4124 18.4787C35.365 18.4932 33.3175 18.4932 31.2844 18.4932C31.2558 18.4787 31.2272 18.4643 31.1842 18.4643C30.7117 17.886 30.2822 17.2932 29.9243 16.6426C29.9243 16.5559 29.9672 16.498 30.0245 16.4691Z" fill="#C70A50"/>
<path d="M32.4298 20.7919C34.1622 20.7775 35.8946 20.763 37.6128 20.7775C38.3716 20.7775 38.8727 21.2835 38.8441 21.963C38.8298 22.6136 38.343 23.0618 37.6128 23.0762C36.0665 23.0907 34.5345 23.0907 32.9882 23.1051C32.9022 23.1341 32.8307 23.1196 32.7734 23.0473C32.6732 22.2955 32.2007 21.6016 32.4298 20.7919Z" fill="#C70A50"/>
<path d="M31.2849 32.3001C32.5878 32.3001 33.8907 32.3001 35.1936 32.3146C36.0813 32.3146 36.5967 32.7628 36.5681 33.5001C36.5538 34.1941 36.0527 34.6278 35.1936 34.6278C33.3752 34.6278 31.5426 34.6134 29.7242 34.6134C29.6383 34.3387 29.8101 34.1507 29.9676 33.9917C30.4401 33.4857 30.7122 32.8495 31.199 32.358C31.2133 32.3146 31.2419 32.3146 31.2849 32.3001Z" fill="#009FC7"/>
<path d="M33.1458 25.4184C34.6348 25.4039 36.1239 25.3895 37.6272 25.4039C38.3861 25.4039 38.8872 25.91 38.8586 26.5895C38.8443 27.24 38.3574 27.7027 37.6272 27.7027C36.0953 27.7172 34.5489 27.6882 33.0026 27.6882C32.6876 26.8931 32.8738 26.1557 33.1458 25.4184Z" fill="#C70A50"/>
<path d="M43.3968 16.1655C43.7977 16.1655 44.1986 16.1366 44.5995 16.1655C45.2581 16.2089 45.7163 16.7293 45.702 17.3366C45.6877 17.9293 45.2295 18.4209 44.6138 18.4498C43.8121 18.4787 42.9959 18.4787 42.1942 18.4498C41.5785 18.4209 41.1346 17.9004 41.1346 17.3076C41.1346 16.7149 41.5785 16.2089 42.1942 16.1655C42.5951 16.1366 42.9959 16.1655 43.3968 16.1655Z" fill="#F8B300"/>
<path d="M30.1965 32.3002C30.9983 30.8544 31.4994 29.3075 31.8574 27.6882C32.201 27.4424 32.5446 27.4135 32.8596 27.7171C32.7594 29.3942 32.0865 30.8689 31.2847 32.3002L31.299 32.3291C30.9124 32.5026 30.5545 32.6327 30.1965 32.3002Z" fill="#01153C"/>
<path d="M30.0243 16.4691C30.0099 16.5125 30.0099 16.5559 29.9956 16.5993C29.8954 16.9462 29.9956 17.3511 29.695 17.6402C28.6354 16.1945 27.3898 14.9366 25.9724 13.8812C26.2587 13.5921 26.5594 13.7367 26.8601 13.8379C26.9603 13.8523 27.0605 13.8668 27.1464 13.8812C28.2059 14.6186 29.0363 15.6306 30.0243 16.4691Z" fill="#02153C"/>
<path d="M31.27 20.792C30.8691 19.9534 30.4682 19.1149 30.0673 18.2763C30.5112 18.0884 30.8977 18.2763 31.2986 18.4354V18.4788C31.7711 19.1727 32.1291 19.9101 32.3009 20.7486C31.9573 21.0522 31.6136 21.0088 31.27 20.792Z" fill="#01153C"/>
<path d="M32.8592 27.7172C32.5299 27.7027 32.1863 27.7027 31.857 27.6883C31.9143 26.922 31.9715 26.1558 32.0288 25.375C32.4011 25.1003 32.7733 25.1148 33.1599 25.3461V25.404C33.2601 26.1702 32.9881 26.9075 33.0167 27.6593C32.9595 27.6883 32.9022 27.7027 32.8592 27.7172Z" fill="#A00028"/>
<path d="M33.1454 25.3605C32.7732 25.375 32.4009 25.375 32.0143 25.3895C31.9571 24.6232 31.8998 23.8569 31.8425 23.0907C32.1718 22.816 32.5155 22.8449 32.8591 23.0618C32.902 23.0762 32.945 23.0907 32.9879 23.1052C32.9879 23.857 33.2313 24.5943 33.1454 25.3605Z" fill="#00143C"/>
<path d="M27.1464 36.9121C27.0462 36.9266 26.9603 36.9411 26.8601 36.9555C26.5594 37.0133 26.2587 37.2158 25.9724 36.9121C26.8887 36.2037 27.7621 35.4375 28.5639 34.6134C28.9075 34.4544 29.2368 34.3242 29.5661 34.6568C28.8932 35.5387 27.9625 36.1603 27.1464 36.9121Z" fill="#02153C"/>
<path d="M32.8596 23.0474C32.5159 23.0618 32.1866 23.0618 31.843 23.0763C31.6426 22.31 31.4564 21.5438 31.256 20.7775C31.5996 20.7631 31.9289 20.7486 32.2725 20.7486C32.3155 20.7631 32.3728 20.7775 32.4157 20.792C32.5303 21.5582 32.9312 22.2667 32.8596 23.0474Z" fill="#A00128"/>
<path d="M29.566 34.6423C29.2367 34.6278 28.9073 34.6134 28.5637 34.5989C29.1078 33.8327 29.6519 33.0664 30.1816 32.3002C30.5539 32.3146 30.9118 32.3146 31.2841 32.3291C30.8689 33.1532 30.2246 33.8327 29.7235 34.5989C29.6662 34.6134 29.6089 34.6278 29.566 34.6423Z" fill="#0182A9"/>
<path d="M25.1132 12.6957C25.1275 12.7391 25.1418 12.7969 25.1561 12.8403C25.242 13.0572 25.4854 13.2306 25.3279 13.5053C23.8819 12.609 22.2926 12.103 20.6461 11.6981C22.0062 11.6114 23.2519 12.074 24.4975 12.5222C24.7123 12.5945 24.8984 12.7246 25.1132 12.6957Z" fill="#05193C"/>
<path d="M20.6461 39.0808C22.2926 38.6904 23.8675 38.141 25.3279 37.3025C25.4854 37.5772 25.2277 37.7362 25.1561 37.9531L25.1275 37.9386C23.7244 38.647 22.2353 39.0663 20.6461 39.0808Z" fill="#061A3C"/>
<path d="M29.7091 25.4183C29.6948 31.7797 24.5548 36.941 18.2264 36.9266C11.9266 36.9121 6.82946 31.7074 6.84378 25.3171C6.8581 18.9558 12.0125 13.8234 18.3552 13.8523C24.6264 13.8667 29.7235 19.057 29.7091 25.4183Z" fill="#009FC7"/>
<path d="M31.2846 18.4353C30.855 18.5221 30.4542 18.4353 30.0533 18.2763C29.9387 18.0595 29.8099 17.8426 29.6953 17.6257C29.7383 17.2643 29.6237 16.8595 29.996 16.5848C30.4828 17.1631 30.9123 17.7848 31.2846 18.4353Z" fill="#9F0129"/>
<path d="M25.3281 13.5054C25.2708 13.2885 25.2135 13.0572 25.1562 12.8403C25.7146 13.1873 26.3733 13.3463 26.8457 13.8234C26.5451 13.8379 26.2587 13.8524 25.958 13.8668C25.7576 13.7512 25.5428 13.621 25.3281 13.5054Z" fill="#9D032A"/>
<path d="M25.1559 37.9386C25.1129 37.6929 25.2847 37.5049 25.3277 37.288C25.5425 37.1579 25.7572 37.0278 25.9577 36.8977C26.2583 36.9121 26.5447 36.9266 26.8454 36.9411C26.3586 37.4037 25.7286 37.6061 25.1559 37.9386Z" fill="#0380A6"/>
<path d="M22.8795 23.0907C22.8795 23.4666 22.8795 23.8569 22.8795 24.2328C23.1802 24.9991 23.1802 25.7798 22.8795 26.546C22.8795 26.9219 22.8795 27.3123 22.8795 27.6882C23.1802 28.599 23.2518 29.4809 22.5788 30.2761C21.8773 31.505 20.9037 32.3001 19.4289 32.2857C19.1712 32.011 19.1999 31.664 19.1999 31.3315C19.1999 28.1219 19.1999 24.8979 19.1999 21.6883C19.1999 21.3847 19.1855 21.0666 19.3574 20.7775C19.7582 20.4739 20.1591 20.4739 20.5744 20.7341C20.7605 20.7485 20.9466 20.763 21.1184 20.7775C22.0777 20.8642 22.6218 21.457 22.9081 22.3244C23.0084 22.5847 23.0513 22.8449 22.8795 23.0907Z" fill="#C70A50"/>
<path d="M13.6883 24.2329C13.6883 23.857 13.6883 23.4666 13.6883 23.0907C13.4592 22.2522 14.0605 21.1823 14.9053 20.9076C15.0914 20.8498 15.2775 20.8787 15.4493 20.7919C15.6355 20.7775 15.8216 20.763 15.9934 20.7486C16.4086 20.4883 16.8095 20.4883 17.1961 20.7775C17.3966 21.0811 17.3679 21.4281 17.3679 21.7606C17.3679 24.9268 17.3679 28.093 17.3679 31.2737C17.3679 31.6207 17.4252 31.9966 17.1388 32.3002C15.6641 32.3146 14.6905 31.5195 13.9889 30.2906C13.3303 29.4954 13.3876 28.6135 13.6883 27.7027C13.6883 27.3268 13.6883 26.9364 13.6883 26.5605C13.3876 25.7798 13.3876 24.9991 13.6883 24.2329Z" fill="#C70A50"/>
<path d="M17.1388 32.2857C17.1388 28.4544 17.1388 24.6232 17.1388 20.7919C17.8976 20.4015 18.6708 20.4015 19.4296 20.7919C19.4296 24.6232 19.4296 28.4544 19.4296 32.2857C18.6708 32.2857 17.8976 32.2857 17.1388 32.2857Z" fill="#9F0028"/>
<path d="M15.4492 20.792C14.404 21.1968 13.7741 21.9197 13.6881 23.0763C13.3875 23.0763 13.1298 22.9606 12.915 22.7582C12.1275 21.9775 11.34 21.2113 10.5955 20.4161C10.1374 19.9245 10.1803 19.2306 10.6242 18.7968C11.068 18.3487 11.7123 18.3487 12.2277 18.7968C12.5857 19.1149 12.9436 19.4474 13.23 19.8233C13.817 20.5462 14.5043 20.9366 15.4492 20.792Z" fill="#0A5078"/>
<path d="M22.8795 23.0907C22.7936 21.9341 22.1636 21.2112 21.1184 20.8064C22.092 20.951 22.7936 20.5173 23.3806 19.7799C23.6956 19.3896 24.0535 19.0281 24.4544 18.7245C24.9556 18.3342 25.4853 18.3776 25.9435 18.8113C26.373 19.2306 26.4875 19.8089 26.0866 20.2426C25.2705 21.1679 24.3685 22.0353 23.4808 22.9028C23.3233 23.0329 23.1086 23.1052 22.8795 23.0907Z" fill="#0A5078"/>
<path d="M13.6878 27.6882C13.7307 28.5557 13.6305 29.4521 13.9884 30.2762C13.4444 30.8111 12.9003 31.3316 12.3562 31.8665C11.7692 32.4303 11.0819 32.4592 10.5951 31.9532C10.137 31.4617 10.1656 30.7966 10.7097 30.2328C11.3969 29.5099 12.1128 28.8159 12.8144 28.1075C13.0578 27.8617 13.3298 27.7027 13.6878 27.6882Z" fill="#0A5078"/>
<path d="M22.5793 30.2905C22.9373 29.452 22.8371 28.5701 22.88 27.7026C23.1521 27.6882 23.4098 27.7894 23.5959 27.9773C24.412 28.7725 25.2281 29.5677 26.0013 30.4062C26.4451 30.8833 26.3735 31.5917 25.9297 32.011C25.4715 32.4303 24.8272 32.4303 24.3261 31.9676C23.7248 31.4182 23.1521 30.8399 22.5793 30.2905Z" fill="#0A5078"/>
<path d="M19.4297 20.7919C18.6708 20.7919 17.8977 20.7919 17.1388 20.7919C16.7522 20.7775 16.38 20.763 15.9934 20.7486C16.1223 19.3896 17.01 18.4787 18.2413 18.4643C19.5156 18.4498 20.4319 19.3606 20.5608 20.7486C20.1885 20.763 19.8162 20.7775 19.4297 20.7919Z" fill="#0A5078"/>
<path d="M13.6878 24.2328C13.6878 24.9991 13.6878 25.7798 13.6878 26.546C12.9576 26.546 12.2131 26.5605 11.4829 26.5316C10.7527 26.5171 10.2945 26.04 10.2945 25.375C10.2945 24.7099 10.767 24.2473 11.4829 24.2184C12.2131 24.2184 12.9576 24.2328 13.6878 24.2328Z" fill="#0A5078"/>
<path d="M22.8798 26.5461C22.8798 25.7798 22.8798 24.9991 22.8798 24.2329C23.61 24.2329 24.3545 24.2184 25.0847 24.2473C25.8149 24.2618 26.2731 24.7389 26.2731 25.4039C26.2731 26.069 25.8006 26.5316 25.0847 26.5605C24.3545 26.5605 23.61 26.5461 22.8798 26.5461Z" fill="#0A5078"/>
</svg>
