<svg width="65" height="61" viewBox="0 0 65 61" fill="none" xmlns="http://www.w3.org/2000/svg">
<path d="M64.6926 46.9556C64.5659 47.5002 64.4139 48.0447 64.3253 48.5893C64.2367 49.1592 63.9454 49.3744 63.3882 49.3618C62.7043 49.3491 62.0078 49.2731 61.3239 49.5137C59.7663 50.0583 58.8924 51.6286 59.3103 53.2243C59.3863 53.5282 59.5003 53.8322 59.6269 54.1108C60.2475 55.4912 60.2601 55.4912 59.0697 56.4156C58.7405 56.6689 58.3732 56.8842 58.006 57.0868C57.5247 57.3528 57.1828 57.1248 56.8789 56.7196C56.2203 55.8584 55.3972 55.2759 54.2701 55.1492C52.5224 54.9593 51.256 56.5296 50.9268 57.91C50.8128 58.3659 50.7368 58.8598 50.1416 58.8978C49.7743 58.9104 49.3944 58.8218 49.0272 58.7585C48.7359 58.7078 48.4573 58.6318 48.166 58.5812C47.3429 58.4166 47.2036 58.1633 47.3175 57.3021C47.5075 55.9724 46.9629 54.3134 45.5952 53.6929C44.4555 53.1736 43.3664 53.4269 42.3406 53.9841C41.3274 54.5287 41.3401 54.5667 40.6563 53.6802C40.365 53.3003 40.099 52.895 39.8331 52.4898C39.4152 51.8566 39.4658 51.5147 40.0864 51.0588C41.0615 50.3369 41.5301 49.3491 41.6567 48.1714C41.6694 48.108 41.5934 48.0321 41.5554 47.9561C41.4921 47.8928 41.4414 47.8294 41.4288 47.7408C41.1502 46.2971 40.1244 45.6386 38.8326 45.2333C38.5414 45.1447 38.2121 45.1447 37.9715 44.904C37.5409 43.777 37.9588 42.7258 38.3007 41.6747C38.4274 41.2695 38.858 41.2062 39.2505 41.2062C39.9851 41.1935 40.7196 41.2695 41.4161 40.9909C42.7585 40.421 43.303 39.3952 43.1637 37.9642C43.1511 37.293 42.8345 36.7231 42.5559 36.1406C42.2139 35.444 42.2772 35.1654 42.8725 34.6715C43.341 34.2789 43.8223 33.9117 44.3541 33.6204C44.6961 33.4305 45.038 33.3165 45.4306 33.5191C45.5826 33.5951 45.5066 33.1645 45.7725 33.2911C46.3171 34.7855 47.2542 35.4314 48.7866 35.3934C49.711 35.368 50.3696 34.8742 50.8761 34.165C51.256 33.6457 51.4333 33.0379 51.636 32.4427C51.7879 31.9994 52.0665 31.7208 52.5604 31.7461C53.0417 31.7715 53.143 31.5055 53.1683 31.0749C53.1936 30.5431 52.991 29.9858 53.3456 29.4919C53.5736 30.1251 53.4216 30.771 53.4469 31.4169C53.4596 31.7968 53.4849 32.0754 53.9788 32.0501C54.1814 32.0374 54.384 32.1387 54.5867 32.1767C55.1439 32.2907 55.4098 32.582 55.3592 33.1898C55.2832 34.1143 55.2832 35.0388 55.7644 35.8873C56.5369 37.2423 58.1706 37.6982 59.7789 37.0144C60.0449 36.9004 60.3108 36.7484 60.5641 36.6091C61.1466 36.2799 61.4632 36.3305 61.8432 36.8751C62.1471 37.293 62.4384 37.7362 62.717 38.1795C63.2235 39.0026 63.2109 39.0279 62.5143 39.7245C62.1598 40.0791 61.7545 40.3957 61.5012 40.8389C60.3741 42.8018 61.1973 44.8534 63.4135 45.5752C63.8694 45.7272 64.338 45.8285 64.6926 46.1958C64.6926 46.4491 64.6926 46.7023 64.6926 46.9556Z" fill="#C4CBD2"/>
<path d="M38.0225 44.9168C39.3396 45.0688 40.4793 45.55 41.2392 46.7024C41.4798 47.0697 41.6191 47.4876 41.5684 47.9562C39.8208 49.1719 37.8452 49.8811 35.781 50.337C35.3884 50.4256 35.2618 50.5776 35.2744 50.9575C35.2997 51.6667 35.2744 52.3886 35.2744 53.0977C35.2744 53.5663 35.0591 53.7943 34.5779 53.7943C32.8936 53.7943 31.2093 53.7816 29.525 53.7943C28.9931 53.7943 28.8284 53.4903 28.8158 53.0344C28.8031 52.3632 28.7904 51.692 28.8158 51.0208C28.8284 50.6283 28.7271 50.4256 28.2965 50.337C26.0803 49.8684 24.0161 48.9946 22.1292 47.7282C21.9392 47.6016 21.7366 47.3609 21.4706 47.6016C21.1794 47.4876 21.1794 47.209 21.1287 46.9684C20.4069 44.0936 18.7099 41.9534 16.2024 40.4211C15.9618 40.2691 15.6452 40.1931 15.5439 39.8765C15.088 38.5975 14.5814 37.3184 14.3788 35.9633C14.3281 35.6467 14.1255 35.5834 13.8342 35.5834C13.0744 35.5961 12.3146 35.5834 11.5674 35.5961C11.0355 35.6087 10.7696 35.3301 10.7696 34.8362C10.7569 33.1519 10.7569 31.4676 10.7696 29.7833C10.7696 29.2641 11.1115 29.0488 11.6054 29.0488C12.3652 29.0488 13.1251 29.0361 13.8722 29.0488C14.2142 29.0614 14.4168 28.9728 14.4928 28.6055C14.974 26.364 15.8478 24.2871 17.1396 22.3875C17.3168 22.1216 17.2662 21.9569 17.0509 21.7417C16.4684 21.1844 15.9111 20.6146 15.3539 20.0447C14.8854 19.5634 14.8727 19.2722 15.3286 18.8163C16.4557 17.6765 17.5828 16.5494 18.7099 15.4096C19.1151 14.9917 19.4951 14.9917 19.9003 15.4096C20.4702 15.9922 21.0654 16.5621 21.6353 17.1573C21.8632 17.3979 22.0532 17.4359 22.3445 17.2459C24.1807 16.0175 26.1943 15.1944 28.3599 14.7511C28.7018 14.6751 28.8538 14.5232 28.8411 14.1559C28.8158 13.3581 28.8284 12.5602 28.8411 11.7624C28.8538 11.0406 29.0564 10.8379 29.7909 10.8379C31.3486 10.8379 32.9063 10.8506 34.4639 10.8253C35.0591 10.8126 35.2997 11.0532 35.2871 11.6484C35.2618 12.4716 35.2997 13.2948 35.2744 14.1053C35.2618 14.4852 35.3884 14.6751 35.781 14.7511C37.8199 15.1564 39.7448 15.8909 41.4671 17.0433C42.075 17.4485 42.4296 17.3726 42.8728 16.8407C43.2907 16.3341 43.7846 15.9035 44.2405 15.4476C44.7218 14.9791 45.013 14.9664 45.469 15.435C46.5834 16.5494 47.6978 17.6638 48.8123 18.7909C49.3061 19.2975 49.3061 19.5634 48.7996 20.07C48.255 20.6272 47.7105 21.1844 47.1533 21.7163C46.9126 21.9443 46.862 22.1216 47.052 22.4128C48.3057 24.2998 49.1922 26.3514 49.6607 28.5802C49.7367 28.9221 49.9014 29.0614 50.2686 29.0488C51.0285 29.0235 51.7883 29.0361 52.5355 29.0488C52.8901 29.0488 53.2193 29.0994 53.3333 29.5174C53.3333 30.1506 53.2953 30.7711 53.3206 31.4043C53.3333 31.8222 53.194 31.9995 52.7888 31.9235C52.1049 31.7969 51.8643 32.1768 51.7123 32.7467C51.4464 33.7091 51.0411 34.583 50.142 35.1528C49.1162 35.8114 47.7358 35.748 46.7354 35.0135C46.1401 34.583 45.5829 34.1524 45.7222 33.3039C45.5196 33.1013 45.5829 32.8353 45.5703 32.582C45.4943 29.3527 44.5571 26.4273 42.4929 23.9072C40.2261 21.1338 37.2753 19.5381 33.7421 19.0316C32.6783 18.9176 31.6019 18.9429 30.5381 19.0062C27.0935 19.4495 24.1934 20.9565 21.9266 23.5779C20.3942 25.3382 19.3937 27.3898 18.8998 29.682C18.2793 32.5947 18.6339 35.4188 19.7863 38.1415C20.2929 39.2686 20.8881 40.3324 21.7366 41.2316C24.0414 44.005 26.9922 45.588 30.5761 46.0439C32.9442 46.3478 35.1731 45.8919 37.3513 45.0688C37.5793 44.9801 37.7819 44.8408 38.0225 44.9168Z" fill="#9DA6AE"/>
<path d="M33.8432 2.9862C33.8432 2.20103 33.8558 1.42853 33.8432 0.643357C33.8432 0.149461 34.0711 -0.0278353 34.5524 0.0228207C44.2277 0.909302 52.016 5.24039 57.8668 12.9781C61.3621 17.5878 63.3377 22.8307 64.0468 28.5675C64.0975 28.9854 64.1228 29.4033 64.1608 29.8212C64.2115 30.3278 63.9962 30.5558 63.477 30.5558C61.9826 30.5431 60.4883 30.5304 58.9939 30.5684C58.424 30.5811 58.1961 30.3405 58.1454 29.8086C58.0441 28.5548 57.8162 27.3138 57.5249 26.0854C56.727 22.7801 55.334 19.7407 53.3584 16.9673C50.737 13.2947 47.3937 10.4706 43.3285 8.52037C40.7704 7.29196 38.0856 6.49413 35.2615 6.1522C35.2236 6.1522 35.1729 6.1522 35.1349 6.13954C33.8432 6.0129 33.8432 6.0129 33.8432 4.69584C33.8432 4.12596 33.8432 3.55608 33.8432 2.9862Z" fill="#EE5050"/>
<path d="M15.5437 39.8638C17.8485 41.0416 19.5962 42.7639 20.6853 45.1321C21.0525 45.9172 21.2298 46.7657 21.4831 47.5889C21.6604 49.0959 21.673 50.5903 21.2805 52.0846C20.166 56.3144 16.8354 59.3031 12.5043 59.9236C9.74355 59.5311 7.64132 58.062 5.95701 55.9091C4.48798 54.0349 3.79146 51.844 3.80413 49.5012C3.82945 44.6635 6.86882 40.5984 11.3899 39.2053C11.7571 39.0913 12.137 39.104 12.5043 39.0154C13.5681 39.1167 14.5559 39.4966 15.5437 39.8638Z" fill="#FEC402"/>
<path d="M12.5044 39.028C11.2127 39.4459 9.90826 39.8385 8.75584 40.611C6.10906 42.4093 4.48807 44.8788 4.08282 48.0448C3.69023 51.0462 4.42475 53.8069 6.40033 56.2004C7.89469 58.0114 9.78162 59.1765 12.0485 59.7463C12.2131 59.7843 12.3651 59.8603 12.5171 59.9236C8.22395 60.3795 4.77934 58.8472 2.4365 55.2633C-0.0329877 51.4767 -0.0329877 47.4623 2.4365 43.6757C4.76667 40.1045 8.21129 38.5594 12.5044 39.028Z" fill="#E4B002"/>
<path d="M30.31 2.4797C30.3226 3.4295 30.31 4.36664 30.3353 5.31644C30.348 5.78501 30.158 6.0003 29.6894 6.05095C27.2833 6.30423 24.9278 6.82346 22.6609 7.70994C20.1155 8.7104 17.7853 10.0528 15.6704 11.7751C14.8219 12.4589 14.8219 12.4589 14.0367 11.6611C13.4795 11.0912 12.9223 10.5214 12.3777 9.93881C12.745 9.20429 13.4795 8.8497 14.0874 8.40646C18.7604 5.02517 23.9653 2.98626 29.7148 2.36573C29.9301 2.3404 30.1453 2.31507 30.31 2.4797Z" fill="#F6921E"/>
<path d="M30.31 2.47968C28.1445 2.6823 26.0169 3.10022 23.9147 3.70809C20.3561 4.74654 17.1141 6.44352 14.1001 8.57107C13.5049 8.98898 12.9477 9.47022 12.3778 9.92612C11.9599 9.52087 11.542 9.10296 11.1114 8.69771C10.7315 8.34312 10.7821 8.02652 11.1747 7.69725C14.6826 4.73387 18.6211 2.55566 23.0282 1.23861C25.1684 0.605407 27.3466 0.200158 29.5755 0.0101981C30.1327 -0.0404579 30.3607 0.136838 30.348 0.694055C30.3227 1.30193 30.3227 1.88447 30.31 2.47968Z" fill="#DD841B"/>
<path d="M9.73054 12.3322C10.4651 13.0541 11.1996 13.7759 11.9341 14.4978C12.2254 14.7891 12.238 15.0803 11.9847 15.3969C10.845 16.7773 9.85718 18.2717 8.99603 19.842C8.81873 20.1713 8.55279 20.2726 8.1982 20.108C7.22307 19.6774 6.24794 19.2341 5.27281 18.8036C6.4379 16.7013 7.71696 14.6751 9.26197 12.8388C9.41394 12.6488 9.51526 12.4336 9.73054 12.3322Z" fill="#88C847"/>
<path d="M4.17173 22.1976C5.02022 22.5522 5.86871 22.9194 6.7172 23.274C7.1731 23.464 7.28708 23.7552 7.14777 24.2238C6.59056 26.0221 6.17264 27.8584 6.03334 29.758C5.99535 30.3279 5.74207 30.6191 5.10887 30.5685C4.37435 30.5052 3.63984 30.5432 2.90533 30.5432C2.51274 30.3152 2.58873 29.9226 2.60139 29.5807C2.72803 27.6051 3.06996 25.6548 3.61451 23.7426C3.76648 23.2107 3.81714 22.6408 4.17173 22.1976Z" fill="#D4E862"/>
<path d="M4.17142 22.1975C4.1081 22.97 3.77884 23.6919 3.6142 24.439C3.19629 26.1993 2.86703 27.985 2.79104 29.7959C2.77838 30.0492 2.77838 30.3025 2.91768 30.5304C2.15784 30.5304 1.398 30.5304 0.638161 30.5431C0.144265 30.5558 -0.0330312 30.2898 0.00496084 29.8212C0.245577 27.0985 0.764802 24.439 1.63862 21.8429C1.79059 21.387 2.0692 21.2477 2.49977 21.4377C3.06965 21.6909 3.6142 21.9442 4.17142 22.1975Z" fill="#BED058"/>
<path d="M9.73108 12.3322C9.31317 13.2567 8.55333 13.9279 7.98345 14.7384C7.17295 15.9035 6.42577 17.1066 5.71659 18.335C5.60261 18.5249 5.55196 18.7782 5.27335 18.8035C4.79211 18.6009 4.29822 18.4236 3.82965 18.2083C3.41174 18.031 3.36108 17.7271 3.56371 17.3472C4.72879 15.1563 6.09651 13.1047 7.70484 11.2178C7.99611 10.8759 8.28738 10.8505 8.60398 11.1671C8.9839 11.5344 9.36382 11.9396 9.73108 12.3322Z" fill="#7BB440"/>
<path d="M57.778 45.3726C57.816 49.1718 54.65 51.9073 51.256 51.9199C47.5075 51.9326 44.7974 48.7792 44.8227 45.322C44.848 41.7887 47.7987 38.8127 51.4207 38.8253C54.9792 38.838 57.854 41.8647 57.778 45.3726Z" fill="#FEC402"/>
<path d="M41.5681 41.1302C41.5681 40.801 41.2768 40.763 41.0742 40.6363C39.8204 39.8385 38.4527 39.2433 37.275 38.3315C37.2496 38.1922 37.313 38.0782 37.3889 37.9896C38.0475 37.3057 38.554 36.5332 38.9593 35.6847C39.0226 35.5581 39.0986 35.4314 39.2759 35.4188C39.4152 35.8873 39.8711 35.9633 40.213 36.1659C41.2515 36.7865 42.2899 37.369 43.341 37.9642C43.493 39.4459 42.9231 40.5097 41.5681 41.1302Z" fill="#E5E8EC"/>
<path d="M19.7105 38.2301C20.8376 37.8249 21.7747 37.065 22.8258 36.5205C23.5223 36.1532 24.1935 35.7227 24.8647 35.3174C24.9534 35.3301 25.042 35.3681 25.0673 35.4441C25.4979 36.4065 26.0931 37.2423 26.777 38.0402C26.815 38.0908 26.8023 38.1542 26.7897 38.2175C25.0167 39.1926 23.2437 40.1424 21.5721 41.2822C20.7742 40.383 20.1284 39.3826 19.7105 38.2301Z" fill="#E5E8EC"/>
<path d="M30.5886 24.857C30.5886 23.084 30.5886 21.3111 30.5759 19.5381C30.5759 19.3228 30.6519 19.0695 30.4493 18.8922C31.589 18.7149 32.7288 18.6769 33.8685 18.9176C33.8685 20.9311 33.8685 22.932 33.8685 24.9456C33.8432 24.971 33.8052 25.0216 33.7799 25.0216C32.7921 25.0216 31.7916 24.895 30.8039 24.971C30.7152 24.9836 30.6392 24.9203 30.5886 24.857Z" fill="#E5E8EC"/>
<path d="M10.3642 52.7685C11.0354 52.7685 11.7066 52.7685 12.3905 52.7685C13.3783 52.7685 13.9102 52.3379 13.9102 51.5654C13.9228 50.7676 13.3909 50.3497 12.3652 50.3243C11.314 50.299 10.2629 50.4003 9.21182 50.2483C7.60349 50.0331 6.42574 48.678 6.46373 47.0823C6.50172 45.4993 7.78079 44.1063 9.37645 44.0683C10.149 44.0556 10.2756 43.7897 10.2376 43.1312C10.187 42.3713 10.5415 41.9534 11.1241 41.9154C11.6813 41.8901 12.0992 42.384 12.1245 43.1312C12.1625 44.0303 12.1625 44.0303 13.0997 44.0303C14.0875 44.0303 14.5307 44.3216 14.5434 44.9548C14.556 45.6133 14.1001 45.9172 13.0743 45.9172C11.9599 45.9172 10.8455 45.9046 9.73105 45.9172C9.02186 45.9299 8.57862 46.2718 8.42665 46.8797C8.27468 47.4496 8.50264 47.8675 8.95854 48.1841C9.26248 48.3867 9.62973 48.4121 9.98433 48.4121C10.9468 48.4121 11.9219 48.3994 12.8844 48.4247C14.556 48.488 15.8098 49.8304 15.8098 51.5274C15.8098 53.1864 14.4927 54.5794 12.8591 54.6174C12.3398 54.6301 12.0739 54.6934 12.0866 55.3266C12.0992 55.9851 11.656 56.3271 11.0861 56.2891C10.5415 56.2637 10.1996 55.9218 10.2376 55.2633C10.2629 54.6934 10.035 54.5921 9.54109 54.6301C9.05985 54.6681 8.57862 54.6428 8.08472 54.6301C7.43886 54.6174 7.00828 54.2502 6.99562 53.7309C6.98295 53.1737 7.41353 52.7685 8.08472 52.7432C8.84457 52.7558 9.60441 52.7685 10.3642 52.7685Z" fill="#775436"/>
<path d="M30.5886 24.8569C31.6903 24.7302 32.7794 24.7176 33.8812 24.9455C36.7053 25.7687 38.6175 27.529 39.4914 30.3657C40.0233 32.0754 39.8333 33.7597 39.2887 35.4187C38.7948 36.5078 38.1237 37.4829 37.2752 38.3314C35.6162 39.6991 33.7546 40.4083 31.5764 40.2817C29.7274 40.1677 28.1824 39.4078 26.8147 38.2301C25.9915 37.3816 25.3457 36.4191 24.8898 35.33C23.9906 32.6199 24.2946 30.0745 26.0295 27.7696C27.0173 26.4526 28.3217 25.5661 29.892 25.0848C30.1073 25.0089 30.348 24.9329 30.5886 24.8569Z" fill="#FEC402"/>
<path d="M54.5869 45.3601C54.5743 47.1963 53.0673 48.716 51.2563 48.6907C49.496 48.678 48.0397 47.1837 48.027 45.3981C48.0143 43.6251 49.534 42.0801 51.2943 42.0674C53.0926 42.0421 54.5996 43.5491 54.5869 45.3601Z" fill="#FEFEFE"/>
<path d="M35.7683 32.5314C35.7556 34.9502 36.0089 34.5576 33.8813 35.7987C31.9944 36.9005 32.2477 36.9638 30.2594 35.7861C28.1825 34.5576 28.3852 34.9629 28.3978 32.5061C28.3978 30.2139 28.1445 30.5178 30.2594 29.2768C32.273 28.1117 31.8931 28.1117 33.9193 29.2894C36.0089 30.5052 35.7683 30.1632 35.7683 32.5314Z" fill="#C4CBD2"/>
</svg>
