<svg width="60" height="61" viewBox="0 0 60 61" fill="none" xmlns="http://www.w3.org/2000/svg">
<path d="M0 31.4196C0.211388 30.7153 0.387544 30.011 0.786832 29.3772C1.24484 28.6612 1.85552 28.0977 2.57189 27.6517C3.0064 27.1 3.65231 27.0061 4.27473 26.9004C5.07331 26.7596 5.88363 26.6774 6.67046 26.9474C6.88185 27.1704 6.85836 27.4521 6.85836 27.7221C6.85836 33.5442 6.8701 39.3663 6.85836 45.1884C6.85836 45.9749 6.81139 46.0101 6.02455 45.9984C5.6605 45.9984 5.2847 46.0453 4.92064 45.9631C2.4427 45.7871 0.62242 44.2259 0.105694 41.8079C0.0939501 41.7374 0.0352313 41.6787 0 41.6083C0 38.216 0 34.8237 0 31.4196Z" fill="#7776CF"/>
<path d="M43.8395 58.253C43.5107 59.1686 42.7826 59.6498 41.937 60.002C39.9406 60.002 37.9559 60.002 35.9594 60.002C35.8537 59.8376 35.6541 59.8494 35.5014 59.7789C34.4092 59.2742 33.7751 58.1004 33.9865 56.9501C34.2213 55.7175 35.2196 54.8489 36.4996 54.8372C38.0028 54.8137 39.506 54.8607 41.0092 54.8137C42.3245 54.7785 43.2641 55.295 43.8278 56.4923C44.2153 57.0205 44.2153 57.7365 43.8395 58.253Z" fill="#7776CF"/>
<path d="M28.0088 49.0855C25.6835 48.7216 23.6166 47.7826 21.8315 46.2566C19.5532 44.3198 18.0853 41.89 17.5568 38.9438C16.8522 35.0467 17.7447 31.5135 20.2696 28.4499C22.2308 26.067 24.791 24.6819 27.7856 24.0598C27.8561 24.0481 27.9383 24.0598 28.0205 24.0598C29.8878 24.4589 31.5789 25.2571 33.0586 26.4427C35.7831 28.6377 37.486 31.4548 37.9088 34.9645C38.402 39.0729 37.0984 42.5591 34.233 45.5171C32.4831 47.313 30.3927 48.4634 28.0088 49.0855Z" fill="#FE8BCB"/>
<path d="M37.9795 1.21745C38.8603 0.865302 39.7176 0.44273 40.6688 0.301872C41.8902 0.337087 42.9236 0.912255 43.8984 1.53438C46.893 3.45943 48.6311 6.18267 49.0304 9.7628C49.5941 14.9041 46.2471 19.6111 41.7962 21.1605C41.4674 21.2779 41.1268 21.3718 40.7745 21.3718C40.1169 21.2779 39.471 21.0784 38.8838 20.7966C38.414 20.5736 38.0265 20.5853 37.5685 20.8084C37.0635 21.0549 36.535 21.2544 36.0183 21.4774C35.7247 21.6066 35.6425 21.5244 35.6542 21.2192C35.666 20.5384 35.6542 19.8576 35.666 19.1768C35.666 18.9068 35.6073 18.6955 35.4076 18.496C31.6614 14.8454 31.1211 8.90592 34.1863 4.58629C34.2098 4.55107 34.2215 4.51586 34.2332 4.48064C34.3389 4.02286 34.6795 3.71767 34.9731 3.389C35.6777 2.61428 36.5233 1.99216 37.4041 1.41699C37.5685 1.29961 37.7799 1.29961 37.9795 1.21745Z" fill="#FED44D"/>
<path d="M37.9793 1.21744C36.5114 2.06258 35.243 3.13075 34.2096 4.4689C33.6576 4.25761 33.0704 4.19892 32.5067 4.18718C31.3911 4.16371 30.2754 3.95242 29.1363 4.0698C27.9619 4.19892 26.7758 4.24587 25.6131 4.4689C23.1235 4.93842 20.7982 5.81878 18.5786 7.02781C16.2651 8.29553 14.2804 9.97408 12.5188 11.9226C10.311 14.3641 8.7256 17.1695 7.72738 20.3154C7.12845 22.2052 6.75264 24.142 6.67044 26.1375C6.88183 26.4427 6.83485 26.7126 6.553 26.9474C5.78966 27.0296 5.01457 26.9004 4.23948 27.053C3.64055 27.1704 3.10033 27.3934 2.56012 27.6399C2.60709 23.919 3.24126 20.2919 4.70923 16.8644C5.87186 14.1294 7.43378 11.6409 9.40674 9.38717C11.8847 6.57002 14.7971 4.33978 18.1676 2.71992C20.8334 1.44046 23.6284 0.618794 26.5644 0.243174C28.1733 0.0436262 29.7939 -0.0620169 31.3911 0.0436262C33.6341 0.196222 35.842 0.536627 37.9793 1.21744Z" fill="#D8DCFE"/>
<path d="M28.0089 49.0855C28.0324 48.8155 28.2908 48.8273 28.4552 48.7803C31.8609 47.8178 34.3858 45.7284 36.1826 42.7117C37.4861 40.5284 38.0498 38.1338 37.8267 35.6219C37.5683 32.6287 36.4409 30.0111 34.3271 27.816C32.6829 26.1257 30.7804 24.9402 28.5021 24.3298C28.326 24.2829 28.1029 24.2711 28.0207 24.0481C30.3224 23.6842 32.5772 23.872 34.7263 24.7759C38.9776 26.56 41.6552 29.7411 42.489 34.2603C43.2758 38.4977 42.1014 42.2891 39.095 45.4349C38.731 45.8223 38.5548 46.1862 38.5783 46.7144C38.6253 47.4187 38.5783 48.123 38.59 48.8155C38.6018 49.1677 38.4844 49.2146 38.179 49.0855C37.4626 48.7686 36.7463 48.4869 36.0299 48.1582C35.7246 48.0173 35.4545 48.0056 35.1374 48.1582C33.0352 49.1559 30.7922 49.3203 28.5139 49.2029C28.3377 49.2029 28.1733 49.1325 28.0089 49.0855Z" fill="#FE78C1"/>
<path d="M6.56494 26.9591C6.6354 26.6892 6.70587 26.4309 6.68238 26.1492C6.97597 25.8088 7.1169 25.3862 7.45747 25.0693C8.25604 24.3298 9.19554 24.1302 10.2407 24.5411C11.0628 24.8697 11.7205 25.8675 11.7205 26.8183C11.7205 33.1569 11.7205 39.5072 11.7205 45.8458C11.7205 47.0313 10.8162 48.0878 9.66529 48.2756C8.42046 48.4751 7.25782 47.8295 6.88202 46.6674C6.72935 46.1979 6.51796 45.9984 6.01298 46.0453C5.66067 46.0688 5.27313 46.1627 4.93256 45.9632C5.22615 45.9632 5.51974 45.9514 5.81334 45.9514C6.69412 45.9514 6.69412 45.9514 6.69412 45.0945C6.69412 43.8268 6.69412 42.5591 6.69412 41.2914C6.69412 36.737 6.69412 32.1709 6.69412 27.6165C6.68238 27.4052 6.76458 27.1469 6.56494 26.9591Z" fill="#E7F2FE"/>
<path d="M52.3657 47.8178C51.4967 48.299 50.5924 48.5455 49.6529 48.0291C48.7604 47.5478 48.2672 46.8083 48.2672 45.7636C48.2672 39.4837 48.2672 33.2038 48.2672 26.9239C48.2672 25.6797 49.0305 24.7172 50.1931 24.3885C51.3558 24.0598 52.5301 24.7524 53.0586 25.7501C53.1291 25.891 53.223 26.0083 53.3052 26.1375C53.6106 26.337 53.4696 26.6539 53.4931 26.9239C53.4814 33.1217 53.5049 39.3194 53.4814 45.5171C53.4579 46.1979 53.3052 46.8318 52.8942 47.3835C52.765 47.583 52.6241 47.7708 52.3657 47.8178Z" fill="#E7F2FE"/>
<path d="M40.7626 21.3601C41.7843 20.9492 42.8413 20.6323 43.7808 20.0337C46.3996 18.3316 48.1377 15.9957 48.7249 12.9203C49.5117 8.78853 48.1847 5.33752 45.0961 2.56733C43.8395 1.44047 42.3011 0.771393 40.6804 0.301868C43.358 -0.308514 45.9181 0.0436293 48.2786 1.42873C52.1658 3.71766 53.9626 7.19214 53.763 11.6996C53.7395 12.263 53.6103 12.8147 53.5281 13.3664C53.4929 14.5519 52.9057 15.538 52.3302 16.5122C52.0601 16.9583 51.8605 17.4982 51.3203 17.7447C49.6527 19.6228 47.6445 20.914 45.1665 21.407C43.6986 21.6887 42.2189 21.7357 40.7626 21.3601Z" fill="#FEC819"/>
<path d="M51.3084 17.7447C52.3419 16.43 53.0582 14.9628 53.5162 13.3664C54.7963 15.5849 55.818 17.909 56.4639 20.3858C56.8867 22.0291 57.2155 23.7077 57.2977 25.4097C57.333 26.0436 57.4387 26.6774 57.4034 27.323C57.2742 27.3934 57.1333 27.3582 57.0041 27.3113C56.0646 26.8887 55.0782 26.8887 54.0799 26.9122C53.8098 26.9239 53.528 26.9474 53.3049 26.7361C53.4693 26.5366 53.3283 26.3488 53.3049 26.1492C53.2344 23.3086 52.4828 20.6206 51.4024 18.0147C51.3671 17.9208 51.3436 17.8269 51.3084 17.7447Z" fill="#D8DCFE"/>
<path d="M52.3653 47.8178C52.929 47.2074 53.3165 46.5266 53.3283 45.6697C54.0564 45.4467 54.7845 45.2119 55.5361 45.611C55.3717 45.7636 55.1603 45.7401 54.9842 45.7049C54.3382 45.5993 54.2091 45.9045 54.2326 46.4914C54.2678 47.7356 54.2443 48.9799 54.2443 50.2241C54.2326 52.7243 53.4222 54.8724 51.461 56.4923C50.181 57.5604 48.7012 58.206 46.9984 58.2295C45.9415 58.2412 44.8963 58.2412 43.8393 58.2412C44.0037 57.6543 43.9685 57.0557 43.8276 56.4688C45.2486 56.4218 46.6696 56.6096 48.0671 56.2575C50.5098 55.6354 52.3653 53.2995 52.3653 50.7993C52.3653 49.8133 52.3653 48.8155 52.3653 47.8178Z" fill="#D8DCFE"/>
<path d="M55.5364 45.611C54.7966 45.6345 54.0685 45.658 53.3286 45.6697C53.3169 45.4115 53.3051 45.165 53.3051 44.9067C53.3051 38.8499 53.3051 32.7813 53.3051 26.7244C54.7026 26.6657 56.1119 26.5953 57.4037 27.3113C59.224 28.4969 60.0343 30.1754 59.9991 32.347C59.9403 35.0585 59.9873 37.7582 59.9873 40.4697C59.9756 43.1226 58.1435 45.2237 55.5364 45.611Z" fill="#7776CF"/>
<path d="M30.0526 35.6453C31.6145 35.6453 33.1765 35.6453 34.7384 35.6453C35.5017 35.6453 35.8775 35.9622 35.8658 36.5844C35.854 37.1713 35.49 37.4882 34.7619 37.4882C31.5793 37.4882 28.4085 37.4882 25.2259 37.4882C24.4978 37.4882 24.1338 37.1713 24.122 36.5726C24.122 35.9505 24.4861 35.6336 25.2612 35.6336C26.8583 35.6453 28.4555 35.6453 30.0526 35.6453Z" fill="#FEFEFE"/>
<path d="M29.9937 32.3704C29.2187 32.3704 28.4318 32.3822 27.6567 32.3704C26.9873 32.3587 26.682 32.0652 26.6937 31.4666C26.7055 30.9501 27.0695 30.598 27.645 30.598C29.2069 30.5862 30.7571 30.598 32.319 30.598C32.9062 30.598 33.2703 30.9384 33.282 31.4549C33.2937 32.0535 32.9884 32.347 32.3308 32.3587C31.5557 32.3822 30.7688 32.3704 29.9937 32.3704Z" fill="#FEFEFE"/>
<path d="M29.9937 40.7749C30.7688 40.7749 31.5557 40.7632 32.3307 40.7749C32.9766 40.7867 33.2702 41.0566 33.282 41.6318C33.2937 42.1835 32.9297 42.5474 32.3073 42.5474C30.7688 42.5591 29.2304 42.5591 27.6802 42.5474C27.0578 42.5474 26.6937 42.1835 26.7055 41.6318C26.7172 41.0449 27.0226 40.7867 27.7154 40.7749C28.467 40.7749 29.2304 40.7749 29.9937 40.7749Z" fill="#FEFEFE"/>
<path d="M42.0659 12.263C42.0659 11.817 42.0541 11.3709 42.0659 10.9131C42.0776 10.2206 42.336 9.93887 43.0289 9.8567C44.0623 9.71585 44.7787 9.12894 44.9666 8.26032C45.1545 7.40344 44.8139 6.54655 44.0858 6.06529C42.7705 5.20841 41.1029 6.04181 40.915 7.66167C40.868 8.08425 40.7741 8.42465 40.363 8.61246C39.7641 8.88244 39.1534 8.45987 39.1299 7.74384C39.036 5.54881 41.279 3.57681 43.4399 3.94069C45.3659 4.26936 46.6459 5.6075 46.8456 7.49734C47.01 9.12894 45.9883 10.7018 44.2737 11.4061C43.9918 11.5235 43.8979 11.6761 43.8979 11.9696C43.9096 12.6152 43.8862 13.2608 43.8509 13.8946C43.8274 14.4346 43.4869 14.7045 42.9701 14.728C42.5004 14.7515 42.1128 14.3407 42.0659 13.8359C42.0659 13.8007 42.0659 13.7538 42.0659 13.7185C42.0659 13.2373 42.0659 12.7443 42.0659 12.263Z" fill="#FEFEFE"/>
<path d="M42.9936 17.8386C42.4888 17.8504 42.1015 17.4747 42.0897 16.97C42.078 16.4653 42.4536 16.0779 42.9466 16.0662C43.4866 16.0544 43.8153 16.3831 43.827 16.923C43.8387 17.4513 43.4866 17.8269 42.9936 17.8386Z" fill="#FEFEFD"/>
</svg>
