<svg width="70" height="61" viewBox="0 0 70 61" fill="none" xmlns="http://www.w3.org/2000/svg">
<path d="M29.5982 56.435C29.2622 56.4498 28.9262 56.4645 28.5755 56.4645C19.8831 56.4645 11.1906 56.4645 2.49817 56.4645C0.920378 56.4645 0 55.5361 0 53.9151C0 52.4268 0 50.9237 0 49.4353C0 48.0206 0.964205 47.0628 2.3813 47.0628C4.2951 47.048 6.22351 47.048 8.13731 47.0333C8.51715 46.7238 8.97003 46.827 9.3937 46.827C15.0621 46.827 20.745 46.8122 26.4134 46.8417C27.5529 46.8565 28.6778 46.8122 29.8173 46.6944C33.0313 46.2817 35.9094 45.0439 38.3637 42.9071C41.6361 40.063 43.5207 36.4969 43.9882 32.1349C44.1781 30.3813 43.9882 28.6719 43.6668 26.9625C43.6084 26.6383 43.4477 26.2994 43.7253 25.9899C44.0467 25.931 44.2804 26.1078 44.5434 26.2404C47.1292 27.6698 49.8757 28.274 52.8122 27.9351C53.0313 27.9056 53.2504 27.8909 53.455 28.0088C53.7618 28.3624 53.791 28.8193 53.8056 29.2466C53.9663 33.4759 53.2358 37.5284 51.4827 41.3746C50.1679 44.2481 48.4148 46.827 46.165 49.0227C42.2351 52.8689 37.5602 55.3298 32.1256 56.2435C31.2929 56.4056 30.4455 56.3466 29.5982 56.435Z" fill="#FE6E90"/>
<path d="M26.5161 47.0333C20.3949 47.0333 14.2736 47.0333 8.1378 47.0333C5.56658 43.7766 3.71122 40.1662 2.90771 36.0548C1.12539 26.8741 3.47747 18.887 9.96394 12.1968C13.0757 8.98426 16.8449 6.83277 21.14 5.63913C21.1546 5.97806 20.8916 6.1549 20.6871 6.36121C20.3072 6.77382 19.8836 7.14223 19.5183 7.56958C18.6126 8.61586 18.6272 9.75055 19.4745 10.8116C20.4241 12.0199 21.6659 12.9631 22.5863 14.2009C22.747 14.4072 22.9661 14.584 22.9369 14.8935C22.747 15.2619 22.3525 15.3061 22.0311 15.4387C16.5235 17.8408 13.1049 21.9816 12.0823 27.9646C11.2495 32.8423 12.5205 37.2337 15.6615 41.0356C18.335 44.2629 21.7828 46.1491 25.9318 46.7091C26.1655 46.7533 26.4577 46.6649 26.5161 47.0333Z" fill="#00D1D1"/>
<path d="M53.4842 28.0972C51.1905 28.3772 48.9407 28.2151 46.7493 27.4783C45.6682 27.1099 44.704 26.5057 43.6668 26.0489C43.0094 25.872 42.5419 25.3857 42.0598 24.9584C39.6639 22.8511 38.1299 20.2133 37.4141 17.1039C36.6982 13.6409 37.1803 10.3695 38.8458 7.26011C39.2256 6.77381 39.4009 6.12542 39.9561 5.78649C41.6507 3.64973 43.6814 1.96979 46.2526 0.967727C54.6821 -2.36267 64.1342 3.28132 65.1423 12.3589C65.8143 18.386 63.433 23.0279 58.3928 26.2994C58.2467 26.3878 58.1153 26.4909 57.9692 26.5794C57.8961 26.7415 57.7939 26.8741 57.6332 26.9478C56.4644 27.5077 55.2519 27.9793 53.9663 28.1856C53.8056 28.2003 53.6449 28.2151 53.4842 28.0972Z" fill="#00D1D1"/>
<path d="M39.0507 7.21588C37.3999 10.4137 36.9178 13.7735 37.619 17.3102C37.3269 17.3986 37.1077 17.2071 36.8886 17.0597C35.5299 16.1608 34.069 15.4829 32.5204 14.9966C31.4248 14.643 30.2998 14.5103 29.1749 14.363C28.2984 14.2451 28.1815 14.3777 28.1815 15.3061C28.1815 15.8219 28.1961 16.3229 27.9624 16.8092C27.7286 17.2808 27.3634 17.5607 26.8959 17.7523C26.0632 18.0028 25.3912 17.6934 24.836 17.1039C24.6607 16.9123 24.5 16.706 24.3101 16.5145C23.8864 15.925 23.156 15.5861 22.9222 14.8345C21.7681 13.5819 20.614 12.3441 19.4598 11.0915C18.3349 9.86841 18.3641 8.55688 19.5329 7.34851C20.0734 6.78853 20.614 6.22855 21.1545 5.66857C22.3671 4.4602 23.5942 3.25183 24.7922 2.01398C25.3766 1.40979 26.0047 1.07086 26.8521 1.23296C27.8017 1.51295 28.1523 1.98451 28.1961 3.03078C28.2546 4.41599 28.2546 4.43073 29.6132 4.54862C32.4182 4.81387 35.1647 5.37385 37.7797 6.46433C38.2326 6.64117 38.7439 6.77379 39.0507 7.21588Z" fill="#FE6E90"/>
<path d="M52.4327 47.0333C53.4553 47.0481 54.478 47.0333 55.486 47.0628C55.8805 47.0775 55.9973 46.9302 55.9681 46.5618C55.9389 46.2523 55.9681 45.9281 55.9681 45.6039C55.9681 43.9977 56.5379 43.4672 58.1449 43.5556C58.627 43.6293 58.9922 43.9535 59.3136 44.2629C61.1544 46.105 63.0828 47.8586 64.7628 49.8627C65.7416 51.0269 65.727 52.2647 64.719 53.3699C62.849 55.4183 60.9644 57.4666 59.0214 59.4413C58.7292 59.736 58.4078 59.9128 58.0134 59.957C56.5525 60.0307 55.9535 59.456 55.9535 57.9971C55.9535 56.4498 55.9535 56.4498 54.4049 56.4498C47.787 56.4351 41.169 56.4351 34.5511 56.4203C34.5657 56.0961 34.8432 56.1403 35.0332 56.1256C38.5248 55.7572 41.8118 54.7109 44.8798 53.0015C47.3925 51.5868 49.6716 49.848 51.5561 47.6523C51.8191 47.387 52.009 47.0481 52.4327 47.0333Z" fill="#00D1D1"/>
<path d="M52.4324 47.0333C50.6063 49.0963 48.6048 50.9679 46.2528 52.4415C42.7465 54.6372 38.9336 55.9634 34.8138 56.3466C34.7261 56.3613 34.6385 56.4055 34.5654 56.4497C32.9146 56.4497 31.2637 56.4497 29.5983 56.4497C30.5041 56.3171 31.3952 56.1845 32.301 56.0371C34.3171 55.7277 36.2455 55.1087 38.1154 54.2835C41.271 52.8836 44.1052 50.9826 46.4719 48.4479C49.9927 44.6607 52.3448 40.2546 53.2213 35.0822C53.5281 33.2254 53.6888 31.3539 53.6304 29.4824C53.6158 29.0256 53.5427 28.5687 53.4989 28.1119C55.0621 27.7877 56.5522 27.2867 57.9839 26.5793C59.065 34.0948 57.2535 40.844 52.5785 46.7975C52.5201 46.8564 52.4763 46.9449 52.4324 47.0333Z" fill="#E54178"/>
<path d="M58.0279 59.9718C59.1236 59.3528 59.8541 58.3213 60.716 57.4519C61.8847 56.2582 62.9658 54.9762 64.1199 53.7678C65.6101 52.2058 65.7854 51.2626 64.3683 49.6859C62.4253 47.5196 60.4238 45.3976 58.1448 43.5556C59.5326 43.5408 60.9059 43.5408 62.2938 43.5261C62.8197 43.5261 63.2142 43.7766 63.5794 44.1303C65.4494 46.0165 67.3339 47.888 69.1893 49.789C70.2558 50.8795 70.2704 52.2205 69.2331 53.3257C67.3632 55.3446 65.464 57.334 63.5794 59.3528C63.1557 59.8097 62.6444 60.016 62.0308 60.0012C60.6868 59.9718 59.3573 59.9718 58.0279 59.9718Z" fill="#289AC2"/>
<path d="M39.0504 7.21591C37.6479 6.61173 36.2454 6.03701 34.7699 5.63913C32.7831 5.10863 30.767 4.76969 28.7217 4.72549C28.1081 4.71075 27.889 4.51918 27.9766 3.92973C28.0059 3.73816 27.962 3.53185 27.9766 3.34028C28.0789 2.36768 27.7137 1.63087 26.8225 1.20352C28.2104 1.18878 29.5836 1.17405 30.9715 1.18878C31.9503 1.20352 32.5931 1.86665 32.637 2.85398C32.6662 3.44343 32.4616 4.18024 32.7392 4.56339C33.046 4.976 33.8203 4.69601 34.3901 4.75496C36.2746 4.93179 38.13 5.22652 39.9562 5.7865C39.664 6.25806 39.3572 6.74435 39.0504 7.21591Z" fill="#E54178"/>
<path d="M24.3827 16.3671C20.336 18.9017 17.7063 22.4826 16.6691 27.1835C14.6969 36.0989 20.7889 45.2207 29.7297 46.768C29.8173 46.7827 29.905 46.8269 29.9927 46.8711C28.8385 46.989 27.6698 47.1364 26.5011 47.0185C25.4492 46.768 24.3827 46.6796 23.3309 46.3554C21.1687 45.6922 19.2403 44.6165 17.5018 43.1723C14.6238 40.7851 12.7977 37.7347 12.038 34.0948C10.9423 28.8634 12.1256 24.1478 15.4857 19.9922C17.3703 17.6491 19.8101 16.1166 22.542 15.0113C22.6735 14.9524 22.8342 14.9377 22.9072 14.7903C23.4039 15.3355 23.9006 15.8513 24.3827 16.3671Z" fill="#289AC2"/>
<path d="M61.4607 10.9294C61.4315 11.4157 61.2562 11.7841 60.891 12.0347C60.3504 12.4178 60.1751 12.9188 60.292 13.5672C60.3504 13.8767 60.365 14.2156 60.3066 14.5251C60.1459 15.3061 60.3797 15.8808 61.0371 16.3671C61.5192 16.7208 61.6068 17.2808 61.3146 17.826C60.7303 18.9018 60.1313 19.9628 59.4885 21.009C59.1525 21.569 58.6119 21.7901 57.9837 21.4953C57.3556 21.2006 56.815 21.289 56.2891 21.7016C55.9969 21.9227 55.6755 22.1143 55.3541 22.2616C54.7551 22.5269 54.3899 22.91 54.3022 23.6174C54.2146 24.4131 53.7471 24.7373 52.9436 24.7373C51.8771 24.7521 50.8106 24.7521 49.7442 24.7373C48.8968 24.7373 48.444 24.3984 48.3417 23.5732C48.254 22.9395 47.9619 22.5563 47.4067 22.3058C47.0561 22.1437 46.7055 21.9522 46.3987 21.7164C45.8435 21.289 45.2738 21.2154 44.631 21.5101C44.0028 21.7901 43.4768 21.5395 43.1408 20.9796C42.5419 19.9775 41.9721 18.946 41.3877 17.9292C41.0371 17.2955 41.1394 16.7208 41.6945 16.3082C42.2643 15.8808 42.4834 15.3503 42.3373 14.6577C42.2789 14.3777 42.2789 14.0683 42.3373 13.7735C42.498 12.9925 42.2643 12.4178 41.6069 11.9315C41.1248 11.5778 41.0371 11.0179 41.3293 10.4726C41.9137 9.39686 42.5126 8.33585 43.1554 7.28958C43.4914 6.7296 44.032 6.50856 44.6602 6.80328C45.2884 7.09801 45.8289 7.00959 46.3548 6.59697C46.647 6.37593 46.9684 6.19909 47.2898 6.05173C47.8888 5.78648 48.254 5.3886 48.3271 4.696C48.4147 3.92971 48.8676 3.59078 49.6127 3.57604C50.723 3.5613 51.8479 3.5613 52.9582 3.57604C53.7471 3.59078 54.1854 3.92971 54.2876 4.7402C54.3753 5.37386 54.6675 5.75701 55.2372 6.00752C55.6171 6.16962 55.9677 6.39067 56.3037 6.64118C56.8296 7.02433 57.3556 7.11274 57.9399 6.81802C58.4951 6.53803 59.0648 6.67066 59.3716 7.15695C60.0875 8.29164 60.7157 9.48528 61.3731 10.6494C61.4315 10.7231 61.4315 10.8558 61.4607 10.9294Z" fill="#D6E5EF"/>
<path d="M32.6516 14.864C32.7684 17.3545 32.0088 17.7523 29.8028 17.6492C28.8094 17.605 27.8159 17.6197 26.8225 17.6197C27.8744 17.1334 28.0351 16.2345 27.9912 15.1882C27.9474 14.0683 27.9912 14.0093 29.0869 14.142C30.2995 14.2893 31.5267 14.3483 32.6516 14.864Z" fill="#E54178"/>
<path d="M54.7988 14.0977C54.8135 16.0429 53.2211 17.6491 51.2926 17.6491C49.3934 17.6491 47.8157 16.0576 47.801 14.1419C47.7864 12.1967 49.3788 10.5905 51.3073 10.5905C53.2211 10.6052 54.7842 12.182 54.7988 14.0977Z" fill="#00D1D1"/>
</svg>
