<svg width="60" height="61" viewBox="0 0 60 61" fill="none" xmlns="http://www.w3.org/2000/svg">
<path d="M56.2614 15.0003C57.3257 15.0003 58.39 15.0128 59.4418 15.0003C59.8299 14.9878 60.0428 15.1005 59.9927 15.5265C59.9802 15.6267 59.9927 15.7395 59.9927 15.8397C59.9927 30.2974 59.9927 44.755 59.9927 59.2002C59.9927 60.002 59.9927 60.002 59.1788 60.002C41.7742 60.002 24.382 60.002 6.97738 60.002C3.5841 60.002 0.666632 57.4587 0.140736 54.1011C0.0280437 53.3494 0.078129 52.6103 0.040565 51.8711C0.253428 48.739 3.38376 46.2709 5.97568 45.8826C9.24375 45.3814 12.6996 47.386 13.7639 50.5055C13.8641 50.7937 13.9017 51.0818 13.9267 51.3825C13.8766 50.9565 13.8391 50.5306 13.8391 50.1046C13.8391 40.8211 13.8391 31.5251 13.8391 22.2417C13.8391 21.8909 13.789 21.5275 13.9518 21.2018C14.365 20.9011 14.5528 21.302 14.7657 21.5025C16.5312 23.2565 18.2967 25.0229 20.0622 26.7894C21.3143 27.3156 22.6291 27.6038 23.9187 28.0047C25.822 28.5935 27.7252 29.1698 29.7412 29.7461C29.1777 27.7291 28.5767 25.8248 28.0007 23.9205C27.6125 22.6175 27.2619 21.302 26.7987 20.0242C25.9347 18.9843 24.9205 18.1073 23.9814 17.1301C23.4805 16.6039 22.9546 16.1028 22.4538 15.5891C22.3035 15.4263 22.1032 15.2885 22.0906 15.0379C26.0724 15.0254 30.0667 15.0254 34.0485 15.0128C34.612 15.0128 35.1754 15.0128 35.7264 15.0128C35.9643 15.0629 36.0394 15.2634 36.1271 15.4638C36.4401 16.2155 36.8658 16.9171 37.3667 17.5435C39.345 20.0367 40.234 22.8931 40.1714 26.0628C40.184 26.6892 40.1589 27.3156 40.184 27.9295C40.2215 29.0821 40.9102 29.7837 42.0622 29.8338C42.3752 29.8463 42.6882 29.7962 42.9762 29.9466C43.2642 30.2598 43.1515 30.6607 43.164 31.024C43.2392 33.0661 45.2301 34.3941 47.1083 33.5923C48.1851 33.1288 48.7486 32.2267 48.8362 31.0491C48.8612 30.6857 48.7486 30.2974 48.999 29.9591C49.2995 29.7837 49.6376 29.8463 49.9631 29.8338C51.065 29.7712 51.7537 29.0821 51.8038 27.9796C51.8288 27.3407 51.8038 26.7017 51.8163 26.0628C51.7161 22.843 52.6552 19.9615 54.6837 17.4433C55.1595 16.867 55.5101 16.203 55.8482 15.5265C55.9483 15.326 55.9984 15.0755 56.2614 15.0003Z" fill="#E1E6F5"/>
<path d="M14.1149 21.1392C13.9521 21.3647 14.0272 21.6278 14.0272 21.8658C14.0272 31.5878 14.0272 41.3223 14.0272 51.0442C14.0272 51.2697 14.0272 51.4953 14.0272 51.7333C13.7142 50.8939 13.4637 50.0545 12.9879 49.2903C11.0346 46.1457 6.78988 44.9805 3.50929 47.0101C1.7563 48.0876 0.591817 49.6411 0.166092 51.6832C0.128528 51.7458 0.0784422 51.8085 0.0408782 51.8711C0.0408782 39.5432 0.0283569 27.2029 0.0533995 14.875C0.0533995 13.0835 0.804679 11.5425 2.00673 10.2145C2.19455 10.014 2.36985 9.81358 2.55767 9.61313C2.60775 9.57555 2.65784 9.55049 2.72044 9.55049C3.30895 9.85117 3.67206 10.3774 4.12283 10.8284C5.08698 11.9309 6.11372 12.9707 7.2156 13.9103C9.48196 16.1028 11.6857 18.3579 13.9145 20.6005C14.0272 20.7508 14.2651 20.8761 14.1149 21.1392Z" fill="#C7CCEC"/>
<path d="M56.2618 15.0003C55.786 16.1153 55.1474 17.1176 54.4212 18.0823C52.6557 20.425 51.9169 23.0936 51.9795 26.0001C51.7166 26.2382 51.4035 26.2006 51.103 26.1881C50.4269 26.163 49.7507 26.2883 49.0746 26.1004C48.7615 25.8874 48.8241 25.5491 48.8241 25.2484C48.8116 23.4318 48.8116 21.6278 48.8241 19.8112C48.8241 18.9467 48.9243 18.834 49.7883 18.834C50.9027 18.834 51.7667 18.3955 52.3677 17.4558C53.0063 16.4536 52.9562 15.3135 52.2925 14.4115C51.5788 13.4468 50.4269 12.9832 49.4001 13.2589C48.2231 13.5721 47.3466 14.5493 47.2089 15.7144C47.1964 15.8146 47.1964 15.9274 47.1838 16.0276C47.1338 16.4035 47.3341 16.9171 46.8708 17.08C46.3073 17.2804 45.6688 17.2804 45.0928 17.0675C44.7422 16.9422 44.8298 16.5287 44.8298 16.2281C44.8298 15.4263 44.617 14.7121 44.0535 14.1233C43.152 13.1712 41.9249 12.9331 40.8105 13.4718C39.7086 14.0106 39.0325 15.2509 39.2203 16.4035C39.4206 17.6062 40.4223 18.6084 41.6244 18.7964C41.687 18.8089 41.7496 18.8214 41.8122 18.8214C43.3148 18.7588 43.177 19.0469 43.177 20.2998C43.177 21.941 43.177 23.5947 43.177 25.2359C43.177 25.5366 43.2396 25.8749 42.9391 26.1004C41.9624 26.2257 40.9858 26.3635 40.0216 26.0127C40.0467 23.4694 39.4832 21.089 38.1309 18.9091C37.7553 18.3078 37.317 17.7565 36.9163 17.1802C36.4405 16.5037 36.0899 15.752 35.7393 15.0003C34.362 11.0288 34.8754 7.33297 37.5049 4.0255C39.2203 1.88316 41.4992 0.592743 44.2038 0.154253C49.9135 -0.78537 55.2851 2.7852 56.675 8.39788C57.2385 10.6404 57.0381 12.8454 56.2618 15.0003Z" fill="#F8D166"/>
<path d="M22.0909 15.0254C23.6937 16.6415 25.2964 18.2577 26.8991 19.8738C26.8115 20.2371 26.4984 20.162 26.248 20.1745C25.5218 20.1995 24.8081 20.1745 24.0818 20.187C23.2429 20.187 23.2429 20.1995 23.1803 21.0515C23.1803 21.1392 23.1678 21.2143 23.1427 21.2895C23.0551 21.5902 22.8798 21.5526 22.6794 21.4023C22.4916 21.2645 22.3414 21.1016 22.1786 20.9387C19.0482 17.8066 15.9304 14.6871 12.8001 11.555C12.2492 10.9912 11.6857 10.44 11.1222 9.88875C11.1222 9.8637 11.1097 9.83864 11.1097 9.82611C12.0112 8.82385 12.9003 7.80905 14.0021 7.00724C15.7802 8.77373 17.5457 10.5277 19.3112 12.2817C20.2378 13.1962 21.1643 14.1108 22.0909 15.0254Z" fill="#EFAD42"/>
<path d="M14.0145 7.03229C13.1004 8.02202 12.1488 8.97417 11.1471 9.87621C10.8966 10.44 10.3332 10.7407 9.98259 11.2167C9.09357 12.219 8.20456 13.2213 7.12772 14.0356C6.02585 13.0584 4.91145 12.0937 4.04748 10.8785C4.08504 10.6029 4.2979 10.4525 4.4732 10.2896C6.42653 8.3227 8.37986 6.36829 10.3457 4.41387C10.521 4.23848 10.6713 3.96285 10.9968 4.01297C12.0611 4.96512 13.0628 5.96738 14.0145 7.03229Z" fill="#D4873E"/>
<path d="M10.9969 4.01296C8.86827 6.14277 6.73965 8.27259 4.5985 10.3899C4.4232 10.5653 4.23538 10.7156 4.04756 10.8785C3.50914 10.5527 3.17107 9.98896 2.65769 9.62564C2.45735 9.24979 2.79543 9.09945 2.98325 8.91153C4.04756 7.8341 5.12439 6.76919 6.18871 5.69176C6.83982 5.04028 6.8273 4.96511 6.17619 4.30111C5.46247 3.57447 4.73623 2.87289 3.95991 2.20889C3.55923 1.87062 3.10846 1.62006 2.62013 1.44466C2.3697 1.38202 2.05667 1.38202 2.03163 1.00617C4.04756 -0.459642 6.5393 -0.309302 8.3549 1.38202C9.28148 2.22142 10.183 3.07334 10.9969 4.01296Z" fill="#B4B4B4"/>
<path d="M2.03153 1.00617C2.09414 1.05628 2.15675 1.13145 2.21935 1.15651C4.1852 1.72028 5.33716 3.34896 6.71451 4.6519C7.12771 5.04028 6.72703 5.34096 6.48913 5.59153C5.34969 6.74413 4.19772 7.88421 3.05828 9.03681C2.88298 9.21221 2.64508 9.33749 2.64508 9.63817H2.59499H2.54491C1.8938 8.84889 1.04235 8.22247 0.566536 7.27032C-0.547863 4.97764 0.00307607 2.55968 2.03153 1.00617Z" fill="#CBCBCB"/>
<path d="M22.6042 35.8975C22.8421 35.9476 22.9423 36.123 23.0675 36.2483C23.4306 36.5991 23.7186 37.0877 24.1569 37.2631C24.6327 37.4635 24.9958 36.8497 25.4841 36.7369C25.7095 36.6868 25.9099 36.5239 26.1227 36.4989C26.9366 36.4237 27.0744 35.9476 27.0243 35.221C26.9617 34.0057 27.0117 33.9932 28.2639 33.9932C29.0402 33.9932 29.804 34.0057 30.5678 33.9932C30.8934 33.9807 31.0687 34.0934 30.9935 34.4192C30.6805 35.8349 31.294 36.5615 32.6589 36.787C33.0971 36.8622 33.4227 37.4385 33.8609 37.2506C34.2366 37.0877 34.5246 36.6868 34.8 36.3485C35.1882 35.8599 35.4762 35.8349 35.9019 36.336C36.5029 37.025 37.1791 37.6515 37.8302 38.2904C38.0556 38.5159 38.1557 38.6788 37.8677 38.9419C37.442 39.3303 36.8034 39.7312 36.7158 40.2072C36.6281 40.6708 37.0914 41.2596 37.3669 41.7607C37.5798 42.1617 37.442 42.7755 37.8928 42.9635C38.2684 43.1138 38.7568 43.0386 39.195 43.0011C39.8086 42.9384 40.0465 43.1138 39.9964 43.7778C39.9338 44.6924 39.9588 45.6069 39.9839 46.5215C39.9964 46.9099 39.8586 47.0853 39.483 47.0101C38.1933 46.747 37.4045 47.2106 37.2292 48.5636C37.2166 48.6638 37.154 48.7515 37.1039 48.8518C36.6281 49.854 36.6281 49.854 37.4295 50.6558C38.1557 51.3825 38.1557 51.3825 37.442 52.0966C36.841 52.698 36.2275 53.2993 35.639 53.9132C35.4136 54.1512 35.2633 54.1512 35.0379 53.9132C34.6372 53.4872 34.2491 52.8483 33.7733 52.7606C33.31 52.6729 32.734 53.149 32.2081 53.3995C31.8074 53.6 31.1939 53.5123 31.0061 53.9383C30.8433 54.3016 30.9184 54.8027 30.9685 55.2287C31.0436 55.8551 30.8433 56.0681 30.1922 56.018C29.2781 55.9553 28.3641 55.9804 27.45 56.0054C27.0618 56.018 26.8991 55.8676 26.9742 55.5043C27.2371 54.2139 26.7613 53.4371 25.4215 53.2492C25.3214 53.2367 25.2337 53.174 25.1336 53.1239C24.1318 52.6478 24.1318 52.6478 23.3305 53.4622C22.6042 54.1888 22.6042 54.1888 21.8905 53.4747C21.2895 52.8734 20.6885 52.2595 20.0749 51.6706C19.837 51.4451 19.837 51.2823 20.0749 51.0693C20.5007 50.6684 21.1392 50.28 21.2269 49.8039C21.3145 49.3404 20.8513 48.7515 20.5758 48.2504C20.3629 47.8495 20.5007 47.2356 20.0499 47.0477C19.6742 46.8974 19.1859 46.9725 18.7477 47.0101C18.1341 47.0727 17.8962 46.8974 17.9463 46.2334C18.0089 45.3188 17.9839 44.4042 17.9588 43.4897C17.9463 43.1013 18.084 42.9259 18.4597 43.0011C19.7494 43.2641 20.5257 42.8006 20.7135 41.4475C20.726 41.3473 20.7886 41.2596 20.8387 41.1594C21.3145 40.1571 21.3145 40.1571 20.5132 39.3553C19.7869 38.6287 19.7869 38.6287 20.5007 37.9146C21.0892 37.3257 21.6777 36.7369 22.2662 36.1481C22.4039 36.0604 22.5166 35.9727 22.6042 35.8975Z" fill="#789FD3"/>
<path d="M45.7308 55.0032C44.0028 55.0032 42.2749 54.9907 40.5469 55.0157C40.1087 55.0157 39.9835 54.903 39.9835 54.4645C39.996 53.0112 39.971 53.0112 41.4485 53.0112C44.4285 53.0112 47.3961 53.0112 50.3762 53.0112C52.8053 53.0112 54.8087 51.2071 54.984 48.8894C55.1593 46.509 53.5316 44.4669 51.1275 44.0534C50.6141 43.9657 50.1007 44.0284 49.5748 43.9282C46.8702 43.4145 45.0171 41.222 45.0045 38.4909C44.992 36.9875 44.992 37 46.5071 37.0125C46.9453 37.0125 47.033 37.1754 47.0079 37.5513C46.9829 38.0524 46.9579 38.5535 47.0455 39.0421C47.346 40.8337 48.7234 41.9737 50.589 42.0113C53.5691 42.074 56.0734 44.066 56.7996 46.96C57.8139 50.9941 54.7712 54.9531 50.6141 55.0032C48.9863 55.0282 47.3585 55.0032 45.7308 55.0032Z" fill="#EFAD42"/>
<path d="M7.12759 14.0481C7.71609 13.2964 8.45485 12.6951 9.10596 11.9935C9.36891 11.7053 9.63186 11.4172 9.90733 11.129C10.621 11.768 11.2722 12.4696 11.9483 13.1461C14.9659 16.1654 17.9836 19.1847 21.0012 22.2041C21.164 22.3669 21.3393 22.5173 21.4645 22.7052C21.5897 22.8931 21.6023 23.056 21.3393 23.1312C20.2124 23.269 20.2249 23.269 20.2124 24.4341C20.2124 25.0605 20.2374 25.6744 20.1999 26.3008C20.1873 26.5263 20.2499 26.8145 19.8993 26.8896C17.9711 24.9728 16.0553 23.056 14.127 21.1392C12.7371 19.736 11.3598 18.3328 9.96993 16.9296C9.01831 15.965 8.06669 15.0003 7.12759 14.0481Z" fill="#EFAD42"/>
<path d="M40.0215 26.0127C41.0107 26.0127 41.9999 26.0002 42.9891 26.0002C43.6276 25.6494 44.3163 25.8623 44.98 25.8248C45.6561 25.8122 46.3197 25.7997 46.9959 25.8248C47.6595 25.8623 48.3607 25.6494 48.9993 26.0002C49.9885 26.0002 50.9777 26.0127 51.9669 26.0127C51.9669 26.6642 51.9919 27.3031 51.9794 27.9546C51.9669 29.1573 51.1279 29.9842 49.9384 30.0092C49.6254 30.0092 49.3123 30.0217 48.9993 30.0217C48.7739 30.2097 48.4984 30.2097 48.2355 30.2097C46.7455 30.2097 45.2429 30.2097 43.7529 30.2097C43.4774 30.2097 43.2144 30.2097 42.9891 30.0217C42.6385 30.0217 42.2753 30.0217 41.9247 30.0092C40.873 29.9591 40.034 29.1322 40.009 28.0799C39.9839 27.3908 40.0215 26.7017 40.0215 26.0127Z" fill="#D4873E"/>
<path d="M19.8869 26.8896C20.1248 26.6391 19.9996 26.3384 19.9996 26.0628C20.0247 25.2109 20.0247 24.3589 19.9996 23.507C19.9871 23.1186 20.1123 22.9808 20.5005 23.0059C20.826 23.0309 21.1641 23.0059 21.5022 22.9933C21.7276 22.7804 22.003 22.8179 22.266 22.8305C22.6667 22.8305 22.8295 22.6676 22.8295 22.2667C22.8295 22.0036 22.7794 21.7155 22.9922 21.5025C23.0423 20.0116 23.0423 20.0367 24.5198 19.9991C25.3087 19.9865 26.11 20.1619 26.8864 19.8863C27.4123 21.1893 27.7754 22.5423 28.126 23.9079C28.0634 24.0833 27.9382 24.2211 27.8004 24.3589C26.6485 25.5115 25.4965 26.6641 24.3445 27.8167C24.2068 27.9545 24.0816 28.0798 23.8938 28.1425C22.554 27.7792 21.1892 27.4284 19.8869 26.8896Z" fill="#F6D1B6"/>
<path d="M42.9887 30.0217C44.9921 30.0217 47.008 30.0217 49.0114 30.0217C48.9488 30.6231 49.0615 31.2244 48.8862 31.8133C48.448 33.2665 47.0456 34.2062 45.6056 33.9932C44.1406 33.7802 43.0387 32.5148 43.0137 31.0114C43.0012 30.6857 42.9887 30.3474 42.9887 30.0217Z" fill="#EFAD42"/>
<path d="M23.9062 28.1299C25.3086 26.7268 26.7236 25.3111 28.1259 23.9079C28.8397 25.8749 29.3405 27.9044 30.0167 30.0342C27.9256 29.3828 25.9097 28.7564 23.9062 28.1299Z" fill="#686868"/>
<path d="M48.9988 26.0001C48.3227 26.0001 47.6591 26.0001 46.9829 26.0001C46.7575 25.737 46.7951 25.4113 46.7951 25.1106C46.7951 23.4318 46.7951 21.753 46.7951 20.0743C46.7951 19.31 46.0814 18.8966 45.4177 19.285C45.1548 19.4353 45.2049 19.7109 45.2049 19.949C45.1924 21.6528 45.2049 23.3567 45.1924 25.048C45.1924 25.3737 45.2424 25.7245 45.0045 26.0001C44.3284 26.0001 43.6648 26.0001 42.9886 26.0001C42.9886 23.9455 42.9886 21.8783 43.0011 19.8237C43.0011 19.0093 43.0011 19.0093 42.1998 19.0093C40.6722 19.0093 39.5703 18.2075 39.1195 16.7793C38.7314 15.539 39.2948 14.1859 40.5094 13.4217C41.5612 12.7577 42.9886 12.9081 43.9152 13.7224C44.7166 14.4365 45.0922 15.3135 44.992 16.3784C44.9419 16.8795 45.1298 17.08 45.6181 17.0048C45.6556 16.9923 45.7057 17.0048 45.7433 17.0048C46.9579 17.0048 46.9579 17.0048 46.9954 15.8272C47.033 14.5618 48.0973 13.3591 49.4496 13.0459C50.5891 12.7703 52.004 13.4718 52.6426 14.6119C53.2436 15.6768 53.0307 17.105 52.1793 18.0196C51.4781 18.7713 50.6141 19.097 49.6124 19.0093C49.1115 18.9592 48.9738 19.1472 48.9863 19.6358C49.0114 21.753 48.9988 23.8829 48.9988 26.0001Z" fill="#EFAD42"/>
<path d="M52.9807 11.0038C52.8806 11.0038 52.7679 10.9913 52.6677 11.0038C52.242 11.0414 52.0416 10.9662 51.9665 10.44C51.6034 7.80906 50.176 6.03004 47.6091 5.24076C47.271 5.14053 46.9204 5.01525 46.5823 5.02778C46.094 5.04031 45.9938 4.85238 45.9938 4.40136C46.0064 2.97314 45.9938 2.92302 47.3962 3.136C50.6142 3.63714 53.3313 6.30567 53.8823 9.61314C53.8948 9.70084 53.8823 9.77601 53.9073 9.8637C54.0951 11.0038 54.0951 11.0038 52.9807 11.0038Z" fill="#FBE696"/>
<path d="M23.0043 21.5025C23.0544 23.056 23.0544 23.056 21.5143 23.0059C21.364 22.8305 21.2263 22.6551 21.0635 22.4922C17.4949 18.9216 13.9263 15.3511 10.3577 11.7805C10.1699 11.5926 9.90698 11.4548 9.89446 11.1416C10.2701 10.6905 10.6958 10.2646 11.1466 9.88873C11.4596 9.90126 11.5974 10.1644 11.7852 10.3523C15.3538 13.9228 18.9223 17.4934 22.4909 21.064C22.6537 21.2018 22.829 21.3521 23.0043 21.5025Z" fill="#F8D166"/>
<path d="M34.011 45.0557C33.9985 47.7869 31.7321 50.0169 28.9649 50.0044C26.2353 49.9919 24.0065 47.7242 24.019 44.9555C24.0315 42.2243 26.2979 39.9943 29.0651 40.0068C31.7947 40.0193 34.0235 42.287 34.011 45.0557Z" fill="#E1E6F5"/>
<path d="M45.0046 26.0001C45.0046 23.8578 45.0046 21.7155 44.9921 19.5606C44.9921 19.1221 45.1298 18.9968 45.5681 18.9968C47.008 18.9968 47.008 18.9718 47.008 20.4376C47.008 22.2918 47.008 24.1459 46.9955 26.0001C46.3319 26.0001 45.6683 26.0001 45.0046 26.0001Z" fill="#F8D166"/>
<path d="M43.0138 16.2782C42.9387 16.5538 43.2141 17.0048 42.5756 17.0173C41.5864 17.0549 41.073 16.7918 41.0104 16.1153C40.9603 15.5891 41.2984 15.113 41.7992 15.0128C42.3377 14.9 42.8636 15.2383 42.9762 15.7645C43.0138 15.9274 43.0013 16.1028 43.0138 16.2782Z" fill="#F8D165"/>
<path d="M49.575 16.9923C49.3872 16.9798 48.999 17.1426 48.9865 16.5413C48.974 15.5766 49.2244 15.088 49.863 15.0128C50.4139 14.9377 50.9023 15.301 50.9899 15.8397C51.0776 16.3784 50.7395 16.8921 50.2011 16.9923C50.0383 17.0174 49.8755 16.9923 49.575 16.9923Z" fill="#F8D165"/>
</svg>
