<svg width="60" height="61" viewBox="0 0 60 61" fill="none" xmlns="http://www.w3.org/2000/svg">
<path d="M18.7993 44.0071C19.504 44.0194 20.2087 44.0194 20.9133 44.0317C23.076 44.0563 24.8013 45.7034 24.8256 47.8791C24.862 51.6773 24.8377 55.4755 24.8499 59.2737C24.8499 59.6793 24.7041 59.7408 24.3517 59.7408C20.1479 59.7285 15.9562 59.7285 11.7524 59.7408C11.3515 59.7408 11.2421 59.6302 11.2421 59.2368C11.2543 55.4755 11.2421 51.7264 11.2543 47.9651C11.2664 45.7157 12.9552 44.0563 15.1908 44.044C15.8955 44.044 16.6002 44.0317 17.3049 44.0194C17.8151 43.7613 18.3011 43.7613 18.7993 44.0071Z" fill="#46699A"/>
<path d="M46.0268 17.5057C46.2212 16.2027 46.4035 15.0473 46.5857 13.8795C46.7194 13.0806 46.8409 12.2693 46.9988 11.4703C47.0717 11.1384 46.8773 10.9786 46.6951 10.7943C45.395 9.45445 44.095 8.11463 42.795 6.76252C42.7829 6.75022 42.7828 6.72564 42.7464 6.62731C43.7548 6.46751 44.7511 6.29542 45.7595 6.13563C46.61 6.00042 47.4727 5.8652 48.3353 5.75458C48.6876 5.7177 48.797 5.48416 48.9185 5.21373C49.5867 3.77558 50.255 2.33742 50.911 0.886972C51.0447 0.591966 51.1905 0.309251 51.3241 0.00195312C51.6036 0.112581 51.6157 0.358419 51.7129 0.542798C52.4419 2.09158 53.1587 3.64037 53.8634 5.20144C54.0214 5.55791 54.2401 5.70541 54.6289 5.75458C56.427 6.00042 58.213 6.29542 59.9991 6.57814C60.0112 6.83627 59.8168 6.91002 59.7075 7.03294C58.5289 8.26213 57.3383 9.49133 56.1354 10.7082C55.856 10.9909 55.7588 11.2368 55.8317 11.667C56.1476 13.4125 56.4149 15.1579 56.6943 16.9157C56.7186 17.0509 56.7551 17.2475 56.6822 17.3213C56.5364 17.4688 56.3906 17.2844 56.2691 17.2107C54.799 16.3994 53.3288 15.5881 51.883 14.7523C51.5428 14.5556 51.2755 14.5556 50.9353 14.7523C49.5503 15.5512 48.153 16.3256 46.7558 17.1C46.5614 17.2352 46.367 17.3213 46.0268 17.5057Z" fill="#E5BD50"/>
<path d="M14.1831 37.4186C12.9803 37.1236 11.9475 36.4722 11.012 35.6978C8.27832 33.436 6.82035 30.5106 6.79605 26.9213C6.7596 21.5375 10.4167 16.9649 15.6168 15.8217C21.9468 14.4327 28.1067 18.8701 28.9815 25.3725C29.674 30.5597 26.6123 35.6855 21.8375 37.4186C21.2543 37.0253 20.8776 36.4353 20.3552 35.9805C20.2944 35.919 20.3187 35.833 20.3795 35.7592C21.2786 35.3413 22.2141 35.0217 23.0403 34.444C26.0777 32.3052 27.5843 28.5316 26.7824 24.9546C25.9319 21.1564 23.0889 18.4399 19.3346 17.8376C14.4261 17.0386 9.78489 20.4435 9.0073 25.4094C8.27832 30.0803 11.0606 34.444 15.556 35.6978C15.6168 35.7101 15.6654 35.7346 15.7261 35.7715C15.8476 35.8944 15.7747 36.0051 15.6775 36.0665C15.2037 36.4107 14.8149 36.8163 14.4868 37.308C14.4261 37.394 14.3167 37.4678 14.1831 37.4186Z" fill="#83B0EF"/>
<path d="M41.9811 54.6765C41.1306 54.4183 40.8998 53.8406 41.0942 53.0171C41.0942 52.9925 41.0942 52.9802 41.0942 52.9556C40.8633 52.2427 41.2157 51.8616 41.8353 51.6404C42.2241 51.5051 42.2606 51.2716 42.1148 50.8906C41.7867 50.0424 41.3372 49.2803 40.7661 48.592C40.511 48.2724 40.3044 48.2724 39.9521 48.469C38.7857 49.1205 37.3642 48.297 37.352 46.9571C37.352 46.5884 37.2063 46.4655 36.8904 46.404C35.9305 46.2196 34.9707 46.2196 34.0109 46.4163C33.7071 46.4777 33.5613 46.613 33.5856 46.9448C33.6099 47.289 33.6342 47.6455 33.3791 47.9405C32.7837 48.6534 31.7146 48.8624 30.8884 48.4322C30.8033 48.383 30.7061 48.3338 30.6332 48.297C30.4388 48.3092 30.3538 48.4568 30.2444 48.5674C29.6127 49.2434 29.1753 50.0424 28.8351 50.9028C28.6893 51.2839 28.7257 51.5297 29.1145 51.6649C29.7949 51.8985 30.0743 52.3287 29.8435 53.0539C29.8313 53.0908 29.8313 53.14 29.8435 53.1769C30.0986 53.9512 29.7706 54.406 29.0538 54.6519C28.7136 54.7748 28.6771 54.9838 28.7986 55.3156C29.1267 56.213 29.6005 56.9996 30.2201 57.7126C30.451 57.9707 30.6211 57.9953 30.9248 57.8232C32.1398 57.1349 33.5249 57.9338 33.5613 59.3228C33.5735 59.6547 33.6828 59.8022 33.9866 59.8637C34.9464 60.048 35.9062 60.048 36.8782 59.8637C37.2063 59.8022 37.3642 59.667 37.3278 59.2982C37.2913 58.9541 37.3156 58.6099 37.5707 58.3272C38.2268 57.6019 39.1988 57.4053 40.0614 57.8601C40.2923 57.983 40.4381 57.9953 40.6325 57.7863C41.3129 57.0365 41.8232 56.1884 42.1512 55.2296C42.2484 54.9838 42.2727 54.7625 41.9811 54.6765ZM35.4324 56.0409C33.7922 56.0532 32.4921 54.7748 32.48 53.1277C32.4678 51.4929 33.78 50.153 35.3838 50.1653C36.9633 50.1653 38.2633 51.4806 38.2876 53.0908C38.3119 54.6765 36.9997 56.0409 35.4324 56.0409Z" fill="#5B6D80"/>
<path d="M18.7996 44.0071C18.3136 44.0071 17.8155 44.0071 17.3295 44.0071C16.2968 43.6998 15.3369 43.2696 14.6444 42.3722C13.964 41.4749 13.6117 40.4916 13.721 39.3607C14.207 38.7584 14.9238 38.574 15.6042 38.3651C17.6454 37.7136 19.6501 37.9103 21.5941 38.783C21.8249 38.8936 22.0557 39.0657 22.323 38.8936C22.6875 40.7128 21.6305 43.0237 19.4557 43.7858C19.2491 43.8596 19.0183 43.9333 18.7996 44.0071Z" fill="#F1C690"/>
<path d="M34.1331 5.77917C36.2836 7.08212 38.3734 8.36048 40.5725 9.68801C38.3977 11.0155 36.2958 12.2939 34.1331 13.6091C34.1331 10.9787 34.1331 8.44652 34.1331 5.77917Z" fill="#BE7975"/>
<path d="M22.3352 38.8936C22.2744 39.0411 22.4688 39.4222 22.0193 39.1763C19.2248 37.7013 16.4547 37.8242 13.721 39.3484C13.6481 38.6478 14.0126 38.0578 14.1827 37.4063C14.6565 36.8286 15.0818 36.2017 15.75 35.8206C15.7986 35.6117 15.9444 35.5133 16.1145 35.4396C17.451 34.8496 18.7632 34.8373 20.0753 35.5256C20.1968 35.5871 20.3183 35.6731 20.3669 35.8206C20.9501 36.2631 21.4604 36.7794 21.8492 37.394C22.0436 37.898 22.2744 38.3651 22.3352 38.8936Z" fill="#64768B"/>
<path d="M0.975914 27.3392C-0.129714 27.3024 -0.00821658 27.5605 0.0160829 26.3313C0.0403825 25.2619 0.0525322 25.2619 1.12171 25.3725C1.30396 25.3971 1.4862 25.3971 1.66845 25.4094C1.97219 25.434 2.16659 25.6306 2.00864 25.8888C1.7535 26.3436 2.40959 27.118 1.52265 27.3269C1.35256 27.3761 1.15816 27.3392 0.975914 27.3392Z" fill="#BF817D"/>
<path d="M11.2178 12.3431C11.1571 12.3185 11.0842 12.3062 11.0599 12.2693C10.8048 11.7653 10.5618 11.2491 10.3188 10.7328C10.2823 10.6591 10.3552 10.5853 10.4403 10.5484C10.9384 10.3395 11.4365 10.1182 11.9347 9.89696C12.1291 9.81092 12.1777 9.95842 12.2384 10.0936C12.3113 10.278 12.3842 10.4747 12.445 10.6714C12.5422 10.9909 12.8945 11.4212 12.6758 11.6178C12.2749 11.9497 11.716 12.1095 11.2178 12.3431Z" fill="#BF807C"/>
<path d="M29.7952 39.4836C30.0139 39.5697 30.1354 39.7664 30.2934 39.9139C31.1924 40.8358 31.1924 40.8358 30.1962 41.647C29.5765 42.151 29.5765 42.151 29.0905 41.5118C28.4344 40.6391 28.4344 40.6391 29.2242 39.9139C29.4064 39.7664 29.5644 39.5697 29.7952 39.4836Z" fill="#BF807C"/>
<path d="M10.1125 43.9948C9.60223 43.6875 9.06764 43.3925 8.5695 43.0483C8.3751 42.9131 8.63025 42.7164 8.72745 42.5935C9.01904 42.2124 9.14054 41.4872 9.61438 41.4995C10.0761 41.5118 10.5256 41.9666 10.963 42.237C10.9995 42.2616 11.0359 42.36 11.0116 42.3968C10.7686 42.9131 10.5256 43.4171 10.2705 43.921C10.2705 43.9456 10.1854 43.9579 10.1125 43.9948Z" fill="#BF807C"/>
<path d="M4.35388 18.6242C4.09873 19.0913 3.84359 19.5707 3.56415 20.0378C3.4791 20.173 3.34545 20.0378 3.2361 19.9886C1.69308 19.4109 1.68093 19.3372 2.51927 17.899C2.73796 17.5303 2.90806 17.518 3.2118 17.7515C3.5034 17.9605 3.81929 18.1449 4.13518 18.3415C4.23238 18.403 4.35388 18.4522 4.35388 18.6242Z" fill="#BF807C"/>
<path d="M2.06953 23.5779C1.99663 23.5656 1.91158 23.5656 1.83868 23.541C1.41344 23.3812 0.708754 23.5164 0.587257 23.1354C0.40501 22.6068 0.793803 22.0168 0.963899 21.4514C1.02465 21.267 1.12185 21.2424 1.27979 21.3039C1.35269 21.3407 1.43774 21.3407 1.51064 21.3653C2.96861 21.8447 3.00506 21.9307 2.43402 23.3689C2.34897 23.5656 2.26392 23.6516 2.06953 23.5779Z" fill="#BF807C"/>
<path d="M36.4772 23.541C36.538 23.8114 36.3193 23.836 36.1492 23.8852C34.7277 24.3031 34.5333 24.1556 34.2538 22.6683C34.2052 22.4225 34.2538 22.3241 34.4847 22.2872C34.5576 22.275 34.6305 22.2258 34.7155 22.2135C35.1529 22.1152 35.7118 21.6849 36.0034 21.9431C36.38 22.2995 36.3193 23.0002 36.4772 23.541Z" fill="#BF807C"/>
<path d="M36.7205 30.2647C36.3195 30.8301 36.7448 31.7766 36.0158 31.875C35.5662 31.9364 34.6064 31.9856 34.5092 31.2358C34.4606 30.8178 34.2905 29.9082 35.0803 29.7853C35.5784 29.7239 36.2466 29.7239 36.7205 30.2647Z" fill="#BF807D"/>
<path d="M34.6425 35.796C34.1808 35.5502 33.6948 35.2921 33.221 35.0339C33.1481 34.9971 33.1117 34.9233 33.1603 34.825C33.3668 34.3702 33.5612 33.8908 33.792 33.4483C33.8771 33.2885 35.5295 33.8416 35.5902 34.0383C35.6267 34.1612 34.8977 35.7469 34.7883 35.7837C34.7519 35.796 34.7033 35.796 34.6425 35.796Z" fill="#BF807C"/>
<path d="M20.3666 9.72487C20.3666 10.6591 20.3666 10.6591 19.261 10.6591C18.4227 10.6591 18.4227 10.6591 18.4227 9.5159C18.4227 8.70464 18.4227 8.70464 19.589 8.70464C20.3666 8.70464 20.3666 8.70464 20.3666 9.72487Z" fill="#BE807C"/>
<path d="M24.2429 9.63882C24.2429 10.6591 24.2429 10.6591 23.2223 10.6591C22.2989 10.6591 22.2989 10.6591 22.2989 9.72487C22.2989 8.70464 22.2989 8.70464 23.3195 8.70464C24.2429 8.70464 24.2429 8.70464 24.2429 9.63882Z" fill="#BE807C"/>
<path d="M26.2114 44.2406C25.9441 44.2529 25.9198 43.9825 25.8712 43.8227C25.7497 43.3556 25.1544 42.9254 25.4703 42.4706C25.7254 42.1141 26.2843 41.9789 26.7217 41.7576C26.9404 41.647 27.0012 41.8437 27.0862 41.9666C28.0339 43.3187 28.0339 43.3187 26.5516 44.0685C26.4423 44.1177 26.3329 44.1792 26.2114 44.2406Z" fill="#BF807C"/>
<path d="M26.1863 9.63882C26.1863 8.70464 26.1863 8.70464 27.292 8.70464C28.1303 8.70464 28.1303 8.70464 28.1303 9.90925C28.1303 10.6591 28.1303 10.6591 26.9639 10.6591C26.1863 10.6591 26.1863 10.6591 26.1863 9.63882Z" fill="#BE807C"/>
<path d="M32.0064 9.67571C32.0064 10.6591 32.0064 10.6591 30.8887 10.6591C30.0625 10.6591 30.0625 10.6591 30.0746 9.49133C30.0746 8.69236 30.0746 8.68007 31.2532 8.69236C32.1401 8.70465 31.9943 8.55715 32.0064 9.67571Z" fill="#BE807C"/>
<path d="M16.3089 10.4378C16.3332 10.573 16.4061 10.7451 16.1996 10.7943C15.7136 10.9049 15.2154 10.991 14.7173 11.077C14.5837 11.1016 14.5229 11.0155 14.4986 10.9172C14.3771 10.4255 14.2678 9.92156 14.1463 9.42988C14.0977 9.25779 14.1949 9.22092 14.3164 9.18404C14.3771 9.17175 14.4257 9.14717 14.4865 9.12258C16.1145 8.66778 16.1388 8.69236 16.3089 10.4378Z" fill="#BF817D"/>
<path d="M1.71748 29.1953C1.74178 29.1953 1.75393 29.183 1.77823 29.1953C2.32497 29.3305 2.10627 29.8222 2.15487 30.1418C2.19132 30.4245 2.62871 30.8547 2.04553 31.0514C1.63243 31.1866 1.19504 31.2604 0.757651 31.371C0.478206 31.4324 0.405308 31.2726 0.368858 31.0391C0.30811 30.6212 0.235211 30.2033 0.150163 29.7853C0.101564 29.5149 0.162312 29.3551 0.466056 29.3305C0.891298 29.2936 1.30439 29.2568 1.72963 29.2076C1.72963 29.2076 1.72963 29.2076 1.71748 29.1953Z" fill="#BF807C"/>
<path d="M3.97663 38.7461C3.95233 38.7338 3.89158 38.7092 3.85513 38.6847C3.81869 38.6601 3.79439 38.6232 3.77009 38.5986C3.46634 38.1684 2.9682 37.7505 2.9196 37.2957C2.85885 36.7671 3.61214 36.718 3.97663 36.4229C4.11028 36.3123 4.34113 36.0173 4.52337 36.3246C4.80282 36.7794 5.22806 37.1482 5.37385 37.689C5.386 37.7505 4.08598 38.7461 3.97663 38.7461Z" fill="#BF807C"/>
<path d="M33.6952 37.7505C33.5373 37.9717 33.3794 38.2299 33.1971 38.4757C32.5653 39.3484 32.5532 39.3484 31.7634 38.6724C30.9251 37.9349 31.0101 38.1438 31.5933 37.3817C31.7148 37.2219 31.8485 37.0621 31.9457 36.8901C32.0915 36.6442 32.2251 36.6073 32.4681 36.7917C32.784 37.0376 33.1364 37.2465 33.4644 37.4678C33.5616 37.5169 33.6831 37.5661 33.6952 37.7505Z" fill="#BF807C"/>
<path d="M3.49073 34.444C3.12624 34.8127 2.5795 34.9111 2.12996 35.1692C2.00846 35.2307 1.82621 35.415 1.71687 35.1938C1.48602 34.6775 1.09723 34.1367 1.13368 33.6204C1.15798 33.055 1.92341 33.2025 2.34865 32.9812C2.51875 32.8952 2.7739 32.7108 2.91969 33.0181C3.11409 33.4483 3.28419 33.9031 3.49073 34.444Z" fill="#BF807C"/>
<path d="M36.854 26.909C36.8662 27.9169 36.8662 27.9169 35.9063 27.8678C34.9343 27.8186 34.9829 27.8186 34.8979 26.8598C34.8371 26.1838 35.0194 25.9748 35.6998 25.9256C36.8419 25.8519 36.8419 25.7904 36.854 26.909Z" fill="#BE807C"/>
<path d="M8.04684 14.3589C7.88889 14.1746 7.74309 14.0148 7.5973 13.8427C6.78326 12.8101 6.80756 12.847 7.86459 12.0358C8.36273 11.6547 8.58143 11.7285 8.87302 12.257C9.43191 13.2527 9.46836 13.2404 8.54498 13.9656C8.39918 14.1008 8.24123 14.2237 8.04684 14.3589Z" fill="#BF807C"/>
<path d="M5.39855 16.9525C4.94901 16.5838 4.48732 16.2273 4.04992 15.8463C3.96488 15.7725 4.07422 15.6496 4.13497 15.5881C4.46302 15.2071 4.80321 14.826 5.13125 14.4327C5.25275 14.2852 5.3621 14.2975 5.4836 14.4204C5.60509 14.5556 5.75089 14.6785 5.87239 14.8137C6.12753 15.0965 6.68642 15.3915 6.58922 15.6373C6.41913 16.1044 5.94529 16.4609 5.60509 16.8542C5.55649 16.8911 5.49575 16.9034 5.39855 16.9525Z" fill="#BF807C"/>
<path d="M6.79546 41.7085C6.55247 41.6224 6.38237 41.438 6.21227 41.2782C5.27674 40.4301 5.30104 40.4547 6.12723 39.5574C6.54032 39.1026 6.79546 39.1026 7.22071 39.5328C7.97399 40.3072 7.99829 40.2826 7.3179 41.143C7.17211 41.3397 7.05061 41.5733 6.79546 41.7085Z" fill="#BE807C"/>
<path d="M18.0947 44.1669C18.2648 44.9658 18.4349 45.7033 18.5929 46.4532C19.0424 48.4813 19.4798 50.5095 19.9294 52.5377C19.9537 52.6729 20.0387 52.8081 19.9537 52.9433C19.334 53.8898 18.7022 54.8363 18.0461 55.8319C17.4144 54.8731 16.8312 53.9881 16.248 53.1031C16.1265 52.9187 16.09 52.7343 16.1386 52.5254C16.7461 49.7843 17.3536 47.0432 17.9611 44.3021C17.9611 44.2775 17.9975 44.2652 18.0947 44.1669Z" fill="#9DB1CD"/>
<path d="M20.3667 35.8453C18.8358 35.0094 17.2928 34.9602 15.7498 35.833C14.2554 35.6363 13.004 34.8742 11.9105 33.9031C9.57772 31.8381 8.48424 29.1707 8.76369 26.0609C9.14033 21.8939 11.9226 18.7226 15.8713 17.7884C21.1564 16.5346 26.235 20.0993 27.0612 25.5323C27.7416 30.1172 24.7892 34.7021 20.3667 35.8453Z" fill="#CBDAEF"/>
<path d="M18.6662 24.5735C18.6662 25.7413 18.6541 26.909 18.6662 28.0645C18.6662 28.507 18.5204 28.8266 18.1559 29.097C17.0746 29.8837 16.0297 30.7072 14.9727 31.5185C14.6568 31.7643 14.3895 31.8258 14.183 31.4447C14.0129 31.1129 13.3932 30.8424 14.0372 30.3753C14.9484 29.7116 15.8353 28.9986 16.7466 28.3349C17.0746 28.1013 17.2204 27.8432 17.2083 27.413C17.184 25.2865 17.2204 23.16 17.184 21.0335C17.1718 20.3943 17.5363 20.4803 17.913 20.4803C18.2774 20.4926 18.6905 20.3451 18.6662 21.0089C18.6419 22.2012 18.6662 23.3812 18.6662 24.5735Z" fill="#82A6D8"/>
</svg>
