<svg width="60" height="61" viewBox="0 0 60 61" fill="none" xmlns="http://www.w3.org/2000/svg">
<path d="M50.1593 12.8972C49.7718 12.9324 49.3843 12.9677 48.985 13.0029C46.883 13.1203 44.7693 13.1321 42.6672 12.9912C41.7982 12.8855 40.9293 12.8385 40.2599 12.1221C39.7667 11.5936 39.4966 10.9946 39.4966 10.2782C39.4849 7.76495 39.4849 5.23992 39.4966 2.72665C39.5083 1.35257 40.4361 0.272092 41.7043 0.119416C41.9274 0.0254619 42.1623 0.0724391 42.3971 0.0724391C44.6988 0.0724391 46.9887 0.0724391 49.2904 0.0724391C49.5017 0.0724391 49.7131 0.13116 49.9245 0.0137177C50.0419 0.0137177 50.1593 0.0137177 50.2768 0.0137177C50.3237 0.0606948 50.3825 0.0959276 50.4412 0.119416C51.6977 0.483489 52.1322 1.45826 52.2966 2.62095C52.4023 3.36084 52.3905 3.36084 53.1538 3.36084C53.9759 3.36084 54.7861 3.33735 55.6081 3.37258C55.8078 3.38433 56.1483 3.27863 56.0896 3.70142C55.8195 3.86584 55.5259 3.81887 55.2324 3.81887C53.0481 3.81887 50.8639 3.81887 48.668 3.81887C48.4331 3.81887 48.1982 3.80712 47.9634 3.8541C47.5993 3.93631 47.3645 4.14771 47.3762 4.53527C47.388 4.89934 47.6228 5.08725 47.9634 5.16946C48.1748 5.21644 48.3861 5.20469 48.6093 5.20469C49.5487 5.20469 50.4881 5.20469 51.4159 5.20469C51.6859 5.20469 51.9678 5.1812 52.1909 5.38086C52.4023 6.20296 52.414 7.02506 52.1909 7.84716C51.9091 8.08204 51.5568 8.02332 51.2397 8.02332C48.9028 8.02332 46.5542 8.02332 44.2173 8.02332C43.9238 8.02332 43.6302 7.99983 43.3483 8.11727C43.0665 8.23472 42.8904 8.43437 42.9021 8.73972C42.9138 9.05682 43.1017 9.27996 43.4188 9.36217C43.6889 9.43263 43.959 9.40914 44.2291 9.40914C47.8577 9.40914 51.4863 9.40914 55.1149 9.40914C55.4203 9.40914 55.7373 9.37391 56.0426 9.5031C56.2892 9.76147 56.0074 9.78496 55.8782 9.83194C55.6199 9.91415 55.3381 9.87892 55.068 9.87892C54.3869 9.87892 53.7058 9.9024 53.0247 9.87892C52.5549 9.86717 52.2966 9.99636 52.2731 10.5131C52.2614 10.8772 52.1087 11.2295 51.9326 11.5583C51.5568 12.2982 51.0048 12.7798 50.1593 12.8972Z" fill="#B2E49E"/>
<path d="M52.1558 7.83539C52.1558 7.02504 52.1558 6.22642 52.1558 5.41607C52.3437 5.18118 52.6139 5.22816 52.8605 5.22816C53.7765 5.21642 54.6926 5.22816 55.6086 5.21642C55.9023 5.21642 56.2076 5.20467 56.419 4.96979C56.6774 4.68792 56.7126 4.39432 56.4895 4.07722C56.372 3.92454 56.1959 3.81885 56.1371 3.61919C55.3972 3.4078 54.6339 3.56047 53.8822 3.52524C53.3772 3.50175 52.8018 3.65443 52.379 3.47826C51.8622 3.25512 52.1793 2.5857 52.0619 2.11592C51.7918 1.10592 51.1693 0.518702 50.2767 0.119396C50.4764 0.0136974 50.6995 0.0724188 50.9109 0.0606746C52.9544 0.0606746 54.9979 0.0606746 57.0297 0.0606746C57.2411 0.0606746 57.4525 0.119396 57.6522 0.00195312C57.6874 0.00195312 57.7344 0.00195312 57.7696 0.00195312C59.038 0.154629 59.7661 0.859286 60.001 2.11592C60.001 5.04025 60.001 7.97632 60.001 10.9007C59.7661 11.253 59.6604 11.6758 59.3551 11.9929C58.8383 12.5448 58.2276 12.8972 57.4642 12.8972C55.0214 12.8972 52.5904 12.8972 50.1476 12.8972C51.4159 12.3687 52.1323 11.4526 52.1441 10.0433C52.1441 9.72622 52.3672 9.72622 52.5904 9.72622C53.5651 9.72622 54.5399 9.72622 55.5147 9.72622C55.7261 9.72622 55.9492 9.78494 56.1371 9.63227C56.1724 9.46785 56.3133 9.37389 56.4073 9.25645C56.83 8.72796 56.6187 8.17598 55.961 8.04679C55.7496 8.01156 55.5382 8.0233 55.315 8.0233C54.4929 8.0233 53.6826 8.0233 52.8605 8.0233C52.6139 8.01156 52.3437 8.05853 52.1558 7.83539Z" fill="#94D5A3"/>
<path d="M49.9253 0.00195312C49.7961 0.166373 49.6082 0.119396 49.432 0.119396C46.86 0.119396 44.288 0.119396 41.7043 0.107652C41.716 0.0724188 41.716 0.037186 41.716 0.00195312C44.4642 0.00195312 47.2006 0.00195312 49.9253 0.00195312Z" fill="#CBEDBE"/>
<path d="M57.6638 0.00195312C57.4876 0.201606 57.2645 0.119396 57.0648 0.119396C54.8099 0.119396 52.5433 0.119396 50.2884 0.119396C50.2884 0.0841631 50.2884 0.037186 50.2884 0.00195312C52.7429 0.00195312 55.1975 0.00195312 57.6638 0.00195312Z" fill="#B7E3C1"/>
<path d="M4.12614 43.0682C4.20834 41.9173 4.07916 40.7664 3.98522 39.6272C3.8443 37.9008 5.33568 36.5267 7.10888 36.5502C10.4439 36.5737 13.779 36.5619 17.114 36.5619C17.3958 36.3857 17.7012 36.3623 18.0182 36.3623C21.5646 36.3623 25.1111 36.3623 28.6575 36.3623C28.9745 36.3623 29.2799 36.374 29.5617 36.5619C32.9437 36.5619 36.3375 36.5619 39.7195 36.5619C39.9191 36.5619 40.154 36.4914 40.3301 36.6676C40.1657 36.8438 39.9426 36.8438 39.7312 36.8438C37.7584 36.8555 35.7855 36.8555 33.8127 36.8438C33.5778 36.8438 33.343 36.832 33.1668 36.6794C34.8461 37.4075 35.1162 38.8286 34.9635 40.4493C34.7991 42.3284 34.7639 44.2309 34.6347 46.11C34.5056 47.9774 34.4351 49.8447 34.3294 51.712C34.2589 52.8043 34.1533 53.8847 34.1767 54.9887C34.1885 55.341 34.2002 55.6934 33.9536 55.9987C33.7422 56.1866 33.4839 56.1514 33.2256 56.1514C30.9826 56.1514 28.7397 56.1514 26.485 56.1514C25.7217 56.1514 25.5456 55.9517 25.663 55.1883C25.8626 53.826 26.4263 52.6281 27.3305 51.5711C29.3268 49.234 29.092 45.9926 26.8021 43.9608C26.5085 43.6907 26.1797 43.3031 25.7452 43.5145C25.3459 43.7024 25.5103 44.1722 25.5103 44.5363C25.4868 45.5345 25.5221 46.5328 25.4986 47.5193C25.4751 48.6115 24.9701 49.1166 23.8663 49.1283C23.4788 49.14 23.0795 49.14 22.692 49.1283C21.7291 49.0931 21.2124 48.5998 21.1889 47.625C21.1654 46.6268 21.1771 45.6285 21.1771 44.642C21.1771 44.5245 21.1889 44.4071 21.1771 44.2897C21.1536 44.0078 21.2593 43.6555 20.9305 43.5028C20.59 43.3384 20.3434 43.6085 20.0968 43.7964C17.8186 45.4993 17.3254 48.8229 18.9929 51.1248C19.2747 51.5241 19.6035 51.8882 19.8854 52.2875C20.5078 53.1448 20.8601 54.1079 21.0127 55.1414C21.1302 55.94 20.9423 56.1514 20.1672 56.1514C15.2703 56.1514 10.3735 56.1514 5.46485 56.1514C5.21824 56.1514 4.94815 56.1866 4.76026 55.9635C4.57237 55.0122 4.59586 54.0374 4.53714 53.0626C4.41971 51.1248 4.29054 49.1753 4.22008 47.2375C4.16137 45.8634 3.89127 44.4658 4.12614 43.0682Z" fill="#E9F1FE"/>
<path d="M29.5503 36.5619C25.405 36.5619 21.2597 36.5619 17.1026 36.5619C18.2417 35.6576 18.2652 34.4244 18.3239 33.0973C18.3826 31.8172 18.0303 31.0304 16.9382 30.2552C15.0358 28.9046 13.9907 26.8964 13.6149 24.571C13.5444 24.1482 13.521 23.7254 13.4857 23.3026C13.3566 23.1734 13.3213 22.9973 13.3213 22.8211C13.3096 21.4822 13.2978 20.1434 13.3213 18.8046C13.3213 18.6871 13.3566 18.5697 13.4035 18.464C13.5797 18.2173 13.8145 18.2995 14.0377 18.3465C14.9654 18.5227 15.3646 18.2408 15.4116 17.2895C15.4703 16.1269 15.3999 14.9524 15.4351 13.778C15.4703 12.2982 16.5977 10.9594 17.9951 10.7597C18.7466 10.654 19.5217 10.6423 20.2498 10.8889C21.2479 11.2177 22.2578 11.3117 23.303 11.3234C24.4538 11.3352 25.5576 11.1708 26.6498 10.8419C27.0138 10.7362 27.4013 10.607 27.7536 10.9359C27.8945 11.206 27.8593 11.5114 27.8593 11.7932C27.8593 15.5984 27.8593 19.4035 27.8593 23.2087C27.8593 24.0308 27.7184 24.8411 27.4718 25.628C27.4483 25.6984 27.4248 25.7807 27.3661 25.8276C26.6967 26.2974 26.4736 26.9668 26.5206 27.7537C26.0509 28.8929 25.1701 29.6915 24.2659 30.4549C23.3734 31.2183 22.3048 31.7115 21.1305 32.2283C22.798 32.4984 24.3716 32.5806 25.9217 32.1108C26.5676 31.9112 27.2252 31.7115 27.8358 31.3944C28.0002 31.3122 28.1764 31.1948 28.3877 31.2887C28.3877 32.0286 28.4347 32.7685 28.376 33.5084C28.2703 34.7298 28.6109 35.7516 29.5503 36.5619Z" fill="#FEDCCD"/>
<path d="M33.8719 56.0104C33.9658 55.7168 33.9776 55.3997 34.0011 55.0944C34.1068 52.4754 34.2007 49.8564 34.3651 47.2492C34.4473 45.9573 34.4943 44.6537 34.6118 43.3619C34.694 42.3988 34.6587 41.424 34.7879 40.461C34.9993 38.899 34.6822 37.5015 33.0615 36.6794C35.4808 36.6794 37.9002 36.6794 40.3195 36.6794C41.5526 36.7851 42.6214 37.936 42.6683 39.1691C42.7271 40.4728 42.4804 41.7764 42.5392 43.08C42.7153 43.8081 42.6449 44.5598 42.5744 45.2762C42.4804 46.2392 42.457 47.214 42.3982 48.1888C42.269 50.5963 42.1164 53.0039 42.0107 55.3997C41.9989 55.6346 42.0107 55.8695 41.8345 56.0574C41.6114 56.2101 41.353 56.1749 41.0946 56.1749C38.9337 56.1749 36.7845 56.1749 34.6235 56.1749C34.3886 56.1749 34.095 56.2336 33.8719 56.0104Z" fill="#DAE7F8"/>
<path d="M45.1332 59.8861C44.9454 60.0505 44.7222 59.9918 44.5109 59.9918C30.4191 59.9918 16.3274 59.9918 2.23567 59.9918C1.34319 59.9918 0.626863 59.6629 0.215855 58.8526C-0.242127 57.9365 0.0749374 57.1496 0.732551 56.4685C1.01439 56.0222 1.47237 55.987 1.94209 55.9752C7.94282 56.1514 13.9435 56.0927 19.9443 56.0574C21.4591 56.0457 22.974 55.8813 24.4889 55.9635C29.1978 56.2101 33.9186 56.0105 38.6276 56.0927C39.1208 56.856 38.9094 58.8995 38.2753 59.4985C38.1343 59.6277 37.9934 59.7569 37.7703 59.7216C39.931 59.7099 42.08 59.7099 44.2408 59.7216C44.5461 59.6982 44.8749 59.6394 45.1332 59.8861Z" fill="#9AC3F8"/>
<path d="M27.671 10.9124C26.7903 10.8184 26.0152 11.2882 25.158 11.3939C23.5961 11.5935 22.0461 11.617 20.5194 11.1473C19.8853 10.9476 19.2277 10.8419 18.5583 10.8654C16.9261 10.9241 15.6226 12.1808 15.5756 13.8132C15.5404 14.9054 15.5639 15.9976 15.5639 17.0899C15.5639 18.4992 15.0706 18.8633 13.7554 18.4405C13.6615 18.417 13.5675 18.4052 13.4736 18.3817C12.6985 18.3935 12.0409 18.0764 11.4773 17.5831C11.125 17.2778 10.9371 16.8432 10.984 16.3852C11.1954 14.6588 11.0193 12.9324 11.078 11.2177C11.078 11.159 11.0897 11.1003 11.1015 11.0416C11.3129 7.18944 13.685 4.34732 17.3488 3.58394C17.8185 3.48999 18.3117 3.43127 18.805 3.43127C21.9639 3.41952 25.1227 3.41952 28.2934 3.41952C28.4813 3.41952 28.6809 3.38429 28.8571 3.50173C28.6457 3.73662 28.3521 3.66615 28.0937 3.66615C27.1426 3.6779 26.1914 3.66615 25.2402 3.66615C25.2049 3.90104 25.3811 3.9715 25.475 4.0772C26.8842 5.73314 27.6358 7.65921 27.8002 9.82016C27.8354 10.2547 27.8824 10.6188 28.3991 10.7127C28.493 10.7245 28.54 10.8419 28.446 10.9359C28.176 11.1003 27.9176 11.0885 27.671 10.9124Z" fill="#756E78"/>
<path d="M28.4929 10.8772C27.7413 10.8654 27.6826 10.4309 27.6356 9.7732C27.4477 7.40086 26.5435 5.32212 24.6881 3.50175C26.1795 3.50175 27.5299 3.50175 28.8687 3.50175C30.2543 3.65443 31.323 4.80537 31.4287 6.24992C31.4874 7.11899 31.7927 7.42435 32.6617 7.48307C34.2705 7.58877 35.3391 8.58703 35.5622 10.2195C35.6092 11.8519 35.574 13.4844 35.5857 15.1169C35.5857 15.4692 35.5857 15.8098 35.6679 16.1503C35.8088 16.808 35.4565 17.4892 34.8342 17.865C34.3409 18.1586 33.8008 18.3113 33.2723 18.4992C33.1666 18.5344 33.0492 18.5697 32.9435 18.6049C31.7457 19.016 31.0764 18.5814 30.9472 17.313C30.9002 16.8315 30.9237 16.3383 30.9942 15.8567C31.1233 14.9642 31.0646 14.0599 30.8532 13.1908C30.6301 12.263 30.0312 11.6171 29.1622 11.2412C28.9156 11.1473 28.6338 11.1121 28.4929 10.8772Z" fill="#665E66"/>
<path d="M1.76623 56.1161C1.36692 56.0691 1.07332 56.3158 0.744478 56.4567C0.767966 54.1313 0.580058 51.7825 1.08506 49.4806C1.60181 47.1083 2.56484 44.9473 4.12683 43.0682C4.34997 43.9256 4.25602 44.8181 4.31474 45.6872C4.49091 48.2944 4.58486 50.9017 4.71405 53.5089C4.76102 54.3427 4.808 55.1766 4.85498 56.0222C4.05637 56.1396 3.24601 56.0457 2.43565 56.0809C2.22426 56.0809 1.98937 56.0222 1.76623 56.1161Z" fill="#FECF64"/>
<path d="M41.8214 56.0104C41.9506 53.3915 42.0798 50.7607 42.2207 48.1418C42.3147 46.4506 42.4439 44.7594 42.5496 43.08C44.0059 44.7829 44.9102 46.7677 45.4739 48.9169C45.9085 50.5728 45.9907 52.2523 45.9554 53.9552C45.9319 54.789 45.9437 55.6346 45.9437 56.4685C45.5091 56.5624 45.1686 56.2336 44.7575 56.2336C44.0176 56.1396 43.2777 56.2218 42.5378 56.1866C42.2795 56.1631 42.0211 56.2218 41.8214 56.0104Z" fill="#FECF64"/>
<path d="M44.8871 56.1044C45.2864 56.0809 45.5917 56.3041 45.9206 56.4567C46.9306 57.6547 46.8719 58.8643 45.7679 59.6277C45.58 59.7686 45.3686 59.8743 45.122 59.8743C42.6204 59.8743 40.1307 59.8743 37.6291 59.8743C37.6409 59.6629 37.817 59.6277 37.9227 59.5455C38.4277 59.2049 38.6626 58.7116 38.6744 58.1127C38.6861 57.455 38.6744 56.7856 38.6744 56.1279C38.8975 56.0105 39.1324 56.0692 39.3555 56.0692C41.2111 56.0927 43.055 56.034 44.8871 56.1044Z" fill="#7FB1F8"/>
<path d="M33.1788 18.3935C33.5076 18.2761 33.8247 18.1469 34.1536 18.0295C35.1871 17.6536 35.5512 17.1134 35.5512 16.0094C35.5394 14.0834 35.5512 12.1573 35.5512 10.2312C35.6921 10.4661 35.6216 10.7245 35.6216 10.9711C35.6334 12.4392 35.6334 13.8955 35.6216 15.3635C35.6216 15.6806 35.6568 15.8802 36.0092 16.0329C36.796 16.3618 37.1836 16.996 37.1719 17.8768C37.1601 19.1804 37.1601 20.4958 37.1601 21.7994C36.9722 22.8798 36.1853 23.2557 35.2458 23.4553C34.5294 23.4553 33.8013 23.6667 33.1201 23.3026C33.0261 23.15 32.9909 22.9738 32.9909 22.7976C32.9792 21.5175 32.9792 20.2491 32.9909 18.969C32.9909 18.7693 33.0261 18.5579 33.1788 18.3935Z" fill="#9AC3F8"/>
<path d="M11.1138 11.0416C11.1255 12.6388 11.149 14.2243 11.1373 15.8215C11.1255 17.1839 11.4074 17.6184 12.6758 18.0647C12.9459 18.1586 13.216 18.2761 13.4744 18.3818C13.4744 20.026 13.4744 21.6584 13.4744 23.3026C12.664 23.2792 11.8419 23.4083 11.0316 23.2322C10.0685 23.009 9.50482 22.2926 9.49307 21.3179C9.48133 20.1669 9.49307 19.016 9.49307 17.8768C9.49307 17.0077 9.88064 16.3735 10.6675 16.0329C10.9729 15.9037 11.0551 15.7276 11.0433 15.4222C11.0316 14.1538 11.0316 12.8855 11.0433 11.6288C11.0551 11.4174 10.9963 11.2178 11.1138 11.0416Z" fill="#9AC3F8"/>
<path d="M28.3758 31.2887C25.992 32.5923 23.4907 32.9329 20.8485 32.2283C23.1501 31.2887 25.1347 29.9734 26.3912 27.7537C26.4499 27.7537 26.5204 27.7537 26.5556 27.8007C27.1193 28.6463 27.9648 28.6932 28.869 28.6815C29.738 28.6697 30.607 28.705 31.382 28.1882C31.4877 28.2 31.5699 28.2352 31.5582 28.3526C30.8419 29.5271 29.7967 30.3492 28.6694 31.0891C28.552 31.1478 28.4698 31.2183 28.3758 31.2887Z" fill="#FECABD"/>
<path d="M42.679 12.9911C42.7847 12.8737 42.9256 12.8972 43.0665 12.8972C44.9221 12.8972 46.766 12.8972 48.6216 12.8972C48.7625 12.8972 48.9034 12.8854 48.9974 13.0029C48.2575 13.4022 47.9874 14.1656 47.5763 14.8232C46.6955 16.2678 45.8264 17.7241 44.9573 19.1804C44.7694 19.4975 44.5815 19.8498 44.1 19.7089C43.6655 19.5679 43.7007 19.1921 43.7007 18.8398C43.7007 17.5127 43.6772 16.1856 43.7125 14.8585C43.7359 14.0129 43.4423 13.3787 42.679 12.9911Z" fill="#94D5A3"/>
<path d="M31.5466 28.3527C31.4996 28.3174 31.4526 28.2822 31.4057 28.2352C31.4996 27.6597 31.5936 27.096 31.6053 26.5088C31.8754 26.2387 32.2278 26.3326 32.5566 26.3092C32.8502 26.3092 33.1438 26.3209 33.4374 26.3092C34.5297 26.2739 35.1991 25.5928 35.2461 24.5005C35.2695 24.1012 35.1404 23.6784 35.4105 23.3144C36.2326 23.0795 36.855 22.6097 37.1721 21.7993C37.1721 22.8094 37.1721 23.8311 37.1721 24.8411C37.1721 26.638 35.5631 28.2117 33.7663 28.247C33.0146 28.2587 32.2747 28.1178 31.5466 28.3527Z" fill="#DAE7F8"/>
<path d="M52.1558 7.83537C53.3418 7.83537 54.5279 7.85886 55.7139 7.84712C56.2658 7.84712 56.6886 7.99979 56.8178 8.57526C56.9352 9.12724 56.6299 9.45608 56.1367 9.63225C52.0501 9.63225 47.9517 9.6205 43.8651 9.6205C43.6185 9.6205 43.3484 9.67923 43.1253 9.52655C42.82 9.31515 42.6204 9.02155 42.6791 8.63398C42.7378 8.22293 42.9961 7.96456 43.3954 7.88235C43.5833 7.83537 43.7829 7.85886 43.9826 7.85886C46.6952 7.84712 49.4314 7.83537 52.1558 7.83537Z" fill="#F1F8FE"/>
<path d="M56.1376 3.60744C56.6308 3.79535 56.9362 4.12419 56.8187 4.66442C56.7013 5.20466 56.302 5.39257 55.7735 5.39257C54.5638 5.39257 53.3659 5.40431 52.1563 5.40431C50.8174 5.39257 49.4668 5.40431 48.128 5.38082C47.3411 5.36908 46.9183 4.72314 47.2589 4.07721C47.4703 3.6779 47.8344 3.60744 48.2571 3.60744C50.6765 3.61918 53.084 3.60744 55.5034 3.60744C55.7148 3.63093 55.9262 3.61918 56.1376 3.60744Z" fill="#F1F8FE"/>
<path d="M44.0646 3.61919C45.0159 3.61919 45.4387 3.87756 45.4505 4.47652C45.4739 5.08722 44.9924 5.39257 44.0529 5.39257C43.9002 5.39257 43.7475 5.40432 43.5831 5.39257C43.0194 5.35734 42.6436 4.96978 42.6671 4.46477C42.6905 3.98326 43.0664 3.64267 43.5949 3.61919C43.7475 3.61919 43.9002 3.61919 44.0646 3.61919Z" fill="#F1F8FE"/>
<path d="M44.8869 56.1044C42.8201 56.1162 40.7533 56.1279 38.6748 56.1279C26.6381 56.1279 14.6014 56.1279 2.57647 56.1279C2.30638 56.1279 2.03629 56.1161 1.75446 56.1161C2.55299 55.9282 3.36326 56.0809 4.16179 56.0339C4.39665 56.0222 4.61977 56.0222 4.85464 56.0104C9.95114 56.0104 15.0359 56.0104 20.1324 56.0104C20.8957 56.0104 20.9897 55.9048 20.8487 55.1061C20.6256 53.8495 20.1089 52.7338 19.2634 51.7708C17.5724 49.8212 17.3376 47.3784 18.6176 45.1705C19.0403 44.4306 19.651 43.8669 20.3555 43.3853C20.5669 43.2327 20.8253 43.1622 21.0719 43.2914C21.342 43.4323 21.342 43.6907 21.3302 43.9608C21.3302 45.1705 21.3302 46.3801 21.3302 47.5898C21.3302 48.5411 21.7765 48.9756 22.7276 48.9756C23.1739 48.9756 23.6201 48.9874 24.0781 48.9756C24.8414 48.9521 25.3111 48.4941 25.3111 47.719C25.3229 46.4741 25.3111 45.2175 25.3111 43.9726C25.3111 43.2444 25.7221 42.9978 26.321 43.3971C29.0689 45.2175 29.7383 48.9756 27.5071 51.6063C26.5911 52.6868 26.0275 53.873 25.7926 55.2471C25.6752 55.9048 25.7691 55.9987 26.4267 55.9987C28.9045 55.9987 31.3823 55.9987 33.8601 55.9987C36.5023 55.9987 39.1562 55.9987 41.7984 55.9987C42.6322 56.0104 43.466 56.0105 44.2997 56.0222C44.5111 56.0339 44.7107 55.987 44.8869 56.1044Z" fill="#BBD5F8"/>
<path d="M32.5806 26.4736C32.2635 26.5323 31.9112 26.3561 31.6293 26.6028C31.6058 26.6028 31.5823 26.6028 31.5706 26.6028C30.7602 25.6985 29.6797 25.8159 28.6228 25.8159C28.1882 25.8159 27.7419 25.9333 27.3074 25.7572C28.0708 20.8246 27.4718 15.8567 27.6597 10.9124C27.9299 10.9007 28.2117 10.8889 28.4818 10.8772C30.2317 11.3117 31.1008 12.4157 31.136 14.283C31.1478 15.1756 31.1008 16.0681 31.1008 16.9607C31.1008 18.5344 31.5236 18.8515 33.0034 18.4053C33.0621 18.3935 33.1208 18.3935 33.1795 18.3818C33.1913 20.0142 33.1913 21.6584 33.203 23.2909C33.4849 23.7959 33.297 24.3126 33.203 24.8176C33.0973 25.4048 33.0504 26.0273 32.5806 26.4736Z" fill="#FECABD"/>
<path d="M27.3074 25.7572C28.3644 25.5693 29.4213 25.6397 30.4783 25.7102C31.0068 25.7454 31.3474 26.1682 31.6175 26.6028C31.8407 27.19 31.7115 27.7302 31.3944 28.2352C30.9363 28.6815 30.3844 28.8459 29.7384 28.8224C29.2687 28.7989 28.7989 28.7989 28.3409 28.8224C27.46 28.8812 26.7906 28.5641 26.3796 27.7537C26.2621 26.8964 26.4735 26.18 27.3074 25.7572Z" fill="#DA636E"/>
</svg>
