<svg width="60" height="61" viewBox="0 0 60 61" fill="none" xmlns="http://www.w3.org/2000/svg">
<path d="M38.4874 4.2063C38.4874 3.1376 38.4996 2.06889 38.4874 1.00019C38.4752 0.577408 38.5847 0.236833 38.9618 0.00195312C40.7865 0.00195312 42.5989 0.00195312 44.4236 0.00195312C44.6547 0.119393 44.9102 0.248577 44.9223 0.530432C44.971 1.59913 45.1048 2.67958 44.8372 3.74828C44.5817 3.97142 44.2655 3.9127 43.9735 3.87747C43.2437 3.78351 42.526 3.76003 41.8083 3.9127C40.9446 3.95967 40.0809 4.11235 39.2294 4.27676C38.974 4.32374 38.7185 4.42943 38.4874 4.2063Z" fill="#FECF64"/>
<path d="M44.7891 3.73654C44.7891 2.844 44.7648 1.95145 44.8013 1.05891C44.8134 0.647872 44.7283 0.295553 44.4242 0.00195312C45.2392 0.00195312 46.042 0.00195312 46.8571 0.00195312C47.2342 0.248577 47.3193 0.600896 47.3193 1.01194C47.3193 2.04541 47.3193 3.06713 47.3193 4.1006C47.295 4.15932 47.2706 4.22979 47.2098 4.22979C46.3826 4.15932 45.5311 4.17107 44.7891 3.73654Z" fill="#FEC150"/>
<path d="M36.8943 59.9785C36.6754 59.9902 36.4443 59.9902 36.2253 59.9902C24.7544 59.9902 13.2956 59.9902 1.82465 59.9902C0.474408 59.9902 0 59.5439 0 58.2521C0 47.4359 0 36.6197 0 25.8035C0 24.5116 0.486572 24.0419 1.82465 24.0419C6.76336 24.0419 11.6899 24.0536 16.6286 24.0536C16.8719 24.2885 16.8111 24.5938 16.8111 24.8874C16.8232 26.285 16.8111 27.6943 16.8111 29.0918C16.8111 30.0196 16.9692 30.1605 17.9424 30.1722C18.6844 30.184 19.4386 30.1722 20.1806 30.1722C20.801 30.1957 21.4092 30.1722 22.0296 30.184C22.4432 30.184 22.7716 30.0548 22.9176 29.6438C23.027 29.4206 23.0027 29.1857 23.0027 28.9626C23.0027 27.5651 23.0027 26.1793 23.0027 24.7818C23.0027 24.5351 22.9541 24.2768 23.1487 24.0536C24.2556 24.0419 25.3504 24.0301 26.4574 24.0184C26.6885 23.8187 26.9804 23.8305 27.2602 23.8305C30.8122 23.8305 34.352 23.8187 37.904 23.8305C38.2081 23.8305 38.5609 23.7483 38.7433 24.1241C38.4027 24.4294 37.977 24.2885 37.5877 24.3237C37.2958 24.3472 36.9917 24.2885 36.6267 24.3707C37.1011 24.8992 37.1011 25.5216 37.1011 26.1441C37.1011 37.066 37.1011 47.9879 37.1011 58.9098C37.089 59.2738 37.1741 59.6614 36.8943 59.9785Z" fill="#FECF64"/>
<path d="M38.7188 24.1359C38.4877 23.948 38.2201 24.0302 37.9646 24.0302C34.1328 24.0302 30.2889 24.0302 26.4572 24.0302C26.3599 22.9145 26.0922 21.8223 26.0679 20.6832C26.0314 19.2269 26.1287 17.7941 26.4693 16.3731C27.114 13.672 28.4035 11.2997 30.3133 9.22103C32.442 6.90746 35.0087 5.31028 38.0741 4.406C38.2201 4.35902 38.4025 4.35902 38.4877 4.20635C39.3148 4.07716 40.142 3.94798 40.9814 3.83054C41.2368 3.79531 41.5044 3.78356 41.7599 3.77182C46.2728 4.13588 49.8613 6.16759 52.7807 9.42067C54.8973 11.7812 56.1502 14.5411 56.649 17.618C56.7341 18.1465 56.9166 18.6867 56.7098 19.2269C56.6612 19.2621 56.6003 19.2856 56.5395 19.2974C56.0408 19.2856 55.542 19.2034 55.0555 19.3443C54.6662 19.5205 54.3743 19.7906 54.4716 20.2369C54.5811 20.7184 54.9946 20.8123 55.4447 20.8241C55.8218 20.8358 56.1989 20.7771 56.576 20.8828C56.8436 21.0237 56.8193 21.2586 56.795 21.4935C56.3935 25.5217 54.7149 28.9744 51.7711 31.8164C49.5207 34.0008 46.7837 35.4453 43.6575 36.1617C43.025 36.3026 42.3802 36.2674 41.7599 36.4318C41.3098 36.3731 40.8475 36.3379 40.3975 36.2439C39.9717 36.15 39.8014 36.2439 39.8136 36.6902C39.8379 37.8763 39.8257 39.0625 39.8257 40.2604C39.8257 46.2615 39.8257 52.2627 39.8257 58.2639C39.8257 58.487 39.8987 58.7336 39.7284 58.9333C39.4122 58.628 39.5216 58.2404 39.5216 57.8763C39.5095 52.1218 39.5216 46.3672 39.5216 40.6127C39.5216 35.8329 39.5095 31.0531 39.5338 26.2733C39.5095 25.4512 39.4608 24.6878 38.7188 24.1359Z" fill="#F8F5F5"/>
<path d="M56.6734 19.2269C56.3936 15.6215 55.1529 12.4037 52.7322 9.59684C50.5913 7.11886 47.9273 5.43947 44.7767 4.44123C43.7914 4.12415 42.7575 3.99496 41.7478 3.77183C42.7575 3.50172 43.7671 3.74834 44.7767 3.74834C45.6282 3.84229 46.4432 4.1124 47.3069 4.1124C47.903 4.53519 48.645 4.61739 49.314 4.88751C54.9461 7.20107 58.4129 11.288 59.6537 17.0308C60.42 20.554 59.897 24.0067 58.2548 27.248C56.6126 30.4894 54.1189 32.9791 50.7981 34.6468C48.9734 35.5628 47.015 36.15 44.9349 36.3614C43.8644 36.4788 42.8061 36.4084 41.7357 36.4553C42.3925 36.1382 43.1346 36.1617 43.8279 35.9856C46.4432 35.3162 48.7545 34.1418 50.8224 32.4389C53.1579 30.5129 54.7271 28.1171 55.7733 25.369C56.272 24.0537 56.4788 22.6679 56.6613 21.2821C56.6734 21.1647 56.6491 21.0472 56.5275 20.9768C56.5153 20.8946 56.5518 20.8241 56.6004 20.7654C57.1235 20.1547 57.1235 20.1077 56.6856 19.3913C56.6613 19.3326 56.6491 19.2856 56.6734 19.2269Z" fill="#DCD9EB"/>
<path d="M38.7192 24.1358C39.4613 24.3942 39.7045 24.723 39.7045 25.5451C39.7167 27.8822 39.7045 30.2192 39.7045 32.568C39.7045 41.3643 39.7045 50.1605 39.6924 58.945C39.3518 59.7553 38.999 60.002 38.0989 60.002C37.6974 60.002 37.296 59.9902 36.8946 59.9902C36.8946 48.6103 36.8946 37.2304 36.8946 25.8505C36.8946 25.1928 36.7851 24.6056 36.1647 24.1476C37.0162 24.1358 37.8677 24.1358 38.7192 24.1358Z" fill="#FEC150"/>
<path d="M23.1611 24.0536C23.1611 25.8387 23.1733 27.612 23.1733 29.3971C23.1733 29.5263 23.1976 29.6672 23.076 29.7729C22.8327 29.538 22.8813 29.2327 22.8813 28.9391C22.8692 27.6355 22.8813 26.3202 22.8692 25.0166C22.8692 24.3707 22.8084 24.3237 22.1393 24.312C20.9472 24.2885 20.9472 24.2885 20.9472 25.4629C20.9472 26.7312 20.9472 27.9996 20.9472 29.2679C20.9472 29.7612 20.7891 30.1487 20.2782 30.3366C19.3537 30.3366 18.4292 30.3484 17.4925 30.3484C16.933 30.3484 16.6046 30.0783 16.6046 29.538C16.6046 27.706 16.6167 25.8857 16.6289 24.0536C18.8063 24.0536 20.9837 24.0536 23.1611 24.0536Z" fill="#26457D"/>
<path d="M28.3913 55.093C27.4547 55.1634 26.8221 54.5528 26.2139 53.9186C25.9828 53.672 26.2139 53.5428 26.3599 53.3901C27.5277 52.2862 28.6954 51.1822 29.8875 50.09C30.1916 49.8199 30.1673 49.6555 29.8754 49.3972C28.7198 48.3402 27.5885 47.248 26.4329 46.191C26.1044 45.8857 26.1044 45.7213 26.4329 45.4042C27.8318 44.0419 29.1455 44.0184 30.5687 45.369C31.5784 46.3202 32.588 47.2715 33.6098 48.211C34.7411 49.2445 34.7654 50.1605 33.6585 51.2057C32.5272 52.2744 31.3959 53.3196 30.2646 54.3766C29.6807 54.9403 29.255 55.1047 28.3913 55.093Z" fill="#F8F5F5"/>
<path d="M16.8844 47.5768C16.8844 49.0448 16.8844 50.5128 16.8844 51.9925C16.8844 52.4975 16.6898 52.8733 16.1545 52.979C15.5098 53.1082 15.0476 52.7089 15.0354 52.016C15.0233 50.7242 15.0354 49.4441 15.0354 48.1523C15.0354 47.9644 15.0354 47.7647 15.0354 47.4241C14.6827 47.753 14.4272 48.0113 14.1596 48.2462C13.6487 48.7042 13.1256 48.7395 12.7242 48.3402C12.3349 47.9526 12.3836 47.4124 12.8702 46.9544C13.6365 46.2028 14.415 45.4629 15.1936 44.7348C15.7166 44.2415 16.2154 44.2298 16.7263 44.7113C17.5413 45.4746 18.3441 46.238 19.1348 47.0131C19.5727 47.4359 19.5727 47.9996 19.1834 48.3636C18.7942 48.7277 18.2955 48.716 17.8332 48.3167C17.5534 48.07 17.2736 47.8117 16.9939 47.5651C16.9817 47.5416 16.9574 47.5533 16.8844 47.5768Z" fill="#26457D"/>
<path d="M8.62405 47.5651C8.62405 49.0213 8.62405 50.4893 8.62405 51.9456C8.62405 52.4271 8.46591 52.8029 7.97934 52.9556C7.3468 53.167 6.77507 52.7559 6.76291 52.0513C6.73858 50.7477 6.75075 49.4324 6.75075 48.1288C6.75075 47.9409 6.75075 47.753 6.75075 47.5651C6.68992 47.5299 6.64127 47.4829 6.58045 47.4476C6.32499 47.7295 6.08171 48.0466 5.80193 48.305C5.32752 48.7277 4.78013 48.716 4.40303 48.3167C4.0381 47.9291 4.06243 47.4476 4.50035 47.0131C5.31536 46.2263 6.13037 45.4394 6.95754 44.6643C7.40762 44.2415 7.90635 44.2298 8.35643 44.6408C9.2201 45.4277 10.0716 46.238 10.8988 47.0601C11.288 47.4476 11.2637 47.9761 10.9231 48.3284C10.546 48.7042 10.0108 48.7277 9.57287 48.3284C9.28092 48.0583 9.03764 47.7412 8.78219 47.4476C8.73353 47.4946 8.68487 47.5299 8.62405 47.5651Z" fill="#26457D"/>
<path d="M20.2656 30.3484C20.6913 29.9843 20.7765 29.5263 20.7643 28.9978C20.74 27.5533 20.7643 26.1206 20.7521 24.676C20.7521 24.2767 20.8616 24.1358 21.2995 24.1358C23.0634 24.1241 23.0634 24.1006 23.0634 25.8152C23.0634 27.1423 23.0634 28.4576 23.0755 29.7847C22.9904 30.1957 22.7106 30.3601 22.3092 30.3601C21.628 30.3601 20.9468 30.3484 20.2656 30.3484Z" fill="#21386B"/>
<path d="M43.8157 18.4987C44.6186 18.0524 45.3241 17.6414 46.0418 17.2539C46.6622 16.9133 47.2461 17.0072 47.5137 17.5005C47.7813 17.9702 47.5867 18.487 47.0028 18.8158C45.835 19.4735 44.6672 20.1429 43.4873 20.777C42.6601 21.2233 41.9668 20.8475 41.9668 19.9432C41.9546 17.4652 41.9546 14.9873 41.9668 12.4975C41.9668 11.8516 42.3074 11.4876 42.8669 11.4758C43.4508 11.4641 43.8157 11.8516 43.8157 12.521C43.8279 14.4705 43.8157 16.42 43.8157 18.4987Z" fill="#26457D"/>
<path d="M56.6734 19.2268C57.4276 19.8845 57.3789 20.4365 56.5396 20.9767C56.1503 20.9767 55.7732 20.9767 55.384 20.9884C54.8244 21.0119 54.4108 20.8123 54.2892 20.272C54.1675 19.7318 54.4595 19.3795 54.9826 19.1916C55.5056 19.1564 56.0287 19.1329 56.5518 19.2033C56.6004 19.2033 56.6369 19.2151 56.6734 19.2268Z" fill="#21386B"/>
<path d="M42.0644 32.3214C42.0522 31.3936 42.3563 30.9591 42.9889 30.9591C43.6214 30.9591 43.9377 31.4053 43.9377 32.3096C43.9377 32.5093 43.9499 32.6972 43.9377 32.8968C43.9012 33.437 43.5241 33.7776 43.0132 33.7894C42.4901 33.7894 42.1374 33.4723 42.0887 32.9086C42.0522 32.7089 42.0644 32.5093 42.0644 32.3214Z" fill="#22386B"/>
<path d="M30.2406 20.965C30.0216 20.965 29.7905 21.0003 29.5715 20.9533C29.0728 20.8593 28.7808 20.5422 28.793 20.049C28.8052 19.5675 29.0849 19.2387 29.608 19.1917C29.9851 19.1565 30.3744 19.1682 30.7515 19.1799C31.3597 19.2034 31.7124 19.5557 31.7124 20.0842C31.7003 20.601 31.3232 20.9415 30.715 20.965C30.5568 20.9768 30.3987 20.9768 30.2406 20.965C30.2406 20.965 30.2406 20.9768 30.2406 20.965Z" fill="#21386B"/>
<path d="M43.925 7.78821C43.925 7.9996 43.9615 8.22274 43.9128 8.43413C43.8155 8.90389 43.4992 9.19749 42.9883 9.18574C42.4774 9.174 42.149 8.91563 42.0882 8.41064C42.0517 8.02309 42.0517 7.63554 42.076 7.24799C42.1125 6.71951 42.5139 6.35544 43.0127 6.36719C43.5114 6.37893 43.8885 6.75474 43.9371 7.27148C43.9371 7.43589 43.9371 7.61205 43.925 7.78821Z" fill="#21386B"/>
<path d="M56.5516 19.2034C56.0285 19.2034 55.5054 19.1917 54.9824 19.1917C55.5054 19.039 56.0285 19.0155 56.5516 19.2034Z" fill="#DCD9EB"/>
</svg>
