<svg width="52" height="61" viewBox="0 0 52 61" fill="none" xmlns="http://www.w3.org/2000/svg">
<path d="M22.3754 59.9902C17.9262 58.029 13.4769 56.0795 9.64989 52.9908C8.75769 52.2627 7.91246 51.4876 7.16113 50.6185C7.21983 50.2897 7.50158 50.3366 7.71289 50.3366C9.20379 50.3719 10.683 50.1487 12.1621 50.0078C12.2208 50.0078 12.2913 50.0196 12.35 50.043C13.2187 50.595 14.0052 51.2762 14.9091 51.7929C17.3862 53.2022 19.9454 54.447 22.4928 55.7271C22.892 55.9268 23.338 55.9503 23.7372 55.7389C26.1672 54.494 28.6677 53.3901 31.0274 52.0043C31.3209 52.0043 31.3326 52.2744 31.4148 52.4506C31.8256 53.2726 32.2952 54.0477 32.8587 54.7759C32.9526 54.999 33.2226 55.1399 33.1874 55.4335C31.6496 56.42 29.9708 57.1599 28.339 57.9937C26.9303 58.7101 25.5451 59.5204 24.0307 60.0019C23.4672 59.9902 22.9154 59.9902 22.3754 59.9902Z" fill="#F2D232"/>
<path d="M12.2912 50.1487C10.6711 50.3719 9.05109 50.5598 7.40757 50.5128C7.3254 50.5128 7.24322 50.5833 7.1493 50.6185C4.42576 47.659 2.45354 44.2768 1.23264 40.4365C0.434358 37.9115 0 35.3278 0 32.6854C0 24.8287 0 16.9837 0 9.13877C0 7.9996 0.328704 7.63554 1.47917 7.60031C3.96792 7.50636 5.84623 6.47289 6.99669 4.2063C7.46627 3.27852 7.51323 2.2568 7.5954 1.24681C7.6541 0.401248 8.07672 0.00195312 8.95718 0.00195312C12.5494 0.00195312 16.1417 0.00195312 19.734 0.00195312C25.545 0.00195312 31.3677 0.00195312 37.1787 0.00195312C38.3409 0.00195312 38.7636 0.424736 38.7753 1.58739C38.787 4.53513 40.5832 6.80172 43.4358 7.43589C43.9406 7.55333 44.4806 7.56508 44.9972 7.60031C45.9246 7.65903 46.2885 8.02309 46.2885 8.96261C46.2885 12.615 46.2181 16.2674 46.312 19.9197C46.4177 24.1006 46.3355 28.2697 46.3707 32.4506C46.3707 32.7794 46.4411 33.12 46.2885 33.4253C46.0655 33.2257 46.1124 32.9673 46.1124 32.7089C46.1124 29.0566 46.1124 25.4159 46.1124 21.7635C46.1124 21.4934 46.1476 21.2116 46.2181 20.9532C46.042 21.928 45.5607 22.797 45.1498 23.6778C44.5041 25.0753 43.835 26.4611 43.0484 27.7882C42.8958 28.0466 42.7902 28.3754 42.391 28.3637C42.168 28.0701 42.2384 27.7295 42.2384 27.4007C42.2384 22.3625 42.2384 17.3243 42.2384 12.2862C42.2384 11.3584 42.2267 11.3701 41.3697 11.053C38.294 9.92562 36.2161 7.82344 35.183 4.71129C35.0069 4.18281 34.7487 4.01839 34.2204 4.01839C26.8598 4.03014 19.5109 4.03014 12.1503 4.01839C11.5868 4.01839 11.3285 4.21804 11.1524 4.74652C10.0489 7.9174 7.91237 10.0783 4.71925 11.147C4.22619 11.3114 4.0501 11.558 4.0501 12.063C4.06184 18.9685 3.95618 25.8857 4.08532 32.7911C4.17923 38.5222 6.19841 43.5486 10.0959 47.7882C10.6946 48.4341 11.3638 48.9978 11.9742 49.632C12.1151 49.7847 12.3381 49.8786 12.2912 50.1487Z" fill="#F6E265"/>
<path d="M32.7646 54.8463C32.0133 54.0125 31.532 53.026 31.0624 52.0278C30.7337 51.8399 30.6985 51.4876 30.6163 51.1705C29.6889 47.8234 30.1702 44.676 32.0955 41.7753C32.2364 41.5639 32.4125 41.376 32.5181 41.1528C33.0347 40.5422 33.6334 40.0137 34.2086 39.45C35.676 38.3108 37.3078 37.524 39.1509 37.1834C40.0783 37.019 41.0057 36.925 41.9449 36.9955C43.0132 37.1482 44.0932 37.2891 45.1028 37.7236C45.3141 37.8176 45.5371 37.888 45.678 38.0994C46.5232 38.6044 47.4154 39.0389 48.1433 39.7201C48.965 40.9649 49.5403 42.3155 49.822 43.7952C51.0312 49.9608 46.7815 55.915 40.5479 56.7723C38.0239 57.1247 35.6525 56.6784 33.4573 55.3748C33.2107 55.2221 32.9994 55.0225 32.7646 54.8463Z" fill="#A1F4C2"/>
<path d="M32.7646 54.8463C33.5864 55.1399 34.279 55.7036 35.1008 55.9972C37.9535 57.0425 40.7709 56.9837 43.5414 55.7271C46.3119 54.4705 48.2255 52.3801 49.235 49.5381C50.3738 46.3437 50.0568 43.2315 48.3311 40.2838C48.2372 40.1194 47.8968 39.9902 48.1433 39.7083C51.1251 42.3155 52.3812 45.5803 51.8999 49.5028C51.3481 53.9773 47.932 57.7471 43.3419 58.6396C39.6557 59.356 36.3686 58.4048 33.5981 55.8093C33.4573 55.6802 33.3047 55.551 33.1638 55.4218C33.0347 55.2339 32.8938 55.046 32.7646 54.8463Z" fill="#87F1A8"/>
<path d="M45.678 38.0994C44.4688 37.6179 43.2127 37.3126 41.9214 37.1482C41.804 36.9955 41.7922 36.8193 41.8392 36.6432C42.3323 34.2709 42.2031 31.8516 42.2149 29.4559C42.2149 29.221 42.2266 28.9861 42.2383 28.763C42.2501 28.6103 42.2736 28.4694 42.4027 28.3637C42.9075 27.8822 43.1658 27.2363 43.471 26.6491C44.4688 24.7348 45.4432 22.8088 46.265 20.7771C46.265 24.9932 46.265 29.2092 46.265 33.4253C46.265 34.999 46.0536 36.561 45.678 38.0994Z" fill="#F2D232"/>
<path d="M42.4028 28.3637C42.4028 28.4811 42.3911 28.5986 42.3911 28.716C41.3111 30.689 39.9493 32.4506 38.564 34.2004C37.9888 34.9286 37.3549 35.6215 36.7444 36.3144C36.627 36.4553 36.5096 36.7019 36.2514 36.4905C36.2044 36.2439 36.3453 36.0325 36.4275 35.8211C37.2844 33.8011 37.754 31.6872 37.6484 29.5028C37.4488 25.4159 35.8405 21.9632 32.8235 19.1916C30.5108 17.1834 27.846 15.9385 24.782 15.6097C20.7671 15.1752 17.1631 16.2087 14.0404 18.7571C11.0351 21.2351 9.23898 24.4177 8.80462 28.305C8.3233 32.5445 9.52072 36.2791 12.2795 39.5205C14.6274 42.1511 17.527 43.76 21.0254 44.312C22.9271 44.6173 24.7937 44.4764 26.6485 44.0536C26.8951 43.9949 27.1299 43.8775 27.3881 44.0184C27.4938 44.3355 27.2355 44.4294 27.0594 44.5469C22.751 47.2715 18.1375 49.2445 13.113 50.1605C12.8782 50.2075 12.6551 50.2427 12.4204 50.1605C12.3734 50.1605 12.3382 50.1605 12.2912 50.1605C10.7181 48.7395 9.23898 47.2363 8.00634 45.4864C5.9402 42.5269 4.68408 39.2503 4.12059 35.7037C3.95624 34.6702 3.87406 33.6132 3.87406 32.568C3.85059 25.6743 3.87406 18.7806 3.85059 11.8986C3.85059 11.4054 3.99146 11.2057 4.47277 11.053C7.84199 9.99609 10.0255 7.71776 11.0703 4.37072C11.1877 3.98317 11.3403 3.88922 11.7043 3.88922C19.3349 3.90097 26.9655 3.90097 34.5961 3.88922C34.9483 3.88922 35.1244 3.98317 35.2183 4.33549C36.2044 7.76474 38.4466 9.98435 41.8276 11.053C42.2972 11.2057 42.3911 11.4171 42.3911 11.8634C42.3911 17.3478 42.4028 22.8557 42.4028 28.3637Z" fill="#E59542"/>
<path d="M12.4204 50.1487C13.6061 49.8669 14.8035 49.6672 15.9775 49.3384C18.9123 48.5281 21.7063 47.4006 24.3594 45.9326C25.2986 45.4159 26.2025 44.8639 27.1182 44.312C27.2356 44.2415 27.3529 44.1828 27.4116 44.0419C27.4116 43.7718 27.6464 43.76 27.8225 43.7013C29.466 43.1493 30.957 42.3155 32.307 41.2351C32.4244 41.1411 32.5418 41.0237 32.7179 41.0706C32.6826 41.1646 32.6709 41.2585 32.6122 41.3408C30.1821 44.6291 29.7361 48.1992 31.0743 52.0278C30.8748 52.4036 30.4874 52.521 30.1587 52.6972C28.0925 53.7541 26.0147 54.7759 23.9485 55.8211C23.5024 56.0442 23.0328 56.1382 22.5985 55.915C19.6049 54.3883 16.5057 53.0378 13.6883 51.1705C13.2304 50.8769 12.7491 50.595 12.4204 50.1487Z" fill="#E28423"/>
<path d="M46.9692 48.0231C47.0514 51.0765 44.5744 53.8599 41.1817 53.8833C37.8829 53.9068 35.3237 51.1118 35.3237 48.0114C35.3237 44.9344 37.9299 42.1276 41.2521 42.1746C44.3631 42.1981 47.1336 44.9109 46.9692 48.0231Z" fill="#77D091"/>
<path d="M32.7061 41.0824C31.2269 42.386 29.5247 43.302 27.6699 43.9362C27.5759 43.9714 27.4938 44.0184 27.4116 44.0536C25.815 44.4177 24.2185 44.7348 22.575 44.6291C18.4309 44.3707 14.9209 42.7853 12.1738 39.6027C12.4673 39.4265 12.6551 39.6496 12.8547 39.7788C14.8152 41.1176 16.9518 41.9632 19.3114 42.1981C23.7372 42.6444 27.6464 41.4582 30.9334 38.3695C33.5396 35.9151 35.054 32.8969 35.4061 29.3384C35.7348 25.9914 35.0539 22.8557 33.1991 20.0137C33.023 19.7436 32.6708 19.497 32.9174 19.0859C35.4766 21.3408 37.0027 24.1828 37.6014 27.5299C38.1649 30.6772 37.6131 33.672 36.2983 36.5492C36.0518 37.4653 35.4883 38.1934 34.9248 38.9215C34.7252 39.1799 34.5022 39.4148 34.2322 39.6144C33.7274 40.1311 33.2461 40.6361 32.7061 41.0824Z" fill="#DCEAFC"/>
<path d="M34.2085 39.6144C35.0185 38.6749 35.6642 37.6297 36.2864 36.561C37.1551 35.7624 37.8829 34.8346 38.6225 33.9186C39.8786 32.3449 41.0761 30.7242 42.0974 28.9861C42.1678 28.8804 42.297 28.7982 42.3909 28.716C42.3909 30.4189 42.4378 32.11 42.3791 33.8129C42.3439 34.9403 42.1561 36.0442 41.9213 37.1482C39.4912 37.0777 37.2138 37.6062 35.1711 38.9685C34.8542 39.1799 34.5255 39.3913 34.2085 39.6144Z" fill="#E28523"/>
<path d="M32.9173 19.0977C33.0464 19.814 33.5747 20.319 33.9034 20.918C34.7017 22.3742 35.2182 23.9127 35.4647 25.5334C35.7347 27.3889 35.6995 29.2444 35.2769 31.0883C34.7956 33.2139 33.9034 35.1282 32.5651 36.8311C30.6985 39.2033 28.3389 40.8827 25.451 41.7988C24.2066 42.1863 22.927 42.3742 21.6239 42.4329C18.9591 42.5504 16.4703 41.9867 14.1225 40.7535C13.4533 40.4012 12.8898 39.8845 12.1737 39.6026C10.4128 37.6649 9.27408 35.3865 8.82798 32.8264C7.86535 27.4006 9.39147 22.75 13.4885 19.0272C18.5247 14.4353 26.3432 14.1182 31.8372 18.2051C32.2012 18.487 32.612 18.7218 32.9173 19.0977Z" fill="#ECF5FE"/>
<path d="M43.5882 46.9544C43.6116 47.2245 43.4942 47.4594 43.2829 47.659C42.6373 48.3049 41.9916 48.9626 41.3342 49.6085C40.8646 50.0548 40.4068 50.0548 39.9372 49.6203C39.5968 49.3032 39.2563 48.9743 38.9511 48.622C38.5754 48.211 38.5989 47.7412 38.9863 47.3772C39.3502 47.0248 39.8081 46.9896 40.172 47.4124C40.5711 47.8704 40.8059 47.7177 41.1229 47.3537C41.4633 46.9779 41.8272 46.6256 42.2029 46.285C42.4494 46.0618 42.7429 45.9914 43.0716 46.144C43.4003 46.3085 43.5882 46.5551 43.5882 46.9544Z" fill="#ECF5FE"/>
<path d="M23.9131 29.0331C25.0636 29.0918 26.2141 28.9039 27.3528 29.1858C29.4072 29.7025 30.8981 31.5815 30.9333 33.7072C30.945 34.4823 30.945 35.2691 30.9333 36.0442C30.9216 36.8311 30.4872 37.2656 29.6889 37.2774C29.1254 37.2891 28.5619 37.2774 27.9985 37.2774C27.7754 37.0307 27.8458 36.7254 27.8341 36.4435C27.8106 35.962 27.8928 35.4688 27.7519 34.9873C27.658 34.635 27.4115 34.4118 27.0241 34.4236C26.6602 34.4353 26.4489 34.6467 26.3549 34.9873C26.2258 35.4688 26.2962 35.962 26.2728 36.4435C26.261 36.7254 26.3315 37.0307 26.1084 37.2774C24.1244 37.2774 22.1287 37.2774 20.1448 37.2774C19.9452 37.1012 19.9804 36.8546 19.9804 36.6197C19.9687 36.1734 19.9922 35.7271 19.9687 35.2809C19.9335 34.7172 19.64 34.3883 19.2291 34.4118C18.8417 34.4353 18.5834 34.7524 18.56 35.2809C18.5365 35.7271 18.56 36.1734 18.5482 36.6197C18.5365 36.8428 18.5717 37.0895 18.3839 37.2774C17.7734 37.2774 17.1747 37.2891 16.5643 37.2774C15.8834 37.2656 15.3668 36.8428 15.3551 36.1734C15.3434 35.14 15.2494 34.1065 15.4373 33.073C15.8599 30.6772 17.7382 29.0683 20.1683 29.0331C20.9313 29.0213 21.6944 29.0213 22.4575 29.0213C22.9388 28.7982 23.4318 28.7982 23.9131 29.0331Z" fill="#E075A4"/>
<path d="M18.8535 26.3672C17.8439 24.4294 18.2078 22.1041 19.7457 20.6361C21.3305 19.1212 23.7371 18.8158 25.5567 19.908C26.1554 21.5169 26.0967 23.1024 25.1576 24.5469C23.8193 26.6021 21.671 27.3537 19.3701 26.649C19.1705 26.5903 19.0061 26.4964 18.8535 26.3672Z" fill="#FDD1A3"/>
<path d="M18.8535 26.3672C19.6283 26.5199 20.3796 26.7547 21.1897 26.7312C23.1971 26.6843 25.2867 24.9462 25.6506 22.9497C25.8032 22.1159 25.815 21.3055 25.5567 20.4834C25.5098 20.319 25.3102 20.0959 25.545 19.8962C28.562 21.4465 28.8907 25.9327 26.1554 27.9879C25.4745 28.5046 24.6997 28.7747 23.9015 29.0213C23.4201 29.0213 22.9388 29.0213 22.4458 29.0213C20.9783 28.6573 19.734 27.9761 18.9474 26.6256C18.9122 26.5551 18.8887 26.4611 18.8535 26.3672Z" fill="#FEBC86"/>
<path d="M26.1201 37.2656C26.1201 36.6079 26.1084 35.9385 26.1319 35.2809C26.1554 34.5762 26.5077 34.2004 27.0949 34.2122C27.6586 34.2239 27.9757 34.5997 27.9992 35.2809C28.0226 35.9385 27.9992 36.6079 28.0109 37.2656C27.365 37.3948 26.7426 37.3948 26.1201 37.2656Z" fill="#DD5791"/>
<path d="M18.3838 37.2773C18.3838 36.5844 18.3838 35.8798 18.3838 35.1869C18.3838 34.6115 18.7126 34.2356 19.2176 34.2239C19.7578 34.2122 20.1219 34.5762 20.1336 35.1869C20.1454 35.8798 20.1336 36.5844 20.1454 37.2773C19.5582 37.3948 18.971 37.3948 18.3838 37.2773Z" fill="#DD5790"/>
</svg>
