<svg width="60" height="61" viewBox="0 0 60 61" fill="none" xmlns="http://www.w3.org/2000/svg">
<path d="M9.39446 39.6479C10.3809 39.6358 11.0972 40.1197 11.6609 40.9182C13.0113 42.7814 14.397 44.6324 15.7357 46.5076C16.1585 47.1004 16.6282 47.3666 17.3563 47.3424C18.6832 47.2819 20.0102 47.3182 21.3254 47.3061C22.6994 46.6528 24.6135 47.5481 25.1537 49.0846C25.6938 50.6089 24.8483 52.2664 23.3217 52.6898C22.9812 52.8229 22.6289 52.7624 22.2883 52.8108C19.975 52.8229 17.6616 52.8229 15.3482 52.8108C15.0076 52.7745 14.6671 52.7987 14.35 52.6777C13.6807 52.5326 13.211 52.097 12.8117 51.5647C12.5886 51.2622 12.3772 50.9477 12.1306 50.6694C11.3203 49.5806 10.5335 48.4554 9.69978 47.3545C9.47666 47.5965 9.54712 47.8021 9.54712 47.9957C9.54712 51.6131 9.54712 55.2426 9.54712 58.86C9.54712 59.6827 9.5706 59.6827 10.3691 59.7068C10.9915 59.7189 11.6139 59.6101 12.2245 59.7915C12.295 59.8278 12.3185 59.8883 12.295 59.9609C11.1442 60.0456 9.99335 59.973 8.84253 59.973C6.62309 59.9609 4.39191 59.9367 2.17247 59.9851C1.23302 60.0093 0.493209 59.7673 0 58.9084C0 53.3915 0 47.8626 0 42.3458C0.317063 41.7651 0.516695 41.1118 1.02165 40.64C1.57357 40.1318 2.19595 39.8052 2.92402 39.6721C3.15889 39.5995 3.32329 39.781 3.48769 39.8899C3.92219 40.1802 4.39191 40.3859 4.88512 40.5553C6.23557 40.9424 7.49208 40.7125 8.67813 39.9746C8.8895 39.8173 9.08914 39.5753 9.39446 39.6479Z" fill="#FE6978"/>
<path d="M0.822242 16.9395C0.552152 16.3467 0.481693 15.7176 0.481693 15.0764C0.46995 11.6768 0.446464 8.27718 0.481693 4.86546C0.505179 2.4579 2.12572 0.377 4.56828 0.0987394C5.13195 0.038248 5.68387 0.00195312 6.24754 0.00195312C12.3305 0.00195312 18.4134 0.00195312 24.4963 0.0140514C25.1656 0.0140514 25.8467 0.0745428 26.4691 0.364902C26.7157 0.752046 26.7627 1.18758 26.7627 1.63522C26.7744 5.21631 26.7862 8.8095 26.7627 12.3906C26.7392 14.8949 24.6489 17.0847 22.2299 17.0968C15.4541 17.1331 8.67836 17.1089 1.90261 17.1089C1.53857 17.121 1.17453 17.0847 0.822242 16.9395Z" fill="#EBF3FE"/>
<path d="M58.8327 59.8763C58.7035 60.0094 58.5509 59.9852 58.3865 59.9852C54.8166 59.9852 51.2584 59.9852 47.6885 59.9731C47.6416 59.9126 47.5946 59.8521 47.5594 59.7796C47.4537 59.4287 47.4889 59.0658 47.4889 58.7028C47.4889 56.7671 47.4772 54.8435 47.4889 52.9077C47.4889 52.8472 47.5006 52.7747 47.5006 52.7142C47.5124 52.1939 47.5241 51.6737 47.5124 51.0567C46.9487 51.9157 46.3381 52.5811 45.3752 52.7626C42.7799 52.8472 40.173 52.7868 37.5778 52.7989C37.2724 52.7626 36.9554 52.7989 36.65 52.7384C36.286 52.6295 35.9689 52.3996 35.6519 52.1818C34.2897 50.8147 34.3132 49.1331 35.6989 47.7539C36.4387 47.1974 37.2959 47.1006 38.1649 47.1127C38.341 47.1127 38.5055 47.149 38.6464 47.282C40.0086 47.282 41.3825 47.2457 42.7447 47.3062C43.3906 47.3304 43.8133 47.0764 44.1774 46.5803C45.1403 45.2374 46.115 43.9066 47.0896 42.5758C47.5828 41.8983 48.0761 41.2329 48.5928 40.5796C49.1094 39.9384 49.7788 39.6238 50.6008 39.648C50.8592 39.5633 51.0471 39.7448 51.2349 39.8779C51.6577 40.1803 52.1039 40.386 52.6089 40.5191C53.4426 40.7853 54.2881 40.749 55.1219 40.5191C55.3685 40.4586 55.6034 40.3497 55.8617 40.386C56.719 40.7974 56.9538 41.6442 57.1769 42.479C57.2474 42.7573 57.2357 43.0355 57.2357 43.3259C57.2357 48.1773 57.2357 53.0287 57.2357 57.8922C57.2357 58.5455 57.1652 59.1746 56.6368 59.6828C57.1769 59.6828 57.6819 59.6707 58.1751 59.6828C58.41 59.6949 58.6566 59.6707 58.8327 59.8763Z" fill="#CBF39E"/>
<path d="M47.6886 59.8643C47.7003 59.9006 47.7003 59.9369 47.6886 59.9732C46.4438 59.9732 45.1873 59.9611 43.9426 59.9611C33.3855 59.9611 22.8403 59.9611 12.2832 59.949C12.2832 59.9127 12.2832 59.8764 12.2715 59.8522C12.1071 59.6587 12.1071 59.4046 12.1071 59.1626C12.0953 57.239 12.0953 55.3033 12.1071 53.3797C12.1071 53.1619 12.1188 52.932 12.2363 52.7385C12.7999 52.3876 13.4106 52.5933 13.9977 52.5812C14.397 52.5812 14.808 52.7506 15.2073 52.6175C17.5911 52.6175 19.9867 52.6175 22.3705 52.6175C22.9342 52.7748 23.4861 52.557 24.0498 52.557C27.9955 52.557 31.9529 52.557 35.8986 52.5691C36.4153 52.5691 36.9319 52.7506 37.4604 52.6538C40.0321 52.6417 42.6038 52.6296 45.1638 52.6175C45.3048 52.6175 45.4339 52.6054 45.5748 52.6054C46.2677 52.4844 46.9723 52.2424 47.6651 52.6175C47.6651 52.6538 47.6651 52.7022 47.6769 52.7385C47.2424 53.0651 46.7374 52.9199 46.2559 52.932C44.7881 52.9683 44.929 52.7869 44.929 54.287C44.9172 55.8235 44.929 57.3479 44.929 58.8844C44.929 59.6587 44.9642 59.6829 45.7275 59.695C46.162 59.695 46.5847 59.695 47.0192 59.695C47.2658 59.6829 47.5007 59.695 47.6886 59.8643Z" fill="#CF8F80"/>
<path d="M23.3101 20.5568C23.3805 20.0003 23.0047 20.0729 22.6759 20.0729C18.2371 20.0729 13.7982 20.0729 9.37103 20.0729C9.40626 19.7946 9.62938 19.8067 9.80552 19.7825C10.0404 19.7462 10.2752 19.7704 10.5101 19.7704C15.2895 19.7704 20.0572 19.7704 24.8367 19.7704C27.4319 19.7704 29.3343 17.8105 29.3343 15.1247C29.346 12.8502 29.3343 10.5757 29.3343 8.30123C29.3343 7.98667 29.2755 7.64792 29.5104 7.38176C29.757 7.55114 30.0388 7.50274 30.3089 7.50274C35.6285 7.50274 40.9482 7.50274 46.2678 7.50274C46.5379 7.8052 46.5614 8.19234 46.5614 8.57949C46.5731 11.1806 46.5848 13.7697 46.5614 16.3708C46.5614 16.9515 46.5026 17.5443 46.3265 18.1008C45.8685 19.6131 44.5768 20.6415 43.0267 20.7504C42.7918 20.7625 42.557 20.7625 42.3221 20.7625C36.3214 20.7625 30.3089 20.7625 24.3082 20.7625C23.9794 20.7504 23.6154 20.8229 23.3101 20.5568Z" fill="#EBF3FE"/>
<path d="M35.734 47.8993C34.4774 49.4358 34.4774 50.5851 35.7457 52.0974C35.8514 52.2909 35.8866 52.4724 35.7105 52.6418C32.1876 52.6902 28.6646 52.6539 25.1417 52.666C24.6368 52.666 24.1318 52.6781 23.6269 52.666C23.5212 52.666 23.3215 52.7749 23.3333 52.5087C24.4959 52.1579 25.3061 50.9359 25.1535 49.7624C24.9773 48.3469 23.9792 47.4032 22.5348 47.3186C22.1238 47.2944 21.7127 47.3065 21.3135 47.2944C21.3135 45.9514 21.3722 44.6085 21.3017 43.2656C21.2195 41.8017 21.9241 40.846 22.9575 40.0354C23.8382 39.3579 24.8364 38.9344 25.8698 38.5836C26.1634 38.5594 26.2573 38.8135 26.3865 38.9828C27.0206 39.7571 27.8191 40.2532 28.7586 40.5435C30.1912 40.9307 31.5065 40.6645 32.7042 39.7934C32.9274 39.6361 33.1387 39.4426 33.4441 39.4668C34.9354 40.2774 35.9688 41.3783 35.8984 43.2777C35.8514 44.5239 35.8866 45.77 35.8866 47.0161C35.8984 47.3307 35.9101 47.6331 35.734 47.8993Z" fill="#EAD1FE"/>
<path d="M29.522 7.38181C29.522 10.0192 29.522 12.6567 29.522 15.3062C29.522 17.75 27.5609 19.964 25.0362 19.964C20.0336 19.964 15.0428 19.964 10.0403 19.964C9.81714 19.964 9.57054 19.8672 9.37091 20.085C8.64284 20.7504 7.93825 21.44 7.32761 22.2264C6.84615 22.8434 6.23551 23.3031 5.67184 23.8355C5.54267 23.9564 5.39001 24.0048 5.24909 23.9081C5.07294 23.7871 5.03771 23.5814 5.03771 23.3757C5.03771 22.4563 5.02597 21.5247 5.03771 20.6052C5.04946 20.1939 4.99074 20.0124 4.49753 19.9398C2.74781 19.6616 1.46782 18.6816 0.821951 16.9394C1.11553 16.637 1.4091 16.9515 1.70268 16.9515C8.61935 16.9394 15.5243 17.012 22.4409 16.9032C24.7778 16.8669 26.504 14.9311 26.5745 12.5478C26.6802 8.8578 26.598 5.16782 26.6097 1.48995C26.6097 1.1028 26.3631 0.764052 26.4806 0.376907C28.0424 0.751954 29.5455 2.78446 29.522 4.50242C29.5103 5.44609 29.522 6.41395 29.522 7.38181Z" fill="#DCE9FA"/>
<path d="M23.3104 20.5568C29.7691 20.5568 36.216 20.5326 42.6747 20.5689C44.4244 20.581 46.1741 19.2623 46.2916 17.1934C46.4677 14.2173 46.3151 11.2411 46.3738 8.26492C46.3738 8.01086 46.3033 7.75679 46.2681 7.49063C47.5951 7.58742 48.922 8.82144 49.1804 10.2127C49.2743 10.6846 49.3095 11.1564 49.3095 11.6524C49.2978 14.3141 49.3095 16.9757 49.3095 19.6252C49.3095 21.7666 48.1822 23.1821 46.1272 23.5571C45.7749 23.6176 45.7984 23.8233 45.7984 24.0653C45.7984 25.0331 45.7984 26.001 45.7984 26.9689C45.7984 27.1866 45.8453 27.4286 45.5753 27.5254C45.3286 27.6101 45.176 27.4528 45.0233 27.2834C43.943 26.1704 42.8626 25.0694 41.8057 23.9443C41.5356 23.666 41.2655 23.545 40.878 23.545C36.1573 23.5571 31.4366 23.5571 26.7159 23.5571C24.9896 23.5813 23.5922 22.3352 23.3104 20.5568Z" fill="#DCE9FA"/>
<path d="M58.8337 59.8763C57.9763 59.8763 57.1189 59.8763 56.097 59.8763C57.0249 59.3318 57.0602 58.5454 57.0602 57.7107C57.0484 52.8351 57.0484 47.9716 57.0602 43.0959C57.0602 42.2007 56.7078 41.4627 56.2027 40.7852C56.097 40.64 55.9678 40.5069 55.7682 40.5069C56.097 40.0351 56.5081 39.7205 57.0836 39.66C58.7515 39.8899 59.9965 41.3296 59.9965 43.0355C59.9965 48.1288 59.9965 53.2222 59.9965 58.3035C59.9848 59.1746 59.6324 59.6464 58.8337 59.8763Z" fill="#B2E49E"/>
<path d="M28.7003 40.6401C27.479 40.3618 26.6335 39.5391 25.8819 38.5713C25.2595 37.4582 25.0247 36.2605 25.0717 34.9902C25.1069 34.0102 25.0834 33.0182 25.0951 32.0382C25.2595 31.8567 25.4827 31.8567 25.694 31.8567C27.5964 31.8446 29.5105 31.8446 31.4129 31.8567C31.5656 31.8567 31.7182 31.8809 31.8709 31.9414C32.0705 32.0503 32.1292 32.2439 32.1292 32.4495C32.1175 33.9618 32.3054 35.4741 31.9648 36.9622C31.6008 38.5834 30.6379 39.7569 29.1935 40.4949C29.0408 40.5917 28.8764 40.6401 28.7003 40.6401Z" fill="#FECABD"/>
<path d="M1.29183 36.0305C1.29183 34.0343 1.24486 32.0501 1.29183 30.0539C1.32706 28.7352 2.5366 27.6222 3.87531 27.5859C4.57989 27.5617 5.27273 27.5859 5.97732 27.598C7.51566 28.0093 8.24373 28.953 8.23199 30.6225C8.23199 31.1307 8.33767 31.663 8.1263 32.1711C7.38648 32.1106 7.29254 32.6067 7.17511 33.2116C6.49401 36.4902 3.93402 37.0104 1.52669 36.212C1.43275 36.1878 1.36229 36.1031 1.29183 36.0305Z" fill="#CF8F80"/>
<path d="M52.4914 40.6403C51.7634 40.5314 51.2349 40.0111 50.6126 39.6603C49.7318 38.6803 49.0507 37.5794 48.992 36.2123C48.945 34.942 48.992 33.6717 48.992 32.4013C49.1329 32.2925 49.2973 32.3167 49.4383 32.365C50.319 32.6433 51.141 32.365 51.9395 32.0263C52.7263 31.6996 52.8672 31.7722 53.0081 32.6554C53.1021 33.1877 53.2313 33.708 53.4426 34.2161C53.8771 35.2686 54.6757 35.8493 55.6856 36.176C55.7443 36.2123 55.7795 36.2486 55.8147 36.3091C55.9087 37.3616 55.4507 38.2206 54.8635 38.9949C54.2764 39.7934 53.5483 40.4951 52.4914 40.6403Z" fill="#D7A494"/>
<path d="M55.7681 36.2845C54.3354 36.0547 53.3138 34.9537 52.9615 33.2721C52.9027 32.9938 52.8558 32.7155 52.8323 32.4373C52.7853 31.9292 52.5739 31.8324 52.1394 32.0864C51.1413 32.6671 50.0844 32.8002 48.9805 32.401C48.9805 31.6993 48.9571 30.9976 48.9688 30.2959C48.9923 28.8441 50.1549 27.6343 51.564 27.5859C52.2569 27.5617 52.9615 27.5859 53.6543 27.598C55.0987 27.8762 55.9207 28.8804 55.9325 30.4169C55.9442 32.1106 55.9325 33.7923 55.9325 35.486C55.9325 35.7522 55.9794 36.0426 55.7681 36.2845Z" fill="#477B9D"/>
<path d="M31.9764 32.0501C29.6865 32.0501 27.3848 32.038 25.095 32.038C25.0832 31.4573 25.0597 30.8766 25.0832 30.2959C25.1302 28.8925 26.3749 27.598 27.7254 27.5859C29.0289 27.5617 30.3324 27.5859 31.6358 27.598C31.9059 27.719 32.0703 27.9488 32.0938 28.2392C32.1643 29.4853 32.2582 30.7314 32.0468 31.9775C32.0351 32.0017 32.0116 32.0259 31.9764 32.0501Z" fill="#FFE49C"/>
<path d="M1.2918 36.0308C2.2195 36.1881 3.12372 36.5268 4.09839 36.3091C5.69545 35.9582 6.68187 34.9782 7.02242 33.2966C7.05765 33.1151 7.09288 32.9457 7.12811 32.7643C7.29251 31.8569 7.29251 31.8569 8.07929 32.1593C8.13801 32.2077 8.17324 32.2561 8.19673 32.3287C8.29067 33.6958 8.34938 35.075 8.19673 36.4179C7.99709 38.2206 7.05765 39.5877 5.47233 40.4588C5.26096 40.5797 5.03784 40.6281 4.80298 40.6281C4.08665 40.4709 3.51124 40.0595 2.92409 39.6361C2.16079 38.8255 1.57363 37.9181 1.35051 36.7809C1.30354 36.5389 1.2918 36.297 1.2918 36.0308Z" fill="#FECABD"/>
<path d="M55.7683 36.2845C55.7683 34.373 55.733 32.4615 55.78 30.5499C55.8152 29.1465 55.1459 28.2997 53.9833 27.7431C53.8776 27.6948 53.7719 27.6464 53.6662 27.598C54.5 27.5859 55.3338 27.5617 56.1675 27.5859C57.3183 27.6101 58.5279 28.5779 58.6571 29.7394C58.8919 31.8324 58.798 33.9375 58.6923 36.0426C57.9994 36.5991 56.3554 36.7564 55.7565 36.3208L55.7683 36.2845Z" fill="#365E7D"/>
<path d="M28.7001 40.6403C29.3225 40.2047 30.0036 39.8902 30.5438 39.3095C31.4832 38.2932 31.9295 37.0955 31.9764 35.7405C32.0117 34.5186 31.9882 33.2845 31.9764 32.0626V32.0505C32.5518 31.6997 33.1742 31.9053 33.7731 31.869C34.1489 31.8448 34.5482 31.7601 34.877 32.0384C34.8652 33.5991 35.0061 35.1719 34.783 36.7325C34.6891 37.3979 34.419 37.9908 34.0902 38.5715C34.0197 39.0312 33.7731 39.3458 33.3621 39.5393C32.5401 40.1563 31.6946 40.7008 30.6612 40.8218C30.0036 40.9064 29.3342 40.9669 28.7001 40.6403Z" fill="#F6BDAE"/>
<path d="M33.3856 39.5391C33.6322 39.2125 33.8671 38.8979 34.1137 38.5713C35.6286 39.0673 37.0377 39.769 38.0829 41.0514C38.4704 41.5353 38.67 42.0677 38.67 42.7089C38.6583 44.2333 38.67 45.7576 38.67 47.282C37.6601 47.2699 36.6385 47.2578 35.746 47.899C35.746 46.3505 35.6873 44.814 35.7577 43.2775C35.8282 41.7894 35.1236 40.8215 34.055 40.011C33.8319 39.8416 33.6087 39.6964 33.3856 39.5391Z" fill="#D6BDEF"/>
<path d="M4.80326 40.6401C5.84839 40.1198 6.79958 39.4907 7.38673 38.4019C7.79774 37.6397 8.07957 36.8291 8.07957 35.9459C8.09132 34.7119 8.09132 33.49 8.09132 32.2559C8.10306 32.2439 8.12655 32.2197 8.13829 32.2318C9.07774 32.4374 10.0289 32.4495 10.9919 32.4011C10.9919 33.7077 11.0506 35.0144 10.9919 36.321C10.9331 37.6518 10.252 38.7043 9.3948 39.6359C8.31444 40.4828 7.12839 40.9788 5.7427 40.8699C5.4139 40.8578 5.09683 40.8094 4.80326 40.6401Z" fill="#F6BDAE"/>
<path d="M11.0043 32.401C10.0177 32.776 9.0546 32.655 8.10322 32.2679C8.10322 32.2437 8.09148 32.2074 8.07973 32.1832C8.07973 31.6267 8.07973 31.0581 8.07973 30.5015C8.07973 29.1949 7.48072 28.2875 6.27095 27.7915C6.16524 27.7431 6.07128 27.6705 5.97731 27.61C6.776 27.61 7.57468 27.5858 8.37337 27.5979C9.79456 27.6221 10.9691 28.8441 10.9926 30.2959C11.0278 30.9976 11.0043 31.6993 11.0043 32.401Z" fill="#BD694F"/>
<path d="M55.756 36.3209C56.7659 36.5508 57.7288 36.2725 58.6918 36.0426C58.727 37.5307 58.0107 38.6559 57.0595 39.6601C56.625 39.9383 56.1905 40.2287 55.7443 40.5069C54.6639 40.8578 53.5835 41.0877 52.468 40.6279C53.5718 40.1319 54.5112 39.4423 55.1101 38.3292C55.4742 37.7122 55.7208 37.0468 55.756 36.3209Z" fill="#CF8F80"/>
<path d="M34.8894 32.0382C33.9262 32.0382 32.9514 32.0382 31.9883 32.0382C31.9883 30.9373 31.9765 29.8484 31.9883 28.7475C31.9883 28.3119 31.8943 27.9248 31.6476 27.5739C32.4463 27.5739 33.245 27.5618 34.032 27.5618C34.6545 27.5618 34.9011 27.8038 34.9011 28.4208C34.9129 29.6427 34.9011 30.8405 34.8894 32.0382Z" fill="#FEC956"/>
<path d="M12.3074 52.7263C12.2956 55.0976 12.2956 57.4688 12.2839 59.8522C11.4617 59.8522 10.6395 59.8522 9.8291 59.8764C9.51197 59.8885 9.37103 59.8038 9.37103 59.4408C9.38277 55.4121 9.37103 51.3834 9.38277 47.3547C9.38277 47.2216 9.32405 47.0401 9.50023 46.9917C9.65292 46.9433 9.74688 47.1006 9.8291 47.2095C10.6748 48.3588 11.5674 49.4719 12.3191 50.6938C12.5893 51.2987 12.507 51.9278 12.4366 52.5569C12.3896 52.6053 12.3544 52.6779 12.3074 52.7263Z" fill="#CE4351"/>
<path d="M23.3455 52.5083C23.4394 52.6535 23.5803 52.6172 23.7212 52.6172C27.7256 52.6172 31.73 52.6051 35.7344 52.6051C36.0045 52.3874 36.2863 52.5204 36.5564 52.6051C36.8617 52.6172 37.1671 52.6293 37.4724 52.6414C37.2962 52.7866 37.0966 52.7261 36.9087 52.7261C32.2702 52.7261 27.6317 52.7261 22.9932 52.7261C22.7935 52.7261 22.5587 52.7987 22.3825 52.6172C22.7113 52.6051 23.0401 52.6293 23.3455 52.5083Z" fill="#E29399"/>
<path d="M12.3067 52.6053C12.9645 52.557 13.634 52.7626 14.2917 52.4965C14.6088 52.5328 14.9142 52.5812 15.2313 52.6174C14.6323 52.8594 14.0216 52.6779 13.4108 52.7263C13.0467 52.7505 12.6826 52.7263 12.3067 52.7263C12.3067 52.69 12.3067 52.6416 12.3067 52.6053Z" fill="#E79E99"/>
<path d="M14.9961 4.21205C17.7322 4.21205 20.4566 4.21205 23.1928 4.21205C23.5568 4.21205 23.8973 4.26044 24.1205 4.5992C24.4375 5.08313 24.2262 5.73643 23.6977 5.9421C23.4511 6.03889 23.2045 6.02679 22.9462 6.02679C17.6618 6.02679 12.3657 6.02679 7.08127 6.02679C6.98733 6.02679 6.88164 6.02679 6.7877 6.02679C6.16531 6.00259 5.76605 5.62755 5.76605 5.09522C5.76605 4.5629 6.16531 4.21205 6.79944 4.21205C9.53557 4.21205 12.26 4.21205 14.9961 4.21205Z" fill="#477B9E"/>
<path d="M14.9959 10.9024C12.2481 10.9024 9.48843 10.9024 6.74055 10.9024C6.32955 10.9024 6.02423 10.7572 5.83634 10.3701C5.67193 10.0192 5.75414 9.69258 5.989 9.41432C6.22386 9.12396 6.55266 9.08767 6.89321 9.08767C8.12624 9.08767 9.34751 9.08767 10.5805 9.08767C14.6554 9.08767 18.742 9.08767 22.8168 9.08767C22.9695 9.08767 23.1339 9.07557 23.2865 9.08767C23.9207 9.12396 24.2847 9.48691 24.2612 10.0434C24.2377 10.5758 23.8737 10.8903 23.2513 10.8903C20.5034 10.9024 17.7556 10.9024 14.9959 10.9024Z" fill="#477B9E"/>
<path d="M10.8504 14.0237C12.1774 14.0237 13.5043 14.0237 14.8313 14.0237C15.5006 14.0237 15.9117 14.3866 15.8999 14.9432C15.8882 15.4755 15.4772 15.8263 14.843 15.8263C12.1656 15.8263 9.49994 15.8263 6.82252 15.8263C6.15316 15.8263 5.74216 15.4634 5.7539 14.8948C5.76564 14.3624 6.16491 14.0116 6.79903 14.0116C8.16123 14.0237 9.49994 14.0237 10.8504 14.0237Z" fill="#477B9D"/>
<path d="M47.6895 59.8643C46.8908 59.8643 46.0921 59.8522 45.2934 59.8643C44.9058 59.8763 44.7414 59.7796 44.7414 59.3319C44.7649 57.2994 44.7649 55.2669 44.7414 53.2465C44.7414 52.7989 44.9058 52.7021 45.2934 52.7142C46.0921 52.7384 46.8908 52.7142 47.6895 52.7142C47.6895 55.1096 47.6895 57.493 47.6895 59.8643Z" fill="#BD694F"/>
<path d="M36.5559 52.6053C36.2858 52.6053 36.0039 52.6053 35.7337 52.6053C35.7337 52.4359 35.7455 52.2665 35.7455 52.1093C36.0274 52.2423 36.3093 52.3875 36.5559 52.6053Z" fill="#D6BEED"/>
</svg>
