<svg width="60" height="61" viewBox="0 0 60 61" fill="none" xmlns="http://www.w3.org/2000/svg">
<path d="M55.1849 48.7395C54.7973 48.7395 54.4098 48.7512 54.0222 48.7512C48.7492 48.7512 43.4644 48.7512 38.1914 48.7512C37.9917 48.7512 37.8038 48.763 37.6042 48.7747C37.2871 48.9979 36.9348 48.9274 36.5825 48.9274C31.9084 48.8922 27.246 48.9039 22.5719 48.9039C22.5014 48.9039 22.4192 48.9039 22.3488 48.9039C20.1409 48.9391 17.9448 48.9157 15.7369 48.9157C11.3916 48.9157 7.03463 48.9157 2.68937 48.9157C2.45449 48.9157 2.21961 48.9157 1.98473 48.9157C0.845565 48.8687 0.270111 48.4107 0 47.3302C0 35.4218 0 23.5135 0 11.6051C0.422783 10.5129 1.22137 10.1371 2.38402 10.1371C8.84321 10.1723 15.3141 10.1488 21.7733 10.1488C21.8085 10.1841 21.879 10.2193 21.8908 10.278C22.0317 11.4289 22.1139 12.5798 21.8438 13.719C21.5149 13.9656 21.1274 13.8952 20.7633 13.8952C15.5725 13.8952 10.3817 13.8952 5.17909 13.8952C3.82853 13.8952 3.82853 13.8952 3.82853 15.2692C3.82853 24.7348 3.82853 34.2122 3.82853 43.6778C3.82853 44.911 3.82853 44.911 5.06165 44.911C21.6911 44.911 38.3323 44.911 54.9618 44.911C55.3963 44.911 55.8191 44.8757 56.2418 44.817C56.5472 44.8992 56.5002 45.1693 56.512 45.3807C56.5354 45.8035 56.512 46.2263 56.5237 46.6491C56.5354 47.6591 56.1362 48.3754 55.1849 48.7395Z" fill="#665C78"/>
<path d="M13.9402 59.9902C13.5292 59.72 13.0712 59.5087 12.8245 59.0272C12.1904 57.794 13.0477 56.3965 14.4922 56.373C16.0659 56.3495 17.6396 56.3613 19.2133 56.3495C19.4716 56.1969 19.7652 56.1734 20.0588 56.1734C25.7781 56.1851 31.4974 56.1499 37.2167 56.1851C38.1563 56.1616 39.084 56.1851 40.0236 56.1734C40.2819 56.1734 40.5285 56.2203 40.7517 56.3495C41.3389 56.3613 41.9378 56.373 42.525 56.3848C43.4528 56.7606 43.8756 57.3595 43.8403 58.2873C43.8051 59.1681 43.3823 59.6848 42.4076 60.0019C32.9302 59.9902 23.4293 59.9902 13.9402 59.9902Z" fill="#665C78"/>
<path d="M42.4192 59.9903C42.6658 59.7084 43.0768 59.685 43.3117 59.3679C43.9811 58.4636 43.8167 57.3244 42.8889 56.6668C42.7597 56.5728 42.6071 56.5376 42.5366 56.3732C43.5113 56.3614 44.4861 56.3497 45.4608 56.3497C46.4004 56.3497 47.152 56.9016 47.3281 57.7237C47.5395 58.6515 47.1285 59.4383 46.2359 59.8729C46.1655 59.9081 46.1068 59.9551 46.048 59.9903C44.8384 59.9903 43.6288 59.9903 42.4192 59.9903Z" fill="#574C68"/>
<path d="M55.185 48.7395C55.2789 48.5046 55.5373 48.4459 55.7017 48.2932C56.148 47.8822 56.3594 47.4007 56.3594 46.8017C56.3477 46.1558 56.3594 45.5216 56.3594 44.8757C56.148 44.6526 56.1715 44.3707 56.1715 44.1006C56.1715 34.083 56.1597 24.0654 56.1715 14.0478C56.2067 13.4606 56.1597 12.8734 56.1832 12.298C56.2067 11.6521 55.9836 11.1236 55.5021 10.689C55.3612 10.5716 55.1263 10.4424 55.2085 10.231C55.279 10.0431 55.5256 10.1488 55.69 10.1488C56.5825 10.1606 57.4751 10.0901 58.3676 10.1958C59.3776 10.3367 59.9883 11.0531 59.9883 12.1336C59.9883 18.5458 59.9883 24.9697 59.9883 31.3819C59.9883 36.4905 59.9883 41.5992 59.9883 46.7078C59.9883 47.9996 59.2836 48.7395 57.9918 48.763C57.0523 48.7865 56.1245 48.7512 55.185 48.7395Z" fill="#574C68"/>
<path d="M58.3679 10.1841C57.3462 10.1841 56.3244 10.1841 55.3027 10.1841C56.8177 11.1706 56.2657 12.6621 56.3244 13.9891C50.6286 13.8012 44.9328 13.9539 39.237 13.9069C38.8729 13.9069 38.4854 13.9774 38.1565 13.7425C38.0039 13.5429 38.0039 13.308 38.0039 13.0731C37.9921 12.3332 37.9921 11.5934 38.0039 10.8535C38.0039 10.6069 37.9921 10.3368 38.2153 10.1489C42.7014 10.1489 47.1759 10.1489 51.6621 10.1489C53.6703 10.1489 55.6785 10.1136 57.6867 10.1019C57.9216 10.0901 58.1565 10.0432 58.3679 10.1841Z" fill="#665C78"/>
<path d="M21.7732 13.7543C21.7732 12.5564 21.7732 11.3585 21.7732 10.1606C21.785 9.72609 21.7615 9.3033 21.8084 8.86878C21.8554 8.42251 21.7262 8.26984 21.2447 8.28158C18.8842 8.30507 16.5237 8.29332 14.1631 8.29332C13.0357 8.29332 12.7891 8.03496 12.7891 6.91928C12.7891 6.74312 12.7773 6.56696 12.7891 6.3908C12.8361 5.7214 12.7773 5.20466 12.0492 4.78188C11.0275 4.19468 10.7456 2.82064 11.1684 1.7167C11.5677 0.671491 12.6716 -0.0448913 13.7873 0.0138285C14.9617 0.0725484 16.0069 0.929858 16.2653 2.06902C16.5354 3.20819 16.0422 4.39433 15.0322 4.99327C14.5976 5.25164 14.3745 5.86232 14.5272 6.34383C14.6211 6.66091 14.8795 6.51999 15.0674 6.51999C17.4514 6.53173 19.8355 6.51999 22.2077 6.53173C23.3117 6.53173 23.5348 6.75486 23.5465 7.8588C23.5465 8.62216 23.5583 9.38551 23.57 10.1371C23.6992 10.3368 23.7344 10.5599 23.7344 10.7948C23.7344 11.7578 23.7579 12.7208 23.7227 13.6838C23.7227 15.6333 23.7932 17.5828 23.6757 19.5323C23.2529 20.2134 22.5248 20.3309 21.8319 20.5188C21.7615 20.5423 21.7145 20.4366 21.6675 20.3661C21.5736 20.1078 21.5853 19.8259 21.5853 19.5558C21.5853 17.8999 21.5853 16.244 21.5853 14.5763C21.6088 14.3062 21.5618 14.0009 21.7732 13.7543Z" fill="#574C68"/>
<path d="M38.2269 10.1488C38.2269 11.3467 38.2269 12.5446 38.2269 13.7425C38.3678 13.8951 38.3795 14.0948 38.3795 14.2944C38.3913 16.197 38.3913 18.1112 38.3795 20.0137C38.3795 20.1312 38.356 20.2486 38.3208 20.3543C38.2738 20.4365 38.2269 20.5657 38.1212 20.5305C37.44 20.2956 36.7001 20.1429 36.3008 19.4383C36.2186 17.524 36.2656 15.6098 36.2774 13.6955C36.2421 12.7325 36.2656 11.7695 36.2656 10.8065C36.2656 10.5716 36.3008 10.3485 36.43 10.1371C36.4418 9.30325 36.4418 8.45769 36.4535 7.62387C36.4653 6.83702 36.7471 6.53168 37.5575 6.53168C39.9532 6.51993 42.3607 6.53168 44.7565 6.51993C44.9914 6.51993 45.332 6.68435 45.4611 6.34377C45.6373 5.8975 45.4142 5.23984 45.0736 5.05194C44.0636 4.47648 43.5586 3.47825 43.7113 2.30385C43.8405 1.28212 44.6038 0.41307 45.649 0.119471C46.6943 -0.174128 47.7982 0.201679 48.4676 1.05899C49.4776 2.33908 49.1018 4.22986 47.6338 5.02845C47.3049 5.20461 47.1992 5.39251 47.2227 5.74483C47.2462 6.21459 47.2345 6.68435 47.2345 7.15411C47.2227 7.97618 46.9056 8.29327 46.0366 8.29327C43.7583 8.30501 41.4682 8.29327 39.1899 8.29327C38.2269 8.29327 38.2151 8.29327 38.2269 9.27976C38.2034 9.56162 38.2151 9.85522 38.2269 10.1488Z" fill="#574C68"/>
<path d="M29.0309 5.1694C27.8213 4.69965 27.1166 3.47827 27.3398 2.24516C27.5864 0.941578 28.7255 -0.00968329 30.0291 0.00206068C31.2975 0.0138046 32.4131 0.965066 32.648 2.24516C32.8712 3.47827 32.1665 4.69965 30.9569 5.1694C30.8864 5.21638 30.8747 5.28684 30.8747 5.36905C30.8747 6.90751 30.8747 8.44597 30.8747 9.98443C30.8747 10.0666 30.8864 10.1371 30.9569 10.1841L30.9451 10.1723C31.0743 10.3602 31.1096 10.5599 31.1096 10.783C31.1096 11.7343 31.1448 12.6973 31.0861 13.6485C31.0743 14.5059 31.1213 15.3632 31.0978 16.2205C31.0978 16.4554 31.1096 16.6902 31.0156 16.9134C31.0039 16.9251 30.9921 16.9603 30.9804 16.9603C30.311 16.9134 29.6298 16.9956 28.9604 16.9251C28.7725 16.0678 28.89 15.2105 28.89 14.3414C28.89 14.1066 28.9134 13.8834 28.89 13.6485C28.8312 12.6855 28.8665 11.7225 28.8665 10.7713C28.8665 10.5599 28.9017 10.3485 29.0309 10.1723L29.0191 10.1841C29.0896 10.1371 29.1013 10.0666 29.1013 9.98443C29.1013 8.44597 29.1013 6.90751 29.1013 5.36905C29.1131 5.28684 29.1013 5.21638 29.0309 5.1694Z" fill="#574C68"/>
<path d="M40.7631 56.3496C39.5887 56.3496 38.426 56.3496 37.2516 56.3496C37.0285 56.2556 36.8641 56.0912 36.7114 55.9033C35.2551 54.13 34.3391 52.11 34.0455 49.8317C33.9516 49.0683 33.9281 49.0448 33.1295 49.0448C29.8529 49.0448 26.5763 49.0448 23.2998 49.0331C23.0179 49.0331 22.6656 49.1623 22.5012 48.7747C26.365 48.763 30.2287 48.763 34.0807 48.7512C35.2551 48.7512 36.4178 48.763 37.5922 48.7747C37.6274 51.4993 38.6491 53.8364 40.3638 55.9033C40.5047 56.056 40.6339 56.1969 40.7631 56.3496Z" fill="#7FD0F4"/>
<path d="M29.0425 10.1724C29.0425 11.3585 29.0425 12.5446 29.0543 13.7425C28.8781 13.8952 28.6667 13.8952 28.4436 13.8952C27.0226 13.9069 25.6016 13.9069 24.1923 13.8952C23.9809 13.8952 23.7578 13.8952 23.5816 13.7543C23.5816 12.5564 23.5816 11.3467 23.5816 10.1489C25.3902 10.1489 27.2222 10.1606 29.0425 10.1724Z" fill="#665C78"/>
<path d="M30.9455 13.7307C30.9455 12.5446 30.9455 11.3585 30.9572 10.1606C32.7776 10.1488 34.5979 10.1488 36.4299 10.1371C36.4299 11.335 36.4299 12.5446 36.4299 13.7425C36.2538 13.8834 36.0306 13.8834 35.8192 13.8834C34.3982 13.8952 32.9772 13.8952 31.5679 13.8834C31.333 13.8952 31.1217 13.8952 30.9455 13.7307Z" fill="#665C78"/>
<path d="M29.0309 5.16943C29.1835 5.2399 29.1835 5.38082 29.1835 5.52175C29.1835 6.96626 29.1835 8.41077 29.1835 9.84353C29.1835 9.98446 29.1953 10.1254 29.0309 10.1841C29.1835 9.19761 29.0778 8.19938 29.0896 7.20114C29.1013 6.51999 29.1718 5.83884 29.0309 5.16943Z" fill="#665C78"/>
<path d="M30.957 10.1841C30.7925 10.1136 30.8043 9.97272 30.8043 9.84353C30.8043 8.39902 30.8043 6.95452 30.8043 5.52175C30.8043 5.38082 30.8043 5.2399 30.957 5.16943C30.8513 6.83708 30.8513 8.50472 30.957 10.1841Z" fill="#665C78"/>
<path d="M38.1913 20.4719C38.203 18.2288 38.2148 15.9857 38.2265 13.7426C44.0163 13.7426 49.7943 13.7426 55.5841 13.7308C55.8659 13.7308 56.1243 13.7778 56.3357 13.9775C56.3475 14.0949 56.3592 14.2123 56.3592 14.3298C56.3592 24.5118 56.3592 34.6821 56.3592 44.8641C56.1948 45.0402 55.9951 45.1577 55.7368 45.1225C55.5958 45.1107 55.4667 45.1225 55.3257 45.1225C38.4379 45.1225 21.5501 45.1225 4.674 45.1225C3.64053 45.1225 3.64053 45.1225 3.64053 44.0772C3.64053 34.2828 3.64053 24.4766 3.64053 14.6821C3.64053 13.813 3.711 13.7426 4.56831 13.7426C10.3111 13.7426 16.0422 13.7426 21.785 13.7543C21.7967 15.9974 21.8084 18.2405 21.8202 20.4954C21.7497 20.7655 21.5031 20.8124 21.3035 20.9299C20.6575 21.2939 19.9646 21.5406 19.307 21.8694C19.0251 22.0103 18.755 22.163 18.5789 22.4331C18.4497 22.6915 18.4614 22.9616 18.4614 23.2317C18.4614 27.4478 18.4732 31.6521 18.4497 35.8682C18.4497 36.5846 18.7198 36.9956 19.3774 37.3127C21.6793 38.4049 23.9928 39.5088 26.2946 40.6128C27.4925 41.1882 28.6552 41.8107 29.9 42.2804C30.1702 42.3626 30.3933 42.2452 30.6282 42.1277C32.5894 41.1765 34.5741 40.2839 36.5119 39.3092C37.0639 39.0273 37.6628 38.8277 38.203 38.5106C39.0603 38.0056 40.0116 37.6768 40.8924 37.2188C41.3504 36.9721 41.5735 36.6316 41.5735 36.1031C41.5618 31.7226 41.5735 27.3303 41.5735 22.9498C41.5735 22.7972 41.5618 22.6328 41.5266 22.4918C41.4678 22.2335 41.233 22.1395 41.0333 22.0456C40.2817 21.6815 39.5653 21.2705 38.7902 20.9534C38.5201 20.8359 38.2617 20.7655 38.1913 20.4719Z" fill="#AAE5FE"/>
<path d="M22.5134 48.763C22.7013 48.9156 22.9244 48.8452 23.1358 48.8452C26.5886 48.8452 30.0295 48.8569 33.4823 48.8334C34.0342 48.8334 34.1752 49.0683 34.2221 49.5381C34.4218 51.8516 35.3378 53.8716 36.7706 55.6802C36.935 55.8916 37.0994 56.1147 37.2638 56.3261C34.3513 56.3378 31.4506 56.3378 28.5381 56.3378C25.4377 56.3378 22.3372 56.3261 19.2251 56.3261C20.5639 54.8933 21.5387 53.2492 22.0319 51.3466C22.255 50.5011 22.4429 49.6438 22.3842 48.7512C22.4312 48.7747 22.4664 48.7747 22.5134 48.763Z" fill="#AAE5FE"/>
<path d="M18.4613 22.2569C18.5787 22.0103 18.8253 21.9281 19.0485 21.8224C19.9645 21.3762 20.8805 20.9299 21.7966 20.4836C22.3838 20.2018 22.971 19.9316 23.5582 19.6498C23.6639 19.4736 23.8283 19.3797 24.0044 19.2975C24.897 18.8747 25.7543 18.4049 26.7055 18.1113C26.9169 18.1466 27.1048 18.264 27.2927 18.358C30.5928 20.0139 33.9046 21.658 37.2046 23.3139C37.4982 23.4548 37.8271 23.5605 37.9915 23.8894C38.0032 23.9481 38.0032 24.0068 37.968 24.0655C37.8623 24.1947 37.7214 24.2534 37.5804 24.3239C35.2199 25.4513 32.8594 26.614 30.4753 27.7061C30.3227 27.7766 30.1583 27.8588 29.9821 27.8706C29.5711 27.8001 29.207 27.6122 28.8429 27.436C25.5077 25.8154 22.1371 24.2417 18.8018 22.6328C18.6492 22.5388 18.473 22.4801 18.4613 22.2569Z" fill="#FE2B5C"/>
<path d="M26.7177 18.1817C25.6725 18.675 24.6155 19.1565 23.5703 19.6497C23.5703 17.6885 23.5703 15.7155 23.5821 13.7542C25.4024 13.7542 27.2344 13.7425 29.0547 13.7425C29.1839 14.8229 29.0665 15.9034 29.1135 16.9838C28.4088 17.571 27.6102 17.9586 26.7177 18.1817Z" fill="#AAE5FE"/>
<path d="M13.6583 3.61921C13.1416 3.60747 12.754 3.20817 12.754 2.6797C12.754 2.17471 13.1768 1.75192 13.6701 1.76367C14.175 1.77541 14.5509 2.20994 14.5391 2.72667C14.5391 3.20817 14.1163 3.63096 13.6583 3.61921Z" fill="#FD2B5C"/>
<path d="M26.7174 18.1817C27.516 17.7824 28.3146 17.3831 29.1015 16.9721C29.6887 16.608 30.2876 16.608 30.8748 16.9721C31.0862 16.8546 31.2506 16.9838 31.415 17.0777C32.9417 17.8646 34.5272 18.5457 36.0539 19.3326C36.1948 19.4031 36.3475 19.45 36.418 19.6144C37.0052 19.908 37.5924 20.1899 38.1795 20.4835C39.1073 20.9298 40.0351 21.376 40.9629 21.8223C41.186 21.928 41.4326 22.0102 41.5618 22.2568C40.8219 22.891 39.9177 23.1964 39.0603 23.5839C38.7198 23.7366 38.4262 24.0654 37.9916 23.9127C37.7098 23.7483 37.4279 23.5722 37.1343 23.4312C33.846 21.7871 30.5577 20.1429 27.2811 18.4988C27.0815 18.4048 26.9053 18.2874 26.7174 18.1817Z" fill="#E52651"/>
<path d="M36.4298 19.6027C34.5508 18.7806 32.7187 17.8764 30.8867 16.9721C30.9336 15.8916 30.8162 14.8112 30.9454 13.7307C32.7657 13.7307 34.5978 13.7425 36.4181 13.7425C36.4181 15.7037 36.4181 17.6532 36.4298 19.6027Z" fill="#AAE5FE"/>
<path d="M47.2341 2.66796C47.2341 3.19644 46.8583 3.60748 46.3415 3.61922C45.86 3.63096 45.4373 3.19644 45.4373 2.6797C45.4373 2.16297 45.86 1.75193 46.3533 1.76367C46.8348 1.77542 47.2223 2.18646 47.2341 2.66796Z" fill="#FD2B5C"/>
<path d="M30.9219 2.7149C30.9101 3.18466 30.4286 3.64268 29.9589 3.61919C29.5009 3.5957 29.0663 3.14943 29.0663 2.70316C29.0663 2.22166 29.5244 1.76364 29.9941 1.76364C30.4756 1.76364 30.9336 2.2334 30.9219 2.7149Z" fill="#FC2B5C"/>
<path d="M18.4617 22.2569C22.302 24.1007 26.154 25.9445 29.9943 27.7765C30.2175 27.9997 30.1822 28.2815 30.1822 28.5516C30.1822 32.9204 30.1822 37.2891 30.1822 41.6579C30.1822 41.928 30.194 42.2099 29.9826 42.433C29.736 42.4447 29.5246 42.3508 29.3132 42.2451C25.8722 40.6009 22.4195 38.945 18.9667 37.3009C18.497 37.0778 18.2738 36.7372 18.2738 36.197C18.2856 31.746 18.2738 27.295 18.2738 22.8441C18.2738 22.6327 18.2621 22.4095 18.4617 22.2569Z" fill="#4CAFF4"/>
<path d="M29.9823 42.4329C29.9823 37.5474 29.994 32.662 29.994 27.7882C32.6481 26.5316 35.3023 25.275 37.9564 24.0184C38.203 24.0301 38.203 24.2298 38.2383 24.3942C38.2853 24.5821 38.2735 24.7818 38.2735 24.9814C38.2735 29.2327 38.2735 33.4723 38.2735 37.7236C38.2735 38.0524 38.3205 38.393 38.0856 38.6749C36.0656 39.6614 34.0457 40.6479 32.0022 41.6109C31.3446 41.9162 30.7339 42.3625 29.9823 42.4329Z" fill="#FED357"/>
<path d="M38.0736 38.6632C38.0736 33.9774 38.0736 29.3033 38.0736 24.6174C38.0736 24.4178 38.1559 24.1829 37.9562 24.0067C37.968 23.9715 37.9797 23.9363 37.9914 23.901C39.1893 23.3491 40.3755 22.7971 41.5733 22.2334C41.7847 22.3978 41.7143 22.6209 41.7143 22.8323C41.7143 27.3068 41.7143 31.793 41.726 36.2674C41.726 36.655 41.6556 36.9721 41.2915 37.1482C40.2228 37.6885 39.1893 38.2522 38.0736 38.6632Z" fill="#FEBC51"/>
</svg>
