<svg xmlns="http://www.w3.org/2000/svg" width="20" height="16" viewBox="0 0 20 16" fill="none">
  <path d="M9.99158 15.9982C7.92763 15.9982 5.86369 16.004 3.79974 15.9964C1.95482 15.9896 0.443868 14.7052 0.0715735 12.8365C0.0267241 12.6109 0.00408161 12.3764 0.00364618 12.1463C-0.00114357 9.39162 0.000162722 6.63736 0.000162722 3.8831C0.000162722 3.32892 0.116858 2.8004 0.339799 2.29709C0.492201 1.95269 0.530954 1.94549 0.784375 2.2075C2.68416 4.17122 4.587 6.13135 6.48156 8.10003C7.45867 9.11521 8.62781 9.66129 10.0151 9.65678C11.3601 9.65228 12.5088 9.13682 13.4602 8.15315C15.3596 6.18942 17.2598 4.22615 19.1596 2.26287C19.2005 2.22055 19.2406 2.17734 19.2828 2.13592C19.4448 1.97655 19.5066 1.98465 19.605 2.18814C19.8384 2.66939 19.9874 3.17991 19.9887 3.71743C19.9969 6.56893 20.0104 9.42088 19.9865 12.2719C19.9712 14.0803 18.5191 15.7181 16.7887 15.95C16.5527 15.9815 16.3127 15.9959 16.0746 15.9964C14.0468 16 12.019 15.9986 9.99158 15.9982Z" fill="#FDB21D"/>
  <path d="M10.0055 0.00227012C12.0403 0.00227012 14.0751 0.00587164 16.1098 1.91759e-05C16.891 -0.00223177 17.6121 0.193601 18.2687 0.632986C18.4773 0.772544 18.4825 0.825216 18.3062 1.00799C16.3254 3.05681 14.3503 5.11147 12.3608 7.15083C11.0541 8.49059 8.95004 8.49329 7.64201 7.15443C5.64555 5.11102 3.66564 3.0505 1.67964 0.996739C1.51331 0.824766 1.51984 0.773445 1.72188 0.637938C2.31885 0.23862 2.972 0.0103735 3.68393 0.0076724C5.79099 1.91758e-05 7.89848 0.00497126 10.0055 0.00497126V0.00227012Z" fill="#FDB21D"/>
</svg>