<svg xmlns="http://www.w3.org/2000/svg" width="20" height="23" viewBox="0 0 20 23" fill="none">
  <path d="M8.39206 18.4026C8.73012 18.9315 9.06484 19.467 9.41294 19.9892C9.72422 20.4578 10.2631 20.4544 10.5844 19.9925C10.6146 19.949 10.6413 19.9055 10.6681 19.862C12.5224 16.9734 14.3902 14.0915 16.2277 11.1895C17.2888 9.50926 17.5666 7.66832 17.1516 5.73032C16.9139 4.61907 16.4219 3.62162 15.7056 2.74132C14.7416 1.55308 13.5266 0.722985 12.0505 0.307938C11.5283 0.160663 10.9794 0.100415 10.4439 0H9.55352C9.20876 0.0502073 8.86401 0.0769845 8.52594 0.150622C5.51685 0.796622 3.29435 3.09611 2.77554 6.11525C2.46091 7.94948 2.80901 9.66657 3.80646 11.2397C5.32607 13.6329 6.86241 16.0128 8.39206 18.3993V18.4026ZM10.0054 4.00319C11.8396 4.00654 13.3391 5.51611 13.3325 7.347C13.3258 9.18124 11.8162 10.6774 9.98195 10.6674C8.15441 10.6573 6.66493 9.15781 6.66493 7.33361C6.66493 5.49937 8.17115 3.9965 10.0054 3.99985V4.00319Z" fill="#FDB21D"/>
  <path d="M18.4637 16.5747C17.493 15.9622 16.4119 15.6342 15.3106 15.3597C15.2571 15.3463 15.1567 15.4233 15.1165 15.4835C14.6948 16.1295 14.2831 16.7789 13.868 17.4282C13.1718 18.5127 12.4923 19.6072 11.7727 20.675C11.2572 21.4415 10.3267 21.7527 9.43974 21.5218C8.84394 21.3678 8.40881 21.003 8.07745 20.4875C7.01975 18.8273 5.95201 17.1705 4.89431 15.5103C4.81063 15.3798 4.74368 15.3262 4.57967 15.3798C4.01066 15.5672 3.42825 15.7145 2.86928 15.922C2.00237 16.2433 1.19236 16.6751 0.566439 17.3814C-0.2101 18.255 -0.183323 19.3763 0.616647 20.2231C1.17897 20.8189 1.87183 21.2072 2.6149 21.5184C4.12446 22.1511 5.71436 22.4556 7.33103 22.6264C9.53011 22.8607 11.7225 22.8138 13.9082 22.4556C15.3307 22.2247 16.7231 21.89 18.0118 21.2172C18.9356 20.7352 19.7523 20.1361 20 19.0315V18.4993C19.7925 17.6157 19.2 17.04 18.4637 16.5781V16.5747Z" fill="#FDB21D"/>
</svg>