<svg xmlns="http://www.w3.org/2000/svg" width="20" height="20" viewBox="0 0 20 20" fill="none">
<path fill-rule="evenodd" clip-rule="evenodd" d="M18.5504 9.28259H20.0003C19.9811 9.10776 19.9648 8.93452 19.9486 8.76266C19.9159 8.41439 19.8836 8.07177 19.8292 7.73307C19.226 3.9741 16.1899 0.863429 12.4578 0.17443C12.2065 0.127916 11.9526 0.0917375 11.6987 0.0555594C11.5717 0.0374703 11.4448 0.0193812 11.3181 0H10.6947V1.42451C12.8696 1.47393 14.7255 2.22398 16.245 3.75025C17.7616 5.2736 18.5011 7.14001 18.5504 9.27968V9.28259ZM19.4 15.1782C18.156 14.2828 16.8569 13.4746 15.4794 12.8031C14.6414 12.396 14.5051 12.4367 13.8874 13.149C13.7091 13.354 13.5286 13.5567 13.3481 13.7595C13.1675 13.9623 12.987 14.1651 12.8087 14.37C12.7188 14.4747 12.6318 14.4863 12.4984 14.4514C11.1296 14.0706 9.92331 13.3816 8.84456 12.4716C7.26704 11.1402 6.1506 9.49469 5.56192 7.50038C5.52423 7.36955 5.53583 7.27943 5.64022 7.1864C6.0694 6.80847 6.49568 6.42763 6.92196 6.04679C7.55993 5.47699 7.59472 5.34616 7.23224 4.57286C6.59717 3.22102 5.80551 1.96222 4.95295 0.744117C4.81829 0.550675 4.64183 0.387959 4.46509 0.224991C4.38684 0.152838 4.30854 0.0806364 4.23379 0.0056967H3.967C3.37253 0.345835 2.89696 0.828425 2.46488 1.34299C1.84879 2.07316 1.25844 2.82699 0.669856 3.57858L0.382781 3.94491C0.284186 4.07089 0.203634 4.21237 0.123083 4.35385C0.0828068 4.42459 0.0425311 4.49533 0 4.56414V4.96533C0.00791756 5.00388 0.0167175 5.04288 0.0255393 5.08197C0.0393349 5.1431 0.0531842 5.20447 0.0637968 5.26476C0.318984 6.76486 0.881556 8.15449 1.62682 9.46562C3.63352 12.9891 6.37968 15.8062 9.79862 17.9633C11.2456 18.8761 12.7913 19.5738 14.479 19.9169C14.9691 20.0157 15.4301 20.0884 15.8999 19.757C17.2135 18.8267 18.4692 17.8295 19.5537 16.6347C20.1424 15.9864 20.1163 15.6899 19.4029 15.1782H19.4ZM10.7092 5.0033V3.60205V3.59914C13.7395 3.51193 16.4596 6.18071 16.3813 9.28847H14.9836C14.9488 8.1256 14.5515 7.10228 13.7192 6.27083C12.8928 5.44229 11.8836 5.03819 10.7092 5.0033Z" fill="#FDB21D"/>
</svg>