<svg width="116" height="116" viewBox="0 0 116 116" fill="none" xmlns="http://www.w3.org/2000/svg">
<path d="M57.6794 115.417C89.5349 115.417 115.359 89.5798 115.359 57.7084C115.359 25.8369 89.5349 0 57.6794 0C25.824 0 0 25.8369 0 57.7084C0 89.5798 25.824 115.417 57.6794 115.417Z" fill="white"/>
<path d="M76.9242 61.8486C76.9158 62.0897 76.9074 62.3307 76.8823 62.5718C76.4804 66.9937 73.7259 70.8588 68.6772 74.1005C67.6808 74.7405 66.6008 75.3556 65.4286 75.9374C65.3951 75.954 65.3533 75.9707 65.3198 75.9873C61.4349 77.924 56.9304 79.3869 52.5181 80.4009C51.865 80.5505 51.212 80.6919 50.5589 80.8248C50.5087 80.8332 50.4584 80.8415 50.4082 80.8581C50.1403 80.908 49.864 80.9661 49.596 81.016C45.954 81.6976 42.4961 82.0716 39.6327 82.1548H39.5824H39.5908C38.7117 82.1548 38 81.1324 38 79.8773C38 78.6222 38.7117 77.5998 39.5908 77.5998C41.3993 77.5998 45.6274 77.151 50.45 76.1286C50.7766 76.0621 51.1115 75.9873 51.4464 75.9125C51.6892 75.8543 51.9404 75.8044 52.1915 75.7379C52.719 75.6132 53.2465 75.4886 53.774 75.3473C55.1806 74.9898 56.5955 74.5826 57.9938 74.1254C58.0189 74.1171 58.044 74.1088 58.0691 74.1005C67.1785 71.0998 72.3528 67.0021 73.0309 62.2559C73.0477 62.1229 73.0644 61.9816 73.0728 61.8486H76.9242Z" fill="#FAAF04"/>
<path d="M76.9242 62.0976H73.0644C73.1817 59.4627 70.988 56.0631 66.8353 52.4474C62.8499 48.9896 57.1231 45.3739 50.7014 42.2818C49.4706 41.6917 48.2147 41.1181 46.9756 40.5862L46.9253 40.5696C46.9086 40.5612 46.9002 40.5612 46.8835 40.5529L46.6825 40.4615C45.795 39.9711 45.2843 38.6162 45.5188 37.3611C45.703 36.3637 46.3225 35.6904 47.0509 35.6904C47.2602 35.6904 47.4696 35.7486 47.6705 35.8567C47.7207 35.8816 47.7626 35.9065 47.8045 35.9398C51.0446 37.411 54.0839 38.9238 56.8217 40.4283L56.9305 40.4864C57.0394 40.5446 57.1482 40.6028 57.2571 40.661C58.2618 41.2179 59.233 41.7748 60.1623 42.3317C71.4234 49.0727 77.0581 55.7057 76.9242 62.0976Z" fill="#FAAF04"/>
<path d="M54.9713 73.2109C54.8206 73.6265 54.6783 74.0421 54.5359 74.4328C54.3852 74.8567 54.2429 75.264 54.1005 75.6547C53.9582 76.0619 53.8159 76.4526 53.6903 76.8183C53.5312 77.2589 53.3888 77.6661 53.2549 78.0402C53.0958 78.489 52.9534 78.8963 52.8279 79.2454C52.5097 80.1431 52.3087 80.6834 52.292 80.7333C52.3004 80.6834 52.426 80.1597 52.6269 79.2787C52.7023 78.9379 52.7944 78.5472 52.8948 78.1067C52.9786 77.741 53.0707 77.342 53.1711 76.9181C53.2549 76.5607 53.3386 76.1866 53.4307 75.7876C53.5144 75.4053 53.6065 75.0063 53.707 74.599C53.7991 74.2167 53.8912 73.8177 53.9833 73.4104C54.3099 73.3522 54.6364 73.2857 54.9713 73.2109Z" fill="#8E35FE"/>
<path d="M65.5457 40.1374L56.2773 72.9614C55.6912 73.0943 55.1135 73.219 54.5358 73.3354C54.2595 73.3936 53.9916 73.4435 53.7237 73.5016C53.3553 73.5764 52.9953 73.6429 52.6353 73.7094L64.407 32L64.7168 34.1944L64.7838 34.984C64.7921 34.9507 64.8005 34.9092 64.8089 34.8759L64.9931 36.2142L65.1521 37.3695L65.3698 38.9405L65.4117 39.4392C65.4201 39.4143 65.4201 39.3893 65.4284 39.3727L65.5457 40.1374Z" fill="#8E35FE"/>
<path d="M46.5566 57.9168C46.9836 57.4264 47.4023 56.9443 47.8209 56.4622C49.1689 54.9245 50.5168 53.3785 51.8648 51.8408C51.9485 51.7493 52.0239 51.7244 52.1327 51.7493C52.7607 51.9073 53.3886 52.0486 54.0166 52.1982C54.0584 52.2065 54.1087 52.2231 54.1924 52.2397C52.3672 54.326 50.5671 56.3791 48.7586 58.4405C49.8973 61.2 51.0359 63.9513 52.1913 66.7275C52.116 66.7192 52.0825 66.7109 52.0406 66.7026C51.396 66.553 50.7513 66.4033 50.115 66.2454C50.048 66.2288 49.9726 66.1706 49.9391 66.0958C48.8172 63.4027 47.7037 60.7013 46.5818 57.9999C46.5734 57.9833 46.5734 57.9584 46.5566 57.9168Z" fill="#8E35FE"/>
<path d="M66.5169 62.6293C65.3782 59.8697 64.2395 57.1268 63.0841 54.3506C63.1511 54.3589 63.193 54.3672 63.2348 54.3755C63.8795 54.5251 64.5242 54.6831 65.1605 54.8327C65.2526 54.8576 65.3029 54.9075 65.3531 55.0155C66.4499 57.6754 67.5467 60.3269 68.6519 62.9784C68.7105 63.128 68.6854 63.1945 68.6017 63.2943C66.8602 65.2808 65.1187 67.2674 63.3855 69.2539C63.3186 69.3371 63.2516 69.362 63.1595 69.3371C62.4813 69.1708 61.8031 69.0129 61.0747 68.8467C62.9083 66.752 64.7084 64.699 66.5169 62.6293Z" fill="#8E35FE"/>
</svg>
