<?xml version="1.0" encoding="UTF-8"?>
<svg id="Layer_2" data-name="Layer 2" xmlns="http://www.w3.org/2000/svg" viewBox="0 0 136.44 113.42">
  <defs>
    <style>
      .cls-1 {
        fill: #05FFF5;
        stroke-width: 0px;
      }
    </style>
  </defs>
  <g id="Layer_1-2" data-name="Layer 1">
    <g>
      <path class="cls-1" d="m115.65,26.56c.2-2.3.4-4.65.6-7.05.2-2.4.45-4.75.75-7.05.2-1.4.45-2.85.75-4.35.3-1.6.8-2.8,1.5-3.6,1.2-1.2,2.65-2.25,4.35-3.15,1.7-1,3.3-1.45,4.8-1.35,1.2.1,2.5.85,3.9,2.25,1.5,1.4,2.4,2.75,2.7,4.05,1.2,6.8,1.65,13.65,1.35,20.55-.5,12.4-1.1,24.75-1.8,37.05-.6,12.3-1.25,24.55-1.95,36.75-.1,1.6-.45,3.25-1.05,4.95-.5,1.7-1.25,3.2-2.25,4.5-1.4,1.8-3.15,2.85-5.25,3.15-2.1.4-4.05.05-5.85-1.05-1.8-1-3-2.6-3.6-4.8-.7-2.7-1.25-5.45-1.65-8.25-.4-2.7-.55-5.45-.45-8.25.4-10.7.9-21.4,1.5-32.1.6-10.8,1.15-21.55,1.65-32.25Zm2.1,55.95c-.1,3.7-.15,7.5-.15,11.4s.1,7.5.3,11.1c.1,1,.45,2.2,1.05,3.6.7,1.4,1.65,2.2,2.85,2.4,1.3.1,2.4-.45,3.3-1.65,1-1.2,1.7-2.3,2.1-3.3.6-1.3.95-2.7,1.05-4.2.1-1.4.2-2.85.3-4.35,1.2-26.7,2.4-53.55,3.6-80.55.1-1.1.15-2.15.15-3.15,0-1.1-.2-2.15-.6-3.15-.3-1-.7-2.1-1.2-3.3-.5-1.2-1.3-1.85-2.4-1.95-1.1-.2-2.5.3-4.2,1.5-1.6,1.1-2.5,2.65-2.7,4.65-.4,1.4-.75,4.2-1.05,8.4-.3,4.2-.6,9.15-.9,14.85-.2,5.6-.45,11.45-.75,17.55-.2,6-.35,11.7-.45,17.1-.1,5.3-.2,9.65-.3,13.05Z"/>
      <path class="cls-1" d="m28.1,29.94c-3.9,2.2-7.25,4.9-10.05,8.1-2.8,3.2-5.25,6.7-7.35,10.5-.7,1-1.5,2.15-2.4,3.45-.9,1.2-1.95,1.75-3.15,1.65-1.4-.1-2.55-.95-3.45-2.55-.9-1.6-1.4-2.95-1.5-4.05C0,44.84-.05,42.59.05,40.29c.1-2.4.6-4.55,1.5-6.45,2.1-4.1,5.3-8.2,9.6-12.3,4.4-4.1,9.45-7.7,15.15-10.8,5.7-3.1,11.7-5.3,18-6.6,6.4-1.3,12.7-1.2,18.9.3,8.5,2.1,15.15,5.7,19.95,10.8,4.9,5,8.1,11.9,9.6,20.7,1.2,7.7.8,15.5-1.2,23.4-2,7.8-5.3,15.15-9.9,22.05-4.5,6.8-9.95,12.65-16.35,17.55-6.4,4.9-13.4,8.25-21,10.05-5.9,1.5-11.45,1.6-16.65.3-5.1-1.3-9.55-3.65-13.35-7.05-3.7-3.4-6.45-7.6-8.25-12.6-1.8-5-2.25-10.5-1.35-16.5,1.2-8.7,3.9-16.55,8.1-23.55s9.3-13.55,15.3-19.65ZM6.05,47.79c.9-.2,2.1-1.3,3.6-3.3,1.6-2,3.35-4.25,5.25-6.75s3.65-4.6,5.25-6.3c1.3-1.3,2.75-2.45,4.35-3.45,1.6-1.1,3.2-2.05,4.8-2.85.6-.3,1.45-.4,2.55-.3,1.2.1,2,.5,2.4,1.2.5.7.5,1.5,0,2.4-.5.8-.9,1.55-1.2,2.25-.4.7-.9,1.35-1.5,1.95-.6.5-1.15,1.05-1.65,1.65-4.3,4.9-8.3,10.1-12,15.6-3.6,5.5-6.1,11.5-7.5,18-1.3,5.9-1.6,11.45-.9,16.65.8,5.2,2.6,9.65,5.4,13.35,2.8,3.7,6.65,6.25,11.55,7.65,5,1.5,11.05,1.45,18.15-.15,3.2-.8,6.3-2.2,9.3-4.2,3-2,5.85-3.95,8.55-5.85,9.2-7,16.15-15.05,20.85-24.15,4.8-9.2,6.65-19.75,5.55-31.65-.8-8.7-3.5-15.75-8.1-21.15-4.6-5.5-10.75-8.95-18.45-10.35-5-.9-10.35-.75-16.05.45-5.7,1.1-11.3,3-16.8,5.7-5.5,2.6-10.45,5.85-14.85,9.75-4.3,3.8-7.6,7.95-9.9,12.45-.7,1.3-1.25,2.95-1.65,4.95-.3,1.9-.25,3.55.15,4.95.4,1.3,1.35,1.8,2.85,1.5Zm73.95,12.6c-3.1,6.5-6.85,12.45-11.25,17.85-4.3,5.4-9.55,10.05-15.75,13.95-4.3,2.5-8.65,3.7-13.05,3.6-4.4-.1-8.8-.85-13.2-2.25-2.2-.8-4.1-2.4-5.7-4.8-1.6-2.5-2.75-5.3-3.45-8.4-.6-3.2-.55-6.25.15-9.15,2.6-10,6.85-18.8,12.75-26.4,6-7.6,13.3-14.1,21.9-19.5,3.6-2.3,7.3-3.2,11.1-2.7,3.9.5,7.35,2.05,10.35,4.65,3.1,2.5,5.15,5.8,6.15,9.9.3,1.3.6,3.4.9,6.3.4,2.8.6,5.75.6,8.85s-.5,5.8-1.5,8.1Zm-3.75-12.9c-.3-1.7-.55-3.35-.75-4.95-.2-1.6-.6-3.2-1.2-4.8-1.5-4.6-3.9-7.6-7.2-9-3.3-1.5-7.15-1.25-11.55.75-1.2.4-2.4.95-3.6,1.65-1.2.6-2.25,1.3-3.15,2.1-4.9,5.2-9.65,10.65-14.25,16.35-4.5,5.6-8.05,11.85-10.65,18.75-1.2,3.1-1.8,6.2-1.8,9.3.1,3,1.4,5.85,3.9,8.55,2.7,2.8,5.7,4.35,9,4.65,3.3.3,6.55-.05,9.75-1.05,3.8-1.1,7.55-3.15,11.25-6.15,3.7-3,7.05-6.55,10.05-10.65,3-4.1,5.4-8.35,7.2-12.75,1.9-4.5,2.9-8.75,3-12.75Z"/>
    </g>
  </g>
</svg>