<?xml version="1.0" encoding="UTF-8"?>
<svg id="Layer_2" data-name="Layer 2" xmlns="http://www.w3.org/2000/svg" viewBox="0 0 203.55 106.96">
  <defs>
    <style>
      .cls-1 {
        fill: #05FFF5;
        stroke-width: 0px;
      }
    </style>
  </defs>
  <g id="Layer_1-2" data-name="Layer 1">
    <g>
      <path class="cls-1" d="m150.9,83.72c6.5-1.3,12.75-2.55,18.75-3.75,6-1.2,11.95-2.4,17.85-3.6.5-.1.95-.15,1.35-.15.4-.1.8-.2,1.2-.3,1.6-.4,3.2-.75,4.8-1.05,1.6-.3,3.1-.2,4.5.3,1.4.4,2.5,1.65,3.3,3.75,1.2,2.8,1.2,5.45,0,7.95-1.2,2.4-3,4.25-5.4,5.55-3.2,2-6.6,3.8-10.2,5.4-3.5,1.6-7.05,2.75-10.65,3.45-7,1.3-14.1,2.3-21.3,3-7.2.8-14.35,1.45-21.45,1.95-1.9.1-3.95-.35-6.15-1.35-2.1-1-3.6-2.25-4.5-3.75-.7-1.2-.8-2.95-.3-5.25.6-2.2,1.4-3.95,2.4-5.25,5.9-8.1,10.7-16.7,14.4-25.8,3.7-9.1,7.05-18.35,10.05-27.75,1.8-5.8,1.3-10.3-1.5-13.5-2.8-3.2-7.15-4.15-13.05-2.85-2.4.5-4.75,1.45-7.05,2.85-2.2,1.3-4.45,2.65-6.75,4.05-.8.4-1.55,1-2.25,1.8-.6.7-1.25,1.4-1.95,2.1-1.9,1.7-3.9,2.95-6,3.75-2.1.8-4.45.25-7.05-1.65-1.9-1.4-2.9-3.4-3-6-.1-2.7.65-5.35,2.25-7.95,2.2-3.7,5.15-6.9,8.85-9.6,3.7-2.8,7.8-5,12.3-6.6,4.5-1.7,9.05-2.6,13.65-2.7,4.6-.2,8.9.45,12.9,1.95,6.1,2.3,10.4,5.95,12.9,10.95,2.6,4.9,3.8,10.25,3.6,16.05-.1,4.9-.85,9.85-2.25,14.85-1.3,4.9-2.7,9.75-4.2,14.55-1.2,4-2.7,8-4.5,12-1.8,3.9-3.65,8.1-5.55,12.6Zm-45.9-54.9c.8,1.2,1.95,1.85,3.45,1.95,1.5.1,2.75-.3,3.75-1.2,1.4-1.2,2.75-2.4,4.05-3.6,1.3-1.2,2.7-2.2,4.2-3,2.8-1.5,5.65-2.9,8.55-4.2,2.9-1.4,5.8-2.3,8.7-2.7,4.3-.6,7.9,0,10.8,1.8,3,1.8,5.05,4.4,6.15,7.8,1.2,3.3,1.15,7-.15,11.1-2,6.5-4.15,13-6.45,19.5-2.2,6.4-4.9,12.65-8.1,18.75-3.1,6-7,11.65-11.7,16.95-.8,1-1.5,2.35-2.1,4.05-.5,1.8-.5,3.2,0,4.2.5.9,1.65,1.65,3.45,2.25,1.8.6,3.35.85,4.65.75,6.8-.8,13.6-1.65,20.4-2.55,6.9-.9,13.7-2,20.4-3.3,3.2-.5,6.3-1.4,9.3-2.7,3.1-1.2,6.1-2.5,9-3.9,1.1-.5,2.1-1.15,3-1.95,1-.9,1.7-2,2.1-3.3.5-1.4.25-2.65-.75-3.75-1-1.2-2.25-1.7-3.75-1.5-7.9,1.4-15.95,2.85-24.15,4.35-8.1,1.4-16.5,2.9-25.2,4.5,1-2.7,1.8-4.85,2.4-6.45.7-1.7,1.25-3.3,1.65-4.8,2.6-7.5,5.25-14.95,7.95-22.35,2.7-7.5,5.1-15.05,7.2-22.65.8-3,.8-6.05,0-9.15-.7-3.1-2.05-5.95-4.05-8.55-1.9-2.7-4.2-4.95-6.9-6.75-2.6-1.9-5.4-3.05-8.4-3.45-7.9-1.1-15-.2-21.3,2.7-6.2,2.9-11.7,7.45-16.5,13.65-2.4,3-2.95,5.5-1.65,7.5Z"/>
      <path class="cls-1" d="m28.1,26.71c-3.9,2.2-7.25,4.9-10.05,8.1-2.8,3.2-5.25,6.7-7.35,10.5-.7,1-1.5,2.15-2.4,3.45-.9,1.2-1.95,1.75-3.15,1.65-1.4-.1-2.55-.95-3.45-2.55-.9-1.6-1.4-2.95-1.5-4.05C0,41.61-.05,39.36.05,37.06c.1-2.4.6-4.55,1.5-6.45,2.1-4.1,5.3-8.2,9.6-12.3,4.4-4.1,9.45-7.7,15.15-10.8,5.7-3.1,11.7-5.3,18-6.6,6.4-1.3,12.7-1.2,18.9.3,8.5,2.1,15.15,5.7,19.95,10.8,4.9,5,8.1,11.9,9.6,20.7,1.2,7.7.8,15.5-1.2,23.4-2,7.8-5.3,15.15-9.9,22.05-4.5,6.8-9.95,12.65-16.35,17.55-6.4,4.9-13.4,8.25-21,10.05-5.9,1.5-11.45,1.6-16.65.3-5.1-1.3-9.55-3.65-13.35-7.05-3.7-3.4-6.45-7.6-8.25-12.6s-2.25-10.5-1.35-16.5c1.2-8.7,3.9-16.55,8.1-23.55,4.2-7,9.3-13.55,15.3-19.65ZM6.05,44.56c.9-.2,2.1-1.3,3.6-3.3,1.6-2,3.35-4.25,5.25-6.75,1.9-2.5,3.65-4.6,5.25-6.3,1.3-1.3,2.75-2.45,4.35-3.45,1.6-1.1,3.2-2.05,4.8-2.85.6-.3,1.45-.4,2.55-.3,1.2.1,2,.5,2.4,1.2.5.7.5,1.5,0,2.4-.5.8-.9,1.55-1.2,2.25-.4.7-.9,1.35-1.5,1.95-.6.5-1.15,1.05-1.65,1.65-4.3,4.9-8.3,10.1-12,15.6-3.6,5.5-6.1,11.5-7.5,18-1.3,5.9-1.6,11.45-.9,16.65.8,5.2,2.6,9.65,5.4,13.35,2.8,3.7,6.65,6.25,11.55,7.65,5,1.5,11.05,1.45,18.15-.15,3.2-.8,6.3-2.2,9.3-4.2,3-2,5.85-3.95,8.55-5.85,9.2-7,16.15-15.05,20.85-24.15,4.8-9.2,6.65-19.75,5.55-31.65-.8-8.7-3.5-15.75-8.1-21.15-4.6-5.5-10.75-8.95-18.45-10.35-5-.9-10.35-.75-16.05.45-5.7,1.1-11.3,3-16.8,5.7-5.5,2.6-10.45,5.85-14.85,9.75-4.3,3.8-7.6,7.95-9.9,12.45-.7,1.3-1.25,2.95-1.65,4.95-.3,1.9-.25,3.55.15,4.95.4,1.3,1.35,1.8,2.85,1.5Zm73.95,12.6c-3.1,6.5-6.85,12.45-11.25,17.85-4.3,5.4-9.55,10.05-15.75,13.95-4.3,2.5-8.65,3.7-13.05,3.6-4.4-.1-8.8-.85-13.2-2.25-2.2-.8-4.1-2.4-5.7-4.8-1.6-2.5-2.75-5.3-3.45-8.4-.6-3.2-.55-6.25.15-9.15,2.6-10,6.85-18.8,12.75-26.4,6-7.6,13.3-14.1,21.9-19.5,3.6-2.3,7.3-3.2,11.1-2.7,3.9.5,7.35,2.05,10.35,4.65,3.1,2.5,5.15,5.8,6.15,9.9.3,1.3.6,3.4.9,6.3.4,2.8.6,5.75.6,8.85s-.5,5.8-1.5,8.1Zm-3.75-12.9c-.3-1.7-.55-3.35-.75-4.95-.2-1.6-.6-3.2-1.2-4.8-1.5-4.6-3.9-7.6-7.2-9-3.3-1.5-7.15-1.25-11.55.75-1.2.4-2.4.95-3.6,1.65-1.2.6-2.25,1.3-3.15,2.1-4.9,5.2-9.65,10.65-14.25,16.35-4.5,5.6-8.05,11.85-10.65,18.75-1.2,3.1-1.8,6.2-1.8,9.3.1,3,1.4,5.85,3.9,8.55,2.7,2.8,5.7,4.35,9,4.65,3.3.3,6.55-.05,9.75-1.05,3.8-1.1,7.55-3.15,11.25-6.15,3.7-3,7.05-6.55,10.05-10.65,3-4.1,5.4-8.35,7.2-12.75,1.9-4.5,2.9-8.75,3-12.75Z"/>
    </g>
  </g>
</svg>