<?xml version="1.0" encoding="UTF-8"?>
<svg id="Layer_2" data-name="Layer 2" xmlns="http://www.w3.org/2000/svg" viewBox="0 0 136.44 113.42">
  <defs>
    <style>
      .cls-1 {
        fill: #05FFF5;
        stroke-width: 0px;
      }
    </style>
  </defs>
  <g id="Layer_1-2" data-name="Layer 1">
    <g>
      <path class="cls-1" d="m135,6.31c-.3-1.3-1.2-2.65-2.7-4.05-1.4-1.4-2.7-2.15-3.9-2.25-1.5-.1-3.1.35-4.8,1.35-1.7.9-3.15,1.95-4.35,3.15-.7.8-1.2,2-1.5,3.6-.3,1.5-.55,2.95-.75,4.35-.3,2.3-.55,4.65-.75,7.05-.2,2.4-.4,4.75-.6,7.05-.5,10.7-1.05,21.45-1.65,32.25-.6,10.7-1.1,21.4-1.5,32.1-.1,2.8.05,5.55.45,8.25.4,2.8.95,5.55,1.65,8.25.6,2.2,1.8,3.8,3.6,4.8,1.8,1.1,3.75,1.45,5.85,1.05,2.1-.3,3.85-1.35,5.25-3.15,1-1.3,1.75-2.8,2.25-4.5.6-1.7.95-3.35,1.05-4.95.7-12.2,1.35-24.45,1.95-36.75.7-12.3,1.3-24.65,1.8-37.05.3-6.9-.15-13.75-1.35-20.55Z"/>
      <path class="cls-1" d="m83.15,15.23c-4.8-5.1-11.45-8.7-19.95-10.8-6.2-1.5-12.5-1.6-18.9-.3-6.3,1.3-12.3,3.5-18,6.6-5.7,3.1-10.75,6.7-15.15,10.8-4.3,4.1-7.5,8.2-9.6,12.3-.9,1.9-1.4,4.05-1.5,6.45-.1,2.3-.05,4.55.15,6.75.1,1.1.6,2.45,1.5,4.05.9,1.6,2.05,2.45,3.45,2.55,1.2.1,2.25-.45,3.15-1.65.9-1.3,1.7-2.45,2.4-3.45,2.1-3.8,4.55-7.3,7.35-10.5,2.8-3.2,6.15-5.9,10.05-8.1-6,6.1-11.1,12.65-15.3,19.65-4.2,7-6.9,14.85-8.1,23.55-.9,6-.45,11.5,1.35,16.5,1.8,5,4.55,9.2,8.25,12.6,3.8,3.4,8.25,5.75,13.35,7.05,5.2,1.3,10.75,1.2,16.65-.3,7.6-1.8,14.6-5.15,21-10.05,6.4-4.9,11.85-10.75,16.35-17.55,4.6-6.9,7.9-14.25,9.9-22.05,2-7.9,2.4-15.7,1.2-23.4-1.5-8.8-4.7-15.7-9.6-20.7Zm-8.85,22.5c.6,1.6,1,3.2,1.2,4.8.2,1.6.45,3.25.75,4.95-.1,4-1.1,8.25-3,12.75-1.8,4.4-4.2,8.65-7.2,12.75-3,4.1-6.35,7.65-10.05,10.65-3.7,3-7.45,5.05-11.25,6.15-3.2,1-6.45,1.35-9.75,1.05-3.3-.3-6.3-1.85-9-4.65-2.5-2.7-3.8-5.55-3.9-8.55,0-3.1.6-6.2,1.8-9.3,2.6-6.9,6.15-13.15,10.65-18.75,4.6-5.7,9.35-11.15,14.25-16.35.9-.8,1.95-1.5,3.15-2.1,1.2-.7,2.4-1.25,3.6-1.65,4.4-2,8.25-2.25,11.55-.75,3.3,1.4,5.7,4.4,7.2,9Z"/>
    </g>
  </g>
</svg>