<?xml version="1.0" encoding="UTF-8"?>
<svg id="Layer_2" data-name="Layer 2" xmlns="http://www.w3.org/2000/svg" viewBox="0 0 203.55 109.82">
  <defs>
    <style>
      .cls-1 {
        fill: #05FFF5;
        stroke-width: 0px;
      }
    </style>
  </defs>
  <g id="Layer_1-2" data-name="Layer 1">
    <g>
      <path class="cls-1" d="m202.65,82.51c-.8-2.1-1.9-3.35-3.3-3.75-1.4-.5-2.9-.6-4.5-.3-1.6.3-3.2.65-4.8,1.05-.4.1-.8.2-1.2.3-.4,0-.85.05-1.35.15-5.9,1.2-11.85,2.4-17.85,3.6-6,1.2-12.25,2.45-18.75,3.75,1.9-4.5,3.75-8.7,5.55-12.6,1.8-4,3.3-8,4.5-12,1.5-4.8,2.9-9.65,4.2-14.55,1.4-5,2.15-9.95,2.25-14.85.2-5.8-1-11.15-3.6-16.05-2.5-5-6.8-8.65-12.9-10.95-4-1.5-8.3-2.15-12.9-1.95-4.6.1-9.15,1-13.65,2.7-4.5,1.6-8.6,3.8-12.3,6.6-3.7,2.7-6.65,5.9-8.85,9.6-1.6,2.6-2.35,5.25-2.25,7.95.1,2.6,1.1,4.6,3,6,2.6,1.9,4.95,2.45,7.05,1.65,2.1-.8,4.1-2.05,6-3.75.7-.7,1.35-1.4,1.95-2.1.7-.8,1.45-1.4,2.25-1.8,2.3-1.4,4.55-2.75,6.75-4.05,2.3-1.4,4.65-2.35,7.05-2.85,5.9-1.3,10.25-.35,13.05,2.85s3.3,7.7,1.5,13.5c-3,9.4-6.35,18.65-10.05,27.75-3.7,9.1-8.5,17.7-14.4,25.8-1,1.3-1.8,3.05-2.4,5.25-.5,2.3-.4,4.05.3,5.25.9,1.5,2.4,2.75,4.5,3.75,2.2,1,4.25,1.45,6.15,1.35,7.1-.5,14.25-1.15,21.45-1.95,7.2-.7,14.3-1.7,21.3-3,3.6-.7,7.15-1.85,10.65-3.45,3.6-1.6,7-3.4,10.2-5.4,2.4-1.3,4.2-3.15,5.4-5.55,1.2-2.5,1.2-5.15,0-7.95Z"/>
      <path class="cls-1" d="m92.75,32.71c-1.5-8.8-4.7-15.7-9.6-20.7-4.8-5.1-11.45-8.7-19.95-10.8-6.2-1.5-12.5-1.6-18.9-.3-6.3,1.3-12.3,3.5-18,6.6-5.7,3.1-10.75,6.7-15.15,10.8-4.3,4.1-7.5,8.2-9.6,12.3-.9,1.9-1.4,4.05-1.5,6.45C-.05,39.36,0,41.61.2,43.81c.1,1.1.6,2.45,1.5,4.05.9,1.6,2.05,2.45,3.45,2.55,1.2.1,2.25-.45,3.15-1.65.9-1.3,1.7-2.45,2.4-3.45,2.1-3.8,4.55-7.3,7.35-10.5,2.8-3.2,6.15-5.9,10.05-8.1-6,6.1-11.1,12.65-15.3,19.65s-6.9,14.85-8.1,23.55c-.9,6-.45,11.5,1.35,16.5s4.55,9.2,8.25,12.6c3.8,3.4,8.25,5.75,13.35,7.05,5.2,1.3,10.75,1.2,16.65-.3,7.6-1.8,14.6-5.15,21-10.05s11.85-10.75,16.35-17.55c4.6-6.9,7.9-14.25,9.9-22.05,2-7.9,2.4-15.7,1.2-23.4Zm-18.45,1.8c.6,1.6,1,3.2,1.2,4.8.2,1.6.45,3.25.75,4.95-.1,4-1.1,8.25-3,12.75-1.8,4.4-4.2,8.65-7.2,12.75-3,4.1-6.35,7.65-10.05,10.65s-7.45,5.05-11.25,6.15c-3.2,1-6.45,1.35-9.75,1.05-3.3-.3-6.3-1.85-9-4.65-2.5-2.7-3.8-5.55-3.9-8.55,0-3.1.6-6.2,1.8-9.3,2.6-6.9,6.15-13.15,10.65-18.75,4.6-5.7,9.35-11.15,14.25-16.35.9-.8,1.95-1.5,3.15-2.1,1.2-.7,2.4-1.25,3.6-1.65,4.4-2,8.25-2.25,11.55-.75,3.3,1.4,5.7,4.4,7.2,9Z"/>
    </g>
  </g>
</svg>